<?xml version="1.0" encoding="utf-8"?>
<svg version="1.1" xmlns:xlink="http://www.w3.org/1999/xlink" width="12px" height="12px" viewBox="85 348  12 12" xmlns="http://www.w3.org/2000/svg">
  <path d="M 91 348  C 94.36 348  97 350.64  97 354  C 97 357.36  94.36 360  91 360  C 87.64 360  85 357.36  85 354  C 85 350.64  87.64 348  91 348  Z " fill-rule="nonzero" fill="#ffffff" stroke="none" />
  <path d="M 91 348.5  C 94.08 348.5  96.5 350.92  96.5 354  C 96.5 357.08  94.08 359.5  91 359.5  C 87.92 359.5  85.5 357.08  85.5 354  C 85.5 350.92  87.92 348.5  91 348.5  Z " stroke-width="1" stroke="#aaaaaa" fill="none" />
  <path d="M 91 357  C 89.32 357  88 355.68  88 354  C 88 352.32  89.32 351  91 351  C 92.68 351  94 352.32  94 354  C 94 355.68  92.68 357  91 357  " fill-rule="nonzero" fill="#aaaaaa" stroke="none" />
</svg>