<?xml version="1.0" encoding="utf-8"?>
<svg version="1.1" xmlns:xlink="http://www.w3.org/1999/xlink" width="12px" height="12px" viewBox="652 366  12 12" xmlns="http://www.w3.org/2000/svg">
  <path d="M 658 366  C 661.36 366  664 368.64  664 372  C 664 375.36  661.36 378  658 378  C 654.64 378  652 375.36  652 372  C 652 368.64  654.64 366  658 366  Z " fill-rule="nonzero" fill="#ffffff" stroke="none" />
  <path d="M 658 366.5  C 661.08 366.5  663.5 368.92  663.5 372  C 663.5 375.08  661.08 377.5  658 377.5  C 654.92 377.5  652.5 375.08  652.5 372  C 652.5 368.92  654.92 366.5  658 366.5  Z " stroke-width="1" stroke="#797979" fill="none" />
  <path d="M 658 375  C 656.32 375  655 373.68  655 372  C 655 370.32  656.32 369  658 369  C 659.68 369  661 370.32  661 372  C 661 373.68  659.68 375  658 375  " fill-rule="nonzero" fill="#797979" stroke="none" />
</svg>