<?xml version="1.0" encoding="utf-8"?>
<svg version="1.1" xmlns:xlink="http://www.w3.org/1999/xlink" width="12px" height="12px" viewBox="652 207  12 12" xmlns="http://www.w3.org/2000/svg">
  <path d="M 658 207  C 661.36 207  664 209.64  664 213  C 664 216.36  661.36 219  658 219  C 654.64 219  652 216.36  652 213  C 652 209.64  654.64 207  658 207  Z " fill-rule="nonzero" fill="#ffffff" stroke="none" />
  <path d="M 658 207.5  C 661.08 207.5  663.5 209.92  663.5 213  C 663.5 216.08  661.08 218.5  658 218.5  C 654.92 218.5  652.5 216.08  652.5 213  C 652.5 209.92  654.92 207.5  658 207.5  Z " stroke-width="1" stroke="#797979" fill="none" />
  <path d="M 658 216  C 656.32 216  655 214.68  655 213  C 655 211.32  656.32 210  658 210  C 659.68 210  661 211.32  661 213  C 661 214.68  659.68 216  658 216  " fill-rule="nonzero" fill="#797979" stroke="none" />
</svg>