<?xml version="1.0" encoding="utf-8"?>
<svg version="1.1" xmlns:xlink="http://www.w3.org/1999/xlink" width="12px" height="12px" viewBox="652 153  12 12" xmlns="http://www.w3.org/2000/svg">
  <path d="M 658 153  C 661.36 153  664 155.64  664 159  C 664 162.36  661.36 165  658 165  C 654.64 165  652 162.36  652 159  C 652 155.64  654.64 153  658 153  Z " fill-rule="nonzero" fill="#f0f0f0" stroke="none" />
  <path d="M 658 153.5  C 661.08 153.5  663.5 155.92  663.5 159  C 663.5 162.08  661.08 164.5  658 164.5  C 654.92 164.5  652.5 162.08  652.5 159  C 652.5 155.92  654.92 153.5  658 153.5  Z " stroke-width="1" stroke="#797979" fill="none" />
  <path d="M 658 162  C 656.32 162  655 160.68  655 159  C 655 157.32  656.32 156  658 156  C 659.68 156  661 157.32  661 159  C 661 160.68  659.68 162  658 162  " fill-rule="nonzero" fill="#797979" stroke="none" />
</svg>