<?xml version="1.0" encoding="utf-8"?>
<svg version="1.1" xmlns:xlink="http://www.w3.org/1999/xlink" width="22px" height="20px" xmlns="http://www.w3.org/2000/svg">
  <g transform="matrix(1 0 0 1 -254 -167 )">
    <path d="M 5.75219512195122 7.20879120879122  L 2.28585365853658 7.20879120879122  L 8.97170731707318 14.6991758241758  L 5.75219512195122 7.20879120879122  Z M 7.25463414634147 7.20879120879122  L 11 15.9043956043956  L 14.7453658536585 7.20879120879122  L 7.25463414634147 7.20879120879122  Z M 2.07121951219511 5.76703296703296  L 5.78439024390245 5.76703296703296  L 7.97365853658538 1.44175824175826  L 5.16195121951219 1.44175824175826  L 2.07121951219511 5.76703296703296  Z M 16.2478048780488 7.20879120879122  L 13.0282926829268 14.6991758241758  L 19.7141463414634 7.20879120879122  L 16.2478048780488 7.20879120879122  Z M 9.52975609756098 1.44175824175826  L 7.34048780487806 5.76703296703296  L 14.6595121951219 5.76703296703296  L 12.470243902439 1.44175824175826  L 9.52975609756098 1.44175824175826  Z M 14.0263414634146 1.44175824175826  L 16.2156097560975 5.76703296703296  L 19.9287804878049 5.76703296703296  L 16.8380487804878 1.44175824175826  L 14.0263414634146 1.44175824175826  Z M 17.1814634146342 0  C 17.4175609756097 0  17.6 0.09761904761904  17.7287804878049 0.292857142857161  L 21.849756097561 6.05989010989012  C 21.949918699187 6.19505494505497  21.9964227642276 6.35086996336996  21.9892682926829 6.52733516483518  C 21.9821138211382 6.7038003663004  21.9213008130081 6.85586080586083  21.8068292682927 6.98351648351649  L 11.5043902439024 18.5175824175825  C 11.3756097560976 18.6677655677656  11.2074796747968 18.7428571428572  11 18.7428571428572  C 10.7925203252032 18.7428571428572  10.6243902439024 18.6677655677656  10.4956097560976 18.5175824175825  L 0.193170731707298 6.98351648351649  C 0.0786991869918765 6.85586080586083  0.0178861788617724 6.7038003663004  0.0107317073170634 6.52733516483518  C 0.00357723577235447 6.35086996336996  0.0500813008130017 6.19505494505497  0.150243902439005 6.05989010989012  L 4.27121951219511 0.292857142857161  C 4.39999999999998 0.09761904761904  4.58243902439026 0  4.81853658536585 0  L 17.1814634146342 0  Z " fill-rule="nonzero" fill="#666666" stroke="none" transform="matrix(1 0 0 1 254 167 )" />
  </g>
</svg>