<?xml version="1.0" encoding="utf-8"?>
<svg version="1.1" xmlns:xlink="http://www.w3.org/1999/xlink" width="12px" height="12px" viewBox="142 420  12 12" xmlns="http://www.w3.org/2000/svg">
  <path d="M 148 420  C 151.36 420  154 422.64  154 426  C 154 429.36  151.36 432  148 432  C 144.64 432  142 429.36  142 426  C 142 422.64  144.64 420  148 420  Z " fill-rule="nonzero" fill="#ffffff" stroke="none" />
  <path d="M 148 420.5  C 151.08 420.5  153.5 422.92  153.5 426  C 153.5 429.08  151.08 431.5  148 431.5  C 144.92 431.5  142.5 429.08  142.5 426  C 142.5 422.92  144.92 420.5  148 420.5  Z " stroke-width="1" stroke="#aaaaaa" fill="none" />
  <path d="M 148 429  C 146.32 429  145 427.68  145 426  C 145 424.32  146.32 423  148 423  C 149.68 423  151 424.32  151 426  C 151 427.68  149.68 429  148 429  " fill-rule="nonzero" fill="#aaaaaa" stroke="none" />
</svg>