<?xml version="1.0" encoding="utf-8"?>
<svg version="1.1" xmlns:xlink="http://www.w3.org/1999/xlink" width="12px" height="12px" viewBox="142 336  12 12" xmlns="http://www.w3.org/2000/svg">
  <path d="M 148 336  C 151.36 336  154 338.64  154 342  C 154 345.36  151.36 348  148 348  C 144.64 348  142 345.36  142 342  C 142 338.64  144.64 336  148 336  Z " fill-rule="nonzero" fill="#ffffff" stroke="none" />
  <path d="M 148 336.5  C 151.08 336.5  153.5 338.92  153.5 342  C 153.5 345.08  151.08 347.5  148 347.5  C 144.92 347.5  142.5 345.08  142.5 342  C 142.5 338.92  144.92 336.5  148 336.5  Z " stroke-width="1" stroke="#aaaaaa" fill="none" />
  <path d="M 148 345  C 146.32 345  145 343.68  145 342  C 145 340.32  146.32 339  148 339  C 149.68 339  151 340.32  151 342  C 151 343.68  149.68 345  148 345  " fill-rule="nonzero" fill="#aaaaaa" stroke="none" />
</svg>