<?xml version="1.0" encoding="utf-8"?>
<svg version="1.1" xmlns:xlink="http://www.w3.org/1999/xlink" width="12px" height="12px" viewBox="142 461  12 12" xmlns="http://www.w3.org/2000/svg">
  <path d="M 148 461  C 151.36 461  154 463.64  154 467  C 154 470.36  151.36 473  148 473  C 144.64 473  142 470.36  142 467  C 142 463.64  144.64 461  148 461  Z " fill-rule="nonzero" fill="#ffffff" stroke="none" />
  <path d="M 148 461.5  C 151.08 461.5  153.5 463.92  153.5 467  C 153.5 470.08  151.08 472.5  148 472.5  C 144.92 472.5  142.5 470.08  142.5 467  C 142.5 463.92  144.92 461.5  148 461.5  Z " stroke-width="1" stroke="#aaaaaa" fill="none" />
  <path d="M 148 470  C 146.32 470  145 468.68  145 467  C 145 465.32  146.32 464  148 464  C 149.68 464  151 465.32  151 467  C 151 468.68  149.68 470  148 470  " fill-rule="nonzero" fill="#aaaaaa" stroke="none" />
</svg>