<?xml version="1.0" encoding="utf-8"?>
<svg version="1.1" xmlns:xlink="http://www.w3.org/1999/xlink" width="12px" height="12px" viewBox="142 589  12 12" xmlns="http://www.w3.org/2000/svg">
  <path d="M 148 589  C 151.36 589  154 591.64  154 595  C 154 598.36  151.36 601  148 601  C 144.64 601  142 598.36  142 595  C 142 591.64  144.64 589  148 589  Z " fill-rule="nonzero" fill="#ffffff" stroke="none" />
  <path d="M 148 589.5  C 151.08 589.5  153.5 591.92  153.5 595  C 153.5 598.08  151.08 600.5  148 600.5  C 144.92 600.5  142.5 598.08  142.5 595  C 142.5 591.92  144.92 589.5  148 589.5  Z " stroke-width="1" stroke="#aaaaaa" fill="none" />
  <path d="M 148 598  C 146.32 598  145 596.68  145 595  C 145 593.32  146.32 592  148 592  C 149.68 592  151 593.32  151 595  C 151 596.68  149.68 598  148 598  " fill-rule="nonzero" fill="#aaaaaa" stroke="none" />
</svg>