<?xml version="1.0" encoding="utf-8"?>
<svg version="1.1" xmlns:xlink="http://www.w3.org/1999/xlink" width="12px" height="12px" viewBox="142 630  12 12" xmlns="http://www.w3.org/2000/svg">
  <path d="M 148 630  C 151.36 630  154 632.64  154 636  C 154 639.36  151.36 642  148 642  C 144.64 642  142 639.36  142 636  C 142 632.64  144.64 630  148 630  Z " fill-rule="nonzero" fill="#f0f0f0" stroke="none" />
  <path d="M 148 630.5  C 151.08 630.5  153.5 632.92  153.5 636  C 153.5 639.08  151.08 641.5  148 641.5  C 144.92 641.5  142.5 639.08  142.5 636  C 142.5 632.92  144.92 630.5  148 630.5  Z " stroke-width="1" stroke="#aaaaaa" fill="none" />
  <path d="M 148 639  C 146.32 639  145 637.68  145 636  C 145 634.32  146.32 633  148 633  C 149.68 633  151 634.32  151 636  C 151 637.68  149.68 639  148 639  " fill-rule="nonzero" fill="#aaaaaa" stroke="none" />
</svg>