<?xml version="1.0" encoding="utf-8"?>
<svg version="1.1" xmlns:xlink="http://www.w3.org/1999/xlink" width="12px" height="12px" xmlns="http://www.w3.org/2000/svg">
  <g transform="matrix(1 0 0 1 -227 -1158 )">
    <path d="M 233 1158  C 236.36 1158  239 1160.64  239 1164  C 239 1167.36  236.36 1170  233 1170  C 229.64 1170  227 1167.36  227 1164  C 227 1160.64  229.64 1158  233 1158  Z " fill-rule="nonzero" fill="#ffffff" stroke="none" />
    <path d="M 233 1158.5  C 236.08 1158.5  238.5 1160.92  238.5 1164  C 238.5 1167.08  236.08 1169.5  233 1169.5  C 229.92 1169.5  227.5 1167.08  227.5 1164  C 227.5 1160.92  229.92 1158.5  233 1158.5  Z " stroke-width="1" stroke="#797979" fill="none" />
  </g>
</svg>