<?xml version="1.0" encoding="utf-8"?>
<svg version="1.1" xmlns:xlink="http://www.w3.org/1999/xlink" width="12px" height="12px" viewBox="85 475  12 12" xmlns="http://www.w3.org/2000/svg">
  <path d="M 91 475  C 94.36 475  97 477.64  97 481  C 97 484.36  94.36 487  91 487  C 87.64 487  85 484.36  85 481  C 85 477.64  87.64 475  91 475  Z " fill-rule="nonzero" fill="#ffffff" stroke="none" />
  <path d="M 91 475.5  C 94.08 475.5  96.5 477.92  96.5 481  C 96.5 484.08  94.08 486.5  91 486.5  C 87.92 486.5  85.5 484.08  85.5 481  C 85.5 477.92  87.92 475.5  91 475.5  Z " stroke-width="1" stroke="#aaaaaa" fill="none" />
  <path d="M 91 484  C 89.32 484  88 482.68  88 481  C 88 479.32  89.32 478  91 478  C 92.68 478  94 479.32  94 481  C 94 482.68  92.68 484  91 484  " fill-rule="nonzero" fill="#aaaaaa" stroke="none" />
</svg>