<?xml version="1.0" encoding="utf-8"?>
<svg version="1.1" xmlns:xlink="http://www.w3.org/1999/xlink" width="12px" height="12px" viewBox="85 599  12 12" xmlns="http://www.w3.org/2000/svg">
  <path d="M 91 599  C 94.36 599  97 601.64  97 605  C 97 608.36  94.36 611  91 611  C 87.64 611  85 608.36  85 605  C 85 601.64  87.64 599  91 599  Z " fill-rule="nonzero" fill="#f0f0f0" stroke="none" />
  <path d="M 91 599.5  C 94.08 599.5  96.5 601.92  96.5 605  C 96.5 608.08  94.08 610.5  91 610.5  C 87.92 610.5  85.5 608.08  85.5 605  C 85.5 601.92  87.92 599.5  91 599.5  Z " stroke-width="1" stroke="#aaaaaa" fill="none" />
  <path d="M 91 608  C 89.32 608  88 606.68  88 605  C 88 603.32  89.32 602  91 602  C 92.68 602  94 603.32  94 605  C 94 606.68  92.68 608  91 608  " fill-rule="nonzero" fill="#aaaaaa" stroke="none" />
</svg>