<?xml version="1.0" encoding="utf-8"?>
<svg version="1.1" xmlns:xlink="http://www.w3.org/1999/xlink" width="12px" height="12px" viewBox="85 389  12 12" xmlns="http://www.w3.org/2000/svg">
  <path d="M 91 389  C 94.36 389  97 391.64  97 395  C 97 398.36  94.36 401  91 401  C 87.64 401  85 398.36  85 395  C 85 391.64  87.64 389  91 389  Z " fill-rule="nonzero" fill="#ffffff" stroke="none" />
  <path d="M 91 389.5  C 94.08 389.5  96.5 391.92  96.5 395  C 96.5 398.08  94.08 400.5  91 400.5  C 87.92 400.5  85.5 398.08  85.5 395  C 85.5 391.92  87.92 389.5  91 389.5  Z " stroke-width="1" stroke="#aaaaaa" fill="none" />
  <path d="M 91 398  C 89.32 398  88 396.68  88 395  C 88 393.32  89.32 392  91 392  C 92.68 392  94 393.32  94 395  C 94 396.68  92.68 398  91 398  " fill-rule="nonzero" fill="#aaaaaa" stroke="none" />
</svg>