<?xml version="1.0" encoding="utf-8"?>
<svg version="1.1" xmlns:xlink="http://www.w3.org/1999/xlink" width="12px" height="12px" viewBox="85 433  12 12" xmlns="http://www.w3.org/2000/svg">
  <path d="M 91 433  C 94.36 433  97 435.64  97 439  C 97 442.36  94.36 445  91 445  C 87.64 445  85 442.36  85 439  C 85 435.64  87.64 433  91 433  Z " fill-rule="nonzero" fill="#f0f0f0" stroke="none" />
  <path d="M 91 433.5  C 94.08 433.5  96.5 435.92  96.5 439  C 96.5 442.08  94.08 444.5  91 444.5  C 87.92 444.5  85.5 442.08  85.5 439  C 85.5 435.92  87.92 433.5  91 433.5  Z " stroke-width="1" stroke="#aaaaaa" fill="none" />
  <path d="M 91 442  C 89.32 442  88 440.68  88 439  C 88 437.32  89.32 436  91 436  C 92.68 436  94 437.32  94 439  C 94 440.68  92.68 442  91 442  " fill-rule="nonzero" fill="#aaaaaa" stroke="none" />
</svg>