<?xml version="1.0" encoding="utf-8"?>
<svg version="1.1" xmlns:xlink="http://www.w3.org/1999/xlink" width="12px" height="12px" viewBox="1291 375  12 12" xmlns="http://www.w3.org/2000/svg">
  <path d="M 1297 375  C 1300.36 375  1303 377.64  1303 381  C 1303 384.36  1300.36 387  1297 387  C 1293.64 387  1291 384.36  1291 381  C 1291 377.64  1293.64 375  1297 375  Z " fill-rule="nonzero" fill="#f0f0f0" stroke="none" />
  <path d="M 1297 375.5  C 1300.08 375.5  1302.5 377.92  1302.5 381  C 1302.5 384.08  1300.08 386.5  1297 386.5  C 1293.92 386.5  1291.5 384.08  1291.5 381  C 1291.5 377.92  1293.92 375.5  1297 375.5  Z " stroke-width="1" stroke="#797979" fill="none" />
  <path d="M 1297 384  C 1295.32 384  1294 382.68  1294 381  C 1294 379.32  1295.32 378  1297 378  C 1298.68 378  1300 379.32  1300 381  C 1300 382.68  1298.68 384  1297 384  " fill-rule="nonzero" fill="#797979" stroke="none" />
</svg>