<?xml version="1.0" encoding="utf-8"?>
<svg version="1.1" xmlns:xlink="http://www.w3.org/1999/xlink" width="12px" height="12px" viewBox="1291 319  12 12" xmlns="http://www.w3.org/2000/svg">
  <path d="M 1297 319  C 1300.36 319  1303 321.64  1303 325  C 1303 328.36  1300.36 331  1297 331  C 1293.64 331  1291 328.36  1291 325  C 1291 321.64  1293.64 319  1297 319  Z " fill-rule="nonzero" fill="#f0f0f0" stroke="none" />
  <path d="M 1297 319.5  C 1300.08 319.5  1302.5 321.92  1302.5 325  C 1302.5 328.08  1300.08 330.5  1297 330.5  C 1293.92 330.5  1291.5 328.08  1291.5 325  C 1291.5 321.92  1293.92 319.5  1297 319.5  Z " stroke-width="1" stroke="#797979" fill="none" />
  <path d="M 1297 328  C 1295.32 328  1294 326.68  1294 325  C 1294 323.32  1295.32 322  1297 322  C 1298.68 322  1300 323.32  1300 325  C 1300 326.68  1298.68 328  1297 328  " fill-rule="nonzero" fill="#797979" stroke="none" />
</svg>