<?xml version="1.0" encoding="utf-8"?>
<svg version="1.1" xmlns:xlink="http://www.w3.org/1999/xlink" width="12px" height="12px" viewBox="652 313  12 12" xmlns="http://www.w3.org/2000/svg">
  <path d="M 658 313  C 661.36 313  664 315.64  664 319  C 664 322.36  661.36 325  658 325  C 654.64 325  652 322.36  652 319  C 652 315.64  654.64 313  658 313  Z " fill-rule="nonzero" fill="#f0f0f0" stroke="none" />
  <path d="M 658 313.5  C 661.08 313.5  663.5 315.92  663.5 319  C 663.5 322.08  661.08 324.5  658 324.5  C 654.92 324.5  652.5 322.08  652.5 319  C 652.5 315.92  654.92 313.5  658 313.5  Z " stroke-width="1" stroke="#797979" fill="none" />
  <path d="M 658 322  C 656.32 322  655 320.68  655 319  C 655 317.32  656.32 316  658 316  C 659.68 316  661 317.32  661 319  C 661 320.68  659.68 322  658 322  " fill-rule="nonzero" fill="#797979" stroke="none" />
</svg>