<?xml version="1.0" encoding="utf-8"?>
<svg version="1.1" xmlns:xlink="http://www.w3.org/1999/xlink" width="12px" height="12px" viewBox="142 671  12 12" xmlns="http://www.w3.org/2000/svg">
  <path d="M 148 671  C 151.36 671  154 673.64  154 677  C 154 680.36  151.36 683  148 683  C 144.64 683  142 680.36  142 677  C 142 673.64  144.64 671  148 671  Z " fill-rule="nonzero" fill="#ffffff" stroke="none" />
  <path d="M 148 671.5  C 151.08 671.5  153.5 673.92  153.5 677  C 153.5 680.08  151.08 682.5  148 682.5  C 144.92 682.5  142.5 680.08  142.5 677  C 142.5 673.92  144.92 671.5  148 671.5  Z " stroke-width="1" stroke="#aaaaaa" fill="none" />
  <path d="M 148 680  C 146.32 680  145 678.68  145 677  C 145 675.32  146.32 674  148 674  C 149.68 674  151 675.32  151 677  C 151 678.68  149.68 680  148 680  " fill-rule="nonzero" fill="#aaaaaa" stroke="none" />
</svg>