<?xml version="1.0" encoding="utf-8"?>
<svg version="1.1" xmlns:xlink="http://www.w3.org/1999/xlink" width="12px" height="12px" viewBox="142 712  12 12" xmlns="http://www.w3.org/2000/svg">
  <path d="M 148 712  C 151.36 712  154 714.64  154 718  C 154 721.36  151.36 724  148 724  C 144.64 724  142 721.36  142 718  C 142 714.64  144.64 712  148 712  Z " fill-rule="nonzero" fill="#f0f0f0" stroke="none" />
  <path d="M 148 712.5  C 151.08 712.5  153.5 714.92  153.5 718  C 153.5 721.08  151.08 723.5  148 723.5  C 144.92 723.5  142.5 721.08  142.5 718  C 142.5 714.92  144.92 712.5  148 712.5  Z " stroke-width="1" stroke="#aaaaaa" fill="none" />
  <path d="M 148 721  C 146.32 721  145 719.68  145 718  C 145 716.32  146.32 715  148 715  C 149.68 715  151 716.32  151 718  C 151 719.68  149.68 721  148 721  " fill-rule="nonzero" fill="#aaaaaa" stroke="none" />
</svg>