<?xml version="1.0" encoding="utf-8"?>
<svg version="1.1" xmlns:xlink="http://www.w3.org/1999/xlink" width="12px" height="12px" viewBox="701 211  12 12" xmlns="http://www.w3.org/2000/svg">
  <path d="M 707 211  C 710.36 211  713 213.64  713 217  C 713 220.36  710.36 223  707 223  C 703.64 223  701 220.36  701 217  C 701 213.64  703.64 211  707 211  Z " fill-rule="nonzero" fill="#f0f0f0" stroke="none" />
  <path d="M 707 211.5  C 710.08 211.5  712.5 213.92  712.5 217  C 712.5 220.08  710.08 222.5  707 222.5  C 703.92 222.5  701.5 220.08  701.5 217  C 701.5 213.92  703.92 211.5  707 211.5  Z " stroke-width="1" stroke="#797979" fill="none" />
  <path d="M 707 220  C 705.32 220  704 218.68  704 217  C 704 215.32  705.32 214  707 214  C 708.68 214  710 215.32  710 217  C 710 218.68  708.68 220  707 220  " fill-rule="nonzero" fill="#797979" stroke="none" />
</svg>