<?xml version="1.0" encoding="utf-8"?>
<svg version="1.1" xmlns:xlink="http://www.w3.org/1999/xlink" width="11px" height="10px" xmlns="http://www.w3.org/2000/svg">
  <g transform="matrix(1 0 0 1 -1336 -760 )">
    <path d="M 6.35221354166667 2.55859375  C 6.39518229166667 2.59765625  6.41666666666667 2.64756944444444  6.41666666666667 2.70833333333333  L 6.41666666666667 5.625  C 6.41666666666667 5.68576388888889  6.39518229166667 5.73567708333333  6.35221354166667 5.77473958333333  C 6.30924479166667 5.81380208333333  6.25434027777778 5.83333333333333  6.1875 5.83333333333333  L 3.89583333333333 5.83333333333333  C 3.82899305555556 5.83333333333333  3.77408854166667 5.81380208333333  3.73111979166667 5.77473958333333  C 3.68815104166667 5.73567708333333  3.66666666666667 5.68576388888889  3.66666666666667 5.625  L 3.66666666666667 5.20833333333333  C 3.66666666666667 5.14756944444444  3.68815104166667 5.09765625  3.73111979166667 5.05859375  C 3.77408854166667 5.01953125  3.82899305555556 5  3.89583333333333 5  L 5.5 5  L 5.5 2.70833333333333  C 5.5 2.64756944444444  5.521484375 2.59765625  5.564453125 2.55859375  C 5.607421875 2.51953125  5.66232638888889 2.5  5.72916666666667 2.5  L 6.1875 2.5  C 6.25434027777778 2.5  6.30924479166667 2.51953125  6.35221354166667 2.55859375  Z M 8.873046875 6.77734375  C 9.22157118055556 6.23480902777778  9.39583333333333 5.64236111111111  9.39583333333333 5  C 9.39583333333333 4.35763888888889  9.22157118055556 3.76519097222222  8.873046875 3.22265625  C 8.52452256944445 2.68012152777778  8.05186631944445 2.25043402777778  7.455078125 1.93359375  C 6.85828993055556 1.61675347222222  6.20659722222222 1.45833333333333  5.5 1.45833333333333  C 4.79340277777778 1.45833333333333  4.14171006944444 1.61675347222222  3.544921875 1.93359375  C 2.94813368055556 2.25043402777778  2.47547743055556 2.68012152777778  2.126953125 3.22265625  C 1.77842881944444 3.76519097222222  1.60416666666667 4.35763888888889  1.60416666666667 5  C 1.60416666666667 5.64236111111111  1.77842881944444 6.23480902777778  2.126953125 6.77734375  C 2.47547743055556 7.31987847222222  2.94813368055556 7.74956597222222  3.544921875 8.06640625  C 4.14171006944444 8.38324652777778  4.79340277777778 8.54166666666667  5.5 8.54166666666667  C 6.20659722222222 8.54166666666667  6.85828993055556 8.38324652777778  7.455078125 8.06640625  C 8.05186631944445 7.74956597222222  8.52452256944445 7.31987847222222  8.873046875 6.77734375  Z M 10.2623697916667 2.490234375  C 10.7541232638889 3.25629340277778  11 4.09288194444444  11 5  C 11 5.90711805555556  10.7541232638889 6.74370659722222  10.2623697916667 7.509765625  C 9.77061631944445 8.27582465277778  9.10340711805556 8.88237847222222  8.2607421875 9.32942708333333  C 7.41807725694445 9.77647569444444  6.49782986111111 10  5.5 10  C 4.50217013888889 10  3.58192274305556 9.77647569444444  2.7392578125 9.32942708333333  C 1.89659288194444 8.88237847222222  1.22938368055556 8.27582465277778  0.737630208333333 7.509765625  C 0.245876736111111 6.74370659722222  0 5.90711805555556  0 5  C 0 4.09288194444444  0.245876736111111 3.25629340277778  0.737630208333333 2.490234375  C 1.22938368055556 1.72417534722222  1.89659288194444 1.11762152777778  2.7392578125 0.670572916666666  C 3.58192274305556 0.223524305555555  4.50217013888889 0  5.5 0  C 6.49782986111111 0  7.41807725694445 0.223524305555555  8.2607421875 0.670572916666666  C 9.10340711805556 1.11762152777778  9.77061631944445 1.72417534722222  10.2623697916667 2.490234375  Z " fill-rule="nonzero" fill="#8c8c8c" stroke="none" transform="matrix(1 0 0 1 1336 760 )" />
  </g>
</svg>