<?xml version="1.0" encoding="utf-8"?>
<svg version="1.1" xmlns:xlink="http://www.w3.org/1999/xlink" width="20px" height="11px" xmlns="http://www.w3.org/2000/svg">
  <g transform="matrix(1 0 0 1 -16 -1 )">
    <path d="M 19.7995991983968 8.99656357388316  C 19.9331997327989 9.1225658648339  20 9.26746849942726  20 9.43127147766323  C 20 9.5950744558992  19.9331997327989 9.73997709049255  19.7995991983968 9.8659793814433  L 18.7975951903808 10.8109965635739  C 18.6639946559786 10.9369988545246  18.5103540414162 11  18.3366733466934 11  C 18.1629926519706 11  18.0093520374081 10.9369988545246  17.875751503006 10.8109965635739  L 10 3.38316151202749  L 2.12424849699399 10.8109965635739  C 1.99064796259185 10.9369988545246  1.83700734802939 11  1.66332665330661 11  C 1.48964595858383 11  1.33600534402138 10.9369988545246  1.20240480961924 10.8109965635739  L 0.200400801603206 9.8659793814433  C 0.066800267201069 9.73997709049255  0 9.5950744558992  0 9.43127147766323  C 0 9.26746849942726  0.066800267201069 9.1225658648339  0.200400801603206 8.99656357388316  L 9.53907815631263 0.189003436426117  C 9.67267869071476 0.0630011454753708  9.82631930527722 0  10 0  C 10.1736806947228 0  10.3273213092852 0.0630011454753708  10.4609218436874 0.189003436426117  L 19.7995991983968 8.99656357388316  Z " fill-rule="nonzero" fill="#8c8c8c" stroke="none" transform="matrix(1 0 0 1 16 1 )" />
  </g>
</svg>