<?xml version="1.0" encoding="utf-8"?>
<svg version="1.1" xmlns:xlink="http://www.w3.org/1999/xlink" width="1172px" height="280px" xmlns="http://www.w3.org/2000/svg">
  <defs>
    <filter x="235px" y="167px" width="1172px" height="280px" filterUnits="userSpaceOnUse" id="filter1033">
      <feOffset dx="5" dy="5" in="SourceAlpha" result="shadowOffsetInner" />
      <feGaussianBlur stdDeviation="5" in="shadowOffsetInner" result="shadowGaussian" />
      <feComposite in2="shadowGaussian" operator="atop" in="SourceAlpha" result="shadowComposite" />
      <feColorMatrix type="matrix" values="0 0 0 0 0  0 0 0 0 0  0 0 0 0 0  0 0 0 0.149019607843137 0  " in="shadowComposite" />
    </filter>
    <g id="widget1034">
      <path d="M 241 178  A 5 5 0 0 1 246 173 L 1386 173  A 5 5 0 0 1 1391 178 L 1391 426  A 5 5 0 0 1 1386 431 L 246 431  A 5 5 0 0 1 241 426 L 241 178  Z " fill-rule="nonzero" fill="#ffffff" stroke="none" />
      <path d="M 240.5 178  A 5.5 5.5 0 0 1 246 172.5 L 1386 172.5  A 5.5 5.5 0 0 1 1391.5 178 L 1391.5 426  A 5.5 5.5 0 0 1 1386 431.5 L 246 431.5  A 5.5 5.5 0 0 1 240.5 426 L 240.5 178  Z " stroke-width="1" stroke="#f2f2f2" fill="none" stroke-opacity="0.498039215686275" />
    </g>
  </defs>
  <g transform="matrix(1 0 0 1 -235 -167 )">
    <use xlink:href="#widget1034" filter="url(#filter1033)" />
    <use xlink:href="#widget1034" />
  </g>
</svg>