<?xml version="1.0" encoding="utf-8"?>
<svg version="1.1" xmlns:xlink="http://www.w3.org/1999/xlink" width="12px" height="12px" viewBox="316 159  12 12" xmlns="http://www.w3.org/2000/svg">
  <path d="M 322 159  C 325.36 159  328 161.64  328 165  C 328 168.36  325.36 171  322 171  C 318.64 171  316 168.36  316 165  C 316 161.64  318.64 159  322 159  Z " fill-rule="nonzero" fill="#f0f0f0" stroke="none" />
  <path d="M 322 159.5  C 325.08 159.5  327.5 161.92  327.5 165  C 327.5 168.08  325.08 170.5  322 170.5  C 318.92 170.5  316.5 168.08  316.5 165  C 316.5 161.92  318.92 159.5  322 159.5  Z " stroke-width="1" stroke="#b3b3b3" fill="none" />
  <path d="M 322 168  C 320.32 168  319 166.68  319 165  C 319 163.32  320.32 162  322 162  C 323.68 162  325 163.32  325 165  C 325 166.68  323.68 168  322 168  " fill-rule="nonzero" fill="#b3b3b3" stroke="none" />
</svg>