<?xml version="1.0" encoding="utf-8"?>
<svg version="1.1" xmlns:xlink="http://www.w3.org/1999/xlink" width="20px" height="13px" xmlns="http://www.w3.org/2000/svg">
  <g transform="matrix(1 0 0 1 -108 -32 )">
    <path d="M 15.6666666666667 10.4  L 4.33333333333333 10.4  C 3.875 10.4  3.48263888888889 10.2408854166667  3.15625 9.92265625  C 2.82986111111111 9.60442708333333  2.66666666666667 9.221875  2.66666666666667 8.775  L 2.66666666666667 1.625  C 2.66666666666667 1.178125  2.82986111111111 0.795572916666666  3.15625 0.47734375  C 3.48263888888889 0.159114583333332  3.875 0  4.33333333333333 0  L 15.6666666666667 0  C 16.125 0  16.5173611111111 0.159114583333332  16.84375 0.47734375  C 17.1701388888889 0.795572916666666  17.3333333333333 1.178125  17.3333333333333 1.625  L 17.3333333333333 8.775  C 17.3333333333333 9.221875  17.1701388888889 9.60442708333333  16.84375 9.92265625  C 16.5173611111111 10.2408854166667  16.125 10.4  15.6666666666667 10.4  Z M 4.09895833333333 1.396484375  C 4.03298611111111 1.46080729166667  4 1.53697916666667  4 1.625  L 4 8.775  C 4 8.86302083333333  4.03298611111111 8.93919270833333  4.09895833333333 9.003515625  C 4.16493055555556 9.06783854166667  4.24305555555556 9.1  4.33333333333333 9  L 15.6666666666667 9  C 15.7569444444444 9.1  15.8350694444444 9.06783854166667  15.9010416666667 9.003515625  C 15.9670138888889 8.93919270833333  16 8.86302083333333  16 8.775  L 16 1.625  C 16 1.53697916666667  15.9670138888889 1.46080729166667  15.9010416666667 1.396484375  C 15.8350694444444 1.33216145833333  15.7569444444444 1.3  15.6666666666667 1.3  L 4.33333333333333 1.3  C 4.24305555555556 1.3  4.16493055555556 1.33216145833333  4.09895833333333 1.396484375  Z M 1.66666666666667 11  L 18.3333333333333 11  L 20 11.05  L 20 12.025  C 20 12.2958333333333  19.8368055555556 12.5260416666667  19.5104166666667 12.715625  C 19.1840277777778 12.9052083333333  18.7916666666667 13  18.3333333333333 13  L 1.66666666666667 13  C 1.20833333333333 13  0.815972222222222 12.9052083333333  0.489583333333333 12.715625  C 0.163194444444444 12.5260416666667  0 12.2958333333333  0 12.025  L 0 11.05  L 1.66666666666667 11  Z M 9.16666666666667 12.025  L 10.8333333333333 12.025  C 10.9444444444444 12.025  11 11.9708333333333  11 11.8625  C 11 11.7541666666667  10.9444444444444 11.7  10.8333333333333 11.7  L 9.16666666666667 11.7  C 9.05555555555556 11.7  9 11.7541666666667  9 11.8625  C 9 11.9708333333333  9.05555555555556 12.025  9.16666666666667 12.025  Z " fill-rule="nonzero" fill="#3a82ff" stroke="none" transform="matrix(1 0 0 1 108 32 )" />
  </g>
</svg>