<?xml version="1.0" encoding="utf-8"?>
<svg version="1.1" xmlns:xlink="http://www.w3.org/1999/xlink" width="12px" height="12px" viewBox="702 411  12 12" xmlns="http://www.w3.org/2000/svg">
  <path d="M 708 411  C 711.36 411  714 413.64  714 417  C 714 420.36  711.36 423  708 423  C 704.64 423  702 420.36  702 417  C 702 413.64  704.64 411  708 411  Z " fill-rule="nonzero" fill="#ffffff" stroke="none" />
  <path d="M 708 411.5  C 711.08 411.5  713.5 413.92  713.5 417  C 713.5 420.08  711.08 422.5  708 422.5  C 704.92 422.5  702.5 420.08  702.5 417  C 702.5 413.92  704.92 411.5  708 411.5  Z " stroke-width="1" stroke="#797979" fill="none" />
  <path d="M 708 420  C 706.32 420  705 418.68  705 417  C 705 415.32  706.32 414  708 414  C 709.68 414  711 415.32  711 417  C 711 418.68  709.68 420  708 420  " fill-rule="nonzero" fill="#797979" stroke="none" />
</svg>