<?xml version="1.0" encoding="utf-8"?>
<svg version="1.1" xmlns:xlink="http://www.w3.org/1999/xlink" width="12px" height="12px" viewBox="759 186  12 12" xmlns="http://www.w3.org/2000/svg">
  <path d="M 765 186  C 768.36 186  771 188.64  771 192  C 771 195.36  768.36 198  765 198  C 761.64 198  759 195.36  759 192  C 759 188.64  761.64 186  765 186  Z " fill-rule="nonzero" fill="#ffffff" stroke="none" />
  <path d="M 765 186.5  C 768.08 186.5  770.5 188.92  770.5 192  C 770.5 195.08  768.08 197.5  765 197.5  C 761.92 197.5  759.5 195.08  759.5 192  C 759.5 188.92  761.92 186.5  765 186.5  Z " stroke-width="1" stroke="#797979" fill="none" />
  <path d="M 765 195  C 763.32 195  762 193.68  762 192  C 762 190.32  763.32 189  765 189  C 766.68 189  768 190.32  768 192  C 768 193.68  766.68 195  765 195  " fill-rule="nonzero" fill="#797979" stroke="none" />
</svg>