<?xml version="1.0" encoding="utf-8"?>
<svg version="1.1" xmlns:xlink="http://www.w3.org/1999/xlink" width="12px" height="12px" viewBox="702 186  12 12" xmlns="http://www.w3.org/2000/svg">
  <path d="M 708 186  C 711.36 186  714 188.64  714 192  C 714 195.36  711.36 198  708 198  C 704.64 198  702 195.36  702 192  C 702 188.64  704.64 186  708 186  Z " fill-rule="nonzero" fill="#f0f0f0" stroke="none" />
  <path d="M 708 186.5  C 711.08 186.5  713.5 188.92  713.5 192  C 713.5 195.08  711.08 197.5  708 197.5  C 704.92 197.5  702.5 195.08  702.5 192  C 702.5 188.92  704.92 186.5  708 186.5  Z " stroke-width="1" stroke="#797979" fill="none" />
  <path d="M 708 195  C 706.32 195  705 193.68  705 192  C 705 190.32  706.32 189  708 189  C 709.68 189  711 190.32  711 192  C 711 193.68  709.68 195  708 195  " fill-rule="nonzero" fill="#797979" stroke="none" />
</svg>