<?xml version="1.0" encoding="utf-8"?>
<svg version="1.1" xmlns:xlink="http://www.w3.org/1999/xlink" width="12px" height="12px" viewBox="693 564  12 12" xmlns="http://www.w3.org/2000/svg">
  <path d="M 699 564  C 702.36 564  705 566.64  705 570  C 705 573.36  702.36 576  699 576  C 695.64 576  693 573.36  693 570  C 693 566.64  695.64 564  699 564  Z " fill-rule="nonzero" fill="#f0f0f0" stroke="none" />
  <path d="M 699 564.5  C 702.08 564.5  704.5 566.92  704.5 570  C 704.5 573.08  702.08 575.5  699 575.5  C 695.92 575.5  693.5 573.08  693.5 570  C 693.5 566.92  695.92 564.5  699 564.5  Z " stroke-width="1" stroke="#797979" fill="none" />
  <path d="M 699 573  C 697.32 573  696 571.68  696 570  C 696 568.32  697.32 567  699 567  C 700.68 567  702 568.32  702 570  C 702 571.68  700.68 573  699 573  " fill-rule="nonzero" fill="#797979" stroke="none" />
</svg>