<?xml version="1.0" encoding="utf-8"?>
<svg version="1.1" xmlns:xlink="http://www.w3.org/1999/xlink" width="240px" height="38px" xmlns="http://www.w3.org/2000/svg">
  <g transform="matrix(1 0 0 1 -24 -74 )">
    <path d="M 25 78  A 3 3 0 0 1 28 75 L 260 75  A 3 3 0 0 1 263 78 L 263 108  A 3 3 0 0 1 260 111 L 28 111  A 3 3 0 0 1 25 108 L 25 78  Z " fill-rule="nonzero" fill="#ffffff" stroke="none" />
    <path d="M 24.5 78  A 3.5 3.5 0 0 1 28 74.5 L 260 74.5  A 3.5 3.5 0 0 1 263.5 78 L 263.5 108  A 3.5 3.5 0 0 1 260 111.5 L 28 111.5  A 3.5 3.5 0 0 1 24.5 108 L 24.5 78  Z " stroke-width="1" stroke="#344053" fill="none" stroke-opacity="0.498039215686275" />
  </g>
</svg>