<?xml version="1.0" encoding="utf-8"?>
<svg version="1.1" xmlns:xlink="http://www.w3.org/1999/xlink" width="16px" height="16px" viewBox="225 179.5  16 16" xmlns="http://www.w3.org/2000/svg">
  <path d="M 233 179.5  C 237.48 179.5  241 183.02  241 187.5  C 241 191.98  237.48 195.5  233 195.5  C 228.52 195.5  225 191.98  225 187.5  C 225 183.02  228.52 179.5  233 179.5  Z " fill-rule="nonzero" fill="#f0f0f0" stroke="none" />
  <path d="M 233 180  C 237.2 180  240.5 183.3  240.5 187.5  C 240.5 191.7  237.2 195  233 195  C 228.8 195  225.5 191.7  225.5 187.5  C 225.5 183.3  228.8 180  233 180  Z " stroke-width="1" stroke="#8c8c8c" fill="none" />
  <path d="M 233 191.5  C 230.76 191.5  229 189.74  229 187.5  C 229 185.26  230.76 183.5  233 183.5  C 235.24 183.5  237 185.26  237 187.5  C 237 189.74  235.24 191.5  233 191.5  " fill-rule="nonzero" fill="#8c8c8c" stroke="none" />
</svg>