<?xml version="1.0" encoding="utf-8"?>
<svg version="1.1" xmlns:xlink="http://www.w3.org/1999/xlink" width="16px" height="16px" viewBox="338 179.5  16 16" xmlns="http://www.w3.org/2000/svg">
  <path d="M 346 179.5  C 350.48 179.5  354 183.02  354 187.5  C 354 191.98  350.48 195.5  346 195.5  C 341.52 195.5  338 191.98  338 187.5  C 338 183.02  341.52 179.5  346 179.5  Z " fill-rule="nonzero" fill="#ffffff" stroke="none" />
  <path d="M 346 180  C 350.2 180  353.5 183.3  353.5 187.5  C 353.5 191.7  350.2 195  346 195  C 341.8 195  338.5 191.7  338.5 187.5  C 338.5 183.3  341.8 180  346 180  Z " stroke-width="1" stroke="#8c8c8c" fill="none" />
  <path d="M 346 191.5  C 343.76 191.5  342 189.74  342 187.5  C 342 185.26  343.76 183.5  346 183.5  C 348.24 183.5  350 185.26  350 187.5  C 350 189.74  348.24 191.5  346 191.5  " fill-rule="nonzero" fill="#8c8c8c" stroke="none" />
</svg>