<?xml version="1.0" encoding="utf-8"?>
<svg version="1.1" xmlns:xlink="http://www.w3.org/1999/xlink" width="20px" height="20px" xmlns="http://www.w3.org/2000/svg">
  <g transform="matrix(1 0 0 1 -104 -121 )">
    <path d="M 114 121  C 119.6 121  124 125.4  124 131  C 124 136.6  119.6 141  114 141  C 108.4 141  104 136.6  104 131  C 104 125.4  108.4 121  114 121  Z " fill-rule="nonzero" fill="#ffffff" stroke="none" />
    <path d="M 114 121.5  C 119.32 121.5  123.5 125.68  123.5 131  C 123.5 136.32  119.32 140.5  114 140.5  C 108.68 140.5  104.5 136.32  104.5 131  C 104.5 125.68  108.68 121.5  114 121.5  Z " stroke-width="1" stroke="#8c8c8c" fill="none" />
  </g>
</svg>