<?xml version="1.0" encoding="utf-8"?>
<svg version="1.1" xmlns:xlink="http://www.w3.org/1999/xlink" width="14px" height="14px" xmlns="http://www.w3.org/2000/svg">
  <g transform="matrix(1 0 0 1 -1288 -85 )">
    <path d="M 3.5 9.33333333333333  L 3.5 12.8333333333333  L 10.5 12.8333333333333  L 10.5 9.33333333333333  L 3.5 9.33333333333333  Z M 11.6666666666667 9.04166666666667  L 11.6666666666667 12.8333333333333  L 12.8333333333333 12.8333333333333  L 12.8333333333333 4.66666666666667  C 12.8333333333333 4.58159722222222  12.8029513888889 4.46462673611111  12.7421875 4.31575520833333  C 12.6814236111111 4.16688368055555  12.6206597222222 4.06206597222222  12.5598958333333 4.00130208333333  L 9.99869791666667 1.44010416666667  C 9.93793402777778 1.37934027777778  9.83463541666667 1.31857638888889  9.68880208333333 1.2578125  C 9.54296875 1.19704861111111  9.42447916666667 1.16666666666667  9.33333333333333 1.16666666666667  L 9.33333333333333 4.95833333333333  C 9.33333333333333 5.20138888888889  9.24826388888889 5.40798611111111  9.078125 5.578125  C 8.90798611111111 5.74826388888889  8.70138888888889 5.83333333333333  8.45833333333333 5.83333333333333  L 3.20833333333333 5.83333333333333  C 2.96527777777778 5.83333333333333  2.75868055555556 5.74826388888889  2.58854166666667 5.578125  C 2.41840277777778 5.40798611111111  2.33333333333333 5.20138888888889  2.33333333333333 4.95833333333333  L 2.33333333333333 1.16666666666667  L 1.16666666666667 1.16666666666667  L 1.16666666666667 12.8333333333333  L 2.33333333333333 12.8333333333333  L 2.33333333333333 9.04166666666667  C 2.33333333333333 8.79861111111111  2.41840277777778 8.59201388888889  2.58854166666667 8.421875  C 2.75868055555556 8.25173611111111  2.96527777777778 8.16666666666667  3.20833333333333 8.16666666666667  L 10.7916666666667 8.16666666666667  C 11.0347222222222 8.16666666666667  11.2413194444444 8.25173611111111  11.4114583333333 8.421875  C 11.5815972222222 8.59201388888889  11.6666666666667 8.79861111111111  11.6666666666667 9.04166666666667  Z M 8.080078125 4.580078125  C 8.13780381944444 4.52235243055555  8.16666666666667 4.45399305555555  8.16666666666667 4.375  L 8.16666666666667 1.45833333333333  C 8.16666666666667 1.37934027777778  8.13780381944444 1.31098090277778  8.080078125 1.25325520833333  C 8.02235243055556 1.19552951388889  7.95399305555556 1.16666666666667  7.875 1.16666666666667  L 6.125 1.16666666666667  C 6.04600694444444 1.16666666666667  5.97764756944444 1.19552951388889  5.919921875 1.25325520833333  C 5.86219618055556 1.31098090277778  5.83333333333333 1.37934027777778  5.83333333333333 1.45833333333333  L 5.83333333333333 4.375  C 5.83333333333333 4.45399305555555  5.86219618055556 4.52235243055555  5.919921875 4.580078125  C 5.97764756944444 4.63780381944444  6.04600694444444 4.66666666666667  6.125 4.66666666666667  L 7.875 4.66666666666667  C 7.95399305555556 4.66666666666667  8.02235243055556 4.63780381944444  8.080078125 4.580078125  Z M 13.8177083333333 3.86458333333333  C 13.9392361111111 4.15625  14 4.42361111111111  14 4.66666666666667  L 14 13.125  C 14 13.3680555555556  13.9149305555556 13.5746527777778  13.7447916666667 13.7447916666667  C 13.5746527777778 13.9149305555556  13.3680555555556 14  13.125 14  L 0.875 14  C 0.631944444444445 14  0.425347222222222 13.9149305555556  0.255208333333333 13.7447916666667  C 0.0850694444444444 13.5746527777778  0 13.3680555555556  0 13.125  L 0 0.875  C 0 0.631944444444444  0.0850694444444444 0.42534722222222  0.255208333333333 0.255208333333333  C 0.425347222222222 0.0850694444444438  0.631944444444445 0  0.875 0  L 9.33333333333333 0  C 9.57638888888889 0  9.84375 0.0607638888888875  10.1354166666667 0.182291666666667  C 10.4270833333333 0.303819444444444  10.6579861111111 0.449652777777777  10.828125 0.619791666666667  L 13.3802083333333 3.171875  C 13.5503472222222 3.34201388888889  13.6961805555556 3.57291666666667  13.8177083333333 3.86458333333333  Z " fill-rule="nonzero" fill="#ffffff" stroke="none" transform="matrix(1 0 0 1 1288 85 )" />
  </g>
</svg>