<?xml version="1.0" encoding="utf-8"?>
<svg version="1.1" xmlns:xlink="http://www.w3.org/1999/xlink" width="12px" height="12px" viewBox="61 624  12 12" xmlns="http://www.w3.org/2000/svg">
  <path d="M 67 624  C 70.36 624  73 626.64  73 630  C 73 633.36  70.36 636  67 636  C 63.64 636  61 633.36  61 630  C 61 626.64  63.64 624  67 624  Z " fill-rule="nonzero" fill="#ffffff" stroke="none" />
  <path d="M 67 624.5  C 70.08 624.5  72.5 626.92  72.5 630  C 72.5 633.08  70.08 635.5  67 635.5  C 63.92 635.5  61.5 633.08  61.5 630  C 61.5 626.92  63.92 624.5  67 624.5  Z " stroke-width="1" stroke="#aaaaaa" fill="none" />
  <path d="M 67 633  C 65.32 633  64 631.68  64 630  C 64 628.32  65.32 627  67 627  C 68.68 627  70 628.32  70 630  C 70 631.68  68.68 633  67 633  " fill-rule="nonzero" fill="#aaaaaa" stroke="none" />
</svg>