<?xml version="1.0" encoding="utf-8"?>
<svg version="1.1" xmlns:xlink="http://www.w3.org/1999/xlink" width="12px" height="12px" viewBox="61 665  12 12" xmlns="http://www.w3.org/2000/svg">
  <path d="M 67 665  C 70.36 665  73 667.64  73 671  C 73 674.36  70.36 677  67 677  C 63.64 677  61 674.36  61 671  C 61 667.64  63.64 665  67 665  Z " fill-rule="nonzero" fill="#f0f0f0" stroke="none" />
  <path d="M 67 665.5  C 70.08 665.5  72.5 667.92  72.5 671  C 72.5 674.08  70.08 676.5  67 676.5  C 63.92 676.5  61.5 674.08  61.5 671  C 61.5 667.92  63.92 665.5  67 665.5  Z " stroke-width="1" stroke="#aaaaaa" fill="none" />
  <path d="M 67 674  C 65.32 674  64 672.68  64 671  C 64 669.32  65.32 668  67 668  C 68.68 668  70 669.32  70 671  C 70 672.68  68.68 674  67 674  " fill-rule="nonzero" fill="#aaaaaa" stroke="none" />
</svg>