<?xml version="1.0" encoding="utf-8"?>
<svg version="1.1" xmlns:xlink="http://www.w3.org/1999/xlink" width="12px" height="12px" viewBox="61 583  12 12" xmlns="http://www.w3.org/2000/svg">
  <path d="M 67 583  C 70.36 583  73 585.64  73 589  C 73 592.36  70.36 595  67 595  C 63.64 595  61 592.36  61 589  C 61 585.64  63.64 583  67 583  Z " fill-rule="nonzero" fill="#ffffff" stroke="none" />
  <path d="M 67 583.5  C 70.08 583.5  72.5 585.92  72.5 589  C 72.5 592.08  70.08 594.5  67 594.5  C 63.92 594.5  61.5 592.08  61.5 589  C 61.5 585.92  63.92 583.5  67 583.5  Z " stroke-width="1" stroke="#aaaaaa" fill="none" />
  <path d="M 67 592  C 65.32 592  64 590.68  64 589  C 64 587.32  65.32 586  67 586  C 68.68 586  70 587.32  70 589  C 70 590.68  68.68 592  67 592  " fill-rule="nonzero" fill="#aaaaaa" stroke="none" />
</svg>