<?xml version="1.0" encoding="utf-8"?>
<svg version="1.1" xmlns:xlink="http://www.w3.org/1999/xlink" width="12px" height="12px" viewBox="61 372  12 12" xmlns="http://www.w3.org/2000/svg">
  <path d="M 67 372  C 70.36 372  73 374.64  73 378  C 73 381.36  70.36 384  67 384  C 63.64 384  61 381.36  61 378  C 61 374.64  63.64 372  67 372  Z " fill-rule="nonzero" fill="#ffffff" stroke="none" />
  <path d="M 67 372.5  C 70.08 372.5  72.5 374.92  72.5 378  C 72.5 381.08  70.08 383.5  67 383.5  C 63.92 383.5  61.5 381.08  61.5 378  C 61.5 374.92  63.92 372.5  67 372.5  Z " stroke-width="1" stroke="#aaaaaa" fill="none" />
  <path d="M 67 381  C 65.32 381  64 379.68  64 378  C 64 376.32  65.32 375  67 375  C 68.68 375  70 376.32  70 378  C 70 379.68  68.68 381  67 381  " fill-rule="nonzero" fill="#aaaaaa" stroke="none" />
</svg>