<?xml version="1.0" encoding="utf-8"?>
<svg version="1.1" xmlns:xlink="http://www.w3.org/1999/xlink" width="12px" height="12px" viewBox="76 628  12 12" xmlns="http://www.w3.org/2000/svg">
  <path d="M 82 628  C 85.36 628  88 630.64  88 634  C 88 637.36  85.36 640  82 640  C 78.64 640  76 637.36  76 634  C 76 630.64  78.64 628  82 628  Z " fill-rule="nonzero" fill="#ffffff" stroke="none" />
  <path d="M 82 628.5  C 85.08 628.5  87.5 630.92  87.5 634  C 87.5 637.08  85.08 639.5  82 639.5  C 78.92 639.5  76.5 637.08  76.5 634  C 76.5 630.92  78.92 628.5  82 628.5  Z " stroke-width="1" stroke="#aaaaaa" fill="none" />
  <path d="M 82 637  C 80.32 637  79 635.68  79 634  C 79 632.32  80.32 631  82 631  C 83.68 631  85 632.32  85 634  C 85 635.68  83.68 637  82 637  " fill-rule="nonzero" fill="#aaaaaa" stroke="none" />
</svg>