<?xml version="1.0" encoding="utf-8"?>
<svg version="1.1" xmlns:xlink="http://www.w3.org/1999/xlink" width="12px" height="12px" viewBox="76 546  12 12" xmlns="http://www.w3.org/2000/svg">
  <path d="M 82 546  C 85.36 546  88 548.64  88 552  C 88 555.36  85.36 558  82 558  C 78.64 558  76 555.36  76 552  C 76 548.64  78.64 546  82 546  Z " fill-rule="nonzero" fill="#f0f0f0" stroke="none" />
  <path d="M 82 546.5  C 85.08 546.5  87.5 548.92  87.5 552  C 87.5 555.08  85.08 557.5  82 557.5  C 78.92 557.5  76.5 555.08  76.5 552  C 76.5 548.92  78.92 546.5  82 546.5  Z " stroke-width="1" stroke="#aaaaaa" fill="none" />
  <path d="M 82 555  C 80.32 555  79 553.68  79 552  C 79 550.32  80.32 549  82 549  C 83.68 549  85 550.32  85 552  C 85 553.68  83.68 555  82 555  " fill-rule="nonzero" fill="#aaaaaa" stroke="none" />
</svg>