<?xml version="1.0" encoding="utf-8"?>
<svg version="1.1" xmlns:xlink="http://www.w3.org/1999/xlink" width="12px" height="12px" viewBox="76 377  12 12" xmlns="http://www.w3.org/2000/svg">
  <path d="M 82 377  C 85.36 377  88 379.64  88 383  C 88 386.36  85.36 389  82 389  C 78.64 389  76 386.36  76 383  C 76 379.64  78.64 377  82 377  Z " fill-rule="nonzero" fill="#f0f0f0" stroke="none" />
  <path d="M 82 377.5  C 85.08 377.5  87.5 379.92  87.5 383  C 87.5 386.08  85.08 388.5  82 388.5  C 78.92 388.5  76.5 386.08  76.5 383  C 76.5 379.92  78.92 377.5  82 377.5  Z " stroke-width="1" stroke="#aaaaaa" fill="none" />
  <path d="M 82 386  C 80.32 386  79 384.68  79 383  C 79 381.32  80.32 380  82 380  C 83.68 380  85 381.32  85 383  C 85 384.68  83.68 386  82 386  " fill-rule="nonzero" fill="#aaaaaa" stroke="none" />
</svg>