<?xml version="1.0" encoding="utf-8"?>
<svg version="1.1" xmlns:xlink="http://www.w3.org/1999/xlink" width="12px" height="12px" viewBox="76 505  12 12" xmlns="http://www.w3.org/2000/svg">
  <path d="M 82 505  C 85.36 505  88 507.64  88 511  C 88 514.36  85.36 517  82 517  C 78.64 517  76 514.36  76 511  C 76 507.64  78.64 505  82 505  Z " fill-rule="nonzero" fill="#f0f0f0" stroke="none" />
  <path d="M 82 505.5  C 85.08 505.5  87.5 507.92  87.5 511  C 87.5 514.08  85.08 516.5  82 516.5  C 78.92 516.5  76.5 514.08  76.5 511  C 76.5 507.92  78.92 505.5  82 505.5  Z " stroke-width="1" stroke="#aaaaaa" fill="none" />
  <path d="M 82 514  C 80.32 514  79 512.68  79 511  C 79 509.32  80.32 508  82 508  C 83.68 508  85 509.32  85 511  C 85 512.68  83.68 514  82 514  " fill-rule="nonzero" fill="#aaaaaa" stroke="none" />
</svg>