<?xml version="1.0" encoding="utf-8"?>
<svg version="1.1" xmlns:xlink="http://www.w3.org/1999/xlink" width="12px" height="12px" viewBox="76 587  12 12" xmlns="http://www.w3.org/2000/svg">
  <path d="M 82 587  C 85.36 587  88 589.64  88 593  C 88 596.36  85.36 599  82 599  C 78.64 599  76 596.36  76 593  C 76 589.64  78.64 587  82 587  Z " fill-rule="nonzero" fill="#f0f0f0" stroke="none" />
  <path d="M 82 587.5  C 85.08 587.5  87.5 589.92  87.5 593  C 87.5 596.08  85.08 598.5  82 598.5  C 78.92 598.5  76.5 596.08  76.5 593  C 76.5 589.92  78.92 587.5  82 587.5  Z " stroke-width="1" stroke="#aaaaaa" fill="none" />
  <path d="M 82 596  C 80.32 596  79 594.68  79 593  C 79 591.32  80.32 590  82 590  C 83.68 590  85 591.32  85 593  C 85 594.68  83.68 596  82 596  " fill-rule="nonzero" fill="#aaaaaa" stroke="none" />
</svg>