<?xml version="1.0" encoding="utf-8"?>
<svg version="1.1" xmlns:xlink="http://www.w3.org/1999/xlink" width="12px" height="12px" viewBox="111 166  12 12" xmlns="http://www.w3.org/2000/svg">
  <path d="M 117 166  C 120.36 166  123 168.64  123 172  C 123 175.36  120.36 178  117 178  C 113.64 178  111 175.36  111 172  C 111 168.64  113.64 166  117 166  Z " fill-rule="nonzero" fill="#f0f0f0" stroke="none" />
  <path d="M 117 166.5  C 120.08 166.5  122.5 168.92  122.5 172  C 122.5 175.08  120.08 177.5  117 177.5  C 113.92 177.5  111.5 175.08  111.5 172  C 111.5 168.92  113.92 166.5  117 166.5  Z " stroke-width="1" stroke="#797979" fill="none" />
  <path d="M 117 175  C 115.32 175  114 173.68  114 172  C 114 170.32  115.32 169  117 169  C 118.68 169  120 170.32  120 172  C 120 173.68  118.68 175  117 175  " fill-rule="nonzero" fill="#797979" stroke="none" />
</svg>