<?xml version="1.0" encoding="utf-8"?>
<svg version="1.1" xmlns:xlink="http://www.w3.org/1999/xlink" width="12px" height="12px" viewBox="240 166  12 12" xmlns="http://www.w3.org/2000/svg">
  <path d="M 246 166  C 249.36 166  252 168.64  252 172  C 252 175.36  249.36 178  246 178  C 242.64 178  240 175.36  240 172  C 240 168.64  242.64 166  246 166  Z " fill-rule="nonzero" fill="#ffffff" stroke="none" />
  <path d="M 246 166.5  C 249.08 166.5  251.5 168.92  251.5 172  C 251.5 175.08  249.08 177.5  246 177.5  C 242.92 177.5  240.5 175.08  240.5 172  C 240.5 168.92  242.92 166.5  246 166.5  Z " stroke-width="1" stroke="#797979" fill="none" />
  <path d="M 246 175  C 244.32 175  243 173.68  243 172  C 243 170.32  244.32 169  246 169  C 247.68 169  249 170.32  249 172  C 249 173.68  247.68 175  246 175  " fill-rule="nonzero" fill="#797979" stroke="none" />
</svg>