<?xml version="1.0" encoding="utf-8"?>
<svg version="1.1" xmlns:xlink="http://www.w3.org/1999/xlink" width="12px" height="12px" viewBox="61 706  12 12" xmlns="http://www.w3.org/2000/svg">
  <path d="M 67 706  C 70.36 706  73 708.64  73 712  C 73 715.36  70.36 718  67 718  C 63.64 718  61 715.36  61 712  C 61 708.64  63.64 706  67 706  Z " fill-rule="nonzero" fill="#f0f0f0" stroke="none" />
  <path d="M 67 706.5  C 70.08 706.5  72.5 708.92  72.5 712  C 72.5 715.08  70.08 717.5  67 717.5  C 63.92 717.5  61.5 715.08  61.5 712  C 61.5 708.92  63.92 706.5  67 706.5  Z " stroke-width="1" stroke="#aaaaaa" fill="none" />
  <path d="M 67 715  C 65.32 715  64 713.68  64 712  C 64 710.32  65.32 709  67 709  C 68.68 709  70 710.32  70 712  C 70 713.68  68.68 715  67 715  " fill-rule="nonzero" fill="#aaaaaa" stroke="none" />
</svg>