<?xml version="1.0" encoding="utf-8"?>
<svg version="1.1" xmlns:xlink="http://www.w3.org/1999/xlink" width="12px" height="12px" viewBox="76 336  12 12" xmlns="http://www.w3.org/2000/svg">
  <path d="M 82 336  C 85.36 336  88 338.64  88 342  C 88 345.36  85.36 348  82 348  C 78.64 348  76 345.36  76 342  C 76 338.64  78.64 336  82 336  Z " fill-rule="nonzero" fill="#ffffff" stroke="none" />
  <path d="M 82 336.5  C 85.08 336.5  87.5 338.92  87.5 342  C 87.5 345.08  85.08 347.5  82 347.5  C 78.92 347.5  76.5 345.08  76.5 342  C 76.5 338.92  78.92 336.5  82 336.5  Z " stroke-width="1" stroke="#aaaaaa" fill="none" />
  <path d="M 82 345  C 80.32 345  79 343.68  79 342  C 79 340.32  80.32 339  82 339  C 83.68 339  85 340.32  85 342  C 85 343.68  83.68 345  82 345  " fill-rule="nonzero" fill="#aaaaaa" stroke="none" />
</svg>