<?xml version="1.0" encoding="utf-8"?>
<svg version="1.1" xmlns:xlink="http://www.w3.org/1999/xlink" width="12px" height="12px" viewBox="76 421  12 12" xmlns="http://www.w3.org/2000/svg">
  <path d="M 82 421  C 85.36 421  88 423.64  88 427  C 88 430.36  85.36 433  82 433  C 78.64 433  76 430.36  76 427  C 76 423.64  78.64 421  82 421  Z " fill-rule="nonzero" fill="#ffffff" stroke="none" />
  <path d="M 82 421.5  C 85.08 421.5  87.5 423.92  87.5 427  C 87.5 430.08  85.08 432.5  82 432.5  C 78.92 432.5  76.5 430.08  76.5 427  C 76.5 423.92  78.92 421.5  82 421.5  Z " stroke-width="1" stroke="#aaaaaa" fill="none" />
  <path d="M 82 430  C 80.32 430  79 428.68  79 427  C 79 425.32  80.32 424  82 424  C 83.68 424  85 425.32  85 427  C 85 428.68  83.68 430  82 430  " fill-rule="nonzero" fill="#aaaaaa" stroke="none" />
</svg>