<?xml version="1.0" encoding="utf-8"?>
<svg version="1.1" xmlns:xlink="http://www.w3.org/1999/xlink" width="12px" height="12px" xmlns="http://www.w3.org/2000/svg">
  <g transform="matrix(1 0 0 1 -254 -1065 )">
    <path d="M 260 1065  C 263.36 1065  266 1067.64  266 1071  C 266 1074.36  263.36 1077  260 1077  C 256.64 1077  254 1074.36  254 1071  C 254 1067.64  256.64 1065  260 1065  Z " fill-rule="nonzero" fill="#ffffff" stroke="none" />
    <path d="M 260 1065.5  C 263.08 1065.5  265.5 1067.92  265.5 1071  C 265.5 1074.08  263.08 1076.5  260 1076.5  C 256.92 1076.5  254.5 1074.08  254.5 1071  C 254.5 1067.92  256.92 1065.5  260 1065.5  Z " stroke-width="1" stroke="#797979" fill="none" />
  </g>
</svg>