<?xml version="1.0" encoding="utf-8"?>
<svg version="1.1" xmlns:xlink="http://www.w3.org/1999/xlink" width="1150px" height="530px" xmlns="http://www.w3.org/2000/svg">
  <defs>
    <filter x="150px" y="190px" width="1150px" height="530px" filterUnits="userSpaceOnUse" id="filter694">
      <feOffset dx="5" dy="5" in="SourceAlpha" result="shadowOffsetInner" />
      <feGaussianBlur stdDeviation="2.5" in="shadowOffsetInner" result="shadowGaussian" />
      <feComposite in2="shadowGaussian" operator="atop" in="SourceAlpha" result="shadowComposite" />
      <feColorMatrix type="matrix" values="0 0 0 0 0  0 0 0 0 0  0 0 0 0 0  0 0 0 0.349019607843137 0  " in="shadowComposite" />
    </filter>
    <g id="widget695">
      <path d="M 150.5 200  A 9.5 9.5 0 0 1 160 190.5 L 1280 190.5  A 9.5 9.5 0 0 1 1289.5 200 L 1289.5 700  A 9.5 9.5 0 0 1 1280 709.5 L 160 709.5  A 9.5 9.5 0 0 1 150.5 700 L 150.5 200  Z " fill-rule="nonzero" fill="#ffffff" stroke="none" fill-opacity="0" />
      <path d="M 150.5 200  A 9.5 9.5 0 0 1 160 190.5 L 1280 190.5  A 9.5 9.5 0 0 1 1289.5 200 L 1289.5 700  A 9.5 9.5 0 0 1 1280 709.5 L 160 709.5  A 9.5 9.5 0 0 1 150.5 700 L 150.5 200  Z " stroke-width="1" stroke="#797979" fill="none" />
    </g>
  </defs>
  <g transform="matrix(1 0 0 1 -150 -190 )">
    <use xlink:href="#widget695" filter="url(#filter694)" />
    <use xlink:href="#widget695" />
  </g>
</svg>