<?xml version="1.0" encoding="utf-8"?>
<svg version="1.1" xmlns:xlink="http://www.w3.org/1999/xlink" width="12px" height="12px" viewBox="52 461  12 12" xmlns="http://www.w3.org/2000/svg">
  <path d="M 58 461  C 61.36 461  64 463.64  64 467  C 64 470.36  61.36 473  58 473  C 54.64 473  52 470.36  52 467  C 52 463.64  54.64 461  58 461  Z " fill-rule="nonzero" fill="#ffffff" stroke="none" />
  <path d="M 58 461.5  C 61.08 461.5  63.5 463.92  63.5 467  C 63.5 470.08  61.08 472.5  58 472.5  C 54.92 472.5  52.5 470.08  52.5 467  C 52.5 463.92  54.92 461.5  58 461.5  Z " stroke-width="1" stroke="#aaaaaa" fill="none" />
  <path d="M 58 470  C 56.32 470  55 468.68  55 467  C 55 465.32  56.32 464  58 464  C 59.68 464  61 465.32  61 467  C 61 468.68  59.68 470  58 470  " fill-rule="nonzero" fill="#aaaaaa" stroke="none" />
</svg>