<?xml version="1.0" encoding="utf-8"?>
<svg version="1.1" xmlns:xlink="http://www.w3.org/1999/xlink" width="12px" height="12px" viewBox="52 336  12 12" xmlns="http://www.w3.org/2000/svg">
  <path d="M 58 336  C 61.36 336  64 338.64  64 342  C 64 345.36  61.36 348  58 348  C 54.64 348  52 345.36  52 342  C 52 338.64  54.64 336  58 336  Z " fill-rule="nonzero" fill="#f0f0f0" stroke="none" />
  <path d="M 58 336.5  C 61.08 336.5  63.5 338.92  63.5 342  C 63.5 345.08  61.08 347.5  58 347.5  C 54.92 347.5  52.5 345.08  52.5 342  C 52.5 338.92  54.92 336.5  58 336.5  Z " stroke-width="1" stroke="#aaaaaa" fill="none" />
  <path d="M 58 345  C 56.32 345  55 343.68  55 342  C 55 340.32  56.32 339  58 339  C 59.68 339  61 340.32  61 342  C 61 343.68  59.68 345  58 345  " fill-rule="nonzero" fill="#aaaaaa" stroke="none" />
</svg>