<?xml version="1.0" encoding="utf-8"?>
<svg version="1.1" xmlns:xlink="http://www.w3.org/1999/xlink" width="12px" height="12px" viewBox="52 630  12 12" xmlns="http://www.w3.org/2000/svg">
  <path d="M 58 630  C 61.36 630  64 632.64  64 636  C 64 639.36  61.36 642  58 642  C 54.64 642  52 639.36  52 636  C 52 632.64  54.64 630  58 630  Z " fill-rule="nonzero" fill="#f0f0f0" stroke="none" />
  <path d="M 58 630.5  C 61.08 630.5  63.5 632.92  63.5 636  C 63.5 639.08  61.08 641.5  58 641.5  C 54.92 641.5  52.5 639.08  52.5 636  C 52.5 632.92  54.92 630.5  58 630.5  Z " stroke-width="1" stroke="#aaaaaa" fill="none" />
  <path d="M 58 639  C 56.32 639  55 637.68  55 636  C 55 634.32  56.32 633  58 633  C 59.68 633  61 634.32  61 636  C 61 637.68  59.68 639  58 639  " fill-rule="nonzero" fill="#aaaaaa" stroke="none" />
</svg>