<?xml version="1.0" encoding="utf-8"?>
<svg version="1.1" xmlns:xlink="http://www.w3.org/1999/xlink" width="12px" height="12px" viewBox="762 216  12 12" xmlns="http://www.w3.org/2000/svg">
  <path d="M 768 216  C 771.36 216  774 218.64  774 222  C 774 225.36  771.36 228  768 228  C 764.64 228  762 225.36  762 222  C 762 218.64  764.64 216  768 216  Z " fill-rule="nonzero" fill="#ffffff" stroke="none" />
  <path d="M 768 216.5  C 771.08 216.5  773.5 218.92  773.5 222  C 773.5 225.08  771.08 227.5  768 227.5  C 764.92 227.5  762.5 225.08  762.5 222  C 762.5 218.92  764.92 216.5  768 216.5  Z " stroke-width="1" stroke="#797979" fill="none" />
  <path d="M 768 225  C 766.32 225  765 223.68  765 222  C 765 220.32  766.32 219  768 219  C 769.68 219  771 220.32  771 222  C 771 223.68  769.68 225  768 225  " fill-rule="nonzero" fill="#797979" stroke="none" />
</svg>