<?xml version="1.0" encoding="utf-8"?>
<svg version="1.1" xmlns:xlink="http://www.w3.org/1999/xlink" width="12px" height="12px" viewBox="708 297  12 12" xmlns="http://www.w3.org/2000/svg">
  <path d="M 714 297  C 717.36 297  720 299.64  720 303  C 720 306.36  717.36 309  714 309  C 710.64 309  708 306.36  708 303  C 708 299.64  710.64 297  714 297  Z " fill-rule="nonzero" fill="#f0f0f0" stroke="none" />
  <path d="M 714 297.5  C 717.08 297.5  719.5 299.92  719.5 303  C 719.5 306.08  717.08 308.5  714 308.5  C 710.92 308.5  708.5 306.08  708.5 303  C 708.5 299.92  710.92 297.5  714 297.5  Z " stroke-width="1" stroke="#797979" fill="none" />
  <path d="M 714 306  C 712.32 306  711 304.68  711 303  C 711 301.32  712.32 300  714 300  C 715.68 300  717 301.32  717 303  C 717 304.68  715.68 306  714 306  " fill-rule="nonzero" fill="#797979" stroke="none" />
</svg>