<?xml version="1.0" encoding="utf-8"?>
<svg version="1.1" xmlns:xlink="http://www.w3.org/1999/xlink" width="12px" height="12px" viewBox="708 357  12 12" xmlns="http://www.w3.org/2000/svg">
  <path d="M 714 357  C 717.36 357  720 359.64  720 363  C 720 366.36  717.36 369  714 369  C 710.64 369  708 366.36  708 363  C 708 359.64  710.64 357  714 357  Z " fill-rule="nonzero" fill="#f0f0f0" stroke="none" />
  <path d="M 714 357.5  C 717.08 357.5  719.5 359.92  719.5 363  C 719.5 366.08  717.08 368.5  714 368.5  C 710.92 368.5  708.5 366.08  708.5 363  C 708.5 359.92  710.92 357.5  714 357.5  Z " stroke-width="1" stroke="#797979" fill="none" />
  <path d="M 714 366  C 712.32 366  711 364.68  711 363  C 711 361.32  712.32 360  714 360  C 715.68 360  717 361.32  717 363  C 717 364.68  715.68 366  714 366  " fill-rule="nonzero" fill="#797979" stroke="none" />
</svg>