<?xml version="1.0" encoding="utf-8"?>
<svg version="1.1" xmlns:xlink="http://www.w3.org/1999/xlink" width="12px" height="12px" viewBox="762 266  12 12" xmlns="http://www.w3.org/2000/svg">
  <path d="M 768 266  C 771.36 266  774 268.64  774 272  C 774 275.36  771.36 278  768 278  C 764.64 278  762 275.36  762 272  C 762 268.64  764.64 266  768 266  Z " fill-rule="nonzero" fill="#f0f0f0" stroke="none" />
  <path d="M 768 266.5  C 771.08 266.5  773.5 268.92  773.5 272  C 773.5 275.08  771.08 277.5  768 277.5  C 764.92 277.5  762.5 275.08  762.5 272  C 762.5 268.92  764.92 266.5  768 266.5  Z " stroke-width="1" stroke="#797979" fill="none" />
  <path d="M 768 275  C 766.32 275  765 273.68  765 272  C 765 270.32  766.32 269  768 269  C 769.68 269  771 270.32  771 272  C 771 273.68  769.68 275  768 275  " fill-rule="nonzero" fill="#797979" stroke="none" />
</svg>