<?xml version="1.0" encoding="utf-8"?>
<svg version="1.1" xmlns:xlink="http://www.w3.org/1999/xlink" width="12px" height="12px" viewBox="708 416  12 12" xmlns="http://www.w3.org/2000/svg">
  <path d="M 714 416  C 717.36 416  720 418.64  720 422  C 720 425.36  717.36 428  714 428  C 710.64 428  708 425.36  708 422  C 708 418.64  710.64 416  714 416  Z " fill-rule="nonzero" fill="#f0f0f0" stroke="none" />
  <path d="M 714 416.5  C 717.08 416.5  719.5 418.92  719.5 422  C 719.5 425.08  717.08 427.5  714 427.5  C 710.92 427.5  708.5 425.08  708.5 422  C 708.5 418.92  710.92 416.5  714 416.5  Z " stroke-width="1" stroke="#797979" fill="none" />
  <path d="M 714 425  C 712.32 425  711 423.68  711 422  C 711 420.32  712.32 419  714 419  C 715.68 419  717 420.32  717 422  C 717 423.68  715.68 425  714 425  " fill-rule="nonzero" fill="#797979" stroke="none" />
</svg>