<?xml version="1.0" encoding="utf-8"?>
<svg version="1.1" xmlns:xlink="http://www.w3.org/1999/xlink" width="350px" height="250px" xmlns="http://www.w3.org/2000/svg">
  <g transform="matrix(1 0 0 1 -690 -436 )">
    <path d="M 691 442  A 5 5 0 0 1 696 437 L 1034 437  A 5 5 0 0 1 1039 442 L 1039 680  A 5 5 0 0 1 1034 685 L 696 685  A 5 5 0 0 1 691 680 L 691 442  Z " fill-rule="nonzero" fill="#ffffff" stroke="none" fill-opacity="0" />
    <path d="M 690.5 442  A 5.5 5.5 0 0 1 696 436.5 L 1034 436.5  A 5.5 5.5 0 0 1 1039.5 442 L 1039.5 680  A 5.5 5.5 0 0 1 1034 685.5 L 696 685.5  A 5.5 5.5 0 0 1 690.5 680 L 690.5 442  Z " stroke-width="1" stroke-dasharray="9,4" stroke="#f2f2f2" fill="none" stroke-dashoffset="0.5" />
  </g>
</svg>