<?xml version="1.0" encoding="utf-8"?>
<svg version="1.1" xmlns:xlink="http://www.w3.org/1999/xlink" width="39px" height="39px" xmlns="http://www.w3.org/2000/svg">
  <g transform="matrix(1 0 0 1 -98 -1690 )">
    <path d="M 117.5 1690  C 128.42 1690  137 1698.58  137 1709.5  C 137 1720.42  128.42 1729  117.5 1729  C 106.58 1729  98 1720.42  98 1709.5  C 98 1698.58  106.58 1690  117.5 1690  Z " fill-rule="nonzero" fill="#ffffff" stroke="none" />
    <path d="M 117.5 1690.5  C 128.14 1690.5  136.5 1698.86  136.5 1709.5  C 136.5 1720.14  128.14 1728.5  117.5 1728.5  C 106.86 1728.5  98.5 1720.14  98.5 1709.5  C 98.5 1698.86  106.86 1690.5  117.5 1690.5  Z " stroke-width="1" stroke="#797979" fill="none" />
  </g>
</svg>