<?xml version="1.0" encoding="utf-8"?>
<svg version="1.1" xmlns:xlink="http://www.w3.org/1999/xlink" width="12px" height="12px" viewBox="96 714  12 12" xmlns="http://www.w3.org/2000/svg">
  <path d="M 102 714  C 105.36 714  108 716.64  108 720  C 108 723.36  105.36 726  102 726  C 98.64 726  96 723.36  96 720  C 96 716.64  98.64 714  102 714  Z " fill-rule="nonzero" fill="#f0f0f0" stroke="none" />
  <path d="M 102 714.5  C 105.08 714.5  107.5 716.92  107.5 720  C 107.5 723.08  105.08 725.5  102 725.5  C 98.92 725.5  96.5 723.08  96.5 720  C 96.5 716.92  98.92 714.5  102 714.5  Z " stroke-width="1" stroke="#797979" fill="none" />
  <path d="M 102 723  C 100.32 723  99 721.68  99 720  C 99 718.32  100.32 717  102 717  C 103.68 717  105 718.32  105 720  C 105 721.68  103.68 723  102 723  " fill-rule="nonzero" fill="#797979" stroke="none" />
</svg>