<?xml version="1.0" encoding="utf-8"?>
<svg version="1.1" xmlns:xlink="http://www.w3.org/1999/xlink" width="12px" height="12px" viewBox="178 714  12 12" xmlns="http://www.w3.org/2000/svg">
  <path d="M 184 714  C 187.36 714  190 716.64  190 720  C 190 723.36  187.36 726  184 726  C 180.64 726  178 723.36  178 720  C 178 716.64  180.64 714  184 714  Z " fill-rule="nonzero" fill="#f0f0f0" stroke="none" />
  <path d="M 184 714.5  C 187.08 714.5  189.5 716.92  189.5 720  C 189.5 723.08  187.08 725.5  184 725.5  C 180.92 725.5  178.5 723.08  178.5 720  C 178.5 716.92  180.92 714.5  184 714.5  Z " stroke-width="1" stroke="#797979" fill="none" />
  <path d="M 184 723  C 182.32 723  181 721.68  181 720  C 181 718.32  182.32 717  184 717  C 185.68 717  187 718.32  187 720  C 187 721.68  185.68 723  184 723  " fill-rule="nonzero" fill="#797979" stroke="none" />
</svg>