<?xml version="1.0" encoding="utf-8"?>
<svg version="1.1" xmlns:xlink="http://www.w3.org/1999/xlink" width="12px" height="12px" xmlns="http://www.w3.org/2000/svg">
  <g transform="matrix(1 0 0 1 -407 -419 )">
    <path d="M 413 423  C 414.12 423  415 423.88  415 425  C 415 426.12  414.12 427  413 427  C 411.88 427  411 426.12  411 425  C 411 423.88  411.88 423  413 423  Z " fill-rule="nonzero" fill="#ffffff" stroke="none" />
    <path d="M 413 421.5  C 414.96 421.5  416.5 423.04  416.5 425  C 416.5 426.96  414.96 428.5  413 428.5  C 411.04 428.5  409.5 426.96  409.5 425  C 409.5 423.04  411.04 421.5  413 421.5  Z " stroke-width="5" stroke="#409eff" fill="none" />
  </g>
</svg>