<?xml version="1.0" encoding="utf-8"?>
<svg version="1.1" xmlns:xlink="http://www.w3.org/1999/xlink" width="12px" height="12px" xmlns="http://www.w3.org/2000/svg">
  <g transform="matrix(1 0 0 1 -407 -419 )">
    <path d="M 413 419  C 416.36 419  419 421.64  419 425  C 419 428.36  416.36 431  413 431  C 409.64 431  407 428.36  407 425  C 407 421.64  409.64 419  413 419  Z " fill-rule="nonzero" fill="#ffffff" stroke="none" />
    <path d="M 413 419.5  C 416.08 419.5  418.5 421.92  418.5 425  C 418.5 428.08  416.08 430.5  413 430.5  C 409.92 430.5  407.5 428.08  407.5 425  C 407.5 421.92  409.92 419.5  413 419.5  Z " stroke-width="1" stroke="#409eff" fill="none" />
  </g>
</svg>