<?xml version="1.0" encoding="utf-8"?>
<svg version="1.1" xmlns:xlink="http://www.w3.org/1999/xlink" width="12px" height="12px" viewBox="72 230  12 12" xmlns="http://www.w3.org/2000/svg">
  <path d="M 78 230  C 81.36 230  84 232.64  84 236  C 84 239.36  81.36 242  78 242  C 74.64 242  72 239.36  72 236  C 72 232.64  74.64 230  78 230  Z " fill-rule="nonzero" fill="#ffffff" stroke="none" />
  <path d="M 78 230.5  C 81.08 230.5  83.5 232.92  83.5 236  C 83.5 239.08  81.08 241.5  78 241.5  C 74.92 241.5  72.5 239.08  72.5 236  C 72.5 232.92  74.92 230.5  78 230.5  Z " stroke-width="1" stroke="#797979" fill="none" />
  <path d="M 78 239  C 76.32 239  75 237.68  75 236  C 75 234.32  76.32 233  78 233  C 79.68 233  81 234.32  81 236  C 81 237.68  79.68 239  78 239  " fill-rule="nonzero" fill="#797979" stroke="none" />
</svg>