<?xml version="1.0" encoding="utf-8"?>
<svg version="1.1" xmlns:xlink="http://www.w3.org/1999/xlink" width="12px" height="12px" viewBox="337 175  12 12" xmlns="http://www.w3.org/2000/svg">
  <path d="M 343 175  C 346.36 175  349 177.64  349 181  C 349 184.36  346.36 187  343 187  C 339.64 187  337 184.36  337 181  C 337 177.64  339.64 175  343 175  Z " fill-rule="nonzero" fill="#ffffff" stroke="none" />
  <path d="M 343 175.5  C 346.08 175.5  348.5 177.92  348.5 181  C 348.5 184.08  346.08 186.5  343 186.5  C 339.92 186.5  337.5 184.08  337.5 181  C 337.5 177.92  339.92 175.5  343 175.5  Z " stroke-width="1" stroke="#797979" fill="none" />
  <path d="M 343 184  C 341.32 184  340 182.68  340 181  C 340 179.32  341.32 178  343 178  C 344.68 178  346 179.32  346 181  C 346 182.68  344.68 184  343 184  " fill-rule="nonzero" fill="#797979" stroke="none" />
</svg>