<?xml version="1.0" encoding="utf-8"?>
<svg version="1.1" xmlns:xlink="http://www.w3.org/1999/xlink" width="12px" height="12px" viewBox="69 120  12 12" xmlns="http://www.w3.org/2000/svg">
  <path d="M 75 120  C 78.36 120  81 122.64  81 126  C 81 129.36  78.36 132  75 132  C 71.64 132  69 129.36  69 126  C 69 122.64  71.64 120  75 120  Z " fill-rule="nonzero" fill="#ffffff" stroke="none" />
  <path d="M 75 120.5  C 78.08 120.5  80.5 122.92  80.5 126  C 80.5 129.08  78.08 131.5  75 131.5  C 71.92 131.5  69.5 129.08  69.5 126  C 69.5 122.92  71.92 120.5  75 120.5  Z " stroke-width="1" stroke="#797979" fill="none" />
  <path d="M 75 129  C 73.32 129  72 127.68  72 126  C 72 124.32  73.32 123  75 123  C 76.68 123  78 124.32  78 126  C 78 127.68  76.68 129  75 129  " fill-rule="nonzero" fill="#797979" stroke="none" />
</svg>