<?xml version="1.0" encoding="utf-8"?>
<svg version="1.1" xmlns:xlink="http://www.w3.org/1999/xlink" width="12px" height="12px" viewBox="72 175  12 12" xmlns="http://www.w3.org/2000/svg">
  <path d="M 78 175  C 81.36 175  84 177.64  84 181  C 84 184.36  81.36 187  78 187  C 74.64 187  72 184.36  72 181  C 72 177.64  74.64 175  78 175  Z " fill-rule="nonzero" fill="#ffffff" stroke="none" />
  <path d="M 78 175.5  C 81.08 175.5  83.5 177.92  83.5 181  C 83.5 184.08  81.08 186.5  78 186.5  C 74.92 186.5  72.5 184.08  72.5 181  C 72.5 177.92  74.92 175.5  78 175.5  Z " stroke-width="1" stroke="#797979" fill="none" />
  <path d="M 78 184  C 76.32 184  75 182.68  75 181  C 75 179.32  76.32 178  78 178  C 79.68 178  81 179.32  81 181  C 81 182.68  79.68 184  78 184  " fill-rule="nonzero" fill="#797979" stroke="none" />
</svg>