<?xml version="1.0" encoding="utf-8"?>
<svg version="1.1" xmlns:xlink="http://www.w3.org/1999/xlink" width="12px" height="12px" viewBox="244 230  12 12" xmlns="http://www.w3.org/2000/svg">
  <path d="M 250 230  C 253.36 230  256 232.64  256 236  C 256 239.36  253.36 242  250 242  C 246.64 242  244 239.36  244 236  C 244 232.64  246.64 230  250 230  Z " fill-rule="nonzero" fill="#f0f0f0" stroke="none" />
  <path d="M 250 230.5  C 253.08 230.5  255.5 232.92  255.5 236  C 255.5 239.08  253.08 241.5  250 241.5  C 246.92 241.5  244.5 239.08  244.5 236  C 244.5 232.92  246.92 230.5  250 230.5  Z " stroke-width="1" stroke="#797979" fill="none" />
  <path d="M 250 239  C 248.32 239  247 237.68  247 236  C 247 234.32  248.32 233  250 233  C 251.68 233  253 234.32  253 236  C 253 237.68  251.68 239  250 239  " fill-rule="nonzero" fill="#797979" stroke="none" />
</svg>