<?xml version="1.0" encoding="utf-8"?>
<svg version="1.1" xmlns:xlink="http://www.w3.org/1999/xlink" width="12px" height="12px" viewBox="261 175  12 12" xmlns="http://www.w3.org/2000/svg">
  <path d="M 267 175  C 270.36 175  273 177.64  273 181  C 273 184.36  270.36 187  267 187  C 263.64 187  261 184.36  261 181  C 261 177.64  263.64 175  267 175  Z " fill-rule="nonzero" fill="#f0f0f0" stroke="none" />
  <path d="M 267 175.5  C 270.08 175.5  272.5 177.92  272.5 181  C 272.5 184.08  270.08 186.5  267 186.5  C 263.92 186.5  261.5 184.08  261.5 181  C 261.5 177.92  263.92 175.5  267 175.5  Z " stroke-width="1" stroke="#797979" fill="none" />
  <path d="M 267 184  C 265.32 184  264 182.68  264 181  C 264 179.32  265.32 178  267 178  C 268.68 178  270 179.32  270 181  C 270 182.68  268.68 184  267 184  " fill-rule="nonzero" fill="#797979" stroke="none" />
</svg>