<?xml version="1.0" encoding="utf-8"?>
<svg version="1.1" xmlns:xlink="http://www.w3.org/1999/xlink" width="12px" height="12px" viewBox="168 230  12 12" xmlns="http://www.w3.org/2000/svg">
  <path d="M 174 230  C 177.36 230  180 232.64  180 236  C 180 239.36  177.36 242  174 242  C 170.64 242  168 239.36  168 236  C 168 232.64  170.64 230  174 230  Z " fill-rule="nonzero" fill="#f0f0f0" stroke="none" />
  <path d="M 174 230.5  C 177.08 230.5  179.5 232.92  179.5 236  C 179.5 239.08  177.08 241.5  174 241.5  C 170.92 241.5  168.5 239.08  168.5 236  C 168.5 232.92  170.92 230.5  174 230.5  Z " stroke-width="1" stroke="#797979" fill="none" />
  <path d="M 174 239  C 172.32 239  171 237.68  171 236  C 171 234.32  172.32 233  174 233  C 175.68 233  177 234.32  177 236  C 177 237.68  175.68 239  174 239  " fill-rule="nonzero" fill="#797979" stroke="none" />
</svg>