<?xml version="1.0" encoding="utf-8"?>
<svg version="1.1" xmlns:xlink="http://www.w3.org/1999/xlink" width="39px" height="40px" xmlns="http://www.w3.org/2000/svg">
  <g transform="matrix(1 0 0 1 -247 -225 )">
    <path d="M 38 7.8864265927978  L 37.2485875706215 6.15789473684213  L 36.0677966101695 4.42936288088642  L 34.7796610169492 4.10526315789475  L 34.6723163841808 4.10526315789475  L 34.6723163841808 3.99722991689753  L 34.5649717514124 3.99722991689753  L 33.4915254237288 3.45706371191138  L 33.2768361581921 3.45706371191138  L 32.8474576271186 3.5650969529086  L 31.4519774011299 3.78116343490305  L 31.3446327683616 3.78116343490305  L 31.1299435028249 3.67313019390582  L 29.7344632768362 3.13296398891967  L 29.7344632768362 3.02493074792245  L 29.6271186440678 3.02493074792245  L 29.6271186440678 2.91689750692523  L 28.5536723163842 1.83656509695293  L 27.3728813559322 0.648199445983373  L 26.2994350282486 0  L 25.1186440677966 1.0803324099723  L 23.6158192090395 2.1606648199446  L 23.1864406779661 5.40166204986149  L 23.1864406779661 5.50969529085872  L 21.7909604519774 7.8864265927978  L 21.7909604519774 8.10249307479225  L 21.6836158192091 8.10249307479225  L 20.6101694915254 9.18282548476454  L 19.3220338983051 11.6675900277008  C 19.3220338983051 11.6675900277008  19.2146892655367 11.8836565096953  19.2146892655367 11.8836565096953  C 18.2485875706215 12.6398891966759  17.3898305084746 13.3961218836565  16.5310734463277 14.0443213296399  C 16.5310734463277 14.0443213296399  15.4576271186441 15.98891966759  15.4576271186441 15.98891966759  C 15.2429378531074 16.5290858725762  14.3841807909605 17.1772853185596  12.774011299435 17.8254847645429  C 12.774011299435 17.8254847645429  11.7005649717514 19.6620498614959  11.7005649717514 19.6620498614959  L 9.87570621468928 22.1468144044321  L 9.7683615819209 22.1468144044321  L 9.7683615819209 22.2548476454294  L 9.55367231638419 22.2548476454294  L 0.96610169491526 21.7146814404432  L 0 22.6869806094183  L 0 24.5235457063712  L 0.858757062146905 28.0886426592798  L 2.68361581920904 30.6814404432133  L 4.18644067796611 31.5457063711912  L 4.18644067796611 31.6537396121884  C 4.18644067796611 31.6537396121884  4.29378531073446 31.6537396121884  4.29378531073446 31.6537396121884  C 5.15254237288137 32.7340720221607  5.58192090395482 33.4903047091413  5.58192090395482 34.0304709141274  C 5.58192090395482 34.0304709141274  5.58192090395482 35.4349030470914  5.58192090395482 35.4349030470914  L 5.04519774011301 35.9750692520776  L 5.36723163841808 36.191135734072  L 5.79661016949153 36.191135734072  L 6.44067796610169 34.8947368421053  L 6.65536723163843 34.8947368421053  L 8.37288135593221 35.4349030470914  L 8.48022598870057 35.9750692520776  L 9.33898305084747 35.9750692520776  L 9.12429378531073 35.3268698060942  L 9.01694915254238 35.1108033240997  C 9.01694915254238 35.1108033240997  10.1977401129943 33.2742382271468  10.1977401129943 33.2742382271468  C 10.4124293785311 32.7340720221607  10.9491525423729 32.5180055401662  11.7005649717514 32.7340720221607  C 11.7005649717514 32.7340720221607  13.6327683615819 32.8421052631579  13.6327683615819 32.8421052631579  L 14.7062146892656 31.4376731301939  L 14.7062146892656 30.1412742382272  L 15.135593220339 28.7368421052632  L 15.135593220339 28.6288088642659  L 15.2429378531074 28.5207756232687  L 15.3502824858757 28.4127423822715  L 16.1016949152542 27.9806094182826  L 16.1016949152542 27.8725761772853  L 16.2090395480226 27.8725761772853  L 16.316384180791 27.9806094182826  L 17.9265536723164 28.196675900277  L 17.9265536723164 28.4127423822715  L 18.2485875706215 29.7091412742382  L 18.2485875706215 30.3573407202216  L 18.4632768361582 31.3296398891967  L 18.8926553672316 31.4376731301939  L 19.4293785310734 30.6814404432133  L 19.4293785310734 30.5734072022161  L 20.2881355932203 29.3850415512466  L 20.3954802259887 29.1689750692521  L 21.5762711864407 28.6288088642659  L 21.6836158192091 28.6288088642659  L 21.7909604519774 28.5207756232687  L 23.1864406779661 28.9529085872576  L 23.2937853107345 28.9529085872576  L 23.5084745762712 29.0609418282549  L 24.2598870056497 30.5734072022161  L 24.2598870056497 32.0858725761773  L 25.3333333333333 34.1385041551247  L 25.3333333333333 34.3545706371191  L 25.3333333333333 35.8670360110804  L 25.6553672316384 36.5152354570637  L 25.9774011299435 36.5152354570637  L 26.4067796610169 35.9750692520776  L 26.5141242937853 35.7590027700831  L 27.8022598870057 36.5152354570637  L 27.909604519774 36.5152354570637  L 28.0169491525424 36.5152354570637  L 28.0169491525424 36.7313019390582  L 28.0169491525424 36.8393351800554  L 28.4463276836158 38.6759002770083  L 28.9830508474576 39  L 29.090395480226 38.7839335180056  L 29.6271186440678 37.3795013850416  L 29.6271186440678 37.2714681440443  L 29.7344632768362 37.0554016620499  L 29.8418079096045 37.0554016620499  L 29.9491525423729 37.0554016620499  L 30.7005649717514 36.623268698061  L 30.8079096045198 36.623268698061  L 30.8079096045198 36.5152354570637  L 31.774011299435 36.5152354570637  L 31.5593220338983 35.9750692520776  L 31.5593220338983 35.7590027700831  L 31.0225988700565 30.6814404432133  L 28.9830508474576 27.3324099722992  L 25.1186440677966 22.7950138504155  L 25.0112994350283 22.6869806094183  L 24.7966101694915 19.7700831024931  L 23.5084745762712 17.5013850415513  L 23.5084745762712 17.393351800554  L 23.4011299435028 17.2853185595568  L 23.5084745762712 17.0692520775623  L 24.1525423728813 14.2603878116344  L 24.3672316384181 14.2603878116344  L 24.5819209039548 14.2603878116344  L 31.3446327683616 13.8282548476454  L 34.9943502824859 11.8836565096953  C 34.9943502824859 11.8836565096953  35.1016949152542 11.7756232686981  35.1016949152542 11.7756232686981  C 36.3898305084746 11.3434903047091  37.2485875706215 10.803324099723  37.4632768361582 10.2631578947368  C 37.7853107344633 9.72299168975069  38 8.9667590027701  38 7.8864265927978  Z " fill-rule="nonzero" fill="#0079fe" stroke="none" transform="matrix(1 0 0 1 247 225 )" />
  </g>
</svg>