<?xml version="1.0" encoding="utf-8"?>
<svg version="1.1" xmlns:xlink="http://www.w3.org/1999/xlink" width="111px" height="80px" xmlns="http://www.w3.org/2000/svg">
  <g transform="matrix(1 0 0 1 -114 -148 )">
    <path d="M 65.6748768472906 4.11796982167354  C 65.6748768472906 4.11796982167354  64.6995073891626 4.87654320987654  64.6995073891626 4.87654320987654  C 64.6995073891626 5.31001371742113  64.9162561576355 6.28532235939644  65.2413793103448 7.69410150891632  C 65.2413793103448 7.69410150891632  65.2413793103448 7.80246913580246  65.2413793103448 7.80246913580246  L 65.3497536945813 7.91083676268862  L 65.2413793103448 7.91083676268862  L 64.0492610837438 10.6200274348423  L 62.423645320197 11.2702331961591  L 62.0985221674877 11.3786008230453  L 61.9901477832512 11.3786008230453  L 59.1724137931035 10.0781893004115  L 59.064039408867 10.0781893004115  L 59.064039408867 9.96982167352536  L 53.7536945812808 5.09327846364882  L 51.6945812807882 3.90123456790123  L 48.4433497536946 2.70919067215363  L 48.4433497536946 2.60082304526749  L 48.3349753694581 2.60082304526749  L 46.8177339901478 1.51714677640604  L 44.1083743842364 0.650205761316866  L 42.5911330049261 0.758573388203005  L 42.4827586206897 0.758573388203005  L 39.0147783251232 0.541838134430727  L 38.9064039408867 0.541838134430727  L 36.4137931034483 0  L 34.8965517241379 0  C 34.8965517241379 0  33.7044334975369 0.866941015089175  33.7044334975369 0.866941015089175  C 33.0541871921182 1.19204389574759  32.1871921182266 1.30041152263373  31.1034482758621 1.51714677640604  C 31.1034482758621 1.51714677640604  28.8275862068966 1.95061728395063  28.8275862068966 1.95061728395063  L 26.8768472906404 2.60082304526749  L 26.7684729064039 2.70919067215363  L 26.7684729064039 2.81755829903977  L 26.7684729064039 2.70919067215363  L 24.384236453202 2.92592592592591  L 21.8916256157636 3.90123456790123  L 21.5665024630542 3.90123456790123  L 19.5073891625616 3.68449931412895  L 16.3645320197044 4.11796982167354  L 13.7635467980296 4.11796982167354  L 12.679802955665 5.20164609053499  L 12.5714285714286 5.20164609053499  L 11.2709359605911 5.52674897119341  L 11.8128078817734 6.82716049382717  L 11.8128078817734 8.88614540466391  L 11.487684729064 10.7283950617284  L 13.3300492610837 12.2455418381344  L 13.4384236453202 12.2455418381344  C 13.4384236453202 12.2455418381344  14.9556650246305 13.9794238683128  14.9556650246305 13.9794238683128  C 15.9310344827586 14.7379972565158  16.3645320197044 15.2798353909465  16.3645320197044 15.9300411522634  C 16.3645320197044 15.9300411522634  16.9064039408867 17.5555555555555  16.9064039408867 17.5555555555555  C 16.9064039408867 17.5555555555555  17.6650246305419 19.1810699588477  17.6650246305419 19.1810699588477  C 17.5566502463054 19.1810699588477  17.5566502463054 19.2894375857339  17.448275862069 19.2894375857339  C 17.448275862069 19.2894375857339  15.3891625615764 20.8065843621399  15.3891625615764 20.8065843621399  L 13.9802955665025 22.6488340192044  L 14.3054187192118 24.2743484224966  L 15.2807881773399 26.5500685871056  L 15.3891625615764 26.7668038408779  L 15.3891625615764 26.8751714677641  C 15.3891625615764 26.8751714677641  15.1724137931034 27.7421124828532  15.1724137931034 27.7421124828532  C 14.9556650246305 28.2839506172839  14.7389162561576 28.7174211248285  14.4137931034483 28.9341563786008  C 13.7635467980296 29.4759945130315  12.679802955665 29.4759945130315  10.9458128078818 28.9341563786008  C 10.9458128078818 28.9341563786008  8.23645320197044 28.3923182441701  8.23645320197044 28.3923182441701  L 8.12807881773399 28.3923182441701  L 8.01970443349754 28.3923182441701  L 6.06896551724138 27.4170096021948  L 2.92610837438424 27.3086419753086  L 3.03448275862069 27.4170096021948  C 3.03448275862069 27.4170096021948  2.70935960591133 32.8353909465021  2.70935960591133 32.8353909465021  C 2.60098522167488 33.5939643347051  2.05911330049262 33.9190672153635  1.30049261083744 34.0274348422497  C 0.975369458128085 34.1358024691358  0.758620689655176 34.5692729766804  0.866995073891623 35.4362139917695  C 0.866995073891623 35.4362139917695  0.866995073891623 35.5445816186557  0.866995073891623 35.5445816186557  L 0.758620689655176 35.5445816186557  C 0.758620689655176 35.5445816186557  0.541871921182266 36.9533607681756  0.541871921182266 36.9533607681756  C 1.30049261083744 37.6035665294924  1.84236453201971 38.1454046639232  2.05911330049262 38.5788751714678  C 2.05911330049262 38.5788751714678  2.60098522167488 41.1796982167352  2.60098522167488 41.1796982167352  C 2.60098522167488 41.1796982167352  2.60098522167488 42.1550068587106  2.60098522167488 42.1550068587106  C 2.49261083743842 42.6968449931413  2.38423645320197 43.1303155006859  2.16748768472906 43.5637860082304  C 2.16748768472906 43.5637860082304  1.40886699507389 45.7311385459533  1.40886699507389 45.7311385459533  L 0 48.440329218107  L 0 48.9821673525377  L 0.21674876847291 50.2825788751715  C 0.21674876847291 50.2825788751715  1.6256157635468 52.1248285322359  1.6256157635468 52.1248285322359  C 2.05911330049262 52.6666666666666  2.27586206896551 52.9917695473251  2.38423645320197 53.3168724279835  C 2.38423645320197 53.3168724279835  3.68472906403942 55.159122085048  3.68472906403942 55.159122085048  C 3.68472906403942 55.159122085048  5.63546798029557 57.3264746227709  5.63546798029557 57.3264746227709  C 6.39408866995075 58.0850480109739  6.93596059113301 58.4101508916324  7.15270935960591 58.4101508916324  C 7.15270935960591 58.4101508916324  9.21182266009852 57.1097393689986  9.21182266009852 57.1097393689986  C 9.64532019704434 56.7846364883402  9.9704433497537 56.5679012345679  10.512315270936 56.5679012345679  C 10.9458128078818 56.5679012345679  11.5960591133005 56.8930041152263  12.5714285714286 57.5432098765432  C 12.5714285714286 57.5432098765432  12.679802955665 57.5432098765432  12.679802955665 57.5432098765432  L 12.679802955665 57.6515775034293  L 13.7635467980296 58.9519890260631  L 14.3054187192118 60.2524005486968  L 14.7389162561576 60.7942386831276  L 15.064039408867 61.0109739368999  L 16.4729064039409 61.9862825788751  C 16.4729064039409 61.9862825788751  17.2315270935961 62.0946502057613  17.2315270935961 62.0946502057613  C 17.6650246305419 62.2030178326475  18.0985221674877 62.5281207133059  18.4236453201971 62.9615912208505  C 18.64039408867 63.2866941015089  19.8325123152709 63.7201646090535  21.8916256157636 64.2620027434842  C 21.8916256157636 64.2620027434842  22 64.2620027434842  22 64.2620027434842  L 25.2512315270936 65.4540466392318  L 25.3596059113301 65.4540466392318  L 25.4679802955665 65.4540466392318  L 27.743842364532 66.5377229080933  L 31.6453201970443 67.5130315500686  L 31.7536945812808 67.6213991769547  L 36.8472906403941 67.838134430727  L 39.1231527093596 66.9711934156379  L 41.1822660098522 66.9711934156379  L 41.1822660098522 67.079561042524  L 41.2906403940887 67.1879286694101  L 43.0246305418719 69.355281207133  L 43.0246305418719 69.4636488340192  L 44.1083743842364 71.1975308641975  L 44.9753694581281 72.1728395061728  L 46.1674876847291 72.7146776406035  L 46.2758620689655 72.8230452674897  L 46.384236453202 72.9314128943759  L 47.3596059113301 75.0987654320988  L 47.3596059113301 75.2071330589849  L 47.4679802955665 75.2071330589849  L 47.4679802955665 75.315500685871  L 48.0098522167488 77.6995884773662  L 49.5270935960591 78.241426611797  L 49.6354679802956 78.241426611797  L 49.743842364532 78.241426611797  L 50.935960591133 79  L 52.5615763546798 78.6748971193415  L 52.9950738916256 77.0493827160494  L 52.9950738916256 76.9410150891632  L 53.1034482758621 76.8326474622771  L 54.9458128078818 74.9903978052126  L 57.0049261083744 75.5322359396433  L 57.0049261083744 75.7489711934156  L 57.9802955665025 77.9163237311385  L 60.0394088669951 77.1577503429355  L 60.256157635468 75.0987654320988  L 60.256157635468 74.9903978052126  L 60.256157635468 74.8820301783265  L 60.3645320197044 74.7736625514403  L 61.7733990147783 74.0150891632373  L 61.448275862069 70.9807956104252  L 61.448275862069 70.7640603566529  L 61.448275862069 70.6556927297668  L 63.0738916256158 67.2962962962963  L 64.6995073891626 66.6460905349794  L 64.0492610837438 63.6117969821673  L 65.6748768472906 63.6117969821673  L 65.5665024630542 62.2030178326475  L 64.6995073891626 59.2770919067215  L 64.6995073891626 59.0603566529492  L 64.9162561576355 57.0013717421125  L 64.9162561576355 56.676268861454  L 65.1330049261084 56.5679012345679  L 66.2167487684729 55.159122085048  L 66.4334975369458 54.9423868312757  L 66.7586206896552 54.9423868312757  L 69.6847290640394 55.4842249657064  L 69.7931034482759 55.4842249657064  L 72.1773399014778 56.1344307270233  L 74.2364532019704 55.4842249657064  L 75.4285714285714 57.8683127572016  L 75.5369458128079 57.9766803840878  L 75.5369458128079 59.7105624142661  C 75.5369458128079 59.7105624142661  75.8620689655173 61.3360768175583  75.8620689655173 61.3360768175583  C 76.0788177339901 61.9862825788751  76.512315270936 62.4197530864197  76.9458128078818 62.5281207133059  C 76.9458128078818 62.5281207133059  77.1625615763547 62.5281207133059  77.1625615763547 62.5281207133059  C 78.1379310344828 62.7448559670782  78.679802955665 63.1783264746228  78.7881773399015 63.8285322359396  C 78.896551724138 64.3703703703704  79.3300492610837 65.1289437585734  80.0886699507389 65.9958847736625  C 80.0886699507389 65.9958847736625  81.064039408867 67.4046639231824  81.064039408867 67.4046639231824  L 81.064039408867 67.5130315500686  L 81.7142857142857 68.7050754458162  L 82.6896551724138 68.59670781893  L 84.5320197044335 66.9711934156379  L 85.7241379310345 69.4636488340192  L 88.1083743842365 70.2222222222222  L 88.2167487684729 70.2222222222222  L 88.3251231527094 70.3305898491084  L 89.5172413793104 72.4979423868313  L 90.0591133004926 72.8230452674897  L 90.1674876847291 70.7640603566529  L 90.1674876847291 70.6556927297668  L 90.1674876847291 70.3305898491084  L 94.935960591133 70.2222222222222  C 94.935960591133 70.2222222222222  95.0443349753695 69.7887517146776  95.0443349753695 69.7887517146776  C 95.152709359606 69.5720164609053  95.152709359606 69.1385459533608  94.935960591133 68.8134430727023  C 94.6108374384237 68.1632373113854  94.5024630541872 67.6213991769547  94.3940886699507 66.8628257887517  C 94.2857142857143 65.9958847736625  94.3940886699507 65.3456790123457  94.6108374384237 65.1289437585734  C 94.935960591133 64.6954732510288  95.152709359606 64.6954732510288  95.6945812807882 64.803840877915  C 95.6945812807882 64.803840877915  97.6453201970444 65.4540466392318  97.6453201970444 65.4540466392318  L 97.8620689655173 64.0452674897119  L 94.2857142857143 62.4197530864197  L 94.0689655172414 62.4197530864197  L 93.9605911330049 62.2030178326475  L 93.9605911330049 62.0946502057613  L 93.9605911330049 61.9862825788751  L 93.4187192118227 57.6515775034293  L 93.5270935960592 54.9423868312757  L 93.5270935960592 54.6172839506173  L 93.5270935960592 54.400548696845  L 99.4876847290641 55.159122085048  C 99.4876847290641 55.159122085048  101.004926108374 53.7503429355281  101.004926108374 53.7503429355281  C 101.330049261084 53.2085048010974  101.221674876847 52.7750342935528  101.004926108374 52.6666666666666  C 99.4876847290641 52.1248285322359  98.7290640394089 51.4746227709191  98.7290640394089 50.8244170096022  C 98.7290640394089 50.4993141289437  98.8374384236453 50.0658436213992  99.3793103448276 49.8491083676269  C 99.3793103448276 49.8491083676269  101.871921182266 47.3566529492455  101.871921182266 47.3566529492455  L 104.581280788177 47.2482853223594  L 105.990147783251 44.8641975308642  L 105.990147783251 42.5884773662551  C 105.990147783251 42.5884773662551  108.049261083744 42.1550068587106  108.049261083744 42.1550068587106  C 108.591133004926 40.5294924554184  108.916256157635 39.6625514403292  109.133004926108 39.3374485596708  C 109.133004926108 39.3374485596708  110 37.4951989026063  110 37.4951989026063  L 108.48275862069 34.7860082304527  L 108.48275862069 34.6776406035665  L 108.48275862069 34.5692729766804  L 107.507389162562 30.8847736625514  L 107.507389162562 30.7764060356653  L 106.857142857143 26.9835390946502  L 105.556650246305 24.8161865569273  L 103.605911330049 22.8655692729767  L 103.605911330049 22.7572016460905  L 103.605911330049 22.6488340192044  L 103.497536945813 22.5404663923182  L 103.389162561576 20.4814814814815  L 99.8128078817734 21.5651577503429  L 99.704433497537 21.4567901234568  L 98.0788177339902 19.6145404663923  L 93.2019704433498 15.9300411522634  L 93.0935960591133 15.9300411522634  L 91.2512315270936 13.5459533607682  L 90.0591133004926 12.7873799725652  L 89.3004926108375 13.9794238683128  L 89.3004926108375 14.196159122085  L 89.192118226601 14.3045267489712  L 89.0837438423645 14.3045267489712  L 88.8669950738917 14.3045267489712  L 87.3497536945813 14.4128943758573  L 87.1330049261084 14.5212620027435  L 87.024630541872 14.5212620027435  C 87.024630541872 14.5212620027435  83.448275862069 10.6200274348423  83.448275862069 10.6200274348423  C 82.6896551724138 10.2949245541838  81.9310344827586 9.53635116598081  80.8472906403941 8.45267489711935  C 80.8472906403941 8.45267489711935  79.2216748768473 7.26063100137173  79.2216748768473 7.26063100137173  L 79.1133004926108 7.15226337448559  L 77.2709359605912 6.06858710562413  L 76.1871921182266 6.93552812071331  L 76.0788177339901 7.15226337448559  L 75.9704433497537 7.04389574759945  L 75.8620689655173 7.04389574759945  L 74.8866995073892 6.82716049382717  L 73.8029556650246 7.3689986282579  L 73.6945812807882 7.47736625514404  L 73.5862068965517 7.58573388203018  L 73.4778325123153 7.58573388203018  C 73.4778325123153 7.58573388203018  71.9605911330049 7.80246913580246  71.9605911330049 7.80246913580246  C 69.9014778325123 6.61042524005486  67.8423645320197 5.41838134430727  65.6748768472906 4.11796982167354  Z " fill-rule="nonzero" fill="#0079fe" stroke="none" transform="matrix(1 0 0 1 114 148 )" />
  </g>
</svg>