<?xml version="1.0" encoding="utf-8"?>
<svg version="1.1" xmlns:xlink="http://www.w3.org/1999/xlink" width="38px" height="47px" xmlns="http://www.w3.org/2000/svg">
  <g transform="matrix(1 0 0 1 -340 -257 )">
    <path d="M 19.9715909090909 1.89157702053535  L 19.8636363636363 2.00053456396404  L 19.6477272727273 2.10949210739269  L 17.8125 3.41698262853658  L 16.1931818181818 5.26926086682379  L 16.0852272727273 5.26926086682379  L 16.0852272727273 5.4871759536811  L 13.7102272727273 5.4871759536811  C 13.7102272727273 5.4871759536811  12.4147727272727 4.7244731496805  12.4147727272727 4.7244731496805  C 10.7954545454546 5.16030332339511  9.93181818181817 6.24987875768169  9.60795454545453 8.32007208282621  C 9.60795454545453 8.32007208282621  9.49999999999995 10.1723503211134  9.49999999999995 10.1723503211134  L 10.7954545454546 8.97381734339816  L 9.93181818181817 12.5694162765439  L 9.93181818181817 12.6783738199726  L 9.93181818181817 12.7873313634012  C 9.93181818181817 12.7873313634012  6.36931818181816 15.9471001228323  6.36931818181816 15.9471001228323  C 5.82954545454543 16.6008453834043  5.61363636363636 17.1456331005475  5.82954545454543 17.4725057308335  C 5.82954545454543 17.4725057308335  6.47727272727273 18.2352085348341  6.47727272727273 18.2352085348341  C 7.23295454545454 18.8889537954061  7.6647727272727 19.4337415125494  7.55681818181819 19.869571686264  C 7.55681818181819 20.19644431655  7.44886363636362 20.523316946836  7.23295454545454 20.7412320336933  C 7.23295454545454 20.7412320336933  4.96590909090906 22.7024678154091  4.96590909090906 22.7024678154091  C 5.07386363636363 23.2472555325524  5.07386363636363 24.1189158799817  4.96590909090906 25.0995337708397  C 4.96590909090906 25.0995337708397  4.96590909090906 25.4264064011256  4.96590909090906 25.4264064011256  L 4.85795454545455 25.5353639445543  C 4.85795454545455 25.5353639445543  3.99431818181817 25.8622365748403  3.99431818181817 25.8622365748403  C 3.99431818181817 26.4070242919836  3.77840909090909 26.7338969222695  3.23863636363637 27.2786846394128  C 3.23863636363637 27.2786846394128  2.05113636363634 28.477217617128  2.05113636363634 28.477217617128  C 2.05113636363634 28.477217617128  2.05113636363634 28.5861751605567  2.05113636363634 28.5861751605567  C 2.26704545454542 29.1309628777  2.26704545454542 29.7847081382719  1.83522727272726 30.7653260291299  C 2.37499999999999 31.8549014634165  2.37499999999999 32.6176042674171  1.83522727272726 32.9444768977031  C 1.83522727272726 32.9444768977031  0.755681818181806 34.0340523319897  0.755681818181806 34.0340523319897  L 0.539772727272727 34.1430098754183  L 0 34.3609249622756  L 0 34.5788400491329  L 0.755681818181806 37.1938210914207  C 0.755681818181806 37.1938210914207  0.971590909090885 37.1938210914207  0.971590909090885 37.1938210914207  C 2.80681818181815 36.9759060045634  4.74999999999998 36.9759060045634  6.90909090909089 37.1938210914207  C 6.90909090909089 37.1938210914207  7.12499999999997 37.1938210914207  7.12499999999997 37.1938210914207  L 7.12499999999997 37.3027786348494  L 9.49999999999995 39.6998445902799  L 9.49999999999995 39.8088021337086  L 9.60795454545453 39.8088021337086  L 11.0113636363636 43.8402312405689  L 13.9261363636363 46.5641698262854  L 15.1136363636364 47  L 15.2215909090909 43.6223161537116  L 17.9204545454545 46.3462547394281  L 18.3522727272727 45.9104245657134  L 20.2954545454545 41.8789954588531  L 20.6193181818182 39.5908870468512  L 20.9431818181818 39.6998445902799  L 21.1590909090909 39.6998445902799  L 23.2102272727273 39.8088021337086  L 23.1022727272727 38.1744389822787  L 23.1022727272727 37.8475663519927  L 23.1022727272727 37.6296512651354  L 23.4261363636364 37.6296512651354  C 23.4261363636364 37.6296512651354  26.125 37.738608808564  26.125 37.738608808564  C 27.5284090909091 36.3221607439914  28.1761363636363 35.1236277662762  28.1761363636363 34.1430098754183  C 28.1761363636363 34.1430098754183  27.7443181818182 30.2205383119866  27.7443181818182 30.2205383119866  L 30.1193181818182 30.9832411159872  L 30.7670454545455 29.8936656817006  L 29.6875 28.804090247414  L 29.3636363636364 28.3682600736994  L 31.5227272727273 26.1891092051263  L 31.6306818181818 26.4070242919836  L 31.8465909090909 26.4070242919836  L 33.1420454545455 27.1697270959842  L 33.1420454545455 26.8428544656982  L 32.2784090909091 24.8816186839823  L 32.6022727272727 24.5547460536964  L 33.1420454545455 24.2278734234104  L 32.9261363636364 23.4651706194098  L 31.8465909090909 21.3949772942652  L 32.0625 21.2860197508366  L 32.2784090909091 21.0681046639793  L 35.1931818181818 19.4337415125494  C 35.1931818181818 19.4337415125494  35.3011363636364 18.2352085348341  35.3011363636364 18.2352085348341  C 32.8181818181818 16.9277180136902  31.5227272727273 15.8381425794037  31.7386363636364 15.2933548622604  C 31.8465909090909 14.8575246885457  32.0625 14.7485671451171  32.6022727272727 14.7485671451171  C 32.6022727272727 14.7485671451171  35.8409090909091 15.2933548622604  35.8409090909091 15.2933548622604  L 35.9488636363636 13.3321190805445  L 35.9488636363636 13.1142039936872  L 37.5681818181818 11.4798408422573  C 37.5681818181818 11.4798408422573  38 10.2813078645421  38 10.2813078645421  C 37.3522727272727 10.0633927776847  36.9204545454546 9.62756260397014  36.4886363636363 9.19173243025549  C 36.4886363636363 9.19173243025549  36.3806818181818 8.97381734339816  36.3806818181818 8.97381734339816  L 36.3806818181818 8.75590225654086  L 36.4886363636363 8.21111453939756  L 36.3806818181818 7.99319945254025  L 36.1647727272727 7.88424190911157  C 36.1647727272727 7.88424190911157  36.0568181818182 7.99319945254025  36.0568181818182 7.99319945254025  C 35.8409090909091 8.42902962625487  35.3011363636364 8.75590225654086  34.5454545454546 8.75590225654086  C 33.3579545454545 8.75590225654086  32.3863636363637 8.21111453939756  31.6306818181818 7.44841173539696  C 31.6306818181818 7.44841173539696  31.6306818181818 7.33945419196828  31.6306818181818 7.33945419196828  L 31.5227272727273 7.33945419196828  L 30.6590909090909 5.81404858396709  C 30.6590909090909 5.81404858396709  30.4431818181818 6.03196367082439  30.4431818181818 6.03196367082439  C 30.3352272727273 6.68570893139633  29.9034090909091 7.33945419196828  29.1477272727273 7.88424190911157  C 27.7443181818182 8.53798716968355  26.4488636363637 8.75590225654086  25.1534090909091 8.21111453939756  C 24.2897727272727 7.88424190911157  23.75 7.23049664853963  23.4261363636364 6.24987875768169  C 23.4261363636364 6.24987875768169  23.1022727272727 4.07072788910852  23.1022727272727 4.07072788910852  C 22.7784090909091 2.00053456396404  22.3465909090909 0.802001586248767  21.6988636363636 0.47512895596281  C 21.0511363636364 0.0392987822481695  20.4034090909091 -0.0696587611804828  19.8636363636363 0.0392987822481695  C 19.8636363636363 0.0392987822481695  19.9715909090909 1.89157702053535  19.9715909090909 1.89157702053535  Z " fill-rule="nonzero" fill="#0079fe" stroke="none" transform="matrix(1 0 0 1 340 257 )" />
  </g>
</svg>