<?xml version="1.0" encoding="utf-8"?>
<svg version="1.1" xmlns:xlink="http://www.w3.org/1999/xlink" width="29px" height="64px" xmlns="http://www.w3.org/2000/svg">
  <g transform="matrix(1 0 0 1 -285 -135 )">
    <path d="M 24.1845018450184 3.78378378378379  L 26.9667896678967 3.13513513513513  L 27.3948339483395 2.59459459459459  L 26.6457564575646 0.864864864864862  L 25.8966789667897 0  L 25.0405904059041 1.4054054054054  L 25.0405904059041 1.5135135135135  L 23.6494464944649 3.13513513513513  L 23.5424354243543 3.24324324324324  L 23.3284132841329 3.24324324324324  L 20.760147601476 3.99999999999999  L 20.5461254612546 3.99999999999999  L 18.0848708487085 3.56756756756755  L 16.6937269372694 3.99999999999999  L 16.3726937269373 5.18918918918917  L 16.2656826568266 5.40540540540541  L 15.0885608856088 6.16216216216215  L 14.8745387453874 6.27027027027025  L 14.6605166051661 6.27027027027025  L 12.520295202952 6.05405405405405  L 12.4132841328413 6.27027027027025  L 12.4132841328413 8.43243243243242  L 12.3062730627306 8.54054054054055  L 11.1291512915129 10.054054054054  L 11.1291512915129 10.1621621621622  L 11.0221402214022 10.1621621621622  L 8.98892988929888 12.2162162162162  L 8.88191881918821 12.2162162162162  L 8.77490774907749 12.3243243243243  L 6.63468634686346 12.7567567567567  L 5.24354243542434 14.2702702702703  L 5.56457564575645 16.1081081081081  L 5.56457564575645 16.5405405405405  L 5.24354243542434 16.6486486486487  L 3.63837638376382 18.1621621621621  L 2.7822878228782 19.2432432432432  L 3.42435424354243 20.6486486486486  L 3.42435424354243 20.7567567567567  L 3.42435424354243 20.8648648648649  L 3.42435424354243 22.9189189189189  L 3.42435424354243 23.027027027027  L 2.24723247232469 24.7567567567568  L 2.24723247232469 24.8648648648649  L 0.642066420664171 26.7027027027027  L 0.856088560885622 28.8648648648649  L 2.24723247232469 30.1621621621622  C 2.24723247232469 30.1621621621622  2.24723247232469 30.2702702702703  2.24723247232469 30.2702702702703  C 2.88929889298892 31.3513513513514  3.21033210332104 32.2162162162162  3.21033210332104 32.972972972973  C 3.21033210332104 32.972972972973  3.21033210332104 35.3513513513513  3.21033210332104 35.3513513513513  L 3.10332103321031 35.3513513513513  L 2.99630996309965 35.4594594594594  L 0.856088560885622 37.0810810810811  L 0.642066420664171 40.3243243243243  C 0.642066420664171 40.3243243243243  0.856088560885622 43.5675675675676  0.856088560885622 43.5675675675676  C 0.856088560885622 44.6486486486486  1.2841328413284 46.7027027027027  2.35424354243542 49.7297297297297  C 2.35424354243542 49.7297297297297  2.35424354243542 49.8378378378378  2.35424354243542 49.8378378378378  L 2.35424354243542 50.054054054054  L 0 61.0810810810811  L 0.21402214022139 63.2432432432433  L 1.81918819188191 64  L 4.38745387453872 61.4054054054054  L 4.49446494464944 61.4054054054054  L 12.7343173431734 58.1621621621622  L 14.8745387453874 56.2162162162162  L 15.0885608856088 56  L 15.1955719557196 56.1081081081081  L 15.409594095941 56.1081081081081  C 15.409594095941 56.1081081081081  20.1180811808118 56.5405405405405  20.1180811808118 56.5405405405405  C 20.760147601476 56.5405405405405  22.1512915129151 56  24.1845018450184 55.1351351351351  C 24.1845018450184 55.1351351351351  24.1845018450184 52.8648648648649  24.1845018450184 52.8648648648649  L 24.2915129151292 52.7567567567568  L 24.3985239852399 52.7567567567568  L 25.6826568265683 51.5675675675676  L 25.3616236162362 50.1621621621622  L 25.3616236162362 50.054054054054  L 25.3616236162362 49.9459459459459  L 25.3616236162362 49.7297297297297  C 25.3616236162362 49.7297297297297  25.4686346863469 49.6216216216216  25.4686346863469 49.6216216216216  C 25.8966789667897 49.1891891891892  25.8966789667897 48.7567567567568  25.5756457564576 48.4324324324324  C 25.2546125461255 47.7837837837838  25.3616236162362 46.9189189189189  25.8966789667897 45.945945945946  C 25.8966789667897 45.945945945946  26.4317343173432 45.1891891891892  26.4317343173432 45.1891891891892  L 26.3247232472325 43.6756756756757  C 26.3247232472325 43.6756756756757  24.7195571955719 41.7297297297297  24.7195571955719 41.7297297297297  C 23.9704797047971 41.1891891891892  23.8634686346864 40.4324324324324  24.2915129151292 39.6756756756757  C 24.5055350553506 39.027027027027  24.8265682656827 38.3783783783784  25.3616236162362 37.8378378378378  C 25.3616236162362 37.8378378378378  25.789667896679 36  25.789667896679 36  L 26.9667896678967 33.4054054054054  L 27.2878228782288 32.2162162162162  L 29 28.972972972973  L 27.8228782287823 26.9189189189189  L 24.5055350553506 24.8648648648649  L 24.2915129151292 24.8648648648649  L 24.2915129151292 24.6486486486486  L 23.6494464944649 22.9189189189189  L 23.6494464944649 22.8108108108108  L 23.6494464944649 22.5945945945946  L 23.9704797047971 19.6756756756757  L 23.9704797047971 19.5675675675676  C 23.9704797047971 19.5675675675676  24.7195571955719 17.4054054054054  24.7195571955719 17.4054054054054  C 24.6125461254613 16.6486486486487  24.7195571955719 16.1081081081081  25.0405904059041 15.6756756756757  C 25.2546125461255 15.4594594594594  25.5756457564576 15.2432432432432  25.8966789667897 15.2432432432432  C 25.8966789667897 15.2432432432432  27.929889298893 14.9189189189189  27.929889298893 14.9189189189189  L 28.4649446494465 13.7297297297297  L 29 10.1621621621622  L 28.5719557195572 8.86486486486485  L 26.7527675276753 8.43243243243242  L 26.6457564575646 8.43243243243242  L 24.5055350553506 7.35135135135133  L 24.3985239852399 7.24324324324323  L 24.3985239852399 7.02702702702703  L 24.2915129151292 6.91891891891892  L 24.1845018450184 4.32432432432433  L 24.1845018450184 4.10810810810809  L 24.1845018450184 3.78378378378379  Z " fill-rule="nonzero" fill="#0079fe" stroke="none" transform="matrix(1 0 0 1 285 135 )" />
  </g>
</svg>