<?xml version="1.0" encoding="utf-8"?>
<svg version="1.1" xmlns:xlink="http://www.w3.org/1999/xlink" width="77px" height="80px" xmlns="http://www.w3.org/2000/svg">
  <g transform="matrix(1 0 0 1 -174 -256 )">
    <path d="M 1.40985915492959 47.8272604588394  L 0.433802816901415 49.0148448043185  C 0.433802816901415 49.0148448043185  0 50.4183535762483  0 50.4183535762483  C 0.650704225352137 50.4183535762483  1.51830985915494 49.9865047233468  2.38591549295777 49.3387314439946  C 2.38591549295777 49.3387314439946  2.49436619718311 49.2307692307693  2.49436619718311 49.2307692307693  L 2.7112676056338 49.2307692307693  L 7.04929577464789 48.6909581646424  L 9.86901408450707 47.2874493927126  L 10.9535211267606 48.7989203778677  L 11.1704225352113 48.9068825910931  L 9.86901408450707 50.9581646423752  L 11.387323943662 52.4696356275304  L 11.387323943662 52.5775978407557  L 11.387323943662 52.9014844804318  L 10.3028169014084 57.4358974358974  L 13.1225352112676 59.4871794871795  L 18.2197183098592 59.7031039136302  C 18.2197183098592 59.7031039136302  17.4605633802817 60.6747638326586  17.4605633802817 60.6747638326586  C 14.2070422535211 64.6693657219973  12.6887323943662 67.0445344129555  12.7971830985916 67.8002699055331  C 12.7971830985916 67.8002699055331  14.7492957746479 68.2321187584345  14.7492957746479 68.2321187584345  C 17.3521126760563 68.4480431848853  18.8704225352113 69.2037786774629  19.412676056338 70.1754385964912  C 20.0633802816901 71.4709851551957  20.7140845070423 72.7665317139001  21.256338028169 74.2780026990553  C 21.256338028169 74.2780026990553  24.1845070422535 75.8974358974359  24.1845070422535 75.8974358974359  L 26.0281690140845 76.221322537112  L 29.8239436619718 72.9824561403509  L 31.7760563380282 75.8974358974359  L 31.7760563380282 76.0053981106612  L 31.8845070422535 76.1133603238866  L 32.5352112676056 78.8124156545209  L 34.1619718309859 79.136302294197  L 36.656338028169 80  L 37.3070422535211 79.7840755735492  L 37.3070422535211 79.6761133603239  L 36.8732394366197 76.8690958164642  L 36.7647887323944 76.7611336032389  L 35.3549295774648 70.3913630229419  L 35.3549295774648 70.1754385964912  L 36.2225352112676 65.748987854251  L 36.4394366197183 65.8569500674764  L 36.7647887323944 65.8569500674764  L 39.6929577464789 66.0728744939271  L 43.3802816901408 63.3738191632928  C 43.3802816901408 63.3738191632928  43.7056338028169 63.5897435897436  43.7056338028169 63.5897435897436  C 45.6577464788733 65.1012145748988  46.9591549295775 66.2887989203778  47.6098591549296 67.1524966261808  C 48.2605633802817 66.9365721997301  49.4535211267606 65.748987854251  51.0802816901409 63.9136302294197  C 51.0802816901409 63.9136302294197  51.1887323943662 63.8056680161944  51.1887323943662 63.8056680161944  L 51.4056338028169 63.5897435897436  L 56.8281690140845 64.9932523616734  L 59.2140845070423 63.0499325236167  L 59.3225352112676 62.9419703103914  L 59.430985915493 62.834008097166  L 59.5394366197183 62.834008097166  L 59.6478873239437 62.9419703103914  L 61.9253521126761 63.3738191632928  L 69.3 56.8960863697706  L 71.5774647887324 57.5438596491228  L 71.6859154929578 57.6518218623481  L 71.7943661971831 57.7597840755735  L 71.9028169014085 57.8677462887989  L 72.4450704225352 58.8394062078272  L 72.987323943662 58.191632928475  L 73.0957746478873 58.191632928475  L 73.0957746478873 58.0836707152497  L 73.2042253521127 58.0836707152497  L 75.3732394366197 56.8960863697706  L 77 55.3846153846154  L 76.5661971830986 52.0377867746289  L 76.2408450704226 51.6059379217274  C 76.2408450704226 51.6059379217274  74.1802816901408 52.4696356275304  74.1802816901408 52.4696356275304  C 73.5295774647887 52.6855600539811  72.987323943662 52.9014844804318  72.2281690140845 52.9014844804318  C 72.2281690140845 52.9014844804318  69.8422535211268 52.9014844804318  69.8422535211268 52.9014844804318  C 69.0830985915493 52.7935222672064  68.6492957746479 52.5775978407557  68.3239436619718 52.1457489878543  C 68.3239436619718 52.1457489878543  68.1070422535211 48.6909581646424  68.1070422535211 48.6909581646424  C 67.3478873239437 48.2591093117409  67.0225352112676 48.0431848852901  66.6971830985916 48.0431848852901  C 66.6971830985916 48.0431848852901  66.1549295774648 48.2591093117409  66.1549295774648 48.2591093117409  L 65.3957746478873 48.6909581646424  L 63.8774647887324 49.0148448043185  L 63.443661971831 49.0148448043185  L 63.3352112676056 48.7989203778677  L 62.4676056338028 47.2874493927126  L 62.3591549295775 45.8839406207827  L 63.2267605633803 41.7813765182186  L 63.3352112676056 41.7813765182186  L 63.3352112676056 41.6734143049933  L 64.3112676056338 39.6221322537112  L 61.274647887324 36.9230769230769  L 61.1661971830986 36.8151147098516  L 61.0577464788733 36.7071524966262  L 61.0577464788733 33.5762483130904  L 61.1661971830986 33.468286099865  L 62.9014084507042 28.5020242914979  L 61.8169014084507 25.8029689608637  L 60.8408450704226 25.5870445344129  L 59.6478873239437 25.6950067476383  L 58.4549295774648 27.5303643724696  L 56.9366197183099 26.4507422402159  L 55.418309859155 25.5870445344129  L 54.225352112676 22.5641025641025  L 53.7915492957747 20.4048582995951  L 53.7915492957747 20.1889338731444  L 53.6830985915493 20.080971659919  L 54.0084507042254 19.8650472334683  L 55.418309859155 17.9217273954116  L 55.743661971831 17.7058029689609  L 55.8521126760563 17.7058029689609  L 56.9366197183099 17.4898785425101  L 58.1295774647888 17.165991902834  L 63.769014084507 16.9500674763833  L 63.8774647887324 16.9500674763833  L 64.6366197183099 17.2739541160594  L 64.8535211267606 17.3819163292847  L 65.7211267605634 17.7058029689609  L 67.2394366197183 17.0580296896086  L 68.5408450704225 16.0863697705803  L 69.1915492957747 15.0067476383266  L 69.3 14.4669365721997  L 69.1915492957747 12.0917678812416  L 67.9985915492958 11.8758434547908  C 67.9985915492958 11.8758434547908  65.7211267605634 12.6315789473684  65.7211267605634 12.6315789473684  C 65.0704225352113 13.387314439946  64.3112676056338 13.9271255060729  63.5521126760564 13.9271255060729  C 62.7929577464789 13.9271255060729  62.1422535211268 13.2793522267207  61.4915492957747 12.0917678812416  C 61.4915492957747 12.0917678812416  61.3830985915493 12.0917678812416  61.3830985915493 12.0917678812416  L 61.3830985915493 11.9838056680162  L 61.274647887324 10.472334682861  L 61.274647887324 10.2564102564103  L 61.3830985915493 8.85290148448045  L 60.1901408450704 5.93792172739541  L 57.912676056338 6.58569500674763  L 56.9366197183099 7.44939271255061  L 57.2619718309859 10.6882591093117  L 53.6830985915493 9.06882591093118  L 54.5507042253521 11.0121457489879  L 54.6591549295775 11.1201079622132  L 54.6591549295775 11.336032388664  L 54.3338028169014 13.4952766531714  L 54.3338028169014 13.7112010796222  L 54.225352112676 13.7112010796222  L 52.1647887323944 16.6261808367072  L 48.8028169014085 18.6774628879892  C 48.8028169014085 18.6774628879892  48.4774647887324 20.6207827260459  48.4774647887324 20.6207827260459  C 48.3690140845071 20.944669365722  48.8028169014085 21.8083670715249  49.3450704225352 22.8879892037787  C 49.3450704225352 22.8879892037787  49.4535211267606 22.9959514170041  49.4535211267606 22.9959514170041  L 49.4535211267606 23.1039136302294  L 49.6704225352113 25.9109311740891  L 49.6704225352113 26.2348178137652  L 49.5619718309859 26.3427800269905  L 48.2605633802817 28.0701754385965  L 48.1521126760563 28.1781376518219  L 48.043661971831 28.1781376518219  L 47.0676056338028 28.8259109311741  L 46.9591549295775 28.8259109311741  L 46.8507042253521 28.8259109311741  L 46.7422535211268 28.8259109311741  L 46.6338028169014 28.8259109311741  C 46.6338028169014 28.8259109311741  44.1394366197183 28.2860998650472  44.1394366197183 28.2860998650472  C 43.7056338028169 28.2860998650472  43.1633802816902 28.5020242914979  42.6211267605634 28.9338731443995  C 42.6211267605634 28.9338731443995  41.5366197183099 30.1214574898785  41.5366197183099 30.1214574898785  C 41.5366197183099 30.1214574898785  40.669014084507 31.2010796221322  40.669014084507 31.2010796221322  C 40.1267605633803 32.1727395411606  39.3676056338028 32.3886639676113  38.174647887324 32.1727395411606  C 37.4154929577465 32.0647773279352  37.1985915492958 31.3090418353576  37.4154929577465 30.3373819163293  C 37.4154929577465 30.3373819163293  37.4154929577465 29.5816464237517  37.4154929577465 29.5816464237517  L 37.3070422535211 28.8259109311741  C 37.3070422535211 28.8259109311741  36.8732394366197 29.3657219973009  36.8732394366197 29.3657219973009  C 36.5478873239437 29.7975708502024  36.2225352112676 29.9055330634278  35.7887323943662 29.9055330634278  C 35.3549295774648 29.7975708502024  35.0295774647887 29.3657219973009  34.8126760563381 28.6099865047233  C 34.8126760563381 28.6099865047233  34.8126760563381 28.5020242914979  34.8126760563381 28.5020242914979  L 34.5957746478873 26.0188933873145  L 34.0535211267606 23.6437246963563  L 32.969014084507 22.5641025641025  L 32.8605633802817 22.4561403508772  L 30.5830985915493 17.2739541160594  L 30.474647887324 17.165991902834  L 29.8239436619718 15.6545209176788  L 29.8239436619718 15.5465587044534  L 29.7154929577465 15.5465587044534  L 29.7154929577465 15.4385964912281  L 29.2816901408451 12.6315789473684  L 28.956338028169 12.1997300944669  C 28.956338028169 12.1997300944669  28.5225352112676 12.523616734143  28.5225352112676 12.523616734143  C 27.7633802816902 13.387314439946  27.2211267605634 13.9271255060729  27.0042253521127 13.9271255060729  C 26.6788732394366 13.9271255060729  26.1366197183099 13.4952766531714  25.2690140845071 12.8475033738192  C 25.2690140845071 12.8475033738192  23.6422535211268 12.0917678812416  23.6422535211268 12.0917678812416  L 23.4253521126761 11.9838056680162  L 23.3169014084507 11.8758434547908  L 23.3169014084507 11.7678812415655  L 23.2084507042254 11.5519568151147  L 23.1 9.3927125506073  L 22.7746478873239 7.77327935222674  L 21.9070422535211 5.61403508771932  C 21.9070422535211 5.61403508771932  21.0394366197183 5.61403508771932  21.0394366197183 5.61403508771932  C 21.1478873239437 6.47773279352227  21.0394366197183 7.23346828609988  20.8225352112676 7.77327935222674  C 20.6056338028169 8.42105263157896  20.1718309859155 8.85290148448045  19.5211267605634 9.3927125506073  C 19.3042253521127 10.1484480431849  18.9788732394366 10.6882591093117  18.5450704225352 11.1201079622132  C 17.8943661971831 11.7678812415655  17.3521126760563 11.7678812415655  16.7014084507042 11.336032388664  C 16.7014084507042 11.336032388664  16.3760563380282 11.2280701754386  16.3760563380282 11.2280701754386  C 15.7253521126761 11.0121457489879  15.6169014084507 10.2564102564103  15.7253521126761 8.85290148448045  C 15.7253521126761 8.85290148448045  15.7253521126761 8.31309041835359  15.7253521126761 8.31309041835359  C 15.7253521126761 8.31309041835359  14.3154929577465 7.44939271255061  14.3154929577465 7.44939271255061  C 13.7732394366197 7.23346828609988  13.4478873239437 6.58569500674763  13.3394366197183 5.61403508771932  C 13.3394366197183 5.61403508771932  13.8816901408451 0.755735492577616  13.8816901408451 0.755735492577616  L 13.6647887323944 0  L 11.9295774647887 1.94331983805669  L 10.7366197183099 2.80701754385964  C 10.7366197183099 2.80701754385964  10.4112676056338 3.56275303643726  10.4112676056338 3.56275303643726  C 10.8450704225352 4.5344129554656  11.0619718309859 5.29014844804319  11.0619718309859 5.82995951417005  C 11.0619718309859 6.90958164642376  10.5197183098592 7.77327935222674  9.54366197183099 8.09716599190283  C 9.54366197183099 8.09716599190283  7.59154929577465 8.85290148448045  7.59154929577465 8.85290148448045  L 7.04929577464789 9.17678812415654  L 6.94084507042254 9.93252361673416  C 6.94084507042254 9.93252361673416  6.94084507042254 12.9554655870445  6.94084507042254 12.9554655870445  C 7.04929577464789 13.9271255060729  7.15774647887326 14.4669365721997  7.4830985915493 14.4669365721997  C 8.13380281690141 14.7908232118759  8.89295774647889 14.7908232118759  9.54366197183099 14.251012145749  C 9.54366197183099 14.251012145749  10.1943661971831 13.9271255060729  10.1943661971831 13.9271255060729  L 12.2549295774648 18.6774628879892  L 12.2549295774648 18.7854251012146  C 12.2549295774648 18.7854251012146  12.2549295774648 19.0013495276653  12.2549295774648 19.0013495276653  C 11.4957746478874 27.5303643724696  10.7366197183099 32.3886639676113  9.76056338028169 33.6842105263158  C 9.32676056338031 34.1160593792173  9.00140845070424 34.331983805668  8.35070422535214 34.4399460188934  C 7.59154929577465 34.4399460188934  7.04929577464789 34.331983805668  6.29014084507043 33.9001349527665  C 3.47042253521129 39.5141700404859  1.62676056338028 42.4291497975709  0.759154929577483 42.8609986504723  C 0.759154929577483 42.8609986504723  0.86760563380283 42.8609986504723  0.86760563380283 42.8609986504723  C 0.433802816901415 42.9689608636977  0.216901408450723 44.3724696356276  0.325352112676069 46.855600539811  C 0.325352112676069 46.855600539811  0.976056338028175 47.3954116059379  0.976056338028175 47.3954116059379  L 1.1929577464789 47.6113360323887  L 1.40985915492959 47.8272604588394  Z " fill-rule="nonzero" fill="#0079fe" stroke="none" fill-opacity="0.658823529411765" transform="matrix(1 0 0 1 174 256 )" />
  </g>
</svg>