<?xml version="1.0" encoding="utf-8"?>
<svg version="1.1" xmlns:xlink="http://www.w3.org/1999/xlink" width="41px" height="56px" xmlns="http://www.w3.org/2000/svg">
  <g transform="matrix(1 0 0 1 -319 -242 )">
    <path d="M 35.6335078534031 2.49129593810443  L 32.1989528795812 2.16634429400387  L 32.0916230366492 2.05802707930368  L 29.7303664921466 0  C 29.7303664921466 0  28.4424083769634 0.649903288201154  28.4424083769634 0.649903288201154  C 27.5837696335078 2.59961315280465  26.4031413612566 3.79110251450677  24.9005235602094 4.33268858800774  C 24.4712041884817 4.54932301740811  23.934554973822 4.44100580270792  23.6125654450262 4.11605415860733  C 23.1832460732985 3.57446808510636  23.3979057591623 2.38297872340424  24.1492146596859 0.541586073500967  C 24.1492146596859 0.541586073500967  20.6073298429319 2.81624758220502  20.6073298429319 2.81624758220502  L 20.5 3.0328820116054  L 20.3926701570681 3.0328820116054  L 17.2801047120419 3.0328820116054  L 14.4895287958115 4.44100580270792  L 14.4895287958115 4.6576402321083  L 11.4842931937173 4.76595744680851  L 9.87434554973821 5.63249516441004  L 9.12303664921466 7.14893617021275  L 8.9083769633508 7.36557059961313  C 8.9083769633508 7.36557059961313  5.36649214659686 7.36557059961313  5.36649214659686 7.36557059961313  C 4.72251308900521 7.36557059961313  3.32722513089008 8.44874274661506  1.07329842931937 10.7234042553192  C 2.14659685863874 11.1566731141199  2.68324607329843 11.5899419729207  2.89790575916229 11.9148936170213  C 2.89790575916229 11.9148936170213  3.00523560209425 12.5647969052224  3.00523560209425 12.5647969052224  L 3.00523560209425 12.4564796905222  L 4.61518324607331 18.5222437137331  L 4.72251308900521 18.8471953578337  L 4.72251308900521 19.2804642166344  L 4.61518324607331 19.2804642166344  L 4.40052356020945 19.3887814313346  L 4.29319371727749 19.3887814313346  L 0 25.3462282398453  C 0 25.3462282398453  0.214659685863862 26.8626692456479  0.214659685863862 26.8626692456479  C 0.85863874345551 26.321083172147  1.3952879581152 26.2127659574468  1.82460732984292 26.4294003868472  C 2.36125654450261 26.6460348162476  2.57591623036647 27.5125725338491  2.36125654450261 28.8123791102514  C 2.14659685863874 30.8704061895551  2.46858638743457 33.1450676982592  3.43455497382198 35.311411992263  C 3.43455497382198 35.311411992263  4.93717277486914 36.9361702127659  4.93717277486914 36.9361702127659  C 5.47382198952882 37.4777562862669  5.68848167539268 38.0193423597679  5.58115183246072 38.5609284332688  C 5.58115183246072 38.5609284332688  4.82984293193717 39.6441005802708  4.82984293193717 39.6441005802708  C 4.82984293193717 39.6441005802708  5.79581151832459 40.9439071566731  5.79581151832459 40.9439071566731  C 6.33246073298427 42.027079303675  5.90314136125655 43.8684719535783  4.61518324607331 46.468085106383  C 4.61518324607331 46.468085106383  6.01047120418851 48.8510638297872  6.01047120418851 48.8510638297872  L 6.22513089005237 49.3926499032882  C 6.22513089005237 49.3926499032882  7.08376963350788 48.8510638297872  7.08376963350788 48.8510638297872  C 8.47905759162302 47.5512572533849  9.65968586387435 47.2263056092843  10.6256544502618 47.5512572533849  C 11.2696335078534 47.7678916827853  11.5916230366492 48.3094777562862  11.6989528795811 48.8510638297872  C 11.8062827225131 49.6092843326885  10.9476439790576 50.9090909090908  9.0157068062827 52.8588007736943  C 9.0157068062827 52.8588007736943  7.51308900523561 54.8085106382978  7.51308900523561 54.8085106382978  C 7.51308900523561 54.8085106382978  8.26439790575915 56  8.26439790575915 56  C 9.33769633507852 55.0251450676982  10.196335078534 54.7001934235976  10.7329842931937 54.9168278529981  C 11.3769633507854 54.9168278529981  13.2015706806283 54.2669245647969  16.3141361256544 52.642166344294  C 17.2801047120419 52.100580270793  18.5680628272251 52.642166344294  20.1780104712042 54.2669245647969  C 20.1780104712042 54.2669245647969  20.8219895287958 53.9419729206963  20.8219895287958 53.9419729206963  L 20.7146596858639 52.642166344294  C 20.7146596858639 52.642166344294  20.3926701570681 52.4255319148936  20.3926701570681 52.4255319148936  C 20.1780104712042 52.100580270793  20.3926701570681 51.7756286266924  20.7146596858639 51.4506769825918  C 20.7146596858639 51.4506769825918  20.1780104712042 49.3926499032882  20.1780104712042 49.3926499032882  C 20.0706806282722 49.0676982591876  20.0706806282722 48.6344294003868  20.1780104712042 48.3094777562862  C 20.5 47.9845261121856  20.9293193717278 47.7678916827853  21.3586387434555 47.5512572533849  C 21.3586387434555 47.5512572533849  22.324607329843 46.6847195357833  22.324607329843 46.6847195357833  L 21.7879581151833 45.384912959381  L 21.7879581151833 45.2765957446808  L 21.8952879581152 45.2765957446808  C 21.8952879581152 45.2765957446808  21.8952879581152 45.1682785299806  21.8952879581152 45.1682785299806  C 22.324607329843 44.5183752417795  22.324607329843 43.9767891682785  22.217277486911 43.6518375241779  C 21.7879581151833 42.8936170212766  22.1099476439791 42.3520309477756  22.9685863874345 41.5938104448743  C 22.9685863874345 41.5938104448743  24.1492146596859 40.5106382978723  24.1492146596859 40.5106382978723  L 23.934554973822 40.294003868472  L 23.6125654450262 39.9690522243714  L 25.0078534031414 39.3191489361702  C 25.0078534031414 39.3191489361702  25.0078534031414 37.5860735009671  25.0078534031414 37.5860735009671  C 25.0078534031414 36.9361702127659  25.5445026178011 36.0696324951644  27.0471204188482 34.9864603481624  C 27.0471204188482 34.9864603481624  27.6910994764398 34.4448742746615  27.6910994764398 34.4448742746615  C 27.6910994764398 34.4448742746615  26.0811518324608 32.6034816247582  26.0811518324608 32.6034816247582  C 25.5445026178011 31.8452611218569  25.7591623036649 30.8704061895551  26.7251308900523 29.8955512572534  C 26.7251308900523 29.8955512572534  26.7251308900523 29.678916827853  26.7251308900523 29.678916827853  L 30.0523560209424 26.8626692456479  C 30.0523560209424 26.8626692456479  30.1596858638744 26.1044487427466  30.1596858638744 26.1044487427466  C 29.5157068062827 25.8878143133462  29.3010471204189 24.6963249516441  29.6230366492147 22.8549323017408  C 30.0523560209424 19.9303675048356  31.3403141361257 18.5222437137331  33.5942408376964 18.1972920696325  C 33.5942408376964 18.1972920696325  33.8089005235602 18.1972920696325  33.8089005235602 18.1972920696325  L 35.2041884816754 18.9555125725338  L 36.7068062827225 18.9555125725338  L 38.1020942408377 17.2224371373308  L 38.2094240837697 17.1141199226305  L 39.9267015706806 16.0309477756286  L 39.7120418848168 14.5145067698259  L 39.7120418848168 14.1895551257253  L 39.9267015706806 13.972920696325  L 40.3560209424084 13.7562862669245  L 40.8926701570681 13.1063829787234  L 41 12.9980657640232  C 41 12.9980657640232  39.9267015706806 11.1566731141199  39.9267015706806 11.1566731141199  C 38.8534031413613 9.74854932301741  37.8874345549739 8.44874274661506  37.2434554973822 6.93230174081238  C 36.7068062827225 5.95744680851064  36.8141361256545 4.8742746615087  37.565445026178 3.68278529980658  C 37.565445026178 3.68278529980658  35.6335078534031 2.49129593810443  35.6335078534031 2.49129593810443  Z " fill-rule="nonzero" fill="#0079fe" stroke="none" fill-opacity="0.658823529411765" transform="matrix(1 0 0 1 319 242 )" />
  </g>
</svg>