<?xml version="1.0" encoding="utf-8"?>
<svg version="1.1" xmlns:xlink="http://www.w3.org/1999/xlink" width="123px" height="104px" xmlns="http://www.w3.org/2000/svg">
  <g transform="matrix(1 0 0 1 -148 -116 )">
    <path d="M 76.6052631578947 38.9056994818653  C 76.6052631578947 38.9056994818653  73.0447368421052 37.6124352331606  73.0447368421052 37.6124352331606  L 71.3184210526316 37.6124352331606  L 70.778947368421 38.7979274611399  L 71.75 39.7678756476684  L 71.75 39.8756476683938  L 71.75 39.9834196891192  L 72.1815789473684 41.3844559585492  L 72.2894736842105 41.4922279792746  L 72.2894736842105 41.8155440414508  L 72.0736842105263 41.9233160621762  L 69.7 43.1088082901554  L 69.5921052631579 43.2165803108808  L 69.4842105263158 43.2165803108808  C 69.4842105263158 43.2165803108808  69.3763157894737 43.2165803108808  69.3763157894737 43.2165803108808  C 67.5421052631579 43.0010362694301  66.5710526315789 42.4621761658031  66.2473684210526 41.7077720207254  C 66.2473684210526 41.7077720207254  65.6 40.4145077720207  65.6 40.4145077720207  L 62.3631578947368 39.7678756476684  C 62.3631578947368 39.7678756476684  61.5 35.6725388601036  61.5 35.6725388601036  C 60.8526315789473 35.5647668393782  60.3131578947368 35.2414507772021  59.9894736842105 34.8103626943005  C 59.9894736842105 34.8103626943005  59.8815789473684 34.5948186528497  59.8815789473684 34.5948186528497  C 59.3421052631579 33.840414507772  58.9105263157895 33.4093264248705  58.2631578947368 33.3015544041451  C 57.4 32.9782383419689  56.6447368421053 32.3316062176166  55.9973684210526 31.3616580310881  C 55.9973684210526 31.3616580310881  54.7026315789473 30.6072538860104  54.7026315789473 30.6072538860104  L 54.5947368421053 30.6072538860104  L 52.8684210526316 28.8829015544042  L 52.4368421052631 27.3740932642487  L 52.4368421052631 27.2663212435233  C 52.4368421052631 27.2663212435233  55.8894736842105 22.5243523316062  55.8894736842105 22.5243523316062  C 55.9973684210526 22.2010362694301  56.1052631578947 21.9854922279793  55.9973684210526 21.8777202072539  C 55.9973684210526 21.8777202072539  55.35 20.3689119170985  55.35 20.3689119170985  L 53.5157894736842 21.1233160621762  L 53.4078947368421 21.1233160621762  L 53.4078947368421 21.2310880829016  L 53.3 21.2310880829016  L 48.5526315789474 21.5544041450777  L 46.7184210526316 21.9854922279793  L 46.0710526315789 22.6321243523316  C 46.0710526315789 22.6321243523316  45.7473684210526 23.2787564766839  45.7473684210526 23.2787564766839  C 45.3157894736842 23.8176165803109  44.6684210526316 24.1409326424871  43.6973684210526 23.9253886010363  C 43.6973684210526 23.9253886010363  43.5894736842105 23.8176165803109  43.5894736842105 23.8176165803109  L 41.9710526315789 22.6321243523316  C 41.9710526315789 22.6321243523316  41.8631578947368 19.9378238341969  41.8631578947368 19.9378238341969  C 41 19.2911917098446  40.4605263157895 18.6445595854922  40.2447368421052 18.1056994818653  C 40.2447368421052 18.1056994818653  39.8131578947368 15.7347150259067  39.8131578947368 15.7347150259067  L 38.7342105263158 14.4414507772021  L 37.5473684210526 13.4715025906736  L 37.0078947368421 13.1481865284974  L 38.95 10.6694300518135  L 39.3815789473684 9.26839378238343  L 37.2236842105263 6.57409326424871  L 37.1157894736842 6.57409326424871  L 37.1157894736842 6.46632124352332  L 36.1447368421053 4.31088082901554  L 36.1447368421053 4.20310880829016  L 35.928947368421 3.12538860103628  L 34.5263157894737 2.04766839378239  L 34.5263157894737 1.93989637305701  L 33.0157894736842 0.323316062176178  L 31.0736842105263 0  L 28.9157894736842 0.646632124352341  L 28.5921052631579 1.07772020725389  L 28.2684210526316 4.09533678756478  L 28.2684210526316 7.43626943005182  L 27.9447368421052 7.5440414507772  L 25.8947368421053 8.29844559585493  L 25.8947368421053 8.40621761658032  C 25.8947368421053 8.40621761658032  23.9526315789474 8.51398963730571  23.9526315789474 8.51398963730571  C 22.9815789473684 9.05284974093265  21.9026315789474 9.59170984455959  20.7157894736842 10.0227979274612  C 20.7157894736842 10.0227979274612  20.5 10.1305699481865  20.5 10.1305699481865  L 20.3921052631579 10.1305699481865  L 16.7236842105263 9.26839378238343  C 16.7236842105263 9.26839378238343  15.2131578947368 10.8849740932643  15.2131578947368 10.8849740932643  C 14.8894736842105 11.3160621761658  14.1342105263158 11.7471502590674  13.1631578947368 11.9626943005181  C 13.1631578947368 11.9626943005181  10.8973684210526 13.7948186528497  10.8973684210526 13.7948186528497  L 9.71052631578947 15.6269430051814  L 9.71052631578947 15.7347150259067  C 9.71052631578947 15.7347150259067  9.60263157894734 15.8424870466321  9.60263157894734 15.8424870466321  C 8.95526315789472 16.8124352331606  8.41578947368419 17.5668393782384  7.98421052631577 17.8901554404145  C 7.98421052631577 17.8901554404145  6.68947368421051 19.5067357512953  6.68947368421051 19.5067357512953  L 6.68947368421051 19.6145077720207  L 6.58157894736842 19.7222797927461  C 6.58157894736842 19.7222797927461  5.82631578947366 20.2611398963731  5.82631578947366 20.2611398963731  C 5.28684210526313 20.4766839378238  4.74736842105261 20.5844559585492  4.31578947368421 20.5844559585492  C 4.31578947368421 20.5844559585492  1.61842105263158 20.3689119170985  1.61842105263158 20.3689119170985  L 0.971052631578923 21.338860103627  L 0 23.0632124352332  L 0.431578947368397 24.7875647668394  L 0.215789473684198 28.9906735751295  L 0.971052631578923 30.2839378238342  L 0.971052631578923 30.3917098445596  L 1.29473684210525 31.3616580310881  L 2.80526315789473 31.3616580310881  L 5.39473684210526 31.900518134715  L 8.73947368421052 32.1160621761658  L 10.25 31.900518134715  L 10.4657894736842 31.900518134715  L 10.5736842105263 31.900518134715  L 13.4868421052632 32.9782383419689  L 13.5947368421053 32.9782383419689  L 15.1052631578947 34.1637305699482  L 18.3421052631579 35.3492227979275  L 18.45 35.3492227979275  L 20.6078947368421 36.6424870466321  L 25.8947368421053 41.4922279792746  L 28.2684210526316 42.5699481865285  L 29.2394736842105 42.1388601036269  L 30.2105263157895 40.3067357512953  C 30.2105263157895 40.3067357512953  29.6710526315789 37.3968911917099  29.6710526315789 37.3968911917099  C 29.6710526315789 36.5347150259067  30.3184210526316 35.9958549222798  31.6131578947368 35.4569948186529  C 31.6131578947368 35.4569948186529  31.828947368421 35.3492227979275  31.828947368421 35.3492227979275  L 38.4105263157895 39.2290155440415  L 39.1657894736842 39.0134715025907  L 40.6763157894737 38.1512953367876  L 40.8921052631579 38.1512953367876  L 41.7552631578947 38.259067357513  L 43.05 37.1813471502591  L 43.2657894736842 37.0735751295337  L 43.5894736842105 37.2891191709844  L 47.4736842105263 39.9834196891192  L 47.5815789473684 40.0911917098446  C 47.5815789473684 40.0911917098446  50.0631578947368 42.1388601036269  50.0631578947368 42.1388601036269  C 50.7105263157895 42.5699481865285  51.5736842105263 43.3243523316062  52.3289473684211 44.4020725388601  C 52.3289473684211 44.4020725388601  53.5157894736842 45.6953367875648  53.5157894736842 45.6953367875648  L 54.4868421052632 45.5875647668394  L 55.5657894736842 43.539896373057  L 57.8315789473684 45.1564766839378  L 57.9394736842105 45.1564766839378  L 58.0473684210526 45.1564766839378  L 59.8815789473684 47.419689119171  L 64.7368421052632 51.0839378238342  L 66.1394736842105 52.700518134715  L 70.3473684210526 51.5150259067358  L 70.5631578947368 54.640414507772  L 72.3973684210526 56.4725388601036  L 72.3973684210526 56.580310880829  L 73.9078947368421 58.8435233160622  L 73.9078947368421 58.9512953367876  L 73.9078947368421 59.059067357513  L 73.9078947368421 59.1668393782384  L 75.5263157894737 66.6031088082902  L 77.1447368421053 69.620725388601  L 74.9868421052632 75.1170984455959  L 74.9868421052632 75.440414507772  L 73.1526315789474 75.8715025906736  L 73.1526315789474 77.4880829015544  L 73.0447368421052 77.5958549222798  L 71.2105263157895 80.6134715025907  L 70.9947368421052 80.6134715025907  L 68.4052631578947 80.8290155440415  C 68.4052631578947 80.8290155440415  65.8157894736842 82.9844559585492  65.8157894736842 82.9844559585492  C 66.1394736842105 83.3077720207254  66.5710526315789 83.5233160621762  67.3263157894737 83.8466321243523  C 68.4052631578947 84.1699481865285  68.5131578947368 85.0321243523316  67.9736842105263 86.540932642487  C 67.9736842105263 86.540932642487  67.9736842105263 86.6487046632124  67.9736842105263 86.6487046632124  L 66.1394736842105 88.480829015544  L 66.0315789473684 88.480829015544  L 65.9236842105263 88.6963730569948  L 65.8157894736842 88.6963730569948  L 65.7078947368421 88.6963730569948  L 60.5289473684211 87.9419689119171  L 60.421052631579 89.7740932642487  L 60.9605263157895 93.6538860103627  L 65.2763157894737 95.4860103626943  L 65.2763157894737 95.7015544041451  L 66.8947368421053 95.1626943005182  L 67.0026315789474 95.0549222797928  L 67.2184210526316 94.9471502590674  L 67.3263157894737 95.1626943005182  L 67.4342105263158 95.1626943005182  L 68.6210526315789 95.8093264248705  L 70.4552631578947 95.8093264248705  L 71.1026315789473 95.7015544041451  L 70.4552631578947 93.6538860103627  L 70.0236842105263 91.4984455958549  L 70.0236842105263 91.3906735751296  L 70.0236842105263 91.1751295336788  L 70.1315789473684 91.0673575129534  L 70.1315789473684 90.959585492228  L 70.778947368421 90.2051813471503  L 70.9947368421052 89.9896373056995  L 71.1026315789473 89.8818652849741  L 72.2894736842105 88.2652849740933  L 72.3973684210526 88.1575129533679  L 74.3394736842105 86.6487046632124  L 74.4473684210526 86.6487046632124  L 74.4473684210526 86.540932642487  L 74.5552631578947 86.540932642487  L 76.928947368421 86.2176165803109  C 76.928947368421 86.2176165803109  76.928947368421 86.8642487046632  76.928947368421 86.8642487046632  C 76.928947368421 87.6186528497409  77.0368421052631 88.1575129533679  77.1447368421053 88.480829015544  C 77.1447368421053 88.480829015544  77.5763157894737 89.4507772020725  77.5763157894737 89.4507772020725  L 78.2236842105263 90.8518134715026  L 80.3815789473684 92.0373056994819  L 86.3157894736842 92.5761658031088  L 86.5315789473684 92.5761658031088  L 86.8552631578947 92.5761658031088  L 86.8552631578947 92.899481865285  L 86.8552631578947 93.1150259067358  L 86.6394736842105 95.0549222797928  L 88.3657894736842 96.8870466321244  L 89.6605263157895 97.4259067357513  L 89.8763157894737 97.5336787564767  L 89.8763157894737 97.6414507772021  L 89.9842105263158 97.8569948186529  L 89.9842105263158 98.6113989637306  L 89.9842105263158 99.6891191709845  L 89.4447368421052 101.844559585492  C 89.4447368421052 101.844559585492  90.2 102.383419689119  90.2 102.383419689119  C 91.0631578947368 102.275647668394  91.8184210526316 102.275647668394  92.5736842105263 102.814507772021  C 92.5736842105263 102.814507772021  95.0552631578947 104  95.0552631578947 104  L 96.5657894736842 102.814507772021  L 98.1842105263158 101.090155440415  L 98.2921052631579 100.335751295337  L 98.4 100.120207253886  L 98.6157894736842 100.012435233161  L 98.8315789473684 99.7968911917098  L 98.8315789473684 99.5813471502591  L 98.2921052631579 97.3181347150259  L 98.1842105263158 96.1326424870467  L 98.0763157894737 96.0248704663212  L 98.0763157894737 95.9170984455959  L 98.1842105263158 95.8093264248705  L 98.1842105263158 95.7015544041451  L 99.0473684210526 94.300518134715  L 99.1552631578947 94.1927461139896  L 100.881578947368 93.0072538860104  L 100.989473684211 93.0072538860104  L 104.55 93.0072538860104  L 105.089473684211 92.7917098445596  L 104.981578947368 90.959585492228  L 104.442105263158 89.3430051813472  L 103.255263157895 87.4031088082901  L 103.147368421053 87.2953367875648  L 103.147368421053 87.1875647668394  L 103.147368421053 84.4932642487047  L 103.147368421053 84.3854922279793  L 103.794736842105 82.7689119170984  L 103.902631578947 82.6611398963731  L 106.815789473684 78.4580310880829  L 106.923684210526 78.3502590673575  L 107.031578947368 78.3502590673575  L 107.247368421053 78.2424870466321  L 107.894736842105 78.2424870466321  L 108.973684210526 78.3502590673575  L 111.455263157895 79.7512953367876  L 113.073684210526 80.1823834196891  L 113.289473684211 79.4279792746114  L 112.965789473684 79.2124352331606  C 112.965789473684 79.2124352331606  112.965789473684 78.8891191709845  112.965789473684 78.8891191709845  C 112.965789473684 78.2424870466321  113.289473684211 77.7036269430052  113.936842105263 77.1647668393782  C 113.936842105263 77.1647668393782  115.878947368421 75.7637305699482  115.878947368421 75.7637305699482  L 115.986842105263 75.6559585492228  C 115.986842105263 75.6559585492228  115.986842105263 75.5481865284974  115.986842105263 75.5481865284974  C 117.065789473684 75.2248704663213  117.713157894737 75.0093264248705  118.144736842105 75.0093264248705  C 118.144736842105 75.0093264248705  119.871052631579 74.7937823834197  119.871052631579 74.7937823834197  L 120.086842105263 74.7937823834197  L 121.165789473684 75.0093264248705  L 121.921052631579 72.3150259067357  C 121.921052631579 72.3150259067357  121.921052631579 70.4829015544042  121.921052631579 70.4829015544042  C 121.921052631579 69.2974093264249  121.921052631579 68.5430051813471  122.244736842105 68.3274611398964  C 122.244736842105 68.3274611398964  123 66.9264248704663  123 66.9264248704663  L 122.028947368421 65.6331606217617  L 120.734210526316 64.7709844559585  C 120.734210526316 64.7709844559585  118.036842105263 64.0165803108808  118.036842105263 64.0165803108808  C 117.497368421053 64.0165803108808  116.526315789474 63.4777202072539  114.907894736842 62.0766839378238  C 114.907894736842 62.0766839378238  113.289473684211 61.3222797927461  113.289473684211 61.3222797927461  L 113.181578947368 61.3222797927461  L 113.073684210526 61.2145077720207  L 111.131578947368 58.8435233160622  L 109.297368421053 58.8435233160622  L 109.189473684211 58.7357512953368  L 109.081578947368 58.7357512953368  L 107.463157894737 57.8735751295337  L 106.492105263158 59.1668393782384  L 106.276315789474 64.2321243523316  L 106.6 66.1720207253886  L 107.355263157895 66.1720207253886  L 107.463157894737 66.279792746114  L 108.973684210526 66.7108808290156  L 108.973684210526 66.8186528497409  L 108.973684210526 66.9264248704663  L 109.728947368421 68.7585492227979  L 109.836842105263 68.7585492227979  L 109.836842105263 68.8663212435233  L 109.836842105263 68.9740932642487  L 109.405263157895 72.3150259067357  L 109.405263157895 72.5305699481866  L 109.405263157895 72.6383419689119  C 109.405263157895 72.6383419689119  109.297368421053 72.7461139896373  109.297368421053 72.7461139896373  C 108.757894736842 73.0694300518135  108.326315789474 73.2849740932642  107.786842105263 73.6082901554404  C 107.786842105263 73.6082901554404  107.571052631579 73.7160621761658  107.571052631579 73.7160621761658  L 107.463157894737 73.6082901554404  L 107.355263157895 73.6082901554404  L 106.6 73.3927461139896  L 104.873684210526 74.039378238342  L 104.765789473684 74.039378238342  L 104.873684210526 74.3626943005181  L 104.981578947368 74.4704663212435  C 104.981578947368 74.4704663212435  105.305263157895 77.380310880829  105.305263157895 77.380310880829  C 105.305263157895 77.8113989637306  105.089473684211 78.0269430051814  104.657894736842 78.1347150259067  C 104.657894736842 78.1347150259067  103.363157894737 78.1347150259067  103.363157894737 78.1347150259067  C 102.715789473684 78.0269430051814  102.392105263158 77.8113989637306  102.068421052632 77.4880829015544  C 102.068421052632 77.4880829015544  100.773684210526 76.5181347150259  100.773684210526 76.5181347150259  L 100.665789473684 76.4103626943005  L 100.557894736842 76.4103626943005  L 100.557894736842 76.3025906735751  C 100.557894736842 76.3025906735751  99.8026315789474 74.4704663212435  99.8026315789474 74.4704663212435  C 99.5868421052631 74.2549222797928  99.0473684210526 73.9316062176166  97.9684210526316 73.6082901554404  C 97.9684210526316 73.6082901554404  97.8605263157895 73.6082901554404  97.8605263157895 73.6082901554404  L 97.7526315789474 73.6082901554404  L 96.2421052631579 72.5305699481866  L 96.0263157894737 72.5305699481866  L 96.0263157894737 72.3150259067357  L 95.5947368421053 70.4829015544042  L 95.8105263157895 69.0818652849741  L 95.9184210526315 69.0818652849741  L 95.9184210526315 68.9740932642487  L 96.5657894736842 68.219689119171  L 96.5657894736842 67.680829015544  L 95.9184210526315 65.7409326424871  L 94.4078947368421 64.339896373057  L 94.4078947368421 64.1243523316062  L 93.9763157894737 59.7056994818653  L 92.8973684210526 58.6279792746114  L 92.7894736842105 58.6279792746114  L 92.6815789473684 58.520207253886  L 91.8184210526316 56.4725388601036  C 91.8184210526316 56.4725388601036  87.9342105263158 56.0414507772021  87.9342105263158 56.0414507772021  C 86.9631578947368 55.7181347150259  86.3157894736842 55.0715025906736  85.8842105263158 54.2093264248705  C 85.8842105263158 54.2093264248705  84.1578947368421 54.2093264248705  84.1578947368421 54.2093264248705  C 83.5105263157894 53.9937823834197  82.8631578947368 53.5626943005181  82.1078947368421 52.8082901554404  C 82.1078947368421 52.8082901554404  81.8921052631579 52.5927461139897  81.8921052631579 52.5927461139897  C 81.4605263157895 52.1616580310881  81.028947368421 51.5150259067358  80.5973684210526 50.6528497409326  C 80.5973684210526 50.6528497409326  80.4894736842105 50.5450777202073  80.4894736842105 50.5450777202073  L 80.1657894736842 48.820725388601  L 80.1657894736842 48.7129533678757  L 80.1657894736842 48.6051813471502  L 80.8131578947368 45.2642487046632  L 80.8131578947368 45.1564766839378  L 81.4605263157895 43.7554404145078  L 81.4605263157895 43.6476683937824  L 81.4605263157895 43.539896373057  L 81.5684210526316 43.539896373057  L 85.6684210526316 41.8155440414508  L 87.2868421052631 39.8756476683938  L 87.6105263157895 38.259067357513  C 87.6105263157895 38.259067357513  87.3947368421053 37.0735751295337  87.3947368421053 37.0735751295337  C 86.7473684210526 35.6725388601036  86.3157894736842 34.8103626943005  86.3157894736842 34.2715025906736  C 86.3157894736842 34.2715025906736  85.4526315789474 34.379274611399  85.4526315789474 34.379274611399  C 85.4526315789474 34.379274611399  83.9421052631579 34.2715025906736  83.9421052631579 34.2715025906736  C 83.6184210526316 34.379274611399  82.7552631578947 35.3492227979275  81.5684210526316 36.7502590673575  C 81.5684210526316 36.7502590673575  79.7342105263158 38.4746113989638  79.7342105263158 38.4746113989638  L 79.6263157894737 38.4746113989638  C 79.6263157894737 38.4746113989638  79.5184210526316 38.5823834196891  79.5184210526316 38.5823834196891  C 78.1157894736842 38.9056994818653  77.1447368421053 39.1212435233161  76.6052631578947 38.9056994818653  Z " fill-rule="nonzero" fill="#0079fe" stroke="none" fill-opacity="0.219607843137255" transform="matrix(1 0 0 1 148 116 )" />
  </g>
</svg>