<?xml version="1.0" encoding="utf-8"?>
<svg version="1.1" xmlns:xlink="http://www.w3.org/1999/xlink" width="51px" height="48px" xmlns="http://www.w3.org/2000/svg">
  <g transform="matrix(1 0 0 1 -347 -99 )">
    <path d="M 25.3914893617021 6.85714285714286  L 23.3297872340426 6.32142857142858  C 23.3297872340426 6.32142857142858  22.0276595744681 8.03571428571428  22.0276595744681 8.03571428571428  C 21.8106382978724 8.35714285714285  21.7021276595745 9.00000000000001  21.9191489361702 10.0714285714286  C 21.9191489361702 10.0714285714286  21.9191489361702 10.7142857142857  21.9191489361702 10.7142857142857  L 19.3148936170213 10.7142857142857  L 17.3617021276596 10.1785714285714  L 15.9510638297872 12.3214285714286  L 15.7340425531915 12.5357142857143  L 13.9978723404255 13.6071428571429  L 12.4787234042553 15.2142857142857  L 12.2617021276596 15.5357142857143  L 9.54893617021278 18.6428571428571  L 9.44042553191488 18.75  L 7.37872340425533 19.8214285714286  L 5.75106382978725 18.75  L 4.231914893617 17.0357142857143  L 3.25531914893617 16.5  L 4.01489361702126 20.8928571428571  L 4.66595744680852 23.25  L 3.03829787234044 24.75  L 0.759574468085094 28.0714285714286  L 0.759574468085094 29.4642857142857  L 0.651063829787259 29.5714285714286  L 0 30.4285714285714  L 0.434042553191465 31.1785714285714  L 1.30212765957446 31.1785714285714  L 4.44893617021279 32.0357142857143  L 4.66595744680852 32.0357142857143  L 4.77446808510636 32.1428571428571  L 5.42553191489362 32.7857142857143  L 6.29361702127661 33.2142857142857  C 6.29361702127661 33.2142857142857  6.51063829787234 33.2142857142857  6.51063829787234 33.2142857142857  C 6.83617021276597 33.75  7.0531914893617 34.1785714285714  7.0531914893617 34.6071428571428  C 7.0531914893617 34.6071428571428  7.37872340425533 35.5714285714286  7.37872340425533 35.5714285714286  L 10.7425531914893 36.5357142857143  L 11.7191489361702 36.3214285714286  L 12.6957446808511 35.0357142857143  L 15.3 30.1071428571429  L 15.4085106382979 30  L 16.6021276595745 28.3928571428571  L 16.7106382978723 28.2857142857143  L 18.7723404255319 27.3214285714286  C 18.7723404255319 27.3214285714286  20.1829787234043 27.2142857142857  20.1829787234043 27.2142857142857  C 20.7255319148936 26.3571428571429  21.1595744680851 25.9285714285714  21.7021276595745 25.9285714285714  C 22.0276595744681 25.9285714285714  22.5702127659575 26.1428571428571  23.4382978723404 26.5714285714286  C 23.4382978723404 26.5714285714286  23.6553191489362 26.6785714285714  23.6553191489362 26.6785714285714  L 25.5 29.5714285714286  L 25.6085106382979 29.6785714285714  L 25.6085106382979 29.8928571428571  L 25.8255319148936 31.9285714285714  L 25.7170212765957 34.1785714285714  L 25.1744680851064 36.1071428571428  L 25.1744680851064 36.3214285714286  L 23.6553191489362 38.0357142857143  L 23.0042553191489 39.4285714285714  L 23.1127659574468 41.7857142857143  L 23.3297872340426 41.7857142857143  L 24.0893617021276 41.4642857142857  L 24.9574468085106 40.7142857142857  L 25.1744680851064 40.5  L 25.2829787234043 40.2857142857143  L 26.368085106383 41.25  L 26.368085106383 43.0714285714285  L 25.2829787234043 43.5  L 24.9574468085106 43.9285714285714  L 24.9574468085106 44.8928571428571  L 24.8489361702127 45  L 24.1978723404255 46.1785714285714  L 23.8723404255319 46.2857142857143  L 23.0042553191489 46.3928571428571  L 22.1361702127659 46.6071428571428  L 21.4851063829787 47.7857142857143  L 21.5936170212766 48  L 25.1744680851064 47.5714285714286  L 25.8255319148936 47.0357142857143  L 27.0191489361702 43.9285714285714  L 35.0489361702128 35.7857142857143  L 35.2659574468085 35.7857142857143  L 37.0021276595745 34.9285714285714  L 37.1106382978723 34.8214285714286  L 38.5212765957447 34.9285714285714  L 39.931914893617 34.6071428571428  L 41.4510638297872 33.9642857142857  L 42.5361702127659 32.7857142857143  L 44.2723404255319 28.0714285714286  L 51 21  C 51 21  50.5659574468085 17.1428571428571  50.5659574468085 17.1428571428571  C 50.2404255319149 17.0357142857143  49.8063829787234 16.8214285714286  49.5893617021276 16.5  C 49.5893617021276 16.5  49.3723404255319 16.2857142857143  49.3723404255319 16.2857142857143  C 49.3723404255319 16.2857142857143  48.2872340425532 16.5  48.2872340425532 16.5  C 47.7446808510638 16.2857142857143  47.4191489361702 16.0714285714286  46.9851063829787 15.5357142857143  C 46.9851063829787 15.5357142857143  46.6595744680851 14.8928571428571  46.6595744680851 14.8928571428571  L 46.5510638297872 14.6785714285714  C 46.5510638297872 14.6785714285714  46.5510638297872 8.89285714285714  46.5510638297872 8.89285714285714  C 45.9 8.67857142857144  45.2489361702128 8.25  44.4893617021277 7.5  C 44.4893617021277 7.5  43.0787234042553 6.00000000000001  43.0787234042553 6.00000000000001  C 43.0787234042553 6.00000000000001  41.7765957446809 4.17857142857143  41.7765957446809 4.17857142857143  C 41.5595744680851 3.75  41.5595744680851 3.10714285714286  41.668085106383 2.14285714285714  C 41.668085106383 2.14285714285714  41.7765957446809 1.60714285714286  41.7765957446809 1.60714285714286  L 41.0170212765958 0.642857142857152  L 40.9085106382979 1.50000000000001  L 39.931914893617 3.32142857142858  C 39.931914893617 3.32142857142858  39.6063829787234 3.32142857142858  39.6063829787234 3.32142857142858  C 38.8468085106383 3.32142857142858  37.9787234042553 3.21428571428571  37.3276595744681 2.89285714285715  C 36.6765957446809 2.67857142857143  36.3510638297872 2.14285714285714  36.3510638297872 1.50000000000001  C 36.3510638297872 1.50000000000001  36.3510638297872 1.07142857142857  36.3510638297872 1.07142857142857  L 35.8085106382979 1.07142857142857  L 33.7468085106383 1.60714285714286  L 32.2276595744681 0.107142857142866  L 31.6851063829787 0  L 31.1425531914893 0.535714285714285  L 31.7936170212766 1.60714285714286  L 32.0106382978723 1.92857142857143  L 30.9255319148936 4.17857142857143  L 30.8170212765957 4.28571428571428  L 28.7553191489362 6.42857142857143  L 28.6468085106383 6.53571428571429  L 28.4297872340425 6.53571428571429  L 25.3914893617021 6.85714285714286  Z " fill-rule="nonzero" fill="#0079fe" stroke="none" transform="matrix(1 0 0 1 347 99 )" />
  </g>
</svg>