<?xml version="1.0" encoding="utf-8"?>
<svg version="1.1" xmlns:xlink="http://www.w3.org/1999/xlink" width="72px" height="49px" xmlns="http://www.w3.org/2000/svg">
  <g transform="matrix(1 0 0 1 -358 -70 )">
    <path d="M 16.1194029850746 5.6  L 13.9701492537313 2.26153846153847  L 13.5402985074627 0  L 12.4656716417911 0.646153846153855  L 12.3582089552239 0.646153846153855  L 9.77910447761197 1.61538461538462  L 9.67164179104477 1.4  L 9.24179104477614 1.2923076923077  L 9.24179104477614 2.47692307692307  L 9.13432835820896 2.58461538461539  L 7.844776119403 4.52307692307693  L 7.73731343283581 4.52307692307693  L 7.73731343283581 4.63076923076923  L 7.62985074626868 4.63076923076923  L 5.69552238805971 6.24615384615384  L 5.4805970149254 6.24615384615384  L 5.4805970149254 6.46153846153846  C 5.4805970149254 6.46153846153846  5.15820895522389 6.24615384615384  5.15820895522389 6.24615384615384  C 3.86865671641793 5.7076923076923  3.00895522388061 5.06153846153847  2.79402985074629 4.52307692307693  C 2.57910447761192 4.30769230769231  2.47164179104479 4.30769230769231  2.25671641791047 4.20000000000001  C 2.25671641791047 4.20000000000001  0.859701492537326 4.41538461538462  0.859701492537326 4.41538461538462  L 0 5.27692307692308  L 2.25671641791047 7.21538461538462  L 4.08358208955225 7.96923076923078  L 4.19104477611938 8.07692307692307  L 4.29850746268657 8.07692307692307  L 4.40597014925376 8.29230769230769  L 4.40597014925376 8.4  L 4.7283582089552 10.5538461538462  L 4.83582089552239 10.5538461538462  L 4.83582089552239 13.8923076923077  L 5.26567164179102 15.8307692307692  L 6.55522388059704 18.8461538461538  L 8.05970149253731 20.2461538461538  L 9.24179104477614 19.3846153846154  L 10.1014925373134 18.3076923076923  L 10.1014925373134 18.2  L 10.2089552238806 18.2  L 11.7134328358209 16.3692307692308  L 13.0029850746269 17.5538461538462  L 13.0029850746269 17.6615384615385  L 13.0029850746269 17.7692307692308  L 14.2925373134328 20.2461538461538  L 15.9044776119403 20.8923076923077  L 16.7641791044776 23.4769230769231  L 16.7641791044776 23.5846153846154  L 16.7641791044776 23.6923076923077  L 16.6567164179105 26.0615384615385  L 16.6567164179105 26.1692307692308  L 16.5492537313433 26.1692307692308  L 15.9044776119403 28.3230769230769  L 17.0865671641791 29.4  L 18.3761194029851 28.7538461538462  L 19.6656716417911 27.4615384615385  L 19.9880597014926 27.6769230769231  L 21.0626865671642 28  L 22.3522388059702 29.1846153846154  C 22.3522388059702 29.1846153846154  23.7492537313433 28.8615384615385  23.7492537313433 28.8615384615385  C 24.8238805970149 28.5384615384615  25.3611940298508 28.8615384615385  25.6835820895522 29.6153846153846  C 25.6835820895522 29.6153846153846  25.6835820895522 30.5846153846154  25.6835820895522 30.5846153846154  L 25.8985074626866 30.6923076923077  L 27.4029850746269 31.1230769230769  L 28.0477611940299 29.7230769230769  C 28.0477611940299 29.7230769230769  28.0477611940299 29.1846153846154  28.0477611940299 29.1846153846154  C 28.0477611940299 28.7538461538462  28.155223880597 28.3230769230769  28.4776119402985 28.2153846153846  C 28.4776119402985 28.2153846153846  29.3373134328358 28.3230769230769  29.3373134328358 28.3230769230769  C 30.5194029850746 28.8615384615385  31.0567164179104 29.6153846153846  31.0567164179104 30.4769230769231  C 31.0567164179104 30.4769230769231  30.9492537313433 31.2307692307692  30.9492537313433 31.2307692307692  L 30.9492537313433 32.5230769230769  L 32.1313432835821 34.2461538461538  C 32.1313432835821 34.2461538461538  33.5283582089552 35.7538461538462  33.5283582089552 35.7538461538462  C 33.9582089552239 36.2923076923077  34.4955223880597 36.5076923076923  35.0328358208955 36.7230769230769  C 35.0328358208955 36.7230769230769  35.2477611940299 36.7230769230769  35.2477611940299 36.7230769230769  C 35.5701492537314 36.9384615384615  35.7850746268657 37.4769230769231  35.7850746268657 38.6615384615385  C 35.7850746268657 38.6615384615385  35.7850746268657 43.5076923076923  35.7850746268657 43.5076923076923  C 36 43.9384615384615  36.3223880597015 44.2615384615385  36.644776119403 44.3692307692308  C 36.644776119403 44.3692307692308  36.8597014925373 44.3692307692308  36.8597014925373 44.3692307692308  C 37.5044776119403 44.0461538461538  37.934328358209 44.1538461538462  38.4716417910448 44.6923076923077  C 38.4716417910448 44.6923076923077  38.7940298507463 44.9076923076923  38.7940298507463 44.9076923076923  C 39.3313432835821 45.0153846153846  39.7611940298507 45.4461538461538  39.8686567164179 46.3076923076923  C 39.8686567164179 46.3076923076923  40.0835820895523 49  40.0835820895523 49  C 40.0835820895523 49  42.555223880597 43.9384615384615  42.555223880597 43.9384615384615  C 43.3074626865672 41.2461538461538  44.1671641791045 39.6307692307692  45.3492537313433 39.4153846153846  C 46.3164179104478 39.0923076923077  47.8208955223881 39.6307692307692  49.755223880597 40.7076923076923  C 49.755223880597 40.7076923076923  56.7402985074627 41.2461538461538  56.7402985074627 41.2461538461538  L 56.955223880597 39.7384615384615  C 56.955223880597 39.7384615384615  53.7313432835821 36.6153846153846  53.7313432835821 36.6153846153846  C 52.2268656716418 35.7538461538462  51.5820895522388 35.1076923076923  51.7970149253731 34.6769230769231  C 51.7970149253731 34.6769230769231  54.2686567164179 34.7846153846154  54.2686567164179 34.7846153846154  C 56.5253731343284 35.5384615384615  58.6746268656717 34.2461538461538  60.7164179104478 30.5846153846154  C 60.7164179104478 30.5846153846154  60.8238805970149 30.5846153846154  60.8238805970149 30.5846153846154  L 63.1880597014925 28.3230769230769  L 63.5104477611941 23.3692307692308  L 63.5104477611941 22.8307692307692  L 63.8328358208955 22.8307692307692  L 64.0477611940299 22.8307692307692  L 65.8746268656717 22.4  L 66.1970149253732 22.4  L 66.4119402985075 22.5076923076923  L 66.4119402985075 22.6153846153846  L 70.1731343283582 26.6  L 71.2477611940299 26.1692307692308  L 71.4626865671642 25.5230769230769  L 69.4208955223881 23.5846153846154  L 69.0985074626866 23.3692307692308  L 68.8835820895523 23.0461538461538  L 72 21.2153846153846  L 71.7850746268657 16.6923076923077  L 70.4955223880597 16.9076923076923  L 70.3880597014925 16.9076923076923  C 70.3880597014925 16.9076923076923  68.6686567164179 16.0461538461539  68.6686567164179 16.0461538461539  C 68.0238805970149 15.9384615384615  67.1641791044776 15.5076923076923  65.8746268656717 14.7538461538462  C 65.2298507462687 14.4307692307692  64.8 14.1076923076923  64.8 13.6769230769231  C 64.8 13.6769230769231  64.8 13.7846153846154  64.8 13.7846153846154  C 64.8 14.2153846153846  64.6925373134328 14.4307692307692  64.4776119402985 14.5384615384615  C 64.155223880597 14.7538461538462  63.7253731343284 14.8615384615385  62.9731343283582 14.8615384615385  C 62.9731343283582 14.8615384615385  62.865671641791 14.8615384615385  62.865671641791 14.8615384615385  L 62.7582089552239 14.7538461538462  L 62.6507462686567 14.7538461538462  L 61.1462686567164 13.6769230769231  C 61.1462686567164 13.6769230769231  59.8567164179104 14.7538461538462  59.8567164179104 14.7538461538462  C 59.2119402985075 15.2923076923077  58.7820895522388 15.7230769230769  58.7820895522388 16.1538461538462  C 58.7820895522388 16.1538461538462  59.4268656716418 17.5538461538462  59.4268656716418 17.5538461538462  C 59.7492537313433 17.9846153846154  59.7492537313433 18.2  59.6417910447761 18.5230769230769  C 59.4268656716418 18.8461538461538  58.889552238806 19.1692307692308  58.1373134328358 19.2769230769231  C 58.1373134328358 19.2769230769231  57.4925373134328 19.6  57.4925373134328 19.6  C 56.7402985074627 19.8153846153846  56.0955223880597 19.7076923076923  55.6656716417911 19.1692307692308  C 55.6656716417911 19.1692307692308  55.4507462686567 18.8461538461538  55.4507462686567 18.8461538461538  C 55.4507462686567 18.8461538461538  52.6567164179104 15.9384615384615  52.6567164179104 15.9384615384615  C 51.3671641791045 15.5076923076923  50.6149253731344 14.9692307692308  50.2925373134329 14.3230769230769  C 50.0776119402985 14  49.9701492537313 13.6769230769231  50.0776119402985 13.4615384615385  C 49.9701492537313 12.4923076923077  49.755223880597 11.8461538461538  49.5402985074627 11.5230769230769  C 49.5402985074627 11.5230769230769  49.0029850746269 11.8461538461538  49.0029850746269 11.8461538461538  C 49.0029850746269 11.8461538461538  48.8955223880597 12.0615384615385  48.8955223880597 12.0615384615385  C 48.8955223880597 12.3846153846154  49.0029850746269 12.7076923076923  49.3253731343283 13.1384615384615  C 49.3253731343283 13.1384615384615  49.4328358208955 13.3538461538462  49.4328358208955 13.3538461538462  L 49.5402985074627 13.4615384615385  L 49.4328358208955 13.6769230769231  L 47.9283582089552 16.1538461538462  L 45.4567164179105 15.6153846153846  L 44.9194029850746 15.2923076923077  C 44.9194029850746 15.2923076923077  44.9194029850746 14.9692307692308  44.9194029850746 14.9692307692308  C 45.134328358209 14.5384615384615  45.134328358209 14  44.9194029850746 13.4615384615385  C 44.9194029850746 13.4615384615385  44.5970149253731 12.6  44.5970149253731 12.6  L 42.555223880597 11.0923076923077  C 42.555223880597 11.0923076923077  42.4477611940299 10.9846153846154  42.4477611940299 10.9846153846154  C 42.2328358208955 11.3076923076923  42.0179104477612 11.3076923076923  41.8029850746268 11.4153846153846  C 41.8029850746268 11.4153846153846  39.8686567164179 11.2  39.8686567164179 11.2  C 39.2238805970149 11.0923076923077  38.7940298507463 10.9846153846154  38.5791044776119 10.5538461538462  C 38.4716417910448 10.3384615384615  38.4716417910448 9.90769230769231  38.6865671641791 9.36923076923077  C 38.6865671641791 9.36923076923077  38.7940298507463 9.04615384615385  38.7940298507463 9.04615384615385  L 37.934328358209 7.53846153846154  C 37.934328358209 7.53846153846154  34.1731343283582 7.75384615384616  34.1731343283582 7.75384615384616  C 34.2805970149253 8.29230769230769  34.1731343283582 8.61538461538461  33.9582089552239 9.04615384615385  C 33.8507462686567 9.36923076923077  33.4208955223881 9.47692307692308  33.0985074626866 9.47692307692308  C 32.5611940298508 9.69230769230769  31.9164179104477 9.47692307692308  31.3791044776119 8.93846153846154  C 31.3791044776119 8.93846153846154  31.3791044776119 8.83076923076923  31.3791044776119 8.83076923076923  C 31.3791044776119 8.83076923076923  31.2716417910448 8.83076923076923  31.2716417910448 8.83076923076923  C 30.4119402985075 7.86153846153846  30.089552238806 7.10769230769232  30.089552238806 6.46153846153846  C 30.089552238806 6.46153846153846  29.3373134328358 5.38461538461539  29.3373134328358 5.38461538461539  C 29.3373134328358 5.38461538461539  28.2626865671642 6.13846153846154  28.2626865671642 6.13846153846154  C 27.2955223880597 6.67692307692308  26.6507462686567 6.67692307692308  26.3283582089552 6.24615384615384  C 26.3283582089552 6.24615384615384  25.8985074626866 6.13846153846154  25.8985074626866 6.13846153846154  L 24.8238805970149 6.24615384615384  C 24.8238805970149 6.24615384615384  21.9223880597015 7.21538461538462  21.9223880597015 7.21538461538462  C 21.2776119402985 7.64615384615385  20.7402985074627 7.75384615384616  20.310447761194 7.75384615384616  C 20.310447761194 7.75384615384616  19.9880597014926 7.75384615384616  19.9880597014926 7.75384615384616  C 18.9134328358209 7.75384615384616  18.2686567164179 7.43076923076924  17.8388059701493 7  C 17.8388059701493 7  16.1194029850746 5.6  16.1194029850746 5.6  Z " fill-rule="nonzero" fill="#0079fe" stroke="none" fill-opacity="0.219607843137255" transform="matrix(1 0 0 1 358 70 )" />
  </g>
</svg>