<?xml version="1.0" encoding="utf-8"?>
<svg version="1.1" xmlns:xlink="http://www.w3.org/1999/xlink" width="95px" height="83px" xmlns="http://www.w3.org/2000/svg">
  <g transform="matrix(1 0 0 1 -177 -203 )">
    <path d="M 8.97042093287825 2.04705500567906  L 8.86234357224117 2.04705500567906  L 6.37656427758814 1.29287684569202  L 3.78270762229807 0.969657634269031  L 2.91808873720135 1.93931526853806  L 2.70193401592719 3.7708907999351  L 2.81001137656427 3.87863053707609  L 3.56655290102387 6.67986370274216  L 3.67463026166095 8.83465844556221  L 3.67463026166095 9.48109686840826  L 2.37770193401592 9.48109686840826  L 2.91808873720135 12.0668505597923  L 0.864618885096683 12.8210287197793  L 0 14.4371247768944  L 1.08077360637088 15.2990426740224  L 1.29692832764504 15.4067824111634  L 5.07963594994311 18.4234950511115  L 5.18771331058019 18.5312347882525  L 5.29579067121727 18.5312347882525  L 5.29579067121727 18.6389745253935  L 5.29579067121727 18.7467142625345  L 5.83617747440271 21.4402076910596  C 5.83617747440271 21.4402076910596  7.56541524459613 23.9182216453026  7.56541524459613 23.9182216453026  C 7.99772468714446 24.5646600681486  8.5381114903299 25.2110984909947  9.51080773606369 26.0730163881227  C 9.51080773606369 26.0730163881227  9.61888509670078 26.0730163881227  9.61888509670078 26.0730163881227  L 9.72696245733788 26.1807561252637  L 9.72696245733788 26.2884958624047  L 9.61888509670078 26.5039753366867  C 9.61888509670078 26.5039753366867  9.61888509670078 28.8742495537888  9.61888509670078 28.8742495537888  C 9.94311717861205 29.5206879766348  10.0511945392491 30.9213045594678  10.0511945392491 32.9683595651468  C 11.0238907849829 34.3689761479799  11.4562002275313 35.3386337822489  11.4562002275313 35.9850722050949  C 11.4562002275313 36.4160311536589  11.7804323094425 37.2779490507869  12.320819112628 38.463086159338  C 12.320819112628 38.463086159338  12.320819112628 38.570825896479  12.320819112628 38.570825896479  C 12.5369738339022 40.079182216453  12.4288964732651 41.3720590621451  12.1046643913538 42.4494564335551  C 11.7804323094425 43.2036345935421  12.2127417519909 44.6042511763751  13.4015927189988 46.5435664449132  C 13.4015927189988 46.5435664449132  13.5096700796359 46.6513061820542  13.5096700796359 46.6513061820542  L 13.617747440273 46.8667856563362  L 13.5096700796359 47.0822651306182  C 13.5096700796359 47.0822651306182  11.7804323094425 50.8531559305533  11.7804323094425 50.8531559305533  C 12.1046643913538 51.7150738276813  12.2127417519909 52.3615122505273  12.2127417519909 52.7924711990913  C 12.2127417519909 52.7924711990913  11.7804323094425 56.3478825247444  11.7804323094425 56.3478825247444  C 11.5642775881684 57.5330196332955  11.5642775881684 58.1794580561415  12.1046643913538 58.3949375304235  C 12.1046643913538 58.3949375304235  12.7531285551763 58.8258964789875  12.7531285551763 58.8258964789875  C 13.7258248009101 59.2568554275515  14.0500568828214 59.7955541132565  14.0500568828214 60.3342527989615  C 14.0500568828214 60.3342527989615  13.9419795221843 62.1658283303586  13.9419795221843 62.1658283303586  L 14.4823663253697 62.3813078046406  L 14.5904436860068 62.4890475417816  C 14.5904436860068 62.4890475417816  14.9146757679181 62.1658283303586  14.9146757679181 62.1658283303586  C 15.2389078498293 61.8426091189356  15.5631399317406 61.4116501703716  15.6712172923777 60.8729514846666  C 15.6712172923777 60.8729514846666  15.8873720136519 60.5497322732435  15.8873720136519 60.5497322732435  C 15.8873720136519 60.5497322732435  15.9954493742889 60.3342527989615  15.9954493742889 60.3342527989615  C 16.4277588168373 60.1187733246795  16.6439135381115 59.7955541132565  16.9681456200227 59.3645951646925  C 17.0762229806598 58.7181567418465  17.0762229806598 58.0717183190005  16.8600682593857 57.3175401590135  C 16.8600682593857 57.3175401590135  16.6439135381115 56.7788414733084  16.6439135381115 56.7788414733084  C 16.6439135381115 56.7788414733084  17.1843003412969 56.6711017361674  17.1843003412969 56.6711017361674  C 18.9135381114903 56.2401427876034  19.8862343572241 56.3478825247444  20.2104664391354 57.1020606847314  C 20.2104664391354 57.1020606847314  21.0750853242321 59.2568554275515  21.0750853242321 59.2568554275515  L 21.0750853242321 59.3645951646925  L 21.0750853242321 59.4723349018335  L 21.5073947667804 63.0277462274866  L 22.9124004550626 63.7819243874736  L 23.0204778156996 63.7819243874736  L 23.1285551763367 63.7819243874736  L 23.9931740614334 64.5361025474606  L 24.8577929465302 63.5664449131916  L 25.8304891922639 62.8122667532046  C 25.8304891922639 62.8122667532046  26.1547212741752 62.8122667532046  26.1547212741752 62.8122667532046  C 26.9112627986348 63.0277462274866  27.3435722411831 63.5664449131916  27.5597269624573 64.3206230731786  C 27.5597269624573 64.3206230731786  27.9920364050057 67.1218562388447  27.9920364050057 67.1218562388447  L 28.1001137656428 67.5528151874087  L 31.0182025028441 73.8017199415869  L 32.2070534698521 74.9868570501379  L 32.3151308304892 75.0945967872789  L 32.3151308304892 75.2023365244199  L 32.8555176336746 77.788090215804  L 33.0716723549488 80.266104170047  C 33.0716723549488 80.266104170047  33.1797497155859 80.481583644329  33.1797497155859 80.481583644329  C 33.9362912400455 79.404186272919  34.584755403868 78.865487587214  35.0170648464164 79.080967061496  C 35.4493742889647 79.188706798637  35.5574516496018 79.404186272919  35.5574516496018 79.8351452214831  C 35.5574516496018 79.8351452214831  35.5574516496018 80.481583644329  35.5574516496018 80.481583644329  L 35.5574516496018 82.4208989128671  C 35.5574516496018 82.4208989128671  35.5574516496018 82.9595975985721  35.5574516496018 82.9595975985721  C 36.0978384527872 83.0673373357131  36.5301478953356 82.9595975985721  36.6382252559727 82.6363783871491  C 36.6382252559727 82.6363783871491  37.7189988623436 81.1280220671751  37.7189988623436 81.1280220671751  C 37.7189988623436 81.1280220671751  38.9078498293515 79.942884958624  38.9078498293515 79.942884958624  C 39.6643913538112 79.404186272919  40.4209328782708 78.973227324355  41.2855517633675 78.973227324355  C 41.2855517633675 78.973227324355  41.3936291240045 78.973227324355  41.3936291240045 78.973227324355  L 43.6632536973834 79.51192601006  L 44.3117178612059 79.188706798637  L 45.5005688282139 77.680350478663  C 45.5005688282139 77.680350478663  45.2844141069397 75.3100762615609  45.2844141069397 75.3100762615609  C 44.5278725824801 74.0171994158689  44.2036405005688 72.9398020444588  44.419795221843 72.1856238844718  C 44.419795221843 72.1856238844718  44.7440273037543 70.2463086159338  44.7440273037543 70.2463086159338  L 44.7440273037543 70.0308291416518  L 44.8521046643914 69.8153496673698  L 46.905574516496 68.6302125588187  L 47.0136518771331 68.6302125588187  L 48.5267349260523 67.6605549245497  L 50.2559726962457 65.1825409703067  L 50.4721274175199 63.3509654389096  L 48.5267349260523 58.8258964789875  L 52.8498293515358 60.7652117475256  L 52.8498293515358 58.9336362161285  L 52.8498293515358 58.8258964789875  L 54.4709897610921 57.4252798961545  L 57.6052332195677 56.5633619990264  L 57.8213879408419 56.5633619990264  L 59.6587030716724 60.5497322732435  L 59.6587030716724 60.7652117475256  L 59.4425483503982 62.2735680674996  C 59.4425483503982 62.2735680674996  59.6587030716724 63.6741846503326  59.6587030716724 63.6741846503326  C 59.8748577929465 64.3206230731786  60.3071672354949 64.6438422846016  60.6313993174061 64.6438422846016  C 61.0637087599545 64.6438422846016  61.4960182025028 64.3206230731786  61.9283276450512 63.7819243874736  C 61.9283276450512 63.7819243874736  62.0364050056883 63.5664449131916  62.0364050056883 63.5664449131916  L 62.1444823663254 63.5664449131916  L 64.7383390216155 62.7045270160636  C 64.7383390216155 62.7045270160636  64.8464163822526 62.7045270160636  64.8464163822526 62.7045270160636  C 66.2514220705347 62.7045270160636  66.8998862343572 63.0277462274866  67.2241183162685 63.6741846503326  C 67.2241183162685 63.6741846503326  67.4402730375427 66.5831575531397  67.4402730375427 66.5831575531397  L 67.4402730375427 66.6908972902807  L 67.9806598407281 66.7986370274217  L 69.061433447099 67.1218562388447  L 70.6825938566553 67.0141165017037  L 73.3845278725825 66.2599383417167  L 75.0056882821388 64.8593217588836  L 75.1137656427759 63.6741846503326  L 74.3572241183163 62.8122667532046  L 71.547212741752 61.8426091189356  L 71.3310580204778 61.7348693817946  L 71.3310580204778 61.6271296446536  L 68.0887372013652 58.3949375304235  L 68.4129692832764 58.1794580561415  L 70.0341296928328 56.7788414733084  L 70.1422070534698 56.6711017361674  L 71.7633674630262 56.0246633133214  L 72.0875995449374 56.0246633133214  L 74.2491467576792 56.4556222618854  L 74.3572241183163 56.4556222618854  L 74.4653014789534 56.5633619990264  L 74.4653014789534 55.7014441018984  L 73.4926052332196 54.0853480447834  L 71.9795221843004 53.3311698847964  L 69.9260523321957 50.3144572448483  L 69.8179749715586 50.2067175077073  L 69.8179749715586 50.0989777705663  L 68.8452787258248 46.5435664449132  L 68.8452787258248 43.8500730163881  L 70.5745164960182 42.2339769592731  L 73.1683731513083 42.2339769592731  L 79.2207053469852 42.7726756449781  L 82.0307167235495 38.786305370761  L 82.0307167235495 38.570825896479  L 82.2468714448237 38.570825896479  L 84.5164960182025 37.3856887879279  L 85.7053469852105 35.0154145708259  L 85.8134243458476 34.9076748336849  L 88.5153583617747 32.6451403537238  L 89.8122866894198 30.2748661366218  L 89.8122866894198 30.1671263994808  L 89.9203640500569 30.1671263994808  L 89.9203640500569 30.0593866623398  L 91.0011376564278 28.9819892909297  L 92.2980659840728 26.8271945481097  L 92.7303754266212 23.4872626967386  L 92.7303754266212 23.1640434853156  L 92.8384527872582 23.0563037481746  L 94.5676905574517 21.8711666396236  L 95 21.4402076910596  L 92.4061433447099 21.0092487424955  L 88.0830489192264 21.2247282167775  L 87.9749715585893 21.1169884796365  L 86.353811149033 19.8241116339445  L 86.1376564277588 19.8241116339445  L 86.1376564277588 19.7163718968035  L 85.2730375426621 18.4234950511115  L 85.056882821388 18.5312347882525  C 85.056882821388 18.5312347882525  84.9488054607509 18.7467142625345  84.9488054607509 18.7467142625345  C 84.7326507394767 19.0699334739575  84.1922639362912 19.1776732110985  83.5437997724687 19.1776732110985  C 83.5437997724687 19.1776732110985  82.8953356086462 19.5008924225215  82.8953356086462 19.5008924225215  C 82.679180887372 19.6086321596625  82.5711035267349 19.7163718968035  82.2468714448237 19.6086321596625  C 82.0307167235495 19.6086321596625  81.9226393629124 19.2854129482395  81.7064846416382 18.7467142625345  C 81.5984072810012 18.2080155768295  81.382252559727 17.6693168911245  80.7337883959044 17.1306182054194  C 80.7337883959044 17.1306182054194  80.6257110352674 17.0228784682784  80.6257110352674 17.0228784682784  L 80.6257110352674 16.9151387311374  L 80.5176336746303 16.9151387311374  L 79.9772468714448 15.5145221483044  L 79.5449374288965 15.5145221483044  L 77.9237770193402 16.5919195197144  L 77.8156996587031 16.6996592568554  L 77.707622298066 16.6996592568554  L 73.9249146757679 17.4538374168424  L 73.7087599544937 17.4538374168424  L 73.4926052332196 17.3460976797014  L 71.0068259385665 15.6222618854454  L 70.8987485779295 15.5145221483044  L 70.8987485779295 15.4067824111634  L 70.7906712172924 15.4067824111634  L 70.1422070534698 14.1139055654714  C 70.1422070534698 14.1139055654714  68.3048919226394 16.0532208340094  68.3048919226394 16.0532208340094  C 67.0079635949943 17.5615771539835  66.0352673492605 17.9925361025474  65.386803185438 17.5615771539835  C 65.386803185438 17.5615771539835  62.901023890785 16.2687003082914  62.901023890785 16.2687003082914  L 61.1717861205916 16.0532208340094  L 60.9556313993174 16.1609605711504  L 59.3344709897611 14.9758234625994  L 59.226393629124 14.8680837254584  L 58.9021615472128 14.7603439883174  L 59.6587030716724 11.8513710855103  L 59.6587030716724 10.8817134512413  L 58.6860068259386 10.4507545026773  L 58.5779294653015 10.4507545026773  L 56.3083048919227 7.97274054843421  L 56.4163822525597 6.14116501703715  L 50.7963594994312 5.60246633133213  C 50.7963594994312 5.60246633133213  48.6348122866894 4.41732922278111  48.6348122866894 4.41732922278111  C 48.094425483504 4.09411001135812  47.6621160409556 3.44767158851208  47.3378839590444 2.37027421710205  C 47.3378839590444 2.37027421710205  47.0136518771331 1.61609605711504  47.0136518771331 1.61609605711504  L 46.5813424345848 0  L 45.8248009101251 0.107739737140997  L 44.0955631399317 1.50835631997404  L 42.0420932878271 3.98637027421709  L 42.4744027303754 5.81794580561415  L 43.1228668941979 8.1882200227162  L 43.1228668941979 8.2959597598572  L 43.2309442548351 8.2959597598572  L 43.1228668941979 8.40369949699823  C 43.1228668941979 8.40369949699823  43.1228668941979 8.51143923413922  43.1228668941979 8.51143923413922  C 42.9067121729238 9.15787765698524  42.2582480091013 9.48109686840826  41.2855517633675 9.48109686840826  C 41.2855517633675 9.48109686840826  39.1240045506257 9.48109686840826  39.1240045506257 9.48109686840826  L 37.8270762229807 8.83465844556221  L 36.2059158134244 9.48109686840826  L 35.8816837315131 9.58883660554925  L 35.6655290102389 9.48109686840826  L 35.4493742889647 10.9894531883823  L 35.3412969283276 11.2049326626643  L 35.3412969283276 11.5281518740873  L 35.0170648464164 11.5281518740873  C 35.0170648464164 11.5281518740873  32.3151308304892 10.6662339769593  32.3151308304892 10.6662339769593  C 32.3151308304892 11.5281518740873  32.4232081911263 12.1745902969333  32.8555176336746 12.9287684569203  C 33.1797497155859 13.6829466169073  33.287827076223 14.2216453026124  32.9635949943117 14.8680837254584  C 32.9635949943117 14.8680837254584  32.6393629124005 15.7300016225864  32.6393629124005 15.7300016225864  C 32.3151308304892 16.0532208340094  31.3424345847554 16.1609605711504  29.9374288964733 16.0532208340094  C 29.9374288964733 16.0532208340094  28.1001137656428 16.0532208340094  28.1001137656428 16.0532208340094  L 27.9920364050057 19.0699334739575  L 25.6143344709898 18.2080155768295  L 25.5062571103527 18.2080155768295  L 25.3981797497156 18.1002758396885  L 24.2093287827076 15.8377413597274  L 21.6154721274175 14.9758234625994  L 20.967007963595 13.5752068797663  L 19.9943117178612 14.3293850397534  L 19.8862343572241 14.3293850397534  L 18.2650739476678 14.6526042511764  L 17.8327645051195 14.6526042511764  L 16.9681456200227 12.7132889826383  L 16.103526734926 11.5281518740873  C 16.103526734926 11.5281518740873  15.9954493742889 11.4204121369463  15.9954493742889 11.4204121369463  C 15.1308304891923 10.3430147655363  14.6985210466439 9.37335713126723  14.4823663253697 8.83465844556221  C 14.4823663253697 8.72691870842122  14.2662116040956 8.51143923413922  13.7258248009101 8.40369949699823  C 13.7258248009101 8.40369949699823  13.2935153583618 8.2959597598572  13.2935153583618 8.2959597598572  C 12.5369738339022 7.97274054843421  11.9965870307167 7.3263021255882  11.6723549488055 6.35664449131917  C 11.6723549488055 6.35664449131917  11.2400455062571 4.5250689599221  11.2400455062571 4.5250689599221  L 11.2400455062571 3.01671263994809  L 10.4835039817975 1.61609605711504  L 9.18657565415245 2.04705500567906  L 9.07849829351534 2.04705500567906  L 8.97042093287825 2.04705500567906  Z " fill-rule="nonzero" fill="#4ecb73" stroke="none" transform="matrix(1 0 0 1 177 203 )" />
  </g>
</svg>