<?xml version="1.0" encoding="utf-8"?>
<svg version="1.1" xmlns:xlink="http://www.w3.org/1999/xlink" width="193px" height="165px" xmlns="http://www.w3.org/2000/svg">
  <g transform="matrix(1 0 0 1 -185 -4 )">
    <path d="M 188.675070028011 20.5843729481287  C 188.675070028011 20.5843729481287  189.10756302521 17.5508864084045  189.10756302521 17.5508864084045  L 188.350700280112 15.1674326986211  L 186.404481792717 11.8089297439265  L 184.782633053221 10.9422193040053  L 183.160784313725 11.8089297439265  L 182.187675070028 13.7590282337492  C 182.187675070028 13.7590282337492  178.727731092437 14.5173998686802  178.727731092437 14.5173998686802  C 178.403361344538 14.7340774786605  178.078991596639 14.8424162836507  177.862745098039 15.1674326986211  C 177.862745098039 15.1674326986211  177.214005602241 15.9258043335522  177.214005602241 15.9258043335522  L 175.592156862745 17.225869993434  C 175.592156862745 17.225869993434  173.75406162465 17.6592252133946  173.75406162465 17.6592252133946  C 173.105322128851 17.5508864084045  172.132212885154 17.0091923834537  170.834733893557 16.0341431385423  C 168.564145658263 13.7590282337492  167.482913165266 12.2422849638871  167.482913165266 11.3755745239659  C 167.482913165266 11.3755745239659  167.482913165266 8.55876559422193  167.482913165266 8.55876559422193  L 167.807282913165 7.80039395929087  L 164.671708683473 6.71700590938936  C 164.671708683473 6.71700590938936  164.563585434174 7.80039395929087  164.563585434174 7.80039395929087  C 164.563585434174 8.12541037426133  164.239215686274 8.55876559422193  163.698599439776 8.88378200919238  C 163.698599439776 8.88378200919238  162.617366946779 9.31713722915299  162.617366946779 9.31713722915299  L 160.563025210084 8.77544320420223  L 160.887394957983 9.96717005909389  C 160.887394957983 9.96717005909389  158.07619047619 8.12541037426133  158.07619047619 8.12541037426133  C 157.427450980392 6.82534471437951  157.211204481793 5.63361785948785  157.211204481793 4.33355219960604  C 157.211204481793 3.25016414970453  157.319327731092 2.60013131976362  157.751820728291 2.16677609980302  C 157.751820728291 2.16677609980302  158.40056022409 0.975049244911359  158.40056022409 0.975049244911359  L 158.18431372549 0  C 158.18431372549 0  155.373109243697 0.433355219960604  155.373109243697 0.433355219960604  C 153.967507002801 0.541694024950755  152.994397759104 1.40840446487196  152.453781512605 3.03348653972423  C 152.453781512605 3.03348653972423  150.831932773109 5.63361785948785  150.831932773109 5.63361785948785  L 152.453781512605 5.5252790544977  L 154.075630252101 6.17531188443861  L 154.5081232493 6.60866710439921  L 154.724369747899 8.88378200919238  L 155.373109243697 11.0505581089954  C 155.373109243697 11.0505581089954  151.805042016807 18.4175968483257  151.805042016807 18.4175968483257  C 151.156302521008 19.392646093237  150.831932773109 21.9927774130006  150.61568627451 25.8929743926461  C 150.61568627451 25.8929743926461  149.210084033613 28.9264609323703  149.210084033613 28.9264609323703  C 149.210084033613 28.9264609323703  150.183193277311 30.0098489822718  150.183193277311 30.0098489822718  C 150.291316526611 31.8516086671044  150.183193277311 32.8266579120158  149.750700280112 33.043335521996  C 148.669467787115 33.5850295469468  146.182633053221 36.1851608667104  142.182072829132 41.0604070912672  C 142.182072829132 41.0604070912672  141.641456582633 41.2770847012475  141.641456582633 41.2770847012475  C 139.911484593838 40.0853578463559  138.614005602241 39.2186474064347  137.857142857143 38.3519369665135  C 137.208403361345 37.9185817465529  135.586554621849 37.5935653315824  132.883473389356 37.5935653315824  C 132.883473389356 37.5935653315824  132.775350140056 42.5771503611293  132.775350140056 42.5771503611293  C 132.775350140056 42.5771503611293  130.721008403361 52.1109652002626  130.721008403361 52.1109652002626  C 130.288515406162 53.3026920551543  130.180392156863 55.4694681549573  130.180392156863 58.7196323046618  C 130.180392156863 58.7196323046618  130.937254901961 59.6946815495732  130.937254901961 59.6946815495732  L 131.585994397759 58.3946158896914  L 134.289075630252 56.8778726198293  L 141.208963585434 57.9612606697308  L 141.965826330532 57.0945502298096  L 142.93893557423 55.3611293499672  L 145.966386554622 54.6027577150361  C 145.966386554622 54.6027577150361  149.534453781513 54.3860801050558  149.534453781513 54.3860801050558  C 150.61568627451 54.6027577150361  151.913165266106 56.0111621799081  153.535014005602 58.1779382797111  C 157.859943977591 60.3447143795141  160.238655462185 62.2948128693368  160.779271708683 64.0282337491793  C 161.103641456583 64.8949441891005  161.103641456583 65.5449770190414  160.779271708683 66.3033486539724  C 160.454901960784 67.0617202889035  159.698039215686 67.4950755088641  158.616806722689 67.6034143138542  C 153.210644257703 67.3867367038739  150.183193277311 67.3867367038739  149.101960784314 67.7117531188444  C 149.101960784314 67.7117531188444  146.50700280112 69.4451739986868  146.50700280112 69.4451739986868  C 143.263305322129 71.8286277084701  141.100840336134 73.0203545633618  139.911484593838 73.0203545633618  C 139.911484593838 73.0203545633618  137.749019607843 73.3453709783322  137.749019607843 73.3453709783322  C 137.749019607843 73.3453709783322  136.451540616246 78.7623112278398  136.451540616246 78.7623112278398  C 136.127170868347 80.387393302692  135.586554621849 81.4707813525935  134.613445378151 82.2291529875246  C 133.748459383753 83.0958634274458  132.450980392157 83.6375574523966  130.721008403361 83.962573867367  C 128.666666666667 84.2875902823375  126.936694677871 85.0459619172686  125.314845938375 86.0210111621799  C 125.314845938375 86.0210111621799  123.47675070028 89.9212081418253  123.47675070028 89.9212081418253  L 118.178711484594 92.0879842416283  C 118.178711484594 92.0879842416283  115.367507002801 91.5462902166776  115.367507002801 91.5462902166776  C 113.421288515406 91.2212738017071  111.90756302521 90.6795797767564  110.934453781513 90.0295469468155  C 109.636974789916 89.3795141168746  108.23137254902 89.2711753118844  106.717647058824 89.704530531845  C 105.420168067227 91.5462902166776  104.771428571429 93.8214051214708  104.879551820728 96.3131976362442  C 104.987675070028 97.613263296126  105.312044817927 98.4799737360473  105.636414565826 98.6966513460276  C 105.636414565826 98.6966513460276  106.393277310924 98.5883125410374  106.393277310924 98.5883125410374  L 107.258263305322 98.0466185160867  C 107.258263305322 98.0466185160867  107.474509803922 101.513460275771  107.474509803922 101.513460275771  C 107.474509803922 102.705187130663  107.042016806723 103.571897570584  106.177030812325 104.221930400525  C 105.636414565826 104.655285620486  104.663305322129 105.088640840446  103.257703081233 105.521996060407  C 103.257703081233 105.521996060407  102.392717086835 105.738673670387  102.392717086835 105.738673670387  C 101.311484593838 106.172028890348  99.0408963585434 109.097176625082  95.6890756302521 114.405778069599  C 95.6890756302521 114.405778069599  92.3372549019608 116.464215364412  92.3372549019608 116.464215364412  C 92.8778711484594 116.464215364412  93.2022408963585 116.680892974393  93.0941176470588 117.114248194353  C 92.9859943977591 117.547603414314  92.6616246498599 117.655942219304  91.7966386554622 117.764281024294  C 91.7966386554622 117.764281024294  82.606162464986 117.547603414314  82.606162464986 117.547603414314  C 72.3344537815126 117.222586999343  64.3333333333333 120.039395929087  58.6028011204482 125.889691398555  C 58.6028011204482 125.889691398555  54.3859943977591 126.539724228496  54.3859943977591 126.539724228496  L 52.872268907563 124.047931713723  C 52.872268907563 124.047931713723  48.9798319327731 125.022980958634  48.9798319327731 125.022980958634  C 46.9254901960784 125.131319763624  44.2224089635854 124.589625738674  41.1949579831933 123.072882468812  C 38.3837535014006 121.88115561392  35.896918767507 120.256073539068  33.4100840336134 118.305975049245  C 31.7882352941177 117.005909389363  29.733893557423 116.139198949442  27.3551820728291 115.705843729481  C 27.3551820728291 115.705843729481  23.8952380952381 115.380827314511  23.8952380952381 115.380827314511  C 23.8952380952381 115.380827314511  20.0028011204482 115.922521339462  20.0028011204482 115.922521339462  C 17.1915966386555 116.355876559422  14.3803921568628 116.355876559422  11.7854341736695 116.139198949442  C 8.64985994397759 115.922521339462  4.86554621848739 115.05581089954  0.324369747899172 113.647406434668  C 0.324369747899172 113.647406434668  0 114.297439264609  0 114.297439264609  L 0.432492997198886 115.597504924491  L 1.40560224089637 117.655942219304  L 3.67619047619048 120.472751149048  L 3.35182072829131 122.856204858831  L 1.94621848739497 124.697964543664  C 1.94621848739497 124.697964543664  3.35182072829131 126.106369008536  3.35182072829131 126.106369008536  C 3.89243697478991 126.648063033487  4.21680672268908 127.081418253447  4.21680672268908 127.514773473408  C 4.21680672268908 127.514773473408  4.54117647058822 129.573210768221  4.54117647058822 129.573210768221  L 6.16302521008402 131.198292843073  L 6.37927170868348 132.823374917925  L 6.37927170868348 133.906762967827  L 7.35238095238096 134.665134602758  C 7.35238095238096 134.665134602758  8.00112044817928 134.448456992777  8.00112044817928 134.448456992777  C 8.43361344537816 133.256730137886  8.97422969187676 132.823374917925  9.73109243697479 132.715036112935  C 9.73109243697479 132.715036112935  10.5960784313726 132.390019697965  10.5960784313726 132.390019697965  L 16.3266106442577 131.848325673014  L 18.5971988795518 130.981615233093  L 19.1378151260504 130.656598818122  C 19.1378151260504 130.656598818122  20.3271708683474 133.256730137886  20.3271708683474 133.256730137886  C 20.5434173669468 133.906762967827  20.4352941176471 134.448456992777  20.1109243697479 134.990151017728  C 20.1109243697479 134.990151017728  16.975350140056 139.432042022324  16.975350140056 139.432042022324  L 17.1915966386555 140.190413657255  L 18.5971988795518 141.598818122127  C 18.5971988795518 141.598818122127  20.0028011204482 142.465528562049  20.0028011204482 142.465528562049  C 20.7596638655462 143.33223900197  21.3002801120448 143.873933026921  21.9490196078432 144.090610636901  C 22.7058823529412 144.307288246881  23.4627450980392 144.957321076822  24.1114845938376 145.824031516743  C 24.1114845938376 145.824031516743  25.3008403361344 146.582403151674  25.3008403361344 146.582403151674  L 26.0577030812325 147.882468811556  L 26.1658263305322 149.074195666448  L 26.5983193277311 150.80761654629  L 29.3014005602241 151.240971766251  L 29.733893557423 151.674326986211  L 30.490756302521 153.191070256074  L 32.6532212885154 153.949441891005  L 34.1669467787115 153.191070256074  L 33.9507002801121 152.324359816152  L 32.5450980392157 151.024294156271  L 33.9507002801121 148.315824031517  L 36.5456582633053 148.315824031517  L 40.3299719887955 149.724228496389  L 42.3843137254902 149.399212081418  C 42.3843137254902 149.399212081418  44.006162464986 147.882468811556  44.006162464986 147.882468811556  C 45.8442577030812 145.607353906763  47.0336134453781 144.632304661852  47.7904761904762 145.173998686802  C 47.7904761904762 145.173998686802  48.6554621848739 145.065659881812  48.6554621848739 145.065659881812  C 49.6285714285714 145.065659881812  50.16918767507 145.173998686802  50.4935574229692 145.282337491793  C 50.6016806722689 145.499015101773  50.7098039215686 145.715692711753  50.7098039215686 145.932370321733  C 50.7098039215686 146.365725541694  51.1422969187675 147.232435981615  51.7910364145658 148.424162836507  C 51.7910364145658 148.424162836507  52.115406162465 150.157583716349  52.115406162465 150.157583716349  L 51.6829131652661 152.216021011162  L 49.7366946778712 154.599474720946  L 45.7361344537815 156.441234405778  L 45.1955182072829 157.52462245568  L 44.6549019607843 160.666447800394  L 44.9792717086835 162.183191070256  L 45.952380952381 163.808273145108  L 47.6823529411765 165  L 52.2235294117647 165  L 56.0078431372549 164.458305975049  C 56.0078431372549 164.458305975049  56.5484593837535 163.916611950098  56.5484593837535 163.916611950098  C 57.0890756302521 163.266579120158  57.6296918767507 163.049901510177  57.9540616246499 163.049901510177  C 57.9540616246499 163.049901510177  60.5490196078431 163.483256730138  60.5490196078431 163.483256730138  C 60.5490196078431 162.291529875246  60.5490196078431 161.641497045305  60.981512605042 160.991464215364  C 60.981512605042 160.991464215364  62.0627450980392 159.149704530532  62.0627450980392 159.149704530532  L 62.0627450980392 155.682862770847  L 64.0089635854341 149.940906106369  L 67.5770308123249 146.907419566645  C 67.5770308123249 146.907419566645  70.7126050420168 147.990807616546  70.7126050420168 147.990807616546  C 72.2263305322129 149.074195666448  72.9831932773109 149.940906106369  72.9831932773109 150.48260013132  C 72.9831932773109 150.48260013132  72.7669467787115 152.866053841103  72.7669467787115 152.866053841103  L 71.793837535014 154.382797110965  L 71.0369747899159 156.549573210768  L 71.0369747899159 158.933026920552  L 71.793837535014 160.016414970453  L 72.7669467787115 159.908076165463  C 72.7669467787115 159.908076165463  74.6050420168067 159.908076165463  74.6050420168067 159.908076165463  C 75.4700280112045 160.341431385423  76.0106442577031 161.099803020355  76.4431372549019 162.183191070256  C 76.4431372549019 162.183191070256  77.4162464985994 162.508207485227  77.4162464985994 162.508207485227  L 81.3086834733894 164.241628365069  L 82.9305322128851 164.78332239002  L 85.2011204481793 164.458305975049  L 86.1742296918767 163.158240315167  L 87.4717086834734 157.84963887065  L 87.5798319327731 154.924491135916  L 87.9042016806723 154.491135915955  L 89.9585434173669 152.757715036113  L 91.1478991596639 151.240971766251  L 93.418487394958 150.157583716349  L 94.7159663865546 149.399212081418  L 96.3378151260504 148.749179251477  L 95.4728291316526 145.499015101773  L 99.1490196078431 145.932370321733  L 101.095238095238 146.799080761655  L 101.635854341737 144.632304661852  L 102.176470588235 144.415627051871  L 103.906442577031 144.848982271832  L 104.771428571429 144.848982271832  L 106.393277310924 143.007222586999  L 108.880112044818 142.465528562049  L 110.718207282913 140.732107682206  L 111.691316526611 139.323703217334  C 111.691316526611 139.323703217334  111.691316526611 137.590282337492  111.691316526611 137.590282337492  C 111.691316526611 136.940249507551  112.01568627451 136.50689428759  112.664425770308 136.18187787262  C 112.664425770308 136.18187787262  115.043137254902 136.3985554826  115.043137254902 136.3985554826  L 115.9081232493 135.856861457649  L 116.232492997199 134.340118187787  L 118.394957983193 133.690085357846  L 121.314285714286 134.015101772817  L 123.47675070028 133.473407747866  L 124.774229691877 132.173342087984  L 125.639215686275 130.439921208142  L 124.017366946779 128.706500328299  L 123.69299719888 127.298095863427  L 123.260504201681 125.347997373605  C 123.260504201681 125.347997373605  124.233613445378 123.506237688772  124.233613445378 123.506237688772  C 124.233613445378 122.964543663821  124.557983193277 122.20617202889  125.422969187675 121.339461588969  C 125.422969187675 121.339461588969  126.612324929972 118.956007879186  126.612324929972 118.956007879186  L 127.801680672269 117.114248194353  L 129.423529411765 113.864084044649  L 130.937254901961 116.030860144452  L 131.585994397759 118.414313854235  L 131.910364145658 120.689428759028  L 133.424089635854 121.339461588969  L 133.964705882353 121.556139198949  L 135.370308123249 119.172685489166  L 136.127170868347 117.005909389363  L 136.775910364146 117.222586999343  L 139.911484593838 118.305975049245  L 141.425210084034 117.114248194353  L 143.263305322129 116.897570584373  L 144.344537815126 115.05581089954  L 144.344537815126 112.780695994747  L 145.101400560224 109.313854235062  L 148.020728291317 109.963887065003  L 149.101960784314 108.013788575181  L 151.588795518207 107.7971109652  L 152.129411764706 108.013788575181  L 153.210644257703 109.530531845043  L 153.535014005602 112.130663164806  L 154.616246498599 113.105712409718  L 156.129971988795 111.697307944846  C 156.129971988795 111.697307944846  156.454341736695 112.130663164806  156.454341736695 112.130663164806  C 156.994957983193 112.672357189757  157.211204481793 113.214051214708  157.211204481793 113.864084044649  C 157.211204481793 113.864084044649  157.211204481793 115.814182534471  157.211204481793 115.814182534471  L 156.454341736695 117.764281024294  L 156.994957983193 118.630991464215  L 158.07619047619 119.822718319107  L 162.617366946779 120.472751149048  L 163.266106442577 121.014445173999  L 164.563585434174 119.172685489166  L 165.752941176471 118.089297439265  L 165.320448179272 116.464215364412  L 164.131092436975 109.530531845043  L 167.266666666667 111.047275114905  L 168.888515406162 112.780695994747  L 169.75350140056 113.647406434668  L 171.050980392157 112.780695994747  L 175.592156862745 107.7971109652  L 177.322128851541 106.605384110309  L 179.160224089636 104.005252790545  L 181.755182072829 104.438608010506  C 181.755182072829 104.438608010506  182.944537815126 104.438608010506  182.944537815126 104.438608010506  C 182.944537815126 103.463558765594  183.160784313725 102.813525935653  183.268907563025 102.380170715693  C 183.268907563025 102.380170715693  185.10700280112 100.21339461589  185.10700280112 100.21339461589  L 185.647619047619 99.8883782009192  L 187.810084033613 100.64674983585  L 190.405042016807 100.32173342088  L 192.135014005602 98.4799737360473  L 193 96.854891661195  L 192.459383753501 95.9881812212738  L 190.945658263305 96.7465528562048  L 188.783193277311 94.7964543663821  L 189.431932773109 91.7629678266579  L 189.648179271709 89.5961917268549  L 189.10756302521 87.7544320420223  L 187.593837535014 87.2127380170716  L 186.080112044818 84.2875902823375  L 184.025770308123 86.1293499671701  L 182.187675070028 87.3210768220617  L 181.53893557423 87.2127380170716  L 179.592717086835 85.370978332239  L 178.187114845938 82.2291529875246  L 177.53837535014 79.9540380827314  L 177.53837535014 76.5955351280368  L 177.322128851541 74.645436638214  L 175.808403361345 74.1037426132633  L 172.240336134454 71.2869336835194  L 174.078431372549 69.2284963887065  C 174.078431372549 69.2284963887065  176.132773109244 68.7951411687459  176.132773109244 68.7951411687459  C 176.781512605042 68.7951411687459  177.322128851541 69.1201575837163  177.754621848739 69.6618516086671  C 177.754621848739 69.6618516086671  179.268347338936 70.8535784635587  179.268347338936 70.8535784635587  L 180.890196078431 69.5535128036769  L 182.079551820728 67.9284307288247  L 182.079551820728 66.5200262639527  L 181.647058823529 63.0531845042679  L 181.32268907563 61.6447800393959  L 178.943977591036 61.2114248194353  L 178.943977591036 59.8030203545634  L 176.781512605042 57.0945502298096  L 175.592156862745 55.0361129349967  L 177.754621848739 51.4609323703217  L 179.052100840336 51.0275771503611  L 180.241456582633 50.0525279054498  L 181.647058823529 45.7189757058437  L 183.485154061625 43.6605384110309  L 185.647619047619 43.01050558109  L 186.945098039216 44.3105712409718  L 188.134453781513 41.0604070912672  L 187.377591036415 38.6769533814839  L 187.593837535014 35.6434668417597  L 188.891316526611 34.0183847669074  L 189.756302521008 32.5016414970453  C 189.756302521008 32.5016414970453  189.864425770308 31.2015758371635  189.864425770308 31.2015758371635  C 189.864425770308 30.5515430072226  189.540056022409 29.4681549573211  188.891316526611 27.8430728824688  C 188.891316526611 27.8430728824688  188.891316526611 25.2429415627052  188.891316526611 25.2429415627052  C 188.891316526611 25.2429415627052  189.431932773109 22.8594878529219  189.431932773109 22.8594878529219  C 188.99943977591 21.8844386080105  188.675070028011 21.1260669730794  188.675070028011 20.5843729481287  Z " fill-rule="nonzero" fill="#0079fe" stroke="none" fill-opacity="0.219607843137255" transform="matrix(1 0 0 1 185 4 )" />
  </g>
</svg>