<?xml version="1.0" encoding="utf-8"?>
<svg version="1.1" xmlns:xlink="http://www.w3.org/1999/xlink" width="4px" height="4px" xmlns="http://www.w3.org/2000/svg">
  <g transform="matrix(1 0 0 1 -453 -309 )">
    <path d="M 0.190747688813235 0  C 0.190747688813235 0.405093694114137  0.190747688813235 0.270062462403272  0.0314424804596096 0.742671775428209  C -0.127862727894024 1.55285916569339  0.350052897166868 1.35031231303482  0.748315918050948 2.1604997033  C 1.06692633475822 2.70062463014346  0.907621126404582 2.43056216672173  1.4651893556423 2.70062463014346  C 2.02275758488001 2.97068709356519  2.18206279323363 3.03820270432834  2.18206279323363 3.51081202040864  C 2.18206279323363 3.91590570535668  2.34136800158727 4.05093693706754  2.65997841829454 3.98342132630439  C 2.97858883500179 3.91590570535668  2.65997841829454 3.24074955698692  2.81928362664817 2.70062463014346  C 2.97858883500179 2.09298408235229  3.29719925170906 1.89043723987827  3.69546227259314 1.21528108132395  C 3.85476748094677 0.877703007139073  3.92034739582318 0.20254684654784  4 0  C 4 0  0.190747688813235 0  0.190747688813235 0  Z " fill-rule="nonzero" fill="#0079fe" stroke="none" transform="matrix(1 0 0 1 453 309 )" />
  </g>
</svg>