<?xml version="1.0" encoding="utf-8"?>
<svg version="1.1" xmlns:xlink="http://www.w3.org/1999/xlink" width="66px" height="41px" xmlns="http://www.w3.org/2000/svg">
  <g transform="matrix(1 0 0 1 -272 -213 )">
    <path d="M 9.93780687397708 0.645669291338577  L 8.31751227495907 0.107611548556424  L 8.20949263502452 0.538057742782152  L 8.74959083469718 1.18372703412073  L 11.5581014729951 3.12073490813649  L 11.5581014729951 3.22834645669291  L 11.6661211129296 3.22834645669291  L 13.3944353518821 5.16535433070864  L 13.1783960720131 5.38057742782152  L 12.0981996726677 6.67191601049868  L 11.9901800327332 6.7795275590551  L 11.8821603927987 6.99475065616798  L 10.0458265139116 6.99475065616798  L 8.9656301145663 7.1023622047244  L 8.20949263502452 7.85564304461941  L 8.53355155482813 8.82414698162729  L 8.53355155482813 8.93175853018371  L 8.64157119476268 10.007874015748  L 9.61374795417346 11.4068241469816  L 9.61374795417346 11.514435695538  L 9.61374795417346 14.5275590551181  L 10.4779050736497 14.8503937007874  L 11.9901800327332 15.2808398950131  L 12.0981996726677 15.2808398950131  L 12.2062193126023 15.3884514435695  L 12.3142389525368 15.496062992126  L 13.7184942716858 17.4330708661417  L 13.7184942716858 17.5406824146981  L 14.4746317512275 19.4776902887139  L 14.4746317512275 19.5853018372703  C 14.4746317512275 19.5853018372703  14.4746317512275 20.8766404199475  14.4746317512275 20.8766404199475  C 14.366612111293 21.6299212598425  14.1505728314239 22.2755905511811  13.9345335515548 22.7060367454068  C 13.3944353518821 23.4593175853018  12.4222585924714 24.1049868766404  10.9099836333879 24.750656167979  C 10.9099836333879 24.750656167979  7.23731587561374 26.9028871391076  7.23731587561374 26.9028871391076  L 7.12929623567918 26.9028871391076  L 0.43207855973811 27.3333333333333  L 0 28.9475065616798  L 1.18821603927986 31.0997375328084  L 1.18821603927986 31.2073490813648  L 1.18821603927986 31.3149606299213  L 1.51227495908345 34.1128608923884  L 5.18494271685762 38.4173228346457  L 5.29296235679212 38.4173228346457  L 5.29296235679212 38.5249343832021  L 6.80523731587563 41  L 6.91325695581012 40.6771653543307  L 6.91325695581012 40.5695538057743  L 8.10147299509002 37.2335958005249  L 8.20949263502452 37.1259842519685  L 10.3698854337152 34.3280839895013  L 10.4779050736497 34.2204724409449  L 13.1783960720131 32.9291338582677  L 13.3944353518821 32.9291338582677  L 15.1227495908347 34.005249343832  L 17.3911620294599 33.7900262467192  L 16.6350245499181 30.0236220472441  L 17.0671031096563 29.9160104986876  L 19.1194762684124 29.7007874015748  L 21.2798690671031 29.8083989501312  L 21.4959083469722 29.8083989501312  L 21.4959083469722 29.9160104986876  L 25.8166939443535 31.8530183727034  L 29.4893617021277 32.6062992125984  L 29.5973813420622 32.6062992125984  L 29.7054009819967 32.6062992125984  L 30.8936170212766 33.4671916010499  L 32.6219312602291 34.1128608923884  L 32.6219312602291 34.2204724409449  L 33.7021276595745 35.1889763779527  L 34.3502454991817 35.4041994750656  L 35.5384615384615 34.3280839895013  L 35.5384615384615 34.2204724409449  L 37.3747954173486 32.8215223097113  L 38.3469721767594 30.992125984252  L 40.0752864157119 31.9606299212598  L 40.0752864157119 32.0682414698163  L 40.0752864157119 32.1758530183727  L 40.5073649754501 33.5748031496063  L 40.5073649754501 33.8976377952756  L 40.291325695581 34.758530183727  L 40.3993453355155 34.9737532808399  L 41.4795417348609 34.4356955380578  L 42.9918166939444 32.9291338582677  L 44.3960720130933 32.9291338582677  L 44.3960720130933 33.0367454068241  L 44.5040916530278 33.0367454068241  C 44.5040916530278 33.0367454068241  45.4762684124386 33.6824146981627  45.4762684124386 33.6824146981627  C 46.1243862520458 34.3280839895013  46.3404255319149 34.8661417322835  46.1243862520458 35.4041994750656  C 46.1243862520458 35.4041994750656  46.0163666121113 37.7716535433071  46.0163666121113 37.7716535433071  L 46.6644844517185 38.9553805774278  C 46.6644844517185 38.9553805774278  46.8805237315875 39.0629921259842  46.8805237315875 39.0629921259842  C 49.4729950900164 36.2650918635171  51.2013093289689 34.8661417322835  52.2815057283142 34.8661417322835  C 52.2815057283142 34.8661417322835  55.1980360065466 34.8661417322835  55.1980360065466 34.8661417322835  L 55.8461538461538 33.4671916010499  L 58.1145662847791 32.3910761154856  L 58.2225859247136 32.3910761154856  L 61.0310965630115 32.1758530183727  L 63.9476268412439 30.6692913385827  L 63.9476268412439 30.5616797900263  L 65.7839607201309 30.5616797900263  L 65.4599018003273 29.7007874015748  L 65.5679214402619 29.485564304462  L 66 29.0551181102362  L 62.0032733224222 20.5538057742782  L 62.0032733224222 20.3385826771654  L 61.8952536824877 20.2309711286089  L 63.6235679214402 17.8635170603674  L 63.0834697217676 17.3254593175853  L 60.1669394435352 16.7874015748031  L 59.8428805237316 16.7874015748031  L 59.8428805237316 16.5721784776903  L 58.0065466448445 14.6351706036745  L 58.1145662847791 14.2047244094488  L 58.0065466448445 14.3123359580052  L 57.89852700491 14.4199475065617  C 57.89852700491 14.4199475065617  56.2782324058919 13.3438320209974  56.2782324058919 13.3438320209974  C 55.5220949263502 14.3123359580052  54.7659574468085 14.9580052493438  53.9018003273322 15.1732283464567  C 53.1456628477905 15.496062992126  51.9574468085106 14.6351706036745  50.3371522094926 12.6981627296588  C 50.3371522094926 12.6981627296588  49.4729950900164 11.6220472440945  49.4729950900164 11.6220472440945  C 49.3649754500818 11.4068241469816  48.6088379705401 11.6220472440945  47.4206219312602 12.0524934383202  C 45.5842880523732 12.6981627296588  44.3960720130933 12.8057742782152  43.8559738134206 12.4829396325459  C 43.3158756137479 11.9448818897638  43.0998363338789 10.8687664041995  43.3158756137479 9.46981627296586  C 43.4238952536825 8.28608923884513  43.3158756137479 7.64041994750656  43.0998363338789 7.31758530183725  C 43.0998363338789 7.31758530183725  29.0572831423895 6.56430446194225  29.0572831423895 6.56430446194225  C 27.7610474631751 6.0262467191601  26.6808510638298 5.48818897637795  26.1407528641571 4.95013123359579  C 26.1407528641571 4.95013123359579  23.9803600654664 4.41207349081364  23.9803600654664 4.41207349081364  C 23.1162029459902 4.08923884514434  21.4959083469722 2.69028871391076  19.3355155482815 0  C 19.3355155482815 0  17.9312602291325 1.18372703412073  17.9312602291325 1.18372703412073  L 15.7708674304419 0.538057742782152  L 9.93780687397708 0.645669291338577  Z " fill-rule="nonzero" fill="#0079fe" stroke="none" fill-opacity="0.658823529411765" transform="matrix(1 0 0 1 272 213 )" />
  </g>
</svg>