<?xml version="1.0" encoding="utf-8"?>
<svg version="1.1" xmlns:xlink="http://www.w3.org/1999/xlink" width="50px" height="49px" xmlns="http://www.w3.org/2000/svg">
  <g transform="matrix(1 0 0 1 -287 -178 )">
    <path d="M 11.0571736785329 16.1866024988994  L 10.9492988133765 16.1866024988994  L 10.84142394822 16.1866024988994  L 2.64293419633226 19.5096798331106  C 2.64293419633226 19.5096798331106  0.161812297734618 21.8679927799701  0.161812297734618 21.8679927799701  C -0.269687162891032 25.5126582432984  0.161812297734618 27.6565791040798  1.45631067961163 28.2997553623142  C 1.45631067961163 28.2997553623142  3.82955771305283 29.8004999648612  3.82955771305283 29.8004999648612  L 3.93743257820927 29.8004999648612  L 3.93743257820927 29.9076960079002  C 3.93743257820927 29.9076960079002  4.58468176914781 33.8739496003458  4.58468176914781 33.8739496003458  C 6.63430420711973 36.5538506763225  8.03667745415319 37.9473992358304  8.79180151024811 38.2689873649476  C 8.79180151024811 38.2689873649476  11.1650485436893 38.804967580143  11.1650485436893 38.804967580143  L 11.4886731391586 38.9121636231821  C 11.4886731391586 38.9121636231821  11.4886731391586 39.0193596662211  11.4886731391586 39.0193596662211  C 11.8122977346278 39.4481438383774  12.5674217907228 39.8769280105337  13.9697950377562 40.30571218269  C 13.9697950377562 40.30571218269  20.4422869471413 40.6273003118072  20.4422869471413 40.6273003118072  C 25.1887810140237 40.6273003118072  27.8856526429342 40.9488884409244  28.4250269687163 41.4848686561197  C 28.9644012944984 41.913652828276  29.0722761596548 42.9856132586667  28.9644012944984 44.5935539042527  C 28.856526429342 45.6655143346434  28.9644012944984 46.3086905928778  29.0722761596548 46.4158866359169  C 29.0722761596548 46.4158866359169  31.445523193096 45.8799064207215  31.445523193096 45.8799064207215  C 33.2793959007551 45.2367301624871  34.3581445523193 45.2367301624871  34.8975188781014 45.7727103776825  C 34.8975188781014 45.7727103776825  35.7605177993528 46.8446708080732  35.7605177993528 46.8446708080732  C 37.0550161812298 48.4526114536592  37.9180151024811 49.0957877118936  38.133764832794 48.9885916688545  C 38.7810140237325 48.7741995827764  39.5361380798274 48.131023324542  40.2912621359223 47.0590628941513  C 40.2912621359223 47.0590628941513  40.5070118662352 46.7374747650341  40.5070118662352 46.7374747650341  L 42.4487594390507 47.9166312384639  C 42.4487594390507 47.9166312384639  43.6353829557713 46.9518668511122  43.6353829557713 46.9518668511122  C 43.9590075512406 45.4511222485653  44.7141316073355 44.7007499472918  46.0086299892125 44.5935539042527  C 46.0086299892125 44.5935539042527  46.5480043149946 44.3791618181746  46.5480043149946 44.3791618181746  L 46.3322545846818 43.9503776460183  L 46.116504854369 43.7359855599402  L 46.2243797195254 43.6287895169011  C 46.2243797195254 43.6287895169011  46.3322545846818 40.9488884409244  46.3322545846818 40.9488884409244  C 45.4692556634305 39.6625359244556  44.3905070118663 39.2337517522993  43.2038834951456 39.4481438383774  C 42.0172599784251 39.7697319674946  41.1542610571737 39.7697319674946  40.8306364617044 39.3409477953383  C 40.6148867313916 39.0193596662211  40.6148867313916 38.804967580143  40.6148867313916 38.3761834079867  C 39.8597626752967 37.0898308915179  39.1046386192018 36.0178704611272  38.133764832794 35.0531060737756  C 36.839266450917 33.9811456433849  36.5156418554477 33.0163812560332  36.839266450917 32.0516168686816  C 36.839266450917 32.0516168686816  37.0550161812298 31.7300287395644  37.0550161812298 31.7300287395644  L 40.0755124056095 32.2660089547598  C 40.0755124056095 32.2660089547598  39.8597626752967 30.4436762230956  39.8597626752967 30.4436762230956  C 39.7518878101403 29.3717157927049  39.8597626752967 28.6213434914314  40.3991370010788 28.0853632762361  C 40.6148867313916 27.6565791040798  41.1542610571737 27.4421870180017  41.6936353829558 27.3349909749626  C 41.6936353829558 27.3349909749626  42.9881337648328 26.9062068028063  42.9881337648328 26.9062068028063  C 42.9881337648328 26.9062068028063  42.9881337648328 26.370226587611  42.9881337648328 26.370226587611  C 42.0172599784251 24.3335017698687  41.6936353829558 22.8327571673217  42.1251348435814 22.1895809090873  C 42.1251348435814 22.1895809090873  42.77238403452 21.6536006938919  42.77238403452 21.6536006938919  C 43.0960086299892 21.5464046508529  44.1747572815534 21.760796736931  45.6850053937433 22.2967769521264  C 45.6850053937433 22.2967769521264  45.7928802588997 22.4039729951654  45.7928802588997 22.4039729951654  C 45.7928802588997 22.4039729951654  45.7928802588997 22.6183650812436  45.7928802588997 22.6183650812436  C 46.9795037756203 24.0119136407514  47.6267529665588 24.869481985064  47.9503775620281 25.0838740711421  C 47.9503775620281 25.0838740711421  50 21.760796736931  50 21.760796736931  C 48.1661272923409 19.5096798331106  47.1952535059332 17.9017391875245  46.8716289104639 17.2585629292901  C 46.8716289104639 17.2585629292901  45.2535059331176 18.3305233596808  45.2535059331176 18.3305233596808  L 45.0377562028048 18.1161312736027  L 40.7227615965481 17.044170843212  L 40.6148867313916 17.044170843212  C 40.6148867313916 17.044170843212  40.6148867313916 16.9369748001729  40.6148867313916 16.9369748001729  C 38.7810140237325 16.0794064558604  37.7022653721683 15.1146420685087  37.5943905070119 14.1498776811571  C 37.5943905070119 14.1498776811571  35.0053937432579 12.9707212077274  35.0053937432579 12.9707212077274  L 35.0053937432579 10.5052122178288  C 35.0053937432579 10.5052122178288  39.7518878101403 7.71811509881296  39.7518878101403 7.71811509881296  C 39.5361380798274 6.43176258234414  39.2125134843582 5.1454100658753  38.6731391585761 4.07344963548461  C 38.6731391585761 4.07344963548461  37.9180151024811 2.57270503293763  37.9180151024811 2.57270503293763  C 37.9180151024811 2.57270503293763  34.6817691477886 2.89429316205485  34.6817691477886 2.89429316205485  C 33.1715210355988 3.53746942028926  31.7691477885653 3.85905754940648  30.3667745415318 3.85905754940648  C 30.3667745415318 3.85905754940648  27.0226537216828 3.10868524813298  27.0226537216828 3.10868524813298  L 27.0226537216828 1.92952877470323  L 26.4832793959007 1.82233273166416  L 25.512405609493 1.50074460254694  L 25.2966558791802 0.857568344312534  L 25.2966558791802 0.750372301273472  L 25.1887810140237 0.428784172156252  L 25.1887810140237 0.321588129117189  L 25.1887810140237 0  L 24.9730312837109 0.107196043039063  L 24.7572815533981 2.89429316205485  C 24.7572815533981 2.89429316205485  24.6494066882416 3.85905754940648  24.6494066882416 3.85905754940648  C 24.4336569579288 4.39503776460183  24.217907227616 4.71662589371901  24.4336569579288 4.93101797979717  C 24.9730312837109 5.68139028107064  24.8651564185545 6.53895862538321  24.3257820927724 7.28933092665668  C 24.3257820927724 7.28933092665668  24.7572815533981 9.11166365832087  24.7572815533981 9.11166365832087  L 24.6494066882416 9.21885970135994  L 24.4336569579288 9.32605574439899  L 23.1391585760518 10.5052122178288  L 23.1391585760518 12.9707212077274  C 23.1391585760518 12.9707212077274  22.8155339805825 13.0779172507664  22.8155339805825 13.0779172507664  C 20.4422869471413 14.1498776811571  18.8241639697951 14.6858578963524  17.8532901833872 14.6858578963524  C 17.8532901833872 14.6858578963524  13.1067961165049 14.3642697672352  13.1067961165049 14.3642697672352  L 11.0571736785329 16.1866024988994  Z " fill-rule="nonzero" fill="#0079fe" stroke="none" fill-opacity="0.658823529411765" transform="matrix(1 0 0 1 287 178 )" />
  </g>
</svg>