<?xml version="1.0" encoding="utf-8"?>
<svg version="1.1" xmlns:xlink="http://www.w3.org/1999/xlink" width="44px" height="78px" xmlns="http://www.w3.org/2000/svg">
  <g transform="matrix(1 0 0 1 -247 -149 )">
    <path d="M 16.4863523573201 18.6639004149378  L 14.6302729528536 17.8008298755187  L 13.9751861042184 17.6929460580913  L 12.8833746898263 24.2738589211618  L 14.7394540942928 26.4315352697095  L 16.4863523573201 27.1867219917012  L 16.5955334987593 27.1867219917012  L 16.7047146401985 27.2946058091286  L 18.9975186104218 29.1286307053942  L 22.1637717121588 29.8838174273859  L 22.272952853598 29.8838174273859  L 23.9106699751861 30.9626556016597  L 24.0198511166253 30.9626556016597  L 24.0198511166253 31.1784232365145  L 25.2208436724566 32.9045643153527  L 25.439205955335 33.1203319502075  L 25.3300248138958 33.3360995850622  C 25.3300248138958 33.3360995850622  24.2382133995037 35.0622406639004  24.2382133995037 35.0622406639004  C 24.0198511166253 35.2780082987552  24.0198511166253 35.8174273858921  24.0198511166253 36.6804979253112  C 24.0198511166253 36.6804979253112  24.1290322580646 36.6804979253112  24.1290322580646 36.6804979253112  L 24.1290322580646 38.7302904564315  L 24.0198511166253 38.8381742738589  L 23.0372208436725 42.0746887966805  L 22.9280397022333 42.6141078838174  L 22.7096774193549 42.6141078838174  L 22.3821339950372 42.50622406639  L 20.9627791563276 42.1825726141079  L 19.1066997518611 42.2904564315352  L 17.468982630273 42.8298755186722  L 15.6129032258065 44.3402489626556  L 15.1761786600496 44.7717842323651  L 17.5781637717122 45.9585062240664  C 17.5781637717122 45.9585062240664  17.3598014888338 46.3900414937759  17.3598014888338 46.3900414937759  C 17.2506203473946 46.9294605809129  16.7047146401985 47.4688796680498  15.8312655086849 47.792531120332  C 15.8312655086849 47.792531120332  14.302729528536 47.9004149377593  14.302729528536 47.9004149377593  L 11.7915632754343 46.9294605809129  L 9.49875930521094 45.6348547717842  L 8.51612903225808 45.6348547717842  L 5.78660049627793 49.5186721991701  L 5.2406947890819 50.8132780082987  L 5.2406947890819 53.0788381742738  L 6.33250620347396 54.9128630705394  L 6.33250620347396 55.0207468879668  L 6.98759305210919 56.746887966805  L 6.98759305210919 56.9626556016598  L 7.09677419354839 59.4439834024896  L 7.09677419354839 59.7676348547718  L 7.20595533498762 59.9834024896265  L 5.4590570719603 60.3070539419087  L 2.18362282878412 60.3070539419087  L 0.655086848635261 61.2780082987552  L 0 62.3568464730291  L 0.109181141439231 62.4647302904564  L 0.76426799007446 65.701244813278  L 0.873449131513661 65.701244813278  L 0.873449131513661 66.9958506224066  L 1.63771712158809 68.50622406639  L 3.93052109181144 70.0165975103734  L 7.31513647642682 69.2614107883817  L 8.95285359801491 68.1825726141079  L 9.17121588089331 68.0746887966805  L 10.6997518610422 68.0746887966805  C 10.6997518610422 68.0746887966805  11.5732009925559 70.1244813278008  11.5732009925559 70.1244813278008  C 12.1191066997519 70.6639004149378  12.5558312655087 71.2033195020747  12.7741935483871 71.850622406639  C 12.7741935483871 71.850622406639  13.5384615384616 71.7427385892116  13.5384615384616 71.7427385892116  L 13.75682382134 71.7427385892116  L 13.9751861042184 71.7427385892116  L 14.0843672456576 71.5269709543568  L 15.6129032258065 70.3402489626556  L 17.0322580645162 72.8215767634855  L 18.560794044665 73.7925311203319  L 20.7444168734491 73.7925311203319  L 22.3821339950372 73.5767634854771  L 22.7096774193549 73.5767634854771  L 26.6401985111663 74.1161825726141  L 26.7493796526055 74.1161825726141  L 26.7493796526055 74.2240663900415  L 28.3870967741936 75.1950207468879  L 28.3870967741936 75.3029045643154  L 29.8064516129032 76.3817427385892  L 29.8064516129032 76.4896265560166  L 30.7890818858561 77.5684647302904  L 31.8808933002482 78  L 33.6277915632754 77.7842323651452  L 33.6277915632754 75.5186721991701  L 32.7543424317618 74.0082987551867  L 32.6451612903226 74.0082987551867  L 32.6451612903226 73.9004149377593  L 31.9900744416873 71.0954356846473  L 33.5186104218363 69.5850622406639  L 33.6277915632754 69.4771784232365  L 33.7369727047147 69.4771784232365  L 35.0471464019851 69.2614107883817  L 36.4665012406948 69.2614107883817  L 36.9032258064516 68.7219917012448  L 36.029776674938 67.5352697095436  L 32.863523573201 65.4854771784232  L 32.0992555831266 64.298755186722  L 31.9900744416873 64.1908713692946  L 31.8808933002482 64.0829875518672  L 31.9900744416873 63.8672199170124  L 32.863523573201 62.2489626556016  L 33.0818858560794 62.4647302904564  L 35.2655086848635 63.0041493775934  L 41.0521091811415 62.7883817427386  L 41.1612903225807 62.896265560166  L 41.2704714640198 62.896265560166  L 42.9081885856079 63.4356846473029  L 44 62.4647302904564  L 43.454094292804 59.1203319502075  C 43.454094292804 59.1203319502075  41.3796526054591 57.8257261410788  41.3796526054591 57.8257261410788  C 39.6327543424318 56.8547717842323  39.0868486352357 54.4813278008299  39.4143920595534 50.597510373444  C 39.4143920595534 50.597510373444  37.6674937965261 49.7344398340249  37.6674937965261 49.7344398340249  L 37.4491315136476 49.6265560165975  L 37.2307692307692 49.6265560165975  L 37.2307692307692 49.4107883817427  L 37.2307692307692 49.3029045643153  L 36.9032258064516 46.4979253112033  C 36.9032258064516 46.4979253112033  39.3052109181142 35.49377593361  39.3052109181142 35.49377593361  C 38.3225806451613 32.2572614107884  37.7766749379653 30.0995850622407  37.7766749379653 29.0207468879668  C 37.7766749379653 29.0207468879668  37.5583126550869 25.7842323651452  37.5583126550869 25.7842323651452  L 37.7766749379653 22.2240663900415  L 37.7766749379653 22.0082987551867  L 37.9950372208437 21.7925311203319  L 40.1786600496278 20.1742738589211  C 40.1786600496278 20.1742738589211  40.1786600496278 18.448132780083  40.1786600496278 18.448132780083  C 40.1786600496278 18.0165975103734  39.9602977667494 17.3692946058091  39.4143920595534 16.5062240663901  C 39.4143920595534 16.5062240663901  37.9950372208437 14.9958506224066  37.9950372208437 14.9958506224066  L 37.7766749379653 14.9958506224066  L 37.7766749379653 14.6721991701245  L 37.5583126550869 12.0829875518672  L 37.5583126550869 11.9751037344398  L 37.4491315136476 11.8672199170124  L 37.6674937965261 11.7593360995851  L 37.6674937965261 11.6514522821577  L 40.5062034739454 8.09128630705394  L 40.5062034739454 6.58091286307053  L 39.6327543424318 4.96265560165974  L 39.6327543424318 4.85477178423236  L 39.5235732009926 4.63900414937761  L 40.9429280397023 2.91286307053941  L 40.9429280397023 2.80497925311203  L 41.0521091811415 2.80497925311203  L 42.5806451612904 1.61825726141079  L 42.3622828784119 0.215767634854759  L 41.5980148883375 0.215767634854759  L 40.3970223325063 0  L 39.741935483871 2.58921161825727  L 39.4143920595534 2.48132780082989  L 36.575682382134 1.40248962655603  L 34.8287841191067 1.07883817427386  L 35.483870967742 3.77593360995851  L 33.0818858560794 4.53112033195019  L 29.5880893300249 6.36514522821577  L 28.4962779156328 7.76763485477177  L 28.4962779156328 7.87551867219918  L 28.3870967741936 7.87551867219918  L 26.5310173697271 9.49377593360997  L 26.2034739454094 12.0829875518672  L 26.2034739454094 12.298755186722  L 25.2208436724566 15.9668049792531  L 25.3300248138958 15.9668049792531  L 24.893300248139 17.6929460580913  L 24.893300248139 17.8008298755187  L 24.7841191066998 17.908713692946  L 23.5831265508685 19.5269709543568  L 23.4739454094293 19.5269709543568  L 23.4739454094293 19.6348547717842  L 23.3647642679901 19.7427385892116  L 23.2555831265509 19.7427385892116  L 20.6352357320099 20.0663900414938  L 20.6352357320099 20.1742738589211  L 20.5260545905707 20.0663900414938  L 16.5955334987593 18.7717842323651  L 16.4863523573201 18.6639004149378  Z " fill-rule="nonzero" fill="#0079fe" stroke="none" fill-opacity="0.658823529411765" transform="matrix(1 0 0 1 247 149 )" />
  </g>
</svg>