<?xml version="1.0" encoding="utf-8"?>
<svg version="1.1" xmlns:xlink="http://www.w3.org/1999/xlink" width="59px" height="37px" xmlns="http://www.w3.org/2000/svg">
  <g transform="matrix(1 0 0 1 -324 -158 )">
    <path d="M 54.4364640883977 1.0850439882698  L 54.0018416206261 1.0850439882698  C 54.0018416206261 1.0850439882698  53.7845303867403 1.19354838709677  53.7845303867403 1.19354838709677  C 53.7845303867403 1.73607038123167  53.4585635359116 2.06158357771262  52.915285451197 2.06158357771262  C 52.915285451197 2.06158357771262  48.6777163904236 1.62756598240469  48.6777163904236 1.62756598240469  C 45.744014732965 1.0850439882698  43.7882136279926 0.651026392961871  42.8103130755064 0.108504398826973  C 42.8103130755064 0.108504398826973  36.8342541436464 5.75073313782993  36.8342541436464 5.75073313782993  L 37.0515653775322 8.13782991202346  L 37.0515653775322 8.35483870967741  C 37.0515653775322 8.35483870967741  36.5082872928176 8.46334310850442  36.5082872928176 8.46334310850442  C 31.8360957642726 9.11436950146628  29.3370165745856 8.68035190615836  29.0110497237569 7.16129032258064  C 29.0110497237569 7.16129032258064  28.4677716390423 0.434017595307924  28.4677716390423 0.434017595307924  L 23.0349907918968 0.108504398826973  L 20.7532228360957 4.88269794721408  C 20.7532228360957 4.88269794721408  20.5359116022099 2.82111436950146  20.5359116022099 2.82111436950146  C 20.427255985267 1.19354838709677  20.1012891344383 0.217008797653947  19.7753222836096 0  C 19.7753222836096 0  17.3848987108656 1.19354838709677  17.3848987108656 1.19354838709677  L 16.2983425414365 2.60410557184751  L 16.1896869244935 2.71260997067449  L 16.0810313075506 2.71260997067449  C 16.0810313075506 2.71260997067449  13.9079189686925 3.47214076246333  13.9079189686925 3.47214076246333  C 11.5174953959484 5.42521994134898  9.45303867403314 7.48680351906159  7.60589318600368 9.65689149560118  C 7.60589318600368 9.65689149560118  1.84714548802945 17.4692082111437  1.84714548802945 17.4692082111437  L 3.04235727440149 20.1818181818182  L 3.04235727440149 20.6158357771261  C 3.04235727440149 20.6158357771261  2.93370165745855 20.7243401759531  2.93370165745855 20.7243401759531  C 2.49907918968694 21.3753665689149  2.71639042357274 22.3519061583578  3.36832412523016 23.4369501466276  C 4.12891344383058 24.8475073313783  4.67219152854513 26.366568914956  4.67219152854513 28.1026392961877  C 4.67219152854513 28.1026392961877  4.67219152854513 28.4281524926686  4.67219152854513 28.4281524926686  L 0 31.1407624633431  L 0 32.2258064516129  C 0 32.2258064516129  2.17311233885819 33.2023460410557  2.17311233885819 33.2023460410557  C 2.390423572744 33.3108504398827  2.49907918968694 33.5278592375367  2.49907918968694 33.6363636363637  C 2.49907918968694 33.6363636363637  2.49907918968694 33.8533724340176  2.49907918968694 33.8533724340176  C 2.390423572744 34.3958944281525  3.25966850828729 35.1554252199414  4.88950276243094 35.9149560117302  C 4.88950276243094 35.9149560117302  8.90976058931859 37  8.90976058931859 37  L 10.1049723756906 36.2404692082112  L 11.4088397790055 34.3958944281525  L 12.4953959484346 31.2492668621701  L 15.646408839779 32.4428152492669  L 16.0810313075506 32.7683284457478  L 16.0810313075506 32.9853372434018  C 16.0810313075506 32.9853372434018  16.0810313075506 33.0938416422288  16.0810313075506 33.0938416422288  C 15.5377532228361 34.3958944281525  15.8637200736648 35.2639296187683  16.841620626151 35.8064516129032  C 16.841620626151 35.8064516129032  20.3186003683241 35.9149560117302  20.3186003683241 35.9149560117302  C 21.5138121546961 35.6979472140763  22.4917127071823 35.2639296187683  23.1436464088398 34.7214076246334  C 23.5782688766114 34.1788856304985  24.2302025782689 34.0703812316716  25.208103130755 34.1788856304985  C 26.4033149171271 34.3958944281525  27.4898710865562 34.8299120234604  28.2504604051565 35.8064516129032  C 28.2504604051565 35.8064516129032  29.0110497237569 33.9618768328446  29.0110497237569 33.9618768328446  L 29.2283609576427 33.6363636363637  C 29.2283609576427 33.6363636363637  29.3370165745856 33.6363636363637  29.3370165745856 33.6363636363637  C 29.8802946593002 33.3108504398827  30.2062615101289 32.7683284457478  30.6408839779005 32.008797653959  C 30.9668508287293 31.2492668621701  31.5101289134438 30.4897360703812  32.3793738489871 29.9472140762463  C 32.3793738489871 29.9472140762463  33.9005524861878 29.0791788856305  33.9005524861878 29.0791788856305  L 34.0092081031308 28.9706744868035  L 34.1178637200736 29.0791788856305  L 34.2265193370166 29.0791788856305  L 35.0957642725598 29.2961876832845  L 35.3130755064457 29.4046920821114  L 36.5082872928176 23.9794721407625  L 36.5082872928176 23.8709677419355  C 36.5082872928176 23.8709677419355  38.2467771639042 23.5454545454545  38.2467771639042 23.5454545454545  C 39.9852670349908 22.3519061583578  40.854511970534 21.3753665689149  40.7458563535912 20.5073313782991  C 40.7458563535912 20.5073313782991  40.4198895027624 18.8797653958944  40.4198895027624 18.8797653958944  C 39.9852670349908 17.7947214076246  39.9852670349908 17.0351906158358  40.2025782688766 16.7096774193549  C 40.5285451197053 16.3841642228739  40.7458563535912 16.2756598240469  41.0718232044199 16.2756598240469  C 41.8324125230202 16.2756598240469  42.7016574585635 16.4926686217009  43.5709023941068 16.9266862170088  C 43.5709023941068 16.9266862170088  43.7882136279926 15.1906158357771  43.7882136279926 15.1906158357771  L 43.7882136279926 14.9736070381232  L 43.8968692449355 14.8651026392962  L 45.744014732965 13.9970674486804  L 45.9613259668508 13.0205278592375  L 44.8747697974217 13.0205278592375  L 44.6574585635359 12.9120234604106  L 44.7661141804788 12.3695014662757  L 44.7661141804788 12.0439882697947  L 44.8747697974217 11.8269794721408  L 45.2007366482504 11.8269794721408  C 45.2007366482504 11.8269794721408  45.4180478821363 11.8269794721408  45.4180478821363 11.8269794721408  C 46.1786372007366 11.8269794721408  47.0478821362799 11.3929618768329  48.0257826887661 10.524926686217  C 48.0257826887661 10.524926686217  54.8710865561694 5.64222873900292  54.8710865561694 5.64222873900292  L 55.0883977900552 5.64222873900292  L 57.2615101289134 6.61876832844574  L 58.1307550644567 6.51026392961877  L 57.5874769797422 4.23167155425221  L 57.5874769797422 4.01466275659823  L 57.696132596685 3.90615835777126  L 57.804788213628 3.79765395894428  L 59 1.84457478005864  L 58.6740331491713 1.62756598240469  L 57.9134438305709 1.84457478005864  L 57.9134438305709 1.95307917888564  L 57.804788213628 1.95307917888564  L 55.6316758747698 2.27859237536656  L 55.0883977900552 2.27859237536656  L 54.9797421731123 2.27859237536656  L 54.9797421731123 2.17008797653959  L 54.8710865561694 1.84457478005864  L 54.4364640883977 1.0850439882698  Z " fill-rule="nonzero" fill="#0079fe" stroke="none" transform="matrix(1 0 0 1 324 158 )" />
  </g>
</svg>