<?xml version="1.0" encoding="utf-8"?>
<svg version="1.1" xmlns:xlink="http://www.w3.org/1999/xlink" width="14px" height="35px" xmlns="http://www.w3.org/2000/svg">
  <g transform="matrix(1 0 0 1 -381 -284 )">
    <path d="M 14 1.53125000000004  C 14 1.53125000000004  10.6060606060606 0  10.6060606060606 0  C 7.21212121212123 2.51562500000001  4.77272727272728 5.68750000000005  3.18181818181818 9.51562500000005  C 1.80303030303029 12.796875  0.742424242424231 14.4375  0 14.875  C 0 14.875  0.742424242424231 20.890625  0.742424242424231 20.890625  L 0.742424242424231 21  C 0.742424242424231 21  0.2121212121212 25.15625  0.2121212121212 25.15625  C 0 26.46875  0.2121212121212 27.34375  0.530303030303031 27.5625  C 0.530303030303031 27.5625  4.87878787878791 30.515625  4.87878787878791 30.515625  L 4.98484848484848 30.515625  C 4.98484848484848 30.515625  5.09090909090911 30.84375  5.09090909090911 30.84375  C 5.30303030303031 31.828125  5.93939393939397 32.703125  6.78787878787877 33.796875  C 7.21212121212123 34.453125  7.74242424242426 34.78125  8.16666666666666 35  C 8.16666666666666 35  8.80303030303032 27.78125  8.80303030303032 27.78125  L 8.80303030303032 27.5625  L 11.8787878787879 19.90625  L 12.9393939393939 10.828125  L 12.9393939393939 10.71875  L 13.0454545454546 10.609375  L 14 8.203125  L 13.2575757575758 6.12500000000002  L 13.2575757575758 6.015625  L 13.1515151515151 6.015625  L 12.9393939393939 3.17187500000004  L 13.0454545454546 3.06250000000001  L 13.1515151515151 2.95312500000005  L 13.6818181818182 2.29687500000002  L 14 1.53125000000004  Z " fill-rule="nonzero" fill="#0079fe" stroke="none" transform="matrix(1 0 0 1 381 284 )" />
  </g>
</svg>