<?xml version="1.0" encoding="utf-8"?>
<svg version="1.1" xmlns:xlink="http://www.w3.org/1999/xlink" width="33px" height="38px" xmlns="http://www.w3.org/2000/svg">
  <g transform="matrix(1 0 0 1 -357 -227 )">
    <path d="M 22.1089108910891 0  C 22.1089108910891 0  20.1485148514851 0.539772727272727  20.1485148514851 0.539772727272727  C 18.9504950495049 1.07954545454545  17.970297029703 1.51136363636364  17.2079207920792 1.61931818181818  C 16.5544554455445 1.61931818181818  15.4653465346534 1.4034090909091  13.9405940594059 0.863636363636376  C 13.9405940594059 0.863636363636376  11.4356435643564 0.539772727272727  11.4356435643564 0.539772727272727  C 10.6732673267327 0.863636363636376  9.8019801980198 1.94318181818183  8.60396039603957 3.77840909090909  C 8.60396039603957 3.77840909090909  10.2376237623762 7.23295454545454  10.2376237623762 7.23295454545454  L 7.51485148514848 8.74431818181818  L 7.40594059405942 8.74431818181818  C 7.40594059405942 8.74431818181818  5.22772277227724 8.09659090909091  5.22772277227724 8.09659090909091  C 6.09900990099012 9.7159090909091  6.31683168316833 10.6875  5.99009900990099 11.1193181818182  C 5.99009900990099 11.1193181818182  5.77227722772278 11.9829545454545  5.77227722772278 11.9829545454545  C 5.22772277227724 13.2784090909091  4.79207920792077 14.0340909090909  4.35643564356435 14.4659090909091  C 4.35643564356435 14.4659090909091  0.544554455445542 17.8125  0.544554455445542 17.8125  L 1.5247524752475 18.3522727272727  C 1.5247524752475 18.3522727272727  0.871287128712881 18.8920454545455  0.871287128712881 18.8920454545455  C 0 19.6477272727273  -0.217821782178208 20.5113636363636  0.217821782178203 21.1590909090909  C 0.217821782178203 21.1590909090909  2.83168316831685 25.1534090909091  2.83168316831685 25.1534090909091  L 2.94059405940592 25.1534090909091  L 2.94059405940592 25.2613636363637  L 4.13861386138615 27.4204545454546  L 4.13861386138615 27.5284090909091  L 4.24752475247522 27.6363636363636  L 4.13861386138615 27.8522727272727  L 4.13861386138615 28.0681818181818  L 4.13861386138615 28.1761363636364  C 4.13861386138615 28.1761363636364  3.92079207920794 28.3920454545455  3.92079207920794 28.3920454545455  C 4.46534653465349 28.3920454545455  4.9009900990099 28.6079545454546  5.44554455445544 28.9318181818182  C 6.31683168316833 29.4715909090909  6.97029702970294 30.9829545454545  7.29702970297028 33.25  C 7.29702970297028 33.25  7.73267326732675 35.4090909090909  7.73267326732675 35.4090909090909  C 7.95049504950496 35.9488636363637  8.16831683168316 36.2727272727273  8.71287128712871 36.4886363636364  C 9.58415841584159 36.9204545454545  10.6732673267327 36.8125  11.6534653465346 36.1647727272727  C 12.1980198019802 35.8409090909091  12.5247524752475 35.5170454545455  12.4158415841584 35.1931818181818  C 12.4158415841584 35.1931818181818  12.3069306930693 35.0852272727273  12.3069306930693 35.0852272727273  L 12.3069306930693 34.8693181818182  L 14.1584158415842 33.5738636363636  L 14.3762376237624 33.7897727272727  C 14.3762376237624 33.7897727272727  15.7920792079208 36.1647727272727  15.7920792079208 36.1647727272727  C 16.3366336633663 36.5965909090909  16.8811881188119 36.8125  17.7524752475248 36.8125  C 17.7524752475248 36.8125  18.2970297029703 36.7045454545455  18.2970297029703 36.7045454545455  L 17.8613861386138 35.4090909090909  L 19.9306930693069 36.2727272727273  L 20.4752475247525 36.2727272727273  L 20.5841584158416 36.2727272727273  L 20.6930693069307 36.4886363636364  L 22.6534653465347 38  L 23.1980198019802 37.1363636363637  L 23.0891089108911 33.4659090909091  L 23.1980198019802 33.3579545454546  C 23.1980198019802 33.3579545454546  24.5049504950495 31.7386363636364  24.5049504950495 31.7386363636364  C 24.6138613861386 31.5227272727273  24.5049504950495 31.0909090909091  23.9603960396039 30.5511363636364  C 23.9603960396039 30.5511363636364  23.6336633663366 30.2272727272727  23.6336633663366 30.2272727272727  L 23.8514851485148 30.0113636363637  L 23.9603960396039 29.7954545454545  L 24.2871287128713 29.6875  L 27.009900990099 25.2613636363637  L 27.2277227722772 25.3693181818182  L 27.7722772277228 25.4772727272727  L 27.990099009901 25.5852272727273  L 27.990099009901 25.8011363636364  L 27.7722772277228 27.5284090909091  L 27.990099009901 27.5284090909091  L 31.039603960396 24.8295454545455  L 30.8217821782178 23.4261363636364  L 30.2772277227723 23.4261363636364  L 29.1881188118812 23.5340909090909  L 31.039603960396 18.5681818181818  L 29.4059405940594 18.3522727272727  L 29.1881188118812 18.3522727272727  L 29.1881188118812 18.1363636363637  C 29.1881188118812 18.1363636363637  28.6435643564356 17.4886363636364  28.6435643564356 17.4886363636364  C 28.3168316831683 16.8409090909091  28.3168316831683 16.3011363636364  28.7524752475247 15.7613636363636  C 28.7524752475247 15.7613636363636  31.3663366336634 15.6534090909091  31.3663366336634 15.6534090909091  C 31.3663366336634 15.6534090909091  33 15.6534090909091  33 15.6534090909091  C 33 15.1136363636364  32.6732673267327 14.1420454545455  31.6930693069307 12.5227272727273  C 31.6930693069307 12.5227272727273  29.4059405940594 11.7670454545455  29.4059405940594 11.7670454545455  L 31.8019801980198 9.50000000000001  L 31.8019801980198 8.96022727272729  L 30.6039603960396 9.17613636363637  L 30.1683168316831 9.17613636363637  L 30.1683168316831 9.06818181818183  L 30.0594059405941 8.96022727272729  C 30.0594059405941 8.96022727272729  29.9504950495049 8.74431818181818  29.9504950495049 8.74431818181818  C 29.6237623762376 7.66477272727272  28.970297029703 6.80113636363638  27.990099009901 6.47727272727273  C 27.990099009901 6.47727272727273  23.6336633663366 6.58522727272727  23.6336633663366 6.58522727272727  L 21.7821782178218 8.74431818181818  L 21.7821782178218 8.85227272727272  L 21.2376237623762 8.74431818181818  L 14.3762376237624 6.58522727272727  C 14.3762376237624 6.58522727272727  21.019801980198 4.85795454545454  21.019801980198 4.85795454545454  C 21.4554455445544 4.85795454545454  22.5445544554455 3.77840909090909  24.3960396039604 1.61931818181818  C 24.3960396039604 1.61931818181818  22.1089108910891 0  22.1089108910891 0  Z " fill-rule="nonzero" fill="#0079fe" stroke="none" transform="matrix(1 0 0 1 357 227 )" />
  </g>
</svg>