<?xml version="1.0" encoding="utf-8"?>
<svg version="1.1" xmlns:xlink="http://www.w3.org/1999/xlink" width="15px" height="16px" xmlns="http://www.w3.org/2000/svg">
  <g transform="matrix(1 0 0 1 -322 -129 )">
    <path d="M 7 3.03661076591525  L 6.79104477611942 3.35143679839116  L 6.47761194029851 3.24649478756584  L 5.11940298507461 3.03661076591525  L 5.01492537313435 3.66626283086707  L 5.01492537313435 3.98108886334298  L 4.70149253731344 3.98108886334298  L 2.50746268656714 4.82062494994542  C 2.50746268656714 4.82062494994542  2.40298507462688 5.13545098242134  2.40298507462688 5.13545098242134  C 2.08955223880597 5.87004505819846  2.40298507462688 6.4996971231503  3.13432835820896 7.33923320975273  C 3.13432835820896 7.33923320975273  3.34328358208955 7.54911723140335  3.34328358208955 7.54911723140335  C 3.34328358208955 7.54911723140335  3.13432835820896 7.86394326387926  3.13432835820896 7.86394326387926  C 2.50746268656714 8.91336337213231  1.56716417910448 9.96278348038535  0.522388059701494 10.6973775561625  C 0.104477611940263 11.0122035886384  0 11.3270296211143  0 11.6418556535902  C 0 11.6418556535902  0.731343283582079 12.586333751018  0.731343283582079 12.586333751018  L 1.88059701492539 13.0061017943192  C 1.88059701492539 13.0061017943192  2.82089552238805 13.1110438051445  2.82089552238805 13.1110438051445  C 4.07462686567163 13.1110438051445  4.91044776119403 13.2159858159698  5.22388059701493 13.7406958700963  C 5.22388059701493 13.7406958700963  6.26865671641792 14.4752899458735  6.26865671641792 14.4752899458735  C 7 14.7901159783494  7.62686567164182 15  8.14925373134331 15  C 8.56716417910448 15  9.08955223880598 14.6851739675241  9.50746268656715 13.8456378809216  C 9.50746268656715 13.8456378809216  10.3432835820895 12.9011597834939  10.3432835820895 12.9011597834939  L 10.9701492537314 10.9072615778131  L 10.4477611940299 8.59853733965639  L 11.2835820895523 8.80842136130701  L 12.6417910447761 8.91336337213231  L 13.2686567164179 8.49359532883108  L 13.4776119402985 7.96888527470456  L 12.4328358208955 4.92556696077073  C 12.4328358208955 4.92556696077073  12.7462686567164 3.87614685251768  12.7462686567164 3.87614685251768  C 13.0597014925373 3.24649478756584  13.4776119402985 3.03661076591525  13.8955223880597 2.93166875508993  C 13.8955223880597 2.93166875508993  14 2.93166875508993  14 2.93166875508993  L 13.7910447761194 2.1970746793128  L 11.2835820895523 2.30201669013811  L 11.2835820895523 2.1970746793128  C 11.2835820895523 2.1970746793128  8.98507462686565 0.622944516933227  8.98507462686565 0.622944516933227  C 8.04477611940299 -0.00670754801859558  7.10447761194032 -0.111649558843894  6.26865671641792 0.0982344628067032  C 6.26865671641792 0.0982344628067032  5.95522388059702 0.308118484457316  5.95522388059702 0.308118484457316  C 5.74626865671643 0.72788652775854  5.95522388059702 1.14765457105975  6.58208955223883 1.35753859271036  C 7.10447761194032 1.77730663601159  7.31343283582091 2.30201669013811  7 3.03661076591525  Z " fill-rule="nonzero" fill="#0079fe" stroke="none" transform="matrix(1 0 0 1 322 129 )" />
  </g>
</svg>