<?xml version="1.0" encoding="utf-8"?>
<svg version="1.1" xmlns:xlink="http://www.w3.org/1999/xlink" width="46px" height="54px" xmlns="http://www.w3.org/2000/svg">
  <g transform="matrix(1 0 0 1 -277 -244 )">
    <path d="M 41.0313588850174 9.6082155457176  L 40.0696864111498 9.2843431115923  L 40.1765389082463 9.1763856335505  L 39.9628339140534 9.1763856335505  L 39.9628339140534 8.96047067746698  L 39.1080139372823 7.34110850684042  L 39.0011614401858 7.23315102879865  L 39.0011614401858 7.01723607271509  C 39.0011614401858 7.01723607271509  39.2148664343786 4.42625659971262  39.2148664343786 4.42625659971262  C 39.2148664343786 4.1023841655873  38.8943089430894 3.77851173146197  38.2531939605111 3.34668181929492  C 38.2531939605111 3.34668181929492  37.6120789779326 3.34668181929492  37.6120789779326 3.34668181929492  L 36.5435540069686 4.64217155579615  L 36.4367015098723 4.64217155579615  L 33.7653890824623 5.93766129229738  L 33.3379790940767 4.1023841655873  L 33.3379790940767 3.88646920950377  L 33.5516840882694 3.02280938516959  L 33.3379790940767 1.94323460475188  L 33.0174216027874 1.83527712671012  L 32.5900116144019 2.69893695104427  L 32.4831591173054 2.69893695104427  L 32.4831591173054 2.80689442908606  L 29.1707317073171 5.72174633621386  L 29.0638792102207 5.93766129229738  L 28.9570267131243 5.93766129229738  L 28.7433217189315 5.93766129229738  L 28.5296167247387 5.93766129229738  L 27.5679442508711 5.50583138013033  L 27.4610917537747 5.39787390208853  L 26.3925667828107 4.42625659971262  L 24.6829268292683 3.77851173146197  L 24.5760743321719 3.67055425342021  L 23.5075493612079 2.91485190712783  L 19.9814169570267 2.15914956083541  L 19.8745644599303 2.15914956083541  L 17.5238095238095 0.971617302375942  L 17.5238095238095 1.07957478041771  L 15.7073170731707 0.21591495608356  L 13.3565621370499 0  L 12.5017421602787 0.107957478041795  L 13.2497096399535 4.1023841655873  L 12.9291521486644 4.1023841655873  L 10.5783972125435 4.31829912167083  L 9.29616724738675 4.31829912167083  L 9.18931475029039 4.31829912167083  L 7.90708478513354 3.45463929733668  L 5.77003484320555 4.42625659971262  L 3.84668989547041 7.01723607271509  L 2.13704994192799 11.6594076285112  L 2.67131242740999 16.7334090964744  C 2.67131242740999 16.7334090964744  3.41927990708477 19.6482610036023  3.41927990708477 19.6482610036023  C 3.5261324041812 19.9721334377276  3.5261324041812 20.0800909157694  3.41927990708477 20.1880483938111  C 3.41927990708477 20.1880483938111  3.09872241579556 20.2960058718529  3.09872241579556 20.2960058718529  C 2.56445993031357 20.6198783059782  2.35075493612078 21.3755806522706  2.4576074332172 22.4551554326883  C 2.4576074332172 22.4551554326883  3.5261324041812 26.8814120324009  3.5261324041812 26.8814120324009  C 3.5261324041812 26.8814120324009  3.20557491289199 27.0973269884845  3.20557491289199 27.0973269884845  C 1.28222996515678 28.1769017689022  0.320557491289211 29.0405615932363  0.213704994192787 29.4723915054034  C 0.213704994192787 29.4723915054034  0 30.9837961979882  0 30.9837961979882  L 1.81649245063878 30.2280938516958  L 1.9233449477352 30.120136373654  C 1.9233449477352 30.120136373654  2.03019744483157 30.120136373654  2.03019744483157 30.120136373654  C 3.31242740998841 30.120136373654  4.0603948896632 30.5519662858211  4.16724738675956 31.6315410662388  C 4.16724738675956 31.6315410662388  4.48780487804877 34.0066055831578  4.48780487804877 34.0066055831578  L 4.38095238095241 34.3304780172831  C 4.38095238095241 34.3304780172831  4.16724738675956 34.5463929733666  4.16724738675956 34.5463929733666  C 3.84668989547041 34.870265407492  3.63298490127756 35.1941378416172  3.63298490127756 35.6259677537843  C 3.63298490127756 35.6259677537843  3.31242740998841 38.1089897487451  3.31242740998841 38.1089897487451  C 3.41927990708477 38.9726495730792  3.73983739837398 39.6203944413298  4.16724738675956 39.9442668754552  C 4.16724738675956 39.9442668754552  6.41114982578397 42.6432038264994  6.41114982578397 42.6432038264994  L 8.44134727061554 41.0238416558729  L 10.0441347270615 40.8079266997894  L 10.150987224158 40.8079266997894  L 10.2578397212544 41.0238416558729  C 10.2578397212544 41.0238416558729  11.3263646922184 41.3477140899982  11.3263646922184 41.3477140899982  C 11.6469221835075 41.3477140899982  11.9674796747967 41.2397566119564  12.2880371660859 40.9158841778311  C 12.2880371660859 40.9158841778311  13.2497096399535 39.5124369632881  13.2497096399535 39.5124369632881  C 13.2497096399535 39.5124369632881  13.0360046457607 38.6487771389539  13.0360046457607 38.6487771389539  C 13.2497096399535 38.3249047048286  13.5702671312427 38.1089897487451  13.9976771196284 37.8930747926615  C 13.9976771196284 37.8930747926615  16.5621370499419 37.8930747926615  16.5621370499419 37.8930747926615  C 16.9895470383275 38.1089897487451  17.3101045296167 38.0010322707033  17.3101045296167 37.7851173146198  C 17.6306620209059 37.0294149683274  17.9512195121951 36.7055425342021  18.2717770034843 36.4896275781185  C 18.5923344947735 36.4896275781185  19.1265969802555 36.5975850561603  19.4471544715447 36.9214574902856  C 20.1951219512195 37.5692023585362  20.7293844367015 38.1089897487451  20.7293844367015 38.8646920950375  C 20.7293844367015 38.8646920950375  20.5156794425087 40.8079266997894  20.5156794425087 40.8079266997894  C 20.5156794425087 40.8079266997894  20.9430894308943 41.1317991339146  20.9430894308943 41.1317991339146  C 21.5842044134727 41.6715865241235  22.0116144018583 42.2113739143323  22.0116144018583 42.6432038264994  C 22.0116144018583 42.6432038264994  21.5842044134727 44.5864384312513  21.5842044134727 44.5864384312513  C 21.2636469221835 45.666013211669  20.9430894308943 46.4217155579614  20.5156794425087 46.6376305140449  C 20.5156794425087 46.6376305140449  20.5156794425087 46.5296730360031  20.5156794425087 46.5296730360031  L 18.9128919860627 49.9843123333399  L 19.4471544715447 50.2002272894234  L 22.0116144018583 50.3081847674651  L 22.5458768873403 50.5240997235487  C 22.5458768873403 50.5240997235487  22.3321718931475 50.9559296357158  22.3321718931475 50.9559296357158  C 22.0116144018583 52.0355044161335  21.9047619047619 52.7912067624259  22.0116144018583 53.3309941526347  C 22.8664343786295 53.8707815428436  23.4006968641115 54.1946539769689  23.7212543554007 53.8707815428436  C 23.7212543554007 53.8707815428436  25.2171893147503 53.223036674593  25.2171893147503 53.223036674593  L 25.9651567944251 52.8991642404677  L 27.3542392566783 52.8991642404677  L 28.7433217189315 51.3877595478828  C 28.7433217189315 51.3877595478828  28.7433217189315 49.5524824211727  28.7433217189315 49.5524824211727  C 28.6364692218351 48.9047375529221  28.7433217189315 48.472907640755  28.9570267131243 48.1490352066297  C 29.3844367015099 47.8251627725044  30.2392566782811 47.8251627725044  31.5214866434379 48.5808651187968  C 31.5214866434379 48.5808651187968  34.0859465737514 50.2002272894234  34.0859465737514 50.2002272894234  C 34.9407665505226 50.847972157674  35.5818815331011 51.0638871137576  36.0092915214866 51.0638871137576  C 36.0092915214866 51.0638871137576  36.0092915214866 50.9559296357158  36.0092915214866 50.9559296357158  C 36.2229965156794 50.5240997235487  36.0092915214866 49.6604398992145  35.4750290360046 48.5808651187968  C 35.4750290360046 48.5808651187968  34.0859465737514 46.4217155579614  34.0859465737514 46.4217155579614  L 34.0859465737514 46.2058006018779  L 34.1927990708479 46.2058006018779  C 34.1927990708479 46.2058006018779  34.2996515679443 45.9898856457943  34.2996515679443 45.9898856457943  C 35.6887340301974 44.0466510410425  37.1846689895471 43.3989061727918  38.8943089430894 44.0466510410425  C 38.8943089430894 44.0466510410425  42.8478513356563 45.8819281677526  42.8478513356563 45.8819281677526  L 44.4506387921022 44.8023533873349  L 44.5574912891986 44.8023533873349  L 44.5574912891986 44.6943959092931  L 44.5574912891986 44.5864384312513  L 44.3437862950058 44.3705234751677  L 44.4506387921022 44.262565997126  C 44.4506387921022 44.262565997126  44.5574912891986 44.0466510410425  44.5574912891986 44.0466510410425  C 45.8397212543554 41.8875014802071  46.267131242741 40.2681393095805  45.8397212543554 39.4044794852463  C 45.5191637630662 38.6487771389539  44.9849012775842 38.3249047048286  44.5574912891986 38.3249047048286  C 44.5574912891986 38.3249047048286  44.2369337979094 38.3249047048286  44.2369337979094 38.3249047048286  L 44.0232288037166 37.2453299244109  C 44.0232288037166 37.2453299244109  44.2369337979094 37.2453299244109  44.2369337979094 37.2453299244109  C 44.9849012775842 36.9214574902856  45.4123112659698 36.5975850561603  45.5191637630662 36.1657551439932  C 45.5191637630662 36.1657551439932  45.198606271777 35.6259677537843  45.198606271777 35.6259677537843  L 43.4889663182346 34.0066055831578  L 43.4889663182346 33.898648105116  C 43.4889663182346 33.898648105116  42.6341463414634 31.523583588197  42.6341463414634 31.523583588197  C 42.3135888501742 29.6883064614869  42.0998838559814 28.0689442908604  42.3135888501742 26.5575395982756  C 42.3135888501742 26.5575395982756  42.3135888501742 25.4779648178579  42.3135888501742 25.4779648178579  L 41.2450638792103 26.4495821202338  L 40.2833914053426 27.5291569006515  L 39.9628339140534 22.9949428228972  L 39.9628339140534 22.7790278668136  C 39.9628339140534 22.7790278668136  40.0696864111498 22.7790278668136  40.0696864111498 22.7790278668136  C 42.4204413472706 19.324388569477  44.0232288037166 17.2731964866833  44.5574912891986 16.7334090964744  C 44.5574912891986 16.7334090964744  43.4889663182346 13.4946847552213  43.4889663182346 13.4946847552213  C 43.1684088269454 11.8753225845948  42.9547038327526 10.9037052822189  42.9547038327526 10.4718753700518  C 42.9547038327526 10.4718753700518  41.0313588850174 9.6082155457176  41.0313588850174 9.6082155457176  Z " fill-rule="nonzero" fill="#0079fe" stroke="none" transform="matrix(1 0 0 1 277 244 )" />
  </g>
</svg>