<?xml version="1.0" encoding="utf-8"?>
<svg version="1.1" xmlns:xlink="http://www.w3.org/1999/xlink" width="98px" height="89px" xmlns="http://www.w3.org/2000/svg">
  <g transform="matrix(1 0 0 1 -343 0 )">
    <path d="M 96.6991368428777 51.4523736600306  L 95.0802896859099 40.8869831546708  L 95.1882128297078 40.6713629402757  C 95.1882128297078 40.6713629402757  95.2961359735056 40.6713629402757  95.2961359735056 40.6713629402757  C 96.0515979800905 39.4854517611026  96.483290555282 38.5151607963247  96.2674442676863 37.7604900459418  C 96.2674442676863 37.7604900459418  95.8357516924948 37.1136294027565  95.8357516924948 37.1136294027565  C 94.6485971107185 36.3589586523737  94.1089813917292 34.6339969372129  94.4327508231227 31.723124042879  C 94.4327508231227 31.723124042879  93.461442528942 31.723124042879  93.461442528942 31.723124042879  C 92.7059805223571 31.6153139356815  91.8425953719742 31.9387442572741  90.9792102215914 32.4777947932619  C 90.1158250712085 33.1246554364472  89.5762093522193 33.87932618683  89.4682862084214 34.4183767228178  C 89.03659363323 35.7120980091884  87.6335927638579 36.5745788667688  85.2592836003051 37.3292496171516  C 85.2592836003051 37.3292496171516  84.7196678813158 40.6713629402757  84.7196678813158 40.6713629402757  L 84.7196678813158 40.7791730474732  L 84.611744737518 40.8869831546708  L 83.4245901557416 43.0431852986218  L 83.3166670119437 43.2588055130169  L 83.2087438681459 43.2588055130169  L 83.100820724348 43.2588055130169  L 72.4164294883604 45.1993874425727  L 72.3085063445625 45.1993874425727  L 71.984736913169 45.1993874425727  L 71.984736913169 44.9837672281776  L 68.8549657430312 41.6416539050536  L 69.8262740372119 40.6713629402757  L 68.6391194554355 39.0542113323124  L 67.1281954422656 37.9761102603369  L 67.0202722984677 37.8683001531394  L 66.9123491546698 37.8683001531394  L 66.9123491546698 37.7604900459418  L 66.9123491546698 37.6526799387443  L 66.3727334356805 34.7418070444104  L 63.5667316969364 34.9574272588055  L 63.3508854093407 34.7418070444104  L 60.9765762457878 33.3402756508423  L 52.4506478857573 31.8309341500766  L 45.3277203950989 31.5075038284839  C 45.3277203950989 31.5075038284839  45.1118741075032 31.723124042879  45.1118741075032 31.723124042879  C 44.7881046761096 31.723124042879  44.5722583885139 31.6153139356815  44.4643352447161 31.3996937212864  C 44.4643352447161 31.3996937212864  40.3632557803976 22.1280245022971  40.3632557803976 22.1280245022971  C 39.9315632052062 21.3733537519142  38.2047929044405 19.0015313935682  34.7512523029092 14.9047473200613  C 31.5135579889736 10.9157733537519  29.67886454441 8.75957120980092  29.1392488254207 8.32833078101072  C 29.1392488254207 8.32833078101072  23.0955527727409 2.39877488514548  23.0955527727409 2.39877488514548  L 22.1242444785602 1.85972434915773  L 14.5696244127104 1.75191424196018  L 14.4617012689125 1.75191424196018  C 14.4617012689125 1.75191424196018  14.2458549813169 1.53629402756508  14.2458549813169 1.53629402756508  C 13.4903929747318 0.997243491577335  12.4111615367533 0.458192955589587  10.7923143797855 0.134762633996937  C 9.38931351041339 -0.404287901990812  6.15161919647776 0.673813169984686  1.07923143797855 3.36906584992343  C 1.07923143797855 3.36906584992343  0.863385150382848 3.47687595712098  0.863385150382848 3.47687595712098  L 1.07923143797855 4.98621745788668  L 1.18715458177642 4.98621745788668  L 1.18715458177642 5.09402756508423  L 1.07923143797855 5.09402756508423  L 1.07923143797855 5.30964777947933  L 0.215846287595758 7.03460949464012  L 0.215846287595758 7.14241960183767  L 0.107923143797879 7.14241960183767  C 0.107923143797879 7.14241960183767  0 8.32833078101072  0 8.32833078101072  C 0 9.29862174578867  0.215846287595758 10.3767228177642  0.539615718989273 11.2392036753446  C 0.539615718989273 11.2392036753446  1.2950777255743 11.7782542113323  1.2950777255743 11.7782542113323  L 2.91392488254212 11.6704441041348  L 4.31692575191418 11.9938744257274  C 4.31692575191418 11.9938744257274  4.85654147090345 11.5626339969372  4.85654147090345 11.5626339969372  C 4.85654147090345 10.5923430321593  5.18031090229703 9.83767228177642  5.61200347748848 9.62205206738132  C 5.61200347748848 9.62205206738132  6.69123491546703 9.62205206738132  6.69123491546703 9.62205206738132  L 10.4685449483919 10.7001531393568  L 11.3319300987747 10.8079632465544  L 10.1447755169984 12.8563552833078  C 10.1447755169984 12.8563552833078  10.1447755169984 15.3359877488515  10.1447755169984 15.3359877488515  C 10.1447755169984 15.8750382848392  11.116083811179 17.1687595712098  13.0587003995404 19.0015313935682  C 14.2458549813169 19.8640122511486  15.0013169879018 20.2952526799387  15.6488558506889 20.4030627871363  C 15.6488558506889 20.4030627871363  16.1884715696782 20.2952526799387  16.1884715696782 20.2952526799387  L 16.7280872886675 20.0796324655436  L 18.562780733231 18.2468606431853  L 19.9657816026031 17.3843797856049  L 19.9657816026031 17.2765696784074  L 22.8797064851452 16.8453292496172  L 23.743091635528 15.0125574272588  L 26.3332470866765 13.5032159264931  L 28.5996331064315 14.7969372128637  L 28.5996331064315 14.9047473200613  L 28.8154793940272 15.0125574272588  L 30.9739422699843 18.6781010719755  L 31.8373274203671 21.1577335375191  L 31.8373274203671 21.4811638591118  L 31.4056348451757 24.4998468606432  L 32.2690199955585 26.5482388973966  L 32.2690199955585 26.8716692189893  L 31.6214811327714 29.2434915773354  C 31.6214811327714 29.2434915773354  31.6214811327714 31.3996937212864  31.6214811327714 31.3996937212864  C 32.2690199955585 33.3402756508423  32.5927894269521 34.6339969372129  32.5927894269521 34.9574272588055  C 32.5927894269521 34.9574272588055  32.3769431393564 36.7901990811639  32.3769431393564 36.7901990811639  L 32.3769431393564 36.8980091883614  L 31.2977117013778 38.4073506891271  L 31.2977117013778 38.5151607963247  L 30.2184802633993 39.8088820826953  L 30.1105571196015 42.1807044410414  L 30.7580959823885 44.660336906585  L 30.8660191261864 44.7681470137826  L 30.7580959823885 44.8759571209801  L 30.1105571196015 48.6493108728943  C 30.1105571196015 48.6493108728943  29.5709414006122 49.1883614088821  29.5709414006122 49.1883614088821  C 29.1392488254207 49.5117917304747  28.5996331064315 49.5117917304747  27.9520942436444 49.1883614088821  C 27.9520942436444 49.1883614088821  27.7362479560487 49.1883614088821  27.7362479560487 49.1883614088821  L 26.7649396618679 48.1102603369066  L 25.6857082238894 48.4336906584992  L 24.2827073545173 49.9430321592649  L 22.7717833413473 54.3632465543645  L 22.7717833413473 54.471056661562  L 22.6638601975495 54.5788667687596  L 21.1529361843795 55.8725880551302  L 20.9370898967838 55.8725880551302  L 20.073704746401 55.9803981623277  L 18.3469344456353 58.4600306278714  L 19.2103195960181 60.0771822358346  L 19.4261658836138 60.2928024502297  L 21.5846287595709 62.9880551301685  L 21.5846287595709 63.095865237366  L 21.5846287595709 63.9583460949464  L 23.9589379231238 64.2817764165391  L 24.3906304983152 66.4379785604901  L 24.3906304983152 66.5457886676876  L 24.7143999297087 69.1332312404288  L 25.3619387924958 69.6722817764166  L 27.5204016684529 69.0254211332312  L 29.5709414006122 67.8395099540582  L 29.8947108320058 67.6238897396631  L 30.6501728385907 71.2894333843798  L 31.6214811327714 72.690964777948  L 31.8373274203671 72.7987748851455  L 32.5927894269521 74.3081163859112  C 32.5927894269521 74.3081163859112  34.2116365839199 75.6018376722818  34.2116365839199 75.6018376722818  C 34.4274828715156 75.9252679938744  34.9670985905049 75.9252679938744  35.5067143094942 75.9252679938744  C 35.5067143094942 75.9252679938744  36.0463300284835 76.033078101072  36.0463300284835 76.033078101072  C 36.0463300284835 76.033078101072  37.0176383226641 75.6018376722818  37.0176383226641 75.6018376722818  C 37.7731003292491 75.2784073506891  38.5285623358341 74.9549770290965  39.3919474862169 74.8471669218989  C 39.3919474862169 74.8471669218989  40.0394863490041 74.5237366003063  40.0394863490041 74.5237366003063  C 40.0394863490041 74.5237366003063  41.550410362174 74.4159264931087  41.550410362174 74.4159264931087  C 42.0900260811633 74.4159264931087  42.305872368759 74.5237366003063  42.6296418001525 74.8471669218989  C 42.6296418001525 74.8471669218989  44.7881046761096 73.4456355283308  44.7881046761096 73.4456355283308  L 45.0039509637054 73.4456355283308  L 45.2197972513011 73.5534456355283  L 45.3277203950989 73.4456355283308  C 45.3277203950989 73.4456355283308  45.5435666826947 73.6612557427259  45.5435666826947 73.6612557427259  C 46.4069518330774 74.6315467075038  46.8386444082689 75.4940275650842  46.8386444082689 75.9252679938744  C 46.8386444082689 75.9252679938744  47.8099527024496 77.5424196018377  47.8099527024496 77.5424196018377  L 48.5654147090345 77.7580398162328  L 48.6733378528324 77.7580398162328  L 48.7812609966303 77.7580398162328  C 48.7812609966303 77.7580398162328  48.5654147090345 77.5424196018377  48.5654147090345 77.5424196018377  C 48.4574915652367 77.0033690658499  48.4574915652367 76.6799387442573  48.5654147090345 76.4643185298622  C 48.7812609966303 76.1408882082695  49.2129535718217 75.9252679938744  49.8604924346088 75.9252679938744  C 49.8604924346088 75.9252679938744  53.8536487551294 75.8174578866769  53.8536487551294 75.8174578866769  L 53.9615718989273 75.7096477794793  L 54.177418186523 75.7096477794793  L 54.177418186523 75.9252679938744  L 54.3932644741187 75.9252679938744  L 55.5804190558951 78.189280245023  L 55.4724959120973 79.375191424196  L 55.3645727682994 79.375191424196  L 56.8754967814694 79.6986217457887  C 56.8754967814694 79.6986217457887  56.9834199252672 79.6986217457887  56.9834199252672 79.6986217457887  C 56.8754967814694 79.375191424196  56.8754967814694 79.1595712098009  57.0913430690651 78.9439509954058  C 57.0913430690651 78.9439509954058  57.6309587880544 78.8361408882083  57.6309587880544 78.8361408882083  C 57.6309587880544 78.8361408882083  61.1924225333836 81.3157733537519  61.1924225333836 81.3157733537519  C 61.5161919647771 81.6392036753446  61.7320382523728 82.0704441041348  61.8399613961707 82.6094946401225  C 61.8399613961707 82.6094946401225  61.9478845399685 84.1188361408882  61.9478845399685 84.1188361408882  L 63.1350391217449 84.3344563552833  C 63.1350391217449 84.3344563552833  63.8905011283299 83.0407350689127  63.8905011283299 83.0407350689127  C 63.5667316969364 82.3938744257274  63.3508854093407 81.7470137825421  63.4588085531385 81.3157733537519  C 63.5667316969364 80.8845329249617  63.6746548407342 80.5611026033691  64.1063474159256 80.345482388974  C 64.1063474159256 80.345482388974  64.4301168473192 80.0220520673813  64.4301168473192 80.0220520673813  C 64.4301168473192 79.8064318529862  64.538039991117 79.6986217457887  64.7538862787127 79.5908116385911  C 64.7538862787127 79.5908116385911  65.7251945728934 79.6986217457887  65.7251945728934 79.6986217457887  C 66.2648102918827 80.0220520673813  66.6965028670741 81.1001531393568  66.9123491546698 82.9329249617152  C 66.9123491546698 82.9329249617152  66.9123491546698 83.1485451761103  66.9123491546698 83.1485451761103  C 66.9123491546698 83.1485451761103  67.1281954422656 83.2563552833078  67.1281954422656 83.2563552833078  C 67.2361185860634 83.687595712098  67.8836574488505 84.0110260336907  68.8549657430312 84.3344563552833  C 68.8549657430312 84.3344563552833  68.9628888868291 84.3344563552833  68.9628888868291 84.3344563552833  L 69.0708120306269 84.4422664624809  L 72.5243526321583 88  L 74.1431997891261 87.4609494640123  C 74.1431997891261 87.4609494640123  73.9273535015304 86.9218989280245  73.9273535015304 86.9218989280245  C 73.495660926339 86.3828483920368  73.3877377825411 85.843797856049  73.3877377825411 85.5203675344564  C 73.3877377825411 84.7656967840735  73.9273535015304 84.0110260336907  75.0065849395089 83.2563552833078  C 75.0065849395089 83.2563552833078  76.8412783840725 81.6392036753446  76.8412783840725 81.6392036753446  L 78.9997412600296 83.1485451761103  L 79.431433835221 83.1485451761103  L 79.8631264104123 80.7767228177642  L 79.8631264104123 80.345482388974  L 80.2948189856038 80.2376722817764  C 80.2948189856038 80.2376722817764  82.0215892863694 80.4532924961715  82.0215892863694 80.4532924961715  C 82.345358717763 80.7767228177642  82.5612050053587 81.1001531393568  82.5612050053587 81.6392036753446  C 82.5612050053587 82.0704441041348  82.2374355739652 82.6094946401225  81.9136661425716 83.0407350689127  C 81.9136661425716 83.0407350689127  82.2374355739652 83.2563552833078  82.2374355739652 83.2563552833078  C 83.3166670119437 83.7954058192956  84.1800521623265 84.2266462480858  84.8275910251137 84.3344563552833  C 84.8275910251137 84.3344563552833  84.9355141689116 84.3344563552833  84.9355141689116 84.3344563552833  L 86.3385150382836 85.0891271056662  L 87.4177464762622 84.9813169984686  C 87.4177464762622 84.9813169984686  85.7988993192943 77.1111791730475  85.7988993192943 77.1111791730475  C 84.7196678813158 76.4643185298622  83.7483595871352 75.1705972434916  82.7770512929545 73.6612557427259  C 82.0215892863694 72.3675344563553  82.4532818615609 70.5347626339969  84.1800521623265 68.378560490046  C 85.1513604565073 67.3004594180705  86.3385150382836 66.222358346095  87.6335927638579 65.1442572741195  C 87.6335927638579 65.1442572741195  87.7415159076558 64.9286370597244  87.7415159076558 64.9286370597244  L 89.2524399208258 64.9286370597244  L 89.3603630646236 65.1442572741195  L 90.6554407901978 65.6833078101072  C 90.6554407901978 65.6833078101072  93.3535193851442 65.6833078101072  93.3535193851442 65.6833078101072  C 94.4327508231227 65.1442572741195  95.4040591173034 63.5271056661562  96.483290555282 60.939663093415  C 97.1308294180691 59.4303215926493  97.1308294180691 56.3038284839204  96.6991368428777 51.4523736600306  Z " fill-rule="nonzero" fill="#0079fe" stroke="none" fill-opacity="0.658823529411765" transform="matrix(1 0 0 1 343 0 )" />
  </g>
</svg>