<?xml version="1.0" encoding="utf-8"?>
<svg version="1.1" xmlns:xlink="http://www.w3.org/1999/xlink" width="69px" height="55px" xmlns="http://www.w3.org/2000/svg">
  <g transform="matrix(1 0 0 1 -286 -289 )">
    <path d="M 63.8170347003155 18.3918890074706  C 64.782334384858 18.2843116328709  65.3186119873817 17.8540021344717  65.5331230283912 17.3161152614728  C 65.5331230283912 17.3161152614728  65.5331230283912 17.208537886873  65.5331230283912 17.208537886873  L 65.6403785488959 16.8858057630736  L 66.0694006309149 16.8858057630736  L 68 16.7782283884738  C 68 16.7782283884738  68 15.3797225186767  68 15.3797225186767  C 67.4637223974763 15.3797225186767  66.9274447949527 15.164567769477  66.391167192429 14.7342582710779  C 66.391167192429 14.7342582710779  63.1735015772871 11.8296691568837  63.1735015772871 11.8296691568837  L 63.1735015772871 11.7220917822839  L 61.7791798107256 7.63415154749197  C 61.7791798107256 7.63415154749197  59.8485804416404 5.69775880469586  59.8485804416404 5.69775880469586  C 57.4889589905363 5.59018143009605  55.6656151419558 5.59018143009605  54.3785488958991 5.69775880469586  C 54.3785488958991 5.69775880469586  53.9495268138802 5.80533617929562  53.9495268138802 5.80533617929562  L 54.0567823343849 7.09626467449304  L 54.0567823343849 7.31141942369266  L 54.0567823343849 7.63415154749197  L 53.7350157728707 7.63415154749197  L 52.018927444795 8.38719316969053  C 52.018927444795 8.38719316969053  51.6971608832808 8.17203842049091  51.6971608832808 8.17203842049091  C 50.3028391167192 6.77353255069373  49.4447949526814 6.2356456776948  48.9085173501578 6.55837780149411  C 45.1545741324922 8.38719316969053  43.0094637223975 9.24781216648877  42.3659305993691 8.81750266808965  C 41.9369085173502 8.92508004268946  41.4006309148265 9.35538954108858  40.6498422712934 10.1084311632871  C 40.6498422712934 10.1084311632871  40.3280757097792 10.5387406616863  40.3280757097792 10.5387406616863  C 40.3280757097792 10.5387406616863  39.8990536277603 10.1084311632871  39.8990536277603 10.1084311632871  C 38.8264984227129 9.14023479188902  38.2902208201893 8.27961579509072  38.2902208201893 7.63415154749197  C 38.2902208201893 7.20384204909285  39.0410094637224 6.34322305229454  40.3280757097792 4.94471718249731  C 41.8296529968454 3.22347918890076  42.5804416403785 2.25528281750265  42.5804416403785 2.04012806830308  C 42.5804416403785 2.04012806830308  42.2586750788643 1.50224119530415  42.2586750788643 1.50224119530415  C 41.8296529968454 1.28708644610459  40.9716088328076 1.71739594450371  39.8990536277603 2.57801494130202  C 38.8264984227129 3.33105656350051  38.1829652996846 3.65378868729988  37.7539432176656 3.54621131270013  C 37.5394321766562 3.54621131270013  37.3249211356467 3.22347918890076  37.217665615142 2.68559231590183  C 37.217665615142 2.68559231590183  37.1104100946373 2.47043756670227  37.1104100946373 2.47043756670227  L 36.1451104100946 0.749199573105658  L 34.1072555205048 2.04012806830308  L 33.8927444794953 2.25528281750265  L 33.7854889589905 2.04012806830308  C 33.7854889589905 2.04012806830308  33.6782334384858 2.04012806830308  33.6782334384858 2.04012806830308  C 32.1766561514196 1.17950907150478  30.782334384858 0.641622198505847  29.3880126182965 0.103735325506915  C 28.422712933754 -0.218996798292396  27.4574132492114 0.211312700106726  26.4921135646688 1.3946638207044  C 26.4921135646688 1.3946638207044  27.4574132492114 3.0083244397012  27.4574132492114 3.0083244397012  C 28.1009463722398 4.621985058698  28.422712933754 5.69775880469586  28.1009463722398 6.45080042689436  C 27.993690851735 6.77353255069373  27.6719242902208 7.09626467449304  27.2429022082019 7.09626467449304  C 26.5993690851735 7.31141942369266  25.6340694006309 7.09626467449304  24.4542586750789 6.12806830309499  C 23.4889589905363 5.48260405549624  22.7381703470032 4.94471718249731  22.0946372239748 4.621985058698  C 22.0946372239748 4.621985058698  20.807570977918 4.08409818569907  20.807570977918 4.08409818569907  L 20.807570977918 4.19167556029882  L 20.9148264984227 4.40683030949838  L 20.9148264984227 6.77353255069373  L 19.198738170347 8.70992529348984  L 19.198738170347 10.5387406616863  L 19.9495268138802 12.4751334044824  L 20.0567823343849 12.5827107790822  L 18.8769716088328 14.4115261472785  L 18.1261829652997 16.1327641408751  L 18.1261829652997 16.2403415154749  L 16.5173501577287 17.8540021344717  L 13.8359621451104 23.9859124866596  L 13.9432176656151 27.3208110992529  L 13.8359621451104 27.4283884738527  L 8.04416403785489 30.7632870864461  L 7.72239747634069 31.4087513340448  L 8.4731861198738 33.1299893276414  L 8.4731861198738 33.2375667022412  L 8.4731861198738 33.345144076841  L 7.93690851735014 35.6042689434365  L 5.57728706624605 35.2815368196372  L 5.04100946372239 38.1861259338314  L 2.03785488958988 38.1861259338314  L 1.39432176656153 39.2618996798293  L 0.53627760252366 41.0907150480256  L 0 47.8680896478122  L 0.643533123028416 49.2665955176094  L 0.750788643533111 49.481750266809  L 0.750788643533111 50.8802561366062  L 2.03785488958988 52.493916755603  L 2.14511041009464 52.7090715048026  L 2.14511041009464 54  L 5.57728706624605 53.7848452508005  L 5.7917981072555 53.4621131270011  L 5.7917981072555 53.3545357524013  L 5.89905362776025 53.3545357524013  L 5.89905362776025 53.2469583778015  L 6.86435331230282 51.9560298826041  L 4.71924290220818 50.0196371398079  L 4.50473186119873 49.8044823906084  L 3.32492113564671 48.8362860192102  L 3.21766561514196 48.7287086446105  L 3.1104100946372 48.6211312700107  L 3.1104100946372 46.469583778015  L 4.93375394321769 46.469583778015  L 5.14826498422714 45.7165421558165  L 4.39747634069403 43.5649946638207  L 8.58044164037855 43.5649946638207  L 15.981072555205 40.0149413020278  L 16.9463722397477 38.401280683031  L 17.1608832807571 37.863393810032  L 18.6624605678233 38.5088580576308  L 18.7697160883281 38.5088580576308  L 18.8769716088328 38.8315901814301  L 19.5205047318612 39.5846318036286  L 20.2712933753943 39.4770544290288  L 20.0567823343849 37.863393810032  L 22.5236593059937 37.863393810032  L 24.8832807570978 38.2937033084311  L 25.8485804416404 36.6800426894343  L 25.9558359621451 36.5724653148346  L 25.9558359621451 36.4648879402348  L 26.1703470031546 36.357310565635  L 28.7444794952682 35.6042689434365  L 29.1735015772871 31.839060832444  L 31.8548895899054 34.2057630736393  L 32.9274447949527 34.4209178228389  L 33.4637223974763 33.7754535752401  L 33.1419558359621 25.5995731056564  L 33.1419558359621 25.3844183564568  L 33.1419558359621 24.9541088580576  L 34.9652996845426 25.276840981857  L 35.0725552050473 25.276840981857  L 35.2870662460568 25.3844183564568  L 35.3943217665615 25.4919957310566  L 38.2902208201893 30.7632870864461  L 41.9369085173502 30.332977588047  L 42.5804416403785 30.1178228388474  L 43.1167192429022 28.82689434365  L 42.0441640378549 27.9662753468517  L 41.7223974763407 27.5359658484525  L 44.1892744479495 26.6753468516542  L 44.403785488959 26.5677694770544  L 44.5110410094637 26.4601921024546  L 45.4763406940063 27.5359658484525  L 46.3343848580442 27.1056563500534  L 46.3343848580442 25.4919957310566  L 46.8706624605678 25.3844183564568  C 46.8706624605678 25.3844183564568  48.6940063091483 25.3844183564568  48.6940063091483 25.3844183564568  C 49.9810725552051 25.4919957310566  50.9463722397476 26.1374599786553  51.6971608832808 27.1056563500534  C 51.6971608832808 27.1056563500534  51.9116719242902 27.5359658484525  51.9116719242902 27.5359658484525  C 51.9116719242902 27.5359658484525  52.6624605678234 24.9541088580576  52.6624605678234 24.9541088580576  C 53.0914826498423 24.3086446104589  53.9495268138802 24.2010672358591  55.2365930599369 24.7389541088581  C 55.2365930599369 24.7389541088581  55.4511041009464 24.8465314834578  55.4511041009464 24.8465314834578  L 55.4511041009464 24.9541088580576  C 55.4511041009464 24.9541088580576  55.5583596214511 25.0616862326574  55.5583596214511 25.0616862326574  C 55.6656151419558 25.1692636072572  55.8801261829653 25.276840981857  55.98738170347 25.276840981857  C 56.5236593059937 25.0616862326574  58.4542586750789 23.77075773746  61.5646687697161 21.2964781216649  C 61.5646687697161 19.6828175026681  62.422712933754 18.8221985058698  63.8170347003155 18.3918890074706  Z " fill-rule="nonzero" fill="#0079fe" stroke="none" fill-opacity="0.658823529411765" transform="matrix(1 0 0 1 286 289 )" />
  </g>
</svg>