<?xml version="1.0" encoding="utf-8"?>
<svg version="1.1" xmlns:xlink="http://www.w3.org/1999/xlink" width="47px" height="68px" xmlns="http://www.w3.org/2000/svg">
  <g transform="matrix(1 0 0 1 -309 -113 )">
    <path d="M 43.4669703872437 21.0398724082935  L 43.25284738041 20.4976076555024  L 42.3963553530752 20.0637958532695  L 42.2892938496583 20.0637958532695  L 41.6469248291572 19.4130781499203  L 38.6492027334852 18.5454545454546  L 37.8997722095672 18.5454545454546  L 37.3644646924829 18.762360446571  L 36.1867881548975 16.4848484848485  L 36.2938496583143 16.3763955342903  L 37.1503416856492 15.2918660287081  L 37.1503416856492 13.9904306220096  L 37.257403189066 13.7735247208931  L 37.7927107061503 12.9059011164274  L 37.3644646924829 12.688995215311  L 35.7585421412301 12.3636363636364  L 32.9749430523918 11.9298245614035  L 32.7608200455581 11.9298245614035  L 31.1548974943052 10.3030303030303  L 31.1548974943052 10.1945773524721  L 30.6195899772209 9.11004784688996  L 30.5125284738041 8.78468899521532  L 31.3690205011389 6.50717703349282  L 31.3690205011389 4.88038277511962  L 31.2619589977221 4.44657097288677  L 30.4054669703872 5.31419457735248  L 30.2984054669704 5.42264752791068  L 30.0842824601367 5.74800637958534  L 29.870159453303 5.42264752791068  L 29.5489749430524 5.31419457735248  L 27.9430523917995 4.01275917065391  L 27.7289293849658 3.79585326953748  L 27.7289293849658 3.57894736842106  L 27.4077448747152 1.19298245614036  L 26.6583143507973 0  L 25.0523917995444 0.108452950558223  L 24.0888382687927 1.84370015948964  L 23.9817767653758 2.06060606060607  L 23.874715261959 2.16905901116427  L 21.3052391799544 1.62679425837321  L 20.876993166287 4.01275917065391  L 20.876993166287 6.39872408293461  L 20.7699316628701 6.50717703349282  L 19.378132118451 8.67623604465709  L 19.378132118451 8.89314194577352  L 19.1640091116173 9.00159489633175  L 19.0569476082004 9.00159489633175  L 17.4510250569476 9.11004784688996  L 15.8451025056947 10.4114832535885  L 15.630979498861 10.628389154705  L 15.4168564920273 10.628389154705  L 15.3097949886104 10.5199362041467  L 12.3120728929385 9.54385964912282  L 11.883826879271 10.628389154705  L 11.883826879271 10.7368421052632  C 11.883826879271 10.7368421052632  10.5990888382688 12.9059011164274  10.5990888382688 12.9059011164274  C 10.3849658314351 13.3397129186603  10.0637813211845 13.5566188197767  9.74259681093391 13.6650717703349  C 9.74259681093391 13.6650717703349  8.45785876993164 13.4481658692185  8.45785876993164 13.4481658692185  L 6.74487471526191 12.688995215311  L 6.4236902050114 12.4720893141946  L 6.31662870159451 12.3636363636364  L 6.31662870159451 12.2551834130782  L 5.99544419134393 9.65231259968103  L 5.46013667425965 7.70015948963318  L 5.13895216400906 7.15789473684211  L 4.38952164009108 8.67623604465709  L 3.10478359908882 10.4114832535885  L 2.03416856492025 12.9059011164274  L 2.03416856492025 13.0143540669856  L 2.03416856492025 13.1228070175439  L 1.92710706150337 13.1228070175439  C 1.92710706150337 13.1228070175439  0.963553530751684 14.5326953748006  0.963553530751684 14.5326953748006  C 0.963553530751684 14.9665071770335  0.642369020501103 15.6172248803828  0 16.5933014354067  C 0 16.5933014354067  0.642369020501103 19.0877192982456  0.642369020501103 19.0877192982456  L 3.8542141230068 22.6666666666667  L 4.92482915717536 24.9441786283891  L 4.92482915717536 25.1610845295056  L 4.81776765375854 25.377990430622  L 4.71070615034167 25.377990430622  L 3.8542141230068 26.4625199362041  L 3.6400911161731 26.6794258373206  L 1.49886104783597 27.1132376395534  L 1.71298405466967 28.8484848484848  L 3.31890660592252 29.7161084529506  L 5.67425968109335 30.2583732057416  L 6.31662870159451 32.4274322169059  L 6.31662870159451 32.5358851674641  L 6.31662870159451 32.6443381180223  L 5.78132118451023 36.3317384370016  L 5.78132118451023 36.4401913875598  L 4.92482915717536 38.066985645933  L 4.92482915717536 38.3923444976077  L 4.71070615034167 38.3923444976077  L 2.03416856492025 38.8261562998405  L 2.03416856492025 39.9106858054227  L 1.28473804100227 42.2966507177033  L 0.963553530751684 45.0079744816587  L 1.49886104783597 46.5263157894737  L 4.81776765375854 48.5869218500797  L 4.92482915717536 48.6953748006379  L 6.31662870159451 51.0813397129186  L 6.31662870159451 51.1897926634769  L 6.4236902050114 51.2982456140351  L 6.31662870159451 51.4066985645933  L 4.60364464692478 55.2025518341308  L 4.17539863325738 56.2870813397129  L 3.10478359908882 58.7814992025518  L 2.67653758542141 60.7336523125997  L 2.56947608200453 60.9505582137161  C 2.56947608200453 60.9505582137161  2.56947608200453 61.0590111642743  2.56947608200453 61.0590111642743  C 2.03416856492025 61.4928229665072  1.71298405466967 61.92663476874  1.49886104783597 62.5773524720893  C 1.39179954441909 62.7942583732057  1.39179954441909 63.0111642743221  1.60592255125285 63.2280701754386  C 1.60592255125285 63.2280701754386  1.71298405466967 63.3365231259968  1.71298405466967 63.3365231259968  L 2.78359908883823 64.5295055821371  L 3.31890660592252 65.3971291866029  L 3.53302961275622 65.2886762360447  L 3.6400911161731 65.6140350877193  L 3.6400911161731 65.7224880382775  L 3.6400911161731 66.0478468899521  L 3.6400911161731 66.1562998405104  L 3.8542141230068 66.8070175438596  L 4.81776765375854 67.1323763955343  C 4.81776765375854 67.1323763955343  8.67198177676534 68  8.67198177676534 68  C 9.95671981776761 68  11.1343963553531 67.6746411483253  12.4191343963553 67.1323763955343  C 13.7038724373576 66.5901116427432  14.881548974943 66.481658692185  16.1662870159453 66.6985645933014  C 16.1662870159453 66.6985645933014  16.380410022779 65.9393939393939  16.380410022779 65.9393939393939  L 15.0956719817767 63.0111642743221  L 14.9886104783599 62.7942583732057  L 15.0956719817767 62.7942583732057  L 21.1981776765375 54.2264752791068  L 27.7289293849658 47.8277511961722  L 27.8359908883827 47.8277511961722  L 29.870159453303 47.0685805422647  L 30.9407744874715 45.8755980861244  C 30.9407744874715 45.8755980861244  30.9407744874715 45.7671451355662  30.9407744874715 45.7671451355662  C 31.7972665148064 45.1164274322169  32.5466970387244 44.6826156299841  33.4031890660592 44.3572567783094  C 33.4031890660592 44.3572567783094  32.7608200455581 43.8149920255183  32.7608200455581 43.8149920255183  L 31.3690205011389 42.4051036682615  L 31.3690205011389 42.2966507177033  L 31.2619589977221 42.2966507177033  L 30.1913439635535 40.9952153110048  L 30.0842824601367 40.7783094098883  L 30.0842824601367 40.5614035087719  L 30.6195899772209 39.9106858054227  L 29.2277904328018 40.2360446570973  C 29.2277904328018 40.2360446570973  26.2300683371299 39.4768740031898  26.2300683371299 39.4768740031898  C 25.0523917995444 38.9346092503987  24.3029612756264 38.2838915470494  24.0888382687927 37.5247208931419  C 23.4464692482916 35.5725677830941  23.2323462414579 33.8373205741627  23.3394077448747 32.3189792663477  C 22.9111617312073 32.8612440191388  22.375854214123 32.969696969697  21.8405466970387 32.969696969697  C 21.8405466970387 32.969696969697  19.5922551252847 32.4274322169059  19.5922551252847 32.4274322169059  L 18.0933940774487 31.3429027113238  L 16.2733485193622 30.9090909090909  C 16.2733485193622 30.9090909090909  15.4168564920273 30.9090909090909  15.4168564920273 30.9090909090909  C 14.881548974943 30.9090909090909  14.2391799544419 30.6921850079745  13.8109339407745 30.2583732057416  C 13.1685649202733 29.8245614035088  12.8473804100228 29.3907496012759  12.7403189066059 28.9569377990431  C 12.5261958997722 28.0893141945774  12.7403189066059 27.5470494417863  13.4897494305239 27.0047846889952  C 14.2391799544419 26.4625199362041  15.0956719817767 25.5948963317384  15.8451025056947 24.5103668261563  C 15.0956719817767 23.5342902711324  14.7744874715262 22.5582137161085  15.0956719817767 21.5821371610845  C 15.0956719817767 21.5821371610845  15.2027334851936 21.4736842105263  15.2027334851936 21.4736842105263  C 15.3097949886104 20.9314194577352  16.1662870159453 20.4976076555024  17.7722095671982 19.9553429027113  C 17.879271070615 19.4130781499203  18.0933940774487 19.0877192982456  18.3075170842824 18.9792663476874  C 18.3075170842824 18.9792663476874  19.9134396355353 19.0877192982456  19.9134396355353 19.0877192982456  C 19.9134396355353 19.0877192982456  19.6993166287016 18.8708133971292  19.6993166287016 18.8708133971292  C 18.628701594533 18.2200956937799  18.3075170842824 17.4609250398724  18.8428246013667 16.5933014354067  C 18.8428246013667 16.5933014354067  19.6993166287016 15.9425837320574  19.6993166287016 15.9425837320574  C 20.6628701594533 15.6172248803828  21.8405466970387 15.725677830941  23.0182232346242 16.3763955342903  C 23.0182232346242 16.3763955342903  25.4806378132118 18.1116427432217  25.4806378132118 18.1116427432217  L 27.7289293849658 18.1116427432217  L 28.4783599088838 18.762360446571  C 28.4783599088838 18.762360446571  28.6924829157175 19.6299840510367  28.6924829157175 19.6299840510367  C 28.6924829157175 20.1722488038277  28.371298405467 20.4976076555024  27.9430523917995 20.4976076555024  C 27.4077448747152 20.4976076555024  27.1936218678815 21.0398724082935  27.0865603644647 21.6905901116427  C 27.0865603644647 21.6905901116427  28.1571753986332 24.2934609250399  28.1571753986332 24.2934609250399  C 28.7995444191344 23.3173843700159  29.4419134396356 22.7751196172249  30.0842824601367 22.6666666666667  C 30.4054669703872 22.6666666666667  30.8337129840546 22.8835725677831  31.1548974943052 23.3173843700159  C 31.4760820045558 23.859649122807  31.7972665148064 24.8357256778309  32.0113895216401 25.8118022328549  C 32.118451025057 27.0047846889952  32.4396355353075 27.9808612440191  32.7608200455581 28.5231259968102  C 32.7608200455581 28.5231259968102  33.6173120728929 29.7161084529506  33.6173120728929 29.7161084529506  C 34.9020501138952 31.3429027113238  35.6514806378132 32.5358851674641  35.8656036446469 33.511961722488  C 35.8656036446469 33.511961722488  40.0410022779043 32.969696969697  40.0410022779043 32.969696969697  L 41.8610478359909 31.993620414673  L 43.5740318906606 29.8245614035088  L 44.3234624145786 27.7639553429027  L 44.3234624145786 27.6555023923445  L 44.3234624145786 27.5470494417863  L 44.8587699316629 25.377990430622  L 44.8587699316629 25.2695374800638  L 44.9658314350797 25.0526315789474  L 45.0728929384966 25.0526315789474  L 46.6788154897494 23.9681020733652  L 47 23.7511961722488  L 46.8929384965831 23.6427432216906  L 44.2164009111617 22.7751196172249  L 44.002277904328 22.7751196172249  L 44.002277904328 22.6666666666667  L 43.4669703872437 21.0398724082935  Z " fill-rule="nonzero" fill="#0079fe" stroke="none" fill-opacity="0.219607843137255" transform="matrix(1 0 0 1 309 113 )" />
  </g>
</svg>