<?xml version="1.0" encoding="utf-8"?>
<svg version="1.1" xmlns:xlink="http://www.w3.org/1999/xlink" width="10px" height="9px" xmlns="http://www.w3.org/2000/svg">
  <g transform="matrix(1 0 0 1 -379 -219 )">
    <path d="M 8.25000000000001 4.27579178044271  L 9 3.42454418740103  L 9 3.31813823827083  C 9 3.31813823827083  6.32142857142856 1.19001925566667  6.32142857142856 1.19001925566667  C 4.92857142857141 0.232365713494787  3.75000000000001 -0.086852133895819  2.89285714285714 0.0195538152343832  C 2.89285714285714 0.0195538152343832  1.71428571428568 0.445177611755222  1.71428571428568 0.445177611755222  C 1.71428571428568 0.445177611755222  1.71428571428568 2.67970254348959  1.71428571428568 2.67970254348959  C 1.49999999999998 3.42454418740103  1.1785714285714 4.27579178044271  0.428571428571406 4.91422747522395  C 0.428571428571406 4.91422747522395  0 5.33985127174479  0 5.33985127174479  L 1.07142857142857 6.61672266130728  L 1.1785714285714 6.61672266130728  L 1.49999999999998 7.46797025434896  C 1.49999999999998 7.46797025434896  2.78571428571426 8  2.78571428571426 8  C 3.53571428571431 7.46797025434896  4.0714285714286 7.25515835608855  4.60714285714288 7.36156430521875  C 4.60714285714288 7.36156430521875  6.85714285714285 7.78718810173959  6.85714285714285 7.78718810173959  C 6.85714285714285 7.78718810173959  6.96428571428574 7.04234645782812  6.96428571428574 7.04234645782812  C 7.07142857142856 5.5526631700052  7.60714285714284 4.70141557696355  8.25000000000001 4.27579178044271  Z " fill-rule="nonzero" fill="#0079fe" stroke="none" transform="matrix(1 0 0 1 379 219 )" />
  </g>
</svg>