<?xml version="1.0" encoding="utf-8"?>
<svg version="1.1" xmlns:xlink="http://www.w3.org/1999/xlink" width="12px" height="17px" xmlns="http://www.w3.org/2000/svg">
  <g transform="matrix(1 0 0 1 -333 -136 )">
    <path d="M 6.39905772689216 0.220689655172417  C 6.39905772689216 0.220689655172417  6.07041899309873 0  6.07041899309873 0  C 5.52268777010971 0  4.97495654712068 0.551724137931034  4.42722532413165 1.76551724137932  C 4.42722532413165 1.76551724137932  4.09858659033822 1.5448275862069  4.09858659033822 1.5448275862069  L 3.98904034574046 1.6551724137931  L 4.09858659033822 1.76551724137932  L 3.112670388958 2.75862068965517  L 2.6744854105668 2.9793103448276  L 1.46947671999092 3.64137931034484  C 1.46947671999092 3.64137931034484  1.35993047539309 4.41379310344827  1.35993047539309 4.41379310344827  C 1.46947671999092 5.62758620689655  1.14083798619749 6.51034482758621  0.593106763208462 6.84137931034485  C 0.593106763208462 6.84137931034485  0.154921784817265 8.16551724137932  0.154921784817265 8.16551724137932  C 0.0453755402194344 8.49655172413795  -0.0641707043783337 9.37931034482759  0.0453755402194344 10.5931034482759  C 0.0453755402194344 10.5931034482759  0.702653007806292 13.9034482758621  0.702653007806292 13.9034482758621  C 0.921745497001891 14.3448275862069  1.46947671999092 14.8965517241379  2.56493916596897 15.3379310344828  C 2.56493916596897 15.3379310344828  5.08450279171851 16  5.08450279171851 16  C 5.74178025930531 16  6.61815021608776 15.6689655172414  7.60406641746805 15.0068965517241  C 7.60406641746805 15.0068965517241  6.94678894988119 13.7931034482759  6.94678894988119 13.7931034482759  L 6.94678894988119 13.5724137931035  L 6.94678894988119 13.4620689655173  L 7.16588143907679 12.4689655172414  L 7.16588143907679 12.3586206896552  L 8.37089012965267 10.1517241379311  L 10.452268777011 10.1517241379311  C 10.452268777011 10.1517241379311  11 10.0413793103448  11 10.0413793103448  C 10.7809075108044 9.37931034482759  10.1236300432175 8.16551724137932  8.9186213526417 6.62068965517241  C 8.9186213526417 6.62068965517241  8.15179764045708 5.51724137931035  8.15179764045708 5.51724137931035  C 7.71361266206582 4.63448275862071  7.27542768367462 3.64137931034484  7.16588143907679 2.31724137931034  C 6.94678894988119 1.32413793103449  6.61815021608776 0.662068965517251  6.39905772689216 0.220689655172417  Z " fill-rule="nonzero" fill="#0079fe" stroke="none" transform="matrix(1 0 0 1 333 136 )" />
  </g>
</svg>