<?xml version="1.0" encoding="utf-8"?>
<svg version="1.1" xmlns:xlink="http://www.w3.org/1999/xlink" width="52px" height="45px" xmlns="http://www.w3.org/2000/svg">
  <g transform="matrix(1 0 0 1 -229 -254 )">
    <path d="M 41.275 1.62650602409638  L 40.8416666666667 0.867469879518084  L 40.0833333333333 0.542168674698795  L 39.2166666666667 1.08433734939759  C 39.2166666666667 1.08433734939759  38.675 2.06024096385543  38.675 2.06024096385543  C 38.2416666666667 3.03614457831326  37.8083333333333 3.57831325301206  37.05 3.57831325301206  C 36.6166666666667 3.57831325301206  36.075 3.25301204819277  35.75 2.92771084337351  C 35.75 2.92771084337351  35.6416666666667 2.81927710843373  35.6416666666667 2.81927710843373  L 35.5333333333333 2.71084337349397  L 35.2083333333333 1.62650602409638  L 35.2083333333333 1.51807228915663  L 35.1 0.108433734939753  L 34.45 0  L 34.3416666666667 0.108433734939753  L 34.0166666666667 1.19277108433734  L 34.0166666666667 2.71084337349397  L 33.9083333333333 2.81927710843373  L 33.8 2.92771084337351  L 32.5 4.66265060240965  L 32.2833333333333 4.87951807228916  L 32.0666666666667 4.87951807228916  L 29.4666666666667 4.66265060240965  L 29.25 4.66265060240965  L 29.25 4.7710843373494  L 29.25 4.87951807228916  L 28.3833333333333 6.0722891566265  L 28.7083333333333 6.83132530120483  L 28.8166666666667 6.83132530120483  L 28.0583333333333 8.02409638554217  L 25.675 8.02409638554217  L 25.675 7.59036144578313  L 25.4583333333333 7.37349397590362  L 25.1333333333333 7.15662650602409  L 24.7 7.91566265060242  L 24.5916666666667 8.24096385542168  L 22.9666666666667 8.24096385542168  L 22.8583333333333 8.13253012048192  L 21.8833333333333 7.37349397590362  L 21.775 7.15662650602409  L 21.775 7.04819277108433  L 21.6666666666667 7.04819277108433  L 21.6666666666667 6.83132530120483  L 19.9333333333333 6.50602409638554  L 18.6333333333333 7.04819277108433  L 17.875 7.59036144578313  L 20.0416666666667 10.0843373493976  L 22.8583333333333 10.9518072289156  L 22.9666666666667 11.0602409638554  L 23.075 11.1686746987952  L 24.4833333333333 12.4698795180723  L 23.9416666666667 14.6385542168675  L 23.9416666666667 14.9638554216868  L 23.8333333333333 14.9638554216868  L 21.9916666666667 16.4819277108434  L 21.9916666666667 16.5903614457831  L 21.8833333333333 16.5903614457831  L 18.85 17.4578313253012  L 18.7416666666667 17.4578313253012  L 17.0083333333333 17.6746987951807  L 16.9 17.6746987951807  L 16.7916666666667 17.6746987951807  L 15.6 17.2409638554217  L 14.95 17.1325301204819  L 14.3 18.2168674698795  L 14.1916666666667 18.2168674698795  L 14.1916666666667 18.3253012048193  L 12.7833333333333 19.3012048192771  L 12.675 19.3012048192771  L 10.725 20.1686746987952  L 10.6166666666667 20.1686746987952  L 8.34166666666668 19.4096385542169  L 3.35833333333336 19.6265060240964  L 2.27500000000002 19.9518072289157  L 2.16666666666667 20.0602409638554  L 1.19166666666669 20.0602409638554  L 0 21.6867469879518  L 0.216666666666685 23.5301204819277  L 1.30000000000002 26.0240963855422  L 2.49166666666668 26.6746987951807  L 2.6 26.6746987951807  L 2.6 26.7831325301205  L 3.03333333333334 27.1084337349398  L 3.79166666666666 26.0240963855422  L 3.90000000000002 25.9156626506024  L 4.00833333333335 25.8072289156626  L 4.11666666666668 25.8072289156626  L 5.74166666666667 25.5903614457831  L 5.95833333333333 25.5903614457831  L 5.95833333333333 25.6987951807229  L 7.58333333333333 26.1325301204819  L 9.20833333333333 29.8192771084337  L 9.1 29.8192771084337  L 9.1 29.9277108433735  L 8.45 31.9879518072289  L 7.90833333333334 33.289156626506  L 7.90833333333334 33.3975903614457  L 7.15000000000002 35.2409638554217  L 7.15000000000002 37.5180722891566  L 8.45 38.8192771084337  L 8.55833333333334 38.8192771084337  L 10.2916666666667 40.3373493975904  L 10.5083333333333 40.4457831325301  L 10.6166666666667 40.5542168674699  L 9.31666666666668 43.5903614457831  L 8.99166666666667 45  L 9.42500000000001 44.7831325301204  L 9.53333333333334 44.7831325301204  L 10.6166666666667 44.3493975903614  L 12.5666666666667 43.2650602409638  L 12.675 43.2650602409638  L 14.8416666666667 43.5903614457831  L 14.95 43.5903614457831  L 18.2 44.8915662650602  L 21.775 44.8915662650602  L 22.75 43.5903614457831  L 22.8583333333333 43.4819277108433  L 22.9666666666667 43.3734939759036  L 24.8083333333333 42.5060240963855  L 26.5416666666667 40.9879518072289  L 26.7583333333333 40.8795180722892  L 28.0583333333333 40.4457831325301  L 29.4666666666667 39.3614457831325  L 31.0916666666667 37.1927710843373  L 33.3666666666667 38.0602409638554  L 33.6916666666667 38.1686746987952  L 33.6916666666667 38.2771084337349  C 33.6916666666667 38.2771084337349  33.8 38.3855421686747  33.8 38.3855421686747  C 34.125 39.2530120481928  34.45 39.6867469879518  34.775 39.7951807228916  C 34.775 39.7951807228916  36.1833333333333 39.578313253012  36.1833333333333 39.578313253012  L 36.5083333333333 39.578313253012  L 37.2666666666667 39.7951807228916  L 37.375 39.7951807228916  L 37.375 39.9036144578313  L 39.2166666666667 40.5542168674699  L 39.7583333333333 40.5542168674699  L 39.8666666666667 40.1204819277108  L 40.0833333333333 39.4698795180723  L 40.0833333333333 39.3614457831325  L 40.1916666666667 39.2530120481928  L 40.3 39.144578313253  L 40.3 39.0361445783133  L 40.95 38.6024096385542  L 41.0583333333333 38.4939759036145  L 42.25 37.5180722891566  L 42.3583333333333 37.5180722891566  L 42.4666666666667 37.4096385542169  L 42.6833333333333 37.4096385542169  C 42.6833333333333 37.4096385542169  43.7666666666667 37.5180722891566  43.7666666666667 37.5180722891566  C 43.7666666666667 36.8674698795181  44.0916666666667 36.2168674698795  44.7416666666667 35.5662650602409  C 45.5 35.0240963855421  46.0416666666666 34.6987951807229  46.3666666666667 34.8072289156626  C 46.3666666666667 34.8072289156626  47.0166666666666 34.3734939759036  47.0166666666666 34.3734939759036  L 47.125 34.3734939759036  L 47.125 34.2650602409638  L 47.6666666666667 33.722891566265  L 47.6666666666667 33.6144578313253  L 47.775 33.6144578313253  L 47.8833333333333 33.5060240963855  L 47.9916666666667 33.5060240963855  L 49.725 33.0722891566265  L 50.7 33.0722891566265  L 51.1333333333333 32.7469879518072  L 51.4583333333333 32.0963855421686  L 52 31.0120481927711  C 52 31.0120481927711  51.7833333333333 30.9036144578313  51.7833333333333 30.9036144578313  C 51.1333333333333 30.144578313253  50.7 29.2771084337349  50.4833333333333 28.0843373493976  C 50.4833333333333 28.0843373493976  50.375 27.9759036144578  50.375 27.9759036144578  L 50.4833333333333 27.9759036144578  L 50.4833333333333 27.8674698795181  C 50.4833333333333 27.8674698795181  50.9166666666667 25.4819277108434  50.9166666666667 25.4819277108434  C 50.9166666666667 24.722891566265  51.1333333333333 24.1807228915662  51.675 23.6385542168674  C 51.675 23.6385542168674  51.4583333333333 21.6867469879518  51.4583333333333 21.6867469879518  C 51.35 21.4698795180723  51.1333333333333 21.2530120481928  50.5916666666667 21.144578313253  C 50.5916666666667 21.144578313253  47.125 22.5542168674698  47.125 22.5542168674698  C 47.125 22.5542168674698  47.3416666666667 18.9759036144578  47.3416666666667 18.9759036144578  C 47.45 18.433734939759  48.5333333333333 17.4578313253012  50.5916666666667 16.2650602409638  C 50.5916666666667 16.2650602409638  49.6166666666667 12.4698795180723  49.6166666666667 12.4698795180723  C 49.4 11.1686746987952  49.725 10.1927710843373  50.5916666666667 9.32530120481926  C 50.5916666666667 9.32530120481926  50.375 8.67469879518072  50.375 8.67469879518072  L 49.2916666666667 8.67469879518072  L 48.9666666666667 8.78313253012047  C 48.9666666666667 8.78313253012047  48.425 10.3012048192771  48.425 10.3012048192771  C 47.9916666666667 10.8433734939759  47.5583333333333 11.1686746987952  47.125 11.1686746987952  C 47.125 11.1686746987952  46.9083333333333 11.1686746987952  46.9083333333333 11.1686746987952  L 45.825 10.4096385542169  L 45.7166666666667 10.4096385542169  L 45.6083333333333 10.4096385542169  L 45.6083333333333 10.3012048192771  L 45.6083333333333 10.0843373493976  L 45.2833333333333 9.32530120481926  L 45.175 8.24096385542168  L 45.175 8.13253012048192  L 45.0666666666667 8.34939759036146  L 44.9583333333333 8.67469879518072  L 43.0083333333333 8.67469879518072  L 42.7916666666666 8.24096385542168  L 42.4666666666667 7.04819277108433  L 42.4666666666667 5.42168674698795  L 41.275 3.36144578313252  L 41.275 1.62650602409638  Z " fill-rule="nonzero" fill="#0079fe" stroke="none" fill-opacity="0.219607843137255" transform="matrix(1 0 0 1 229 254 )" />
  </g>
</svg>