<?xml version="1.0" encoding="utf-8"?>
<svg version="1.1" xmlns:xlink="http://www.w3.org/1999/xlink" width="170px" height="103px" xmlns="http://www.w3.org/2000/svg">
  <g transform="matrix(1 0 0 1 -20 -170 )">
    <path d="M 22.5083087071721 0.323899371069195  L 20.668706984505 0.323899371069195  C 20.668706984505 0.323899371069195  20.668706984505 0.431865828092249  20.668706984505 0.431865828092249  C 20.235859520348 1.4035639412998  19.4772943394129 2.05136268343816  18.6126815297594 2.8071278825996  C 17.9634103335239 3.13102725366877  17.7469866014454 3.67085953878407  17.7469866014454 4.31865828092243  C 17.7469866014454 4.31865828092243  17.7469866014454 4.64255765199163  17.7469866014454 4.64255765199163  C 17.7469866014454 5.18238993710693  17.4223510033277 6.04612159329143  16.5566560750138 7.34171907756815  C 16.5566560750138 7.34171907756815  16.4484442089745 7.88155136268345  16.4484442089745 7.88155136268345  C 16.2309383582356 8.20545073375265  15.7991730127391 8.42138364779875  15.0416899504644 8.42138364779875  C 15.0416899504644 8.42138364779875  8.8736135862275 7.66561844863734  8.8736135862275 7.66561844863734  L 8.8736135862275 7.7735849056604  L 8.44076612207053 9.17714884696017  L 8.44076612207053 9.28511530398325  C 8.44076612207053 9.28511530398325  8.33255425603129 9.39308176100631  8.33255425603129 9.39308176100631  C 6.70937626544264 11.6603773584906  5.62725760505021 13.2798742138365  5.51904573901097 14.3595387840671  C 5.40975175431133 14.8993710691824  6.06010506920718 16.8427672955975  7.46685932771734 20.1897274633124  C 7.46685932771734 20.1897274633124  8.44076612207053 22.4570230607967  8.44076612207053 22.4570230607967  C 8.8736135862275 23.5366876310273  8.54897798810977 24.832285115304  7.5739890750962 26.2358490566038  C 7.5739890750962 26.2358490566038  5.62725760505021 28.1792452830189  5.62725760505021 28.1792452830189  L 2.38090162387292 28.1792452830189  L 1.73163042763746 24.6163522012579  L 0.865935499323515 29.0429769392034  C 0.865935499323515 29.0429769392034  2.27268975783368 31.2023060796646  2.27268975783368 31.2023060796646  C 2.38090162387292 31.5262054507338  2.38090162387292 31.7421383647799  2.27268975783368 31.8501048218029  C 2.27268975783368 31.8501048218029  2.05626602575519 32.0660377358491  2.05626602575519 32.0660377358491  C 1.62233644293783 32.3899371069182  0.97414736536276 33.4696016771488  0.3248761691273 35.3050314465409  C -0.324395027108156 36.9245283018868  -0.000841547650819982 38.5440251572327  1.29878296348049 40.2714884696017  C 1.29878296348049 40.2714884696017  3.89586774842232 40.2714884696017  3.89586774842232 40.2714884696017  C 4.76156267673627 40.4874213836478  6.06010506920718 41.8909853249476  7.89970679187432 44.374213836478  C 7.89970679187432 44.374213836478  8.00791865791356 44.5901467505241  8.00791865791356 44.5901467505241  C 8.00791865791356 45.3459119496855  8.33255425603129 45.8857442348008  8.8736135862275 46.3176100628931  C 8.8736135862275 46.3176100628931  14.607760367647 51.6079664570231  14.607760367647 51.6079664570231  L 14.607760367647 51.7159329140461  L 17.2059272712492 54.954926624738  L 18.7208933957986 54.954926624738  L 20.3440713863873 52.0398322851153  L 20.5594129998054 51.8238993710692  L 20.668706984505 51.7159329140461  L 24.672546027957 52.6876310272537  L 24.672546027957 52.7955974842767  L 24.672546027957 53.0115303983229  L 25.2136053581532 55.7106918238994  L 29.9749274638799 61.2169811320755  L 31.5981054544685 61.8647798742138  L 31.7063173205078 61.9727463312369  L 32.4627182641221 62.4046121593292  L 32.5720122488217 62.5125786163522  L 36.1430038281168 67.8029350104822  L 39.0647242111763 67.3710691823899  L 39.2811479432548 67.3710691823899  L 39.389359809294 67.3710691823899  L 39.6057835413725 67.5870020964361  L 39.7139954074118 67.8029350104822  L 42.201786207654 72.9853249475891  L 45.2328005754132 74.8207547169811  L 47.7216734943158 75.4685534591195  L 48.9120040207474 78.8155136268344  L 50.7516057434146 78.8155136268344  L 50.8587354907934 78.9234800838575  L 54.7554447868665 81.0828092243187  L 54.7554447868665 81.1907756813417  L 54.8636566529058 81.2987421383648  L 57.6771651699261 84.7536687631027  L 61.7892160794174 83.9979035639413  L 62.0056398114958 83.9979035639413  L 63.5206059360453 84.6457023060797  L 63.6288178020845 84.6457023060797  L 66.2259025870263 86.9129979035639  L 70.8790128267138 87.2368972746331  C 70.8790128267138 87.2368972746331  73.6925213437341 86.8050314465409  73.6925213437341 86.8050314465409  C 77.4799366551076 86.1572327044025  79.8605977079709 86.4811320754717  80.7262926362849 87.4528301886792  C 81.2673519664811 88.3165618448637  80.9427163683634 89.1802935010482  79.6441739758925 90.2599580712788  C 79.6441739758925 90.2599580712788  78.5620553155 91.3396226415095  78.5620553155 91.3396226415095  C 78.2374197173823 91.8794549266248  78.6702671815393 92.7431865828092  80.0770214400494 94.038784067086  C 80.0770214400494 94.038784067086  80.1852333060887 94.2547169811321  80.1852333060887 94.2547169811321  L 80.0770214400494 94.2547169811321  L 80.9427163683634 94.9025157232704  C 80.9427163683634 94.9025157232704  81.2673519664811 94.5786163522013  81.2673519664811 94.5786163522013  C 83.9726486174622 89.5041928721174  86.136885938247 86.6970649895178  87.6518520627965 86.1572327044025  C 89.2750300533851 85.6174004192872  92.6295979006016 87.020964360587  97.9319793365245 90.2599580712788  C 97.9319793365245 90.2599580712788  104.424691298879 91.4475890985325  104.424691298879 91.4475890985325  L 104.31647943284 91.6635220125786  L 104.31647943284 91.8794549266248  L 103.991843834722 94.9025157232704  L 107.238199815899 95.3343815513627  C 107.238199815899 95.3343815513627  107.12998794986 99.437106918239  107.12998794986 99.437106918239  C 108.103894744213 101.272536687631  108.861377806488 102.352201257862  109.294225270645 102.676100628931  C 109.943496466881 103.107966457023  113.189852448058 103.107966457023  118.925081348138 102.676100628931  C 118.925081348138 102.676100628931  122.279649195354 100.948637316562  122.279649195354 100.948637316562  L 125.526005176532 96.4140461215933  L 129.313420487905 96.3060796645702  L 131.153022210572 95.7662473794549  L 138.295005369162 91.6635220125786  L 138.403217235201 91.6635220125786  C 138.403217235201 91.6635220125786  138.511429101241 91.5555555555556  138.511429101241 91.5555555555556  C 142.623480010732 91.1236897274633  145.004141063595 91.0157232704402  145.65233014117 91.5555555555556  C 145.65233014117 91.5555555555556  150.306522499518 95.4423480083857  150.306522499518 95.4423480083857  L 151.713276758028 95.982180293501  L 151.929700490107 96.1981132075472  L 153.768220094114 96.9538784067086  L 153.877514078813 97.0618448637317  L 153.877514078813 96.7379454926625  L 153.877514078813 96.6299790356394  L 153.877514078813 96.5220125786164  L 153.877514078813 96.4140461215933  C 153.877514078813 96.4140461215933  154.634997141088 93.1750524109015  154.634997141088 93.1750524109015  C 154.30927942431 92.2033542976939  154.30927942431 91.4475890985325  154.634997141088 90.7997903563942  C 154.850338754506 90.2599580712788  155.391398084702 89.9360587002097  156.258175131677 89.7201257861635  C 157.881353122265 89.3962264150943  159.396319246815 90.7997903563942  160.911285371364 93.8228511530398  C 160.911285371364 93.8228511530398  161.127709103443 93.9308176100629  161.127709103443 93.9308176100629  L 161.235920969482 93.9308176100629  C 161.235920969482 93.9308176100629  163.941217620463 92.7431865828092  163.941217620463 92.7431865828092  C 164.482276950659 92.6352201257862  164.698700682737 92.0953878406709  164.698700682737 91.5555555555556  C 164.698700682737 91.5555555555556  164.157641352541 89.6121593291405  164.157641352541 89.6121593291405  C 164.157641352541 89.6121593291405  164.157641352541 89.5041928721174  164.157641352541 89.5041928721174  C 163.941217620463 88.6404612159329  164.157641352541 87.8846960167715  165.023336280855 87.5607966457023  C 165.023336280855 87.5607966457023  165.997243075208 86.8050314465409  165.997243075208 86.8050314465409  L 168.376822009411 84.2138364779874  C 168.376822009411 84.2138364779874  170 80.6509433962264  170 80.6509433962264  C 168.59432786015 78.3836477987422  168.161480395993 76.7641509433962  168.59432786015 75.6844863731656  C 168.59432786015 75.6844863731656  168.917881339608 72.6614255765199  168.917881339608 72.6614255765199  C 168.269692262033 71.3658280922432  167.945056663915 70.5020964360587  167.945056663915 69.7463312368973  C 167.945056663915 69.4224318658281  167.512209199758 68.4507337526206  166.646514271444 67.1551362683438  C 166.646514271444 67.1551362683438  166.538302405405 67.1551362683438  166.538302405405 67.1551362683438  L 166.538302405405 66.8312368972746  C 166.538302405405 66.8312368972746  166.212584688626 62.9444444444444  166.212584688626 62.9444444444444  C 166.105454941248 62.2966457023061  165.997243075208 61.4329140461216  166.212584688626 60.353249475891  C 165.239760012934 59.5974842767296  164.589406698038 58.8417190775681  164.157641352541 58.0859538784067  C 164.157641352541 58.0859538784067  162.534463361953 55.9266247379455  162.534463361953 55.9266247379455  L 162.425169377253 55.8186582809224  L 162.425169377253 55.6027253668763  L 162.425169377253 55.4947589098533  L 161.884110047057 52.7955974842767  L 160.260932056468 51.5  L 160.260932056468 51.6079664570231  L 157.12387005999 49.1247379454927  L 157.12387005999 49.3406708595388  L 157.555635405487 52.6876310272537  L 157.555635405487 52.7955974842767  L 157.555635405487 53.1194968553459  L 155.932457414898 53.8752620545073  L 155.71711580148 55.9266247379455  L 155.71711580148 56.2505241090147  L 151.929700490107 57.7620545073375  L 150.631158097636 54.7389937106918  L 149.873675035361 54.5230607966457  L 148.68334450893 55.7106918238994  L 147.925861446655 57.8700209643606  L 145.220564795674 58.625786163522  L 143.705598671124 57.5461215932914  L 141.541361350339 56.8983228511531  L 140.892090154104 53.8752620545073  L 140.02639522579 52.0398322851153  L 138.727852833319 51.5  L 138.61855884862 51.2840670859539  L 137.645734172927 50.0964360587002  L 136.671827378574 48.3689727463312  L 135.156861254024 46.4255765199161  L 133.858318861553 46.4255765199161  L 131.694081540768 47.1813417190776  L 131.584787556069 47.2893081761006  L 126.067064506728 46.9654088050314  C 126.067064506728 46.9654088050314  121.845719612537 46.101677148847  121.845719612537 46.101677148847  C 121.52216613308 45.8857442348008  120.763600952144 45.5618448637317  119.574352544373 44.8060796645702  C 119.574352544373 44.8060796645702  116.327996563196 43.7264150943396  116.327996563196 43.7264150943396  C 113.839123644293 43.0786163522013  112.432369385783 42.5387840670859  112.107733787665 41.8909853249476  C 112.107733787665 41.8909853249476  111.566674457469 41.5670859538784  111.566674457469 41.5670859538784  L 110.809191395194 41.3511530398323  L 108.861377806488 40.2714884696017  C 108.861377806488 40.2714884696017  108.64495407441 40.1635220125786  108.64495407441 40.1635220125786  C 108.320318476292 39.7316561844864  107.995682878174 39.4077568134172  107.779259146096 38.975890985325  C 107.779259146096 38.975890985325  107.346411681939 38.0041928721174  107.346411681939 38.0041928721174  L 106.480716753625 36.7085953878407  L 105.073962495115 36.0607966457023  L 104.532903164918 36.3846960167715  L 103.991843834722 36.8165618448638  C 103.991843834722 36.8165618448638  103.667208236604 37.0324947589099  103.667208236604 37.0324947589099  C 103.126148906408 37.4643605870021  102.585089576212 37.6802935010482  102.152242112055 37.7882599580713  C 101.286547183741 38.0041928721174  100.420852255427 37.5723270440252  99.4469454610739 36.4926624737946  C 99.4469454610739 36.4926624737946  97.3909200063283 34.3333333333333  97.3909200063283 34.3333333333333  C 96.6334369440536 33.3616352201258  96.0923776138574 32.6058700209644  95.8759538817789 32.0660377358491  C 95.8759538817789 32.0660377358491  95.3348945515827 31.2023060796646  95.3348945515827 31.2023060796646  C 94.577411489308 30.4465408805032  94.0363521591118 29.6907756813417  93.711716560994 29.0429769392034  C 93.3870809628763 28.0712788259958  93.2788690968371 27.2075471698113  93.6035046949548 26.3438155136268  C 93.6035046949548 26.3438155136268  93.6035046949548 26.2358490566038  93.6035046949548 26.2358490566038  L 95.010258953465 23.8605870020965  L 95.7677420157397 21.3773584905661  L 96.0923776138574 19.7578616352201  L 95.5513182836612 17.2746331236897  L 93.9281402930725 15.87106918239  C 93.9281402930725 15.87106918239  94.2527758911903 13.8197064989518  94.2527758911903 13.8197064989518  C 94.2527758911903 12.3081761006289  94.7938352213865 11.5524109014675  95.8759538817789 11.3364779874214  C 96.2005894798967 11.2285115303983  96.4170132119751 11.0125786163522  96.3088013459359 10.58071278826  C 96.3088013459359 10.58071278826  96.3088013459359 10.4727463312369  96.3088013459359 10.4727463312369  L 96.4170132119751 8.3134171907757  L 96.4170132119751 8.20545073375265  L 96.4170132119751 5.72222222222223  L 96.2005894798967 5.72222222222223  L 96.0923776138574 5.61425576519918  L 95.6595301497004 5.39832285115304  L 95.6595301497004 5.29035639412998  L 95.5513182836612 5.29035639412998  L 93.6035046949548 3.99475890985327  L 93.4952928289156 3.99475890985327  L 91.9803267043662 2.69916142557652  L 86.8943690005217 1.727463312369  L 85.2711910099331 0.539832285115304  C 85.2711910099331 0.539832285115304  82.2412587608343 0.539832285115304  82.2412587608343 0.539832285115304  C 81.8084112966773 0.539832285115304  81.2673519664811 0.863731656184499  80.5098689042064 1.29559748427675  C 80.5098689042064 1.29559748427675  80.4016570381671 1.29559748427675  80.4016570381671 1.29559748427675  L 78.0209959853038 2.15932914046122  C 78.0209959853038 2.15932914046122  72.0693433531454 2.15932914046122  72.0693433531454 2.15932914046122  C 71.2036484248315 2.37526205450736  70.4461653625568 2.59119496855346  70.0133178983998 3.02306079664571  C 69.3640467021644 3.56289308176102  68.1726340570723 3.99475890985327  66.5494560664837 4.53459119496857  C 66.5494560664837 4.53459119496857  63.7370296681237 5.18238993710693  63.7370296681237 5.18238993710693  L 63.7370296681237 5.29035639412998  L 63.5206059360453 5.29035639412998  L 59.5156847739328 4.85849056603774  L 59.1921312944755 4.75052410901468  L 59.3003431605148 4.85849056603774  L 59.1921312944755 4.75052410901468  L 57.7853770359654 4.64255765199163  L 55.404715983102 5.39832285115304  L 50.6433938773753 5.83018867924529  L 50.5351820113361 5.83018867924529  L 50.4269701452968 5.72222222222223  L 48.0463090924335 4.85849056603774  C 48.0463090924335 4.85849056603774  46.0984955037271 4.85849056603774  46.0984955037271 4.85849056603774  C 45.2328005754132 4.64255765199163  44.25889378106 3.99475890985327  43.1767751206675 2.69916142557652  C 43.1767751206675 2.69916142557652  43.0685632546283 2.48322851153041  43.0685632546283 2.48322851153041  C 42.8521395225498 1.51153039832286  42.5275039244321 1.07966457023061  42.4192920583929 0.863731656184499  C 42.4192920583929 0.863731656184499  41.8782327281966 0.539832285115304  41.8782327281966 0.539832285115304  L 40.9043259338434 0  L 40.0375488868691 0.863731656184499  L 39.9304191394903 1.07966457023061  L 36.4676394262345 2.48322851153041  L 36.3594275601952 2.48322851153041  L 36.1430038281168 2.48322851153041  C 36.1430038281168 2.48322851153041  31.9216589339259 2.91509433962266  31.9216589339259 2.91509433962266  C 31.2734698563508 2.91509433962266  30.0831393299191 2.59119496855346  28.4599613393305 2.15932914046122  C 28.4599613393305 2.15932914046122  24.7807578939962 1.51153039832286  24.7807578939962 1.51153039832286  L 24.672546027957 1.51153039832286  L 22.5083087071721 0.323899371069195  Z " fill-rule="nonzero" fill="#0079fe" stroke="none" fill-opacity="0.658823529411765" transform="matrix(1 0 0 1 20 170 )" />
  </g>
</svg>