<?xml version="1.0" encoding="utf-8"?>
<svg version="1.1" xmlns:xlink="http://www.w3.org/1999/xlink" width="25px" height="41px" xmlns="http://www.w3.org/2000/svg">
  <g transform="matrix(1 0 0 1 -235 -152 )">
    <path d="M 17.5764192139738 0  L 14.6288209606987 2.47506561679791  L 12.6637554585153 7.85564304461943  L 12.6637554585153 11.4068241469816  L 12.6637554585153 11.5144356955381  L 11.5720524017467 13.3438320209974  C 11.5720524017467 13.3438320209974  11.353711790393 14.6351706036745  11.353711790393 14.6351706036745  C 11.5720524017467 15.3884514435696  11.2445414847162 16.0341207349081  10.4803493449782 16.4645669291339  C 10.4803493449782 16.4645669291339  10.2620087336245 16.5721784776903  10.2620087336245 16.5721784776903  L 10.1528384279476 16.5721784776903  L 10.0436681222708 16.4645669291339  L 7.31441048034936 16.1417322834646  L 5.89519650655022 17.4330708661418  L 1.74672489082969 18.0787401574803  L 0 18.0787401574803  L 1.09170305676856 18.8320209973753  L 5.02183406113536 19.2624671916011  L 5.2401746724891 19.2624671916011  L 5.45851528384279 19.2624671916011  L 5.56768558951964 19.3700787401575  L 5.56768558951964 19.4776902887139  L 6.55021834061135 21.8451443569554  C 6.55021834061135 21.8451443569554  7.64192139737991 22.5984251968504  7.64192139737991 22.5984251968504  C 7.96943231441049 23.0288713910761  8.18777292576419 23.6745406824147  8.18777292576419 24.8582677165354  C 8.18777292576419 24.8582677165354  8.29694323144104 27.7637795275591  8.29694323144104 27.7637795275591  L 9.60698689956333 28.9475065616798  L 9.71615720524018 28.9475065616798  L 9.71615720524018 29.0551181102362  L 9.82532751091703 29.0551181102362  L 10.4803493449782 31.2073490813648  L 10.4803493449782 32.3910761154856  L 9.71615720524018 33.4671916010499  L 9.49781659388648 34.4356955380578  L 9.82532751091703 35.5118110236221  C 9.82532751091703 35.5118110236221  11.1353711790393 36.3727034120735  11.1353711790393 36.3727034120735  C 12.5545851528384 36.9107611548557  13.3187772925764 37.2335958005249  13.646288209607 37.7716535433071  C 13.646288209607 37.7716535433071  14.410480349345 39.3858267716535  14.410480349345 39.3858267716535  C 15.2838427947598 39.8162729658793  15.7205240174673 40.246719160105  15.938864628821 40.6771653543307  C 15.938864628821 40.6771653543307  16.9213973799127 41  16.9213973799127 41  L 17.0305676855895 41  C 17.0305676855895 41  16.5938864628821 38.6325459317585  16.5938864628821 38.6325459317585  C 16.4847161572052 38.0944881889764  16.4847161572052 37.5564304461942  16.703056768559 37.3412073490814  C 16.9213973799127 37.0183727034121  17.1397379912664 36.8031496062992  17.5764192139738 36.6955380577428  C 17.5764192139738 36.6955380577428  19.2139737991266 36.1574803149606  19.2139737991266 36.1574803149606  L 19.3231441048035 36.0498687664042  L 19.4323144104804 36.0498687664042  L 19.5414847161572 36.1574803149606  L 20.3056768558952 36.3727034120735  L 21.2882096069869 35.8346456692914  L 21.2882096069869 35.6194225721785  L 21.6157205240175 32.9291338582677  L 20.9606986899563 31.6377952755906  L 20.0873362445415 31.2073490813648  L 18.9956331877729 31.0997375328084  L 18.7772925764192 31.0997375328084  L 18.5589519650655 30.992125984252  L 18.1222707423581 28.1942257217848  L 18.2314410480349 22.7060367454068  L 18.4497816593886 22.490813648294  L 20.0873362445415 20.2309711286089  L 22.4890829694323 21.5223097112861  L 23.9082969432314 21.5223097112861  C 23.9082969432314 21.5223097112861  25 14.5275590551181  25 14.5275590551181  C 24.6724890829694 13.7742782152231  24.3449781659389 13.236220472441  23.6899563318777 12.9133858267717  C 23.6899563318777 12.9133858267717  23.0349344978166 12.8057742782152  23.0349344978166 12.8057742782152  L 23.0349344978166 12.9133858267717  L 22.707423580786 12.9133858267717  L 20.9606986899563 13.236220472441  L 20.8515283842795 13.0209973753281  L 20.7423580786026 12.9133858267717  L 19.5414847161572 11.4068241469816  L 19.5414847161572 11.2992125984252  L 19.4323144104804 11.1916010498688  L 19.4323144104804 8.50131233595801  L 19.8689956331878 6.99475065616798  C 19.8689956331878 6.99475065616798  20.3056768558952 6.3490813648294  20.3056768558952 6.3490813648294  C 20.3056768558952 5.91863517060367  20.4148471615721 5.48818897637795  20.8515283842795 4.95013123359579  C 20.8515283842795 4.95013123359579  21.2882096069869 4.41207349081364  21.2882096069869 4.41207349081364  L 21.3973799126637 2.58267716535434  L 19.7598253275109 1.0761154855643  L 17.5764192139738 0  Z " fill-rule="nonzero" fill="#0079fe" stroke="none" transform="matrix(1 0 0 1 235 152 )" />
  </g>
</svg>