<?xml version="1.0" encoding="utf-8"?>
<svg version="1.1" xmlns:xlink="http://www.w3.org/1999/xlink" width="52px" height="40px" xmlns="http://www.w3.org/2000/svg">
  <g transform="matrix(1 0 0 1 -336 -188 )">
    <path d="M 35.656779661017 11.3260273972603  C 34.468220338983 10.3643835616438  33.4957627118644 8.65479452054794  32.5233050847458 5.98356164383561  C 29.3898305084746 5.98356164383561  27.5529661016949 5.44931506849314  26.6885593220339 4.38082191780821  C 26.0402542372882 3.41917808219177  24.7436440677966 2.77808219178082  22.9067796610169 2.24383561643835  C 22.9067796610169 2.24383561643835  22.3665254237288 2.13698630136986  22.3665254237288 2.13698630136986  L 22.9067796610169 0.320547945205461  L 22.582627118644 0.106849315068487  C 22.582627118644 0.106849315068487  22.0423728813559 0  22.0423728813559 0  C 20.7457627118644 0.641095890410953  19.8813559322034 1.28219178082191  19.5572033898305 2.13698630136986  C 19.125 2.99178082191779  18.5847457627119 3.73972602739726  17.9364406779661 4.27397260273973  C 17.396186440678 5.98356164383561  16.8559322033899 6.83835616438357  16.3156779661017 6.83835616438357  C 15.9915254237288 6.94520547945205  15.7754237288136 6.73150684931505  15.5593220338983 6.41095890410959  C 15.5593220338983 6.41095890410959  14.6949152542373 5.66301369863012  14.6949152542373 5.66301369863012  C 14.0466101694915 5.34246575342466  13.3983050847457 5.02191780821916  12.8580508474576 5.02191780821916  C 12.8580508474576 5.02191780821916  11.7775423728813 5.23561643835617  11.7775423728813 5.23561643835617  C 11.021186440678 5.98356164383561  9.94067796610168 6.51780821917808  8.31991525423728 6.73150684931505  C 8.31991525423728 6.73150684931505  4.21398305084743 6.51780821917808  4.21398305084743 6.51780821917808  C 2.91737288135592 5.87671232876712  2.37711864406779 4.59452054794519  2.70127118644068 2.99178082191779  C 2.70127118644068 2.99178082191779  1.18855932203392 2.45753424657532  1.18855932203392 2.45753424657532  L 0.432203389830484 4.59452054794519  L 0.432203389830484 4.7013698630137  L 0.324152542372894 4.80821917808219  L 0 5.23561643835617  L 0.972457627118619 5.44931506849314  L 1.18855932203392 5.44931506849314  L 1.29661016949151 5.55616438356163  C 1.29661016949151 5.55616438356163  1.29661016949151 5.66301369863012  1.29661016949151 5.66301369863012  C 3.13347457627116 8.12054794520547  4.53813559322033 9.72328767123287  5.2944915254237 10.1506849315068  C 5.72669491525425 10.3643835616438  7.02330508474577 10.7917808219178  9.29237288135596 11.4328767123288  C 9.29237288135596 11.4328767123288  13.1822033898305 12.8219178082192  13.1822033898305 12.8219178082192  C 14.3707627118644 13.3561643835616  15.5593220338983 15.7068493150685  16.8559322033899 19.8739726027397  C 18.5847457627119 21.0493150684931  19.6652542372881 21.5835616438356  20.4216101694915 21.4767123287671  C 21.1779661016949 21.1561643835616  22.4745762711865 20.4082191780822  24.3114406779661 19.2328767123288  C 24.3114406779661 19.2328767123288  24.4194915254238 19.1260273972603  24.4194915254238 19.1260273972603  L 24.5275423728813 19.0191780821918  L 24.7436440677966 19.1260273972603  L 26.6885593220339 19.5534246575342  L 26.9046610169491 19.5534246575342  L 26.9046610169491 19.8739726027397  C 26.9046610169491 19.8739726027397  26.7966101694915 20.1945205479452  26.7966101694915 20.1945205479452  C 26.1483050847458 22.758904109589  25.6080508474576 24.2547945205479  25.1758474576271 24.6821917808219  C 25.1758474576271 24.6821917808219  22.582627118644 24.7890410958904  22.582627118644 24.7890410958904  C 22.582627118644 24.7890410958904  22.582627118644 24.8958904109589  22.582627118644 24.8958904109589  C 22.582627118644 25.9643835616438  21.8262711864407 27.5671232876712  20.4216101694915 29.5972602739726  C 19.989406779661 30.2383561643835  19.8813559322034 30.772602739726  19.8813559322034 31.0931506849315  C 19.8813559322034 31.0931506849315  22.3665254237288 32.8027397260274  22.3665254237288 32.8027397260274  C 23.0148305084746 33.5506849315069  23.4470338983051 33.7643835616438  23.9872881355932 33.7643835616438  C 23.9872881355932 33.7643835616438  24.5275423728813 33.7643835616438  24.5275423728813 33.7643835616438  L 25.0677966101695 35.5808219178082  L 26.2563559322034 36.0082191780822  C 26.2563559322034 36.0082191780822  26.9046610169491 35.3671232876712  26.9046610169491 35.3671232876712  C 27.228813559322 35.0465753424657  27.6610169491526 34.8328767123288  27.9851694915254 34.9397260273972  C 29.0656779661017 34.9397260273972  29.9300847457627 35.5808219178082  31.010593220339 36.9698630136986  C 31.010593220339 36.9698630136986  31.9830508474577 38.2520547945205  31.9830508474577 38.2520547945205  C 31.9830508474577 38.2520547945205  32.0911016949152 38.145205479452  32.0911016949152 38.145205479452  C 32.739406779661 37.7178082191781  33.9279661016949 37.8246575342466  35.656779661017 38.358904109589  C 35.656779661017 38.358904109589  38.4661016949153 39  38.4661016949153 39  L 41.0593220338983 38.145205479452  L 42.1398305084746 37.6109589041096  L 42.896186440678 37.0767123287671  C 42.896186440678 37.0767123287671  42.2478813559322 36.3287671232877  42.2478813559322 36.3287671232877  C 42.0317796610169 35.9013698630137  42.2478813559322 35.3671232876712  42.7881355932204 34.8328767123288  C 43.4364406779661 34.2986301369863  43.8686440677966 33.7643835616438  43.8686440677966 33.1232876712329  C 43.8686440677966 33.1232876712329  43.8686440677966 31.8410958904109  43.8686440677966 31.8410958904109  C 43.6525423728813 31.2  43.760593220339 30.772602739726  43.9766949152542 30.558904109589  C 44.1927966101695 30.1315068493151  44.9491525423729 29.9178082191781  45.8135593220339 29.7041095890411  C 47.2182203389831 29.4904109589041  48.9470338983051 30.1315068493151  51 31.8410958904109  C 51 31.8410958904109  50.2436440677966 29.7041095890411  50.2436440677966 29.7041095890411  L 49.0550847457627 28.1013698630137  L 48.8389830508475 26.1780821917808  L 47.0021186440678 25.8575342465753  L 46.8940677966102 25.8575342465753  L 46.8940677966102 25.7506849315068  L 42.0317796610169 22.972602739726  L 39.6546610169491 22.545205479452  L 39.6546610169491 22.0109589041096  C 39.6546610169491 22.0109589041096  39.5466101694916 19.5534246575342  39.5466101694916 19.5534246575342  C 37.9258474576272 15.0657534246575  36.6292372881356 12.2876712328767  35.656779661017 11.3260273972603  Z " fill-rule="nonzero" fill="#0079fe" stroke="none" fill-opacity="0.219607843137255" transform="matrix(1 0 0 1 336 188 )" />
  </g>
</svg>