<?xml version="1.0" encoding="utf-8"?>
<svg version="1.1" xmlns:xlink="http://www.w3.org/1999/xlink" width="41px" height="51px" xmlns="http://www.w3.org/2000/svg">
  <g transform="matrix(1 0 0 1 -325 -195 )">
    <path d="M 25.9738219895288 14.4935897435897  L 25.8664921465969 14.3846153846154  L 25.7591623036649 14.3846153846154  C 25.7591623036649 14.3846153846154  25.7591623036649 14.275641025641  25.7591623036649 14.275641025641  C 24.5785340314136 10.1346153846154  23.5052356020942 7.84615384615386  22.7539267015707 7.51923076923077  C 22.7539267015707 7.51923076923077  18.9973821989529 6.21153846153848  18.9973821989529 6.21153846153848  C 16.8507853403142 5.5576923076923  15.348167539267 5.12179487179489  14.7041884816754 4.68589743589745  C 13.6308900523561 4.0320512820513  12.2356020942409 2.50641025641027  10.6256544502618 0  C 10.6256544502618 0  9.98167539267016 0  9.98167539267016 0  C 9.98167539267016 0  10.0890052356021 0.108974358974353  10.0890052356021 0.108974358974353  C 10.303664921466 0.980769230769236  11.1623036649215 2.50641025641027  12.9869109947644 4.68589743589745  C 12.9869109947644 4.68589743589745  13.0942408376964 4.7948717948718  13.0942408376964 4.7948717948718  L 13.2015706806283 5.0128205128205  C 13.2015706806283 5.0128205128205  11.4842931937173 8.17307692307692  11.4842931937173 8.17307692307692  C 10.8403141361257 9.37179487179486  10.196335078534 9.91666666666665  9.55235602094243 9.69871794871795  C 9.12303664921465 9.48076923076925  8.2643979057592 8.50000000000001  6.86910994764401 6.64743589743589  C 6.86910994764401 6.64743589743589  5.04450261780109 6.10256410256409  5.04450261780109 6.10256410256409  C 5.04450261780109 6.64743589743589  5.36649214659685 7.73717948717948  6.11780104712046 9.48076923076925  C 6.11780104712046 9.48076923076925  6.11780104712046 9.5897435897436  6.11780104712046 9.5897435897436  L 6.11780104712046 9.69871794871795  L 6.11780104712046 9.8076923076923  L 6.11780104712046 9.91666666666665  L 5.79581151832464 11.1153846153846  L 3.86387434554976 11.9871794871795  C 3.86387434554976 11.9871794871795  3.21989528795811 12.2051282051282  3.21989528795811 12.2051282051282  C 2.89790575916235 12.5320512820513  2.89790575916235 13.0769230769231  3.00523560209425 13.7307692307692  C 3.21989528795811 15.3653846153846  3.11256544502621 16.3461538461538  2.79057591623039 16.7820512820513  C 2.57591623036653 17  2.46858638743456 17  2.2539267015707 17  C 2.2539267015707 17  2.14659685863874 17  2.14659685863874 17  C 2.14659685863874 17  0 16.5641025641026  0 16.5641025641026  C 0.107329842931961 17  0.429319371727785 17.4358974358974  0.96596858638747 17.7628205128205  C 2.03926701570684 18.7435897435898  2.89790575916235 20.1602564102564  3.7565445026178 21.7948717948718  C 3.7565445026178 21.7948717948718  3.86387434554976 22.1217948717949  3.86387434554976 22.1217948717949  C 3.86387434554976 22.1217948717949  4.82984293193717 21.9038461538461  4.82984293193717 21.9038461538461  C 6.0104712041885 21.6858974358974  7.08376963350787 21.9038461538461  8.15706806282724 22.6666666666667  C 8.15706806282724 22.6666666666667  9.33769633507857 24.0833333333333  9.33769633507857 24.0833333333333  L 9.44502617801047 24.1923076923077  L 9.44502617801047 24.3012820512821  L 9.33769633507857 24.3012820512821  C 9.33769633507857 24.3012820512821  9.23036649214661 27.1346153846154  9.23036649214661 27.1346153846154  C 9.55235602094243 27.5705128205128  9.76701570680629 28.1153846153846  9.55235602094243 28.5512820512821  C 9.33769633507857 29.0961538461539  8.90837696335079 29.4230769230769  8.15706806282724 29.5320512820513  C 7.29842931937173 29.5320512820513  6.86910994764401 30.0769230769231  6.65445026178015 31.1666666666666  C 6.65445026178015 31.1666666666666  6.65445026178015 31.275641025641  6.65445026178015 31.275641025641  L 5.79581151832464 33.1282051282051  L 7.08376963350787 34.4358974358974  L 9.87434554973825 34.9807692307692  L 10.0890052356021 34.9807692307692  L 11.4842931937173 36.5064102564102  L 9.76701570680629 39.1217948717949  L 13.738219895288 47.8397435897436  L 13.8455497382199 48.0576923076923  L 13.2015706806283 48.8205128205128  L 13.4162303664921 49.474358974359  L 13.5235602094241 49.474358974359  L 20.8219895287958 44.7884615384615  C 20.8219895287958 44.7884615384615  19.6413612565445 46.9679487179487  19.6413612565445 46.9679487179487  C 18.6753926701571 48.6025641025641  18.1387434554974 50.0192307692308  17.9240837696335 51  C 19.2120418848168 50.4551282051282  20.2853403141361 49.474358974359  20.9293193717277 47.7307692307692  C 20.9293193717277 47.7307692307692  21.0366492146597 47.5128205128205  21.0366492146597 47.5128205128205  L 21.1439790575917 47.5128205128205  L 23.1832460732984 46.4230769230769  L 23.2905759162304 46.2051282051282  L 26.1884816753927 48.8205128205128  L 29.4083769633508 48.9294871794872  L 29.5157068062827 49.0384615384615  L 31.0183246073298 50.0192307692308  C 31.0183246073298 50.0192307692308  34.9895287958115 46.5320512820513  34.9895287958115 46.5320512820513  C 35.3115183246073 46.2051282051282  35.6335078534031 45.551282051282  36.0628272251309 44.4615384615385  C 36.0628272251309 44.4615384615385  36.4921465968586 43.5897435897436  36.4921465968586 43.5897435897436  C 36.5994764397906 43.1538461538461  36.0628272251309 42.0641025641025  34.9895287958115 40.2115384615384  C 34.9895287958115 40.2115384615384  34.0235602094241 38.7948717948718  34.0235602094241 38.7948717948718  L 38.7460732984293 40.4294871794872  L 40.1413612565445 39.6666666666667  L 38.7460732984293 36.6153846153846  L 38.6387434554973 36.5064102564102  L 41 33.3461538461538  C 41 33.3461538461538  40.0340314136125 31.8205128205128  40.0340314136125 31.8205128205128  C 39.0680628272251 30.7307692307692  38.4240837696335 30.1858974358974  37.9947643979058 30.1858974358974  C 37.9947643979058 30.1858974358974  37.7801047120419 30.2948717948718  37.7801047120419 30.2948717948718  L 36.5994764397906 31.4935897435897  L 36.3848167539267 31.3846153846154  L 36.1701570680628 31.3846153846154  L 34.238219895288 30.7307692307692  C 34.238219895288 30.7307692307692  33.7015706806283 28.9871794871795  33.7015706806283 28.9871794871795  C 32.9502617801047 28.8782051282051  32.1989528795811 28.4423076923077  31.5549738219895 27.6794871794872  C 31.5549738219895 27.6794871794872  30.3743455497382 26.9166666666667  30.3743455497382 26.9166666666667  C 29.4083769633508 26.4807692307692  28.8717277486911 25.9358974358974  28.8717277486911 25.3910256410256  C 28.6570680628272 24.7371794871795  28.8717277486911 23.974358974359  29.5157068062827 22.9935897435897  C 30.696335078534 21.25  31.3403141361257 19.8333333333333  31.3403141361257 18.7435897435898  C 31.3403141361257 18.7435897435898  31.3403141361257 17.3269230769231  31.3403141361257 17.3269230769231  L 32.0916230366492 17.4358974358974  C 32.0916230366492 17.4358974358974  34.5602094240838 17.5448717948718  34.5602094240838 17.5448717948718  C 34.7748691099476 17.3269230769231  35.0968586387435 16.2371794871795  35.5261780104712 14.275641025641  C 35.5261780104712 14.275641025641  34.7748691099476 14.1666666666667  34.7748691099476 14.1666666666667  C 33.0575916230366 15.3653846153846  31.7696335078534 16.1282051282051  30.803664921466 16.4551282051282  C 29.6230366492147 16.7820512820513  28.1204188481676 16.1282051282051  25.9738219895288 14.6025641025641  C 25.9738219895288 14.6025641025641  25.9738219895288 14.4935897435897  25.9738219895288 14.4935897435897  Z " fill-rule="nonzero" fill="#0079fe" stroke="none" transform="matrix(1 0 0 1 325 195 )" />
  </g>
</svg>