<?xml version="1.0" encoding="utf-8"?>
<svg version="1.1" xmlns:xlink="http://www.w3.org/1999/xlink" width="8px" height="6px" xmlns="http://www.w3.org/2000/svg">
  <g transform="matrix(1 0 0 1 -423 -319 )">
    <path d="M 0.180663612226625 3.89081878998934  C 0.180663612226625 3.89081878998934  -0.272250026758179 2.24858693166002  0.256149218724092 1.92014054017604  C 0.784548464206361 1.59169424778265  1.08649089019623 1.65738348644321  1.23746210319116 1.32893709495922  C 1.3884333161861 1.0661800412264  1.31294770968863 0.737733649742415  1.91683256166837 0.540665834670143  C 2.59620302014557 0.277908780937315  2.82265983963797 0.277908780937315  3.27557347862277 0.40928725825843  C 3.80397272410504 0.540665834670143  3.87945833060251 0.6063550733307  4.25688636308984 0.40928725825843  C 4.63431439557718 0.21221944318616  5.31368485405438 0.0808409658650452  5.69111288654172 0.0151516281138899  C 6.06854091902905 -0.0505376105466674  6.52145455801385 0.0808409658650452  6.82339698400372 0.737733649742415  C 7.12533940999359 1.32893709495922  7.04985380349612 1.5260049100315  6.52145455801385 1.85445130151548  C 5.99305531253158 2.11720835524831  5.61562728004425 2.44565474673229  5.61562728004425 2.97116895328854  C 5.61562728004425 3.56237239850536  5.31368485405438 3.89081878998934  5.01174242806451 3.82512955132878  C 4.70980000207464 3.75944021357763  3.95494393709997 4.28495442013388  3.35105908512024 4.74477928893898  C 2.82265983963797 5.13891501817412  2.44523180715063 5.0075364417624  1.76586134867343 4.81046862669014  C 1.08649089019623 4.67909005027842  0.633577251211427 4.48202223520615  0.482606038216492 4.35064365879444  C 0.407120431719026 4.21926518147332  0.180663612226625 3.89081878998934  0.180663612226625 3.89081878998934  Z " fill-rule="nonzero" fill="#0079fe" stroke="none" transform="matrix(1 0 0 1 423 319 )" />
  </g>
</svg>