<?xml version="1.0" encoding="utf-8"?>
<svg version="1.1" xmlns:xlink="http://www.w3.org/1999/xlink" width="22px" height="19px" xmlns="http://www.w3.org/2000/svg">
  <g transform="matrix(1 0 0 1 -276 -345 )">
    <path d="M 15.738314878426 1.85632183908044  L 9.80262503072864 1.85632183908044  L 9.47286448363433 2.4022988505747  L 9.47286448363433 2.51149425287357  L 9.3629443012696 2.72988505747126  L 4.85621682431413 3.82183908045976  L 5.07605718904365 4.36781609195402  C 5.07605718904365 4.36781609195402  6.50501955978563 6.00574712643677  6.50501955978563 6.00574712643677  C 6.39509937742084 6.00574712643677  6.17525901269132 6.11494252873565  6.06533883032659 6.11494252873565  C 6.06533883032659 6.11494252873565  3.97685536539598 7.20689655172415  3.97685536539598 7.20689655172415  C 3.97685536539598 7.20689655172415  0.679249894452973 9.71839080459772  0.679249894452973 9.71839080459772  C -0.419951929194697 11.0287356321839  -0.200111564465144 13.4310344827586  1.44869117100633 17.0344827586207  C 1.44869117100633 17.0344827586207  4.74629664194934 17.3620689655173  4.74629664194934 17.3620689655173  L 4.85621682431413 17.3620689655173  L 4.85621682431413 17.4712643678161  L 8.15382229525714 19  C 8.15382229525714 19  11.6712681309297 18.4540229885058  11.6712681309297 18.4540229885058  C 13.1002305016716 18.1264367816092  14.7490332371432 16.816091954023  16.8375167020737 14.3045977011494  C 16.8375167020737 14.3045977011494  16.9474368844385 14.3045977011494  16.9474368844385 14.3045977011494  L 17.167277249168 14.0862068965517  L 18.7061598022748 13.6494252873563  L 18.2664790728157 9.0632183908046  L 18.2664790728157 8.84482758620691  L 20.2450423553815 6.00574712643677  L 20.2450423553815 5.89655172413796  L 20.3549625377463 5.89655172413796  C 20.3549625377463 5.89655172413796  21.893845090853 4.69540229885058  21.893845090853 4.69540229885058  C 22.1136854555825 3.38505747126439  22.0037652732178 2.18390804597701  21.454164361394 1.20114942528738  C 21.0144836319349 0.327586206896564  20.464882720111 0  19.9152818082872 0  C 19.9152818082872 0  20.1351221730167 1.63793103448276  20.1351221730167 1.63793103448276  L 17.167277249168 1.0919540229885  L 15.8482350607908 1.85632183908044  L 15.738314878426 1.85632183908044  Z " fill-rule="nonzero" fill="#0079fe" stroke="none" transform="matrix(1 0 0 1 276 345 )" />
  </g>
</svg>