<?xml version="1.0" encoding="utf-8"?>
<svg version="1.1" xmlns:xlink="http://www.w3.org/1999/xlink" width="46px" height="57px" xmlns="http://www.w3.org/2000/svg">
  <g transform="matrix(1 0 0 1 -413.5 -309.5 )">
    <path d="M 12 35  L 13 30  L 12.875 31.2500000496202  L 12.75 32.3026315815587  L 12.5 33.3552632127394  L 12 35  Z M 39 28  L 38 34  L 38.6499999999996 31.6749999830299  L 39 28  Z M 23 53  L 17 55  L 19.045454545455 54.6799999324212  L 20.886363636364 54.1199999951732  L 23 53  Z M 7.328125 49  L 7.45937500000036 43  L 7 44.7037037092214  L 7.13125000000036 47.2962962907786  L 7.328125 49  Z M 13 25  L 10 20  L 10.7692307692305 20.6081080915792  L 11.5384615384619 21.4864865140335  L 12 22.2972973028063  L 13 25  Z M 7 5  L 0 0  L 0.144329896907038 0.0684931457308267  L 0.577319587629063 0.342465749319672  L 0.432989690722025 0.54794520717769  L 1.22680412371119 0.958904112561868  L 1.94845360824729 0.821917810766536  L 3.03092783505144 0.958904112561868  L 3.75257731958754 1.36986301794423  L 3.39175257731949 2.05479452691725  L 3.31958762886643 2.8082191816211  L 3.31958762886643 3.63013699238763  L 4.18556701030957 4.04109589776999  L 4.76288659793772 4.38356164709148  L 5.77319587628881 4.65753425068033  L 6.35051546391787 4.520547948885  L 7 5  Z " fill-rule="nonzero" fill="#0079fe" stroke="none" transform="matrix(1 0 0 1 414 310 )" />
    <path d="M 13 30  L 12.875 31.2500000496202  L 12.75 32.3026315815587  L 12.5 33.3552632127394  L 12 35  M 38 34  L 38.6499999999996 31.6749999830299  L 39 28  M 17 55  L 19.045454545455 54.6799999324212  L 20.886363636364 54.1199999951732  L 23 53  M 7.45937500000036 43  L 7 44.7037037092214  L 7.13125000000036 47.2962962907786  L 7.328125 49  M 10 20  L 10.7692307692305 20.6081080915792  L 11.5384615384619 21.4864865140335  L 12 22.2972973028063  L 13 25  M 0 0  L 0.144329896907038 0.0684931457308267  L 0.577319587629063 0.342465749319672  L 0.432989690722025 0.54794520717769  L 1.22680412371119 0.958904112561868  L 1.94845360824729 0.821917810766536  L 3.03092783505144 0.958904112561868  L 3.75257731958754 1.36986301794423  L 3.39175257731949 2.05479452691725  L 3.31958762886643 2.8082191816211  L 3.31958762886643 3.63013699238763  L 4.18556701030957 4.04109589776999  L 4.76288659793772 4.38356164709148  L 5.77319587628881 4.65753425068033  L 6.35051546391787 4.520547948885  L 7 5  M 28 45  L 32 41  M 42 7  L 44 3  M 38 16  L 40 11  M 38.5249999999996 24  L 38 19  " stroke-width="1.08" stroke="#1890ff" fill="none" transform="matrix(1 0 0 1 414 310 )" />
  </g>
</svg>