<?xml version="1.0" encoding="utf-8"?>
<svg version="1.1" xmlns:xlink="http://www.w3.org/1999/xlink" width="31px" height="11px" xmlns="http://www.w3.org/2000/svg">
  <g transform="matrix(1 0 0 1 -414 -309 )">
    <path d="M 6.99203636503383 7.19379186813352  C 6.85234255242733 7.12059555217224  7.48096470915659 7.19379186813352  7.48096470915659 7.19379186813352  C 7.7603523343696 7.19379186813352  7.96989305327936 7.12059555217224  8.31912758479561 7.04739924725244  C 8.73820902261512 6.90100662637137  9.43667808564763 6.90100662637137  9.71606571086064 6.90100662637137  C 9.99545333607364 6.90100662637137  10.2049940549834 6.97420293129117  9.92560642977039 7.26698817305332  C 9.64621880455739 7.55977341481546  10.2049940549834 7.55977341481546  10.6240754928029 7.48657710989567  C 11.0431569306224 7.41338079393439  11.0431569306224 7.26698817305332  10.9733100243192 7.12059555217224  C 10.9034631180159 6.90100662637137  10.8336162117127 6.7546140054903  10.9733100243192 6.60822138460922  C 11.1130038369257 6.46182876372815  11.1828507432289 6.38863244776688  11.3225445558354 6.90100662637137  C 11.4622383684419 7.34018448901459  11.8813198062614 7.19379186813352  12.0908605251712 7.34018448901459  C 12.3004012440809 7.48657710989567  11.8114728999582 7.70616603569654  11.6019321810484 8.07214759341997  C 11.3923914621387 8.43812914010192  11.4622383684419 9.17009224450729  11.6717790873517 9.90205534891267  C 11.8813198062614 10.5608221373568  12.3004012440809 11  12.7893295882037 11  C 13.2782579323264 11  13.5576455575394 10.6340184422766  13.6274924638427 10.2680368955946  C 13.697339370146 9.90205534891267  13.4179517449329 9.38968117030817  13.2782579323264 9.38968117030817  C 13.1385641197199 9.31648486538837  12.7194826819004 9.31648486538837  12.6496357755972 9.09689592854602  C 12.5797888692939 8.87730700274514  12.7893295882037 8.58452176098299  13.0687172134167 8.58452176098299  C 13.3481048386297 8.65771806590279  13.3481048386297 8.87730700274514  13.6274924638427 8.87730700274514  C 13.9068800890557 8.95050330766494  13.7671862764492 8.87730700274514  13.8370331827524 8.58452176098299  C 13.9068800890557 8.14534389833977  14.3958084331785 7.77936235165782  14.6751960583915 7.70616603569654  C 14.6751960583915 7.70616603569654  16.491215622276 7.19379186813352  16.491215622276 7.19379186813352  C 17.1198377790053 6.97420293129117  17.608766123128 6.46182876372815  18.0278475609475 6.53502506864795  C 18.446928998767 6.60822138460922  18.6564697176768 6.53502506864795  19.005704249193 6.46182876372815  C 19.3549387807093 6.38863244776688  19.7041733122255 5.72986565932277  19.9137140311353 5.43708041756062  C 20.1931016563483 5.14429517579847  20.4026423752581 5.14429517579847  20.6820300004711 5.5102767335219  C 20.9614176256841 5.87625828020384  21.2408052508971 5.65666935440297  21.5201928761101 5.43708041756062  C 21.7995805013231 5.21749149175975  21.6598866887166 4.48552838735437  21.5201928761101 4.11954682963095  C 21.3804990635036 3.753565282949  21.5900397824133 3.53397635714813  21.8694274076263 3.38758373626705  C 22.1488150328393 3.24119111538598  22.1488150328393 3.60717266206793  22.5678964706588 3.89995790383007  C 22.9171310021751 4.19274314559222  22.9171310021751 4.48552838735437  22.6377433769621 4.77831362911652  C 22.3583557517491 5.07109887087868  22.5678964706588 5.14429517579847  22.7774371895686 5.14429517579847  C 22.9869779084784 5.14429517579847  23.6156000652076 5.21749149175975  23.8251407841174 4.9247062499976  C 24.0346815030271 4.63192100823545  23.7552938778141 4.26593945051202  23.5457531589044 4.04635052471115  C 23.3362124399946 3.82676159891028  24.0346815030271 3.53397635714813  24.3140691282401 3.46078004118685  C 24.5934567534531 3.38758373626705  24.8029974723629 3.31438742030578  24.8029974723629 3.53397635714813  C 24.8029974723629 3.753565282949  24.8728443786661 3.82676159891028  25.0823850975759 3.82676159891028  C 25.2919258164856 3.82676159891028  26.6888639425507 3.53397635714813  27.1079453803702 3.38758373626705  C 27.4571799118864 3.24119111538598  28.7144242253449 2.80201325274275  29.2033525694677 2.5824243159004  C 29.6922809135905 2.36283539009953  29.9018216325002 1.48447966481308  30.11136235141 0.972105497250057  C 30.3209030703197 0.532927632398536  30.4605968829262 0.532927632398536  30.8098314144425 0.532927632398536  C 30.949525227049 0.532927632398536  31.1568539047047 0  30.8098314144424 0  C 30.4628089241802 0  0.16554146322469 0  0.16554146322469 0  C -0.323386880898068 0  0.426427172528231 1.9236575274563  0.426427172528231 1.9236575274563  C 0.426427172528231 1.9236575274563  0.35658026622498 1.77726490657523  1.68367148598675 2.94840587362383  C 1.96305911119976 3.24119111538598  3.98861939399404 2.43603169501933  3.84892558138754 3.24119111538598  C 3.29015033096153 6.169043521966  4.40770083181354 6.169043521966  4.82678226963305 6.46182876372815  C 5.10616989484606 6.68141768952902  5.66494514527206 6.38863244776688  5.94433277048507 6.53502506864795  C 6.36341420830458 6.8278103104101  6.71264873982083 7.04739924725244  6.99203636503383 7.19379186813352  Z " fill-rule="nonzero" fill="#0079fe" stroke="none" transform="matrix(1 0 0 1 414 309 )" />
  </g>
</svg>