<?xml version="1.0" encoding="utf-8"?>
<svg version="1.1" xmlns:xlink="http://www.w3.org/1999/xlink" width="176px" height="133px" xmlns="http://www.w3.org/2000/svg">
  <g transform="matrix(1 0 0 1 0 -43 )">
    <path d="M 175.784049079755 71.6734197730956  L 175.784049079755 71.5656401944894  L 175.892024539877 71.4578606158833  L 176 71.4578606158833  L 176 71.3500810372771  L 172.544785276074 61.5421393841167  L 170.38527607362 59.8176661264181  L 170.38527607362 59.6021069692058  L 169.845398773006 55.6142625607779  L 165.310429447853 54.967585089141  L 165.20245398773 54.967585089141  L 164.986503067485 54.967585089141  L 164.986503067485 54.8598055105348  L 164.878527607362 54.6442463533225  C 164.878527607362 54.6442463533225  164.878527607362 54.5364667747163  164.878527607362 54.5364667747163  C 164.338650306748 53.0275526742301  162.934969325153 51.4108589951377  160.775460122699 49.6863857374392  C 159.58773006135 48.7163695299838  158.4 48.0696920583468  157.428220858896 47.8541329011345  C 156.672392638037 47.4230145867099  155.916564417178 47.0996758508914  155.376687116564 46.6685575364667  C 153.973006134969 45.6985413290113  149.114110429448 44.9440842787682  140.584049079755 44.7285251215559  C 140.584049079755 44.7285251215559  140.260122699386 44.7285251215559  140.260122699386 44.7285251215559  C 140.260122699386 44.7285251215559  139.288343558282 43.2196110210697  139.288343558282 43.2196110210697  C 138.856441717791 42.2495948136142  138.532515337423 41.387358184765  138.424539877301 40.4173419773095  C 138.424539877301 39.2317666126418  139.828220858896 35.3517017828201  142.851533742331 28.9927066450567  C 142.851533742331 28.9927066450567  141.339877300613 24.2504051863857  141.339877300613 24.2504051863857  C 141.339877300613 24.2504051863857  139.720245398773 16.7058346839546  139.720245398773 16.7058346839546  C 139.504294478528 15.628038897893  137.668711656442 14.6580226904376  134.429447852761 13.6880064829822  C 133.781595092025 13.4724473257698  133.133742331288 13.2568881685575  132.485889570552 12.8257698541329  C 131.298159509202 12.2868719611021  130.434355828221 11.3168557536467  130.00245398773 10.1312803889789  C 129.354601226994 8.73014586709886  128.274846625767 7.54457050243111  126.763190184049 6.89789303079416  C 126.763190184049 6.89789303079416  126.655214723926 6.790113452188  126.655214723926 6.790113452188  L 126.547239263804 6.68233387358184  L 125.251533742331 0  L 120.068711656442 0.538897893030794  C 120.068711656442 0.538897893030794  119.528834355828 1.94003241491086  119.528834355828 1.94003241491086  C 118.880981595092 4.20340356564019  118.233128834356 5.28119935170178  117.477300613497 5.28119935170178  C 117.477300613497 5.28119935170178  114.130061349693 6.35899513776337  114.130061349693 6.35899513776337  C 112.078527607362 7.11345218800648  110.78282208589 7.97568881685575  110.134969325153 8.94570502431118  C 109.811042944785 9.37682333873581  109.487116564417 10.6701782820097  109.271165644172 12.3946515397083  C 108.947239263804 14.3346839546191  108.623312883436 15.7358184764992  108.191411042945 16.5980551053485  C 107.543558282209 17.9991896272285  106.571779141104 19.0769854132901  105.060122699387 19.6158833063209  C 102.252760736196 20.6936790923825  97.5018404907975 18.8614262560778  90.9153374233129 14.226904376013  C 90.9153374233129 14.226904376013  82.0613496932515 25.5437601296596  82.0613496932515 25.5437601296596  L 83.1411042944785 30.1782820097245  L 83.2490797546012 30.1782820097245  L 83.3570552147239 30.3938411669368  L 83.1411042944785 30.5016207455429  C 83.1411042944785 30.5016207455429  83.1411042944785 30.6094003241491  83.1411042944785 30.6094003241491  C 82.7092024539877 31.256077795786  82.0613496932515 31.6871961102107  81.3066012269939 31.7949756888168  C 80.4417177914111 32.0105348460291  79.5779141104294 31.6871961102107  78.6072147239264 31.0405186385737  C 77.7423312883435 30.3938411669368  75.2588957055215 29.854943273906  71.2638036809816 29.6393841166937  C 71.2638036809816 29.6393841166937  69.4293006134969 29.5316045380875  69.4293006134969 29.5316045380875  L 66.7299141104295 29.3160453808752  L 63.8134969325153 29.854943273906  C 63.8134969325153 29.854943273906  65.110282208589 31.6871961102107  65.110282208589 31.6871961102107  C 66.190036809816 33.0883306320907  66.6208588957055 33.95056726094  66.5128834355828 34.4894651539708  C 66.5128834355828 34.4894651539708  65.3251533742331 41.4951377633711  65.3251533742331 41.4951377633711  L 65.8650306748466 45.2674230145867  L 65.9730061349693 45.2674230145867  L 65.9730061349693 45.3752025931928  L 65.8650306748466 45.482982171799  C 65.8650306748466 45.482982171799  63.7055214723926 52.4886547811993  63.7055214723926 52.4886547811993  C 63.5975460122699 53.1353322528363  63.3815950920245 53.4586709886548  63.1656441717791 53.3508914100486  C 63.1656441717791 53.3508914100486  62.950773006135 53.3508914100486  62.950773006135 53.3508914100486  L 62.950773006135 53.2431118314424  C 62.950773006135 53.2431118314424  62.6257668711656 52.5964343598055  62.6257668711656 52.5964343598055  C 62.1938650306749 51.7341977309562  61.9779141104294 51.4108589951377  61.6539877300614 51.5186385737439  C 61.4380368098159 51.62641815235  61.1141104294478 52.0575364667747  61.0061349693251 53.0275526742301  C 60.5742331288344 54.967585089141  59.3865030674847 56.5842787682333  57.552 58.3087520259319  C 57.552 58.3087520259319  55.6073619631902 59.8176661264181  55.6073619631902 59.8176661264181  L 54.6355828220859 60.3565640194489  L 54.5276073619632 60.3565640194489  L 47.5092024539877 60.4643435980551  L 44.8098159509202 63.0510534846029  L 44.7018404907976 63.0510534846029  L 44.4858895705522 63.0510534846029  L 44.3779141104295 63.0510534846029  C 44.3779141104295 63.0510534846029  36.9276073619632 61.9732576985413  36.9276073619632 61.9732576985413  C 35.7398773006135 63.2666126418152  34.5521472392638 63.6977309562398  33.3644171779141 63.4821717990275  C 32.2846625766871 63.158833063209  30.4490797546012 63.5899513776337  27.8587484662577 64.5599675850891  C 27.8587484662577 64.5599675850891  24.8343558282209 68.1166936790923  24.8343558282209 68.1166936790923  L 24.7263803680982 68.3322528363047  L 19.9754601226994 68.4400324149108  L 19.9754601226994 64.4521880064829  L 16.9521472392638 64.4521880064829  L 16.4122699386503 66.1766612641815  L 14.1447852760736 66.7155591572123  L 13.9288343558282 66.7155591572123  L 13.8219386503067 66.6077795786061  C 13.8219386503067 66.6077795786061  13.7128834355828 66.6077795786061  13.7128834355828 66.6077795786061  C 12.3092024539877 65.7455429497569  10.5826748466258 65.0988654781199  8.85398773006135 64.8833063209076  C 7.88328834355828 64.7755267423014  6.69447852760736 65.4222042139384  4.96687116564417 66.9311183144246  C 3.13128834355828 68.4400324149108  1.83558282208589 69.8411669367909  1.18773006134969 71.1345218800648  C 1.51165644171779 71.3500810372771  1.72760736196319 71.7811993517017  1.72760736196319 72.4278768233387  C 1.94463803680982 73.1823338735818  2.05153374233129 73.8290113452188  2.05153374233129 74.691247974068  C 1.94463803680982 75.5534846029173  1.61963190184049 76.0923824959481  1.18773006134969 76.5235008103727  C 0.647852760736196 76.8468395461912  0.325006134969325 77.8168557536466  0 79.5413290113452  C 0 79.5413290113452  1.72760736196319 80.7269043760129  1.72760736196319 80.7269043760129  L 4.1041472392638 78.2479740680713  L 7.12638036809816 81.5891410048622  L 7.12638036809816 81.8047001620745  L 7.77423312883436 87.7325769854132  L 7.77423312883436 87.8403565640194  L 7.66625766871166 87.8403565640194  L 5.93865030674847 96.0316045380874  C 5.93865030674847 96.0316045380874  5.50674846625767 96.0316045380874  5.50674846625767 96.0316045380874  C 3.02439263803681 96.0316045380874  1.40476073619632 96.1393841166936  0.755828220858895 96.5705024311183  C 0.864883435582822 97.109400324149  1.94463803680982 97.9716369529983  3.77914110429448 99.1572123176661  C 3.77914110429448 99.1572123176661  5.29079754601227 98.9416531604538  5.29079754601227 98.9416531604538  L 5.61472392638037 98.9416531604538  L 5.7237791411043 99.0494327390599  C 5.7237791411043 99.0494327390599  9.28588957055215 102.498379254457  9.28588957055215 102.498379254457  C 10.6895705521472 103.683954619125  10.5826748466258 105.731766612642  8.74601226993865 108.749594813614  C 8.74601226993865 108.749594813614  9.28588957055215 112.090761750405  9.28588957055215 112.090761750405  L 10.6895705521472 112.414100486224  L 16.1963190184049 112.414100486224  L 13.3889570552147 115.000810372771  L 15.0085889570552 115.863047001621  L 17.1680981595092 117.048622366288  L 22.9998527607362 119.52755267423  L 23.1067484662577 119.635332252836  L 23.3226993865031 119.635332252836  C 23.3226993865031 119.635332252836  23.8625766871166 128.473257698541  23.8625766871166 128.473257698541  C 23.9705521472393 130.19773095624  25.2662576687117 131.491085899514  27.8587484662577 132.353322528363  C 27.8587484662577 132.353322528363  28.2895705521472 132.137763371151  28.2895705521472 132.137763371151  L 28.3986257668712 132.137763371151  L 28.5055214723926 132.137763371151  L 34.5521472392638 133  L 34.9840490797546 133  L 34.9840490797546 132.892220421394  C 34.9840490797546 132.892220421394  35.0920245398773 132.676661264181  35.0920245398773 132.676661264181  C 35.7398773006135 131.491085899514  36.1717791411043 130.628849270664  36.1717791411043 130.413290113452  C 36.1717791411043 130.413290113452  36.1717791411043 130.19773095624  36.1717791411043 130.19773095624  C 36.0638036809816 129.227714748784  36.4967852760736 128.365478119935  37.359509202454 127.718800648298  C 38.2233128834356 127.072123176661  38.7631901840491 126.425445705024  39.0871165644172 125.670988654781  C 39.0871165644172 125.670988654781  39.1961717791411 125.563209076175  39.1961717791411 125.563209076175  C 39.519018404908 124.700972447326  40.598773006135 124.485413290113  42.4354355828221 125.024311183144  C 42.4354355828221 125.024311183144  42.5423312883436 125.024311183144  42.5423312883436 125.024311183144  L 44.5949447852761 126.209886547812  L 51.3963190184049 127.503241491086  L 55.6073619631902 127.179902755267  C 55.6073619631902 127.179902755267  58.631754601227 125.886547811993  58.631754601227 125.886547811993  C 59.1716319018405 125.13209076175  59.6024539877301 124.808752025932  59.9263803680981 124.59319286872  C 60.4662576687117 124.485413290113  61.2220858895706 124.700972447326  62.0858895705521 125.455429497569  C 62.0858895705521 125.455429497569  62.517791411043 125.670988654781  62.517791411043 125.670988654781  C 62.950773006135 125.9943273906  63.2736196319019 126.641004862237  63.7055214723926 127.826580226904  C 63.7055214723926 127.826580226904  65.8650306748466 129.443273905997  65.8650306748466 129.443273905997  L 67.4846625766871 129.443273905997  L 67.5926380368098 129.443273905997  L 67.8096687116565 129.443273905997  L 67.9165644171779 129.443273905997  L 70.1840490797546 130.413290113452  L 74.3950920245399 130.089951377634  L 76.7705521472393 129.335494327391  L 82.9262331288344 129.874392220421  L 85.6256196319019 129.119935170178  C 85.6256196319019 129.119935170178  88.7558282208589 127.826580226904  88.7558282208589 127.826580226904  C 89.4036809815951 127.39546191248  90.159509202454 127.072123176661  91.239263803681 126.748784440843  C 91.239263803681 126.748784440843  97.1779141104295 126.748784440843  97.1779141104295 126.748784440843  C 97.1779141104295 126.748784440843  99.3374233128834 125.9943273906  99.3374233128834 125.9943273906  C 100.201226993865 125.455429497569  100.957055214724 125.13209076175  101.60490797546 125.13209076175  C 101.60490797546 125.13209076175  105.060122699387 125.13209076175  105.060122699387 125.13209076175  L 106.679754601227 126.317666126418  C 106.679754601227 126.317666126418  111.322699386503 127.287682333874  111.322699386503 127.287682333874  C 111.970552147239 127.287682333874  112.618404907975 127.826580226904  113.698159509202 128.79659643436  C 113.698159509202 128.79659643436  115.641717791411 130.089951377634  115.641717791411 130.089951377634  L 115.857668711656 130.305510534846  L 120.284662576687 130.413290113452  L 120.39263803681 130.413290113452  L 122.444171779141 131.491085899514  L 125.143558282209 132.029983792544  L 125.251533742331 132.029983792544  L 127.519018404908 132.353322528363  L 128.166871165644 131.059967585089  L 127.19509202454 128.904376012966  L 126.763190184049 126.748784440843  L 126.763190184049 126.641004862237  L 126.655214723926 126.641004862237  L 126.979141104294 126.317666126418  L 128.490797546012 124.269854132901  L 128.490797546012 124.162074554295  L 128.598773006135 124.162074554295  L 128.598773006135 124.054294975689  L 130.110429447853 122.976499189627  L 129.786503067485 122.32982171799  C 129.786503067485 122.32982171799  129.138650306748 120.174230145867  129.138650306748 120.174230145867  C 129.138650306748 119.850891410049  128.81472392638 119.635332252836  128.166871165644 119.204213938412  C 128.166871165644 119.204213938412  126.547239263804 117.479740680713  126.547239263804 117.479740680713  L 124.495705521472 115.755267423015  L 124.38773006135 115.539708265802  L 124.171779141104 115.431928687196  L 124.279754601227 115.32414910859  L 124.279754601227 115.108589951378  L 124.603680981595 113.060777957861  L 124.603680981595 111.551863857374  L 123.631901840491 108.965153970827  L 126.115337423313 108.426256077796  L 127.303067484663 107.240680713128  L 130.326380368098 107.240680713128  L 133.349693251534 106.809562398703  L 133.457668711656 106.809562398703  L 135.509202453988 107.025121555916  L 137.884662576687 106.162884927066  L 140.584049079755 105.839546191248  L 142.311656441718 105.085089141005  L 142.41963190184 105.085089141005  L 147.062576687117 104.222852512156  L 147.818404907975 103.468395461912  L 147.60245398773 102.606158833063  L 146.738650306748 101.097244732577  L 146.738650306748 100.989465153971  L 146.630674846626 100.881685575365  L 146.630674846626 100.773905996758  L 146.846625766871 99.1572123176661  L 146.954601226994 99.0494327390599  L 146.954601226994 96.7860615883306  L 146.522699386503 94.8460291734197  L 146.522699386503 94.7382495948136  C 146.522699386503 94.7382495948136  147.60245398773 92.5826580226904  147.60245398773 92.5826580226904  C 148.034355828221 91.612641815235  148.574233128834 91.0737439222042  149.222085889571 91.0737439222042  C 149.222085889571 91.0737439222042  152.029447852761 91.2893030794165  152.029447852761 91.2893030794165  C 152.461349693252 91.2893030794165  153.001226993865 91.0737439222042  153.541104294479 90.6426256077795  C 153.541104294479 90.6426256077795  157.752147239264 84.9303079416531  157.752147239264 84.9303079416531  L 157.752147239264 84.8225283630469  L 157.860122699387 84.7147487844408  L 160.127607361963 82.8824959481361  C 160.127607361963 82.8824959481361  160.343558282209 82.6669367909238  160.343558282209 82.6669367909238  C 161.20736196319 82.4513776337114  161.747239263804 82.128038897893  162.071165644172 81.9124797406807  C 162.071165644172 81.9124797406807  162.611042944785 81.3735818476499  162.611042944785 81.3735818476499  C 163.366871165644 80.4035656401944  164.01472392638 79.9724473257698  164.446625766871 79.9724473257698  C 164.446625766871 79.9724473257698  168.117791411043 80.7269043760129  168.117791411043 80.7269043760129  L 171.249079754601 79.2179902755267  L 171.357055214724 79.2179902755267  L 171.465030674847 79.2179902755267  L 173.300613496932 79.0024311183144  L 174.81226993865 78.3557536466774  L 174.81226993865 75.8768233387358  L 175.244171779141 72.7512155591572  L 175.244171779141 72.643435980551  L 175.244171779141 72.5356564019449  L 175.784049079755 71.6734197730956  Z " fill-rule="nonzero" fill="#0079fe" stroke="none" transform="matrix(1 0 0 1 0 43 )" />
  </g>
</svg>