<?xml version="1.0" encoding="utf-8"?>
<svg version="1.1" xmlns:xlink="http://www.w3.org/1999/xlink" width="69px" height="53px" xmlns="http://www.w3.org/2000/svg">
  <g transform="matrix(1 0 0 1 -237 -282 )">
    <path d="M 54.4433811802233 1.30271398747389  L 54.5518341307815 1.41127348643007  L 54.7687400318979 1.62839248434238  C 54.7687400318979 1.62839248434238  53.3588516746411 3.79958246346555  53.3588516746411 3.79958246346555  C 52.8165869218501 4.45093945720253  52.0574162679426 4.88517745302713  51.1897926634769 4.88517745302713  C 51.1897926634769 4.88517745302713  50.9728867623605 4.88517745302713  50.9728867623605 4.88517745302713  L 49.8883572567783 4.23382045929022  L 48.8038277511962 4.34237995824634  C 48.8038277511962 4.34237995824634  46.6347687400319 5.97077244258872  46.6347687400319 5.97077244258872  C 46.0925039872408 6.18789144050102  45.4417862838915 5.64509394572023  44.4657097288676 4.34237995824634  C 44.4657097288676 4.34237995824634  43.8149920255183 5.75365344467641  43.8149920255183 5.75365344467641  L 43.7065390749601 5.75365344467641  L 43.5980861244019 5.8622129436326  L 42.8389154704944 6.6221294363257  L 41.4290271132376 6.6221294363257  L 40.0191387559808 7.05636743215031  L 38.2838915470494 8.3590814196242  L 37.7416267942584 8.3590814196242  C 37.7416267942584 8.3590814196242  37.0909090909091 8.79331941544887  37.0909090909091 8.79331941544887  C 36.548644338118 9.33611691022966  36.3317384370016 9.77035490605427  36.6570972886762 10.2045929018789  C 36.6570972886762 10.2045929018789  37.4162679425837 11.2901878914405  37.4162679425837 11.2901878914405  L 34.3795853269537 10.964509394572  L 32.7527910685805 12.2672233820459  L 32.5358851674641 12.8100208768267  L 32.5358851674641 12.9185803757829  L 32.2105263157895 13.7870563674321  L 32.1020733652313 13.8956158663883  L 31.9936204146731 14.0041753653445  L 30.4752791068581 14.0041753653445  L 28.5231259968102 13.2442588726513  L 27.8724082934609 13.1356993736952  C 27.8724082934609 13.1356993736952  26.3540669856459 13.3528183716075  26.3540669856459 13.3528183716075  C 25.7033492822966 13.3528183716075  24.9441786283892 12.5929018789144  24.2934609250399 11.3987473903967  C 24.2934609250399 11.3987473903967  22.9920255183413 10.8559498956159  22.9920255183413 10.8559498956159  L 21.9074960127592 12.4843423799582  L 21.799043062201 12.4843423799582  L 20.280701754386 13.7870563674321  L 20.1722488038277 13.7870563674321  L 20.1722488038277 13.8956158663883  L 19.9553429027113 13.8956158663883  L 18.762360446571 14.2212943632568  L 17.0271132376395 15.741127348643  L 15.1834130781499 16.6096033402923  L 13.8819776714513 18.3465553235908  L 9.54385964912279 18.3465553235908  L 6.18181818181817 17.0438413361169  L 4.33811802232855 16.8267223382046  L 2.71132376395534 17.6951983298539  L 2.60287081339711 17.6951983298539  C 2.60287081339711 17.6951983298539  1.51834130781497 18.1294363256785  1.51834130781497 18.1294363256785  C 0.976076555023899 18.3465553235908  0.542264752791069 18.6722338204593  0.216905901116415 18.7807933194154  C 0.216905901116415 18.7807933194154  0 19.3235908141962  0 19.3235908141962  L 0 20.6263048016701  L 0.542264752791069 21.4947807933194  C 0.542264752791069 21.4947807933194  3.14513556618817 20.6263048016701  3.14513556618817 20.6263048016701  C 3.68740031897924 20.6263048016701  4.44657097288676 20.9519832985386  5.42264752791069 21.4947807933194  C 5.42264752791069 21.4947807933194  5.6395534290271 21.6033402922756  5.6395534290271 21.6033402922756  L 5.74800637958531 21.7118997912317  L 5.85645933014352 25.4029227557411  L 6.39872408293459 25.5114822546973  L 8.6762360446571 25.5114822546973  L 10.0861244019139 25.1858037578288  C 10.0861244019139 25.1858037578288  10.3030303030303 24.9686847599165  10.3030303030303 24.9686847599165  C 11.170653907496 24.5344467640919  11.9298245614035 24.2087682672234  12.9059011164274 24.1002087682672  C 12.9059011164274 24.1002087682672  13.3397129186603 23.9916492693111  13.3397129186603 23.9916492693111  L 13.5566188197767 24.3173277661796  L 14.207336523126 25.6200417536534  L 14.207336523126 25.7286012526096  L 14.5326953748006 29.3110647181628  L 14.5326953748006 29.6367432150313  L 12.5805422647528 31.6993736951983  L 12.4720893141946 31.6993736951983  L 12.4720893141946 31.8079331941545  L 10.1945773524721 32.8935281837161  L 9.43540669856459 33.7620041753653  L 9.76076555023924 34.4133611691023  L 14.4242424242424 34.8475991649269  L 14.5326953748006 34.956158663883  L 14.6411483253589 35.0647181628392  L 16.4848484848485 36.1503131524008  L 20.6060606060606 36.0417536534446  L 20.6060606060606 36.5845511482254  L 20.822966507177 38.6471816283925  L 20.822966507177 38.8643006263048  L 20.9314194577352 38.8643006263048  C 20.9314194577352 38.8643006263048  19.0877192982456 40.7098121085595  19.0877192982456 40.7098121085595  C 18.8708133971292 43.0981210855949  19.304625199362 44.509394572025  20.280701754386 44.8350730688935  C 20.280701754386 44.8350730688935  23.7511961722488 46.6805845511482  23.7511961722488 46.6805845511482  L 26.4625199362041 48.5260960334029  L 28.7400318979266 47.4405010438413  L 28.9569377990431 47.3319415448852  L 29.1738437001595 47.223382045929  L 29.2822966507177 47.3319415448852  L 32.7527910685805 49.9373695198329  L 33.2950558213716 50.1544885177452  L 34.1626794258373 49.0688935281837  L 34.3795853269537 48.8517745302714  L 34.488038277512 48.7432150313152  L 34.5964912280702 48.7432150313152  L 34.7049441786284 48.7432150313152  L 36.7655502392344 49.0688935281837  L 37.1993620414673 45.4864300626305  L 39.8022328548644 50.1544885177452  L 41.9712918660287 50.2630480167014  L 42.2966507177034 50.3716075156576  L 42.5135566188198 50.3716075156576  L 42.5135566188198 50.5887265135699  L 42.5135566188198 52  L 43.3811802232855 51.7828810020876  L 46.9601275917066 47.0062630480167  L 48.4784688995215 49.286012526096  L 48.4784688995215 48.5260960334029  L 48.4784688995215 48.4175365344467  L 48.4784688995215 48.3089770354906  L 49.5629984051037 46.1377870563674  L 50.5390749601276 44.509394572025  L 53.2503987240829 44.509394572025  L 53.6842105263158 41.4697286012526  L 54.0095693779905 41.4697286012526  L 54.2264752791069 41.5782881002087  L 56.2870813397129 41.9039665970772  L 56.5039872408293 40.8183716075156  L 55.7448165869218 39.0814196242171  L 55.7448165869218 38.8643006263048  L 56.1786283891547 37.670146137787  L 56.1786283891547 37.4530271398747  L 56.2870813397129 37.3444676409186  L 56.3955342902711 37.3444676409186  L 56.3955342902711 37.2359081419624  L 62.0350877192982 34.19624217119  L 61.8181818181818 31.2651356993737  L 61.8181818181818 31.1565762004175  L 62.902711323764 28.9853862212943  L 63.1196172248804 28.5511482254697  L 64.8548644338118 24.5344467640919  L 64.96331738437 24.4258872651357  L 66.3732057416268 23.0146137787056  L 67.2408293460925 21.3862212943632  L 67.2408293460925 21.1691022964509  L 68 19.866388308977  L 67.3492822966507 18.2379958246347  L 67.3492822966507 18.1294363256785  L 67.2408293460925 18.1294363256785  L 67.2408293460925 16.39248434238  L 66.3732057416268 16.39248434238  C 66.3732057416268 16.39248434238  64.7464114832536 17.1524008350731  64.7464114832536 17.1524008350731  C 63.9872408293461 17.6951983298539  62.902711323764 17.4780793319416  61.4928229665072 16.6096033402923  C 60.9505582137161 16.1753653444677  60.9505582137161 15.0897703549061  61.2759170653908 13.4613778705637  C 61.2759170653908 13.4613778705637  60.408293460925 13.3528183716075  60.408293460925 13.3528183716075  C 60.408293460925 13.3528183716075  59.9744816586922 13.8956158663883  59.9744816586922 13.8956158663883  C 58.9984051036682 14.9812108559499  58.2392344497608 15.6325678496869  58.0223285486443 15.6325678496869  C 57.8054226475279 15.6325678496869  57.6969696969697 15.6325678496869  57.4800637958533 15.5240083507307  C 57.371610845295 15.1983298538622  57.1547049441786 14.6555323590814  57.1547049441786 13.7870563674321  C 57.1547049441786 12.8100208768267  57.1547049441786 12.1586638830897  57.4800637958533 11.9415448851774  C 57.6969696969697 11.615866388309  57.9138755980861 11.5073068893528  58.1307814992025 11.7244258872651  C 58.1307814992025 11.7244258872651  60.1913875598086 7.92484342379959  60.1913875598086 7.92484342379959  L 60.7336523125997 6.51356993736951  L 61.0590111642743 4.88517745302713  C 61.0590111642743 4.88517745302713  59.866028708134 3.90814196242173  59.866028708134 3.90814196242173  C 59.5406698564593 3.58246346555324  59.4322169059011 2.82254697286015  59.6491228070176 1.73695198329856  C 59.6491228070176 1.73695198329856  59.6491228070176 1.08559498956159  59.6491228070176 1.08559498956159  C 59.6491228070176 0.759916492693097  59.4322169059011 0.325678496868488  58.9984051036682 0  C 58.9984051036682 0  58.7814992025518 0  58.7814992025518 0  C 58.7814992025518 0  58.6730462519936 0.325678496868488  58.6730462519936 0.325678496868488  C 58.347687400319 1.19415448851777  57.5885167464115 1.62839248434238  56.3955342902711 1.30271398747389  C 55.8532695374801 1.08559498956159  55.2025518341308 1.08559498956159  54.4433811802233 1.30271398747389  Z " fill-rule="nonzero" fill="#0079fe" stroke="none" transform="matrix(1 0 0 1 237 282 )" />
  </g>
</svg>