<?xml version="1.0" encoding="utf-8"?>
<svg version="1.1" xmlns:xlink="http://www.w3.org/1999/xlink" width="14px" height="15px" xmlns="http://www.w3.org/2000/svg">
  <g transform="matrix(1 0 0 1 -1409 -23 )">
    <path d="M 13.2662760416667 4.98497596153846  C 13.7554253472222 5.95252403846154  14 6.98317307692308  14 8.07692307692308  C 14 9.01442307692308  13.8146701388889 9.90985576923077  13.4440104166667 10.7632211538462  C 13.0733506944444 11.6165865384615  12.5750868055556 12.3527644230769  11.94921875 12.9717548076923  C 11.3233506944444 13.5907451923077  10.5789930555556 14.0835336538462  9.71614583333333 14.4501201923077  C 8.85329861111111 14.8167067307692  7.94791666666667 15  7 15  C 6.05208333333333 15  5.14670138888889 14.8167067307692  4.28385416666667 14.4501201923077  C 3.42100694444445 14.0835336538462  2.67664930555556 13.5907451923077  2.05078125 12.9717548076923  C 1.42491319444444 12.3527644230769  0.926649305555556 11.6165865384615  0.555989583333333 10.7632211538462  C 0.185329861111111 9.90985576923077  0 9.01442307692308  0 8.07692307692308  C 0 6.98317307692308  0.244574652777778 5.95252403846154  0.733723958333333 4.98497596153846  C 1.22287326388889 4.01742788461538  1.91102430555556 3.20612980769231  2.79817708333333 2.55108173076923  C 3.05946180555556 2.35877403846154  3.349609375 2.28365384615384  3.66861979166667 2.32572115384615  C 3.98763020833333 2.36778846153846  4.24131944444444 2.51802884615384  4.4296875 2.77644230769231  C 4.62413194444444 3.02884615384615  4.69856770833333 3.31280048076923  4.65299479166667 3.62830528846154  C 4.607421875 3.94381009615385  4.45703125 4.19771634615384  4.20182291666667 4.39002403846154  C 3.60633680555556 4.83473557692308  3.14605034722222 5.37860576923077  2.82096354166667 6.02163461538462  C 2.49587673611111 6.66466346153846  2.33333333333333 7.34975961538461  2.33333333333333 8.07692307692308  C 2.33333333333333 8.70192307692308  2.45638020833333 9.29837740384615  2.70247395833333 9.86628605769231  C 2.94856770833333 10.4341947115385  3.28125 10.9254807692308  3.70052083333333 11.3401442307692  C 4.11979166666667 11.7548076923077  4.61653645833333 12.0838341346154  5.19075520833333 12.3272235576923  C 5.76497395833333 12.5706129807692  6.36805555555556 12.6923076923077  7 12.6923076923077  C 7.63194444444445 12.6923076923077  8.23502604166667 12.5706129807692  8.80924479166667 12.3272235576923  C 9.38346354166667 12.0838341346154  9.88020833333333 11.7548076923077  10.2994791666667 11.3401442307692  C 10.71875 10.9254807692308  11.0514322916667 10.4341947115385  11.2975260416667 9.86628605769231  C 11.5436197916667 9.29837740384615  11.6666666666667 8.70192307692308  11.6666666666667 8.07692307692308  C 11.6666666666667 7.34975961538461  11.5041232638889 6.66466346153846  11.1790364583333 6.02163461538462  C 10.8539496527778 5.37860576923077  10.3936631944444 4.83473557692308  9.79817708333333 4.39002403846154  C 9.54296875 4.19771634615384  9.392578125 3.94381009615385  9.34700520833333 3.62830528846154  C 9.30143229166667 3.31280048076923  9.37586805555556 3.02884615384615  9.5703125 2.77644230769231  C 9.75868055555556 2.51802884615384  10.0138888888889 2.36778846153846  10.3359375 2.32572115384615  C 10.6579861111111 2.28365384615384  10.9466145833333 2.35877403846154  11.2018229166667 2.55108173076923  C 12.0889756944444 3.20612980769231  12.7771267361111 4.01742788461538  13.2662760416667 4.98497596153846  Z M 7.8203125 0.342548076923077  C 8.05121527777778 0.57091346153846  8.16666666666667 0.841346153846153  8.16666666666667 1.15384615384615  L 8.16666666666667 6.92307692307692  C 8.16666666666667 7.23557692307692  8.05121527777778 7.50600961538461  7.8203125 7.734375  C 7.58940972222222 7.96274038461538  7.31597222222222 8.07692307692308  7 8.07692307692308  C 6.68402777777778 8.07692307692308  6.41059027777778 7.96274038461538  6.1796875 7.734375  C 5.94878472222222 7.50600961538461  5.83333333333333 7.23557692307692  5.83333333333333 6.92307692307692  L 5.83333333333333 1.15384615384615  C 5.83333333333333 0.841346153846153  5.94878472222222 0.57091346153846  6.1796875 0.342548076923077  C 6.41059027777778 0.114182692307693  6.68402777777778 0  7 0  C 7.31597222222222 0  7.58940972222222 0.114182692307693  7.8203125 0.342548076923077  Z " fill-rule="nonzero" fill="#999999" stroke="none" transform="matrix(1 0 0 1 1409 23 )" />
  </g>
</svg>