<?xml version="1.0" encoding="utf-8"?>
<svg version="1.1" xmlns:xlink="http://www.w3.org/1999/xlink" width="320px" height="197px" xmlns="http://www.w3.org/2000/svg">
  <defs>
    <filter x="11px" y="433px" width="320px" height="197px" filterUnits="userSpaceOnUse" id="filter986">
      <feOffset dx="5" dy="5" in="SourceAlpha" result="shadowOffsetInner" />
      <feGaussianBlur stdDeviation="5" in="shadowOffsetInner" result="shadowGaussian" />
      <feComposite in2="shadowGaussian" operator="atop" in="SourceAlpha" result="shadowComposite" />
      <feColorMatrix type="matrix" values="0 0 0 0 0  0 0 0 0 0  0 0 0 0 0  0 0 0 0.156862745098039 0  " in="shadowComposite" />
    </filter>
    <g id="widget987">
      <path d="M 17.5 444  A 4.5 4.5 0 0 1 22 439.5 L 310 439.5  A 4.5 4.5 0 0 1 314.5 444 L 314.5 609  A 4.5 4.5 0 0 1 310 613.5 L 22 613.5  A 4.5 4.5 0 0 1 17.5 609 L 17.5 444  Z " fill-rule="nonzero" fill="#ffffff" stroke="none" />
      <path d="M 17 444  A 5 5 0 0 1 22 439 L 310 439  A 5 5 0 0 1 315 444 L 315 609  A 5 5 0 0 1 310 614 L 22 614  A 5 5 0 0 1 17 609 L 17 444  Z " stroke-width="2" stroke="#0079fe" fill="none" />
    </g>
  </defs>
  <g transform="matrix(1 0 0 1 -11 -433 )">
    <use xlink:href="#widget987" filter="url(#filter986)" />
    <use xlink:href="#widget987" />
  </g>
</svg>