<?xml version="1.0" encoding="utf-8"?>
<svg version="1.1" xmlns:xlink="http://www.w3.org/1999/xlink" width="16px" height="9px" xmlns="http://www.w3.org/2000/svg">
  <g transform="matrix(1 0 0 1 -134 -545 )">
    <path d="M 15.703125 7.296875  C 15.9010416666667 7.49479166666666  16 7.72916666666666  16 8  C 16 8.27083333333333  15.9010416666667 8.50520833333333  15.703125 8.703125  C 15.5052083333333 8.90104166666667  15.2708333333333 9  15 9  L 1 9  C 0.729166666666667 9  0.494791666666667 8.90104166666667  0.296875 8.703125  C 0.0989583333333333 8.50520833333333  0 8.27083333333333  0 8  C 0 7.72916666666666  0.0989583333333333 7.49479166666666  0.296875 7.296875  L 7.296875 0.296875  C 7.49479166666667 0.0989583333333321  7.72916666666667 0  8 0  C 8.27083333333333 0  8.50520833333333 0.0989583333333321  8.703125 0.296875  L 15.703125 7.296875  Z " fill-rule="nonzero" fill="#4ecb73" stroke="none" transform="matrix(1 0 0 1 134 545 )" />
  </g>
</svg>