<?xml version="1.0" encoding="utf-8"?>
<svg version="1.1" xmlns:xlink="http://www.w3.org/1999/xlink" width="560px" height="358px" xmlns="http://www.w3.org/2000/svg">
  <defs>
    <linearGradient gradientUnits="userSpaceOnUse" x1="-107.033088235294" y1="-7.81250000000001" x2="576.790441176471" y2="414" id="LinearGradient709">
      <stop id="Stop710" stop-color="#745dff" offset="0" />
      <stop id="Stop711" stop-color="#0079fe" offset="1" />
    </linearGradient>
    <filter x="11px" y="71px" width="560px" height="358px" filterUnits="userSpaceOnUse" id="filter712">
      <feOffset dx="5" dy="5" in="SourceAlpha" result="shadowOffsetInner" />
      <feGaussianBlur stdDeviation="5" in="shadowOffsetInner" result="shadowGaussian" />
      <feComposite in2="shadowGaussian" operator="atop" in="SourceAlpha" result="shadowComposite" />
      <feColorMatrix type="matrix" values="0 0 0 0 0  0 0 0 0 0  0 0 0 0 0  0 0 0 0.164705882352941 0  " in="shadowComposite" />
    </filter>
    <g id="widget713">
      <path d="M 18 82  A 4 4 0 0 1 22 78 L 550 78  A 4 4 0 0 1 554 82 L 554 408  A 4 4 0 0 1 550 412 L 22 412  A 4 4 0 0 1 18 408 L 18 82  Z " fill-rule="nonzero" fill="url(#LinearGradient709)" stroke="none" />
      <path d="M 17 82  A 5 5 0 0 1 22 77 L 550 77  A 5 5 0 0 1 555 82 L 555 408  A 5 5 0 0 1 550 413 L 22 413  A 5 5 0 0 1 17 408 L 17 82  Z " stroke-width="2" stroke="#0079fe" fill="none" stroke-opacity="0.76078431372549" />
    </g>
  </defs>
  <g transform="matrix(1 0 0 1 -11 -71 )">
    <use xlink:href="#widget713" filter="url(#filter712)" />
    <use xlink:href="#widget713" />
  </g>
</svg>