<?xml version="1.0" encoding="utf-8"?>
<svg version="1.1" xmlns:xlink="http://www.w3.org/1999/xlink" width="320px" height="197px" xmlns="http://www.w3.org/2000/svg">
  <defs>
    <filter x="11px" y="433px" width="320px" height="197px" filterUnits="userSpaceOnUse" id="filter1299">
      <feOffset dx="5" dy="5" in="SourceAlpha" result="shadowOffsetInner" />
      <feGaussianBlur stdDeviation="5" in="shadowOffsetInner" result="shadowGaussian" />
      <feComposite in2="shadowGaussian" operator="atop" in="SourceAlpha" result="shadowComposite" />
      <feColorMatrix type="matrix" values="0 0 0 0 0  0 0 0 0 0  0 0 0 0 0  0 0 0 0.0470588235294118 0  " in="shadowComposite" />
    </filter>
    <g id="widget1300">
      <path d="M 16.5 444  A 5.5 5.5 0 0 1 22 438.5 L 310 438.5  A 5.5 5.5 0 0 1 315.5 444 L 315.5 609  A 5.5 5.5 0 0 1 310 614.5 L 22 614.5  A 5.5 5.5 0 0 1 16.5 609 L 16.5 444  Z " fill-rule="nonzero" fill="#ffffff" stroke="none" />
      <path d="M 16.5 444  A 5.5 5.5 0 0 1 22 438.5 L 310 438.5  A 5.5 5.5 0 0 1 315.5 444 L 315.5 609  A 5.5 5.5 0 0 1 310 614.5 L 22 614.5  A 5.5 5.5 0 0 1 16.5 609 L 16.5 444  Z " stroke-width="1" stroke="#d7d7d7" fill="none" />
    </g>
  </defs>
  <g transform="matrix(1 0 0 1 -11 -433 )">
    <use xlink:href="#widget1300" filter="url(#filter1299)" />
    <use xlink:href="#widget1300" />
  </g>
</svg>