<?xml version="1.0" encoding="utf-8"?>
<svg version="1.1" xmlns:xlink="http://www.w3.org/1999/xlink" width="126px" height="28px" xmlns="http://www.w3.org/2000/svg">
  <defs>
    <mask fill="white" id="clip1018">
      <path d="M 16.3333333333333 28  C 7.18666666666663 28  0 21.84  0 14  C 0 6.16000000000003  7.18666666666663 0  16.3333333333333 0  L 75.7626262626262 0  L 109.666666666667 0  C 118.813333333333 0  126 6.16000000000003  126 14  C 126 21.84  118.813333333333 28  109.666666666667 28  L 16.3333333333333 28  Z " fill-rule="evenodd" />
    </mask>
  </defs>
  <g transform="matrix(1 0 0 1 -102 -9 )">
    <path d="M 16.3333333333333 28  C 7.18666666666663 28  0 21.84  0 14  C 0 6.16000000000003  7.18666666666663 0  16.3333333333333 0  L 75.7626262626262 0  L 109.666666666667 0  C 118.813333333333 0  126 6.16000000000003  126 14  C 126 21.84  118.813333333333 28  109.666666666667 28  L 16.3333333333333 28  Z " fill-rule="nonzero" fill="#8ed6ff" stroke="none" transform="matrix(1 0 0 1 102 9 )" />
    <path d="M 16.3333333333333 28  C 7.18666666666663 28  0 21.84  0 14  C 0 6.16000000000003  7.18666666666663 0  16.3333333333333 0  L 75.7626262626262 0  L 109.666666666667 0  C 118.813333333333 0  126 6.16000000000003  126 14  C 126 21.84  118.813333333333 28  109.666666666667 28  L 16.3333333333333 28  Z " stroke-width="2" stroke="#6dc7f9" fill="none" transform="matrix(1 0 0 1 102 9 )" mask="url(#clip1018)" />
  </g>
</svg>