<?xml version="1.0" encoding="utf-8"?>
<svg version="1.1" xmlns:xlink="http://www.w3.org/1999/xlink" width="92px" height="28px" xmlns="http://www.w3.org/2000/svg">
  <defs>
    <mask fill="white" id="clip1334">
      <path d="M 11.9259259259259 28  C 5.24740740740738 28  0 21.84  0 14  C 0 6.16000000000003  5.24740740740738 0  11.9259259259259 0  L 55.3187429854096 0  L 80.0740740740741 0  C 86.7525925925926 0  92 6.16000000000003  92 14  C 92 21.84  86.7525925925926 28  80.0740740740741 28  L 11.9259259259259 28  Z " fill-rule="evenodd" />
    </mask>
  </defs>
  <g transform="matrix(1 0 0 1 -5 -9 )">
    <path d="M 11.9259259259259 28  C 5.24740740740738 28  0 21.84  0 14  C 0 6.16000000000003  5.24740740740738 0  11.9259259259259 0  L 55.3187429854096 0  L 80.0740740740741 0  C 86.7525925925926 0  92 6.16000000000003  92 14  C 92 21.84  86.7525925925926 28  80.0740740740741 28  L 11.9259259259259 28  Z " fill-rule="nonzero" fill="#f0f6fd" stroke="none" transform="matrix(1 0 0 1 5 9 )" />
    <path d="M 11.9259259259259 28  C 5.24740740740738 28  0 21.84  0 14  C 0 6.16000000000003  5.24740740740738 0  11.9259259259259 0  L 55.3187429854096 0  L 80.0740740740741 0  C 86.7525925925926 0  92 6.16000000000003  92 14  C 92 21.84  86.7525925925926 28  80.0740740740741 28  L 11.9259259259259 28  Z " stroke-width="2" stroke="#e5eaf0" fill="none" transform="matrix(1 0 0 1 5 9 )" mask="url(#clip1334)" />
  </g>
</svg>