<?xml version="1.0" encoding="utf-8"?>
<svg version="1.1" xmlns:xlink="http://www.w3.org/1999/xlink" width="16px" height="16px" xmlns="http://www.w3.org/2000/svg">
  <g transform="matrix(1 0 0 1 -422 -109 )">
    <path d="M 0.857142857142857 6.80952380952381  C 0.857142857142857 10.096825390625  3.52222222842262 12.7619047619048  6.80952380952381 12.7619047619048  C 10.096825390625 12.7619047619048  12.7619047619048 10.096825390625  12.7619047619048 6.80952380952381  C 12.7619047619048 3.52222222842262  10.096825390625 0.857142857142857  6.80952380952381 0.857142857142857  C 3.52222222842262 0.857142857142857  0.857142857142857 3.52222222842262  0.857142857142857 6.80952380952381  Z M 13.555555561756 6.80952380952381  C 13.555555561756 10.5353174665179  10.5353174665179 13.555555561756  6.80952380952381 13.555555561756  C 3.08373015252976 13.555555561756  0.0634920572916664 10.5353174665179  0.0634920572916664 6.80952380952381  C 0.0634920572916664 3.08373015252976  3.08373015252976 0.0634920572916667  6.80952380952381 0.0634920572916667  C 10.5353174665179 0.0634920572916667  13.555555561756 3.08373015252976  13.555555561756 6.80952380952381  Z M 12.4813492001488 13.0424603236607  C 12.4098929183695 12.9684764963175  12.3699550343264 12.8696376411011  12.3699550343264 12.7667804249514  C 12.3699550343264 12.5476198133635  12.5476198133635 12.3699550343264  12.7667804249514 12.3699550343264  C 12.8696376411011 12.3699550343264  12.9684764963175 12.4098929183695  13.0424603236607 12.4813492001488  L 15.8484127046131 15.2873015811012  C 15.9198689863924 15.3612854084444  15.9598068704356 15.4601242636609  15.9598068704356 15.5629814798106  C 15.9598068704356 15.7821420913984  15.7821420913984 15.9598068704356  15.5629814798106 15.9598068704356  C 15.4601242636609 15.9598068704356  15.3612854084444 15.9198689863924  15.2873015811012 15.8484127046131  L 12.4813492001488 13.0428571428571  Z " fill-rule="nonzero" fill="#1787f9" stroke="none" transform="matrix(1 0 0 1 422 109 )" />
  </g>
</svg>