<?xml version="1.0" encoding="utf-8"?>
<svg version="1.1" xmlns:xlink="http://www.w3.org/1999/xlink" width="52px" height="52px" xmlns="http://www.w3.org/2000/svg">
  <g transform="matrix(1 0 0 1 -40 -86 )">
    <path d="M 51.8407315340909 25.9538352272727  C 51.8407315340909 22.4683948863636  51.1598011363636 19.0810546875  49.8094815340909 15.8956853693182  C 48.5053267045455 12.8199573863636  46.6471946022727 10.0558416193182  44.2697088068182 7.68412642045454  C 41.8979936079545 5.31241122159091  39.1338778409091 3.44850852272727  36.0581498579545 2.14435369318182  C 32.8727805397727 0.794034090909091  29.4912109375 0.113103693181818  26 0.113103693181818  C 22.5087890625 0.113103693181818  19.1272194602273 0.794034090909091  15.9418501420455 2.14435369318182  C 12.8661221590909 3.44850852272727  10.1020063920455 5.306640625  7.73029119318182 7.68412642045454  C 5.35857599431818 10.0558416193182  3.49467329545454 12.8199573863636  2.19051846590909 15.8956853693182  C 0.840198863636364 19.0810546875  0.159268465909091 22.4683948863636  0.159268465909091 25.9538352272727  C 0.159268465909091 29.4392755681818  0.840198863636364 32.8266157670455  2.19051846590909 36.0119850852273  C 3.49467329545454 39.0877130681818  5.35280539772727 41.8518288352273  7.73029119318182 44.2235440340909  C 10.1020063920455 46.5952592329545  12.8661221590909 48.4591619318182  15.9418501420455 49.7633167613636  C 19.1272194602273 51.1136363636364  22.5145596590909 51.7945667613636  26 51.7945667613636  C 29.4854403409091 51.7945667613636  32.8727805397727 51.1136363636364  36.0581498579545 49.7633167613636  C 39.1338778409091 48.4591619318182  41.8979936079545 46.6010298295455  44.2697088068182 44.2235440340909  C 46.6414240056818 41.8518288352273  48.5053267045454 39.0877130681818  49.8094815340909 36.0119850852273  C 51.1598011363636 32.8266157670455  51.8407315340909 29.4392755681818  51.8407315340909 25.9538352272727  Z M 47.1780894886364 25.9596058238636  C 47.1723188920455 31.2800958806818  45.1987748579545 36.1504794034091  41.9383877840909 39.8725142045455  C 39.7686434659091 38.5568181818182  37.5988991477273 38.4067826704545  37.5988991477273 38.4067826704545  L 30.4606711647727 35.3829900568182  L 30.4606711647727 31.6321022727273  C 31.8513849431818 30.9280894886364  32.4226740056818 26.9175248579545  32.4226740056818 26.9175248579545  C 34.0211292613636 26.9810014204545  33.7903053977273 23.9225852272727  33.8133877840909 22.6530539772727  C 33.8364701704545 21.3835227272727  33.1497691761364 21.6316583806818  33.1497691761364 21.6316583806818  C 33.5133167613636 19.2080078125  33.3575106534091 17.3498757102273  33.3575106534091 17.3498757102273  C 32.3995916193182 11.3657670454545  26.0346235795455 11.2965198863636  26.0346235795455 11.2965198863636  L 26.0288529829545 11.9774502840909  L 26.0230823863636 11.2965198863636  C 26.0230823863636 11.2965198863636  19.6581143465909 11.3657670454545  18.7001953125 17.3498757102273  C 18.7001953125 17.3498757102273  18.5386186079545 19.2080078125  18.9079367897727 21.6316583806818  C 18.9079367897727 21.6316583806818  18.2212357954546 21.3835227272727  18.2443181818182 22.6530539772727  C 18.2674005681818 23.9225852272727  18.0365767045455 26.9810014204545  19.6350319602273 26.9117542613636  C 19.6350319602273 26.9117542613636  20.2063210227273 30.9223188920455  21.5970348011364 31.6263316761364  L 21.5970348011364 35.3772194602273  L 14.4588068181818 38.4067826704545  C 14.4588068181818 38.4067826704545  12.2659801136364 38.5625887784091  10.0846946022727 39.9013671875  C 6.81853693181818 36.1735617897727  4.83345170454545 31.2916370738636  4.83345170454545 25.9596058238636  C 4.83345170454545 14.2856889204545  14.3318536931818 4.78728693181818  26.0057705965909 4.78728693181818  C 37.6796875 4.78728693181818  47.1780894886364 14.2856889204545  47.1780894886364 25.9596058238636  Z " fill-rule="nonzero" fill="#0064f9" stroke="none" fill-opacity="0.341176470588235" transform="matrix(1 0 0 1 40 86 )" />
  </g>
</svg>