<?xml version="1.0" encoding="utf-8"?>
<svg version="1.1" xmlns:xlink="http://www.w3.org/1999/xlink" width="65px" height="65px" xmlns="http://www.w3.org/2000/svg">
  <g transform="matrix(1 0 0 1 -31 -45 )">
    <path d="M 63.5 56  C 75.54 56  85 65.46  85 77.5  C 85 89.54  75.54 99  63.5 99  C 51.46 99  42 89.54  42 77.5  C 42 65.46  51.46 56  63.5 56  Z " fill-rule="nonzero" fill="#ffffff" stroke="none" />
    <path d="M 63.5 51  C 78.34 51  90 62.66  90 77.5  C 90 92.34  78.34 104  63.5 104  C 48.66 104  37 92.34  37 77.5  C 37 62.66  48.66 51  63.5 51  Z " stroke-width="12" stroke="#f2f2f2" fill="none" />
  </g>
</svg>