<?xml version="1.0" encoding="utf-8"?>
<svg version="1.1" xmlns:xlink="http://www.w3.org/1999/xlink" width="30px" height="26px" xmlns="http://www.w3.org/2000/svg">
  <g transform="matrix(1 0 0 1 -48 -64 )">
    <path d="M 29.6110372340426 23.8333333333333  C 29.4115691489362 23.4886363636364  29.1123670212766 23.3901515151515  28.7632978723404 23.3901515151515  L 27.8656914893617 23.3901515151515  L 27.8656914893617 8.86363636363636  C 27.8656914893617 7.43560606060606  26.6688829787234 6.25378787878788  25.1728723404255 6.25378787878788  L 19.8869680851064 6.25378787878788  L 19.8869680851064 23.3901515151515  L 18 23.3901515151515  L 18 2.51136363636364  C 18.2912234042553 1.8219696969697  18.0418882978723 1.18181818181818  17.5432180851064 0.738636363636364  C 17.0445478723404 0.295454545454545  16.3962765957447 0  15.7480053191489 0  L 4.77726063829787 0  C 4.12898936170213 0.0492424242424245  3.48071808510638 0.295454545454545  2.98204787234043 0.787878787878788  C 2.53324468085106 1.28030303030303  2.23404255319149 1.87121212121212  2.23404255319149 2.56060606060606  L 2.23404255319149 23.4393939393939  L 1.33643617021277 23.4393939393939  C 0.987367021276595 23.4393939393939  0.688164893617021 23.5871212121212  0.438829787234043 23.8333333333333  C 0.189494680851064 24.0795454545455  0.0398936170212766 24.375  0.0398936170212766 24.719696969697  C 0.0398936170212766 25.4090909090909  0.58843085106383 26  1.33643617021277 26  L 28.6635638297872 26  C 29.3617021276596 26  29.9601063829787 25.4090909090909  29.9601063829787 24.719696969697  C 29.9601063829787 24.375  29.8105053191489 24.030303030303  29.6110372340426 23.8333333333333  Z M 21.8317819148936 12.9507575757576  L 21.8317819148936 11.7689393939394  C 21.8317819148936 11.5719696969697  21.8816489361702 11.4242424242424  22.03125 11.2765151515152  C 22.1808510638298 11.1287878787879  22.3304521276596 11.0795454545455  22.529920212766 11.0795454545455  L 25.2227393617021 11.0795454545455  C 25.4222074468085 11.0795454545455  25.5718085106383 11.1287878787879  25.7214095744681 11.2765151515152  C 25.8710106382979 11.4242424242424  25.9208776595745 11.5719696969697  25.9208776595745 11.7689393939394  L 25.9208776595745 12.9507575757576  C 25.9208776595745 13.344696969697  25.6216755319149 13.6401515151515  25.2227393617021 13.6401515151515  L 22.529920212766 13.6401515151515  C 22.3304521276596 13.6401515151515  22.1808510638298 13.5909090909091  22.03125 13.4431818181818  C 21.8816489361702 13.2954545454545  21.8317819148936 13.1477272727273  21.8317819148936 12.9507575757576  Z M 21.8317819148936 17.7272727272727  L 21.8317819148936 16.5454545454545  C 21.8317819148936 16.3484848484848  21.8816489361702 16.2007575757576  22.03125 16.0530303030303  C 22.1808510638298 15.905303030303  22.3304521276596 15.8560606060606  22.529920212766 15.8560606060606  L 25.2227393617021 15.8560606060606  C 25.4222074468085 15.8560606060606  25.5718085106383 15.905303030303  25.7214095744681 16.0530303030303  C 25.8710106382979 16.2007575757576  25.9208776595745 16.3484848484848  25.9208776595745 16.5454545454545  L 25.9208776595745 17.7272727272727  C 25.9208776595745 17.9242424242424  25.8710106382979 18.0719696969697  25.7214095744681 18.219696969697  C 25.5718085106383 18.3674242424242  25.4222074468085 18.4166666666667  25.2227393617021 18.4166666666667  L 22.529920212766 18.4166666666667  C 22.3304521276596 18.4166666666667  22.1808510638298 18.3674242424242  22.03125 18.219696969697  C 21.8816489361702 18.0719696969697  21.8317819148936 17.9242424242424  21.8317819148936 17.7272727272727  Z M 11.6090425531915 8.17424242424242  L 11.6090425531915 6.99242424242424  C 11.6090425531915 6.79545454545455  11.6589095744681 6.64772727272727  11.8085106382979 6.5  C 11.9581117021277 6.35227272727273  12.1077127659574 6.3030303030303  12.3071808510638 6.3030303030303  L 15 6.3030303030303  C 15.1994680851064 6.3030303030303  15.3490691489362 6.35227272727273  15.498670212766 6.5  C 15.6482712765957 6.64772727272727  15.6981382978723 6.79545454545455  15.6981382978723 6.99242424242424  L 15.6981382978723 8.17424242424242  C 15.6981382978723 8.37121212121212  15.6482712765957 8.51893939393939  15.498670212766 8.66666666666667  C 15.3490691489362 8.81439393939394  15.1994680851064 8.86363636363636  15 8.86363636363636  L 12.3071808510638 8.86363636363636  C 12.1077127659574 8.86363636363636  11.9581117021277 8.81439393939394  11.8085106382979 8.66666666666667  C 11.6589095744681 8.51893939393939  11.6090425531915 8.37121212121212  11.6090425531915 8.17424242424242  Z M 11.6090425531915 12.9507575757576  L 11.6090425531915 11.7689393939394  C 11.6090425531915 11.5719696969697  11.6589095744681 11.4242424242424  11.8085106382979 11.2765151515152  C 11.9581117021277 11.1287878787879  12.1077127659574 11.0795454545455  12.3071808510638 11.0795454545455  L 15 11.0795454545455  C 15.1994680851064 11.0795454545455  15.3490691489362 11.1780303030303  15.498670212766 11.2765151515152  C 15.6482712765957 11.4242424242424  15.6981382978723 11.5719696969697  15.6981382978723 11.7689393939394  L 15.6981382978723 12.9507575757576  C 15.6981382978723 13.1477272727273  15.6482712765957 13.2954545454545  15.498670212766 13.4431818181818  C 15.3490691489362 13.5909090909091  15.1994680851064 13.6401515151515  15 13.6401515151515  L 12.3071808510638 13.6401515151515  C 12.1077127659574 13.6401515151515  11.9581117021277 13.5909090909091  11.8085106382979 13.4431818181818  C 11.6589095744681 13.2954545454545  11.6090425531915 13.1477272727273  11.6090425531915 12.9507575757576  Z M 11.6090425531915 17.7765151515152  L 11.6090425531915 16.594696969697  C 11.6090425531915 16.3977272727273  11.6589095744681 16.25  11.8085106382979 16.1022727272727  C 11.9581117021277 15.9545454545455  12.1077127659574 15.905303030303  12.3071808510638 15.905303030303  L 15 15.905303030303  C 15.1994680851064 15.905303030303  15.3490691489362 15.9545454545455  15.498670212766 16.1022727272727  C 15.6482712765957 16.25  15.6981382978723 16.3977272727273  15.6981382978723 16.594696969697  L 15.6981382978723 17.7765151515152  C 15.6981382978723 17.9734848484848  15.6482712765957 18.1212121212121  15.498670212766 18.2689393939394  C 15.3490691489362 18.4166666666667  15.1994680851064 18.4659090909091  15 18.4659090909091  L 12.3071808510638 18.4659090909091  C 12.1077127659574 18.4659090909091  11.9581117021277 18.4166666666667  11.8085106382979 18.2689393939394  C 11.6589095744681 18.1212121212121  11.6090425531915 17.9734848484848  11.6090425531915 17.7765151515152  Z M 4.82712765957447 8.17424242424242  L 4.82712765957447 6.99242424242424  C 4.82712765957447 6.79545454545455  4.87699468085106 6.64772727272727  5.02659574468085 6.5  C 5.17619680851064 6.35227272727273  5.32579787234043 6.3030303030303  5.52526595744681 6.3030303030303  L 8.21808510638298 6.3030303030303  C 8.41755319148936 6.3030303030303  8.56715425531915 6.35227272727273  8.71675531914894 6.5  C 8.86635638297872 6.64772727272727  8.91622340425532 6.79545454545455  8.91622340425532 6.99242424242424  L 8.91622340425532 8.17424242424242  C 8.91622340425532 8.37121212121212  8.86635638297872 8.51893939393939  8.71675531914894 8.66666666666667  C 8.56715425531915 8.81439393939394  8.41755319148936 8.86363636363636  8.21808510638298 8.86363636363636  L 5.52526595744681 8.86363636363636  C 5.32579787234043 8.86363636363636  5.17619680851064 8.81439393939394  5.02659574468085 8.66666666666667  C 4.87699468085106 8.51893939393939  4.82712765957447 8.37121212121212  4.82712765957447 8.17424242424242  Z M 4.82712765957447 12.9507575757576  L 4.82712765957447 11.7689393939394  C 4.82712765957447 11.5719696969697  4.87699468085106 11.4242424242424  5.02659574468085 11.2765151515152  C 5.17619680851064 11.1287878787879  5.32579787234043 11.0795454545455  5.52526595744681 11.0795454545455  L 8.21808510638298 11.0795454545455  C 8.41755319148936 11.0795454545455  8.56715425531915 11.1780303030303  8.71675531914894 11.2765151515152  C 8.86635638297872 11.4242424242424  8.91622340425532 11.5719696969697  8.91622340425532 11.7689393939394  L 8.91622340425532 12.9507575757576  C 8.91622340425532 13.1477272727273  8.86635638297872 13.2954545454545  8.71675531914894 13.4431818181818  C 8.56715425531915 13.5909090909091  8.41755319148936 13.6401515151515  8.21808510638298 13.6401515151515  L 5.52526595744681 13.6401515151515  C 5.32579787234043 13.6401515151515  5.17619680851064 13.5909090909091  5.02659574468085 13.4431818181818  C 4.87699468085106 13.2954545454545  4.82712765957447 13.1477272727273  4.82712765957447 12.9507575757576  Z M 4.82712765957447 17.7765151515152  L 4.82712765957447 16.594696969697  C 4.82712765957447 16.3977272727273  4.87699468085106 16.25  5.02659574468085 16.1022727272727  C 5.17619680851064 15.9545454545455  5.32579787234043 15.905303030303  5.52526595744681 15.905303030303  L 8.21808510638298 15.905303030303  C 8.41755319148936 15.905303030303  8.56715425531915 15.9545454545455  8.71675531914894 16.1022727272727  C 8.86635638297872 16.25  8.91622340425532 16.3977272727273  8.91622340425532 16.594696969697  L 8.91622340425532 17.7765151515152  C 8.91622340425532 17.9734848484848  8.86635638297872 18.1212121212121  8.71675531914894 18.2689393939394  C 8.56715425531915 18.4166666666667  8.41755319148936 18.4659090909091  8.21808510638298 18.4659090909091  L 5.52526595744681 18.4659090909091  C 5.32579787234043 18.4659090909091  5.17619680851064 18.4166666666667  5.02659574468085 18.2689393939394  C 4.87699468085106 18.1212121212121  4.82712765957447 17.9734848484848  4.82712765957447 17.7765151515152  Z " fill-rule="nonzero" fill="#0064f9" stroke="none" fill-opacity="0.364705882352941" transform="matrix(1 0 0 1 48 64 )" />
  </g>
</svg>