<?xml version="1.0" encoding="utf-8"?>
<svg version="1.1" xmlns:xlink="http://www.w3.org/1999/xlink" width="648px" height="50px" xmlns="http://www.w3.org/2000/svg">
  <g transform="matrix(1 0 0 1 -416 -158 )">
    <path d="M 417 161  A 2 2 0 0 1 419 159 L 1061 159  A 2 2 0 0 1 1063 161 L 1063 205  A 2 2 0 0 1 1061 207 L 419 207  A 2 2 0 0 1 417 205 L 417 161  Z " fill-rule="nonzero" fill="#ffffff" stroke="none" />
    <path d="M 416.5 161  A 2.5 2.5 0 0 1 419 158.5 L 1061 158.5  A 2.5 2.5 0 0 1 1063.5 161 L 1063.5 205  A 2.5 2.5 0 0 1 1061 207.5 L 419 207.5  A 2.5 2.5 0 0 1 416.5 205 L 416.5 161  Z " stroke-width="1" stroke="#cccccc" fill="none" stroke-opacity="0.698039215686274" />
  </g>
</svg>