<?xml version="1.0" encoding="utf-8"?>
<svg version="1.1" xmlns:xlink="http://www.w3.org/1999/xlink" width="13px" height="14px" xmlns="http://www.w3.org/2000/svg">
  <g transform="matrix(1 0 0 1 -55 -16 )">
    <path d="M 3.52244224422442 3.79339933993399  C 3.73696369636964 3.56237623762376  3.84422442244224 3.28360836083608  3.84422442244224 2.95709570957096  C 3.84422442244224 2.63058305830583  3.73696369636964 2.35181518151815  3.52244224422442 2.12079207920792  C 3.30792079207921 1.88976897689769  3.04906490649065 1.77425742574257  2.74587458745875 1.77425742574257  C 2.44268426842684 1.77425742574257  2.18382838283828 1.88976897689769  1.96930693069307 2.12079207920792  C 1.75478547854785 2.35181518151815  1.64752475247525 2.63058305830583  1.64752475247525 2.95709570957096  C 1.64752475247525 3.28360836083608  1.75478547854785 3.56237623762376  1.96930693069307 3.79339933993399  C 2.18382838283828 4.02442244224422  2.44268426842684 4.13993399339934  2.74587458745875 4.13993399339934  C 3.04906490649065 4.13993399339934  3.30792079207921 4.02442244224422  3.52244224422442 3.79339933993399  Z M 12.6825082508251 7.43894389438944  C 12.8941694169417 7.67920792079208  13 7.95951595159516  13 8.27986798679868  C 13 8.6063806380638  12.8941694169417 8.88360836083608  12.6825082508251 9.11155115511551  L 8.46930693069307 13.6580858085809  C 8.24620462046205 13.8860286028603  7.98591859185919 14  7.68844884488449 14  C 7.38525852585258 14  7.12783278327833 13.8860286028603  6.91617161716172 13.6580858085809  L 0.780858085808581 7.04158415841584  C 0.563476347634764 6.81364136413641  0.378987898789879 6.5025302530253  0.227392739273927 6.10825082508251  C 0.0757975797579758 5.71397139713971  0 5.35357535753575  0 5.02706270627063  L 0 1.18283828382838  C 0 0.862486248624863  0.108690869086909 0.585258525852585  0.326072607260726 0.35115511551155  C 0.543454345434544 0.117051705170516  0.800880088008801 0  1.0983498349835 0  L 4.66798679867987 0  C 4.97117711771177 0  5.30583058305831 0.0816281628162805  5.67194719471947 0.244884488448845  C 6.03806380638064 0.408140814081407  6.32981298129813 0.606820682068205  6.54719471947195 0.840924092409241  L 12.6825082508251 7.43894389438944  Z " fill-rule="nonzero" fill="#000000" stroke="none" transform="matrix(1 0 0 1 55 16 )" />
  </g>
</svg>