<?xml version="1.0" encoding="utf-8"?>
<svg version="1.1" xmlns:xlink="http://www.w3.org/1999/xlink" width="14px" height="15px" xmlns="http://www.w3.org/2000/svg">
  <g transform="matrix(1 0 0 1 -55 -50 )">
    <path d="M 13.5288461538462 5.37807183364839  C 13.8429487179487 5.43478260869565  14 5.57971014492754  14 5.81285444234405  C 14 5.95148078134846  13.9270833333333 6.10270951480781  13.78125 6.26654064272212  L 10.7271634615385 9.6124763705104  L 11.4507211538462 14.3383742911153  C 11.4563301282051 14.3824826717076  11.4591346153846 14.4454946439824  11.4591346153846 14.5274102079395  C 11.4591346153846 14.6597353497164  11.4296875 14.7715816005041  11.3707932692308 14.8629489603025  C 11.3118990384615 14.9543163201008  11.2263621794872 15  11.1141826923077 15  C 11.0076121794872 15  10.8954326923077 14.9621928166352  10.7776442307692 14.8865784499055  L 7 12.65595463138  L 3.22235576923077 14.8865784499055  C 3.09895833333333 14.9621928166352  2.98677884615385 15  2.88581730769231 15  C 2.76802884615385 15  2.6796875 14.9543163201008  2.62079326923077 14.8629489603025  C 2.56189903846154 14.7715816005041  2.53245192307692 14.6597353497164  2.53245192307692 14.5274102079395  C 2.53245192307692 14.4896030245747  2.5380608974359 14.4265910522999  2.54927884615385 14.3383742911153  L 3.27283653846154 9.6124763705104  L 0.210336538461538 6.26654064272212  C 0.0701121794871795 6.09640831758034  0 5.94517958412098  0 5.81285444234405  C 0 5.57971014492754  0.157051282051282 5.43478260869565  0.471153846153846 5.37807183364839  L 4.69471153846154 4.68809073724008  L 6.58774038461539 0.387523629489602  C 6.6943108974359 0.1291745431632  6.83173076923077 0  7 0  C 7.16826923076923 0  7.3056891025641 0.1291745431632  7.41225961538462 0.387523629489602  L 9.30528846153846 4.68809073724008  L 13.5288461538462 5.37807183364839  Z " fill-rule="nonzero" fill="#000000" stroke="none" transform="matrix(1 0 0 1 55 50 )" />
  </g>
</svg>