<?xml version="1.0" encoding="utf-8"?>
<svg version="1.1" xmlns:xlink="http://www.w3.org/1999/xlink" width="15px" height="15px" xmlns="http://www.w3.org/2000/svg">
  <g transform="matrix(1 0 0 1 -149 -50 )">
    <path d="M 10.2493990384615 9.18714555765596  L 10.6911057692308 8.74291115311909  L 13.0078125 6.37996219281663  L 9.79867788461539 5.88846880907372  L 9.20372596153846 5.79395085066163  L 8.93329326923077 5.22684310018904  L 7.5 2.18336483931947  L 7.5 11.2854442344045  L 8.03185096153846 11.578449905482  L 10.8984375 13.1663516068053  L 10.3575721153846 9.8109640831758  L 10.2493990384615 9.18714555765596  Z M 14.9819711538462 5.70415879017013  C 15.0360576923077 5.87744171392564  14.9639423076923 6.06490233144297  14.765625 6.26654064272212  L 11.4933894230769 9.6124763705104  L 12.2686298076923 14.3383742911153  C 12.2986778846154 14.5463137996219  12.2806490384615 14.7085696282294  12.2145432692308 14.8251417769376  C 12.1484375 14.9417139256459  12.0462740384615 15  11.9080528846154 15  C 11.8058894230769 15  11.6856971153846 14.9621928166352  11.5474759615385 14.8865784499055  L 7.5 12.65595463138  L 3.45252403846154 14.8865784499055  C 3.31430288461539 14.9621928166352  3.19411057692308 15  3.09194711538462 15  C 2.95372596153846 15  2.8515625 14.9417139256459  2.78545673076923 14.8251417769376  C 2.71935096153846 14.7085696282294  2.70132211538462 14.5463137996219  2.73137019230769 14.3383742911153  L 3.50661057692308 9.6124763705104  L 0.225360576923077 6.26654064272212  C 0.0330528846153846 6.06490233144297  -0.0360576923076923 5.87744171392564  0.0180288461538462 5.70415879017013  C 0.0721153846153846 5.53087586641462  0.234375 5.42218021424071  0.504807692307692 5.37807183364839  L 5.03004807692308 4.68809073724008  L 7.05829326923077 0.387523629489602  C 7.17848557692308 0.1291745431632  7.32572115384615 0  7.5 0  C 7.66826923076923 0  7.81550480769231 0.1291745431632  7.94170673076923 0.387523629489602  L 9.96995192307692 4.68809073724008  L 14.4951923076923 5.37807183364839  C 14.765625 5.42218021424071  14.9278846153846 5.53087586641462  14.9819711538462 5.70415879017013  Z " fill-rule="nonzero" fill="#000000" stroke="none" transform="matrix(1 0 0 1 149 50 )" />
  </g>
</svg>