<?xml version="1.0" encoding="utf-8"?>
<svg version="1.1" xmlns:xlink="http://www.w3.org/1999/xlink" width="13px" height="12px" xmlns="http://www.w3.org/2000/svg">
  <g transform="matrix(1 0 0 1 -55 -17 )">
    <path d="M 3.52244224422442 3.25148514851485  C 3.73696369636964 3.05346534653465  3.84422442244224 2.81452145214521  3.84422442244224 2.53465346534653  C 3.84422442244224 2.25478547854785  3.73696369636964 2.01584158415842  3.52244224422442 1.81782178217822  C 3.30792079207921 1.61980198019802  3.04906490649065 1.52079207920792  2.74587458745875 1.52079207920792  C 2.44268426842684 1.52079207920792  2.18382838283828 1.61980198019802  1.96930693069307 1.81782178217822  C 1.75478547854785 2.01584158415842  1.64752475247525 2.25478547854785  1.64752475247525 2.53465346534653  C 1.64752475247525 2.81452145214521  1.75478547854785 3.05346534653465  1.96930693069307 3.25148514851485  C 2.18382838283828 3.44950495049505  2.44268426842684 3.54851485148515  2.74587458745875 3.54851485148515  C 3.04906490649065 3.54851485148515  3.30792079207921 3.44950495049505  3.52244224422442 3.25148514851485  Z M 12.6825082508251 6.37623762376238  C 12.8941694169417 6.58217821782178  13 6.82244224422442  13 7.0970297029703  C 13 7.37689768976898  12.8941694169417 7.61452145214521  12.6825082508251 7.80990099009901  L 8.46930693069307 11.7069306930693  C 8.24620462046205 11.9023102310231  7.98591859185919 12  7.68844884488449 12  C 7.38525852585258 12  7.12783278327833 11.9023102310231  6.91617161716172 11.7069306930693  L 0.780858085808581 6.03564356435644  C 0.563476347634764 5.84026402640264  0.378987898789879 5.57359735973597  0.227392739273927 5.23564356435644  C 0.0757975797579758 4.8976897689769  0 4.58877887788779  0 4.30891089108911  L 0 1.01386138613861  C 0 0.739273927392739  0.108690869086909 0.501650165016502  0.326072607260726 0.3009900990099  C 0.543454345434544 0.100330033003299  0.800880088008801 0  1.0983498349835 0  L 4.66798679867987 0  C 4.97117711771177 0  5.30583058305831 0.069966996699669  5.67194719471947 0.20990099009901  C 6.03806380638064 0.349834983498349  6.32981298129813 0.520132013201319  6.54719471947195 0.720792079207921  L 12.6825082508251 6.37623762376238  Z " fill-rule="nonzero" fill="#000000" stroke="none" transform="matrix(1 0 0 1 55 17 )" />
  </g>
</svg>