<?xml version="1.0" encoding="utf-8"?>
<svg version="1.1" xmlns:xlink="http://www.w3.org/1999/xlink" width="16px" height="16px" viewBox="687 142.5  16 16" xmlns="http://www.w3.org/2000/svg">
  <path d="M 695 142.5  C 699.48 142.5  703 146.02  703 150.5  C 703 154.98  699.48 158.5  695 158.5  C 690.52 158.5  687 154.98  687 150.5  C 687 146.02  690.52 142.5  695 142.5  Z " fill-rule="nonzero" fill="#f0f0f0" stroke="none" />
  <path d="M 695 143  C 699.2 143  702.5 146.3  702.5 150.5  C 702.5 154.7  699.2 158  695 158  C 690.8 158  687.5 154.7  687.5 150.5  C 687.5 146.3  690.8 143  695 143  Z " stroke-width="1" stroke="#8c8c8c" fill="none" />
  <path d="M 695 154.5  C 692.76 154.5  691 152.74  691 150.5  C 691 148.26  692.76 146.5  695 146.5  C 697.24 146.5  699 148.26  699 150.5  C 699 152.74  697.24 154.5  695 154.5  " fill-rule="nonzero" fill="#8c8c8c" stroke="none" />
</svg>