<?xml version="1.0" encoding="utf-8"?>
<svg version="1.1" xmlns:xlink="http://www.w3.org/1999/xlink" width="16px" height="16px" viewBox="574 142.5  16 16" xmlns="http://www.w3.org/2000/svg">
  <path d="M 582 142.5  C 586.48 142.5  590 146.02  590 150.5  C 590 154.98  586.48 158.5  582 158.5  C 577.52 158.5  574 154.98  574 150.5  C 574 146.02  577.52 142.5  582 142.5  Z " fill-rule="nonzero" fill="#f0f0f0" stroke="none" />
  <path d="M 582 143  C 586.2 143  589.5 146.3  589.5 150.5  C 589.5 154.7  586.2 158  582 158  C 577.8 158  574.5 154.7  574.5 150.5  C 574.5 146.3  577.8 143  582 143  Z " stroke-width="1" stroke="#8c8c8c" fill="none" />
  <path d="M 582 154.5  C 579.76 154.5  578 152.74  578 150.5  C 578 148.26  579.76 146.5  582 146.5  C 584.24 146.5  586 148.26  586 150.5  C 586 152.74  584.24 154.5  582 154.5  " fill-rule="nonzero" fill="#8c8c8c" stroke="none" />
</svg>