<?xml version="1.0" encoding="utf-8"?>
<svg version="1.1" xmlns:xlink="http://www.w3.org/1999/xlink" width="16px" height="16px" viewBox="461 142.5  16 16" xmlns="http://www.w3.org/2000/svg">
  <path d="M 469 142.5  C 473.48 142.5  477 146.02  477 150.5  C 477 154.98  473.48 158.5  469 158.5  C 464.52 158.5  461 154.98  461 150.5  C 461 146.02  464.52 142.5  469 142.5  Z " fill-rule="nonzero" fill="#ffffff" stroke="none" />
  <path d="M 469 143  C 473.2 143  476.5 146.3  476.5 150.5  C 476.5 154.7  473.2 158  469 158  C 464.8 158  461.5 154.7  461.5 150.5  C 461.5 146.3  464.8 143  469 143  Z " stroke-width="1" stroke="#8c8c8c" fill="none" />
  <path d="M 469 154.5  C 466.76 154.5  465 152.74  465 150.5  C 465 148.26  466.76 146.5  469 146.5  C 471.24 146.5  473 148.26  473 150.5  C 473 152.74  471.24 154.5  469 154.5  " fill-rule="nonzero" fill="#8c8c8c" stroke="none" />
</svg>