<?xml version="1.0" encoding="utf-8"?>
<svg version="1.1" xmlns:xlink="http://www.w3.org/1999/xlink" width="12px" height="12px" viewBox="555 308.5  12 12" xmlns="http://www.w3.org/2000/svg">
  <path d="M 561 308.5  C 564.36 308.5  567 311.14  567 314.5  C 567 317.86  564.36 320.5  561 320.5  C 557.64 320.5  555 317.86  555 314.5  C 555 311.14  557.64 308.5  561 308.5  Z " fill-rule="nonzero" fill="#ffffff" stroke="none" />
  <path d="M 561 309  C 564.08 309  566.5 311.42  566.5 314.5  C 566.5 317.58  564.08 320  561 320  C 557.92 320  555.5 317.58  555.5 314.5  C 555.5 311.42  557.92 309  561 309  Z " stroke-width="1" stroke="#797979" fill="none" />
  <path d="M 561 317.5  C 559.32 317.5  558 316.18  558 314.5  C 558 312.82  559.32 311.5  561 311.5  C 562.68 311.5  564 312.82  564 314.5  C 564 316.18  562.68 317.5  561 317.5  " fill-rule="nonzero" fill="#797979" stroke="none" />
</svg>