<?xml version="1.0" encoding="utf-8"?>
<svg version="1.1" xmlns:xlink="http://www.w3.org/1999/xlink" width="12px" height="12px" viewBox="674 338.5  12 12" xmlns="http://www.w3.org/2000/svg">
  <path d="M 680 338.5  C 683.36 338.5  686 341.14  686 344.5  C 686 347.86  683.36 350.5  680 350.5  C 676.64 350.5  674 347.86  674 344.5  C 674 341.14  676.64 338.5  680 338.5  Z " fill-rule="nonzero" fill="#ffffff" stroke="none" />
  <path d="M 680 339  C 683.08 339  685.5 341.42  685.5 344.5  C 685.5 347.58  683.08 350  680 350  C 676.92 350  674.5 347.58  674.5 344.5  C 674.5 341.42  676.92 339  680 339  Z " stroke-width="1" stroke="#797979" fill="none" />
  <path d="M 680 347.5  C 678.32 347.5  677 346.18  677 344.5  C 677 342.82  678.32 341.5  680 341.5  C 681.68 341.5  683 342.82  683 344.5  C 683 346.18  681.68 347.5  680 347.5  " fill-rule="nonzero" fill="#797979" stroke="none" />
</svg>