<?xml version="1.0" encoding="utf-8"?>
<svg version="1.1" xmlns:xlink="http://www.w3.org/1999/xlink" width="10px" height="10px" xmlns="http://www.w3.org/2000/svg">
  <g transform="matrix(1 0 0 1 -476 -151 )">
    <path d="M 481 151  C 483.8 151  486 153.2  486 156  C 486 158.8  483.8 161  481 161  C 478.2 161  476 158.8  476 156  C 476 153.2  478.2 151  481 151  Z " fill-rule="nonzero" fill="#ffffff" stroke="none" />
    <path d="M 481 151.5  C 483.52 151.5  485.5 153.48  485.5 156  C 485.5 158.52  483.52 160.5  481 160.5  C 478.48 160.5  476.5 158.52  476.5 156  C 476.5 153.48  478.48 151.5  481 151.5  Z " stroke-width="1" stroke="#797979" fill="none" />
  </g>
</svg>