<?xml version="1.0" encoding="utf-8"?>
<svg version="1.1" xmlns:xlink="http://www.w3.org/1999/xlink" width="12px" height="12px" viewBox="784 487  12 12" xmlns="http://www.w3.org/2000/svg">
  <path d="M 790 487  C 793.36 487  796 489.64  796 493  C 796 496.36  793.36 499  790 499  C 786.64 499  784 496.36  784 493  C 784 489.64  786.64 487  790 487  Z " fill-rule="nonzero" fill="#f0f0f0" stroke="none" />
  <path d="M 790 487.5  C 793.08 487.5  795.5 489.92  795.5 493  C 795.5 496.08  793.08 498.5  790 498.5  C 786.92 498.5  784.5 496.08  784.5 493  C 784.5 489.92  786.92 487.5  790 487.5  Z " stroke-width="1" stroke="#797979" fill="none" />
  <path d="M 790 496  C 788.32 496  787 494.68  787 493  C 787 491.32  788.32 490  790 490  C 791.68 490  793 491.32  793 493  C 793 494.68  791.68 496  790 496  " fill-rule="nonzero" fill="#797979" stroke="none" />
</svg>