<?xml version="1.0" encoding="utf-8"?>
<svg version="1.1" xmlns:xlink="http://www.w3.org/1999/xlink" width="12px" height="12px" viewBox="727 487  12 12" xmlns="http://www.w3.org/2000/svg">
  <path d="M 733 487  C 736.36 487  739 489.64  739 493  C 739 496.36  736.36 499  733 499  C 729.64 499  727 496.36  727 493  C 727 489.64  729.64 487  733 487  Z " fill-rule="nonzero" fill="#f0f0f0" stroke="none" />
  <path d="M 733 487.5  C 736.08 487.5  738.5 489.92  738.5 493  C 738.5 496.08  736.08 498.5  733 498.5  C 729.92 498.5  727.5 496.08  727.5 493  C 727.5 489.92  729.92 487.5  733 487.5  Z " stroke-width="1" stroke="#797979" fill="none" />
  <path d="M 733 496  C 731.32 496  730 494.68  730 493  C 730 491.32  731.32 490  733 490  C 734.68 490  736 491.32  736 493  C 736 494.68  734.68 496  733 496  " fill-rule="nonzero" fill="#797979" stroke="none" />
</svg>