<?xml version="1.0" encoding="utf-8"?>
<svg version="1.1" xmlns:xlink="http://www.w3.org/1999/xlink" width="12px" height="12px" viewBox="524 136  12 12" xmlns="http://www.w3.org/2000/svg">
  <path d="M 530 136  C 533.36 136  536 138.64  536 142  C 536 145.36  533.36 148  530 148  C 526.64 148  524 145.36  524 142  C 524 138.64  526.64 136  530 136  Z " fill-rule="nonzero" fill="#f0f0f0" stroke="none" />
  <path d="M 530 136.5  C 533.08 136.5  535.5 138.92  535.5 142  C 535.5 145.08  533.08 147.5  530 147.5  C 526.92 147.5  524.5 145.08  524.5 142  C 524.5 138.92  526.92 136.5  530 136.5  Z " stroke-width="1" stroke="#797979" fill="none" />
  <path d="M 530 145  C 528.32 145  527 143.68  527 142  C 527 140.32  528.32 139  530 139  C 531.68 139  533 140.32  533 142  C 533 143.68  531.68 145  530 145  " fill-rule="nonzero" fill="#797979" stroke="none" />
</svg>