<?xml version="1.0" encoding="utf-8"?>
<svg version="1.1" xmlns:xlink="http://www.w3.org/1999/xlink" width="372px" height="148px" xmlns="http://www.w3.org/2000/svg">
  <g transform="matrix(1 0 0 1 -2 -53 )">
    <path d="M 3 63  A 9 9 0 0 1 12 54 L 364 54  A 9 9 0 0 1 373 63 L 373 191  A 9 9 0 0 1 364 200 L 12 200  A 9 9 0 0 1 3 191 L 3 63  Z " fill-rule="nonzero" fill="#ffffff" stroke="none" />
    <path d="M 2.5 63  A 9.5 9.5 0 0 1 12 53.5 L 364 53.5  A 9.5 9.5 0 0 1 373.5 63 L 373.5 191  A 9.5 9.5 0 0 1 364 200.5 L 12 200.5  A 9.5 9.5 0 0 1 2.5 191 L 2.5 63  Z " stroke-width="1" stroke="#d7d7d7" fill="none" stroke-opacity="0.886274509803922" />
  </g>
</svg>