<?xml version="1.0" encoding="utf-8"?>
<svg version="1.1" xmlns:xlink="http://www.w3.org/1999/xlink" width="12px" height="12px" viewBox="131 413  12 12" xmlns="http://www.w3.org/2000/svg">
  <path d="M 137 413  C 140.36 413  143 415.64  143 419  C 143 422.36  140.36 425  137 425  C 133.64 425  131 422.36  131 419  C 131 415.64  133.64 413  137 413  Z " fill-rule="nonzero" fill="#f0f0f0" stroke="none" />
  <path d="M 137 413.5  C 140.08 413.5  142.5 415.92  142.5 419  C 142.5 422.08  140.08 424.5  137 424.5  C 133.92 424.5  131.5 422.08  131.5 419  C 131.5 415.92  133.92 413.5  137 413.5  Z " stroke-width="1" stroke="#797979" fill="none" />
  <path d="M 137 422  C 135.32 422  134 420.68  134 419  C 134 417.32  135.32 416  137 416  C 138.68 416  140 417.32  140 419  C 140 420.68  138.68 422  137 422  " fill-rule="nonzero" fill="#797979" stroke="none" />
</svg>