<?xml version="1.0" encoding="utf-8"?>
<svg version="1.1" xmlns:xlink="http://www.w3.org/1999/xlink" width="10px" height="6px" xmlns="http://www.w3.org/2000/svg">
  <g transform="matrix(1 0 0 1 -225 -49 )">
    <path d="M 9.75349714206732 0.589101620029453  C 9.81931021320139 0.654557355588281  9.85221674876851 0.729831451480933  9.85221674876851 0.81492390770741  C 9.85221674876851 0.900016363933887  9.81931021320139 0.975290459826539  9.75349714206732 1.04074619538537  L 5.15316346979671 5.61610211094748  C 5.08735039866269 5.68155784650631  5.01166536685855 5.71428571428572  4.92610837438417 5.71428571428572  C 4.84055138190996 5.71428571428572  4.76486635010576 5.68155784650631  4.69905327897169 5.61610211094748  L 0.0987196067011382 1.04074619538537  C 0.0329065355670082 0.975290459826539  0 0.900016363933887  0 0.81492390770741  C 0 0.729831451480933  0.0329065355670082 0.654557355588281  0.0987196067011382 0.589101620029453  L 0.592317640206488 0.0981836033382422  C 0.658130711340618 0.0327278677794141  0.733815743144703 0  0.819372735619027 0  C 0.904929728093293 0  0.980614759897492 0.0327278677794141  1.04642783103156 0.0981836033382422  L 4.92610837438417 3.95679921453116  L 8.80578891773695 0.0981836033382422  C 8.87160198887102 0.0327278677794141  8.94728702067522 0  9.03284401314937 0  C 9.1184010056237 0  9.19408603742784 0.0327278677794141  9.25989910856191 0.0981836033382422  L 9.75349714206732 0.589101620029453  Z " fill-rule="nonzero" fill="#333333" stroke="none" transform="matrix(1 0 0 1 225 49 )" />
  </g>
</svg>