<?xml version="1.0" encoding="utf-8"?>
<svg version="1.1" xmlns:xlink="http://www.w3.org/1999/xlink" width="12px" height="12px" viewBox="96 732  12 12" xmlns="http://www.w3.org/2000/svg">
  <path d="M 102 732  C 105.36 732  108 734.64  108 738  C 108 741.36  105.36 744  102 744  C 98.64 744  96 741.36  96 738  C 96 734.64  98.64 732  102 732  Z " fill-rule="nonzero" fill="#f0f0f0" stroke="none" />
  <path d="M 102 732.5  C 105.08 732.5  107.5 734.92  107.5 738  C 107.5 741.08  105.08 743.5  102 743.5  C 98.92 743.5  96.5 741.08  96.5 738  C 96.5 734.92  98.92 732.5  102 732.5  Z " stroke-width="1" stroke="#797979" fill="none" />
  <path d="M 102 741  C 100.32 741  99 739.68  99 738  C 99 736.32  100.32 735  102 735  C 103.68 735  105 736.32  105 738  C 105 739.68  103.68 741  102 741  " fill-rule="nonzero" fill="#797979" stroke="none" />
</svg>