<?xml version="1.0" encoding="utf-8"?>
<svg version="1.1" xmlns:xlink="http://www.w3.org/1999/xlink" width="12px" height="12px" viewBox="96 800  12 12" xmlns="http://www.w3.org/2000/svg">
  <path d="M 102 800  C 105.36 800  108 802.64  108 806  C 108 809.36  105.36 812  102 812  C 98.64 812  96 809.36  96 806  C 96 802.64  98.64 800  102 800  Z " fill-rule="nonzero" fill="#ffffff" stroke="none" />
  <path d="M 102 800.5  C 105.08 800.5  107.5 802.92  107.5 806  C 107.5 809.08  105.08 811.5  102 811.5  C 98.92 811.5  96.5 809.08  96.5 806  C 96.5 802.92  98.92 800.5  102 800.5  Z " stroke-width="1" stroke="#797979" fill="none" />
  <path d="M 102 809  C 100.32 809  99 807.68  99 806  C 99 804.32  100.32 803  102 803  C 103.68 803  105 804.32  105 806  C 105 807.68  103.68 809  102 809  " fill-rule="nonzero" fill="#797979" stroke="none" />
</svg>