<?xml version="1.0" encoding="utf-8"?>
<svg version="1.1" xmlns:xlink="http://www.w3.org/1999/xlink" width="12px" height="12px" viewBox="16 111  12 12" xmlns="http://www.w3.org/2000/svg">
  <path d="M 22 111  C 25.36 111  28 113.64  28 117  C 28 120.36  25.36 123  22 123  C 18.64 123  16 120.36  16 117  C 16 113.64  18.64 111  22 111  Z " fill-rule="nonzero" fill="#ffffff" stroke="none" />
  <path d="M 22 111.5  C 25.08 111.5  27.5 113.92  27.5 117  C 27.5 120.08  25.08 122.5  22 122.5  C 18.92 122.5  16.5 120.08  16.5 117  C 16.5 113.92  18.92 111.5  22 111.5  Z " stroke-width="1" stroke="#797979" fill="none" />
  <path d="M 22 120  C 20.32 120  19 118.68  19 117  C 19 115.32  20.32 114  22 114  C 23.68 114  25 115.32  25 117  C 25 118.68  23.68 120  22 120  " fill-rule="nonzero" fill="#797979" stroke="none" />
</svg>