<?xml version="1.0" encoding="utf-8"?>
<svg version="1.1" xmlns:xlink="http://www.w3.org/1999/xlink" width="12px" height="12px" viewBox="246 152  12 12" xmlns="http://www.w3.org/2000/svg">
  <path d="M 252 152  C 255.36 152  258 154.64  258 158  C 258 161.36  255.36 164  252 164  C 248.64 164  246 161.36  246 158  C 246 154.64  248.64 152  252 152  Z " fill-rule="nonzero" fill="#f0f0f0" stroke="none" />
  <path d="M 252 152.5  C 255.08 152.5  257.5 154.92  257.5 158  C 257.5 161.08  255.08 163.5  252 163.5  C 248.92 163.5  246.5 161.08  246.5 158  C 246.5 154.92  248.92 152.5  252 152.5  Z " stroke-width="1" stroke="#797979" fill="none" />
  <path d="M 252 161  C 250.32 161  249 159.68  249 158  C 249 156.32  250.32 155  252 155  C 253.68 155  255 156.32  255 158  C 255 159.68  253.68 161  252 161  " fill-rule="nonzero" fill="#797979" stroke="none" />
</svg>