<?xml version="1.0" encoding="utf-8"?>
<svg version="1.1" xmlns:xlink="http://www.w3.org/1999/xlink" width="12px" height="12px" viewBox="117 152  12 12" xmlns="http://www.w3.org/2000/svg">
  <path d="M 123 152  C 126.36 152  129 154.64  129 158  C 129 161.36  126.36 164  123 164  C 119.64 164  117 161.36  117 158  C 117 154.64  119.64 152  123 152  Z " fill-rule="nonzero" fill="#f0f0f0" stroke="none" />
  <path d="M 123 152.5  C 126.08 152.5  128.5 154.92  128.5 158  C 128.5 161.08  126.08 163.5  123 163.5  C 119.92 163.5  117.5 161.08  117.5 158  C 117.5 154.92  119.92 152.5  123 152.5  Z " stroke-width="1" stroke="#797979" fill="none" />
  <path d="M 123 161  C 121.32 161  120 159.68  120 158  C 120 156.32  121.32 155  123 155  C 124.68 155  126 156.32  126 158  C 126 159.68  124.68 161  123 161  " fill-rule="nonzero" fill="#797979" stroke="none" />
</svg>