<?xml version="1.0" encoding="utf-8"?>
<svg version="1.1" xmlns:xlink="http://www.w3.org/1999/xlink" width="12px" height="12px" viewBox="242 346  12 12" xmlns="http://www.w3.org/2000/svg">
  <path d="M 248 346  C 251.36 346  254 348.64  254 352  C 254 355.36  251.36 358  248 358  C 244.64 358  242 355.36  242 352  C 242 348.64  244.64 346  248 346  Z " fill-rule="nonzero" fill="#ffffff" stroke="none" />
  <path d="M 248 346.5  C 251.08 346.5  253.5 348.92  253.5 352  C 253.5 355.08  251.08 357.5  248 357.5  C 244.92 357.5  242.5 355.08  242.5 352  C 242.5 348.92  244.92 346.5  248 346.5  Z " stroke-width="1" stroke="#797979" fill="none" />
  <path d="M 248 355  C 246.32 355  245 353.68  245 352  C 245 350.32  246.32 349  248 349  C 249.68 349  251 350.32  251 352  C 251 353.68  249.68 355  248 355  " fill-rule="nonzero" fill="#797979" stroke="none" />
</svg>