<?xml version="1.0" encoding="utf-8"?>
<svg version="1.1" xmlns:xlink="http://www.w3.org/1999/xlink" width="12px" height="12px" viewBox="96 790  12 12" xmlns="http://www.w3.org/2000/svg">
  <path d="M 102 790  C 105.36 790  108 792.64  108 796  C 108 799.36  105.36 802  102 802  C 98.64 802  96 799.36  96 796  C 96 792.64  98.64 790  102 790  Z " fill-rule="nonzero" fill="#f0f0f0" stroke="none" />
  <path d="M 102 790.5  C 105.08 790.5  107.5 792.92  107.5 796  C 107.5 799.08  105.08 801.5  102 801.5  C 98.92 801.5  96.5 799.08  96.5 796  C 96.5 792.92  98.92 790.5  102 790.5  Z " stroke-width="1" stroke="#797979" fill="none" />
  <path d="M 102 799  C 100.32 799  99 797.68  99 796  C 99 794.32  100.32 793  102 793  C 103.68 793  105 794.32  105 796  C 105 797.68  103.68 799  102 799  " fill-rule="nonzero" fill="#797979" stroke="none" />
</svg>