<?xml version="1.0" encoding="utf-8"?>
<svg version="1.1" xmlns:xlink="http://www.w3.org/1999/xlink" width="12px" height="12px" viewBox="18 722  12 12" xmlns="http://www.w3.org/2000/svg">
  <path d="M 24 722  C 27.36 722  30 724.64  30 728  C 30 731.36  27.36 734  24 734  C 20.64 734  18 731.36  18 728  C 18 724.64  20.64 722  24 722  Z " fill-rule="nonzero" fill="#f0f0f0" stroke="none" />
  <path d="M 24 722.5  C 27.08 722.5  29.5 724.92  29.5 728  C 29.5 731.08  27.08 733.5  24 733.5  C 20.92 733.5  18.5 731.08  18.5 728  C 18.5 724.92  20.92 722.5  24 722.5  Z " stroke-width="1" stroke="#797979" fill="none" />
  <path d="M 24 731  C 22.32 731  21 729.68  21 728  C 21 726.32  22.32 725  24 725  C 25.68 725  27 726.32  27 728  C 27 729.68  25.68 731  24 731  " fill-rule="nonzero" fill="#797979" stroke="none" />
</svg>