<?xml version="1.0" encoding="utf-8"?>
<svg version="1.1" xmlns:xlink="http://www.w3.org/1999/xlink" width="12px" height="12px" viewBox="18 790  12 12" xmlns="http://www.w3.org/2000/svg">
  <path d="M 24 790  C 27.36 790  30 792.64  30 796  C 30 799.36  27.36 802  24 802  C 20.64 802  18 799.36  18 796  C 18 792.64  20.64 790  24 790  Z " fill-rule="nonzero" fill="#f0f0f0" stroke="none" />
  <path d="M 24 790.5  C 27.08 790.5  29.5 792.92  29.5 796  C 29.5 799.08  27.08 801.5  24 801.5  C 20.92 801.5  18.5 799.08  18.5 796  C 18.5 792.92  20.92 790.5  24 790.5  Z " stroke-width="1" stroke="#797979" fill="none" />
  <path d="M 24 799  C 22.32 799  21 797.68  21 796  C 21 794.32  22.32 793  24 793  C 25.68 793  27 794.32  27 796  C 27 797.68  25.68 799  24 799  " fill-rule="nonzero" fill="#797979" stroke="none" />
</svg>