<?xml version="1.0" encoding="utf-8"?>
<svg version="1.1" xmlns:xlink="http://www.w3.org/1999/xlink" width="12px" height="12px" viewBox="147 152  12 12" xmlns="http://www.w3.org/2000/svg">
  <path d="M 153 152  C 156.36 152  159 154.64  159 158  C 159 161.36  156.36 164  153 164  C 149.64 164  147 161.36  147 158  C 147 154.64  149.64 152  153 152  Z " fill-rule="nonzero" fill="#f0f0f0" stroke="none" />
  <path d="M 153 152.5  C 156.08 152.5  158.5 154.92  158.5 158  C 158.5 161.08  156.08 163.5  153 163.5  C 149.92 163.5  147.5 161.08  147.5 158  C 147.5 154.92  149.92 152.5  153 152.5  Z " stroke-width="1" stroke="#797979" fill="none" />
  <path d="M 153 161  C 151.32 161  150 159.68  150 158  C 150 156.32  151.32 155  153 155  C 154.68 155  156 156.32  156 158  C 156 159.68  154.68 161  153 161  " fill-rule="nonzero" fill="#797979" stroke="none" />
</svg>