<?xml version="1.0" encoding="utf-8"?>
<svg version="1.1" xmlns:xlink="http://www.w3.org/1999/xlink" width="12px" height="12px" viewBox="17 152  12 12" xmlns="http://www.w3.org/2000/svg">
  <path d="M 23 152  C 26.36 152  29 154.64  29 158  C 29 161.36  26.36 164  23 164  C 19.64 164  17 161.36  17 158  C 17 154.64  19.64 152  23 152  Z " fill-rule="nonzero" fill="#ffffff" stroke="none" />
  <path d="M 23 152.5  C 26.08 152.5  28.5 154.92  28.5 158  C 28.5 161.08  26.08 163.5  23 163.5  C 19.92 163.5  17.5 161.08  17.5 158  C 17.5 154.92  19.92 152.5  23 152.5  Z " stroke-width="1" stroke="#797979" fill="none" />
  <path d="M 23 161  C 21.32 161  20 159.68  20 158  C 20 156.32  21.32 155  23 155  C 24.68 155  26 156.32  26 158  C 26 159.68  24.68 161  23 161  " fill-rule="nonzero" fill="#797979" stroke="none" />
</svg>