<?xml version="1.0" encoding="utf-8"?>
<svg version="1.1" xmlns:xlink="http://www.w3.org/1999/xlink" width="12px" height="12px" viewBox="147 102  12 12" xmlns="http://www.w3.org/2000/svg">
  <path d="M 153 102  C 156.36 102  159 104.64  159 108  C 159 111.36  156.36 114  153 114  C 149.64 114  147 111.36  147 108  C 147 104.64  149.64 102  153 102  Z " fill-rule="nonzero" fill="#ffffff" stroke="none" />
  <path d="M 153 102.5  C 156.08 102.5  158.5 104.92  158.5 108  C 158.5 111.08  156.08 113.5  153 113.5  C 149.92 113.5  147.5 111.08  147.5 108  C 147.5 104.92  149.92 102.5  153 102.5  Z " stroke-width="1" stroke="#797979" fill="none" />
  <path d="M 153 111  C 151.32 111  150 109.68  150 108  C 150 106.32  151.32 105  153 105  C 154.68 105  156 106.32  156 108  C 156 109.68  154.68 111  153 111  " fill-rule="nonzero" fill="#797979" stroke="none" />
</svg>