<?xml version="1.0" encoding="utf-8"?>
<svg version="1.1" xmlns:xlink="http://www.w3.org/1999/xlink" width="12px" height="12px" viewBox="147 82  12 12" xmlns="http://www.w3.org/2000/svg">
  <path d="M 153 82  C 156.36 82  159 84.64  159 88  C 159 91.36  156.36 94  153 94  C 149.64 94  147 91.36  147 88  C 147 84.64  149.64 82  153 82  Z " fill-rule="nonzero" fill="#f0f0f0" stroke="none" />
  <path d="M 153 82.5  C 156.08 82.5  158.5 84.92  158.5 88  C 158.5 91.08  156.08 93.5  153 93.5  C 149.92 93.5  147.5 91.08  147.5 88  C 147.5 84.92  149.92 82.5  153 82.5  Z " stroke-width="1" stroke="#797979" fill="none" />
  <path d="M 153 91  C 151.32 91  150 89.68  150 88  C 150 86.32  151.32 85  153 85  C 154.68 85  156 86.32  156 88  C 156 89.68  154.68 91  153 91  " fill-rule="nonzero" fill="#797979" stroke="none" />
</svg>