<?xml version="1.0" encoding="utf-8"?>
<svg version="1.1" xmlns:xlink="http://www.w3.org/1999/xlink" width="12px" height="12px" viewBox="61 488  12 12" xmlns="http://www.w3.org/2000/svg">
  <path d="M 67 488  C 70.36 488  73 490.64  73 494  C 73 497.36  70.36 500  67 500  C 63.64 500  61 497.36  61 494  C 61 490.64  63.64 488  67 488  Z " fill-rule="nonzero" fill="#ffffff" stroke="none" />
  <path d="M 67 488.5  C 70.08 488.5  72.5 490.92  72.5 494  C 72.5 497.08  70.08 499.5  67 499.5  C 63.92 499.5  61.5 497.08  61.5 494  C 61.5 490.92  63.92 488.5  67 488.5  Z " stroke-width="1" stroke="#aaaaaa" fill="none" />
  <path d="M 67 497  C 65.32 497  64 495.68  64 494  C 64 492.32  65.32 491  67 491  C 68.68 491  70 492.32  70 494  C 70 495.68  68.68 497  67 497  " fill-rule="nonzero" fill="#aaaaaa" stroke="none" />
</svg>