<?xml version="1.0" encoding="utf-8"?>
<svg version="1.1" xmlns:xlink="http://www.w3.org/1999/xlink" width="12px" height="12px" viewBox="61 530  12 12" xmlns="http://www.w3.org/2000/svg">
  <path d="M 67 530  C 70.36 530  73 532.64  73 536  C 73 539.36  70.36 542  67 542  C 63.64 542  61 539.36  61 536  C 61 532.64  63.64 530  67 530  Z " fill-rule="nonzero" fill="#f0f0f0" stroke="none" />
  <path d="M 67 530.5  C 70.08 530.5  72.5 532.92  72.5 536  C 72.5 539.08  70.08 541.5  67 541.5  C 63.92 541.5  61.5 539.08  61.5 536  C 61.5 532.92  63.92 530.5  67 530.5  Z " stroke-width="1" stroke="#aaaaaa" fill="none" />
  <path d="M 67 539  C 65.32 539  64 537.68  64 536  C 64 534.32  65.32 533  67 533  C 68.68 533  70 534.32  70 536  C 70 537.68  68.68 539  67 539  " fill-rule="nonzero" fill="#aaaaaa" stroke="none" />
</svg>