<?xml version="1.0" encoding="utf-8"?>
<svg version="1.1" xmlns:xlink="http://www.w3.org/1999/xlink" width="12px" height="12px" viewBox="61 403  12 12" xmlns="http://www.w3.org/2000/svg">
  <path d="M 67 403  C 70.36 403  73 405.64  73 409  C 73 412.36  70.36 415  67 415  C 63.64 415  61 412.36  61 409  C 61 405.64  63.64 403  67 403  Z " fill-rule="nonzero" fill="#f0f0f0" stroke="none" />
  <path d="M 67 403.5  C 70.08 403.5  72.5 405.92  72.5 409  C 72.5 412.08  70.08 414.5  67 414.5  C 63.92 414.5  61.5 412.08  61.5 409  C 61.5 405.92  63.92 403.5  67 403.5  Z " stroke-width="1" stroke="#aaaaaa" fill="none" />
  <path d="M 67 412  C 65.32 412  64 410.68  64 409  C 64 407.32  65.32 406  67 406  C 68.68 406  70 407.32  70 409  C 70 410.68  68.68 412  67 412  " fill-rule="nonzero" fill="#aaaaaa" stroke="none" />
</svg>