<?xml version="1.0" encoding="utf-8"?>
<svg version="1.1" xmlns:xlink="http://www.w3.org/1999/xlink" width="12px" height="12px" viewBox="61 572  12 12" xmlns="http://www.w3.org/2000/svg">
  <path d="M 67 572  C 70.36 572  73 574.64  73 578  C 73 581.36  70.36 584  67 584  C 63.64 584  61 581.36  61 578  C 61 574.64  63.64 572  67 572  Z " fill-rule="nonzero" fill="#ffffff" stroke="none" />
  <path d="M 67 572.5  C 70.08 572.5  72.5 574.92  72.5 578  C 72.5 581.08  70.08 583.5  67 583.5  C 63.92 583.5  61.5 581.08  61.5 578  C 61.5 574.92  63.92 572.5  67 572.5  Z " stroke-width="1" stroke="#aaaaaa" fill="none" />
  <path d="M 67 581  C 65.32 581  64 579.68  64 578  C 64 576.32  65.32 575  67 575  C 68.68 575  70 576.32  70 578  C 70 579.68  68.68 581  67 581  " fill-rule="nonzero" fill="#aaaaaa" stroke="none" />
</svg>