<?xml version="1.0" encoding="utf-8"?>
<svg version="1.1" xmlns:xlink="http://www.w3.org/1999/xlink" width="12px" height="12px" viewBox="61 654  12 12" xmlns="http://www.w3.org/2000/svg">
  <path d="M 67 654  C 70.36 654  73 656.64  73 660  C 73 663.36  70.36 666  67 666  C 63.64 666  61 663.36  61 660  C 61 656.64  63.64 654  67 654  Z " fill-rule="nonzero" fill="#ffffff" stroke="none" />
  <path d="M 67 654.5  C 70.08 654.5  72.5 656.92  72.5 660  C 72.5 663.08  70.08 665.5  67 665.5  C 63.92 665.5  61.5 663.08  61.5 660  C 61.5 656.92  63.92 654.5  67 654.5  Z " stroke-width="1" stroke="#aaaaaa" fill="none" />
  <path d="M 67 663  C 65.32 663  64 661.68  64 660  C 64 658.32  65.32 657  67 657  C 68.68 657  70 658.32  70 660  C 70 661.68  68.68 663  67 663  " fill-rule="nonzero" fill="#aaaaaa" stroke="none" />
</svg>