<?xml version="1.0" encoding="utf-8"?>
<svg version="1.1" xmlns:xlink="http://www.w3.org/1999/xlink" width="40px" height="40px" xmlns="http://www.w3.org/2000/svg">
  <defs>
    <filter x="562px" y="342px" width="40px" height="40px" filterUnits="userSpaceOnUse" id="filter856">
      <feOffset dx="1" dy="1" in="SourceAlpha" result="shadowOffsetInner" />
      <feGaussianBlur stdDeviation="2.5" in="shadowOffsetInner" result="shadowGaussian" />
      <feComposite in2="shadowGaussian" operator="atop" in="SourceAlpha" result="shadowComposite" />
      <feColorMatrix type="matrix" values="0 0 0 0 0  0 0 0 0 0  0 0 0 0 0  0 0 0 0.698039215686274 0  " in="shadowComposite" />
    </filter>
    <g id="widget857">
      <path d="M 581 346  C 589.4 346  596 352.6  596 361  C 596 369.4  589.4 376  581 376  C 572.6 376  566 369.4  566 361  C 566 352.6  572.6 346  581 346  Z " fill-rule="nonzero" fill="#009dd9" stroke="none" />
      <path d="M 581 346.5  C 589.12 346.5  595.5 352.88  595.5 361  C 595.5 369.12  589.12 375.5  581 375.5  C 572.88 375.5  566.5 369.12  566.5 361  C 566.5 352.88  572.88 346.5  581 346.5  Z " stroke-width="1" stroke="#ffffff" fill="none" />
    </g>
  </defs>
  <g transform="matrix(1 0 0 1 -562 -342 )">
    <use xlink:href="#widget857" filter="url(#filter856)" />
    <use xlink:href="#widget857" />
  </g>
</svg>