<?xml version="1.0" encoding="utf-8"?>
<svg version="1.1" xmlns:xlink="http://www.w3.org/1999/xlink" width="12px" height="12px" viewBox="175 120  12 12" xmlns="http://www.w3.org/2000/svg">
  <path d="M 181 120  C 184.36 120  187 122.64  187 126  C 187 129.36  184.36 132  181 132  C 177.64 132  175 129.36  175 126  C 175 122.64  177.64 120  181 120  Z " fill-rule="nonzero" fill="#ffffff" stroke="none" />
  <path d="M 181 120.5  C 184.08 120.5  186.5 122.92  186.5 126  C 186.5 129.08  184.08 131.5  181 131.5  C 177.92 131.5  175.5 129.08  175.5 126  C 175.5 122.92  177.92 120.5  181 120.5  Z " stroke-width="1" stroke="#797979" fill="none" />
  <path d="M 181 129  C 179.32 129  178 127.68  178 126  C 178 124.32  179.32 123  181 123  C 182.68 123  184 124.32  184 126  C 184 127.68  182.68 129  181 129  " fill-rule="nonzero" fill="#797979" stroke="none" />
</svg>