<?xml version="1.0" encoding="utf-8"?>
<svg version="1.1" xmlns:xlink="http://www.w3.org/1999/xlink" width="12px" height="12px" viewBox="246 157  12 12" xmlns="http://www.w3.org/2000/svg">
  <path d="M 252 157  C 255.36 157  258 159.64  258 163  C 258 166.36  255.36 169  252 169  C 248.64 169  246 166.36  246 163  C 246 159.64  248.64 157  252 157  Z " fill-rule="nonzero" fill="#ffffff" stroke="none" />
  <path d="M 252 157.5  C 255.08 157.5  257.5 159.92  257.5 163  C 257.5 166.08  255.08 168.5  252 168.5  C 248.92 168.5  246.5 166.08  246.5 163  C 246.5 159.92  248.92 157.5  252 157.5  Z " stroke-width="1" stroke="#797979" fill="none" />
  <path d="M 252 166  C 250.32 166  249 164.68  249 163  C 249 161.32  250.32 160  252 160  C 253.68 160  255 161.32  255 163  C 255 164.68  253.68 166  252 166  " fill-rule="nonzero" fill="#797979" stroke="none" />
</svg>