<?xml version="1.0" encoding="utf-8"?>
<svg version="1.1" xmlns:xlink="http://www.w3.org/1999/xlink" width="12px" height="12px" viewBox="61 319  12 12" xmlns="http://www.w3.org/2000/svg">
  <path d="M 67 319  C 70.36 319  73 321.64  73 325  C 73 328.36  70.36 331  67 331  C 63.64 331  61 328.36  61 325  C 61 321.64  63.64 319  67 319  Z " fill-rule="nonzero" fill="#ffffff" stroke="none" />
  <path d="M 67 319.5  C 70.08 319.5  72.5 321.92  72.5 325  C 72.5 328.08  70.08 330.5  67 330.5  C 63.92 330.5  61.5 328.08  61.5 325  C 61.5 321.92  63.92 319.5  67 319.5  Z " stroke-width="1" stroke="#aaaaaa" fill="none" />
  <path d="M 67 328  C 65.32 328  64 326.68  64 325  C 64 323.32  65.32 322  67 322  C 68.68 322  70 323.32  70 325  C 70 326.68  68.68 328  67 328  " fill-rule="nonzero" fill="#aaaaaa" stroke="none" />
</svg>