<?xml version="1.0" encoding="utf-8"?>
<svg version="1.1" xmlns:xlink="http://www.w3.org/1999/xlink" width="12px" height="12px" viewBox="293 120  12 12" xmlns="http://www.w3.org/2000/svg">
  <path d="M 299 120  C 302.36 120  305 122.64  305 126  C 305 129.36  302.36 132  299 132  C 295.64 132  293 129.36  293 126  C 293 122.64  295.64 120  299 120  Z " fill-rule="nonzero" fill="#f0f0f0" stroke="none" />
  <path d="M 299 120.5  C 302.08 120.5  304.5 122.92  304.5 126  C 304.5 129.08  302.08 131.5  299 131.5  C 295.92 131.5  293.5 129.08  293.5 126  C 293.5 122.92  295.92 120.5  299 120.5  Z " stroke-width="1" stroke="#797979" fill="none" />
  <path d="M 299 129  C 297.32 129  296 127.68  296 126  C 296 124.32  297.32 123  299 123  C 300.68 123  302 124.32  302 126  C 302 127.68  300.68 129  299 129  " fill-rule="nonzero" fill="#797979" stroke="none" />
</svg>