<?xml version="1.0" encoding="utf-8"?>
<svg version="1.1" xmlns:xlink="http://www.w3.org/1999/xlink" width="12px" height="12px" viewBox="317 113  12 12" xmlns="http://www.w3.org/2000/svg">
  <path d="M 323 113  C 326.36 113  329 115.64  329 119  C 329 122.36  326.36 125  323 125  C 319.64 125  317 122.36  317 119  C 317 115.64  319.64 113  323 113  Z " fill-rule="nonzero" fill="#f0f0f0" stroke="none" />
  <path d="M 323 113.5  C 326.08 113.5  328.5 115.92  328.5 119  C 328.5 122.08  326.08 124.5  323 124.5  C 319.92 124.5  317.5 122.08  317.5 119  C 317.5 115.92  319.92 113.5  323 113.5  Z " stroke-width="1" stroke="#797979" fill="none" />
  <path d="M 323 122  C 321.32 122  320 120.68  320 119  C 320 117.32  321.32 116  323 116  C 324.68 116  326 117.32  326 119  C 326 120.68  324.68 122  323 122  " fill-rule="nonzero" fill="#797979" stroke="none" />
</svg>