<?xml version="1.0" encoding="utf-8"?>
<svg version="1.1" xmlns:xlink="http://www.w3.org/1999/xlink" width="12px" height="12px" viewBox="245 113  12 12" xmlns="http://www.w3.org/2000/svg">
  <path d="M 251 113  C 254.36 113  257 115.64  257 119  C 257 122.36  254.36 125  251 125  C 247.64 125  245 122.36  245 119  C 245 115.64  247.64 113  251 113  Z " fill-rule="nonzero" fill="#ffffff" stroke="none" />
  <path d="M 251 113.5  C 254.08 113.5  256.5 115.92  256.5 119  C 256.5 122.08  254.08 124.5  251 124.5  C 247.92 124.5  245.5 122.08  245.5 119  C 245.5 115.92  247.92 113.5  251 113.5  Z " stroke-width="1" stroke="#797979" fill="none" />
  <path d="M 251 122  C 249.32 122  248 120.68  248 119  C 248 117.32  249.32 116  251 116  C 252.68 116  254 117.32  254 119  C 254 120.68  252.68 122  251 122  " fill-rule="nonzero" fill="#797979" stroke="none" />
</svg>