<?xml version="1.0" encoding="utf-8"?>
<svg version="1.1" xmlns:xlink="http://www.w3.org/1999/xlink" width="16px" height="16px" viewBox="461 163.5  16 16" xmlns="http://www.w3.org/2000/svg">
  <path d="M 469 163.5  C 473.48 163.5  477 167.02  477 171.5  C 477 175.98  473.48 179.5  469 179.5  C 464.52 179.5  461 175.98  461 171.5  C 461 167.02  464.52 163.5  469 163.5  Z " fill-rule="nonzero" fill="#f0f0f0" stroke="none" />
  <path d="M 469 164  C 473.2 164  476.5 167.3  476.5 171.5  C 476.5 175.7  473.2 179  469 179  C 464.8 179  461.5 175.7  461.5 171.5  C 461.5 167.3  464.8 164  469 164  Z " stroke-width="1" stroke="#8c8c8c" fill="none" />
  <path d="M 469 175.5  C 466.76 175.5  465 173.74  465 171.5  C 465 169.26  466.76 167.5  469 167.5  C 471.24 167.5  473 169.26  473 171.5  C 473 173.74  471.24 175.5  469 175.5  " fill-rule="nonzero" fill="#8c8c8c" stroke="none" />
</svg>