<?xml version="1.0" encoding="utf-8"?>
<svg version="1.1" xmlns:xlink="http://www.w3.org/1999/xlink" width="16px" height="16px" viewBox="574 163.5  16 16" xmlns="http://www.w3.org/2000/svg">
  <path d="M 582 163.5  C 586.48 163.5  590 167.02  590 171.5  C 590 175.98  586.48 179.5  582 179.5  C 577.52 179.5  574 175.98  574 171.5  C 574 167.02  577.52 163.5  582 163.5  Z " fill-rule="nonzero" fill="#f0f0f0" stroke="none" />
  <path d="M 582 164  C 586.2 164  589.5 167.3  589.5 171.5  C 589.5 175.7  586.2 179  582 179  C 577.8 179  574.5 175.7  574.5 171.5  C 574.5 167.3  577.8 164  582 164  Z " stroke-width="1" stroke="#8c8c8c" fill="none" />
  <path d="M 582 175.5  C 579.76 175.5  578 173.74  578 171.5  C 578 169.26  579.76 167.5  582 167.5  C 584.24 167.5  586 169.26  586 171.5  C 586 173.74  584.24 175.5  582 175.5  " fill-rule="nonzero" fill="#8c8c8c" stroke="none" />
</svg>