<?xml version="1.0" encoding="utf-8"?>
<svg version="1.1" xmlns:xlink="http://www.w3.org/1999/xlink" width="12px" height="12px" viewBox="612 260  12 12" xmlns="http://www.w3.org/2000/svg">
  <path d="M 618 260  C 621.36 260  624 262.64  624 266  C 624 269.36  621.36 272  618 272  C 614.64 272  612 269.36  612 266  C 612 262.64  614.64 260  618 260  Z " fill-rule="nonzero" fill="#ffffff" stroke="none" />
  <path d="M 618 260.5  C 621.08 260.5  623.5 262.92  623.5 266  C 623.5 269.08  621.08 271.5  618 271.5  C 614.92 271.5  612.5 269.08  612.5 266  C 612.5 262.92  614.92 260.5  618 260.5  Z " stroke-width="1" stroke="#797979" fill="none" />
  <path d="M 618 269  C 616.32 269  615 267.68  615 266  C 615 264.32  616.32 263  618 263  C 619.68 263  621 264.32  621 266  C 621 267.68  619.68 269  618 269  " fill-rule="nonzero" fill="#797979" stroke="none" />
</svg>