<?xml version="1.0" encoding="utf-8"?>
<svg version="1.1" xmlns:xlink="http://www.w3.org/1999/xlink" width="12px" height="12px" viewBox="612 207  12 12" xmlns="http://www.w3.org/2000/svg">
  <path d="M 618 207  C 621.36 207  624 209.64  624 213  C 624 216.36  621.36 219  618 219  C 614.64 219  612 216.36  612 213  C 612 209.64  614.64 207  618 207  Z " fill-rule="nonzero" fill="#ffffff" stroke="none" />
  <path d="M 618 207.5  C 621.08 207.5  623.5 209.92  623.5 213  C 623.5 216.08  621.08 218.5  618 218.5  C 614.92 218.5  612.5 216.08  612.5 213  C 612.5 209.92  614.92 207.5  618 207.5  Z " stroke-width="1" stroke="#797979" fill="none" />
  <path d="M 618 216  C 616.32 216  615 214.68  615 213  C 615 211.32  616.32 210  618 210  C 619.68 210  621 211.32  621 213  C 621 214.68  619.68 216  618 216  " fill-rule="nonzero" fill="#797979" stroke="none" />
</svg>