<?xml version="1.0" encoding="utf-8"?>
<svg version="1.1" xmlns:xlink="http://www.w3.org/1999/xlink" width="12px" height="12px" viewBox="182 653  12 12" xmlns="http://www.w3.org/2000/svg">
  <path d="M 188 653  C 191.36 653  194 655.64  194 659  C 194 662.36  191.36 665  188 665  C 184.64 665  182 662.36  182 659  C 182 655.64  184.64 653  188 653  Z " fill-rule="nonzero" fill="#f0f0f0" stroke="none" />
  <path d="M 188 653.5  C 191.08 653.5  193.5 655.92  193.5 659  C 193.5 662.08  191.08 664.5  188 664.5  C 184.92 664.5  182.5 662.08  182.5 659  C 182.5 655.92  184.92 653.5  188 653.5  Z " stroke-width="1" stroke="#797979" fill="none" />
  <path d="M 188 662  C 186.32 662  185 660.68  185 659  C 185 657.32  186.32 656  188 656  C 189.68 656  191 657.32  191 659  C 191 660.68  189.68 662  188 662  " fill-rule="nonzero" fill="#797979" stroke="none" />
</svg>