<?xml version="1.0" encoding="utf-8"?>
<svg version="1.1" xmlns:xlink="http://www.w3.org/1999/xlink" width="12px" height="12px" viewBox="100 653  12 12" xmlns="http://www.w3.org/2000/svg">
  <path d="M 106 653  C 109.36 653  112 655.64  112 659  C 112 662.36  109.36 665  106 665  C 102.64 665  100 662.36  100 659  C 100 655.64  102.64 653  106 653  Z " fill-rule="nonzero" fill="#f0f0f0" stroke="none" />
  <path d="M 106 653.5  C 109.08 653.5  111.5 655.92  111.5 659  C 111.5 662.08  109.08 664.5  106 664.5  C 102.92 664.5  100.5 662.08  100.5 659  C 100.5 655.92  102.92 653.5  106 653.5  Z " stroke-width="1" stroke="#797979" fill="none" />
  <path d="M 106 662  C 104.32 662  103 660.68  103 659  C 103 657.32  104.32 656  106 656  C 107.68 656  109 657.32  109 659  C 109 660.68  107.68 662  106 662  " fill-rule="nonzero" fill="#797979" stroke="none" />
</svg>