<?xml version="1.0" encoding="utf-8"?>
<svg version="1.1" xmlns:xlink="http://www.w3.org/1999/xlink" width="12px" height="12px" viewBox="94 725  12 12" xmlns="http://www.w3.org/2000/svg">
  <path d="M 100 725  C 103.36 725  106 727.64  106 731  C 106 734.36  103.36 737  100 737  C 96.64 737  94 734.36  94 731  C 94 727.64  96.64 725  100 725  Z " fill-rule="nonzero" fill="#f0f0f0" stroke="none" />
  <path d="M 100 725.5  C 103.08 725.5  105.5 727.92  105.5 731  C 105.5 734.08  103.08 736.5  100 736.5  C 96.92 736.5  94.5 734.08  94.5 731  C 94.5 727.92  96.92 725.5  100 725.5  Z " stroke-width="1" stroke="#797979" fill="none" />
  <path d="M 100 734  C 98.32 734  97 732.68  97 731  C 97 729.32  98.32 728  100 728  C 101.68 728  103 729.32  103 731  C 103 732.68  101.68 734  100 734  " fill-rule="nonzero" fill="#797979" stroke="none" />
</svg>