<?xml version="1.0" encoding="utf-8"?>
<svg version="1.1" xmlns:xlink="http://www.w3.org/1999/xlink" width="12px" height="12px" viewBox="16 793  12 12" xmlns="http://www.w3.org/2000/svg">
  <path d="M 22 793  C 25.36 793  28 795.64  28 799  C 28 802.36  25.36 805  22 805  C 18.64 805  16 802.36  16 799  C 16 795.64  18.64 793  22 793  Z " fill-rule="nonzero" fill="#ffffff" stroke="none" />
  <path d="M 22 793.5  C 25.08 793.5  27.5 795.92  27.5 799  C 27.5 802.08  25.08 804.5  22 804.5  C 18.92 804.5  16.5 802.08  16.5 799  C 16.5 795.92  18.92 793.5  22 793.5  Z " stroke-width="1" stroke="#797979" fill="none" />
  <path d="M 22 802  C 20.32 802  19 800.68  19 799  C 19 797.32  20.32 796  22 796  C 23.68 796  25 797.32  25 799  C 25 800.68  23.68 802  22 802  " fill-rule="nonzero" fill="#797979" stroke="none" />
</svg>