<?xml version="1.0" encoding="utf-8"?>
<svg version="1.1" xmlns:xlink="http://www.w3.org/1999/xlink" width="12px" height="12px" viewBox="612 153  12 12" xmlns="http://www.w3.org/2000/svg">
  <path d="M 618 153  C 621.36 153  624 155.64  624 159  C 624 162.36  621.36 165  618 165  C 614.64 165  612 162.36  612 159  C 612 155.64  614.64 153  618 153  Z " fill-rule="nonzero" fill="#ffffff" stroke="none" />
  <path d="M 618 153.5  C 621.08 153.5  623.5 155.92  623.5 159  C 623.5 162.08  621.08 164.5  618 164.5  C 614.92 164.5  612.5 162.08  612.5 159  C 612.5 155.92  614.92 153.5  618 153.5  Z " stroke-width="1" stroke="#797979" fill="none" />
  <path d="M 618 162  C 616.32 162  615 160.68  615 159  C 615 157.32  616.32 156  618 156  C 619.68 156  621 157.32  621 159  C 621 160.68  619.68 162  618 162  " fill-rule="nonzero" fill="#797979" stroke="none" />
</svg>