<?xml version="1.0" encoding="utf-8"?>
<svg version="1.1" xmlns:xlink="http://www.w3.org/1999/xlink" width="7px" height="6px" xmlns="http://www.w3.org/2000/svg">
  <g transform="matrix(1 0 0 1 -815 -633 )">
    <path d="M 0.154854524765678 3.89081878998934  C 0.154854524765678 3.89081878998934  -0.233357165792725 2.24858693166002  0.219556473192079 1.92014054017604  C 0.672470112176881 1.59169424778265  0.931277905882481 1.65738348644321  1.06068180273528 1.32893709495922  C 1.19008569958808 1.0661800412264  1.12538375116168 0.737733649742415  1.64299933857289 0.540665834670143  C 2.22531687441049 0.277908780937315  2.41942271968969 0.277908780937315  2.80763441024809 0.40928725825843  C 3.26054804923289 0.540665834670143  3.32524999765929 0.6063550733307  3.64875973979129 0.40928725825843  C 3.97226948192329 0.21221944318616  4.5545870177609 0.0808409658650452  4.8780967598929 0.0151516281138899  C 5.2016065020249 -0.0505376105466674  5.5898181925833 0.0808409658650452  5.8486259862889 0.737733649742415  C 6.1074337799945 1.32893709495922  6.0427318315681 1.5260049100315  5.5898181925833 1.85445130151548  C 5.1369045535985 2.11720835524831  4.8133948114665 2.44565474673229  4.8133948114665 2.97116895328854  C 4.8133948114665 3.56237239850536  4.5545870177609 3.89081878998934  4.29577922405529 3.82512955132878  C 4.03697143034969 3.75944021357763  3.38995194608569 4.28495442013388  2.87233635867449 4.74477928893898  C 2.41942271968969 5.13891501817412  2.09591297755769 5.0075364417624  1.51359544172008 4.81046862669014  C 0.931277905882481 4.67909005027842  0.543066215324081 4.48202223520615  0.413662318471279 4.35064365879444  C 0.348960370044879 4.21926518147332  0.154854524765678 3.89081878998934  0.154854524765678 3.89081878998934  Z " fill-rule="nonzero" fill="#0079fe" stroke="none" transform="matrix(1 0 0 1 815 633 )" />
  </g>
</svg>