<?xml version="1.0" encoding="utf-8"?>
<svg version="1.1" xmlns:xlink="http://www.w3.org/1999/xlink" width="40px" height="70px" xmlns="http://www.w3.org/2000/svg">
  <g transform="matrix(1 0 0 1 -655 -481 )">
    <path d="M 14.9875930521092 16.7496542185339  L 13.3002481389578 15.9751037344398  L 12.7047146401985 15.8782849239281  L 11.712158808933 21.7842323651452  L 13.3995037220844 23.7206085753804  L 14.9875930521092 24.3983402489626  L 15.0868486352358 24.3983402489626  L 15.1861042183623 24.4951590594744  L 17.2704714640199 26.1410788381743  L 20.1488833746898 26.8188105117566  L 20.2481389578164 26.8188105117566  L 21.7369727047147 27.7869986168741  L 21.8362282878412 27.7869986168741  L 21.8362282878412 27.9806362378976  L 22.9280397022333 29.5297372060858  L 23.1265508684864 29.7233748271093  L 23.0272952853598 29.9170124481328  C 23.0272952853598 29.9170124481328  22.0347394540943 31.4661134163209  22.0347394540943 31.4661134163209  C 21.8362282878412 31.6597510373444  21.8362282878412 32.1438450899032  21.8362282878412 32.9183955739972  C 21.8362282878412 32.9183955739972  21.9354838709678 32.9183955739972  21.9354838709678 32.9183955739972  L 21.9354838709678 34.7579529737206  L 21.8362282878412 34.8547717842324  L 20.9429280397023 37.7593360995851  L 20.8436724565757 38.2434301521438  L 20.6451612903226 38.2434301521438  L 20.3473945409429 38.1466113416321  L 19.0570719602978 37.8561549100968  L 17.3697270471464 37.9529737206086  L 15.8808933002481 38.4370677731673  L 14.1935483870968 39.7925311203319  L 13.7965260545906 40.179806362379  L 15.9801488833747 41.2448132780083  C 15.9801488833747 41.2448132780083  15.7816377171216 41.6320885200553  15.7816377171216 41.6320885200553  C 15.6823821339951 42.1161825726141  15.1861042183623 42.6002766251729  14.3920595533499 42.8907330567082  C 14.3920595533499 42.8907330567082  13.0024813895782 42.9875518672199  13.0024813895782 42.9875518672199  L 10.7196029776675 42.1161825726141  L 8.63523573200994 40.954356846473  L 7.74193548387098 40.954356846473  L 5.26054590570721 44.4398340248963  L 4.76426799007446 45.6016597510373  L 4.76426799007446 47.6348547717842  L 5.75682382133996 49.2807745504841  L 5.75682382133996 49.3775933609958  L 6.35235732009926 50.9266943291839  L 6.35235732009926 51.1203319502075  L 6.45161290322581 53.3471645919779  L 6.45161290322581 53.6376210235131  L 6.55086848635238 53.8312586445366  L 4.96277915632754 54.1217150760719  L 1.98511166253102 54.1217150760719  L 0.595533498759328 54.9930843706777  L 0 55.9612724757953  L 0.0992555831265735 56.058091286307  L 0.694789081885873 58.9626556016597  L 0.794044665012419 58.9626556016597  L 0.794044665012419 60.1244813278008  L 1.48883374689826 61.4799446749654  L 3.57320099255586 62.83540802213  L 6.65012406947893 62.1576763485477  L 8.13895781637719 61.1894882434301  L 8.33746898263028 61.0926694329184  L 9.727047146402 61.0926694329184  C 9.727047146402 61.0926694329184  10.5210918114144 62.9322268326418  10.5210918114144 62.9322268326418  C 11.0173697270472 63.4163208852005  11.4143920595534 63.9004149377593  11.6129032258065 64.4813278008299  C 11.6129032258065 64.4813278008299  12.3076923076923 64.3845089903181  12.3076923076923 64.3845089903181  L 12.5062034739454 64.3845089903181  L 12.7047146401985 64.3845089903181  L 12.8039702233251 64.1908713692946  L 14.1935483870968 63.1258644536653  L 15.483870967742 65.3526970954357  L 16.8734491315137 66.2240663900415  L 18.8585607940447 66.2240663900415  L 20.3473945409429 66.030428769018  L 20.6451612903226 66.030428769018  L 24.2183622828784 66.5145228215767  L 24.317617866005 66.5145228215767  L 24.317617866005 66.6113416320885  L 25.8064516129032 67.4827109266943  L 25.8064516129032 67.5795297372061  L 27.0967741935484 68.5477178423236  L 27.0967741935484 68.6445366528354  L 27.9900744416874 69.612724757953  L 28.9826302729529 70  L 30.5707196029777 69.8063623789765  L 30.5707196029777 67.7731673582296  L 29.7766749379653 66.417704011065  L 29.6774193548387 66.417704011065  L 29.6774193548387 66.3208852005532  L 29.0818858560794 63.8035961272476  L 30.4714640198511 62.448132780083  L 30.5707196029777 62.3513139695712  L 30.6699751861042 62.3513139695712  L 31.8610421836228 62.1576763485477  L 33.151364764268 62.1576763485477  L 33.5483870967742 61.6735822959889  L 32.7543424317618 60.6085753803596  L 29.8759305210918 58.7690179806362  L 29.181141439206 57.7040110650069  L 29.0818858560794 57.6071922544951  L 28.9826302729529 57.5103734439834  L 29.0818858560794 57.3167358229599  L 29.8759305210918 55.8644536652835  L 30.0744416873449 56.058091286307  L 32.0595533498759 56.5421853388658  L 37.3200992555831 56.3485477178423  L 37.4193548387097 56.4453665283541  L 37.5186104218362 56.4453665283541  L 39.0074441687345 56.9294605809129  L 40 56.058091286307  L 39.5037220843672 53.0567081604426  C 39.5037220843672 53.0567081604426  37.6178660049628 51.8948824343015  37.6178660049628 51.8948824343015  C 36.029776674938 51.0235131396957  35.5334987593052 48.8934993084371  35.8312655086849 45.4080221300138  C 35.8312655086849 45.4080221300138  34.2431761786601 44.6334716459198  34.2431761786601 44.6334716459198  L 34.0446650124069 44.536652835408  L 33.8461538461539 44.536652835408  L 33.8461538461539 44.3430152143845  L 33.8461538461539 44.2461964038727  L 33.5483870967742 41.7289073305671  C 33.5483870967742 41.7289073305671  35.7320099255584 31.8533886583679  35.7320099255584 31.8533886583679  C 34.8387096774194 28.9488243430152  34.3424317617866 27.0124481327801  34.3424317617866 26.0442600276625  C 34.3424317617866 26.0442600276625  34.1439205955335 23.1396957123098  34.1439205955335 23.1396957123098  L 34.3424317617866 19.9446749654218  L 34.3424317617866 19.7510373443983  L 34.5409429280397 19.5573997233748  L 36.5260545905707 18.1051175656985  C 36.5260545905707 18.1051175656985  36.5260545905707 16.5560165975104  36.5260545905707 16.5560165975104  C 36.5260545905707 16.1687413554633  36.3275434243176 15.5878284923928  35.8312655086849 14.8132780082988  C 35.8312655086849 14.8132780082988  34.5409429280397 13.4578146611342  34.5409429280397 13.4578146611342  L 34.3424317617866 13.4578146611342  L 34.3424317617866 13.1673582295989  L 34.1439205955335 10.8437067773167  L 34.1439205955335 10.746887966805  L 34.0446650124069 10.6500691562932  L 34.2431761786601 10.5532503457815  L 34.2431761786601 10.4564315352697  L 36.8238213399504 7.26141078838174  L 36.8238213399504 5.90594744121714  L 36.029776674938 4.4536652835408  L 36.029776674938 4.35684647302904  L 35.9305210918114 4.16320885200554  L 37.2208436724566 2.61410788381742  L 37.2208436724566 2.51728907330566  L 37.3200992555831 2.51728907330566  L 38.7096774193549 1.45228215767635  L 38.5111662531017 0.193637621023502  L 37.8163771712159 0.193637621023502  L 36.7245657568239 0  L 36.1290322580645 2.32365145228216  L 35.8312655086849 2.22683264177041  L 33.2506203473946 1.25864453665285  L 31.6625310173697 0.968188105117566  L 32.2580645161291 3.38865836791148  L 30.0744416873449 4.06639004149376  L 26.8982630272953 5.71230982019364  L 25.9057071960298 6.97095435684646  L 25.9057071960298 7.06777316735824  L 25.8064516129032 7.06777316735824  L 24.1191066997519 8.52005532503459  L 23.8213399503722 10.8437067773167  L 23.8213399503722 11.0373443983403  L 22.9280397022333 14.32918395574  L 23.0272952853598 14.32918395574  L 22.6302729528536 15.8782849239281  L 22.6302729528536 15.9751037344398  L 22.5310173697271 16.0719225449516  L 21.439205955335 17.5242047026279  L 21.3399503722084 17.5242047026279  L 21.3399503722084 17.6210235131397  L 21.2406947890819 17.7178423236515  L 21.1414392059554 17.7178423236515  L 18.7593052109181 18.0082987551867  L 18.7593052109181 18.1051175656985  L 18.6600496277916 18.0082987551867  L 15.0868486352358 16.8464730290456  L 14.9875930521092 16.7496542185339  Z " fill-rule="nonzero" fill="#0079fe" stroke="none" fill-opacity="0.658823529411765" transform="matrix(1 0 0 1 655 481 )" />
  </g>
</svg>