<?xml version="1.0" encoding="utf-8"?>
<svg version="1.1" xmlns:xlink="http://www.w3.org/1999/xlink" width="11px" height="16px" xmlns="http://www.w3.org/2000/svg">
  <g transform="matrix(1 0 0 1 -733 -469 )">
    <path d="M 5.8173252062656 0.206896551724141  C 5.8173252062656 0.206896551724141  5.51856272099885 0  5.51856272099885 0  C 5.02062524555428 0  4.52268777010971 0.517241379310345  4.02475029466514 1.65517241379311  C 4.02475029466514 1.65517241379311  3.72598780939839 1.44827586206897  3.72598780939839 1.44827586206897  L 3.62640031430951 1.55172413793104  L 3.72598780939839 1.65517241379311  L 2.82970035359818 2.58620689655172  L 2.43135037324255 2.79310344827588  L 1.33588792726447 3.41379310344829  C 1.33588792726447 3.41379310344829  1.23630043217553 4.13793103448276  1.23630043217553 4.13793103448276  C 1.33588792726447 5.27586206896551  1.03712544199772 6.10344827586207  0.539187966553147 6.41379310344829  C 0.539187966553147 6.41379310344829  0.140837986197513 7.65517241379311  0.140837986197513 7.65517241379311  C 0.0412504911085767 7.96551724137933  -0.0583370039803034 8.79310344827586  0.0412504911085767 9.93103448275862  C 0.0412504911085767 9.93103448275862  0.638775461642084 13.0344827586207  0.638775461642084 13.0344827586207  C 0.8379504518199 13.448275862069  1.33588792726447 13.9655172413793  2.33176287815361 14.3793103448276  C 2.33176287815361 14.3793103448276  4.62227526519864 15  4.62227526519864 15  C 5.2198002357321 15  6.01650019644342 14.6896551724138  6.91278765224368 14.0689655172414  C 6.91278765224368 14.0689655172414  6.31526268171017 12.9310344827586  6.31526268171017 12.9310344827586  L 6.31526268171017 12.7241379310345  L 6.31526268171017 12.6206896551724  L 6.51443767188799 11.6896551724138  L 6.51443767188799 11.5862068965517  L 7.60990011786607 9.51724137931036  L 9.50206252455541 9.51724137931036  C 9.50206252455541 9.51724137931036  9.99999999999998 9.41379310344827  9.99999999999998 9.41379310344827  C 9.80082500982217 8.79310344827586  9.20330003928866 7.65517241379311  8.10783759331064 6.20689655172414  C 8.10783759331064 6.20689655172414  7.41072512768825 5.17241379310345  7.41072512768825 5.17241379310345  C 7.01237514733256 4.34482758620691  6.61402516697693 3.41379310344829  6.51443767188799 2.17241379310344  C 6.31526268171017 1.24137931034483  6.01650019644342 0.620689655172423  5.8173252062656 0.206896551724141  Z " fill-rule="nonzero" fill="#0079fe" stroke="none" transform="matrix(1 0 0 1 733 469 )" />
  </g>
</svg>