<?xml version="1.0" encoding="utf-8"?>
<svg version="1.1" xmlns:xlink="http://www.w3.org/1999/xlink" width="47px" height="41px" xmlns="http://www.w3.org/2000/svg">
  <g transform="matrix(1 0 0 1 -639 -574 )">
    <path d="M 37.30625 1.48192771084337  L 36.9145833333333 0.790361445783143  L 36.2291666666667 0.493975903614457  L 35.4458333333333 0.987951807228915  C 35.4458333333333 0.987951807228915  34.95625 1.87710843373494  34.95625 1.87710843373494  C 34.5645833333333 2.76626506024097  34.1729166666667 3.26024096385543  33.4875 3.26024096385543  C 33.0958333333333 3.26024096385543  32.60625 2.96385542168675  32.3125 2.66746987951809  C 32.3125 2.66746987951809  32.2145833333333 2.56867469879517  32.2145833333333 2.56867469879517  L 32.1166666666667 2.46987951807229  L 31.8229166666666 1.48192771084337  L 31.8229166666666 1.38313253012049  L 31.725 0.0987951807228859  L 31.1375 0  L 31.0395833333333 0.0987951807228859  L 30.7458333333333 1.0867469879518  L 30.7458333333333 2.46987951807229  L 30.6479166666667 2.56867469879517  L 30.55 2.66746987951809  L 29.375 4.24819277108435  L 29.1791666666667 4.44578313253012  L 28.9833333333333 4.44578313253012  L 26.6333333333333 4.24819277108435  L 26.4375 4.24819277108435  L 26.4375 4.34698795180723  L 26.4375 4.44578313253012  L 25.6541666666667 5.53253012048192  L 25.9479166666667 6.22409638554218  L 26.0458333333333 6.22409638554218  L 25.3604166666667 7.31084337349398  L 23.20625 7.31084337349398  L 23.20625 6.91566265060241  L 23.0104166666667 6.71807228915663  L 22.7166666666667 6.52048192771083  L 22.325 7.21204819277109  L 22.2270833333333 7.50843373493975  L 20.7583333333333 7.50843373493975  L 20.6604166666667 7.40963855421686  L 19.7791666666667 6.71807228915663  L 19.68125 6.52048192771083  L 19.68125 6.42168674698795  L 19.5833333333333 6.42168674698795  L 19.5833333333333 6.22409638554218  L 18.0166666666667 5.92771084337349  L 16.8416666666667 6.42168674698795  L 16.15625 6.91566265060241  L 18.1145833333333 9.18795180722892  L 20.6604166666667 9.97831325301203  L 20.7583333333333 10.0771084337349  L 20.85625 10.1759036144578  L 22.1291666666667 11.3614457831325  L 21.6395833333333 13.3373493975904  L 21.6395833333333 13.633734939759  L 21.5416666666667 13.633734939759  L 19.8770833333333 15.0168674698795  L 19.8770833333333 15.1156626506024  L 19.7791666666667 15.1156626506024  L 17.0375 15.9060240963855  L 16.9395833333333 15.9060240963855  L 15.3729166666667 16.1036144578313  L 15.275 16.1036144578313  L 15.1770833333333 16.1036144578313  L 14.1 15.7084337349398  L 13.5125 15.6096385542169  L 12.925 16.5975903614458  L 12.8270833333333 16.5975903614458  L 12.8270833333333 16.6963855421687  L 11.5541666666667 17.5855421686747  L 11.45625 17.5855421686747  L 9.69375 18.3759036144578  L 9.59583333333334 18.3759036144578  L 7.53958333333334 17.6843373493976  L 3.03541666666669 17.8819277108434  L 2.05625000000002 18.178313253012  L 1.95833333333333 18.2771084337349  L 1.07708333333336 18.2771084337349  L 0 19.7590361445783  L 0.19583333333335 21.4385542168675  L 1.17500000000002 23.710843373494  L 2.25208333333334 24.3036144578313  L 2.35 24.3036144578313  L 2.35 24.4024096385542  L 2.74166666666668 24.6987951807229  L 3.42708333333333 23.710843373494  L 3.52500000000002 23.6120481927711  L 3.62291666666668 23.5132530120482  L 3.72083333333334 23.5132530120482  L 5.18958333333334 23.3156626506024  L 5.38541666666667 23.3156626506024  L 5.38541666666667 23.4144578313253  L 6.85416666666666 23.8096385542168  L 8.32291666666666 27.1686746987952  L 8.225 27.1686746987952  L 8.225 27.267469879518  L 7.6375 29.144578313253  L 7.14791666666667 30.3301204819277  L 7.14791666666667 30.4289156626506  L 6.46250000000002 32.1084337349398  L 6.46250000000002 34.1831325301205  L 7.6375 35.3686746987951  L 7.73541666666667 35.3686746987951  L 9.30208333333333 36.7518072289157  L 9.49791666666668 36.8506024096385  L 9.59583333333334 36.9493975903614  L 8.42083333333335 39.7156626506024  L 8.12708333333334 41  L 8.51875000000001 40.8024096385542  L 8.61666666666667 40.8024096385542  L 9.59583333333334 40.4072289156626  L 11.3583333333333 39.4192771084337  L 11.45625 39.4192771084337  L 13.4145833333333 39.7156626506024  L 13.5125 39.7156626506024  L 16.45 40.9012048192771  L 19.68125 40.9012048192771  L 20.5625 39.7156626506024  L 20.6604166666667 39.6168674698795  L 20.7583333333333 39.5180722891566  L 22.4229166666667 38.7277108433735  L 23.9895833333333 37.344578313253  L 24.1854166666667 37.2457831325301  L 25.3604166666667 36.8506024096385  L 26.6333333333333 35.8626506024096  L 28.1020833333333 33.8867469879518  L 30.1583333333333 34.6771084337349  L 30.4520833333333 34.7759036144578  L 30.4520833333333 34.8746987951807  C 30.4520833333333 34.8746987951807  30.55 34.9734939759036  30.55 34.9734939759036  C 30.84375 35.7638554216867  31.1375 36.1590361445783  31.43125 36.2578313253012  C 31.43125 36.2578313253012  32.7041666666667 36.0602409638554  32.7041666666667 36.0602409638554  L 32.9979166666667 36.0602409638554  L 33.6833333333333 36.2578313253012  L 33.78125 36.2578313253012  L 33.78125 36.3566265060241  L 35.4458333333333 36.9493975903614  L 35.9354166666667 36.9493975903614  L 36.0333333333333 36.5542168674699  L 36.2291666666667 35.9614457831325  L 36.2291666666667 35.8626506024096  L 36.3270833333333 35.7638554216867  L 36.425 35.6650602409638  L 36.425 35.566265060241  L 37.0125 35.1710843373494  L 37.1104166666667 35.0722891566265  L 38.1875 34.1831325301205  L 38.2854166666667 34.1831325301205  L 38.3833333333333 34.0843373493976  L 38.5791666666667 34.0843373493976  C 38.5791666666667 34.0843373493976  39.5583333333333 34.1831325301205  39.5583333333333 34.1831325301205  C 39.5583333333333 33.5903614457831  39.8520833333333 32.9975903614458  40.4395833333333 32.4048192771084  C 41.125 31.9108433734939  41.6145833333333 31.6144578313253  41.9083333333333 31.7132530120482  C 41.9083333333333 31.7132530120482  42.4958333333333 31.3180722891566  42.4958333333333 31.3180722891566  L 42.59375 31.3180722891566  L 42.59375 31.2192771084337  L 43.0833333333333 30.7253012048193  L 43.0833333333333 30.6265060240964  L 43.18125 30.6265060240964  L 43.2791666666667 30.5277108433735  L 43.3770833333333 30.5277108433735  L 44.94375 30.1325301204819  L 45.825 30.1325301204819  L 46.2166666666667 29.8361445783132  L 46.5104166666667 29.2433734939759  L 47 28.255421686747  C 47 28.255421686747  46.8041666666667 28.1566265060241  46.8041666666667 28.1566265060241  C 46.2166666666667 27.4650602409638  45.825 26.6746987951807  45.6291666666666 25.5879518072289  C 45.6291666666666 25.5879518072289  45.53125 25.489156626506  45.53125 25.489156626506  L 45.6291666666666 25.489156626506  L 45.6291666666666 25.3903614457831  C 45.6291666666666 25.3903614457831  46.0208333333333 23.2168674698795  46.0208333333333 23.2168674698795  C 46.0208333333333 22.5253012048192  46.2166666666667 22.0313253012048  46.70625 21.5373493975903  C 46.70625 21.5373493975903  46.5104166666667 19.7590361445783  46.5104166666667 19.7590361445783  C 46.4125 19.5614457831325  46.2166666666667 19.3638554216867  45.7270833333333 19.2650602409638  C 45.7270833333333 19.2650602409638  42.59375 20.5493975903614  42.59375 20.5493975903614  C 42.59375 20.5493975903614  42.7895833333333 17.289156626506  42.7895833333333 17.289156626506  C 42.8875 16.7951807228916  43.8666666666667 15.9060240963855  45.7270833333333 14.8192771084337  C 45.7270833333333 14.8192771084337  44.8458333333333 11.3614457831325  44.8458333333333 11.3614457831325  C 44.65 10.1759036144578  44.94375 9.28674698795181  45.7270833333333 8.49638554216866  C 45.7270833333333 8.49638554216866  45.53125 7.90361445783132  45.53125 7.90361445783132  L 44.5520833333333 7.90361445783132  L 44.2583333333333 8.00240963855421  C 44.2583333333333 8.00240963855421  43.76875 9.38554216867469  43.76875 9.38554216867469  C 43.3770833333333 9.87951807228915  42.9854166666666 10.1759036144578  42.59375 10.1759036144578  C 42.59375 10.1759036144578  42.3979166666667 10.1759036144578  42.3979166666667 10.1759036144578  L 41.41875 9.48433734939758  L 41.3208333333333 9.48433734939758  L 41.2229166666667 9.48433734939758  L 41.2229166666667 9.38554216867469  L 41.2229166666667 9.18795180722892  L 40.9291666666667 8.49638554216866  L 40.83125 7.50843373493975  L 40.83125 7.40963855421686  L 40.7333333333333 7.60722891566266  L 40.6354166666666 7.90361445783132  L 38.8729166666667 7.90361445783132  L 38.6770833333333 7.50843373493975  L 38.3833333333333 6.42168674698795  L 38.3833333333333 4.93975903614458  L 37.30625 3.06265060240963  L 37.30625 1.48192771084337  Z " fill-rule="nonzero" fill="#0079fe" stroke="none" fill-opacity="0.219607843137255" transform="matrix(1 0 0 1 639 574 )" />
  </g>
</svg>