<?xml version="1.0" encoding="utf-8"?>
<svg version="1.1" xmlns:xlink="http://www.w3.org/1999/xlink" width="30px" height="35px" xmlns="http://www.w3.org/2000/svg">
  <g transform="matrix(1 0 0 1 -755 -550 )">
    <path d="M 20.0990099009901 0  C 20.0990099009901 0  18.3168316831683 0.497159090909091  18.3168316831683 0.497159090909091  C 17.2277227722772 0.994318181818182  16.3366336633663 1.39204545454546  15.6435643564357 1.49147727272727  C 15.049504950495 1.49147727272727  14.059405940594 1.29261363636365  12.6732673267327 0.795454545454557  C 12.6732673267327 0.795454545454557  10.3960396039604 0.497159090909091  10.3960396039604 0.497159090909091  C 9.70297029702971 0.795454545454557  8.91089108910891 1.78977272727274  7.82178217821779 3.48011363636364  C 7.82178217821779 3.48011363636364  9.30693069306928 6.66193181818181  9.30693069306928 6.66193181818181  L 6.8316831683168 8.05397727272727  L 6.73267326732674 8.05397727272727  C 6.73267326732674 8.05397727272727  4.75247524752476 7.45738636363637  4.75247524752476 7.45738636363637  C 5.54455445544557 8.94886363636364  5.74257425742575 9.84375000000001  5.44554455445544 10.2414772727273  C 5.44554455445544 10.2414772727273  5.24752475247526 11.0369318181818  5.24752475247526 11.0369318181818  C 4.75247524752476 12.2301136363637  4.35643564356433 12.9261363636364  3.96039603960396 13.3238636363636  C 3.96039603960396 13.3238636363636  0.495049504950493 16.40625  0.495049504950493 16.40625  L 1.38613861386136 16.9034090909091  C 1.38613861386136 16.9034090909091  0.792079207920801 17.4005681818182  0.792079207920801 17.4005681818182  C 0 18.0965909090909  -0.198019801980189 18.8920454545455  0.198019801980185 19.4886363636364  C 0.198019801980185 19.4886363636364  2.57425742574259 23.1676136363637  2.57425742574259 23.1676136363637  L 2.67326732673266 23.1676136363637  L 2.67326732673266 23.2670454545455  L 3.76237623762377 25.2556818181818  L 3.76237623762377 25.3551136363636  L 3.86138613861384 25.4545454545455  L 3.76237623762377 25.6534090909091  L 3.76237623762377 25.8522727272727  L 3.76237623762377 25.9517045454546  C 3.76237623762377 25.9517045454546  3.56435643564358 26.1505681818182  3.56435643564358 26.1505681818182  C 4.05940594059408 26.1505681818182  4.45544554455445 26.3494318181818  4.95049504950495 26.6477272727273  C 5.74257425742575 27.1448863636364  6.33663366336631 28.5369318181818  6.63366336633662 30.625  C 6.63366336633662 30.625  7.02970297029705 32.6136363636364  7.02970297029705 32.6136363636364  C 7.22772277227724 33.1107954545455  7.42574257425742 33.4090909090909  7.92079207920792 33.6079545454546  C 8.71287128712872 34.0056818181818  9.70297029702971 33.90625  10.5940594059406 33.3096590909091  C 11.0891089108911 33.0113636363636  11.3861386138614 32.7130681818182  11.2871287128713 32.4147727272727  C 11.2871287128713 32.4147727272727  11.1881188118812 32.3153409090909  11.1881188118812 32.3153409090909  L 11.1881188118812 32.1164772727273  L 12.8712871287129 30.9232954545455  L 13.0693069306931 31.1221590909091  C 13.0693069306931 31.1221590909091  14.3564356435643 33.3096590909091  14.3564356435643 33.3096590909091  C 14.8514851485148 33.7073863636364  15.3465346534653 33.90625  16.1386138613861 33.90625  C 16.1386138613861 33.90625  16.6336633663366 33.8068181818182  16.6336633663366 33.8068181818182  L 16.2376237623762 32.6136363636364  L 18.1188118811881 33.4090909090909  L 18.6138613861386 33.4090909090909  L 18.7128712871287 33.4090909090909  L 18.8118811881188 33.6079545454546  L 20.5940594059406 35  L 21.0891089108911 34.2045454545455  L 20.990099009901 30.8238636363636  L 21.0891089108911 30.7244318181818  C 21.0891089108911 30.7244318181818  22.2772277227723 29.2329545454546  22.2772277227723 29.2329545454546  C 22.3762376237624 29.0340909090909  22.2772277227723 28.6363636363637  21.7821782178218 28.1392045454546  C 21.7821782178218 28.1392045454546  21.4851485148515 27.8409090909091  21.4851485148515 27.8409090909091  L 21.6831683168317 27.6420454545455  L 21.7821782178218 27.4431818181818  L 22.0792079207921 27.34375  L 24.5544554455446 23.2670454545455  L 24.7524752475247 23.3664772727273  L 25.2475247524752 23.4659090909091  L 25.4455445544554 23.5653409090909  L 25.4455445544554 23.7642045454546  L 25.2475247524752 25.3551136363636  L 25.4455445544554 25.3551136363636  L 28.2178217821782 22.8693181818182  L 28.019801980198 21.5767045454545  L 27.5247524752475 21.5767045454545  L 26.5346534653465 21.6761363636364  L 28.2178217821782 17.1022727272727  L 26.7326732673267 16.9034090909091  L 26.5346534653465 16.9034090909091  L 26.5346534653465 16.7045454545455  C 26.5346534653465 16.7045454545455  26.039603960396 16.1079545454545  26.039603960396 16.1079545454545  C 25.7425742574257 15.5113636363636  25.7425742574257 15.0142045454545  26.1386138613861 14.5170454545455  C 26.1386138613861 14.5170454545455  28.5148514851485 14.4176136363636  28.5148514851485 14.4176136363636  C 28.5148514851485 14.4176136363636  30 14.4176136363636  30 14.4176136363636  C 30 13.9204545454546  29.7029702970297 13.0255681818182  28.8118811881188 11.5340909090909  C 28.8118811881188 11.5340909090909  26.7326732673267 10.8380681818182  26.7326732673267 10.8380681818182  L 28.9108910891089 8.75000000000001  L 28.9108910891089 8.25284090909092  L 27.8217821782178 8.45170454545455  L 27.4257425742574 8.45170454545455  L 27.4257425742574 8.35227272727274  L 27.3267326732673 8.25284090909092  C 27.3267326732673 8.25284090909092  27.2277227722772 8.05397727272727  27.2277227722772 8.05397727272727  C 26.9306930693069 7.05965909090909  26.3366336633663 6.26420454545456  25.4455445544554 5.96590909090909  C 25.4455445544554 5.96590909090909  21.4851485148515 6.0653409090909  21.4851485148515 6.0653409090909  L 19.8019801980198 8.05397727272727  L 19.8019801980198 8.15340909090908  L 19.3069306930693 8.05397727272727  L 13.0693069306931 6.0653409090909  C 13.0693069306931 6.0653409090909  19.1089108910891 4.47443181818182  19.1089108910891 4.47443181818182  C 19.5049504950495 4.47443181818182  20.4950495049505 3.48011363636364  22.1782178217821 1.49147727272727  C 22.1782178217821 1.49147727272727  20.0990099009901 0  20.0990099009901 0  Z " fill-rule="nonzero" fill="#0079fe" stroke="none" transform="matrix(1 0 0 1 755 550 )" />
  </g>
</svg>