<?xml version="1.0" encoding="utf-8"?>
<svg version="1.1" xmlns:xlink="http://www.w3.org/1999/xlink" width="46px" height="44px" xmlns="http://www.w3.org/2000/svg">
  <g transform="matrix(1 0 0 1 -746 -435 )">
    <path d="M 22.9021276595744 6.28571428571429  L 21.0425531914894 5.79464285714286  C 21.0425531914894 5.79464285714286  19.868085106383 7.36607142857142  19.868085106383 7.36607142857142  C 19.6723404255319 7.66071428571428  19.5744680851064 8.25000000000001  19.7702127659574 9.23214285714286  C 19.7702127659574 9.23214285714286  19.7702127659574 9.82142857142857  19.7702127659574 9.82142857142857  L 17.4212765957447 9.82142857142857  L 15.6595744680851 9.33035714285714  L 14.3872340425532 11.2946428571429  L 14.1914893617021 11.4910714285714  L 12.6255319148936 12.4732142857143  L 11.2553191489362 13.9464285714286  L 11.0595744680851 14.2410714285714  L 8.61276595744682 17.0892857142857  L 8.51489361702127 17.1875  L 6.65531914893618 18.1696428571429  L 5.1872340425532 17.1875  L 3.81702127659572 15.6160714285714  L 2.93617021276596 15.125  L 3.62127659574467 19.1517857142857  L 4.20851063829788 21.3125  L 2.7404255319149 22.6875  L 0.685106382978712 25.7321428571429  L 0.685106382978712 27.0089285714286  L 0.587234042553214 27.1071428571429  L 0 27.8928571428571  L 0.391489361702105 28.5803571428571  L 1.17446808510637 28.5803571428571  L 4.01276595744683 29.3660714285714  L 4.20851063829788 29.3660714285714  L 4.30638297872338 29.4642857142857  L 4.8936170212766 30.0535714285714  L 5.67659574468086 30.4464285714286  C 5.67659574468086 30.4464285714286  5.87234042553191 30.4464285714286  5.87234042553191 30.4464285714286  C 6.16595744680852 30.9375  6.36170212765957 31.3303571428571  6.36170212765957 31.7232142857143  C 6.36170212765957 31.7232142857143  6.65531914893618 32.6071428571429  6.65531914893618 32.6071428571429  L 9.68936170212764 33.4910714285714  L 10.5702127659575 33.2946428571429  L 11.4510638297872 32.1160714285714  L 13.8 27.5982142857143  L 13.8978723404255 27.5  L 14.9744680851064 26.0267857142857  L 15.0723404255319 25.9285714285714  L 16.931914893617 25.0446428571428  C 16.931914893617 25.0446428571428  18.204255319149 24.9464285714286  18.204255319149 24.9464285714286  C 18.6936170212766 24.1607142857143  19.0851063829787 23.7678571428571  19.5744680851064 23.7678571428571  C 19.868085106383 23.7678571428571  20.3574468085107 23.9642857142857  21.1404255319149 24.3571428571428  C 21.1404255319149 24.3571428571428  21.336170212766 24.4553571428571  21.336170212766 24.4553571428571  L 23 27.1071428571429  L 23.0978723404256 27.2053571428571  L 23.0978723404256 27.4017857142857  L 23.2936170212766 29.2678571428571  L 23.1957446808511 31.3303571428571  L 22.7063829787234 33.0982142857143  L 22.7063829787234 33.2946428571429  L 21.336170212766 34.8660714285714  L 20.7489361702128 36.1428571428571  L 20.8468085106383 38.3035714285714  L 21.0425531914894 38.3035714285714  L 21.7276595744681 38.0089285714285  L 22.5106382978723 37.3214285714286  L 22.7063829787234 37.125  L 22.8042553191489 36.9285714285714  L 23.7829787234043 37.8125  L 23.7829787234043 39.4821428571428  L 22.8042553191489 39.875  L 22.5106382978723 40.2678571428571  L 22.5106382978723 41.1517857142857  L 22.4127659574468 41.25  L 21.8255319148936 42.3303571428571  L 21.531914893617 42.4285714285714  L 20.7489361702128 42.5267857142857  L 19.9659574468085 42.7232142857143  L 19.3787234042553 43.8035714285714  L 19.4765957446808 44  L 22.7063829787234 43.6071428571429  L 23.2936170212766 43.1160714285714  L 24.3702127659574 40.2678571428571  L 31.6127659574468 32.8035714285714  L 31.8085106382979 32.8035714285714  L 33.3744680851064 32.0178571428571  L 33.4723404255319 31.9196428571428  L 34.7446808510638 32.0178571428571  L 36.0170212765958 31.7232142857143  L 37.3872340425532 31.1339285714286  L 38.3659574468085 30.0535714285714  L 39.931914893617 25.7321428571429  L 46 19.25  C 46 19.25  45.6085106382979 15.7142857142857  45.6085106382979 15.7142857142857  C 45.3148936170213 15.6160714285714  44.9234042553191 15.4196428571429  44.7276595744681 15.125  C 44.7276595744681 15.125  44.531914893617 14.9285714285714  44.531914893617 14.9285714285714  C 44.531914893617 14.9285714285714  43.5531914893617 15.125  43.5531914893617 15.125  C 43.063829787234 14.9285714285714  42.7702127659574 14.7321428571429  42.3787234042553 14.2410714285714  C 42.3787234042553 14.2410714285714  42.0851063829787 13.6517857142857  42.0851063829787 13.6517857142857  L 41.9872340425532 13.4553571428571  C 41.9872340425532 13.4553571428571  41.9872340425532 8.15178571428571  41.9872340425532 8.15178571428571  C 41.4 7.95535714285715  40.8127659574468 7.5625  40.1276595744681 6.875  C 40.1276595744681 6.875  38.8553191489362 5.50000000000001  38.8553191489362 5.50000000000001  C 38.8553191489362 5.50000000000001  37.6808510638298 3.83035714285715  37.6808510638298 3.83035714285715  C 37.4851063829787 3.4375  37.4851063829787 2.84821428571429  37.5829787234042 1.96428571428571  C 37.5829787234042 1.96428571428571  37.6808510638298 1.47321428571429  37.6808510638298 1.47321428571429  L 36.9957446808511 0.589285714285723  L 36.8978723404255 1.37500000000001  L 36.0170212765958 3.04464285714286  C 36.0170212765958 3.04464285714286  35.7234042553191 3.04464285714286  35.7234042553191 3.04464285714286  C 35.0382978723404 3.04464285714286  34.2553191489362 2.94642857142857  33.668085106383 2.65178571428572  C 33.0808510638298 2.45535714285714  32.7872340425532 1.96428571428571  32.7872340425532 1.37500000000001  C 32.7872340425532 1.37500000000001  32.7872340425532 0.982142857142857  32.7872340425532 0.982142857142857  L 32.2978723404255 0.982142857142857  L 30.4382978723404 1.47321428571429  L 29.068085106383 0.0982142857142941  L 28.5787234042553 0  L 28.0893617021276 0.491071428571428  L 28.6765957446809 1.47321428571429  L 28.8723404255319 1.76785714285714  L 27.8936170212766 3.83035714285715  L 27.795744680851 3.92857142857143  L 25.936170212766 5.89285714285714  L 25.8382978723404 5.99107142857143  L 25.6425531914894 5.99107142857143  L 22.9021276595744 6.28571428571429  Z " fill-rule="nonzero" fill="#0079fe" stroke="none" transform="matrix(1 0 0 1 746 435 )" />
  </g>
</svg>