<?xml version="1.0" encoding="utf-8"?>
<svg version="1.1" xmlns:xlink="http://www.w3.org/1999/xlink" width="26px" height="57px" xmlns="http://www.w3.org/2000/svg">
  <g transform="matrix(1 0 0 1 -689 -468 )">
    <path d="M 21.6826568265683 3.36993243243243  L 24.1771217712177 2.79222972972972  L 24.5608856088561 2.3108108108108  L 23.8892988929889 0.770270270270268  L 23.2177121771218 0  L 22.450184501845 1.25168918918919  L 22.450184501845 1.34797297297297  L 21.2029520295203 2.79222972972972  L 21.1070110701107 2.88851351351351  L 20.9151291512915 2.88851351351351  L 18.6125461254613 3.56249999999999  L 18.4206642066421 3.56249999999999  L 16.2140221402214 3.17736486486485  L 14.9667896678967 3.56249999999999  L 14.6789667896679 4.62162162162161  L 14.5830258302583 4.81418918918919  L 13.5276752767528 5.48817567567567  L 13.3357933579336 5.58445945945944  L 13.1439114391144 5.58445945945944  L 11.2250922509225 5.39189189189189  L 11.1291512915129 5.58445945945944  L 11.1291512915129 7.51013513513512  L 11.0332103321033 7.60641891891893  L 9.97785977859778 8.95439189189188  L 9.97785977859778 9.05067567567568  L 9.88191881918821 9.05067567567568  L 8.05904059040589 10.8800675675676  L 7.96309963099633 10.8800675675676  L 7.86715867158672 10.9763513513514  L 5.94833948339483 11.3614864864865  L 4.7011070110701 12.7094594594594  L 4.98892988929889 14.3462837837838  L 4.98892988929889 14.7314189189189  L 4.7011070110701 14.8277027027027  L 3.26199261992618 16.1756756756757  L 2.49446494464942 17.1385135135135  L 3.07011070110701 18.3902027027027  L 3.07011070110701 18.4864864864865  L 3.07011070110701 18.5827702702703  L 3.07011070110701 20.4121621621622  L 3.07011070110701 20.5084459459459  L 2.01476014760145 22.0489864864865  L 2.01476014760145 22.1452702702703  L 0.575645756457532 23.7820945945946  L 0.767527675276765 25.7077702702703  L 2.01476014760145 26.8631756756757  C 2.01476014760145 26.8631756756757  2.01476014760145 26.9594594594595  2.01476014760145 26.9594594594595  C 2.59040590405903 27.9222972972973  2.87822878228783 28.6925675675676  2.87822878228783 29.3665540540541  C 2.87822878228783 29.3665540540541  2.87822878228783 31.4847972972973  2.87822878228783 31.4847972972973  L 2.78228782287821 31.4847972972973  L 2.68634686346865 31.5810810810811  L 0.767527675276765 33.0253378378378  L 0.575645756457532 35.9138513513513  C 0.575645756457532 35.9138513513513  0.767527675276765 38.8023648648649  0.767527675276765 38.8023648648649  C 0.767527675276765 39.7652027027027  1.15129151291512 41.5945945945946  2.11070110701106 44.2905405405405  C 2.11070110701106 44.2905405405405  2.11070110701106 44.3868243243243  2.11070110701106 44.3868243243243  L 2.11070110701106 44.5793918918919  L 0 54.4003378378379  L 0.191881918819178 56.3260135135135  L 1.63099630996309 57  L 3.93357933579333 54.6891891891892  L 4.02952029520295 54.6891891891892  L 11.4169741697417 51.8006756756757  L 13.3357933579336 50.0675675675676  L 13.5276752767528 49.875  L 13.6236162361624 49.9712837837838  L 13.8154981549815 49.9712837837838  C 13.8154981549815 49.9712837837838  18.0369003690037 50.3564189189189  18.0369003690037 50.3564189189189  C 18.6125461254613 50.3564189189189  19.859778597786 49.875  21.6826568265683 49.1047297297297  C 21.6826568265683 49.1047297297297  21.6826568265683 47.0827702702703  21.6826568265683 47.0827702702703  L 21.7785977859779 46.9864864864865  L 21.8745387453875 46.9864864864865  L 23.0258302583026 45.9273648648649  L 22.7380073800738 44.6756756756757  L 22.7380073800738 44.5793918918919  L 22.7380073800738 44.4831081081081  L 22.7380073800738 44.2905405405405  C 22.7380073800738 44.2905405405405  22.8339483394834 44.1942567567568  22.8339483394834 44.1942567567568  C 23.2177121771218 43.8091216216216  23.2177121771218 43.4239864864865  22.929889298893 43.1351351351351  C 22.6420664206642 42.5574324324324  22.7380073800738 41.7871621621622  23.2177121771218 40.9206081081081  C 23.2177121771218 40.9206081081081  23.6974169741698 40.2466216216216  23.6974169741698 40.2466216216216  L 23.6014760147601 38.8986486486487  C 23.6014760147601 38.8986486486487  22.1623616236162 37.1655405405405  22.1623616236162 37.1655405405405  C 21.4907749077491 36.6841216216216  21.3948339483395 36.0101351351352  21.7785977859779 35.3361486486486  C 21.9704797047971 34.758445945946  22.2583025830258 34.1807432432432  22.7380073800738 33.6993243243243  C 22.7380073800738 33.6993243243243  23.1217712177122 32.0625  23.1217712177122 32.0625  L 24.1771217712177 29.7516891891892  L 24.4649446494465 28.6925675675676  L 26 25.804054054054  L 24.9446494464945 23.9746621621622  L 21.9704797047971 22.1452702702703  L 21.7785977859779 22.1452702702703  L 21.7785977859779 21.9527027027027  L 21.2029520295203 20.4121621621622  L 21.2029520295203 20.3158783783784  L 21.2029520295203 20.1233108108108  L 21.4907749077491 17.5236486486486  L 21.4907749077491 17.4273648648649  C 21.4907749077491 17.4273648648649  22.1623616236162 15.5016891891892  22.1623616236162 15.5016891891892  C 22.0664206642067 14.8277027027027  22.1623616236162 14.3462837837838  22.450184501845 13.9611486486487  C 22.6420664206642 13.7685810810811  22.929889298893 13.5760135135135  23.2177121771218 13.5760135135135  C 23.2177121771218 13.5760135135135  25.0405904059041 13.2871621621622  25.0405904059041 13.2871621621622  L 25.520295202952 12.2280405405405  L 26 9.05067567567568  L 25.6162361623616 7.89527027027026  L 23.9852398523986 7.51013513513512  L 23.8892988929889 7.51013513513512  L 21.9704797047971 6.54729729729728  L 21.8745387453875 6.4510135135135  L 21.8745387453875 6.25844594594595  L 21.7785977859779 6.16216216216217  L 21.6826568265683 3.85135135135135  L 21.6826568265683 3.65878378378377  L 21.6826568265683 3.36993243243243  Z " fill-rule="nonzero" fill="#0079fe" stroke="none" transform="matrix(1 0 0 1 689 468 )" />
  </g>
</svg>