<?xml version="1.0" encoding="utf-8"?>
<svg version="1.1" xmlns:xlink="http://www.w3.org/1999/xlink" width="28px" height="10px" xmlns="http://www.w3.org/2000/svg">
  <g transform="matrix(1 0 0 1 -807 -623 )">
    <path d="M 6.31538768454669 6.53981078921229  C 6.18921262799888 6.47326868379294  6.75700038246402 6.53981078921229  6.75700038246402 6.53981078921229  C 7.00935049555964 6.53981078921229  7.19861308038136 6.47326868379294  7.51405072175088 6.40672658841131  C 7.8925758913943 6.27364238761034  8.52345117413334 6.27364238761034  8.77580128722896 6.27364238761034  C 9.02815140032458 6.27364238761034  9.21741398514629 6.34018448299198  8.96506387205068 6.60635288459393  C 8.71271375895506 6.87252128619588  9.21741398514629 6.87252128619588  9.59593915478971 6.80597919081424  C 9.97446432443314 6.7394370853949  9.97446432443314 6.60635288459393  9.91137679615923 6.47326868379294  C 9.84828926788534 6.27364238761034  9.78520173961143 6.14055818680936  9.91137679615923 6.00747398600838  C 10.0375518527071 5.8743897852074  10.100639380981 5.80784767978807  10.2268144375288 6.27364238761034  C 10.3529894940766 6.67289499001327  10.73151466372 6.53981078921229  10.9207772485417 6.67289499001327  C 11.1100398333634 6.80597919081424  10.6684271354461 7.00560548699686  10.4791645506244 7.33831599401815  C 10.2899019658027 7.67102649100174  10.3529894940766 8.33644749500663  10.5422520788983 9.00186849901151  C 10.73151466372 9.60074739759706  11.1100398333634 9.99999999999998  11.5516525312807 9.99999999999998  C 11.9932652291981 9.99999999999998  12.2456153422937 9.66728949297869  12.3087028705676 9.33457899599511  C 12.3717903988415 9.00186849901151  12.1194402857459 8.53607379118924  11.9932652291981 8.53607379118924  C 11.8670901726503 8.46953169580761  11.4885650030068 8.46953169580761  11.4254774747329 8.26990538958729  C 11.362389946459 8.07027909340467  11.5516525312807 7.80411069180272  11.8040026443764 7.80411069180272  C 12.056352757472 7.87065278718435  12.056352757472 8.07027909340467  12.3087028705676 8.07027909340467  C 12.5610529836632 8.13682118878631  12.4348779271154 8.07027909340467  12.4979654553893 7.80411069180272  C 12.5610529836632 7.40485808939979  13.0026656815805 7.0721475924162  13.2550157946762 7.00560548699686  C 13.2550157946762 7.00560548699686  14.8952915297977 6.53981078921229  14.8952915297977 6.53981078921229  C 15.4630792842628 6.34018448299198  15.9046919821801 5.8743897852074  16.2832171518236 5.94093188058904  C 16.661742321467 6.00747398600838  16.8510049062887 5.94093188058904  17.1664425476582 5.8743897852074  C 17.4818801890277 5.80784767978807  17.7973178303973 5.20896878120252  17.986580415219 4.94280037960057  C 18.2389305283146 4.67663197799861  18.4281931131363 4.67663197799861  18.6805432262319 5.00934248501991  C 18.9328933393275 5.3420529820035  19.1852434524232 5.14242668582088  19.4375935655188 4.94280037960057  C 19.6899436786144 4.74317408341795  19.5637686220666 4.07775307941307  19.4375935655188 3.74504257239177  C 19.311418508971 3.41233207540818  19.5006810937927 3.21270577922557  19.7530312068883 3.07962157842459  C 20.0053813199839 2.94653737762362  20.0053813199839 3.27924787460721  20.3839064896273 3.54541627620916  C 20.6993441309969 3.81158467781111  20.6993441309969 4.07775307941307  20.4469940179012 4.34392148101502  C 20.1946439048056 4.61008988261698  20.3839064896273 4.67663197799861  20.5731690744491 4.67663197799861  C 20.7624316592708 4.67663197799861  21.3302194137359 4.74317408341795  21.5194819985576 4.477005681816  C 21.7087445833793 4.21083728021405  21.4563944702837 3.87812677319275  21.267131885462 3.67850047701014  C 21.0778693006403 3.47887418082753  21.7087445833793 3.21270577922557  21.9610946964749 3.14616367380623  C 22.2134448095706 3.07962157842459  22.4027073943923 3.01307947300525  22.4027073943923 3.21270577922557  C 22.4027073943923 3.41233207540818  22.4657949226662 3.47887418082753  22.6550575074879 3.47887418082753  C 22.8443200923096 3.47887418082753  24.1060706577877 3.21270577922557  24.4845958274311 3.07962157842459  C 24.8000334688006 2.94653737762362  25.9356089777309 2.54728477522068  26.3772216756482 2.34765846900036  C 26.8188343735656 2.14803217281775  27.0080969583873 1.34952696801189  27.197359543209 0.883732270227324  C 27.3866221280307 0.484479665816851  27.5127971845785 0.484479665816851  27.828234825948 0.484479665816851  C 27.9544098824958 0.484479665816851  28.141674494572 0  27.828234825948 0  C 27.5147951573241 0  0.149521321622301 0  0.149521321622301 0  C -0.292091376295029 0  0.385160026799693 1.74877957041482  0.385160026799693 1.74877957041482  C 0.385160026799693 1.74877957041482  0.322072498525789 1.61569536961385  1.52073553572997 2.68036897602166  C 1.77308564882559 2.94653737762362  3.60262396876881 2.21457426819939  3.476448912221 2.94653737762362  C 2.97174868602977 5.60822138360545  3.98114913841223 5.60822138360545  4.35967430805566 5.8743897852074  C 4.61202442115128 6.07401608139002  5.11672464734251 5.80784767978807  5.36907476043812 5.94093188058904  C 5.74759993008155 6.207100282191  6.06303757145107 6.40672658841131  6.31538768454669 6.53981078921229  Z " fill-rule="nonzero" fill="#0079fe" stroke="none" transform="matrix(1 0 0 1 807 623 )" />
  </g>
</svg>