<?xml version="1.0" encoding="utf-8"?>
<svg version="1.1" xmlns:xlink="http://www.w3.org/1999/xlink" width="43px" height="61px" xmlns="http://www.w3.org/2000/svg">
  <g transform="matrix(1 0 0 1 -711 -448 )">
    <path d="M 39.7676537585421 18.8740031897927  L 39.5717539863326 18.3875598086124  L 38.7881548974943 17.9984051036683  L 38.6902050113895 17.9984051036683  L 38.1025056947608 17.414673046252  L 35.3599088838269 16.6363636363636  L 34.6742596810934 16.6363636363636  L 34.1845102505695 16.8309409888357  L 33.1070615034168 14.7878787878788  L 33.2050113895216 14.6905901116427  L 33.9886104783599 13.7177033492823  L 33.9886104783599 12.5502392344498  L 34.0865603644647 12.3556618819777  L 34.5763097949886 11.5773524720893  L 34.1845102505695 11.3827751196172  L 32.7152619589977 11.0909090909091  L 30.1685649202733 10.7017543859649  L 29.9726651480638 10.7017543859649  L 28.503416856492 9.24242424242424  L 28.503416856492 9.1451355661882  L 28.0136674259681 8.17224880382776  L 27.9157175398633 7.88038277511962  L 28.6993166287016 5.83732057416268  L 28.6993166287016 4.37799043062201  L 28.6013667425968 3.98883572567784  L 27.8177676537585 4.76714513556619  L 27.7198177676537 4.86443381180223  L 27.5239179954442 5.15629984051038  L 27.3280182232346 4.86443381180223  L 27.0341685649203 4.76714513556619  L 25.5649202733485 3.59968102073365  L 25.3690205011389 3.40510366826156  L 25.3690205011389 3.21052631578948  L 25.0751708428246 1.0701754385965  L 24.3895216400911 0  L 22.9202733485194 0.0972886762360529  L 22.0387243735763 1.65390749601276  L 21.9407744874715 1.84848484848485  L 21.8428246013667 1.94577352472089  L 19.4920273348519 1.45933014354067  L 19.1002277904328 3.59968102073365  L 19.1002277904328 5.74003189792664  L 19.002277904328 5.83732057416268  L 17.7289293849658 7.78309409888357  L 17.7289293849658 7.97767145135566  L 17.5330296127563 8.07496012759171  L 17.4350797266514 8.07496012759171  L 15.9658314350797 8.17224880382776  L 14.4965831435079 9.3397129186603  L 14.3006833712984 9.53429027113239  L 14.1047835990888 9.53429027113239  L 14.006833712984 9.43700159489633  L 11.2642369020501 8.56140350877194  L 10.872437357631 9.53429027113239  L 10.872437357631 9.63157894736842  C 10.872437357631 9.63157894736842  9.69703872437356 11.5773524720893  9.69703872437356 11.5773524720893  C 9.501138952164 11.9665071770335  9.20728929384964 12.1610845295056  8.91343963553528 12.2583732057416  C 8.91343963553528 12.2583732057416  7.73804100227789 12.0637958532695  7.73804100227789 12.0637958532695  L 6.17084282460132 11.3827751196172  L 5.87699316628702 11.1881977671451  L 5.77904328018221 11.0909090909091  L 5.77904328018221 10.9936204146731  L 5.48519362186785 8.65869218500798  L 4.99544419134393 6.90749601275918  L 4.70159453302957 6.42105263157895  L 4.0159453302961 7.78309409888357  L 2.8405466970387 9.3397129186603  L 1.86104783599087 11.5773524720893  L 1.86104783599087 11.6746411483254  L 1.86104783599087 11.7719298245614  L 1.76309794988606 11.7719298245614  C 1.76309794988606 11.7719298245614  0.881548974943031 13.03668261563  0.881548974943031 13.03668261563  C 0.881548974943031 13.4258373205742  0.587699316628668 14.0095693779904  0 14.8851674641148  C 0 14.8851674641148  0.587699316628668 17.1228070175439  0.587699316628668 17.1228070175439  L 3.52619589977218 20.3333333333333  L 4.50569476082001 22.3763955342903  L 4.50569476082001 22.5709728867624  L 4.40774487471526 22.7655502392345  L 4.30979498861046 22.7655502392345  L 3.52619589977218 23.7384370015949  L 3.33029612756262 23.933014354067  L 1.37129840546695 24.3221690590112  L 1.5671981776765 25.8787878787879  L 3.03644646924826 26.6570972886762  L 5.19134396355349 27.1435406698565  L 5.77904328018221 29.0893141945773  L 5.77904328018221 29.1866028708134  L 5.77904328018221 29.2838915470494  L 5.28929384965829 32.5917065390749  L 5.28929384965829 32.688995215311  L 4.50569476082001 34.1483253588517  L 4.50569476082001 34.4401913875598  L 4.30979498861046 34.4401913875598  L 1.86104783599087 34.829346092504  L 1.86104783599087 35.8022328548644  L 1.17539863325739 37.9425837320574  L 0.881548974943031 40.3748006379585  L 1.37129840546695 41.7368421052632  L 4.40774487471526 43.585326953748  L 4.50569476082001 43.682615629984  L 5.77904328018221 45.822966507177  L 5.77904328018221 45.9202551834131  L 5.87699316628702 46.0175438596491  L 5.77904328018221 46.1148325358852  L 4.21184510250565 49.5199362041467  L 3.82004555808654 50.4928229665072  L 2.8405466970387 52.7304625199362  L 2.44874715261959 54.481658692185  L 2.35079726651479 54.6762360446571  C 2.35079726651479 54.6762360446571  2.35079726651479 54.7735247208931  2.35079726651479 54.7735247208931  C 1.86104783599087 55.1626794258373  1.5671981776765 55.5518341307815  1.37129840546695 56.1355661881978  C 1.27334851936214 56.3301435406698  1.27334851936214 56.5247208931419  1.46924829157175 56.719298245614  C 1.46924829157175 56.719298245614  1.5671981776765 56.8165869218501  1.5671981776765 56.8165869218501  L 2.54669703872434 57.8867623604466  L 3.03644646924826 58.6650717703349  L 3.23234624145782 58.5677830940989  L 3.33029612756262 58.859649122807  L 3.33029612756262 58.956937799043  L 3.33029612756262 59.2488038277512  L 3.33029612756262 59.3460925039872  L 3.52619589977218 59.9298245614035  L 4.40774487471526 60.2216905901116  C 4.40774487471526 60.2216905901116  7.93394077448744 61  7.93394077448744 61  C 9.10933940774483 61  10.1867881548975 60.7081339712919  11.3621867881549 60.2216905901116  C 12.5375854214123 59.7352472089314  13.6150341685649 59.6379585326954  14.7904328018223 59.8325358851674  C 14.7904328018223 59.8325358851674  14.9863325740319 59.1515151515151  14.9863325740319 59.1515151515151  L 13.8109339407745 56.5247208931419  L 13.7129840546697 56.3301435406698  L 13.8109339407745 56.3301435406698  L 19.3940774487471 48.6443381180223  L 25.3690205011389 42.9043062200957  L 25.4669703872437 42.9043062200957  L 27.3280182232346 42.2232854864434  L 28.3075170842825 41.1531100478469  C 28.3075170842825 41.1531100478469  28.3075170842825 41.0558213716109  28.3075170842825 41.0558213716109  C 29.0911161731207 40.4720893141946  29.7767653758542 40.0829346092504  30.5603644646925 39.7910685805423  C 30.5603644646925 39.7910685805423  29.9726651480638 39.304625199362  29.9726651480638 39.304625199362  L 28.6993166287016 38.0398724082934  L 28.6993166287016 37.9425837320574  L 28.6013667425968 37.9425837320574  L 27.621867881549 36.7751196172249  L 27.5239179954442 36.5805422647528  L 27.5239179954442 36.3859649122807  L 28.0136674259681 35.8022328548644  L 26.7403189066059 36.0940988835725  C 26.7403189066059 36.0940988835725  23.997722095672 35.4130781499203  23.997722095672 35.4130781499203  C 22.9202733485194 34.92663476874  22.2346241457859 34.3429027113238  22.0387243735763 33.6618819776714  C 21.4510250569476 31.9106858054226  21.255125284738 30.3540669856459  21.3530751708428 28.9920255183413  C 20.9612756264237 29.4784688995215  20.4715261958998 29.5757575757576  19.9817767653758 29.5757575757576  C 19.9817767653758 29.5757575757576  17.9248291571754 29.0893141945773  17.9248291571754 29.0893141945773  L 16.5535307517084 28.1164274322169  L 14.8883826879271 27.7272727272727  C 14.8883826879271 27.7272727272727  14.1047835990888 27.7272727272727  14.1047835990888 27.7272727272727  C 13.6150341685649 27.7272727272727  13.0273348519362 27.5326953748006  12.6355353075171 27.1435406698565  C 12.0478359908883 26.7543859649123  11.753986332574 26.3652312599681  11.6560364464692 25.9760765550239  C 11.4601366742597 25.1977671451356  11.6560364464692 24.7113237639553  12.3416856492027 24.2248803827751  C 13.0273348519362 23.7384370015949  13.8109339407745 22.9601275917065  14.4965831435079 21.9872408293461  C 13.8109339407745 21.1116427432217  13.5170842824601 20.2360446570973  13.8109339407745 19.3604465709729  C 13.8109339407745 19.3604465709729  13.9088838268793 19.2631578947368  13.9088838268793 19.2631578947368  C 14.006833712984 18.7767145135566  14.7904328018223 18.3875598086124  16.2596810933941 17.9011164274322  C 16.3576309794989 17.414673046252  16.5535307517084 17.1228070175439  16.749430523918 17.0255183413078  C 16.749430523918 17.0255183413078  18.2186788154897 17.1228070175439  18.2186788154897 17.1228070175439  C 18.2186788154897 17.1228070175439  18.0227790432802 16.9282296650718  18.0227790432802 16.9282296650718  C 17.0432801822323 16.3444976076555  16.749430523918 15.6634768740032  17.2391799544419 14.8851674641148  C 17.2391799544419 14.8851674641148  18.0227790432802 14.3014354066986  18.0227790432802 14.3014354066986  C 18.9043280182232 14.0095693779904  19.9817767653758 14.1068580542265  21.0592255125285 14.6905901116427  C 21.0592255125285 14.6905901116427  23.3120728929385 16.2472089314195  23.3120728929385 16.2472089314195  L 25.3690205011389 16.2472089314195  L 26.0546697038724 16.8309409888357  C 26.0546697038724 16.8309409888357  26.250569476082 17.6092503987241  26.250569476082 17.6092503987241  C 26.250569476082 18.0956937799043  25.9567198177677 18.3875598086124  25.5649202733485 18.3875598086124  C 25.0751708428246 18.3875598086124  24.879271070615 18.8740031897927  24.7813211845102 19.4577352472089  C 24.7813211845102 19.4577352472089  25.7608200455581 21.792663476874  25.7608200455581 21.792663476874  C 26.3485193621868 20.9170653907496  26.9362186788155 20.4306220095694  27.5239179954442 20.3333333333333  C 27.8177676537585 20.3333333333333  28.2095671981776 20.5279106858054  28.503416856492 20.9170653907496  C 28.7972665148064 21.4035087719298  29.0911161731207 22.2791068580542  29.2870159453303 23.1547049441786  C 29.3849658314351 24.2248803827751  29.6788154897494 25.1004784688995  29.9726651480638 25.5869218500797  C 29.9726651480638 25.5869218500797  30.756264236902 26.6570972886762  30.756264236902 26.6570972886762  C 31.9316628701594 28.1164274322169  32.6173120728929 29.1866028708134  32.8132118451025 30.0622009569378  C 32.8132118451025 30.0622009569378  36.6332574031891 29.5757575757576  36.6332574031891 29.5757575757576  L 38.2984054669704 28.7001594896332  L 39.8656036446469 26.7543859649123  L 40.5512528473804 24.9059011164274  L 40.5512528473804 24.8086124401914  L 40.5512528473804 24.7113237639553  L 41.0410022779043 22.7655502392345  L 41.0410022779043 22.6682615629984  L 41.1389521640091 22.4736842105263  L 41.2369020501139 22.4736842105263  L 42.7061503416856 21.5007974481659  L 43 21.3062200956938  L 42.9020501138952 21.2089314194577  L 40.4533029612756 20.4306220095694  L 40.257403189066 20.4306220095694  L 40.257403189066 20.3333333333333  L 39.7676537585421 18.8740031897927  Z " fill-rule="nonzero" fill="#0079fe" stroke="none" fill-opacity="0.219607843137255" transform="matrix(1 0 0 1 711 448 )" />
  </g>
</svg>