<?xml version="1.0" encoding="utf-8"?>
<svg version="1.1" xmlns:xlink="http://www.w3.org/1999/xlink" width="155px" height="93px" xmlns="http://www.w3.org/2000/svg">
  <g transform="matrix(1 0 0 1 -448 -500 )">
    <path d="M 20.522281468304 0.29245283018869  L 18.8449975446957 0.29245283018869  C 18.8449975446957 0.29245283018869  18.8449975446957 0.389937106918244  18.8449975446957 0.389937106918244  C 18.4503425038467 1.26729559748429  17.7587095447589 1.85220125786164  16.970386100663 2.53459119496858  C 16.3784035393895 2.82704402515724  16.1810760189649 3.31446540880504  16.1810760189649 3.89937106918239  C 16.1810760189649 3.89937106918239  16.1810760189649 4.19182389937108  16.1810760189649 4.19182389937108  C 16.1810760189649 4.67924528301888  15.8850847383282 5.45911949685537  15.0957746566302 6.62893081761007  C 15.0957746566302 6.62893081761007  14.9971108964179 7.11635220125787  14.9971108964179 7.11635220125787  C 14.7987967383913 7.40880503144656  14.4051283351444 7.60377358490567  13.7144820136587 7.60377358490567  C 13.7144820136587 7.60377358490567  8.09064768156037 6.92138364779876  8.09064768156037 6.92138364779876  L 8.09064768156037 7.01886792452832  L 7.69599264071137 8.28616352201258  L 7.69599264071137 8.38364779874216  C 7.69599264071137 8.38364779874216  7.59732888049912 8.48113207547171  7.59732888049912 8.48113207547171  C 6.11737247731535 10.5283018867925  5.13073487519284 11.9905660377359  5.03207111498059 12.9654088050315  C 4.93242071716622 13.4528301886793  5.52538991604184 15.2075471698113  6.80801879880111 18.2295597484277  C 6.80801879880111 18.2295597484277  7.69599264071137 20.2767295597484  7.69599264071137 20.2767295597484  C 8.09064768156037 21.251572327044  7.79465640092362 22.4213836477987  6.90569592141124 23.688679245283  C 6.90569592141124 23.688679245283  5.13073487519284 25.4433962264151  5.13073487519284 25.4433962264151  L 2.17082206882531 25.4433962264151  L 1.5788395075518 22.2264150943396  L 0.789529425853793 26.2232704402516  C 0.789529425853793 26.2232704402516  2.07215830861306 28.1729559748428  2.07215830861306 28.1729559748428  C 2.17082206882531 28.4654088050315  2.17082206882531 28.6603773584906  2.07215830861306 28.7578616352201  C 2.07215830861306 28.7578616352201  1.87483078818856 28.9528301886793  1.87483078818856 28.9528301886793  C 1.47918910973743 29.2452830188679  0.888193186066046 30.2201257861635  0.296210624792538 31.8773584905661  C -0.295771936480966 33.3396226415095  -0.000767293446335866 34.8018867924528  1.1841844667028 36.3616352201258  C 1.1841844667028 36.3616352201258  3.55211471179682 36.3616352201258  3.55211471179682 36.3616352201258  C 4.34142479349483 36.5566037735849  5.52538991604184 37.8238993710692  7.20267383965011 40.0660377358491  C 7.20267383965011 40.0660377358491  7.30133759986236 40.2610062893082  7.30133759986236 40.2610062893082  C 7.30133759986236 40.9433962264151  7.59732888049912 41.4308176100629  8.09064768156037 41.8207547169811  C 8.09064768156037 41.8207547169811  13.3188403352076 46.5974842767296  13.3188403352076 46.5974842767296  L 13.3188403352076 46.6949685534591  L 15.6877572179037 49.6194968553459  L 17.0690498608752 49.6194968553459  L 18.549006264059 46.9874213836478  L 18.7453471468814 46.7924528301887  L 18.8449975446957 46.6949685534591  L 22.495556672549 47.5723270440252  L 22.495556672549 47.6698113207547  L 22.495556672549 47.8647798742139  L 22.9888754736103 50.3018867924528  L 27.3300809229493 55.2735849056604  L 28.8100373261331 55.8584905660377  L 28.9087010863453 55.9559748427673  L 29.598360770229 56.3459119496855  L 29.6980111680433 56.4433962264151  L 32.9539152550476 61.2201257861635  L 35.6178367807784 60.8301886792453  L 35.8151643012029 60.8301886792453  L 35.9138280614152 60.8301886792453  L 36.1111555818397 61.0251572327044  L 36.2098193420519 61.2201257861635  L 38.4780991893316 65.8993710691824  L 41.2416711128767 67.5566037735849  L 43.5109375977585 68.1415094339623  L 44.5962389600932 71.1635220125786  L 46.2735228837015 71.1635220125786  L 46.3712000063116 71.2610062893082  L 49.9240820115548 73.2106918238994  L 49.9240820115548 73.3081761006289  L 50.0227457717671 73.4056603773585  L 52.5880035372856 76.5251572327044  L 56.3372264253511 75.8427672955975  L 56.5345539457756 75.8427672955975  L 57.9158465887472 76.4276729559748  L 58.0145103489594 76.4276729559748  L 60.3824405940534 78.4748427672956  L 64.6249822831802 78.7672955974843  C 64.6249822831802 78.7672955974843  67.1902400486987 78.377358490566  67.1902400486987 78.377358490566  C 70.6434716561275 77.7924528301887  72.814074380797 78.0849056603774  73.603384462495 78.9622641509434  C 74.0967032635563 79.7421383647799  73.8007119829196 80.5220125786164  72.6167468603725 81.496855345912  C 72.6167468603725 81.496855345912  71.63010925825 82.4716981132076  71.63010925825 82.4716981132076  C 71.3341179776133 82.9591194968554  71.7287730184623 83.7389937106918  73.0114019012215 84.9088050314466  C 73.0114019012215 84.9088050314466  73.1100656614338 85.1037735849057  73.1100656614338 85.1037735849057  L 73.0114019012215 85.1037735849057  L 73.8007119829196 85.688679245283  C 73.8007119829196 85.688679245283  74.0967032635563 85.3962264150943  74.0967032635563 85.3962264150943  C 76.5632972688626 80.814465408805  78.5365724731076 78.2798742138365  79.9178651160791 77.7924528301887  C 81.3978215192629 77.3050314465409  84.4563980858427 78.5723270440252  89.290922336243 81.496855345912  C 89.290922336243 81.496855345912  95.210747948978 82.5691823899371  95.210747948978 82.5691823899371  L 95.1120841887658 82.7641509433962  L 95.1120841887658 82.9591194968554  L 94.816092908129 85.688679245283  L 97.7760057144965 86.0786163522013  C 97.7760057144965 86.0786163522013  97.6773419542843 89.7830188679246  97.6773419542843 89.7830188679246  C 98.5653157961946 91.440251572327  99.2559621176803 92.4150943396227  99.6506171585293 92.7075471698113  C 100.242599719803 93.0974842767296  103.20251252617 93.0974842767296  108.43169181742 92.7075471698113  C 108.43169181742 92.7075471698113  111.490268383999 91.1477987421384  111.490268383999 91.1477987421384  L 114.450181190367 87.0534591194969  L 117.903412797796 86.9559748427673  L 119.580696721404 86.4685534591195  L 126.092504895413 82.7641509433962  L 126.191168655625 82.7641509433962  C 126.191168655625 82.7641509433962  126.289832415837 82.6666666666667  126.289832415837 82.6666666666667  C 130.039055303903 82.2767295597484  132.209658028572 82.1792452830189  132.800653952244 82.6666666666667  C 132.800653952244 82.6666666666667  137.044182278972 86.1761006289308  137.044182278972 86.1761006289308  L 138.326811161732 86.6635220125786  L 138.524138682156 86.8584905660378  L 140.200435968162 87.5408805031447  L 140.300086365977 87.6383647798742  L 140.300086365977 87.3459119496855  L 140.300086365977 87.248427672956  L 140.300086365977 87.1509433962264  L 140.300086365977 87.0534591194969  C 140.300086365977 87.0534591194969  140.990732687463 84.1289308176101  140.990732687463 84.1289308176101  C 140.693754769224 83.251572327044  140.693754769224 82.5691823899371  140.990732687463 81.9842767295598  C 141.187073570285 81.496855345912  141.680392371346 81.2044025157233  142.470689090646 81.0094339622642  C 143.95064549383 80.7169811320755  145.331938136802 81.9842767295598  146.713230779773 84.7138364779874  C 146.713230779773 84.7138364779874  146.910558300198 84.811320754717  146.910558300198 84.811320754717  L 147.00922206041 84.811320754717  C 147.00922206041 84.811320754717  149.475816065716 83.7389937106918  149.475816065716 83.7389937106918  C 149.969134866777 83.6415094339623  150.166462387202 83.1540880503145  150.166462387202 82.6666666666667  C 150.166462387202 82.6666666666667  149.673143586141 80.9119496855346  149.673143586141 80.9119496855346  C 149.673143586141 80.9119496855346  149.673143586141 80.814465408805  149.673143586141 80.814465408805  C 149.475816065716 80.0345911949686  149.673143586141 79.3522012578616  150.462453667839 79.059748427673  C 150.462453667839 79.059748427673  151.350427509749 78.377358490566  151.350427509749 78.377358490566  L 153.520043596816 76.0377358490566  C 153.520043596816 76.0377358490566  155 72.8207547169811  155 72.8207547169811  C 153.718357754843 70.7735849056604  153.323702713994 69.311320754717  153.718357754843 68.3364779874214  C 153.718357754843 68.3364779874214  154.013362397878 65.6069182389937  154.013362397878 65.6069182389937  C 153.422366474206 64.437106918239  153.126375193569 63.6572327044025  153.126375193569 62.9748427672956  C 153.126375193569 62.6823899371069  152.73172015272 61.8050314465409  151.942410071022 60.6352201257862  C 151.942410071022 60.6352201257862  151.84374631081 60.6352201257862  151.84374631081 60.6352201257862  L 151.84374631081 60.3427672955975  C 151.84374631081 60.3427672955975  151.546768392571 56.8333333333333  151.546768392571 56.8333333333333  C 151.449091269961 56.248427672956  151.350427509749 55.4685534591195  151.546768392571 54.4937106918239  C 150.659781188263 53.811320754717  150.066811989387 53.1289308176101  149.673143586141 52.4465408805032  C 149.673143586141 52.4465408805032  148.193187182957 50.496855345912  148.193187182957 50.496855345912  L 148.093536785142 50.3993710691824  L 148.093536785142 50.2044025157233  L 148.093536785142 50.1069182389937  L 147.600217984081 47.6698113207547  L 146.120261580897 46.5  L 146.120261580897 46.5974842767296  L 143.259999172344 44.3553459119497  L 143.259999172344 44.5503144654088  L 143.653667575591 47.5723270440252  L 143.653667575591 47.6698113207547  L 143.653667575591 47.9622641509434  L 142.173711172407 48.6446540880503  L 141.977370289585 50.496855345912  L 141.977370289585 50.7893081761007  L 138.524138682156 52.1540880503145  L 137.340173559609 49.4245283018868  L 136.649527238123 49.2295597484277  L 135.564225875789 50.3018867924528  L 134.873579554303 52.251572327044  L 132.406985548997 52.9339622641509  L 131.025692906025 51.9591194968554  L 129.05241770178 51.374213836478  L 128.460435140507 48.6446540880503  L 127.671125058809 46.9874213836478  L 126.487159936262 46.5  L 126.387509538447 46.3050314465409  L 125.500522334139 45.2327044025157  L 124.612548492229 43.6729559748428  L 123.231255849257 41.9182389937107  L 122.04729072671 41.9182389937107  L 120.074015522465 42.6006289308176  L 119.974365124651 42.6981132075472  L 114.943499991428 42.4056603773585  C 114.943499991428 42.4056603773585  111.094626705548 41.625786163522  111.094626705548 41.625786163522  C 110.799622062514 41.4308176100629  110.107989103426 41.1383647798742  109.023674378693 40.4559748427673  C 109.023674378693 40.4559748427673  106.063761572326 39.4811320754717  106.063761572326 39.4811320754717  C 103.794495087444 38.8962264150943  102.511866204685 38.4088050314465  102.215874924048 37.8238993710692  C 102.215874924048 37.8238993710692  101.722556122987 37.5314465408805  101.722556122987 37.5314465408805  L 101.031909801501 37.3364779874214  L 99.2559621176803 36.3616352201258  C 99.2559621176803 36.3616352201258  99.0586345972558 36.2641509433962  99.0586345972558 36.2641509433962  C 98.762643316619 35.874213836478  98.4666520359823 35.5817610062893  98.2693245155578 35.1918238993711  C 98.2693245155578 35.1918238993711  97.8746694747088 34.314465408805  97.8746694747088 34.314465408805  L 97.0853593930108 33.1446540880503  L 95.8027305102515 32.559748427673  L 95.3094117091903 32.8522012578617  L 94.816092908129 33.2421383647799  C 94.816092908129 33.2421383647799  94.5201016274923 33.437106918239  94.5201016274923 33.437106918239  C 94.026782826431 33.8270440251573  93.5334640253698 34.0220125786164  93.1388089845208 34.1194968553459  C 92.3494989028227 34.314465408805  91.5601888211247 33.9245283018868  90.6722149792145 32.9496855345912  C 90.6722149792145 32.9496855345912  88.7976035351817 31  88.7976035351817 31  C 88.1069572136959 30.122641509434  87.6136384126347 29.4402515723271  87.4163108922102 28.9528301886793  C 87.4163108922102 28.9528301886793  86.9229920911489 28.1729559748428  86.9229920911489 28.1729559748428  C 86.2323457696632 27.4905660377359  85.7390269686019 26.8081761006289  85.4430356879652 26.2232704402516  C 85.1470444073284 25.3459119496855  85.0483806471162 24.5660377358491  85.3443719277529 23.7861635220126  C 85.3443719277529 23.7861635220126  85.3443719277529 23.688679245283  85.3443719277529 23.688679245283  L 86.6270008105122 21.5440251572327  L 87.3176471319979 19.3018867924528  L 87.6136384126347 17.8396226415094  L 87.1203196115734 15.5974842767296  L 85.6403632083897 14.3301886792453  C 85.6403632083897 14.3301886792453  85.9363544890264 12.4779874213837  85.9363544890264 12.4779874213837  C 85.9363544890264 11.1132075471698  86.4296732900877 10.4308176100629  87.4163108922102 10.2358490566038  C 87.712302172847 10.1383647798742  87.9096296932714 9.94339622641511  87.8109659330592 9.55345911949687  C 87.8109659330592 9.55345911949687  87.8109659330592 9.45597484276731  87.8109659330592 9.45597484276731  L 87.9096296932714 7.50628930817612  L 87.9096296932714 7.40880503144656  L 87.9096296932714 5.16666666666668  L 87.712302172847 5.16666666666668  L 87.6136384126347 5.06918238993712  L 87.2189833717857 4.87421383647799  L 87.2189833717857 4.77672955974843  L 87.1203196115734 4.77672955974843  L 85.3443719277529 3.60691823899373  L 85.2457081675407 3.60691823899373  L 83.8644155245692 2.43710691823899  L 79.2272187945934 1.55974842767298  L 77.7472623914096 0.487421383647799  C 77.7472623914096 0.487421383647799  74.9846771054666 0.487421383647799  74.9846771054666 0.487421383647799  C 74.5900220646176 0.487421383647799  74.0967032635563 0.779874213836489  73.4060569420706 1.16981132075473  C 73.4060569420706 1.16981132075473  73.3073931818583 1.16981132075473  73.3073931818583 1.16981132075473  L 71.1367904571888 1.94968553459119  C 71.1367904571888 1.94968553459119  65.710283645515 1.94968553459119  65.710283645515 1.94968553459119  C 64.920973563817 2.14465408805033  64.2303272423312 2.33962264150944  63.8356722014822 2.72955974842768  C 63.2436896402087 3.21698113207548  62.1574016402718 3.60691823899373  60.677445237088 4.09433962264153  C 60.677445237088 4.09433962264153  58.1131741091716 4.67924528301888  58.1131741091716 4.67924528301888  L 58.1131741091716 4.77672955974843  L 57.9158465887472 4.77672955974843  L 54.2643008232917 4.38679245283019  L 53.9692961802571 4.28930817610063  L 54.0679599404693 4.38679245283019  L 53.9692961802571 4.28930817610063  L 52.6866672974978 4.19182389937108  L 50.5160645728283 4.87421383647799  L 46.1748591234893 5.26415094339623  L 46.076195363277 5.26415094339623  L 45.9775316030648 5.16666666666668  L 43.8069288783952 4.38679245283019  C 43.8069288783952 4.38679245283019  42.0309811945747 4.38679245283019  42.0309811945747 4.38679245283019  C 41.2416711128767 4.19182389937108  40.3536972709665 3.60691823899373  39.3670596688439 2.43710691823899  C 39.3670596688439 2.43710691823899  39.2683959086317 2.24213836477989  39.2683959086317 2.24213836477989  C 39.0710683882072 1.36477987421384  38.7750771075704 0.974842767295598  38.6764133473582 0.779874213836489  C 38.6764133473582 0.779874213836489  38.1830945462969 0.487421383647799  38.1830945462969 0.487421383647799  L 37.2951207043867 0  L 36.5048239850866 0.779874213836489  L 36.4071468624764 0.974842767295598  L 33.2499065356844 2.24213836477989  L 33.1512427754721 2.24213836477989  L 32.9539152550476 2.24213836477989  C 32.9539152550476 2.24213836477989  29.1050419691677 2.63207547169813  29.1050419691677 2.63207547169813  C 28.5140460454963 2.63207547169813  27.4287446831616 2.33962264150944  25.9487882799778 1.94968553459119  C 25.9487882799778 1.94968553459119  22.5942204327613 1.36477987421384  22.5942204327613 1.36477987421384  L 22.495556672549 1.36477987421384  L 20.522281468304 0.29245283018869  Z " fill-rule="nonzero" fill="#0079fe" stroke="none" fill-opacity="0.658823529411765" transform="matrix(1 0 0 1 448 500 )" />
  </g>
</svg>