<?xml version="1.0" encoding="utf-8"?>
<svg version="1.1" xmlns:xlink="http://www.w3.org/1999/xlink" width="160px" height="120px" xmlns="http://www.w3.org/2000/svg">
  <g transform="matrix(1 0 0 1 -430 -385 )">
    <path d="M 159.803680981595 64.6677471636953  L 159.803680981595 64.5705024311183  L 159.901840490798 64.4732576985413  L 160 64.4732576985413  L 160 64.3760129659643  L 156.858895705521 55.5267423014586  L 154.895705521472 53.9708265802269  L 154.895705521472 53.7763371150729  L 154.40490797546 50.1782820097244  L 150.282208588957 49.5948136142625  L 150.184049079755 49.5948136142625  L 149.98773006135 49.5948136142625  L 149.98773006135 49.4975688816856  L 149.889570552147 49.3030794165316  C 149.889570552147 49.3030794165316  149.889570552147 49.2058346839546  149.889570552147 49.2058346839546  C 149.398773006135 47.8444084278768  148.122699386503 46.385737439222  146.159509202454 44.8298217179903  C 145.079754601227 43.9546191247974  144 43.3711507293355  143.116564417178 43.1766612641815  C 142.429447852761 42.7876823338736  141.742331288344 42.4959481361426  141.251533742331 42.1069692058347  C 139.975460122699 41.2317666126418  135.558282208589 40.5510534846029  127.803680981595 40.3565640194489  C 127.803680981595 40.3565640194489  127.509202453988 40.3565640194489  127.509202453988 40.3565640194489  C 127.509202453988 40.3565640194489  126.625766871166 38.9951377633711  126.625766871166 38.9951377633711  C 126.233128834356 38.1199351701783  125.938650306748 37.3419773095624  125.840490797546 36.4667747163695  C 125.840490797546 35.3970826580227  127.116564417178 31.8962722852512  129.865030674847 26.1588330632091  C 129.865030674847 26.1588330632091  128.490797546012 21.8800648298217  128.490797546012 21.8800648298217  C 128.490797546012 21.8800648298217  127.018404907975 15.0729335494327  127.018404907975 15.0729335494327  C 126.822085889571 14.1004862236629  125.153374233129 13.22528363047  122.208588957055 12.3500810372771  C 121.619631901841 12.1555915721232  121.030674846626 11.9611021069692  120.441717791411 11.5721231766613  C 119.361963190184 11.0858995137763  118.576687116564 10.2106969205835  118.184049079755 9.14100486223662  C 117.59509202454 7.87682333873582  116.613496932515 6.80713128038898  115.239263803681 6.22366288492706  C 115.239263803681 6.22366288492706  115.141104294479 6.12641815235008  115.141104294479 6.12641815235008  L 115.042944785276 6.02917341977309  L 113.865030674847 0  L 109.153374233129 0.486223662884927  C 109.153374233129 0.486223662884927  108.662576687117 1.75040518638574  108.662576687117 1.75040518638574  C 108.073619631902 3.79254457050243  107.484662576687 4.76499189627228  106.79754601227 4.76499189627228  C 106.79754601227 4.76499189627228  103.754601226994 5.73743922204214  103.754601226994 5.73743922204214  C 101.889570552147 6.41815235008103  100.711656441718 7.19611021069692  100.122699386503 8.07131280388979  C 99.8282208588957 8.46029173419772  99.5337423312884 9.62722852512155  99.3374233128834 11.1831442463533  C 99.0429447852761 12.9335494327391  98.7484662576687 14.1977309562399  98.3558282208589 14.9756888168557  C 97.7668711656442 16.2398703403565  96.8834355828221 17.2123176661264  95.5092024539877 17.6985413290113  C 92.9570552147239 18.6709886547812  88.638036809816 17.0178282009724  82.6503067484663 12.8363047001621  C 82.6503067484663 12.8363047001621  74.601226993865 23.0470016207455  74.601226993865 23.0470016207455  L 75.5828220858896 27.2285251215559  L 75.680981595092 27.2285251215559  L 75.7791411042945 27.4230145867099  L 75.5828220858896 27.5202593192868  C 75.5828220858896 27.5202593192868  75.5828220858896 27.6175040518638  75.5828220858896 27.6175040518638  C 75.1901840490798 28.2009724473258  74.601226993865 28.5899513776337  73.9150920245399 28.6871961102107  C 73.1288343558282 28.8816855753646  72.3435582822086 28.5899513776337  71.4611042944785 28.0064829821718  C 70.6748466257669 27.4230145867099  68.4171779141104 26.9367909238249  64.7852760736196 26.742301458671  C 64.7852760736196 26.742301458671  63.1175460122699 26.645056726094  63.1175460122699 26.645056726094  L 60.6635582822086 26.45056726094  L 58.0122699386503 26.9367909238249  C 58.0122699386503 26.9367909238249  59.1911656441718 28.5899513776337  59.1911656441718 28.5899513776337  C 60.1727607361963 29.8541329011345  60.5644171779141 30.6320907617504  60.4662576687116 31.1183144246353  C 60.4662576687116 31.1183144246353  59.3865030674847 37.4392220421394  59.3865030674847 37.4392220421394  L 59.8773006134969 40.8427876823338  L 59.9754601226994 40.8427876823338  L 59.9754601226994 40.9400324149108  L 59.8773006134969 41.0372771474878  C 59.8773006134969 41.0372771474878  57.9141104294479 47.3581847649919  57.9141104294479 47.3581847649919  C 57.8159509202454 47.9416531604538  57.6196319018405 48.2333873581847  57.4233128834356 48.1361426256078  C 57.4233128834356 48.1361426256078  57.2279754601227 48.1361426256078  57.2279754601227 48.1361426256078  L 57.2279754601227 48.0388978930308  C 57.2279754601227 48.0388978930308  56.9325153374233 47.4554294975688  56.9325153374233 47.4554294975688  C 56.5398773006135 46.677471636953  56.3435582822086 46.385737439222  56.0490797546012 46.482982171799  C 55.8527607361963 46.580226904376  55.558282208589 46.9692058346839  55.4601226993865 47.8444084278768  C 55.0674846625767 49.5948136142625  53.9877300613497 51.0534846029173  52.32 52.6094003241491  C 52.32 52.6094003241491  50.5521472392638 53.9708265802269  50.5521472392638 53.9708265802269  L 49.6687116564417 54.4570502431118  L 49.5705521472393 54.4570502431118  L 43.1901840490798 54.5542949756888  L 40.7361963190184 56.8881685575364  L 40.638036809816 56.8881685575364  L 40.4417177914111 56.8881685575364  L 40.3435582822086 56.8881685575364  C 40.3435582822086 56.8881685575364  33.5705521472393 55.9157212317666  33.5705521472393 55.9157212317666  C 32.4907975460123 57.0826580226904  31.4110429447853 57.4716369529984  30.3312883435583 57.2771474878444  C 29.3496932515337 56.9854132901134  27.680981595092 57.3743922204214  25.3261349693252 58.2495948136142  C 25.3261349693252 58.2495948136142  22.5766871165644 61.4586709886547  22.5766871165644 61.4586709886547  L 22.478527607362 61.6531604538087  L 18.159509202454 61.7504051863857  L 18.159509202454 58.1523500810372  L 15.4110429447853 58.1523500810372  L 14.920245398773 59.708265802269  L 12.8588957055215 60.1944894651539  L 12.6625766871166 60.1944894651539  L 12.5653987730061 60.097244732577  C 12.5653987730061 60.097244732577  12.4662576687117 60.097244732577  12.4662576687117 60.097244732577  C 11.1901840490798 59.3192868719611  9.62061349693252 58.7358184764992  8.04907975460123 58.5413290113452  C 7.16662576687117 58.4440842787682  6.08588957055215 59.0275526742301  4.51533742331288 60.3889789303079  C 2.84662576687116 61.7504051863857  1.66871165644172 63.0145867098865  1.07975460122699 64.1815235008103  C 1.37423312883436 64.3760129659643  1.57055214723926 64.7649918962722  1.57055214723926 65.3484602917342  C 1.7678527607362 66.0291734197731  1.86503067484663 66.612641815235  1.86503067484663 67.3905996758509  C 1.7678527607362 68.1685575364667  1.47239263803681 68.6547811993517  1.07975460122699 69.0437601296596  C 0.588957055214724 69.3354943273906  0.295460122699386 70.2106969205834  0 71.7666126418152  C 0 71.7666126418152  1.57055214723926 72.836304700162  1.57055214723926 72.836304700162  L 3.73104294478528 70.5996758508914  L 6.47852760736196 73.6142625607779  L 6.47852760736196 73.8087520259319  L 7.06748466257669 79.1572123176661  L 7.06748466257669 79.2544570502431  L 6.96932515337423 79.2544570502431  L 5.39877300613497 86.6450567260939  C 5.39877300613497 86.6450567260939  5.00613496932516 86.6450567260939  5.00613496932516 86.6450567260939  C 2.74944785276074 86.6450567260939  1.27705521472393 86.7423014586709  0.687116564417178 87.1312803889789  C 0.786257668711656 87.6175040518638  1.7678527607362 88.3954619124797  3.43558282208589 89.4651539708265  C 3.43558282208589 89.4651539708265  4.80981595092025 89.2706645056726  4.80981595092025 89.2706645056726  L 5.10429447852761 89.2706645056726  L 5.20343558282209 89.3679092382495  C 5.20343558282209 89.3679092382495  8.44171779141104 92.479740680713  8.44171779141104 92.479740680713  C 9.71779141104295 93.5494327390599  9.62061349693252 95.3970826580226  7.95092024539877 98.1199351701782  C 7.95092024539877 98.1199351701782  8.44171779141104 101.134521880065  8.44171779141104 101.134521880065  L 9.71779141104295 101.426256077796  L 14.7239263803681 101.426256077796  L 12.1717791411043 103.760129659643  L 13.6441717791411 104.538087520259  L 15.6073619631902 105.607779578606  L 20.9089570552147 107.844408427877  L 21.0061349693252 107.941653160454  L 21.2024539877301 107.941653160454  C 21.2024539877301 107.941653160454  21.6932515337423 115.915721231767  21.6932515337423 115.915721231767  C 21.7914110429448 117.471636952998  22.9693251533742 118.638573743922  25.3261349693252 119.416531604538  C 25.3261349693252 119.416531604538  25.7177914110429 119.222042139384  25.7177914110429 119.222042139384  L 25.8169325153374 119.222042139384  L 25.9141104294479 119.222042139384  L 31.4110429447853 120  L 31.8036809815951 120  L 31.8036809815951 119.902755267423  C 31.8036809815951 119.902755267423  31.9018404907975 119.708265802269  31.9018404907975 119.708265802269  C 32.4907975460123 118.638573743922  32.8834355828221 117.860615883306  32.8834355828221 117.666126418152  C 32.8834355828221 117.666126418152  32.8834355828221 117.471636952998  32.8834355828221 117.471636952998  C 32.7852760736196 116.596434359805  33.1788957055215 115.81847649919  33.9631901840491 115.235008103728  C 34.7484662576687 114.651539708266  35.239263803681 114.068071312804  35.5337423312884 113.387358184765  C 35.5337423312884 113.387358184765  35.6328834355828 113.290113452188  35.6328834355828 113.290113452188  C 35.9263803680982 112.512155591572  36.9079754601227 112.317666126418  38.5776687116565 112.803889789303  C 38.5776687116565 112.803889789303  38.6748466257669 112.803889789303  38.6748466257669 112.803889789303  L 40.5408588957055 113.87358184765  L 46.7239263803681 115.040518638574  L 50.5521472392638 114.748784440843  C 50.5521472392638 114.748784440843  53.3015950920245 113.581847649919  53.3015950920245 113.581847649919  C 53.7923926380368 112.90113452188  54.1840490797546 112.609400324149  54.478527607362 112.414910858995  C 54.9693251533742 112.317666126418  55.6564417177914 112.512155591572  56.441717791411 113.192868719611  C 56.441717791411 113.192868719611  56.8343558282209 113.387358184765  56.8343558282209 113.387358184765  C 57.2279754601227 113.679092382496  57.5214723926381 114.262560777958  57.9141104294479 115.332252836305  C 57.9141104294479 115.332252836305  59.8773006134969 116.790923824959  59.8773006134969 116.790923824959  L 61.3496932515337 116.790923824959  L 61.4478527607362 116.790923824959  L 61.6451533742331 116.790923824959  L 61.7423312883435 116.790923824959  L 63.8036809815951 117.666126418152  L 67.6319018404908 117.374392220421  L 69.7914110429448 116.693679092382  L 75.3874846625767 117.179902755267  L 77.8414723926381 116.499189627228  C 77.8414723926381 116.499189627228  80.6871165644172 115.332252836305  80.6871165644172 115.332252836305  C 81.2760736196319 114.943273905997  81.9631901840491 114.651539708266  82.9447852760736 114.359805510535  C 82.9447852760736 114.359805510535  88.3435582822086 114.359805510535  88.3435582822086 114.359805510535  C 88.3435582822086 114.359805510535  90.3067484662577 113.679092382496  90.3067484662577 113.679092382496  C 91.0920245398773 113.192868719611  91.7791411042945 112.90113452188  92.3680981595092 112.90113452188  C 92.3680981595092 112.90113452188  95.5092024539877 112.90113452188  95.5092024539877 112.90113452188  L 96.9815950920245 113.970826580227  C 96.9815950920245 113.970826580227  101.20245398773 114.84602917342  101.20245398773 114.84602917342  C 101.791411042945 114.84602917342  102.38036809816 115.332252836305  103.361963190184 116.207455429498  C 103.361963190184 116.207455429498  105.128834355828 117.374392220421  105.128834355828 117.374392220421  L 105.325153374233 117.568881685575  L 109.349693251534 117.666126418152  L 109.447852760736 117.666126418152  L 111.312883435583 118.638573743922  L 113.766871165644 119.124797406807  L 113.865030674847 119.124797406807  L 115.926380368098 119.416531604538  L 116.515337423313 118.249594813614  L 115.631901840491 116.304700162074  L 115.239263803681 114.359805510535  L 115.239263803681 114.262560777958  L 115.141104294479 114.262560777958  L 115.435582822086 113.970826580227  L 116.80981595092 112.123176661264  L 116.80981595092 112.025931928687  L 116.907975460123 112.025931928687  L 116.907975460123 111.92868719611  L 118.282208588957 110.95623987034  L 117.98773006135 110.372771474878  C 117.98773006135 110.372771474878  117.398773006135 108.427876823339  117.398773006135 108.427876823339  C 117.398773006135 108.136142625608  117.104294478528 107.941653160454  116.515337423313 107.552674230146  C 116.515337423313 107.552674230146  115.042944785276 105.996758508914  115.042944785276 105.996758508914  L 113.177914110429 104.440842787682  L 113.079754601227 104.246353322528  L 112.883435582822 104.149108589951  L 112.981595092025 104.051863857374  L 112.981595092025 103.85737439222  L 113.276073619632 102.009724473258  L 113.276073619632 100.64829821718  L 112.39263803681 98.3144246353322  L 114.650306748466 97.8282009724473  L 115.730061349693 96.7585089141004  L 118.478527607362 96.7585089141004  L 121.226993865031 96.3695299837925  L 121.325153374233 96.3695299837925  L 123.19018404908 96.5640194489465  L 125.349693251534 95.7860615883306  L 127.803680981595 95.4943273905996  L 129.374233128834 94.8136142625607  L 129.472392638037 94.8136142625607  L 133.693251533742 94.0356564019448  L 134.38036809816 93.3549432739059  L 134.184049079755 92.57698541329  L 133.398773006135 91.2155591572123  L 133.398773006135 91.1183144246353  L 133.300613496933 91.0210696920583  L 133.300613496933 90.9238249594813  L 133.496932515337 89.4651539708265  L 133.59509202454 89.3679092382495  L 133.59509202454 87.3257698541329  L 133.20245398773 85.5753646677471  L 133.20245398773 85.4781199351701  C 133.20245398773 85.4781199351701  134.184049079755 83.5332252836304  134.184049079755 83.5332252836304  C 134.576687116564 82.6580226904375  135.067484662577 82.1717990275526  135.656441717791 82.1717990275526  C 135.656441717791 82.1717990275526  138.208588957055 82.3662884927066  138.208588957055 82.3662884927066  C 138.601226993865 82.3662884927066  139.092024539877 82.1717990275526  139.58282208589 81.7828200972447  C 139.58282208589 81.7828200972447  143.411042944785 76.6288492706645  143.411042944785 76.6288492706645  L 143.411042944785 76.5316045380875  L 143.509202453988 76.4343598055105  L 145.570552147239 74.7811993517017  C 145.570552147239 74.7811993517017  145.766871165644 74.5867098865478  145.766871165644 74.5867098865478  C 146.552147239264 74.3922204213938  147.042944785276 74.1004862236628  147.337423312883 73.9059967585089  C 147.337423312883 73.9059967585089  147.828220858896 73.4197730956239  147.828220858896 73.4197730956239  C 148.515337423313 72.5445705024311  149.104294478528 72.1555915721231  149.496932515337 72.1555915721231  C 149.496932515337 72.1555915721231  152.834355828221 72.836304700162  152.834355828221 72.836304700162  L 155.680981595092 71.4748784440842  L 155.779141104294 71.4748784440842  L 155.877300613497 71.4748784440842  L 157.546012269939 71.2803889789303  L 158.920245398773 70.6969205834683  L 158.920245398773 68.4602917341977  L 159.312883435583 65.6401944894651  L 159.312883435583 65.5429497568881  L 159.312883435583 65.4457050243112  L 159.803680981595 64.6677471636953  Z " fill-rule="nonzero" fill="#0079fe" stroke="none" transform="matrix(1 0 0 1 430 385 )" />
  </g>
</svg>