<?xml version="1.0" encoding="utf-8"?>
<svg version="1.1" xmlns:xlink="http://www.w3.org/1999/xlink" width="9px" height="8px" xmlns="http://www.w3.org/2000/svg">
  <g transform="matrix(1 0 0 1 -775 -542 )">
    <path d="M 7.33333333333334 3.74131780788737  L 8 2.9964761639759  L 8 2.90337095848698  C 8 2.90337095848698  5.61904761904761 1.04126684870833  5.61904761904761 1.04126684870833  C 4.38095238095236 0.203319999307939  3.33333333333334 -0.0759956171588416  2.57142857142857 0.0171095883300853  C 2.57142857142857 0.0171095883300853  1.5238095238095 0.389530410285819  1.5238095238095 0.389530410285819  C 1.5238095238095 0.389530410285819  1.5238095238095 2.34473972555339  1.5238095238095 2.34473972555339  C 1.33333333333332 2.9964761639759  1.04761904761902 3.74131780788737  0.380952380952361 4.29994904082096  C 0.380952380952361 4.29994904082096  0 4.67236986277669  0 4.67236986277669  L 0.952380952380955 5.78963232864387  L 1.04761904761902 5.78963232864387  L 1.33333333333332 6.53447397255534  C 1.33333333333332 6.53447397255534  2.47619047619045 7  2.47619047619045 7  C 3.14285714285716 6.53447397255534  3.61904761904764 6.34826356157748  4.09523809523812 6.44136876706641  C 4.09523809523812 6.44136876706641  6.09523809523809 6.81378958902214  6.09523809523809 6.81378958902214  C 6.09523809523809 6.81378958902214  6.19047619047621 6.1620531505996  6.19047619047621 6.1620531505996  C 6.28571428571427 4.85858027375455  6.76190476190475 4.11373862984311  7.33333333333334 3.74131780788737  Z " fill-rule="nonzero" fill="#0079fe" stroke="none" transform="matrix(1 0 0 1 775 542 )" />
  </g>
</svg>