<?xml version="1.0" encoding="utf-8"?>
<svg version="1.1" xmlns:xlink="http://www.w3.org/1999/xlink" width="46px" height="45px" xmlns="http://www.w3.org/2000/svg">
  <g transform="matrix(1 0 0 1 -691 -507 )">
    <path d="M 10.1725997842503 14.8652471928668  L 10.0733549083064 14.8652471928668  L 9.97411003236244 14.8652471928668  L 2.43149946062568 17.9170529079587  C 2.43149946062568 17.9170529079587  0.148867313915848 20.0828505122174  0.148867313915848 20.0828505122174  C -0.24811218985975 23.4299922642536  0.148867313915848 25.3988991772161  1.3398058252427 25.9895712511049  C 1.3398058252427 25.9895712511049  3.5231930960086 27.3678060901786  3.5231930960086 27.3678060901786  L 3.62243797195253 27.3678060901786  L 3.62243797195253 27.4662514358268  C 3.62243797195253 27.4662514358268  4.21790722761598 31.1087292248074  4.21790722761598 31.1087292248074  C 6.10355987055016 33.5698628660105  7.39374325782093 34.8496523594361  8.08845738942826 35.1449883963805  C 8.08845738942826 35.1449883963805  10.2718446601942 35.6372151246211  10.2718446601942 35.6372151246211  L 10.5695792880259 35.7356604702692  C 10.5695792880259 35.7356604702692  10.5695792880259 35.8341058159174  10.5695792880259 35.8341058159174  C 10.8673139158576 36.2278871985099  11.5620280474649 36.6216685811024  12.8522114347357 37.0154499636949  C 12.8522114347357 37.0154499636949  18.80690399137 37.3107860006392  18.80690399137 37.3107860006392  C 23.1736785329018 37.3107860006392  25.6548004314995 37.6061220375836  26.151024811219 38.0983487658242  C 26.6472491909385 38.4921301484167  26.7464940668824 39.476583604898  26.6472491909385 40.9532637896198  C 26.5480043149946 41.9377172461011  26.6472491909385 42.5283893199898  26.7464940668824 42.626834665638  C 26.7464940668824 42.626834665638  28.9298813376484 42.1346079373973  28.9298813376484 42.1346079373973  C 30.6170442286947 41.5439358635086  31.6094929881338 41.5439358635086  32.1057173678533 42.0361625917492  C 32.1057173678533 42.0361625917492  32.8996763754046 43.0206160482305  32.8996763754046 43.0206160482305  C 34.0906148867314 44.4972962329523  34.8845738942827 45.0879683068411  35.0830636461705 44.989522961193  C 35.6785329018339 44.7926322698967  36.3732470334412 44.2019601960079  37.0679611650486 43.2175067395267  C 37.0679611650486 43.2175067395267  37.2664509169363 42.9221707025823  37.2664509169363 42.9221707025823  L 39.0528586839267 44.0050695047117  C 39.0528586839267 44.0050695047117  40.1445523193096 43.1190613938786  40.1445523193096 43.1190613938786  C 40.4422869471414 41.7408265548048  41.1370010787487 41.051709135268  42.3279395900755 40.9532637896198  C 42.3279395900755 40.9532637896198  42.8241639697951 40.7563730983236  42.8241639697951 40.7563730983236  L 42.6256742179073 40.3625917157311  L 42.4271844660195 40.1657010244348  L 42.5264293419633 40.0672556787867  C 42.5264293419633 40.0672556787867  42.6256742179073 37.6061220375836  42.6256742179073 37.6061220375836  C 41.831715210356 36.4247778898061  40.839266450917 36.0309965072136  39.747572815534 36.2278871985099  C 38.6558791801511 36.5232232354542  37.8619201725998 36.5232232354542  37.5641855447681 36.1294418528617  C 37.3656957928803 35.8341058159174  37.3656957928803 35.6372151246211  37.3656957928803 35.2434337420286  C 36.670981661273 34.0620895942511  35.9762675296656 33.0776361377699  35.0830636461705 32.1916280269367  C 33.8921251348436 31.2071745704555  33.5943905070119 30.3211664596224  33.8921251348436 29.4351583487893  C 33.8921251348436 29.4351583487893  34.0906148867314 29.1398223118449  34.0906148867314 29.1398223118449  L 36.8694714131608 29.6320490400855  C 36.8694714131608 29.6320490400855  36.670981661273 27.9584781640674  36.670981661273 27.9584781640674  C 36.571736785329 26.9740247075861  36.670981661273 26.2849072880493  37.1672060409925 25.7926805598086  C 37.3656957928803 25.3988991772161  37.8619201725998 25.2020084859199  38.3581445523193 25.1035631402718  C 38.3581445523193 25.1035631402718  39.5490830636462 24.7097817576793  39.5490830636462 24.7097817576793  C 39.5490830636462 24.7097817576793  39.5490830636462 24.2175550294387  39.5490830636462 24.2175550294387  C 38.6558791801511 22.3470934621243  38.3581445523193 20.9688586230505  38.7551240560949 20.3781865491618  C 38.7551240560949 20.3781865491618  39.3505933117584 19.8859598209212  39.3505933117584 19.8859598209212  C 39.6483279395901 19.787514475273  40.6407766990292 19.9844051665693  42.0302049622438 20.4766318948099  C 42.0302049622438 20.4766318948099  42.1294498381877 20.575077240458  42.1294498381877 20.575077240458  C 42.1294498381877 20.575077240458  42.1294498381877 20.7719679317543  42.1294498381877 20.7719679317543  C 43.2211434735707 22.0517574251799  43.8166127292341 22.8393201903649  44.1143473570658 23.0362108816611  C 44.1143473570658 23.0362108816611  46 19.9844051665693  46 19.9844051665693  C 44.3128371089536 17.9170529079587  43.4196332254585 16.4403727232368  43.1218985976268 15.8497006493481  C 43.1218985976268 15.8497006493481  41.6332254584682 16.8341541058293  41.6332254584682 16.8341541058293  L 41.4347357065804 16.637263414533  L 37.4649406688242 15.6528099580518  L 37.3656957928803 15.6528099580518  C 37.3656957928803 15.6528099580518  37.3656957928803 15.5543646124037  37.3656957928803 15.5543646124037  C 35.6785329018339 14.7668018472187  34.6860841423949 13.8807937363856  34.5868392664509 12.9947856255524  C 34.5868392664509 12.9947856255524  32.2049622437972 11.9118868234231  32.2049622437972 11.9118868234231  L 32.2049622437972 9.6476438735162  C 32.2049622437972 9.6476438735162  36.571736785329 7.08806488666496  36.571736785329 7.08806488666496  C 36.3732470334412 5.90672073888748  36.0755124056095 4.72537659110997  35.57928802589 3.74092313462872  C 35.57928802589 3.74092313462872  34.8845738942827 2.36268829555497  34.8845738942827 2.36268829555497  C 34.8845738942827 2.36268829555497  31.9072276159655 2.65802433249935  31.9072276159655 2.65802433249935  C 30.5177993527508 3.2486964063881  29.2276159654801 3.54403244333248  27.9374325782093 3.54403244333248  C 27.9374325782093 3.54403244333248  24.8608414239482 2.85491502379559  24.8608414239482 2.85491502379559  L 24.8608414239482 1.77201622166623  L 24.3646170442287 1.67357087601811  L 23.4714131607336 1.37823483907372  L 23.2729234088458 0.78756276518498  L 23.2729234088458 0.689117419536862  L 23.1736785329018 0.393781382592476  L 23.1736785329018 0.295336036944357  L 23.1736785329018 0  L 22.975188781014 0.0984453456481191  L 22.7766990291262 2.65802433249935  C 22.7766990291262 2.65802433249935  22.6774541531823 3.54403244333248  22.6774541531823 3.54403244333248  C 22.4789644012945 4.03625917157311  22.2804746494067 4.33159520851746  22.4789644012945 4.52848589981373  C 22.975188781014 5.21760331935059  22.8759439050701 6.0051660845356  22.3797195253506 6.69428350407246  C 22.3797195253506 6.69428350407246  22.7766990291262 8.3678543800906  22.7766990291262 8.3678543800906  L 22.6774541531823 8.46629972573872  L 22.4789644012945 8.56474507138683  L 21.2880258899677 9.6476438735162  L 21.2880258899677 11.9118868234231  C 21.2880258899677 11.9118868234231  20.9902912621359 12.0103321690712  20.9902912621359 12.0103321690712  C 18.80690399137 12.9947856255524  17.3182308522114 13.4870123537931  16.4250269687163 13.4870123537931  C 16.4250269687163 13.4870123537931  12.0582524271845 13.1916763168487  12.0582524271845 13.1916763168487  L 10.1725997842503 14.8652471928668  Z " fill-rule="nonzero" fill="#0079fe" stroke="none" fill-opacity="0.658823529411765" transform="matrix(1 0 0 1 691 507 )" />
  </g>
</svg>