<?xml version="1.0" encoding="utf-8"?>
<svg version="1.1" xmlns:xlink="http://www.w3.org/1999/xlink" width="36px" height="37px" xmlns="http://www.w3.org/2000/svg">
  <g transform="matrix(1 0 0 1 -655 -548 )">
    <path d="M 35 7.27977839335181  L 34.3079096045198 5.68421052631581  L 33.2203389830508 4.08864265927977  L 32.0338983050847 3.78947368421054  L 31.9350282485875 3.78947368421054  L 31.9350282485875 3.6897506925208  L 31.8361581920904 3.6897506925208  L 30.8474576271187 3.19113573407204  L 30.6497175141243 3.19113573407204  L 30.2542372881356 3.29085872576178  L 28.9689265536723 3.49030470914127  L 28.8700564971752 3.49030470914127  L 28.6723163841808 3.39058171745153  L 27.3870056497175 2.89196675900278  L 27.3870056497175 2.79224376731303  L 27.2881355932203 2.79224376731303  L 27.2881355932203 2.69252077562329  L 26.2994350282486 1.69529085872578  L 25.2118644067797 0.598337950138498  L 24.2231638418079 0  L 23.135593220339 0.997229916897507  L 21.7514124293785 1.99445983379501  L 21.3559322033898 4.98614958448753  L 21.3559322033898 5.08587257617728  L 20.0706214689266 7.27977839335181  L 20.0706214689266 7.47922437673131  L 19.9717514124294 7.47922437673131  L 18.9830508474576 8.47645429362881  L 17.7966101694915 10.7700831024931  C 17.7966101694915 10.7700831024931  17.6977401129944 10.9695290858726  17.6977401129944 10.9695290858726  C 16.8079096045198 11.6675900277009  16.0169491525424 12.3656509695291  15.225988700565 12.9639889196676  C 15.225988700565 12.9639889196676  14.2372881355932 14.7590027700831  14.2372881355932 14.7590027700831  C 14.0395480225989 15.2576177285319  13.2485875706215 15.8559556786704  11.7655367231638 16.4542936288089  C 11.7655367231638 16.4542936288089  10.7768361581921 18.1495844875346  10.7768361581921 18.1495844875346  L 9.09604519774013 20.4432132963989  L 8.99717514124293 20.4432132963989  L 8.99717514124293 20.5429362880886  L 8.79943502824859 20.5429362880886  L 0.889830508474582 20.0443213296399  L 0 20.9418282548476  L 0 22.6371191135734  L 0.790960451977412 25.9279778393352  L 2.47175141242938 28.3213296398892  L 3.85593220338984 29.1191135734072  L 3.85593220338984 29.218836565097  C 3.85593220338984 29.218836565097  3.95480225988701 29.218836565097  3.95480225988701 29.218836565097  C 4.74576271186442 30.2160664819945  5.14124293785312 30.9141274238227  5.14124293785312 31.4127423822715  C 5.14124293785312 31.4127423822715  5.14124293785312 32.7091412742382  5.14124293785312 32.7091412742382  L 4.64689265536725 33.207756232687  L 4.94350282485876 33.4072022160665  L 5.33898305084746 33.4072022160665  L 5.93220338983051 32.2105263157895  L 6.12994350282487 32.2105263157895  L 7.71186440677967 32.7091412742382  L 7.81073446327684 33.207756232687  L 8.60169491525425 33.207756232687  L 8.40395480225988 32.6094182825485  L 8.30508474576272 32.409972299169  C 8.30508474576272 32.409972299169  9.39265536723164 30.7146814404432  9.39265536723164 30.7146814404432  C 9.59039548022601 30.2160664819945  10.0847457627119 30.016620498615  10.7768361581921 30.2160664819945  C 10.7768361581921 30.2160664819945  12.5564971751413 30.3157894736842  12.5564971751413 30.3157894736842  L 13.545197740113 29.0193905817174  L 13.545197740113 27.8227146814405  L 13.9406779661017 26.5263157894737  L 13.9406779661017 26.4265927977839  L 14.0395480225989 26.3268698060942  L 14.1384180790961 26.2271468144044  L 14.8305084745763 25.8282548476454  L 14.8305084745763 25.7285318559557  L 14.9293785310734 25.7285318559557  L 15.0282485875706 25.8282548476454  L 16.5112994350283 26.0277008310249  L 16.5112994350283 26.2271468144044  L 16.8079096045198 27.4238227146814  L 16.8079096045198 28.0221606648199  L 17.0056497175141 28.9196675900277  L 17.4011299435028 29.0193905817174  L 17.8954802259887 28.3213296398892  L 17.8954802259887 28.2216066481995  L 18.6864406779661 27.1246537396122  L 18.7853107344633 26.9252077562327  L 19.8728813559322 26.4265927977839  L 19.9717514124294 26.4265927977839  L 20.0706214689266 26.3268698060942  L 21.3559322033898 26.7257617728532  L 21.454802259887 26.7257617728532  L 21.6525423728814 26.8254847645429  L 22.3446327683616 28.2216066481995  L 22.3446327683616 29.617728531856  L 23.3333333333333 31.5124653739612  L 23.3333333333333 31.7119113573407  L 23.3333333333333 33.1080332409973  L 23.6299435028249 33.7063711911358  L 23.9265536723164 33.7063711911358  L 24.3220338983051 33.207756232687  L 24.4209039548023 33.0083102493075  L 25.6073446327684 33.7063711911358  L 25.7062146892655 33.7063711911358  L 25.8050847457627 33.7063711911358  L 25.8050847457627 33.9058171745152  L 25.8050847457627 34.005540166205  L 26.2005649717514 35.7008310249308  L 26.6949152542373 36  L 26.7937853107345 35.8005540166205  L 27.2881355932203 34.5041551246537  L 27.2881355932203 34.404432132964  L 27.3870056497175 34.2049861495845  L 27.4858757062147 34.2049861495845  L 27.5847457627119 34.2049861495845  L 28.2768361581921 33.8060941828255  L 28.3757062146893 33.8060941828255  L 28.3757062146893 33.7063711911358  L 29.2655367231638 33.7063711911358  L 29.0677966101695 33.207756232687  L 29.0677966101695 33.0083102493075  L 28.5734463276836 28.3213296398892  L 26.6949152542373 25.2299168975069  L 23.135593220339 21.0415512465374  L 23.0367231638418 20.9418282548476  L 22.8389830508474 18.2493074792244  L 21.6525423728814 16.1551246537396  L 21.6525423728814 16.0554016620499  L 21.5536723163842 15.9556786703601  L 21.6525423728814 15.7562326869806  L 22.2457627118644 13.1634349030471  L 22.4435028248588 13.1634349030471  L 22.6412429378531 13.1634349030471  L 28.8700564971752 12.7645429362881  L 32.2316384180791 10.9695290858726  C 32.2316384180791 10.9695290858726  32.3305084745763 10.8698060941828  32.3305084745763 10.8698060941828  C 33.5169491525424 10.4709141274238  34.3079096045198 9.97229916897507  34.5056497175141 9.47368421052632  C 34.8022598870057 8.97506925207756  35 8.27700831024932  35 7.27977839335181  Z " fill-rule="nonzero" fill="#0079fe" stroke="none" transform="matrix(1 0 0 1 655 548 )" />
  </g>
</svg>