<?xml version="1.0" encoding="utf-8"?>
<svg version="1.1" xmlns:xlink="http://www.w3.org/1999/xlink" width="70px" height="72px" xmlns="http://www.w3.org/2000/svg">
  <g transform="matrix(1 0 0 1 -588 -576 )">
    <path d="M 1.28169014084508 43.0445344129555  L 0.394366197183104 44.1133603238866  C 0.394366197183104 44.1133603238866  0 45.3765182186235  0 45.3765182186235  C 0.59154929577467 45.3765182186235  1.38028169014085 44.9878542510122  2.16901408450706 44.4048582995951  C 2.16901408450706 44.4048582995951  2.26760563380283 44.3076923076923  2.26760563380283 44.3076923076923  L 2.46478873239437 44.3076923076923  L 6.40845070422535 43.8218623481782  L 8.97183098591552 42.5587044534413  L 9.95774647887326 43.919028340081  L 10.1549295774648 44.0161943319838  L 8.97183098591552 45.8623481781376  L 10.3521126760563 47.2226720647773  L 10.3521126760563 47.3198380566801  L 10.3521126760563 47.6113360323887  L 9.36619718309859 51.6923076923077  L 11.9295774647888 53.5384615384616  L 16.5633802816902 53.7327935222672  C 16.5633802816902 53.7327935222672  15.8732394366197 54.6072874493927  15.8732394366197 54.6072874493927  C 12.9154929577465 58.2024291497975  11.5352112676056 60.3400809716599  11.6338028169014 61.0202429149798  C 11.6338028169014 61.0202429149798  13.4084507042254 61.4089068825911  13.4084507042254 61.4089068825911  C 15.7746478873239 61.6032388663967  17.1549295774648 62.2834008097166  17.6478873239437 63.1578947368421  C 18.2394366197183 64.3238866396761  18.830985915493 65.4898785425101  19.3239436619719 66.8502024291498  C 19.3239436619719 66.8502024291498  21.9859154929578 68.3076923076923  21.9859154929578 68.3076923076923  L 23.6619718309859 68.5991902834008  L 27.112676056338 65.6842105263158  L 28.887323943662 68.3076923076923  L 28.887323943662 68.4048582995951  L 28.9859154929578 68.502024291498  L 29.5774647887324 70.9311740890688  L 31.056338028169 71.2226720647773  L 33.3239436619718 72  L 33.9154929577465 71.8056680161943  L 33.9154929577465 71.7085020242915  L 33.5211267605634 69.1821862348178  L 33.4225352112676 69.085020242915  L 32.1408450704226 63.3522267206478  L 32.1408450704226 63.1578947368421  L 32.9295774647887 59.1740890688259  L 33.1267605633803 59.2712550607287  L 33.4225352112676 59.2712550607287  L 36.0845070422535 59.4655870445344  L 39.4366197183099 57.0364372469636  C 39.4366197183099 57.0364372469636  39.7323943661972 57.2307692307692  39.7323943661972 57.2307692307692  C 41.5070422535211 58.5910931174089  42.6901408450704 59.6599190283401  43.2816901408451 60.4372469635627  C 43.8732394366197 60.2429149797571  44.9577464788733 59.1740890688259  46.4366197183099 57.5222672064777  C 46.4366197183099 57.5222672064777  46.5352112676056 57.4251012145749  46.5352112676056 57.4251012145749  L 46.7323943661972 57.2307692307692  L 51.6619718309859 58.4939271255061  L 53.830985915493 56.744939271255  L 53.9295774647887 56.6477732793522  L 54.0281690140845 56.5506072874494  L 54.1267605633803 56.5506072874494  L 54.2253521126761 56.6477732793522  L 56.2957746478873 57.0364372469636  L 63 51.2064777327935  L 65.0704225352113 51.7894736842105  L 65.1690140845071 51.8866396761133  L 65.2676056338028 51.9838056680162  L 65.3661971830986 52.080971659919  L 65.8591549295775 52.9554655870445  L 66.3521126760564 52.3724696356275  L 66.4507042253521 52.3724696356275  L 66.4507042253521 52.2753036437247  L 66.5492957746479 52.2753036437247  L 68.5211267605634 51.2064777327935  L 70 49.8461538461539  L 69.6056338028169 46.834008097166  L 69.3098591549296 46.4453441295547  C 69.3098591549296 46.4453441295547  67.4366197183099 47.2226720647773  67.4366197183099 47.2226720647773  C 66.8450704225352 47.417004048583  66.3521126760564 47.6113360323887  65.6619718309859 47.6113360323887  C 65.6619718309859 47.6113360323887  63.4929577464789 47.6113360323887  63.4929577464789 47.6113360323887  C 62.8028169014085 47.5141700404858  62.4084507042254 47.3198380566801  62.112676056338 46.9311740890688  C 62.112676056338 46.9311740890688  61.9154929577465 43.8218623481782  61.9154929577465 43.8218623481782  C 61.2253521126761 43.4331983805668  60.9295774647887 43.2388663967611  60.6338028169014 43.2388663967611  C 60.6338028169014 43.2388663967611  60.1408450704225 43.4331983805668  60.1408450704225 43.4331983805668  L 59.4507042253521 43.8218623481782  L 58.0704225352113 44.1133603238866  L 57.6760563380282 44.1133603238866  L 57.5774647887324 43.919028340081  L 56.7887323943662 42.5587044534413  L 56.6901408450704 41.2955465587045  L 57.4788732394366 37.6032388663968  L 57.5774647887324 37.6032388663968  L 57.5774647887324 37.5060728744939  L 58.4647887323944 35.6599190283401  L 55.7042253521127 33.2307692307692  L 55.6056338028169 33.1336032388664  L 55.5070422535211 33.0364372469636  L 55.5070422535211 30.2186234817814  L 55.6056338028169 30.1214574898785  L 57.1830985915493 25.6518218623482  L 56.1971830985916 23.2226720647773  L 55.3098591549296 23.0283400809716  L 54.2253521126761 23.1255060728745  L 53.1408450704225 24.7773279352227  L 51.7605633802817 23.8056680161943  L 50.3802816901409 23.0283400809716  L 49.2957746478873 20.3076923076923  L 48.9014084507042 18.3643724696356  L 48.9014084507042 18.17004048583  L 48.8028169014084 18.0728744939271  L 49.0985915492958 17.8785425101215  L 50.3802816901409 16.1295546558704  L 50.6760563380282 15.9352226720648  L 50.7746478873239 15.9352226720648  L 51.7605633802817 15.7408906882591  L 52.8450704225352 15.4493927125506  L 57.9718309859155 15.255060728745  L 58.0704225352113 15.255060728745  L 58.7605633802817 15.5465587044534  L 58.9577464788733 15.6437246963563  L 59.7464788732395 15.9352226720648  L 61.1267605633803 15.3522267206478  L 62.3098591549296 14.4777327935223  L 62.9014084507042 13.5060728744939  L 63 13.0202429149798  L 62.9014084507042 10.8825910931174  L 61.8169014084507 10.6882591093117  C 61.8169014084507 10.6882591093117  59.7464788732395 11.3684210526316  59.7464788732395 11.3684210526316  C 59.1549295774648 12.0485829959514  58.4647887323944 12.5344129554656  57.774647887324 12.5344129554656  C 57.0845070422535 12.5344129554656  56.4929577464789 11.9514170040486  55.9014084507042 10.8825910931174  C 55.9014084507042 10.8825910931174  55.8028169014085 10.8825910931174  55.8028169014085 10.8825910931174  L 55.8028169014085 10.7854251012146  L 55.7042253521127 9.42510121457491  L 55.7042253521127 9.23076923076923  L 55.8028169014085 7.9676113360324  L 54.7183098591549 5.34412955465587  L 52.6478873239437 5.92712550607287  L 51.7605633802817 6.70445344129555  L 52.056338028169 9.61943319838057  L 48.8028169014084 8.16194331983806  L 49.5915492957747 9.91093117408908  L 49.6901408450704 10.0080971659919  L 49.6901408450704 10.2024291497976  L 49.3943661971831 12.1457489878543  L 49.3943661971831 12.3400809716599  L 49.2957746478873 12.3400809716599  L 47.4225352112676 14.9635627530364  L 44.3661971830986 16.8097165991903  C 44.3661971830986 16.8097165991903  44.0704225352113 18.5587044534413  44.0704225352113 18.5587044534413  C 43.9718309859155 18.8502024291498  44.3661971830986 19.6275303643725  44.8591549295775 20.5991902834008  C 44.8591549295775 20.5991902834008  44.9577464788733 20.6963562753036  44.9577464788733 20.6963562753036  L 44.9577464788733 20.7935222672065  L 45.1549295774648 23.3198380566802  L 45.1549295774648 23.6113360323887  L 45.056338028169 23.7085020242915  L 43.8732394366197 25.2631578947368  L 43.774647887324 25.3603238866397  L 43.6760563380282 25.3603238866397  L 42.7887323943662 25.9433198380567  L 42.6901408450704 25.9433198380567  L 42.5915492957747 25.9433198380567  L 42.4929577464789 25.9433198380567  L 42.3943661971831 25.9433198380567  C 42.3943661971831 25.9433198380567  40.1267605633803 25.4574898785425  40.1267605633803 25.4574898785425  C 39.7323943661972 25.4574898785425  39.2394366197183 25.6518218623482  38.7464788732394 26.0404858299595  C 38.7464788732394 26.0404858299595  37.7605633802817 27.1093117408907  37.7605633802817 27.1093117408907  C 37.7605633802817 27.1093117408907  36.9718309859155 28.080971659919  36.9718309859155 28.080971659919  C 36.4788732394366 28.9554655870445  35.7887323943662 29.1497975708502  34.7042253521127 28.9554655870445  C 34.0140845070423 28.8582995951417  33.8169014084507 28.1781376518219  34.0140845070423 27.3036437246964  C 34.0140845070423 27.3036437246964  34.0140845070423 26.6234817813765  34.0140845070423 26.6234817813765  L 33.9154929577465 25.9433198380567  C 33.9154929577465 25.9433198380567  33.5211267605634 26.4291497975708  33.5211267605634 26.4291497975708  C 33.2253521126761 26.8178137651822  32.9295774647887 26.914979757085  32.5352112676056 26.914979757085  C 32.1408450704226 26.8178137651822  31.8450704225352 26.4291497975708  31.6478873239437 25.748987854251  C 31.6478873239437 25.748987854251  31.6478873239437 25.6518218623482  31.6478873239437 25.6518218623482  L 31.4507042253521 23.417004048583  L 30.9577464788732 21.2793522267206  L 29.9718309859155 20.3076923076923  L 29.8732394366197 20.2105263157895  L 27.8028169014085 15.5465587044534  L 27.7042253521127 15.4493927125506  L 27.112676056338 14.0890688259109  L 27.112676056338 13.9919028340081  L 27.0140845070423 13.9919028340081  L 27.0140845070423 13.8947368421053  L 26.6197183098592 11.3684210526316  L 26.3239436619718 10.9797570850202  C 26.3239436619718 10.9797570850202  25.9295774647887 11.2712550607287  25.9295774647887 11.2712550607287  C 25.2394366197183 12.0485829959514  24.7464788732395 12.5344129554656  24.5492957746479 12.5344129554656  C 24.2535211267606 12.5344129554656  23.7605633802817 12.1457489878543  22.9718309859155 11.5627530364373  C 22.9718309859155 11.5627530364373  21.4929577464789 10.8825910931174  21.4929577464789 10.8825910931174  L 21.2957746478873 10.7854251012146  L 21.1971830985915 10.6882591093117  L 21.1971830985915 10.5910931174089  L 21.0985915492958 10.3967611336033  L 21 8.45344129554657  L 20.7042253521127 6.99595141700406  L 19.9154929577465 5.05263157894738  C 19.9154929577465 5.05263157894738  19.1267605633803 5.05263157894738  19.1267605633803 5.05263157894738  C 19.2253521126761 5.82995951417004  19.1267605633803 6.51012145748989  18.9295774647888 6.99595141700406  C 18.7323943661972 7.57894736842106  18.3380281690141 7.9676113360324  17.7464788732394 8.45344129554657  C 17.5492957746479 9.1336032388664  17.2535211267606 9.61943319838057  16.8591549295775 10.0080971659919  C 16.2676056338028 10.5910931174089  15.7746478873239 10.5910931174089  15.1830985915493 10.2024291497976  C 15.1830985915493 10.2024291497976  14.887323943662 10.1052631578947  14.887323943662 10.1052631578947  C 14.2957746478873 9.91093117408908  14.1971830985916 9.23076923076923  14.2957746478873 7.9676113360324  C 14.2957746478873 7.9676113360324  14.2957746478873 7.48178137651823  14.2957746478873 7.48178137651823  C 14.2957746478873 7.48178137651823  13.0140845070423 6.70445344129555  13.0140845070423 6.70445344129555  C 12.5211267605634 6.51012145748989  12.2253521126761 5.92712550607287  12.1267605633803 5.05263157894738  C 12.1267605633803 5.05263157894738  12.6197183098592 0.680161943319855  12.6197183098592 0.680161943319855  L 12.4225352112676 0  L 10.8450704225352 1.74898785425102  L 9.7605633802817 2.52631578947368  C 9.7605633802817 2.52631578947368  9.46478873239439 3.20647773279353  9.46478873239439 3.20647773279353  C 9.85915492957746 4.08097165991904  10.056338028169 4.76113360323887  10.056338028169 5.24696356275304  C 10.056338028169 6.21862348178138  9.56338028169016 6.99595141700406  8.67605633802818 7.28744939271255  C 8.67605633802818 7.28744939271255  6.90140845070423 7.9676113360324  6.90140845070423 7.9676113360324  L 6.40845070422535 8.25910931174089  L 6.30985915492958 8.93927125506074  C 6.30985915492958 8.93927125506074  6.30985915492958 11.6599190283401  6.30985915492958 11.6599190283401  C 6.40845070422535 12.5344129554656  6.50704225352115 13.0202429149798  6.80281690140846 13.0202429149798  C 7.3943661971831 13.3117408906883  8.08450704225354 13.3117408906883  8.67605633802818 12.8259109311741  C 8.67605633802818 12.8259109311741  9.26760563380282 12.5344129554656  9.26760563380282 12.5344129554656  L 11.1408450704225 16.8097165991903  L 11.1408450704225 16.9068825910931  C 11.1408450704225 16.9068825910931  11.1408450704225 17.1012145748988  11.1408450704225 17.1012145748988  C 10.4507042253521 24.7773279352227  9.7605633802817 29.1497975708502  8.87323943661972 30.3157894736842  C 8.47887323943664 30.7044534412956  8.18309859154931 30.8987854251012  7.59154929577467 30.995951417004  C 6.90140845070423 30.995951417004  6.40845070422535 30.8987854251012  5.71830985915494 30.5101214574899  C 3.15492957746481 35.5627530364373  1.47887323943662 38.1862348178138  0.690140845070439 38.5748987854251  C 0.690140845070439 38.5748987854251  0.788732394366209 38.5748987854251  0.788732394366209 38.5748987854251  C 0.394366197183104 38.6720647773279  0.197183098591566 39.9352226720648  0.295774647887335 42.1700404858299  C 0.295774647887335 42.1700404858299  0.887323943661977 42.6558704453441  0.887323943661977 42.6558704453441  L 1.08450704225354 42.8502024291498  L 1.28169014084508 43.0445344129555  Z " fill-rule="nonzero" fill="#0079fe" stroke="none" fill-opacity="0.658823529411765" transform="matrix(1 0 0 1 588 576 )" />
  </g>
</svg>