<?xml version="1.0" encoding="utf-8"?>
<svg version="1.1" xmlns:xlink="http://www.w3.org/1999/xlink" width="37px" height="50px" xmlns="http://www.w3.org/2000/svg">
  <g transform="matrix(1 0 0 1 -720 -563 )">
    <path d="M 32.1570680628272 2.22437137330753  L 29.0575916230367 1.93423597678917  L 28.9607329842932 1.83752417794971  L 26.8298429319372 0  C 26.8298429319372 0  25.6675392670157 0.580270793036745  25.6675392670157 0.580270793036745  C 24.8926701570681 2.32108317214701  23.8272251308901 3.38491295938104  22.4712041884817 3.86847195357833  C 22.0837696335079 4.06189555125724  21.5994764397906 3.96518375241779  21.3089005235602 3.6750483558994  C 20.9214659685864 3.19148936170211  21.1151832460733 2.12765957446807  21.7931937172775 0.483558994197292  C 21.7931937172775 0.483558994197292  18.5968586387435 2.51450676982591  18.5968586387435 2.51450676982591  L 18.5 2.70793036750482  L 18.4031413612565 2.70793036750482  L 15.5942408376964 2.70793036750482  L 13.0759162303665 3.96518375241779  L 13.0759162303665 4.15860735009669  L 10.3638743455497 4.25531914893617  L 8.9109947643979 5.02901353965182  L 8.23298429319372 6.38297872340425  L 8.03926701570682 6.57640232108315  C 8.03926701570682 6.57640232108315  4.84293193717278 6.57640232108315  4.84293193717278 6.57640232108315  C 4.26178010471202 6.57640232108315  3.00261780104714 7.54352030947773  0.968586387434555 9.57446808510639  C 1.93717277486911 9.96131528046419  2.42146596858639 10.348162475822  2.61518324607329 10.6382978723404  C 2.61518324607329 10.6382978723404  2.71204188481677 11.2185686653772  2.71204188481677 11.2185686653772  L 2.71204188481677 11.1218568665377  L 4.1649214659686 16.5377176015474  L 4.26178010471202 16.8278529980658  L 4.26178010471202 17.2147001934236  L 4.1649214659686 17.2147001934236  L 3.9712041884817 17.3114119922631  L 3.87434554973822 17.3114119922631  L 0 22.6305609284333  C 0 22.6305609284333  0.1937172774869 23.9845261121857  0.1937172774869 23.9845261121857  C 0.774869109947655 23.5009671179884  1.25916230366493 23.4042553191489  1.64659685863873 23.5976789168278  C 2.13089005235601 23.7911025145068  2.32460732984291 24.5647969052224  2.13089005235601 25.7253384912959  C 1.93717277486911 27.5628626692456  2.22774869109949 29.5938104448743  3.09947643979057 31.5280464216634  C 3.09947643979057 31.5280464216634  4.45549738219898 32.9787234042553  4.45549738219898 32.9787234042553  C 4.93979057591625 33.4622823984526  5.13350785340315 33.9458413926499  5.03664921465968 34.4294003868472  C 5.03664921465968 34.4294003868472  4.3586387434555 35.3965183752418  4.3586387434555 35.3965183752418  C 4.3586387434555 35.3965183752418  5.23036649214658 36.5570599613152  5.23036649214658 36.5570599613152  C 5.71465968586386 37.5241779497098  5.32722513089005 39.1682785299806  4.1649214659686 41.4893617021276  C 4.1649214659686 41.4893617021276  5.42408376963353 43.6170212765957  5.42408376963353 43.6170212765957  L 5.61780104712043 44.100580270793  C 5.61780104712043 44.100580270793  6.39267015706809 43.6170212765957  6.39267015706809 43.6170212765957  C 7.65183246073297 42.4564796905222  8.717277486911 42.1663442940038  9.58900523560207 42.4564796905222  C 10.1701570680628 42.6499032882011  10.4607329842932 43.1334622823984  10.5575916230366 43.6170212765957  C 10.6544502617801 44.2940038684719  9.87958115183245 45.4545454545454  8.13612565445024 47.1953578336557  C 8.13612565445024 47.1953578336557  6.78010471204189 48.9361702127659  6.78010471204189 48.9361702127659  C 6.78010471204189 48.9361702127659  7.45811518324606 50  7.45811518324606 50  C 8.42670157068062 49.1295938104448  9.20157068062828 48.8394584139264  9.68586387434555 49.0328820116054  C 10.2670157068063 49.0328820116054  11.913612565445 48.4526112185686  14.7225130890052 47.0019342359768  C 15.5942408376964 46.5183752417795  16.7565445026178 47.0019342359768  18.2094240837697 48.4526112185686  C 18.2094240837697 48.4526112185686  18.7905759162304 48.1624758220502  18.7905759162304 48.1624758220502  L 18.6937172774869 47.0019342359768  C 18.6937172774869 47.0019342359768  18.4031413612565 46.8085106382979  18.4031413612565 46.8085106382979  C 18.2094240837697 46.5183752417795  18.4031413612565 46.2282398452611  18.6937172774869 45.9381044487427  C 18.6937172774869 45.9381044487427  18.2094240837697 44.100580270793  18.2094240837697 44.100580270793  C 18.1125654450262 43.8104448742746  18.1125654450262 43.4235976789168  18.2094240837697 43.1334622823984  C 18.5 42.84332688588  18.8874345549738 42.6499032882011  19.2748691099476 42.4564796905222  C 19.2748691099476 42.4564796905222  20.1465968586388 41.6827852998065  20.1465968586388 41.6827852998065  L 19.6623036649215 40.5222437137331  L 19.6623036649215 40.4255319148936  L 19.7591623036649 40.4255319148936  C 19.7591623036649 40.4255319148936  19.7591623036649 40.3288201160541  19.7591623036649 40.3288201160541  C 20.1465968586388 39.7485493230174  20.1465968586388 39.2649903288201  20.0497382198953 38.9748549323017  C 19.6623036649215 38.2978723404255  19.9528795811519 37.8143133462282  20.7277486910995 37.137330754352  C 20.7277486910995 37.137330754352  21.7931937172775 36.1702127659574  21.7931937172775 36.1702127659574  L 21.5994764397906 35.9767891682785  L 21.3089005235602 35.6866537717601  L 22.5680628272251 35.1063829787234  C 22.5680628272251 35.1063829787234  22.5680628272251 33.5589941972921  22.5680628272251 33.5589941972921  C 22.5680628272251 32.9787234042553  23.0523560209424 32.2050290135396  24.4083769633508 31.237911025145  C 24.4083769633508 31.237911025145  24.9895287958115 30.7543520309477  24.9895287958115 30.7543520309477  C 24.9895287958115 30.7543520309477  23.5366492146597 29.110251450677  23.5366492146597 29.110251450677  C 23.0523560209424 28.4332688588008  23.2460732984293 27.5628626692456  24.1178010471204 26.6924564796905  C 24.1178010471204 26.6924564796905  24.1178010471204 26.4990328820116  24.1178010471204 26.4990328820116  L 27.1204188481675 23.9845261121857  C 27.1204188481675 23.9845261121857  27.217277486911 23.3075435203095  27.217277486911 23.3075435203095  C 26.6361256544503 23.1141199226306  26.4424083769634 22.0502901353965  26.7329842931937 20.4061895551257  C 27.1204188481675 17.7949709864603  28.282722513089 16.5377176015474  30.3167539267016 16.247582205029  C 30.3167539267016 16.247582205029  30.5104712041885 16.247582205029  30.5104712041885 16.247582205029  L 31.7696335078534 16.9245647969052  L 33.1256544502618 16.9245647969052  L 34.3848167539267 15.3771760154739  L 34.4816753926702 15.2804642166344  L 36.0314136125654 14.3133462282398  L 35.8376963350785 12.9593810444874  L 35.8376963350785 12.669245647969  L 36.0314136125654 12.4758220502901  L 36.4188481675393 12.2823984526112  L 36.9031413612566 11.7021276595745  L 37 11.605415860735  C 37 11.605415860735  36.0314136125654 9.96131528046419  36.0314136125654 9.96131528046419  C 35.0628272251309 8.70406189555125  34.1910994764398 7.54352030947773  33.6099476439791 6.18955512572534  C 33.1256544502618 5.31914893617021  33.2225130890053 4.35203094777563  33.9005235602094 3.28820116054159  C 33.9005235602094 3.28820116054159  32.1570680628272 2.22437137330753  32.1570680628272 2.22437137330753  Z " fill-rule="nonzero" fill="#0079fe" stroke="none" fill-opacity="0.658823529411765" transform="matrix(1 0 0 1 720 563 )" />
  </g>
</svg>