<?xml version="1.0" encoding="utf-8"?>
<svg version="1.1" xmlns:xlink="http://www.w3.org/1999/xlink" width="63px" height="49px" xmlns="http://www.w3.org/2000/svg">
  <g transform="matrix(1 0 0 1 -690 -606 )">
    <path d="M 58.1861198738171 16.3483457844183  C 59.0662460567823 16.2527214514408  59.5552050473186 15.8702241195304  59.7507886435332 15.3921024546425  C 59.7507886435332 15.3921024546425  59.7507886435332 15.2964781216649  59.7507886435332 15.2964781216649  L 59.8485804416404 15.0096051227321  L 60.2397476340694 15.0096051227321  L 62 14.9139807897545  C 62 14.9139807897545  62 13.6708644610459  62 13.6708644610459  C 61.5110410094637 13.6708644610459  61.0220820189274 13.4796157950907  60.5331230283912 13.0971184631804  C 60.5331230283912 13.0971184631804  57.5993690851735 10.5152614727855  57.5993690851735 10.5152614727855  L 57.5993690851735 10.4196371398079  L 56.3280757097792 6.78591248665953  C 56.3280757097792 6.78591248665953  54.5678233438486 5.06467449306299  54.5678233438486 5.06467449306299  C 52.416403785489 4.96905016008538  50.7539432176656 4.96905016008538  49.5804416403786 5.06467449306299  C 49.5804416403786 5.06467449306299  49.1892744479496 5.16029882604055  49.1892744479496 5.16029882604055  L 49.2870662460568 6.30779082177159  L 49.2870662460568 6.49903948772681  L 49.2870662460568 6.78591248665953  L 48.9936908517351 6.78591248665953  L 47.4290220820189 7.45528281750269  C 47.4290220820189 7.45528281750269  47.1356466876972 7.26403415154747  47.1356466876972 7.26403415154747  C 45.8643533123028 6.02091782283887  45.0820189274448 5.54279615795093  44.5930599369086 5.82966915688365  C 41.1703470031546 7.45528281750269  39.2145110410095 8.22027748132335  38.6277602523659 7.83778014941302  C 38.2365930599369 7.93340448239063  37.7476340694007 8.31590181430096  37.0630914826498 8.98527214514407  C 37.0630914826498 8.98527214514407  36.7697160883281 9.36776947705445  36.7697160883281 9.36776947705445  C 36.7697160883281 9.36776947705445  36.3785488958991 8.98527214514407  36.3785488958991 8.98527214514407  C 35.4006309148265 8.1246531483458  34.9116719242902 7.35965848452508  34.9116719242902 6.78591248665953  C 34.9116719242902 6.4034151547492  35.596214511041 5.63842049092848  36.7697160883281 4.39530416221983  C 38.1388012618297 2.86531483457845  38.8233438485804 2.00469583778013  38.8233438485804 1.81344717182496  C 38.8233438485804 1.81344717182496  38.5299684542587 1.33532550693702  38.5299684542587 1.33532550693702  C 38.1388012618297 1.14407684098186  37.3564668769716 1.52657417289219  36.3785488958991 2.29156883671291  C 35.4006309148265 2.96093916755601  34.813880126183 3.24781216648879  34.4227129337539 3.15218783351123  C 34.2271293375394 3.15218783351123  34.0315457413249 2.86531483457845  33.9337539432177 2.38719316969051  C 33.9337539432177 2.38719316969051  33.8359621451105 2.19594450373535  33.8359621451105 2.19594450373535  L 32.9558359621451 0.665955176093918  L 31.0977917981073 1.81344717182496  L 30.9022082018928 2.00469583778013  L 30.8044164037855 1.81344717182496  C 30.8044164037855 1.81344717182496  30.7066246056782 1.81344717182496  30.7066246056782 1.81344717182496  C 29.3375394321767 1.04845250800425  28.0662460567823 0.570330843116309  26.794952681388 0.0922091782283685  C 25.9148264984227 -0.194663820704352  25.0347003154574 0.187833511205978  24.1545741324921 1.23970117395947  C 24.1545741324921 1.23970117395947  25.0347003154574 2.67406616862329  25.0347003154574 2.67406616862329  C 25.6214511041009 4.10843116328711  25.9148264984227 5.06467449306299  25.6214511041009 5.73404482390609  C 25.5236593059937 6.02091782283887  25.2302839116719 6.30779082177159  24.8391167192429 6.30779082177159  C 24.2523659305994 6.49903948772681  23.3722397476341 6.30779082177159  22.2965299684543 5.44717182497332  C 21.4164037854889 4.87342582710777  20.7318611987382 4.39530416221983  20.1451104100947 4.10843116328711  C 20.1451104100947 4.10843116328711  18.9716088328076 3.63030949839917  18.9716088328076 3.63030949839917  L 18.9716088328076 3.72593383137673  L 19.0694006309148 3.91718249733189  L 19.0694006309148 6.02091782283887  L 17.5047318611987 7.74215581643541  L 17.5047318611987 9.36776947705445  L 18.1892744479496 11.089007470651  L 18.2870662460568 11.1846318036286  L 17.211356466877 12.8102454642476  L 16.5268138801262 14.340234791889  L 16.5268138801262 14.4358591248666  L 15.0599369085173 15.8702241195304  L 12.6151419558359 21.320811099253  L 12.7129337539432 24.2851654215582  L 12.6151419558359 24.3807897545358  L 7.33438485804417 27.345144076841  L 7.04100946372239 27.9188900747065  L 7.72555205047317 29.4488794023479  L 7.72555205047317 29.5445037353255  L 7.72555205047317 29.6401280683031  L 7.23659305993689 31.6482390608324  L 5.08517350157728 31.3613660618997  L 4.596214511041 33.9432230522946  L 1.85804416403783 33.9432230522946  L 1.27129337539433 34.8994663820705  L 0.488958990536278 36.5250800426894  L 0 42.5494130202775  L 0.586750788643556 43.7925293489862  L 0.684542586750778 43.9837780149413  L 0.684542586750778 45.22689434365  L 1.85804416403783 46.6612593383138  L 1.95583596214511 46.852508004269  L 1.95583596214511 48  L 5.08517350157728 47.8087513340448  L 5.28075709779178 47.5218783351121  L 5.28075709779178 47.4262540021345  L 5.37854889589906 47.4262540021345  L 5.37854889589906 47.3306296691569  L 6.25867507886433 46.1831376734259  L 4.30283911671922 44.4618996798293  L 4.10725552050472 44.2706510138741  L 3.03154574132494 43.4100320170758  L 2.93375394321767 43.3144076840982  L 2.83596214511039 43.2187833511206  L 2.83596214511039 41.3062966915688  L 4.49842271293378 41.3062966915688  L 4.69400630914828 40.6369263607257  L 4.0094637223975 38.724439701174  L 7.82334384858044 38.724439701174  L 14.5709779179811 35.5688367129136  L 15.4511041009464 34.1344717182497  L 15.6466876971609 33.6563500533618  L 17.0157728706624 34.2300960512273  L 17.1135646687697 34.2300960512273  L 17.211356466877 34.5169690501601  L 17.7981072555205 35.1863393810032  L 18.4826498422713 35.0907150480256  L 18.2870662460568 33.6563500533618  L 20.5362776025237 33.6563500533618  L 22.6876971608833 34.0388473852721  L 23.5678233438486 32.6044823906083  L 23.6656151419558 32.5088580576308  L 23.6656151419558 32.4132337246531  L 23.8611987381703 32.3176093916756  L 26.2082018927445 31.6482390608324  L 26.5993690851735 28.3013874066168  L 29.0441640378549 30.4051227321238  L 30.0220820189274 30.596371398079  L 30.5110410094637 30.0226254002134  L 30.2176656151419 22.7551760939168  L 30.2176656151419 22.5639274279616  L 30.2176656151419 22.1814300960512  L 31.8801261829653 22.468303094984  L 31.9779179810726 22.468303094984  L 32.1735015772871 22.5639274279616  L 32.2712933753943 22.6595517609392  L 34.9116719242902 27.345144076841  L 38.2365930599369 26.9626467449306  L 38.8233438485804 26.7713980789755  L 39.3123028391167 25.6239060832444  L 38.3343848580442 24.8589114194237  L 38.0410094637224 24.4764140875133  L 40.2902208201893 23.7114194236927  L 40.4858044164038 23.6157950907151  L 40.5835962145111 23.5201707577374  L 41.4637223974763 24.4764140875133  L 42.2460567823344 24.093916755603  L 42.2460567823344 22.6595517609392  L 42.7350157728707 22.5639274279616  C 42.7350157728707 22.5639274279616  44.397476340694 22.5639274279616  44.397476340694 22.5639274279616  C 45.5709779179811 22.6595517609392  46.4511041009464 23.2332977588047  47.1356466876972 24.093916755603  C 47.1356466876972 24.093916755603  47.3312302839117 24.4764140875133  47.3312302839117 24.4764140875133  C 47.3312302839117 24.4764140875133  48.0157728706625 22.1814300960512  48.0157728706625 22.1814300960512  C 48.4069400630915 21.6076840981857  49.1892744479496 21.5120597652081  50.3627760252366 21.9901814300961  C 50.3627760252366 21.9901814300961  50.5583596214511 22.0858057630736  50.5583596214511 22.0858057630736  L 50.5583596214511 22.1814300960512  C 50.5583596214511 22.1814300960512  50.6561514195584 22.2770544290288  50.6561514195584 22.2770544290288  C 50.7539432176656 22.3726787620064  50.9495268138802 22.468303094984  51.0473186119874 22.468303094984  C 51.5362776025237 22.2770544290288  53.2965299684543 21.1295624332977  56.1324921135647 18.9302027748133  C 56.1324921135647 17.4958377801494  56.9148264984227 16.7308431163287  58.1861198738171 16.3483457844183  Z " fill-rule="nonzero" fill="#0079fe" stroke="none" fill-opacity="0.658823529411765" transform="matrix(1 0 0 1 690 606 )" />
  </g>
</svg>