<?xml version="1.0" encoding="utf-8"?>
<svg version="1.1" xmlns:xlink="http://www.w3.org/1999/xlink" width="47px" height="37px" xmlns="http://www.w3.org/2000/svg">
  <g transform="matrix(1 0 0 1 -736 -514 )">
    <path d="M 32.1610169491525 10.4547945205479  C 31.0889830508474 9.56712328767122  30.2118644067797 7.9890410958904  29.3347457627119 5.52328767123287  C 26.5084745762712 5.52328767123287  24.8516949152542 5.03013698630136  24.0720338983051 4.04383561643835  C 23.4872881355932 3.15616438356163  22.3177966101695 2.56438356164383  20.6610169491525 2.07123287671232  C 20.6610169491525 2.07123287671232  20.1737288135593 1.97260273972603  20.1737288135593 1.97260273972603  L 20.6610169491525 0.295890410958887  L 20.3686440677966 0.0986301369862958  C 20.3686440677966 0.0986301369862958  19.8813559322034 0  19.8813559322034 0  C 18.7118644067797 0.591780821917803  17.9322033898305 1.18356164383561  17.6398305084746 1.97260273972603  C 17.25 2.76164383561642  16.7627118644068 3.45205479452055  16.1779661016949 3.94520547945205  C 15.6906779661017 5.52328767123287  15.2033898305085 6.31232876712329  14.7161016949153 6.31232876712329  C 14.4237288135593 6.41095890410959  14.2288135593221 6.21369863013697  14.0338983050847 5.91780821917808  C 14.0338983050847 5.91780821917808  13.2542372881356 5.22739726027396  13.2542372881356 5.22739726027396  C 12.6694915254237 4.93150684931507  12.0847457627118 4.63561643835615  11.5974576271186 4.63561643835615  C 11.5974576271186 4.63561643835615  10.6228813559322 4.83287671232877  10.6228813559322 4.83287671232877  C 9.94067796610169 5.52328767123287  8.96610169491524 6.01643835616438  7.50423728813558 6.21369863013697  C 7.50423728813558 6.21369863013697  3.8008474576271 6.01643835616438  3.8008474576271 6.01643835616438  C 2.63135593220338 5.42465753424657  2.14406779661016 4.24109589041094  2.4364406779661 2.76164383561642  C 2.4364406779661 2.76164383561642  1.07203389830511 2.26849315068491  1.07203389830511 2.26849315068491  L 0.389830508474554 4.24109589041094  L 0.389830508474554 4.33972602739727  L 0.292372881355943 4.43835616438356  L 0 4.83287671232877  L 0.877118644067775 5.03013698630136  L 1.07203389830511 5.03013698630136  L 1.16949152542372 5.12876712328766  C 1.16949152542372 5.12876712328766  1.16949152542372 5.22739726027396  1.16949152542372 5.22739726027396  C 2.82627118644066 7.4958904109589  4.09322033898304 8.97534246575342  4.77542372881354 9.36986301369863  C 5.16525423728815 9.56712328767122  6.33474576271187 9.96164383561644  8.38135593220341 10.5534246575342  C 8.38135593220341 10.5534246575342  11.8898305084746 11.8356164383562  11.8898305084746 11.8356164383562  C 12.9618644067797 12.3287671232877  14.0338983050847 14.4986301369863  15.2033898305085 18.345205479452  C 16.7627118644068 19.4301369863014  17.7372881355932 19.9232876712329  18.4194915254237 19.8246575342466  C 19.1016949152543 19.5287671232877  20.271186440678 18.8383561643836  21.9279661016949 17.7534246575342  C 21.9279661016949 17.7534246575342  22.0254237288136 17.6547945205479  22.0254237288136 17.6547945205479  L 22.1228813559322 17.5561643835616  L 22.3177966101695 17.6547945205479  L 24.0720338983051 18.0493150684931  L 24.2669491525424 18.0493150684931  L 24.2669491525424 18.345205479452  C 24.2669491525424 18.345205479452  24.1694915254237 18.641095890411  24.1694915254237 18.641095890411  C 23.5847457627119 21.0082191780822  23.0974576271186 22.3890410958904  22.7076271186441 22.7835616438356  C 22.7076271186441 22.7835616438356  20.3686440677966 22.8821917808219  20.3686440677966 22.8821917808219  C 20.3686440677966 22.8821917808219  20.3686440677966 22.9808219178082  20.3686440677966 22.9808219178082  C 20.3686440677966 23.9671232876712  19.6864406779661 25.4465753424657  18.4194915254237 27.3205479452055  C 18.0296610169492 27.9123287671233  17.9322033898305 28.4054794520548  17.9322033898305 28.7013698630137  C 17.9322033898305 28.7013698630137  20.1737288135593 30.2794520547945  20.1737288135593 30.2794520547945  C 20.7584745762712 30.9698630136986  21.1483050847458 31.1671232876712  21.635593220339 31.1671232876712  C 21.635593220339 31.1671232876712  22.1228813559322 31.1671232876712  22.1228813559322 31.1671232876712  L 22.6101694915254 32.8438356164383  L 23.6822033898305 33.2383561643835  C 23.6822033898305 33.2383561643835  24.2669491525424 32.6465753424657  24.2669491525424 32.6465753424657  C 24.5593220338983 32.3506849315068  24.9491525423729 32.1534246575342  25.2415254237288 32.2520547945205  C 26.2161016949152 32.2520547945205  26.9957627118644 32.8438356164383  27.9703389830508 34.1260273972603  C 27.9703389830508 34.1260273972603  28.8474576271187 35.3095890410959  28.8474576271187 35.3095890410959  C 28.8474576271187 35.3095890410959  28.9449152542373 35.2109589041096  28.9449152542373 35.2109589041096  C 29.5296610169492 34.8164383561644  30.6016949152542 34.9150684931507  32.1610169491525 35.4082191780822  C 32.1610169491525 35.4082191780822  34.6949152542373 36  34.6949152542373 36  L 37.0338983050848 35.2109589041096  L 38.0084745762712 34.7178082191781  L 38.6906779661017 34.2246575342466  C 38.6906779661017 34.2246575342466  38.1059322033899 33.5342465753425  38.1059322033899 33.5342465753425  C 37.9110169491525 33.1397260273973  38.1059322033899 32.6465753424657  38.5932203389831 32.1534246575342  C 39.1779661016949 31.6602739726027  39.5677966101695 31.1671232876712  39.5677966101695 30.5753424657534  C 39.5677966101695 30.5753424657534  39.5677966101695 29.3917808219178  39.5677966101695 29.3917808219178  C 39.3728813559322 28.8  39.4703389830509 28.4054794520548  39.6652542372881 28.2082191780822  C 39.8601694915254 27.813698630137  40.542372881356 27.6164383561644  41.3220338983051 27.4191780821918  C 42.5889830508475 27.2219178082192  44.1483050847458 27.813698630137  46 29.3917808219178  C 46 29.3917808219178  45.3177966101695 27.4191780821918  45.3177966101695 27.4191780821918  L 44.2457627118644 25.9397260273972  L 44.0508474576271 24.1643835616438  L 42.3940677966102 23.8684931506849  L 42.2966101694915 23.8684931506849  L 42.2966101694915 23.7698630136986  L 37.9110169491525 21.2054794520548  L 35.7669491525424 20.8109589041096  L 35.7669491525424 20.3178082191781  C 35.7669491525424 20.3178082191781  35.6694915254238 18.0493150684931  35.6694915254238 18.0493150684931  C 34.2076271186441 13.9068493150685  33.0381355932203 11.3424657534247  32.1610169491525 10.4547945205479  Z " fill-rule="nonzero" fill="#0079fe" stroke="none" fill-opacity="0.219607843137255" transform="matrix(1 0 0 1 736 514 )" />
  </g>
</svg>