<?xml version="1.0" encoding="utf-8"?>
<svg version="1.1" xmlns:xlink="http://www.w3.org/1999/xlink" width="60px" height="37px" xmlns="http://www.w3.org/2000/svg">
  <g transform="matrix(1 0 0 1 -678 -537 )">
    <path d="M 9.03436988543371 0.582677165354325  L 7.56137479541734 0.0971128608923829  L 7.46317512274956 0.485564304461942  L 7.95417348608834 1.06824146981627  L 10.5073649754501 2.81627296587927  L 10.5073649754501 2.91338582677165  L 10.6055646481179 2.91338582677165  L 12.1767594108019 4.66141732283463  L 11.9803600654664 4.85564304461942  L 10.9983633387889 6.02099737532807  L 10.9001636661211 6.11811023622046  L 10.8019639934534 6.31233595800525  L 9.13256955810149 6.31233595800525  L 8.15057283142391 6.40944881889763  L 7.46317512274956 7.08923884514434  L 7.75777414075285 7.96325459317584  L 7.75777414075285 8.06036745406823  L 7.85597381342062 9.03149606299211  L 8.73977086743042 10.2939632545932  L 8.73977086743042 10.3910761154856  L 8.73977086743042 13.1102362204724  L 9.5253682487725 13.4015748031496  L 10.9001636661211 13.7900262467192  L 10.9983633387889 13.7900262467192  L 11.0965630114566 13.8871391076115  L 11.1947626841244 13.9842519685039  L 12.4713584288052 15.7322834645669  L 12.4713584288052 15.8293963254593  L 13.1587561374795 17.5774278215223  L 13.1587561374795 17.6745406824147  C 13.1587561374795 17.6745406824147  13.1587561374795 18.8398950131234  13.1587561374795 18.8398950131234  C 13.0605564648118 19.5196850393701  12.8641571194762 20.1023622047244  12.6677577741407 20.490813648294  C 12.1767594108019 21.1706036745407  11.2929623567921 21.753280839895  9.9181669394435 22.3359580052493  C 9.9181669394435 22.3359580052493  6.57937806873976 24.2782152230971  6.57937806873976 24.2782152230971  L 6.48117839607198 24.2782152230971  L 0.392798690671009 24.6666666666667  L 0 26.1233595800525  L 1.08019639934533 28.0656167979003  L 1.08019639934533 28.1627296587927  L 1.08019639934533 28.259842519685  L 1.37479541734859 30.7847769028871  L 4.71358428805238 34.6692913385827  L 4.81178396072011 34.6692913385827  L 4.81178396072011 34.7664041994751  L 6.18657937806875 37  L 6.28477905073648 36.7086614173228  L 6.28477905073648 36.6115485564304  L 7.36497545008183 33.6010498687664  L 7.46317512274956 33.503937007874  L 9.42716857610471 30.9790026246719  L 9.5253682487725 30.8818897637795  L 11.9803600654664 29.7165354330709  L 12.1767594108019 29.7165354330709  L 13.7479541734861 30.6876640419947  L 15.810147299509 30.49343832021  L 15.1227495908347 27.0944881889764  L 15.5155482815057 26.997375328084  L 17.3813420621931 26.8031496062992  L 19.3453355155483 26.9002624671916  L 19.5417348608838 26.9002624671916  L 19.5417348608838 26.997375328084  L 23.4697217675941 28.745406824147  L 26.8085106382979 29.4251968503937  L 26.9067103109656 29.4251968503937  L 27.0049099836334 29.4251968503937  L 28.0851063829787 30.2020997375328  L 29.6563011456628 30.7847769028871  L 29.6563011456628 30.8818897637795  L 30.6382978723404 31.755905511811  L 31.227495908347 31.9501312335958  L 32.3076923076923 30.9790026246719  L 32.3076923076923 30.8818897637795  L 33.9770867430442 29.6194225721785  L 34.860883797054 27.9685039370079  L 36.4320785597381 28.8425196850394  L 36.4320785597381 28.9396325459317  L 36.4320785597381 29.0367454068242  L 36.8248772504092 30.2992125984252  L 36.8248772504092 30.5905511811024  L 36.6284779050737 31.3674540682415  L 36.7266775777414 31.5616797900263  L 37.708674304419 31.0761154855643  L 39.0834697217676 29.7165354330709  L 40.3600654664484 29.7165354330709  L 40.3600654664484 29.8136482939633  L 40.4582651391162 29.8136482939633  C 40.4582651391162 29.8136482939633  41.342062193126 30.3963254593176  41.342062193126 30.3963254593176  C 41.9312602291326 30.9790026246719  42.1276595744681 31.4645669291339  41.9312602291326 31.9501312335958  C 41.9312602291326 31.9501312335958  41.8330605564648 34.0866141732283  41.8330605564648 34.0866141732283  L 42.4222585924714 35.1548556430446  C 42.4222585924714 35.1548556430446  42.6186579378069 35.251968503937  42.6186579378069 35.251968503937  C 44.9754500818331 32.7270341207349  46.5466448445172 31.4645669291339  47.5286415711947 31.4645669291339  C 47.5286415711947 31.4645669291339  50.1800327332242 31.4645669291339  50.1800327332242 31.4645669291339  L 50.7692307692308 30.2020997375328  L 52.8314238952537 29.2309711286089  L 52.9296235679214 29.2309711286089  L 55.4828150572831 29.0367454068242  L 58.1342062193126 27.6771653543307  L 58.1342062193126 27.5800524934383  L 59.8036006546645 27.5800524934383  L 59.5090016366612 26.8031496062992  L 59.607201309329 26.6089238845144  L 60 26.2204724409449  L 56.3666121112929 18.5485564304462  L 56.3666121112929 18.3543307086614  L 56.2684124386252 18.257217847769  L 57.8396072013093 16.1207349081365  L 57.3486088379705 15.6351706036745  L 54.6972176759411 15.1496062992126  L 54.4026186579378 15.1496062992126  L 54.4026186579378 14.9553805774278  L 52.7332242225859 13.2073490813648  L 52.8314238952537 12.8188976377953  L 52.7332242225859 12.9160104986876  L 52.6350245499181 13.0131233595801  C 52.6350245499181 13.0131233595801  51.1620294599018 12.0419947506562  51.1620294599018 12.0419947506562  C 50.4746317512275 12.9160104986876  49.7872340425532 13.498687664042  49.0016366612111 13.6929133858268  C 48.3142389525368 13.9842519685039  47.2340425531915 13.2073490813648  45.7610474631751 11.4593175853018  C 45.7610474631751 11.4593175853018  44.9754500818331 10.4881889763779  44.9754500818331 10.4881889763779  C 44.8772504091653 10.2939632545932  44.189852700491 10.4881889763779  43.1096563011456 10.8766404199475  C 41.4402618657938 11.4593175853018  40.3600654664484 11.5564304461942  39.8690671031096 11.2650918635171  C 39.3780687397708 10.7795275590551  39.1816693944353 9.80839895013123  39.3780687397708 8.54593175853017  C 39.4762684124386 7.4776902887139  39.3780687397708 6.89501312335958  39.1816693944353 6.6036745406824  C 39.1816693944353 6.6036745406824  26.4157119476268 5.92388451443569  26.4157119476268 5.92388451443569  C 25.2373158756137 5.43832020997375  24.2553191489362 4.95275590551181  23.7643207855974 4.46719160104986  C 23.7643207855974 4.46719160104986  21.8003273322422 3.98162729658792  21.8003273322422 3.98162729658792  C 21.0147299509001 3.69028871391074  19.5417348608838 2.42782152230971  17.5777414075286 0  C 17.5777414075286 0  16.3011456628478 1.06824146981627  16.3011456628478 1.06824146981627  L 14.3371522094926 0.485564304461942  L 9.03436988543371 0.582677165354325  Z " fill-rule="nonzero" fill="#0079fe" stroke="none" fill-opacity="0.658823529411765" transform="matrix(1 0 0 1 678 537 )" />
  </g>
</svg>