<?xml version="1.0" encoding="utf-8"?>
<svg version="1.1" xmlns:xlink="http://www.w3.org/1999/xlink" width="86px" height="75px" xmlns="http://www.w3.org/2000/svg">
  <g transform="matrix(1 0 0 1 -591 -528 )">
    <path d="M 8.12059158134242 1.84974849910758  L 8.02275312855517 1.84974849910758  L 5.77246871444822 1.16826220996267  L 3.42434584755404 0.876196657472016  L 2.64163822525596 1.75239331494403  L 2.44596131968146 3.40743144572448  L 2.54379977246871 3.50478662988804  L 3.22866894197951 6.0360214181405  L 3.32650739476676 7.98312510141163  L 3.32650739476676 8.567256206393  L 2.15244596131967 8.567256206393  L 2.64163822525596 10.9037806263183  L 0.78270762229805 11.5852669154633  L 0 13.0455946779166  L 0.978384527872583 13.824436151225  L 1.17406143344709 13.9217913353886  L 4.59840728100113 16.6477364919682  L 4.69624573378838 16.7450916761317  L 4.79408418657563 16.7450916761317  L 4.79408418657563 16.8424468602953  L 4.79408418657563 16.9398020444589  L 5.28327645051192 19.3736816485478  C 5.28327645051192 19.3736816485478  6.84869169510808 21.6128508843096  6.84869169510808 21.6128508843096  C 7.24004550625709 22.1969819892909  7.72923777019338 22.7811130942723  8.60978384527871 23.5599545675807  C 8.60978384527871 23.5599545675807  8.70762229806597 23.5599545675807  8.70762229806597 23.5599545675807  L 8.80546075085324 23.6573097517443  L 8.80546075085324 23.7546649359078  L 8.70762229806597 23.9493753042349  C 8.70762229806597 23.9493753042349  8.70762229806597 26.0911893558332  8.70762229806597 26.0911893558332  C 9.00113765642775 26.6753204608145  9.098976109215 27.9409378549408  9.098976109215 29.7906863540483  C 9.97952218430033 31.0563037481746  10.3708759954494 31.9325004056466  10.3708759954494 32.5166315106279  C 10.3708759954494 32.9060522472822  10.6643913538111 33.6848937205906  11.1535836177474 34.7558007463897  C 11.1535836177474 34.7558007463897  11.1535836177474 34.8531559305533  11.1535836177474 34.8531559305533  C 11.349260523322 36.2161285088431  11.2514220705347 37.3843907188058  10.9579067121729 38.3579425604413  C 10.6643913538111 39.0394288495862  11.0557451649602 40.3050462437125  12.13196814562 42.0574395586565  C 12.13196814562 42.0574395586565  12.2298065984073 42.1547947428201  12.2298065984073 42.1547947428201  L 12.3276450511945 42.3495051111472  L 12.2298065984073 42.5442154794743  C 12.2298065984073 42.5442154794743  10.6643913538111 45.9516469251988  10.6643913538111 45.9516469251988  C 10.9579067121729 46.7304883985072  11.0557451649602 47.3146195034886  11.0557451649602 47.7040402401428  C 11.0557451649602 47.7040402401428  10.6643913538111 50.9167613175402  10.6643913538111 50.9167613175402  C 10.4687144482366 51.9876683433393  10.4687144482366 52.5717994483206  10.9579067121729 52.7665098166477  C 10.9579067121729 52.7665098166477  11.5449374288965 53.155930553302  11.5449374288965 53.155930553302  C 12.4254835039818 53.5453512899562  12.7189988623436 54.032127210774  12.7189988623436 54.5189031315917  C 12.7189988623436 54.5189031315917  12.6211604095563 56.1739412623722  12.6211604095563 56.1739412623722  L 13.1103526734926 56.3686516306993  L 13.2081911262799 56.4660068148629  C 13.2081911262799 56.4660068148629  13.5017064846416 56.1739412623722  13.5017064846416 56.1739412623722  C 13.7952218430034 55.8818757098815  14.0887372013652 55.4924549732273  14.1865756541525 55.0056790524095  C 14.1865756541525 55.0056790524095  14.382252559727 54.7136134999189  14.382252559727 54.7136134999189  C 14.382252559727 54.7136134999189  14.4800910125142 54.5189031315917  14.4800910125142 54.5189031315917  C 14.8714448236632 54.3241927632646  15.0671217292378 54.032127210774  15.3606370875995 53.6427064741197  C 15.4584755403868 53.0585753691384  15.4584755403868 52.4744442641571  15.2627986348123 51.7929579750122  C 15.2627986348123 51.7929579750122  15.0671217292378 51.3061820541944  15.0671217292378 51.3061820541944  C 15.0671217292378 51.3061820541944  15.556313993174 51.2088268700308  15.556313993174 51.2088268700308  C 17.1217292377702 50.8194061333766  18.0022753128555 50.9167613175402  18.2957906712173 51.598247606685  C 18.2957906712173 51.598247606685  19.0784982935154 53.5453512899562  19.0784982935154 53.5453512899562  L 19.0784982935154 53.6427064741197  L 19.0784982935154 53.7400616582833  L 19.4698521046644 56.9527827356807  L 20.7417519908987 57.6342690248256  L 20.839590443686 57.6342690248256  L 20.9374288964732 57.6342690248256  L 21.7201365187713 58.3157553139705  L 22.5028441410694 57.4395586564984  L 23.3833902161547 56.7580723673536  C 23.3833902161547 56.7580723673536  23.6769055745165 56.7580723673536  23.6769055745165 56.7580723673536  C 24.3617747440273 56.9527827356807  24.7531285551763 57.4395586564984  24.9488054607509 58.1210449456433  C 24.9488054607509 58.1210449456433  25.3401592718999 60.6522797338958  25.3401592718999 60.6522797338958  L 25.4379977246872 61.04170047055  L 28.0796359499431 66.6883011520363  L 29.1558589306029 67.7592081778355  L 29.2536973833902 67.856563361999  L 29.2536973833902 67.9539185461626  L 29.7428896473265 70.2904429660879  L 29.938566552901 72.5296122018497  C 29.938566552901 72.5296122018497  30.0364050056883 72.7243225701768  30.0364050056883 72.7243225701768  C 30.7212741751991 71.7507707285413  31.3083048919226 71.2639948077235  31.6996587030717 71.4587051760506  C 32.0910125142207 71.5560603602142  32.188850967008 71.7507707285413  32.188850967008 72.1401914651955  C 32.188850967008 72.1401914651955  32.188850967008 72.7243225701768  32.188850967008 72.7243225701768  L 32.188850967008 74.4767158851209  C 32.188850967008 74.4767158851209  32.188850967008 74.9634918059387  32.188850967008 74.9634918059387  C 32.6780432309442 75.0608469901022  33.0693970420933 74.9634918059387  33.1672354948805 74.671426253448  C 33.1672354948805 74.671426253448  34.1456200227531 73.3084536751582  34.1456200227531 73.3084536751582  C 34.1456200227531 73.3084536751582  35.221843003413 72.2375466493591  35.221843003413 72.2375466493591  C 35.9067121729238 71.7507707285413  36.5915813424346 71.3613499918871  37.3742889647326 71.3613499918871  C 37.3742889647326 71.3613499918871  37.4721274175199 71.3613499918871  37.4721274175199 71.3613499918871  L 39.5267349260523 71.8481259127049  L 40.1137656427759 71.5560603602142  L 41.1899886234357 70.1930877819244  C 41.1899886234357 70.1930877819244  40.9943117178612 68.0512737303261  40.9943117178612 68.0512737303261  C 40.3094425483504 66.8830115203634  40.0159271899886 65.9094596787279  40.2116040955631 65.227973389583  C 40.2116040955631 65.227973389583  40.5051194539249 63.475580074639  40.5051194539249 63.475580074639  L 40.5051194539249 63.2808697063119  L 40.6029579067122 63.0861593379848  L 42.4618885096701 62.0152523121856  L 42.5597269624574 62.0152523121856  L 43.9294653014789 61.1390556547136  L 45.4948805460751 58.8998864189518  L 45.6905574516496 57.2448482881713  L 43.9294653014789 53.155930553302  L 47.8430034129693 54.908323868246  L 47.8430034129693 53.2532857374655  L 47.8430034129693 53.155930553302  L 49.3105802047781 51.8903131591757  L 52.1478953356086 51.1114716858673  L 52.3435722411832 51.1114716858673  L 54.0068259385666 54.7136134999189  L 54.0068259385666 54.908323868246  L 53.811149032992 56.2712964465358  C 53.811149032992 56.2712964465358  54.0068259385666 57.536913840662  54.0068259385666 57.536913840662  C 54.2025028441411 58.1210449456433  54.5938566552901 58.413110498134  54.8873720136519 58.413110498134  C 55.2787258248009 58.413110498134  55.6700796359499 58.1210449456433  56.061433447099 57.6342690248256  C 56.061433447099 57.6342690248256  56.1592718998862 57.4395586564984  56.1592718998862 57.4395586564984  L 56.2571103526735 57.4395586564984  L 58.6052332195677 56.66071718319  C 58.6052332195677 56.66071718319  58.703071672355 56.66071718319  58.703071672355 56.66071718319  C 59.9749715585893 56.66071718319  60.5620022753128 56.9527827356807  60.8555176336746 57.536913840662  C 60.8555176336746 57.536913840662  61.0511945392491 60.165503813078  61.0511945392491 60.165503813078  L 61.0511945392491 60.2628589972416  L 61.5403868031854 60.3602141814051  L 62.518771331058 60.6522797338958  L 63.9863481228669 60.5549245497323  L 66.4323094425483 59.8734382605874  L 67.8998862343572 58.6078208664611  L 67.9977246871445 57.536913840662  L 67.3128555176337 56.7580723673536  L 64.769055745165 55.8818757098815  L 64.5733788395905 55.784520525718  L 64.5733788395905 55.6871653415544  L 61.6382252559727 52.7665098166477  L 61.9317406143345 52.5717994483206  L 63.3993174061433 51.3061820541944  L 63.4971558589306 51.2088268700308  L 64.9647326507395 50.6246957650495  L 65.2582480091013 50.6246957650495  L 67.2150170648464 51.0141165017037  L 67.3128555176337 51.0141165017037  L 67.4106939704209 51.1114716858673  L 67.4106939704209 50.3326302125588  L 66.5301478953356 48.8723024501055  L 65.160409556314 48.1908161609606  L 63.3014789533561 45.464871004381  L 63.2036405005688 45.3675158202174  L 63.2036405005688 45.2701606360539  L 62.3230944254835 42.0574395586565  L 62.3230944254835 39.6235599545676  L 63.8885096700796 38.1632321921142  L 66.2366325369738 38.1632321921142  L 71.7155858930603 38.650008112932  L 74.259385665529 35.0478662988804  L 74.259385665529 34.8531559305533  L 74.4550625711035 34.8531559305533  L 76.509670079636 33.7822489047542  L 77.5858930602958 31.6404348531559  L 77.683731513083 31.5430796689924  L 80.1296928327645 29.4986208015577  L 81.3037542662116 27.3568067499594  L 81.3037542662116 27.2594515657959  L 81.4015927189989 27.2594515657959  L 81.4015927189989 27.1620963816323  L 82.3799772468714 26.1885445399968  L 83.5540386803185 24.2414408567256  L 83.9453924914676 21.2234301476554  L 83.9453924914676 20.9313645951647  L 84.0432309442548 20.8340094110011  L 85.608646188851 19.763102385202  L 86 19.3736816485478  L 83.6518771331058 18.9842609118936  L 79.7383390216155 19.1789712802207  L 79.6405005688282 19.0816160960571  L 78.1729237770193 17.9133538860944  L 77.9772468714448 17.9133538860944  L 77.9772468714448 17.8159987019309  L 77.1945392491468 16.6477364919682  L 76.9988623435723 16.7450916761317  C 76.9988623435723 16.7450916761317  76.901023890785 16.9398020444589  76.901023890785 16.9398020444589  C 76.7053469852105 17.2318675969495  76.2161547212742 17.3292227811131  75.6291240045506 17.3292227811131  C 75.6291240045506 17.3292227811131  75.0420932878271 17.6212883336038  75.0420932878271 17.6212883336038  C 74.8464163822526 17.7186435177673  74.7485779294653 17.8159987019309  74.4550625711035 17.7186435177673  C 74.259385665529 17.7186435177673  74.1615472127418 17.4265779652767  73.9658703071673 16.9398020444589  C 73.86803185438 16.4530261236411  73.6723549488055 15.9662502028233  73.0853242320819 15.4794742820055  C 73.0853242320819 15.4794742820055  72.9874857792947 15.382119097842  72.9874857792947 15.382119097842  L 72.9874857792947 15.2847639136784  L 72.8896473265074 15.2847639136784  L 72.4004550625711 14.0191465195522  L 72.0091012514221 14.0191465195522  L 70.5415244596132 14.9926983611877  L 70.443686006826 15.0900535453513  L 70.3458475540387 15.0900535453513  L 66.9215017064846 15.7715398344962  L 66.7258248009101 15.7715398344962  L 66.5301478953356 15.6741846503326  L 64.2798634812287 14.1165017037157  L 64.1820250284414 14.0191465195522  L 64.1820250284414 13.9217913353886  L 64.0841865756542 13.9217913353886  L 63.4971558589306 12.7535291254259  C 63.4971558589306 12.7535291254259  61.8339021615472 14.50592244037  61.8339021615472 14.50592244037  C 60.6598407281001 15.8688950186598  59.7792946530148 16.258315755314  59.1922639362913 15.8688950186598  C 59.1922639362913 15.8688950186598  56.9419795221843 14.7006328086971  56.9419795221843 14.7006328086971  L 55.3765642775882 14.50592244037  L 55.1808873720136 14.6032776245335  L 53.7133105802048 13.5323705987344  L 53.6154721274175 13.4350154145708  L 53.3219567690558 13.3376602304073  L 54.0068259385666 10.7090702579912  L 54.0068259385666 9.83287360051922  L 53.1262798634812 9.44345286386499  L 53.028441410694 9.44345286386499  L 50.9738339021616 7.2042836281032  L 51.0716723549488 5.54924549732272  L 45.9840728100114 5.06246957650494  C 45.9840728100114 5.06246957650494  44.0273037542662 3.99156255070582  44.0273037542662 3.99156255070582  C 43.5381114903299 3.69949699821517  43.1467576791809 3.1153658932338  42.8532423208191 2.14181405159824  C 42.8532423208191 2.14181405159824  42.5597269624574 1.46032776245335  42.5597269624574 1.46032776245335  L 42.1683731513083 0  L 41.4835039817975 0.0973551841635512  L 39.9180887372014 1.3629725782898  L 38.0591581342434 3.60214181405159  L 38.4505119453925 5.25717994483207  L 39.037542662116 7.3989939964303  L 39.037542662116 7.49634918059385  L 39.1353811149033 7.49634918059385  L 39.037542662116 7.59370436475743  C 39.037542662116 7.59370436475743  39.037542662116 7.69105954892099  39.037542662116 7.69105954892099  C 38.8418657565415 8.27519065390232  38.254835039818 8.567256206393  37.3742889647326 8.567256206393  C 37.3742889647326 8.567256206393  35.4175199089875 8.567256206393  35.4175199089875 8.567256206393  L 34.2434584755404 7.98312510141163  L 32.7758816837315 8.567256206393  L 32.4823663253697 8.66461139055655  L 32.2866894197952 8.567256206393  L 32.0910125142207 9.93022878468278  L 31.9931740614334 10.1249391530099  L 31.9931740614334 10.4170047055006  L 31.6996587030717 10.4170047055006  C 31.6996587030717 10.4170047055006  29.2536973833902 9.63816323219212  29.2536973833902 9.63816323219212  C 29.2536973833902 10.4170047055006  29.3515358361775 11.0011358104819  29.7428896473265 11.6826220996268  C 30.0364050056883 12.3641083887717  30.1342434584755 12.8508843095895  29.8407281001138 13.4350154145708  C 29.8407281001138 13.4350154145708  29.547212741752 14.2138568878793  29.547212741752 14.2138568878793  C 29.2536973833902 14.50592244037  28.3731513083049 14.6032776245335  27.1012514220705 14.50592244037  C 27.1012514220705 14.50592244037  25.4379977246872 14.50592244037  25.4379977246872 14.50592244037  L 25.3401592718999 17.2318675969495  L 23.1877133105802 16.4530261236411  L 23.0898748577929 16.4530261236411  L 22.9920364050057 16.3556709394775  L 21.9158134243458 14.3112120720428  L 19.5676905574517 13.5323705987344  L 18.9806598407281 12.2667532046081  L 18.1001137656428 12.9482394937531  L 18.0022753128555 12.9482394937531  L 16.5346985210466 13.2403050462437  L 16.1433447098976 13.2403050462437  L 15.3606370875995 11.4879117312997  L 14.5779294653015 10.4170047055006  C 14.5779294653015 10.4170047055006  14.4800910125142 10.319649521337  14.4800910125142 10.319649521337  C 13.6973833902162 9.34609767970144  13.3060295790671 8.46990102222942  13.1103526734926 7.98312510141163  C 13.1103526734926 7.88576991724809  12.9146757679181 7.69105954892099  12.4254835039818 7.59370436475743  C 12.4254835039818 7.59370436475743  12.0341296928327 7.49634918059385  12.0341296928327 7.49634918059385  C 11.349260523322 7.2042836281032  10.8600682593857 6.62015252312187  10.5665529010239 5.74395586564985  C 10.5665529010239 5.74395586564985  10.1751990898748 4.08891773486937  10.1751990898748 4.08891773486937  L 10.1751990898748 2.7259451565796  L 9.49032992036404 1.46032776245335  L 8.31626848691695 1.84974849910758  L 8.21843003412967 1.84974849910758  L 8.12059158134242 1.84974849910758  Z " fill-rule="nonzero" fill="#0079fe" stroke="none" transform="matrix(1 0 0 1 591 528 )" />
  </g>
</svg>