<?xml version="1.0" encoding="utf-8"?>
<svg version="1.1" xmlns:xlink="http://www.w3.org/1999/xlink" width="112px" height="94px" xmlns="http://www.w3.org/2000/svg">
  <g transform="matrix(1 0 0 1 -565 -451 )">
    <path d="M 69.7543859649123 35.1647668393782  C 69.7543859649123 35.1647668393782  66.5122807017544 33.9958549222798  66.5122807017544 33.9958549222798  L 64.940350877193 33.9958549222798  L 64.4491228070175 35.0673575129534  L 65.3333333333333 35.9440414507772  L 65.3333333333333 36.0414507772021  L 65.3333333333333 36.1388601036269  L 65.7263157894737 37.4051813471503  L 65.8245614035088 37.5025906735751  L 65.8245614035088 37.7948186528497  L 65.6280701754386 37.8922279792746  L 63.4666666666667 38.9637305699482  L 63.3684210526316 39.0611398963731  L 63.2701754385965 39.0611398963731  C 63.2701754385965 39.0611398963731  63.1719298245614 39.0611398963731  63.1719298245614 39.0611398963731  C 61.5017543859649 38.8663212435233  60.6175438596491 38.379274611399  60.3228070175438 37.6974093264249  C 60.3228070175438 37.6974093264249  59.7333333333333 36.5284974093264  59.7333333333333 36.5284974093264  L 56.7859649122807 35.9440414507772  C 56.7859649122807 35.9440414507772  56 32.2424870466321  56 32.2424870466321  C 55.4105263157895 32.1450777202072  54.919298245614 31.8528497409327  54.6245614035088 31.4632124352332  C 54.6245614035088 31.4632124352332  54.5263157894737 31.2683937823834  54.5263157894737 31.2683937823834  C 54.0350877192982 30.5865284974093  53.6421052631579 30.1968911917098  53.0526315789474 30.099481865285  C 52.2666666666667 29.8072538860104  51.5789473684211 29.2227979274611  50.9894736842105 28.3461139896373  C 50.9894736842105 28.3461139896373  49.8105263157895 27.6642487046632  49.8105263157895 27.6642487046632  L 49.7122807017544 27.6642487046632  L 48.140350877193 26.1056994818653  L 47.7473684210526 24.7419689119171  L 47.7473684210526 24.6445595854922  C 47.7473684210526 24.6445595854922  50.8912280701754 20.3585492227979  50.8912280701754 20.3585492227979  C 50.9894736842105 20.0663212435233  51.0877192982456 19.8715025906736  50.9894736842105 19.7740932642487  C 50.9894736842105 19.7740932642487  50.4 18.4103626943005  50.4 18.4103626943005  L 48.7298245614035 19.0922279792746  L 48.6315789473684 19.0922279792746  L 48.6315789473684 19.1896373056995  L 48.5333333333333 19.1896373056995  L 44.2105263157895 19.4818652849741  L 42.540350877193 19.8715025906736  L 41.9508771929824 20.4559585492228  C 41.9508771929824 20.4559585492228  41.6561403508772 21.040414507772  41.6561403508772 21.040414507772  C 41.2631578947368 21.5274611398964  40.6736842105263 21.819689119171  39.7894736842105 21.6248704663213  C 39.7894736842105 21.6248704663213  39.6912280701754 21.5274611398964  39.6912280701754 21.5274611398964  L 38.2175438596491 20.4559585492228  C 38.2175438596491 20.4559585492228  38.119298245614 18.020725388601  38.119298245614 18.020725388601  C 37.3333333333333 17.4362694300518  36.8421052631579 16.8518134715026  36.6456140350877 16.3647668393783  C 36.6456140350877 16.3647668393783  36.2526315789473 14.2217616580311  36.2526315789473 14.2217616580311  L 35.2701754385965 13.0528497409327  L 34.1894736842105 12.1761658031088  L 33.6982456140351 11.8839378238342  L 35.4666666666667 9.64352331606218  L 35.859649122807 8.37720207253887  L 33.8947368421053 5.94196891191711  L 33.7964912280702 5.94196891191711  L 33.7964912280702 5.84455958549223  L 32.9122807017544 3.89637305699482  L 32.9122807017544 3.79896373056995  L 32.7157894736842 2.82487046632125  L 31.4385964912281 1.85077720207254  L 31.4385964912281 1.75336787564768  L 30.0631578947368 0.292227979274622  L 28.2947368421053 0  L 26.3298245614035 0.584455958549231  L 26.0350877192982 0.974093264248705  L 25.740350877193 3.70155440414509  L 25.740350877193 6.72124352331607  L 25.4456140350877 6.81865284974093  L 23.5789473684211 7.50051813471503  L 23.5789473684211 7.59792746113991  C 23.5789473684211 7.59792746113991  21.8105263157895 7.69533678756477  21.8105263157895 7.69533678756477  C 20.9263157894737 8.18238341968912  19.9438596491228 8.66943005181348  18.8631578947368 9.05906735751296  C 18.8631578947368 9.05906735751296  18.6666666666667 9.15647668393783  18.6666666666667 9.15647668393783  L 18.5684210526316 9.15647668393783  L 15.2280701754386 8.37720207253887  C 15.2280701754386 8.37720207253887  13.8526315789474 9.83834196891192  13.8526315789474 9.83834196891192  C 13.5578947368421 10.2279792746114  12.8701754385965 10.6176165803109  11.9859649122807 10.8124352331606  C 11.9859649122807 10.8124352331606  9.92280701754385 12.4683937823834  9.92280701754385 12.4683937823834  L 8.84210526315789 14.1243523316062  L 8.84210526315789 14.2217616580311  C 8.84210526315789 14.2217616580311  8.74385964912278 14.319170984456  8.74385964912278 14.319170984456  C 8.15438596491226 15.1958549222798  7.66315789473683 15.8777202072539  7.27017543859647 16.1699481865285  C 7.27017543859647 16.1699481865285  6.09122807017543 17.6310880829016  6.09122807017543 17.6310880829016  L 6.09122807017543 17.7284974093264  L 5.99298245614035 17.8259067357513  C 5.99298245614035 17.8259067357513  5.30526315789471 18.3129533678757  5.30526315789471 18.3129533678757  C 4.81403508771928 18.5077720207254  4.32280701754384 18.6051813471503  3.92982456140351 18.6051813471503  C 3.92982456140351 18.6051813471503  1.47368421052632 18.4103626943005  1.47368421052632 18.4103626943005  L 0.884210526315767 19.2870466321244  L 0 20.8455958549223  L 0.392982456140329 22.4041450777202  L 0.196491228070164 26.2031088082902  L 0.884210526315767 27.3720207253886  L 0.884210526315767 27.4694300518135  L 1.17894736842104 28.3461139896373  L 2.55438596491227 28.3461139896373  L 4.91228070175439 28.8331606217617  L 7.9578947368421 29.0279792746114  L 9.33333333333333 28.8331606217617  L 9.5298245614035 28.8331606217617  L 9.62807017543858 28.8331606217617  L 12.280701754386 29.8072538860104  L 12.378947368421 29.8072538860104  L 13.7543859649123 30.878756476684  L 16.7017543859649 31.9502590673575  L 16.8 31.9502590673575  L 18.7649122807017 33.119170984456  L 23.5789473684211 37.5025906735751  L 25.740350877193 38.4766839378238  L 26.6245614035088 38.0870466321243  L 27.5087719298246 36.4310880829016  C 27.5087719298246 36.4310880829016  27.0175438596491 33.8010362694301  27.0175438596491 33.8010362694301  C 27.0175438596491 33.0217616580311  27.6070175438596 32.5347150259067  28.7859649122807 32.0476683937824  C 28.7859649122807 32.0476683937824  28.9824561403509 31.9502590673575  28.9824561403509 31.9502590673575  L 34.9754385964912 35.4569948186529  L 35.6631578947368 35.2621761658031  L 37.0385964912281 34.4829015544042  L 37.2350877192982 34.4829015544042  L 38.0210526315789 34.580310880829  L 39.2 33.6062176165803  L 39.3964912280702 33.5088082901554  L 39.6912280701754 33.7036269430052  L 43.2280701754386 36.1388601036269  L 43.3263157894737 36.2362694300518  C 43.3263157894737 36.2362694300518  45.5859649122807 38.0870466321243  45.5859649122807 38.0870466321243  C 46.1754385964912 38.4766839378238  46.9614035087719 39.1585492227979  47.6491228070175 40.1326424870466  C 47.6491228070175 40.1326424870466  48.7298245614035 41.3015544041451  48.7298245614035 41.3015544041451  L 49.6140350877193 41.2041450777202  L 50.5964912280702 39.3533678756477  L 52.659649122807 40.8145077720207  L 52.7578947368421 40.8145077720207  L 52.8561403508772 40.8145077720207  L 54.5263157894737 42.860103626943  L 58.9473684210526 46.1720207253886  L 60.2245614035088 47.6331606217617  L 64.0561403508772 46.5616580310881  L 64.2526315789473 49.3865284974093  L 65.9228070175438 51.0424870466321  L 65.9228070175438 51.139896373057  L 67.2982456140351 53.1854922279793  L 67.2982456140351 53.2829015544042  L 67.2982456140351 53.380310880829  L 67.2982456140351 53.4777202072539  L 68.7719298245614 60.19896373057  L 70.2456140350877 62.9264248704663  L 68.280701754386 67.8943005181347  L 68.280701754386 68.1865284974093  L 66.6105263157895 68.5761658031088  L 66.6105263157895 70.0373056994819  L 66.5122807017544 70.1347150259067  L 64.8421052631579 72.8621761658031  L 64.6456140350877 72.8621761658031  L 62.2877192982456 73.0569948186529  C 62.2877192982456 73.0569948186529  59.9298245614035 75.0051813471503  59.9298245614035 75.0051813471503  C 60.2245614035088 75.2974093264249  60.6175438596491 75.4922279792746  61.3052631578947 75.7844559585492  C 62.2877192982456 76.0766839378238  62.3859649122807 76.8559585492228  61.8947368421053 78.219689119171  C 61.8947368421053 78.219689119171  61.8947368421053 78.3170984455959  61.8947368421053 78.3170984455959  L 60.2245614035088 79.9730569948186  L 60.1263157894737 79.9730569948186  L 60.0280701754386 80.1678756476684  L 59.9298245614035 80.1678756476684  L 59.8315789473684 80.1678756476684  L 55.1157894736842 79.4860103626943  L 55.0175438596491 81.1419689119171  L 55.5087719298246 84.6487046632124  L 59.4385964912281 86.3046632124352  L 59.4385964912281 86.499481865285  L 60.9122807017544 86.0124352331606  L 61.0105263157895 85.9150259067358  L 61.2070175438596 85.8176165803109  L 61.3052631578947 86.0124352331606  L 61.4035087719298 86.0124352331606  L 62.4842105263158 86.5968911917098  L 64.1543859649123 86.5968911917098  L 64.7438596491228 86.499481865285  L 64.1543859649123 84.6487046632124  L 63.7614035087719 82.700518134715  L 63.7614035087719 82.6031088082902  L 63.7614035087719 82.4082901554404  L 63.859649122807 82.3108808290155  L 63.859649122807 82.2134715025907  L 64.4491228070175 81.5316062176166  L 64.6456140350877 81.3367875647668  L 64.7438596491228 81.239378238342  L 65.8245614035088 79.7782383419689  L 65.9228070175438 79.680829015544  L 67.6912280701754 78.3170984455959  L 67.7894736842105 78.3170984455959  L 67.7894736842105 78.219689119171  L 67.8877192982456 78.219689119171  L 70.0491228070175 77.9274611398964  C 70.0491228070175 77.9274611398964  70.0491228070175 78.5119170984456  70.0491228070175 78.5119170984456  C 70.0491228070175 79.1937823834197  70.1473684210526 79.680829015544  70.2456140350877 79.9730569948186  C 70.2456140350877 79.9730569948186  70.6385964912281 80.8497409326425  70.6385964912281 80.8497409326425  L 71.2280701754386 82.1160621761658  L 73.1929824561404 83.1875647668394  L 78.5964912280702 83.6746113989637  L 78.7929824561403 83.6746113989637  L 79.0877192982456 83.6746113989637  L 79.0877192982456 83.9668393782384  L 79.0877192982456 84.1616580310881  L 78.8912280701754 85.9150259067358  L 80.4631578947368 87.5709844559586  L 81.6421052631579 88.0580310880829  L 81.838596491228 88.1554404145078  L 81.838596491228 88.2528497409326  L 81.9368421052631 88.4476683937824  L 81.9368421052631 89.1295336787565  L 81.9368421052631 90.1036269430052  L 81.4456140350877 92.0518134715026  C 81.4456140350877 92.0518134715026  82.1333333333333 92.5388601036269  82.1333333333333 92.5388601036269  C 82.919298245614 92.4414507772021  83.6070175438597 92.4414507772021  84.2947368421053 92.9284974093264  C 84.2947368421053 92.9284974093264  86.5543859649123 94  86.5543859649123 94  L 87.9298245614035 92.9284974093264  L 89.4035087719298 91.3699481865285  L 89.5017543859649 90.6880829015544  L 89.6 90.4932642487047  L 89.7964912280702 90.3958549222798  L 89.9929824561403 90.20103626943  L 89.9929824561403 90.0062176165803  L 89.5017543859649 87.960621761658  L 89.4035087719298 86.8891191709845  L 89.3052631578947 86.7917098445596  L 89.3052631578947 86.6943005181347  L 89.4035087719298 86.5968911917098  L 89.4035087719298 86.499481865285  L 90.1894736842105 85.2331606217617  L 90.2877192982456 85.1357512953368  L 91.859649122807 84.0642487046632  L 91.9578947368421 84.0642487046632  L 95.2 84.0642487046632  L 95.6912280701754 83.8694300518135  L 95.5929824561403 82.2134715025907  L 95.1017543859649 80.7523316062176  L 94.0210526315789 78.9989637305699  L 93.9228070175438 78.9015544041451  L 93.9228070175438 78.8041450777202  L 93.9228070175438 76.3689119170985  L 93.9228070175438 76.2715025906736  L 94.5122807017544 74.8103626943005  L 94.6105263157895 74.7129533678757  L 97.2631578947368 70.9139896373057  L 97.3614035087719 70.8165803108809  L 97.459649122807 70.8165803108809  L 97.6561403508772 70.719170984456  L 98.2456140350877 70.719170984456  L 99.2280701754386 70.8165803108809  L 101.487719298246 72.0829015544041  L 102.961403508772 72.4725388601036  L 103.157894736842 71.7906735751295  L 102.863157894737 71.5958549222798  C 102.863157894737 71.5958549222798  102.863157894737 71.3036269430052  102.863157894737 71.3036269430052  C 102.863157894737 70.719170984456  103.157894736842 70.2321243523316  103.747368421053 69.7450777202072  C 103.747368421053 69.7450777202072  105.515789473684 68.478756476684  105.515789473684 68.478756476684  L 105.614035087719 68.3813471502591  C 105.614035087719 68.3813471502591  105.614035087719 68.2839378238342  105.614035087719 68.2839378238342  C 106.59649122807 67.9917098445596  107.185964912281 67.7968911917098  107.578947368421 67.7968911917098  C 107.578947368421 67.7968911917098  109.150877192982 67.6020725388601  109.150877192982 67.6020725388601  L 109.347368421053 67.6020725388601  L 110.329824561403 67.7968911917098  L 111.017543859649 65.3616580310881  C 111.017543859649 65.3616580310881  111.017543859649 63.7056994818653  111.017543859649 63.7056994818653  C 111.017543859649 62.6341968911917  111.017543859649 61.9523316062176  111.312280701754 61.7575129533679  C 111.312280701754 61.7575129533679  112 60.4911917098445  112 60.4911917098445  L 111.115789473684 59.3222797927461  L 109.936842105263 58.5430051813471  C 109.936842105263 58.5430051813471  107.480701754386 57.8611398963731  107.480701754386 57.8611398963731  C 106.98947368421 57.8611398963731  106.105263157895 57.3740932642487  104.631578947368 56.1077720207254  C 104.631578947368 56.1077720207254  103.157894736842 55.4259067357513  103.157894736842 55.4259067357513  L 103.059649122807 55.4259067357513  L 102.961403508772 55.3284974093264  L 101.19298245614 53.1854922279793  L 99.5228070175438 53.1854922279793  L 99.4245614035088 53.0880829015544  L 99.3263157894737 53.0880829015544  L 97.8526315789474 52.3088082901555  L 96.9684210526316 53.4777202072539  L 96.7719298245614 58.0559585492228  L 97.0666666666666 59.8093264248705  L 97.7543859649123 59.8093264248705  L 97.8526315789474 59.9067357512953  L 99.2280701754386 60.2963730569948  L 99.2280701754386 60.3937823834197  L 99.2280701754386 60.4911917098445  L 99.9157894736842 62.1471502590674  L 100.014035087719 62.1471502590674  L 100.014035087719 62.2445595854922  L 100.014035087719 62.3419689119171  L 99.6210526315789 65.3616580310881  L 99.6210526315789 65.5564766839378  L 99.6210526315789 65.6538860103627  C 99.6210526315789 65.6538860103627  99.5228070175438 65.7512953367876  99.5228070175438 65.7512953367876  C 99.0315789473684 66.0435233160622  98.6385964912281 66.2383419689119  98.1473684210526 66.5305699481865  C 98.1473684210526 66.5305699481865  97.9508771929824 66.6279792746114  97.9508771929824 66.6279792746114  L 97.8526315789474 66.5305699481865  L 97.7543859649123 66.5305699481865  L 97.0666666666666 66.3357512953368  L 95.4947368421053 66.920207253886  L 95.3964912280702 66.920207253886  L 95.4947368421053 67.2124352331606  L 95.5929824561403 67.3098445595855  C 95.5929824561403 67.3098445595855  95.8877192982456 69.939896373057  95.8877192982456 69.939896373057  C 95.8877192982456 70.3295336787565  95.6912280701754 70.5243523316062  95.2982456140351 70.6217616580311  C 95.2982456140351 70.6217616580311  94.119298245614 70.6217616580311  94.119298245614 70.6217616580311  C 93.5298245614035 70.5243523316062  93.2350877192982 70.3295336787565  92.940350877193 70.0373056994819  C 92.940350877193 70.0373056994819  91.7614035087719 69.160621761658  91.7614035087719 69.160621761658  L 91.6631578947368 69.0632124352332  L 91.5649122807017 69.0632124352332  L 91.5649122807017 68.9658031088083  C 91.5649122807017 68.9658031088083  90.8771929824561 67.3098445595855  90.8771929824561 67.3098445595855  C 90.680701754386 67.1150259067358  90.1894736842105 66.8227979274611  89.2070175438596 66.5305699481865  C 89.2070175438596 66.5305699481865  89.1087719298246 66.5305699481865  89.1087719298246 66.5305699481865  L 89.0105263157895 66.5305699481865  L 87.6350877192982 65.5564766839378  L 87.4385964912281 65.5564766839378  L 87.4385964912281 65.3616580310881  L 87.0456140350877 63.7056994818653  L 87.2421052631579 62.439378238342  L 87.340350877193 62.439378238342  L 87.340350877193 62.3419689119171  L 87.9298245614035 61.660103626943  L 87.9298245614035 61.1730569948187  L 87.340350877193 59.419689119171  L 85.9649122807018 58.1533678756477  L 85.9649122807018 57.9585492227979  L 85.5719298245614 53.9647668393782  L 84.5894736842105 52.9906735751295  L 84.4912280701754 52.9906735751295  L 84.3929824561403 52.8932642487047  L 83.6070175438597 51.0424870466321  C 83.6070175438597 51.0424870466321  80.0701754385965 50.6528497409326  80.0701754385965 50.6528497409326  C 79.1859649122807 50.3606217616581  78.5964912280702 49.7761658031088  78.2035087719298 48.9968911917099  C 78.2035087719298 48.9968911917099  76.6315789473684 48.9968911917099  76.6315789473684 48.9968911917099  C 76.0421052631579 48.8020725388601  75.4526315789473 48.4124352331606  74.7649122807018 47.7305699481865  C 74.7649122807018 47.7305699481865  74.5684210526316 47.5357512953368  74.5684210526316 47.5357512953368  C 74.1754385964912 47.1461139896373  73.7824561403509 46.5616580310881  73.3894736842105 45.7823834196891  C 73.3894736842105 45.7823834196891  73.2912280701754 45.6849740932643  73.2912280701754 45.6849740932643  L 72.9964912280702 44.1264248704663  L 72.9964912280702 44.0290155440415  L 72.9964912280702 43.9316062176166  L 73.5859649122807 40.9119170984456  L 73.5859649122807 40.8145077720207  L 74.1754385964912 39.5481865284974  L 74.1754385964912 39.4507772020725  L 74.1754385964912 39.3533678756477  L 74.2736842105263 39.3533678756477  L 78.0070175438596 37.7948186528497  L 79.4807017543859 36.0414507772021  L 79.7754385964912 34.580310880829  C 79.7754385964912 34.580310880829  79.5789473684211 33.5088082901554  79.5789473684211 33.5088082901554  C 78.9894736842105 32.2424870466321  78.5964912280702 31.4632124352332  78.5964912280702 30.9761658031088  C 78.5964912280702 30.9761658031088  77.8105263157895 31.0735751295337  77.8105263157895 31.0735751295337  C 77.8105263157895 31.0735751295337  76.4350877192982 30.9761658031088  76.4350877192982 30.9761658031088  C 76.140350877193 31.0735751295337  75.3543859649123 31.9502590673575  74.2736842105263 33.2165803108808  C 74.2736842105263 33.2165803108808  72.6035087719298 34.7751295336788  72.6035087719298 34.7751295336788  L 72.5052631578947 34.7751295336788  C 72.5052631578947 34.7751295336788  72.4070175438596 34.8725388601036  72.4070175438596 34.8725388601036  C 71.1298245614035 35.1647668393782  70.2456140350877 35.359585492228  69.7543859649123 35.1647668393782  Z " fill-rule="nonzero" fill="#0079fe" stroke="none" fill-opacity="0.219607843137255" transform="matrix(1 0 0 1 565 451 )" />
  </g>
</svg>