<?xml version="1.0" encoding="utf-8"?>
<svg version="1.1" xmlns:xlink="http://www.w3.org/1999/xlink" width="37px" height="46px" xmlns="http://www.w3.org/2000/svg">
  <g transform="matrix(1 0 0 1 -726 -521 )">
    <path d="M 23.4397905759162 13.0726495726496  L 23.3429319371728 12.974358974359  L 23.2460732984293 12.974358974359  C 23.2460732984293 12.974358974359  23.2460732984293 12.8760683760684  23.2460732984293 12.8760683760684  C 22.1806282722513 9.14102564102564  21.2120418848168 7.07692307692309  20.5340314136126 6.78205128205128  C 20.5340314136126 6.78205128205128  17.1439790575916 5.60256410256412  17.1439790575916 5.60256410256412  C 15.2068062827225 5.0128205128205  13.8507853403141 4.61965811965813  13.2696335078534 4.22649572649574  C 12.3010471204189 3.63675213675215  11.0418848167539 2.26068376068377  9.58900523560211 0  C 9.58900523560211 0  9.00785340314136 0  9.00785340314136 0  C 9.00785340314136 0  9.10471204188484 0.0982905982905926  9.10471204188484 0.0982905982905926  C 9.29842931937174 0.88461538461539  10.0732984293194 2.26068376068377  11.7198952879581 4.22649572649574  C 11.7198952879581 4.22649572649574  11.8167539267016 4.32478632478633  11.8167539267016 4.32478632478633  L 11.913612565445 4.52136752136751  C 11.913612565445 4.52136752136751  10.3638743455498 7.37179487179487  10.3638743455498 7.37179487179487  C 9.78272251308902 8.45299145299145  9.20157068062826 8.94444444444443  8.62041884816756 8.74786324786325  C 8.23298429319371 8.55128205128207  7.45811518324611 7.66666666666668  6.19895287958118 5.99572649572649  C 6.19895287958118 5.99572649572649  4.55235602094245 5.5042735042735  4.55235602094245 5.5042735042735  C 4.55235602094245 5.99572649572649  4.84293193717277 6.97863247863247  5.520942408377 8.55128205128207  C 5.520942408377 8.55128205128207  5.520942408377 8.64957264957266  5.520942408377 8.64957264957266  L 5.520942408377 8.74786324786325  L 5.520942408377 8.84615384615384  L 5.520942408377 8.94444444444443  L 5.23036649214662 10.025641025641  L 3.48691099476442 10.8119658119658  C 3.48691099476442 10.8119658119658  2.90575916230366 11.008547008547  2.90575916230366 11.008547008547  C 2.61518324607334 11.3034188034188  2.61518324607334 11.7948717948718  2.71204188481676 12.3846153846154  C 2.90575916230366 13.8589743589743  2.80890052356024 14.7435897435897  2.51832460732986 15.1367521367521  C 2.32460732984296 15.3333333333333  2.22774869109948 15.3333333333333  2.03403141361259 15.3333333333333  C 2.03403141361259 15.3333333333333  1.93717277486911 15.3333333333333  1.93717277486911 15.3333333333333  C 1.93717277486911 15.3333333333333  0 14.940170940171  0 14.940170940171  C 0.0968586387434774 15.3333333333333  0.387434554973855 15.7264957264957  0.871727748691131 16.0213675213675  C 1.84031413612569 16.9059829059829  2.61518324607334 18.1837606837607  3.39005235602094 19.6581196581196  C 3.39005235602094 19.6581196581196  3.48691099476442 19.9529914529915  3.48691099476442 19.9529914529915  C 3.48691099476442 19.9529914529915  4.35863874345549 19.7564102564102  4.35863874345549 19.7564102564102  C 5.42408376963352 19.5598290598291  6.39267015706808 19.7564102564102  7.36125654450263 20.4444444444444  C 7.36125654450263 20.4444444444444  8.42670157068066 21.7222222222222  8.42670157068066 21.7222222222222  L 8.52356020942408 21.8205128205128  L 8.52356020942408 21.9188034188034  L 8.42670157068066 21.9188034188034  C 8.42670157068066 21.9188034188034  8.32984293193718 24.474358974359  8.32984293193718 24.474358974359  C 8.62041884816756 24.8675213675214  8.81413612565446 25.3589743589744  8.62041884816756 25.7521367521368  C 8.42670157068066 26.2435897435897  8.03926701570681 26.5384615384615  7.36125654450263 26.6367521367521  C 6.58638743455498 26.6367521367521  6.19895287958118 27.1282051282051  6.00523560209428 28.1111111111111  C 6.00523560209428 28.1111111111111  6.00523560209428 28.2094017094017  6.00523560209428 28.2094017094017  L 5.23036649214662 29.8803418803419  L 6.39267015706808 31.059829059829  L 8.91099476439794 31.551282051282  L 9.10471204188484 31.551282051282  L 10.3638743455498 32.9273504273504  L 8.81413612565446 35.2863247863248  L 12.3979057591623 43.1495726495726  L 12.4947643979058 43.3461538461538  L 11.913612565445 44.034188034188  L 12.1073298429319 44.6239316239316  L 12.2041884816754 44.6239316239316  L 18.7905759162304 40.3974358974359  C 18.7905759162304 40.3974358974359  17.7251308900523 42.3632478632478  17.7251308900523 42.3632478632478  C 16.8534031413613 43.8376068376068  16.369109947644 45.1153846153846  16.1753926701571 46  C 17.3376963350785 45.508547008547  18.3062827225131 44.6239316239316  18.8874345549738 43.051282051282  C 18.8874345549738 43.051282051282  18.9842931937173 42.8547008547008  18.9842931937173 42.8547008547008  L 19.0811518324608 42.8547008547008  L 20.9214659685864 41.8717948717948  L 21.0183246073299 41.6752136752137  L 23.6335078534031 44.034188034188  L 26.5392670157068 44.1324786324786  L 26.6361256544502 44.2307692307692  L 27.9921465968586 45.1153846153846  C 27.9921465968586 45.1153846153846  31.5759162303665 41.9700854700855  31.5759162303665 41.9700854700855  C 31.8664921465969 41.6752136752137  32.1570680628272 41.0854700854701  32.544502617801 40.1025641025641  C 32.544502617801 40.1025641025641  32.9319371727748 39.3162393162393  32.9319371727748 39.3162393162393  C 33.0287958115183 38.9230769230769  32.544502617801 37.9401709401709  31.5759162303665 36.2692307692308  C 31.5759162303665 36.2692307692308  30.7041884816754 34.991452991453  30.7041884816754 34.991452991453  L 34.9659685863874 36.4658119658119  L 36.2251308900523 35.7777777777778  L 34.9659685863874 33.025641025641  L 34.8691099476439 32.9273504273504  L 37 30.0769230769231  C 37 30.0769230769231  36.1282722513089 28.7008547008547  36.1282722513089 28.7008547008547  C 35.2565445026178 27.7179487179487  34.675392670157 27.2264957264957  34.2879581151832 27.2264957264957  C 34.2879581151832 27.2264957264957  34.0942408376963 27.3247863247863  34.0942408376963 27.3247863247863  L 33.0287958115183 28.4059829059829  L 32.8350785340314 28.3076923076923  L 32.6413612565445 28.3076923076923  L 30.8979057591623 27.7179487179487  C 30.8979057591623 27.7179487179487  30.413612565445 26.1452991452991  30.413612565445 26.1452991452991  C 29.7356020942408 26.0470085470085  29.0575916230366 25.6538461538461  28.4764397905759 24.965811965812  C 28.4764397905759 24.965811965812  27.4109947643979 24.2777777777778  27.4109947643979 24.2777777777778  C 26.5392670157068 23.8846153846154  26.0549738219895 23.3931623931624  26.0549738219895 22.9017094017094  C 25.8612565445026 22.3119658119658  26.0549738219895 21.6239316239316  26.6361256544502 20.7393162393162  C 27.7015706806283 19.1666666666667  28.282722513089 17.8888888888889  28.282722513089 16.9059829059829  C 28.282722513089 16.9059829059829  28.282722513089 15.6282051282051  28.282722513089 15.6282051282051  L 28.9607329842932 15.7264957264957  C 28.9607329842932 15.7264957264957  31.1884816753927 15.8247863247863  31.1884816753927 15.8247863247863  C 31.3821989528796 15.6282051282051  31.67277486911 14.6452991452991  32.0602094240838 12.8760683760684  C 32.0602094240838 12.8760683760684  31.3821989528796 12.7777777777778  31.3821989528796 12.7777777777778  C 29.8324607329843 13.8589743589743  28.6701570680628 14.5470085470085  27.7984293193717 14.8418803418803  C 26.7329842931937 15.1367521367521  25.3769633507854 14.5470085470085  23.4397905759162 13.1709401709402  C 23.4397905759162 13.1709401709402  23.4397905759162 13.0726495726496  23.4397905759162 13.0726495726496  Z " fill-rule="nonzero" fill="#0079fe" stroke="none" transform="matrix(1 0 0 1 726 521 )" />
  </g>
</svg>