<?xml version="1.0" encoding="utf-8"?>
<svg version="1.1" xmlns:xlink="http://www.w3.org/1999/xlink" width="176px" height="148px" xmlns="http://www.w3.org/2000/svg">
  <g transform="matrix(1 0 0 1 -598 -350 )">
    <path d="M 172.056022408964 18.4635587655942  C 172.056022408964 18.4635587655942  172.450420168067 15.7426132632961  172.450420168067 15.7426132632961  L 171.760224089636 13.6047275114905  L 169.985434173669 10.5922521339462  L 168.506442577031 9.81483913328956  L 167.027450980392 10.5922521339462  L 166.140056022409 12.3414313854235  C 166.140056022409 12.3414313854235  162.98487394958 13.021667760998  162.98487394958 13.021667760998  C 162.689075630252 13.2160210111622  162.393277310924 13.3131976362443  162.196078431373 13.6047275114905  C 162.196078431373 13.6047275114905  161.604481792717 14.284963887065  161.604481792717 14.284963887065  L 160.125490196078 15.4510833880499  C 160.125490196078 15.4510833880499  158.449299719888 15.8397898883782  158.449299719888 15.8397898883782  C 157.857703081232 15.7426132632961  156.970308123249 15.2567301378858  155.787114845938 14.3821405121471  C 153.716526610644 12.3414313854235  152.730532212885 10.9809586342745  152.730532212885 10.2035456336179  C 152.730532212885 10.2035456336179  152.730532212885 7.67695338148391  152.730532212885 7.67695338148391  L 153.026330532213 6.99671700590939  L 150.166946778711 6.02495075508864  C 150.166946778711 6.02495075508864  150.068347338936 6.99671700590939  150.068347338936 6.99671700590939  C 150.068347338936 7.28824688115561  149.772549019608 7.67695338148391  149.279551820728 7.96848325673014  C 149.279551820728 7.96848325673014  148.293557422969 8.35718975705844  148.293557422969 8.35718975705844  L 146.420168067227 7.87130663164806  L 146.715966386555 8.94024950755088  C 146.715966386555 8.94024950755088  144.152380952381 7.28824688115561  144.152380952381 7.28824688115561  C 143.560784313725 6.12212738017072  143.363585434174 5.05318450426789  143.363585434174 3.88706500328299  C 143.363585434174 2.91529875246225  143.46218487395 2.3322390019698  143.856582633053 1.9435325016415  C 143.856582633053 1.9435325016415  144.448179271709 0.874589625738674  144.448179271709 0.874589625738674  L 144.250980392157 0  C 144.250980392157 0  141.687394957983 0.3887065003283  141.687394957983 0.3887065003283  C 140.405602240896 0.485883125410374  139.518207282913 1.26329612606697  139.025210084034 2.7209455022981  C 139.025210084034 2.7209455022981  137.546218487395 5.05318450426789  137.546218487395 5.05318450426789  L 139.025210084034 4.95600787918582  L 140.504201680672 5.53906762967826  L 140.898599439776 5.92777413000657  L 141.095798319328 7.96848325673014  L 141.687394957983 9.91201575837163  C 141.687394957983 9.91201575837163  138.433613445378 16.5200262639527  138.433613445378 16.5200262639527  C 137.842016806723 17.3946158896914  137.546218487395 19.7268548916612  137.349019607843 23.2252133946159  C 137.349019607843 23.2252133946159  136.067226890756 25.946158896914  136.067226890756 25.946158896914  C 136.067226890756 25.946158896914  136.954621848739 26.9179251477347  136.954621848739 26.9179251477347  C 137.053221288515 28.56992777413  136.954621848739 29.4445173998687  136.560224089636 29.6388706500328  C 135.574229691877 30.1247537754432  133.306442577031 32.456992777413  129.658263305322 36.8299409061064  C 129.658263305322 36.8299409061064  129.165266106443 37.0242941562705  129.165266106443 37.0242941562705  C 127.587675070028 35.9553512803677  126.404481792717 35.1779382797111  125.714285714286 34.4005252790545  C 125.12268907563 34.0118187787262  123.643697478992 33.72028890348  121.178711484594 33.72028890348  C 121.178711484594 33.72028890348  121.080112044818 38.1904136572554  121.080112044818 38.1904136572554  C 121.080112044818 38.1904136572554  119.206722689076 46.741956664478  119.206722689076 46.741956664478  C 118.812324929972 47.8108995403808  118.713725490196 49.7544320420223  118.713725490196 52.6697307944846  C 118.713725490196 52.6697307944846  119.403921568627 53.5443204202232  119.403921568627 53.5443204202232  L 119.995518207283 52.3782009192383  L 122.460504201681 51.0177281680893  L 128.770868347339 51.98949441891  L 129.46106442577 51.2120814182534  L 130.348459383753 49.6572554169403  L 133.109243697479 48.9770190413657  C 133.109243697479 48.9770190413657  136.363025210084 48.7826657912016  136.363025210084 48.7826657912016  C 137.349019607843 48.9770190413657  138.532212885154 50.2403151674327  140.011204481793 52.1838476690742  C 143.955182072829 54.1273801707157  146.124369747899 55.876559422193  146.617366946779 57.4313854235062  C 146.913165266106 58.2087984241628  146.913165266106 58.7918581746553  146.617366946779 59.4720945502298  C 146.321568627451 60.1523309258043  145.63137254902 60.5410374261326  144.645378151261 60.6382140512147  C 139.715406162465 60.4438608010506  136.954621848739 60.4438608010506  135.96862745098 60.7353906762968  C 135.96862745098 60.7353906762968  133.602240896359 62.29021667761  133.602240896359 62.29021667761  C 130.644257703081 64.4281024294156  128.672268907563 65.4970453053185  127.587675070028 65.4970453053185  C 127.587675070028 65.4970453053185  125.61568627451 65.7885751805646  125.61568627451 65.7885751805646  C 125.61568627451 65.7885751805646  124.432492997199 70.6474064346684  124.432492997199 70.6474064346684  C 124.136694677871 72.1050558108995  123.643697478992 73.0768220617203  122.756302521008 73.7570584372948  C 121.967507002801 74.5344714379514  120.78431372549 75.0203545633618  119.206722689076 75.311884438608  C 117.333333333333 75.6034143138542  115.755742296919 76.2836506894288  114.27675070028 77.1582403151674  C 114.27675070028 77.1582403151674  112.60056022409 80.6565988181221  112.60056022409 80.6565988181221  L 107.76918767507 82.6001313197636  C 107.76918767507 82.6001313197636  105.205602240896 82.1142481943532  105.205602240896 82.1142481943532  C 103.43081232493 81.822718319107  102.050420168067 81.3368351936966  101.163025210084 80.7537754432042  C 99.9798319327731 80.1707156927117  98.6980392156863 80.0735390676297  97.3176470588235 80.462245567958  C 96.1344537815126 82.1142481943532  95.5428571428571 84.1549573210768  95.6414565826331 86.3900196979645  C 95.7400560224089 87.5561391989494  96.0358543417367 88.333552199606  96.3316526610644 88.5279054497702  C 96.3316526610644 88.5279054497702  97.0218487394958 88.4307288246881  97.0218487394958 88.4307288246881  L 97.8106442577031 87.9448456992777  C 97.8106442577031 87.9448456992777  98.0078431372549 91.0544977019041  98.0078431372549 91.0544977019041  C 98.0078431372549 92.1234405778069  97.6134453781513 92.9008535784636  96.824649859944 93.483913328956  C 96.3316526610644 93.8726198292843  95.4442577030812 94.2613263296126  94.1624649859944 94.6500328299409  C 94.1624649859944 94.6500328299409  93.3736694677871 94.8443860801051  93.3736694677871 94.8443860801051  C 92.387675070028 95.2330925804334  90.3170868347339 97.8568614576494  87.2605042016807 102.618516086671  C 87.2605042016807 102.618516086671  84.2039215686275 104.46487196323  84.2039215686275 104.46487196323  C 84.696918767507 104.46487196323  84.9927170868347 104.659225213395  84.8941176470588 105.047931713723  C 84.7955182072829 105.436638214051  84.4997198879552 105.533814839133  83.7109243697479 105.630991464215  C 83.7109243697479 105.630991464215  75.3299719887955 105.436638214051  75.3299719887955 105.436638214051  C 65.963025210084 105.145108338805  58.6666666666667 107.671700590939  53.4408963585434 112.919238345371  C 53.4408963585434 112.919238345371  49.5955182072829 113.502298095863  49.5955182072829 113.502298095863  L 48.2151260504202 111.267235718976  C 48.2151260504202 111.267235718976  44.6655462184874 112.141825344714  44.6655462184874 112.141825344714  C 42.7921568627451 112.239001969796  40.3271708683473 111.753118844386  37.5663865546218 110.392646093237  C 35.0028011204482 109.323703217334  32.7350140056022 107.866053841103  30.4672268907563 106.116874589626  C 28.9882352941177 104.950755088641  27.1148459383753 104.173342087984  24.9456582633053 103.784635587656  C 24.9456582633053 103.784635587656  21.7904761904762 103.49310571241  21.7904761904762 103.49310571241  C 21.7904761904762 103.49310571241  18.2408963585434 103.97898883782  18.2408963585434 103.97898883782  C 15.6773109243698 104.367695338148  13.1137254901961 104.367695338148  10.7473389355742 104.173342087984  C 7.88795518207283 103.97898883782  4.43697478991596 103.201575837163  0.295798319327742 101.938279711097  C 0.295798319327742 101.938279711097  0 102.521339461589  0 102.521339461589  L 0.394397759103647 103.687458962574  L 1.28179271708685 105.533814839133  L 3.35238095238096 108.060407091267  L 3.05658263305322 110.198292843073  L 1.7747899159664 111.850295469468  C 1.7747899159664 111.850295469468  3.05658263305322 113.113591595535  3.05658263305322 113.113591595535  C 3.54957983193277 113.599474720945  3.84537815126051 113.988181221274  3.84537815126051 114.376887721602  C 3.84537815126051 114.376887721602  4.14117647058822 116.223243598162  4.14117647058822 116.223243598162  L 5.62016806722688 117.680892974393  L 5.81736694677872 119.138542350624  L 5.81736694677872 120.110308601445  L 6.70476190476191 120.790544977019  C 6.70476190476191 120.790544977019  7.29635854341737 120.596191726855  7.29635854341737 120.596191726855  C 7.69075630252102 119.527248850952  8.18375350140057 119.138542350624  8.87394957983193 119.041365725542  C 8.87394957983193 119.041365725542  9.66274509803923 118.749835850295  9.66274509803923 118.749835850295  L 14.8885154061625 118.263952724885  L 16.9591036414566 117.486539724228  L 17.4521008403361 117.195009848982  C 17.4521008403361 117.195009848982  18.5366946778712 119.527248850952  18.5366946778712 119.527248850952  C 18.733893557423 120.110308601445  18.6352941176471 120.596191726855  18.3394957983193 121.082074852265  C 18.3394957983193 121.082074852265  15.4801120448179 125.06631648063  15.4801120448179 125.06631648063  L 15.6773109243698 125.746552856205  L 16.9591036414566 127.009848982272  C 16.9591036414566 127.009848982272  18.2408963585434 127.787261982928  18.2408963585434 127.787261982928  C 18.9310924369748 128.564674983585  19.4240896358543 129.050558108995  20.0156862745098 129.24491135916  C 20.7058823529412 129.439264609324  21.3960784313725 130.022324359816  21.987675070028 130.799737360473  C 21.987675070028 130.799737360473  23.072268907563 131.479973736047  23.072268907563 131.479973736047  L 23.7624649859944 132.646093237032  L 23.8610644257703 133.715036112935  L 24.2554621848739 135.269862114248  L 26.7204481792717 135.658568614577  L 27.1148459383753 136.047275114905  L 27.8050420168067 137.407747866054  L 29.7770308123249 138.087984241628  L 31.1574229691877 137.407747866054  L 30.9602240896359 136.630334865397  L 29.678431372549 135.464215364412  L 30.9602240896359 133.03479973736  L 33.3266106442577 133.03479973736  L 36.7775910364146 134.298095863427  L 38.6509803921568 134.006565988181  C 38.6509803921568 134.006565988181  40.1299719887955 132.646093237032  40.1299719887955 132.646093237032  C 41.806162464986 130.605384110309  42.890756302521 129.73079448457  43.5809523809524 130.21667760998  C 43.5809523809524 130.21667760998  44.3697478991597 130.119500984898  44.3697478991597 130.119500984898  C 45.2571428571429 130.119500984898  45.7501400560224 130.21667760998  46.0459383753501 130.313854235062  C 46.144537815126 130.508207485227  46.243137254902 130.702560735391  46.243137254902 130.896913985555  C 46.243137254902 131.285620485883  46.6375350140056 132.06303348654  47.2291316526611 133.131976362443  C 47.2291316526611 133.131976362443  47.5249299719888 134.686802363756  47.5249299719888 134.686802363756  L 47.1305322128852 136.533158240315  L 45.3557422969188 138.671043992121  L 41.7075630252101 140.323046618516  L 41.2145658263305 141.294812869337  L 40.721568627451 144.112934996717  L 41.0173669467787 145.473407747866  L 41.9047619047619 146.931057124097  L 43.4823529411765 148  L 47.6235294117647 148  L 51.0745098039216 147.51411687459  C 51.0745098039216 147.51411687459  51.5675070028011 147.028233749179  51.5675070028011 147.028233749179  C 52.0605042016807 146.445173998687  52.5535014005602 146.250820748523  52.849299719888 146.250820748523  C 52.849299719888 146.250820748523  55.2156862745098 146.639527248851  55.2156862745098 146.639527248851  C 55.2156862745098 145.570584372948  55.2156862745098 144.987524622456  55.6100840336134 144.404464871963  C 55.6100840336134 144.404464871963  56.5960784313726 142.752462245568  56.5960784313726 142.752462245568  L 56.5960784313726 139.642810242942  L 58.3708683473389 134.492449113592  L 61.624649859944 131.771503611294  C 61.624649859944 131.771503611294  64.4840336134454 132.743269862114  64.4840336134454 132.743269862114  C 65.8644257703081 133.715036112935  66.5546218487395 134.492449113592  66.5546218487395 134.978332239002  C 66.5546218487395 134.978332239002  66.3574229691877 137.116217990808  66.3574229691877 137.116217990808  L 65.4700280112045 138.476690741957  L 64.7798319327731 140.420223243598  L 64.7798319327731 142.558108995404  L 65.4700280112045 143.529875246225  L 66.3574229691877 143.432698621142  C 66.3574229691877 143.432698621142  68.0336134453782 143.432698621142  68.0336134453782 143.432698621142  C 68.8224089635854 143.821405121471  69.315406162465 144.501641497045  69.7098039215686 145.473407747866  C 69.7098039215686 145.473407747866  70.5971988795518 145.764937623112  70.5971988795518 145.764937623112  L 74.1467787114846 147.319763624425  L 75.6257703081232 147.805646749836  L 77.6963585434174 147.51411687459  L 78.5837535014006 146.347997373605  L 79.7669467787115 141.586342744583  L 79.8655462184874 138.962573867367  L 80.1613445378151 138.573867367039  L 82.0347338935574 137.019041365726  L 83.1193277310924 135.658568614577  L 85.1899159663866 134.686802363756  L 86.3731092436975 134.006565988181  L 87.8521008403361 133.423506237689  L 87.0633053221288 130.508207485227  L 90.4156862745098 130.896913985555  L 92.1904761904762 131.674326986211  L 92.6834733893558 129.73079448457  L 93.1764705882353 129.536441234406  L 94.7540616246498 129.925147734734  L 95.5428571428571 129.925147734734  L 97.0218487394958 128.273145108339  L 99.2896358543417 127.787261982928  L 100.965826330532 126.232435981615  L 101.853221288515 124.969139855548  C 101.853221288515 124.969139855548  101.853221288515 123.414313854235  101.853221288515 123.414313854235  C 101.853221288515 122.831254103743  102.149019607843 122.442547603414  102.740616246499 122.151017728168  C 102.740616246499 122.151017728168  104.909803921569 122.345370978332  104.909803921569 122.345370978332  L 105.698599439776 121.859487852922  L 105.994397759104 120.499015101773  L 107.966386554622 119.91595535128  L 110.628571428571 120.207485226527  L 112.60056022409 119.721602101116  L 113.783753501401 118.555482600131  L 114.572549019608 117.000656598818  L 113.093557422969 115.445830597505  L 112.797759103641 114.182534471438  L 112.403361344538 112.433355219961  C 112.403361344538 112.433355219961  113.290756302521 110.781352593565  113.290756302521 110.781352593565  C 113.290756302521 110.295469468155  113.586554621849 109.61523309258  114.375350140056 108.837820091924  C 114.375350140056 108.837820091924  115.459943977591 106.699934340118  115.459943977591 106.699934340118  L 116.544537815126 105.047931713723  L 118.023529411765 102.132632961261  L 119.403921568627 104.076165462902  L 119.995518207283 106.214051214708  L 120.291316526611 108.254760341431  L 121.671708683473 108.837820091924  L 122.164705882353 109.032173342088  L 123.44649859944 106.894287590282  L 124.136694677871 104.950755088641  L 124.728291316527 105.145108338805  L 127.587675070028 106.116874589626  L 128.968067226891 105.047931713723  L 130.644257703081 104.853578463559  L 131.63025210084 103.201575837163  L 131.63025210084 101.16086671044  L 132.320448179272 98.0512147078135  L 134.982633053221 98.634274458306  L 135.96862745098 96.8850952068286  L 138.236414565826 96.6907419566645  L 138.729411764706 96.8850952068286  L 139.715406162465 98.2455679579777  L 140.011204481793 100.577806959947  L 140.997198879552 101.452396585686  L 142.377591036415 100.189100459619  C 142.377591036415 100.189100459619  142.673389355742 100.577806959947  142.673389355742 100.577806959947  C 143.166386554622 101.063690085358  143.363585434174 101.549573210768  143.363585434174 102.132632961261  C 143.363585434174 102.132632961261  143.363585434174 103.881812212738  143.363585434174 103.881812212738  L 142.673389355742 105.630991464215  L 143.166386554622 106.408404464872  L 144.152380952381 107.477347340775  L 148.293557422969 108.060407091267  L 148.885154061625 108.546290216678  L 150.068347338936 106.894287590282  L 151.152941176471 105.922521339462  L 150.758543417367 104.46487196323  L 149.673949579832 98.2455679579777  L 152.533333333333 99.6060407091267  L 154.012324929972 101.16086671044  L 154.801120448179 101.938279711097  L 155.98431372549 101.16086671044  L 160.125490196078 96.6907419566645  L 161.703081232493 95.6217990807616  L 163.379271708683 93.2895600787919  L 165.745658263305 93.6782665791201  C 165.745658263305 93.6782665791201  166.83025210084 93.6782665791201  166.83025210084 93.6782665791201  C 166.83025210084 92.8036769533815  167.027450980392 92.220617202889  167.126050420168 91.8319107025607  C 167.126050420168 91.8319107025607  168.802240896359 89.8883782009192  168.802240896359 89.8883782009192  L 169.295238095238 89.596848325673  L 171.267226890756 90.2770847012475  L 173.633613445378 89.9855548260013  L 175.211204481793 88.333552199606  L 176 86.8759028233749  L 175.50700280112 86.0984898227183  L 174.126610644258 86.7787261982928  L 172.154621848739 85.0295469468155  L 172.746218487395 82.3086014445174  L 172.943417366947 80.3650689428759  L 172.450420168067 78.7130663164806  L 171.070028011204 78.2271831910702  L 169.689635854342 75.6034143138542  L 167.816246498599 77.2554169402495  L 166.140056022409 78.3243598161523  L 165.548459383753 78.2271831910702  L 163.773669467787 76.575180564675  L 162.4918767507 73.7570584372948  L 161.900280112045 71.7163493105712  L 161.900280112045 68.7038739330269  L 161.703081232493 66.9546946815496  L 160.32268907563 66.4688115561392  L 157.068907563025 63.9422193040052  L 158.745098039216 62.0958634274458  C 158.745098039216 62.0958634274458  160.618487394958 61.7071569271175  160.618487394958 61.7071569271175  C 161.210084033613 61.7071569271175  161.703081232493 61.9986868023638  162.097478991597 62.4845699277741  C 162.097478991597 62.4845699277741  163.477871148459 63.5535128036769  163.477871148459 63.5535128036769  L 164.956862745098 62.387393302692  L 166.041456582633 60.9297439264609  L 166.041456582633 59.666447800394  L 165.647058823529 56.5567957977676  L 165.351260504202 55.2934996717006  L 163.182072829132 54.9047931713723  L 163.182072829132 53.6414970453053  L 161.210084033613 51.2120814182534  L 160.125490196078 49.365725541694  L 162.097478991597 46.1588969139856  L 163.280672268908 45.7701904136573  L 164.365266106443 44.8956007879186  L 165.647058823529 41.0085357846356  L 167.32324929972 39.1621799080762  L 169.295238095238 38.5791201575837  L 170.478431372549 39.7452396585686  L 171.563025210084 36.8299409061064  L 170.872829131653 34.6920551543007  L 171.070028011204 31.9711096520026  L 172.253221288515 30.5134602757715  L 173.042016806723 29.1529875246225  C 173.042016806723 29.1529875246225  173.140616246499 27.9868680236376  173.140616246499 27.9868680236376  C 173.140616246499 27.4038082731451  172.844817927171 26.4320420223244  172.253221288515 24.9743926460932  C 172.253221288515 24.9743926460932  172.253221288515 22.6421536441234  172.253221288515 22.6421536441234  C 172.253221288515 22.6421536441234  172.746218487395 20.5042678923178  172.746218487395 20.5042678923178  C 172.351820728291 19.6296782665791  172.056022408964 18.9494418910046  172.056022408964 18.4635587655942  Z " fill-rule="nonzero" fill="#0079fe" stroke="none" fill-opacity="0.219607843137255" transform="matrix(1 0 0 1 598 350 )" />
  </g>
</svg>