<?xml version="1.0" encoding="utf-8"?>
<svg version="1.1" xmlns:xlink="http://www.w3.org/1999/xlink" width="42px" height="51px" xmlns="http://www.w3.org/2000/svg">
  <g transform="matrix(1 0 0 1 -806.5 -623.5 )">
    <path d="M 10.9090909090909 31.1818181818182  L 11.8181818181818 26.7272727272727  L 11.7045454545455 27.8409091351162  L 11.5909090909091 28.7787081362977  L 11.3636363636364 29.7165072258951  L 10.9090909090909 31.1818181818182  Z M 35.4545454545455 24.9454545454545  L 34.5454545454545 30.2909090909091  L 35.1363636363633 28.2195454394267  L 35.4545454545455 24.9454545454545  Z M 20.9090909090909 47.2181818181818  L 15.4545454545455 49  L 17.3140495867772 48.7149090307025  L 18.9876033057854 48.2159999956998  L 20.9090909090909 47.2181818181818  Z M 6.66193181818182 43.6545454545455  L 6.78125000000033 38.3090909090909  L 6.36363636363636 39.8269360318518  L 6.48295454545488 42.1367003317846  L 6.66193181818182 43.6545454545455  Z M 11.8181818181818 22.2727272727273  L 9.09090909090909 17.8181818181818  L 9.79020979020954 18.3599508452251  L 10.4895104895108 19.142506167048  L 10.9090909090909 19.8648648697729  L 11.8181818181818 22.2727272727273  Z M 6.36363636363636 4.45454545454546  L 0 0  L 0.131208997188217 0.0610211661965546  L 0.524835988753694 0.305105849393889  L 0.393626991565477 0.48816936639467  L 1.11527647610108 0.854296391191482  L 1.77132146204299 0.732254049592004  L 2.75538894095586 0.854296391191482  L 3.41143392689777 1.22042341598667  L 3.08341143392681 1.83063512398082  L 3.01780693533312 2.50186799817152  L 3.01780693533312 3.23412204776353  L 3.80506091846324 3.60024907255872  L 4.32989690721611 3.90535492195423  L 5.24835988753528 4.14943960515157  L 5.77319587628898 4.02739726355209  L 6.36363636363636 4.45454545454546  Z " fill-rule="nonzero" fill="#0079fe" stroke="none" transform="matrix(1 0 0 1 807 624 )" />
    <path d="M 11.8181818181818 26.7272727272727  L 11.7045454545455 27.8409091351162  L 11.5909090909091 28.7787081362977  L 11.3636363636364 29.7165072258951  L 10.9090909090909 31.1818181818182  M 34.5454545454545 30.2909090909091  L 35.1363636363633 28.2195454394267  L 35.4545454545455 24.9454545454545  M 15.4545454545455 49  L 17.3140495867772 48.7149090307025  L 18.9876033057854 48.2159999956998  L 20.9090909090909 47.2181818181818  M 6.78125000000033 38.3090909090909  L 6.36363636363636 39.8269360318518  L 6.48295454545488 42.1367003317846  L 6.66193181818182 43.6545454545455  M 9.09090909090909 17.8181818181818  L 9.79020979020954 18.3599508452251  L 10.4895104895108 19.142506167048  L 10.9090909090909 19.8648648697729  L 11.8181818181818 22.2727272727273  M 0 0  L 0.131208997188217 0.0610211661965546  L 0.524835988753694 0.305105849393889  L 0.393626991565477 0.48816936639467  L 1.11527647610108 0.854296391191482  L 1.77132146204299 0.732254049592004  L 2.75538894095586 0.854296391191482  L 3.41143392689777 1.22042341598667  L 3.08341143392681 1.83063512398082  L 3.01780693533312 2.50186799817152  L 3.01780693533312 3.23412204776353  L 3.80506091846324 3.60024907255872  L 4.32989690721611 3.90535492195423  L 5.24835988753528 4.14943960515157  L 5.77319587628898 4.02739726355209  L 6.36363636363636 4.45454545454546  M 25.4545454545455 40.0909090909091  L 29.0909090909091 36.5272727272727  M 38.1818181818182 6.23636363636364  L 40 2.67272727272727  M 34.5454545454545 14.2545454545455  L 36.3636363636364 9.8  M 35.0227272727269 21.3818181818182  L 34.5454545454545 16.9272727272727  " stroke-width="1.08" stroke="#1890ff" fill="none" transform="matrix(1 0 0 1 807 624 )" />
  </g>
</svg>