<?xml version="1.0" encoding="utf-8"?>
<svg version="1.1" xmlns:xlink="http://www.w3.org/1999/xlink" width="54px" height="34px" xmlns="http://www.w3.org/2000/svg">
  <g transform="matrix(1 0 0 1 -725 -489 )">
    <path d="M 49.8232044198894 0.997067448680352  L 49.4254143646409 0.997067448680352  C 49.4254143646409 0.997067448680352  49.2265193370166 1.09677419354838  49.2265193370166 1.09677419354838  C 49.2265193370166 1.59530791788856  48.9281767955801 1.89442815249267  48.4309392265193 1.89442815249267  C 48.4309392265193 1.89442815249267  44.5524861878453 1.49560117302053  44.5524861878453 1.49560117302053  C 41.8674033149171 0.997067448680352  40.0773480662983 0.598240469208206  39.1823204419889 0.0997067448680296  C 39.1823204419889 0.0997067448680296  33.7127071823204 5.28445747800588  33.7127071823204 5.28445747800588  L 33.9116022099447 7.47800586510264  L 33.9116022099447 7.6774193548387  C 33.9116022099447 7.6774193548387  33.4143646408839 7.77712609970676  33.4143646408839 7.77712609970676  C 29.1381215469613 8.37536656891496  26.8508287292818 7.97653958944282  26.5524861878453 6.58064516129032  C 26.5524861878453 6.58064516129032  26.0552486187845 0.398826979472147  26.0552486187845 0.398826979472147  L 21.0828729281768 0.0997067448680296  L 18.9944751381215 4.48680351906159  C 18.9944751381215 4.48680351906159  18.7955801104972 2.59237536656891  18.7955801104972 2.59237536656891  C 18.6961325966851 1.09677419354838  18.3977900552486 0.199413489736059  18.0994475138121 0  C 18.0994475138121 0  15.9116022099447 1.09677419354838  15.9116022099447 1.09677419354838  L 14.9171270718232 2.39296187683285  L 14.817679558011 2.49266862170088  L 14.7182320441989 2.49266862170088  C 14.7182320441989 2.49266862170088  12.7292817679558 3.19061583577712  12.7292817679558 3.19061583577712  C 10.5414364640884 4.98533724340176  8.65193370165745 6.87976539589444  6.96132596685083 8.87390029325514  C 6.96132596685083 8.87390029325514  1.69060773480662 16.0527859237537  1.69060773480662 16.0527859237537  L 2.78453038674034 18.5454545454545  L 2.78453038674034 18.9442815249267  C 2.78453038674034 18.9442815249267  2.68508287292816 19.0439882697947  2.68508287292816 19.0439882697947  C 2.28729281767957 19.6422287390029  2.48618784530387 20.5395894428152  3.08287292817676 21.5366568914956  C 3.77900552486189 22.8328445747801  4.27624309392266 24.2287390029326  4.27624309392266 25.8240469208211  C 4.27624309392266 25.8240469208211  4.27624309392266 26.1231671554252  4.27624309392266 26.1231671554252  L 0 28.6158357771261  L 0 29.6129032258065  C 0 29.6129032258065  1.98895027624309 30.5102639296188  1.98895027624309 30.5102639296188  C 2.18784530386739 30.6099706744868  2.28729281767957 30.8093841642229  2.28729281767957 30.9090909090909  C 2.28729281767957 30.9090909090909  2.28729281767957 31.108504398827  2.28729281767957 31.108504398827  C 2.18784530386739 31.6070381231672  2.98342541436464 32.3049853372434  4.47513812154696 33.0029325513197  C 4.47513812154696 33.0029325513197  8.15469613259667 34  8.15469613259667 34  L 9.24861878453039 33.3020527859238  L 10.4419889502762 31.6070381231672  L 11.4364640883978 28.7155425219942  L 14.3204419889502 29.8123167155425  L 14.7182320441989 30.1114369501466  L 14.7182320441989 30.3108504398827  C 14.7182320441989 30.3108504398827  14.7182320441989 30.4105571847507  14.7182320441989 30.4105571847507  C 14.2209944751381 31.6070381231672  14.5193370165745 32.4046920821115  15.414364640884 32.9032258064516  C 15.414364640884 32.9032258064516  18.5966850828729 33.0029325513197  18.5966850828729 33.0029325513197  C 19.6906077348066 32.8035190615836  20.585635359116 32.4046920821115  21.182320441989 31.9061583577713  C 21.5801104972375 31.4076246334311  22.1767955801105 31.3079178885631  23.0718232044199 31.4076246334311  C 24.1657458563536 31.6070381231672  25.1602209944751 32.0058651026393  25.8563535911602 32.9032258064516  C 25.8563535911602 32.9032258064516  26.5524861878453 31.208211143695  26.5524861878453 31.208211143695  L 26.7513812154696 30.9090909090909  C 26.7513812154696 30.9090909090909  26.8508287292818 30.9090909090909  26.8508287292818 30.9090909090909  C 27.3480662983425 30.6099706744868  27.646408839779 30.1114369501466  28.0441988950276 29.4134897360704  C 28.3425414364641 28.7155425219942  28.8397790055248 28.0175953079179  29.6353591160221 27.5190615835777  C 29.6353591160221 27.5190615835777  31.0276243093922 26.7214076246335  31.0276243093922 26.7214076246335  L 31.1270718232044 26.6217008797654  L 31.2265193370165 26.7214076246335  L 31.3259668508287 26.7214076246335  L 32.121546961326 26.9208211143695  L 32.3204419889503 27.0205278592375  L 33.4143646408839 22.0351906158358  L 33.4143646408839 21.9354838709677  C 33.4143646408839 21.9354838709677  35.0055248618784 21.6363636363636  35.0055248618784 21.6363636363636  C 36.5966850828729 20.5395894428152  37.3922651933701 19.6422287390029  37.292817679558 18.8445747800587  C 37.292817679558 18.8445747800587  36.9944751381215 17.3489736070381  36.9944751381215 17.3489736070381  C 36.5966850828729 16.3519061583578  36.5966850828729 15.6539589442815  36.7955801104972 15.3548387096774  C 37.0939226519337 15.0557184750733  37.292817679558 14.9560117302053  37.5911602209945 14.9560117302053  C 38.2872928176795 14.9560117302053  39.0828729281768 15.1554252199413  39.878453038674 15.5542521994135  C 39.878453038674 15.5542521994135  40.0773480662983 13.9589442815249  40.0773480662983 13.9589442815249  L 40.0773480662983 13.7595307917889  L 40.1767955801105 13.6598240469208  L 41.8674033149171 12.8621700879765  L 42.0662983425414 11.9648093841642  L 41.0718232044199 11.9648093841642  L 40.8729281767955 11.8651026392962  L 40.9723756906077 11.366568914956  L 40.9723756906077 11.0674486803519  L 41.0718232044199 10.8680351906158  L 41.3701657458563 10.8680351906158  C 41.3701657458563 10.8680351906158  41.5690607734807 10.8680351906158  41.5690607734807 10.8680351906158  C 42.2651933701657 10.8680351906158  43.060773480663 10.4692082111437  43.9558011049723 9.6715542521994  C 43.9558011049723 9.6715542521994  50.2209944751381 5.18475073313782  50.2209944751381 5.18475073313782  L 50.4198895027624 5.18475073313782  L 52.4088397790055 6.08211143695014  L 53.2044198895027 5.98240469208211  L 52.707182320442 3.88856304985338  L 52.707182320442 3.68914956011729  L 52.8066298342541 3.58944281524926  L 52.9060773480663 3.48973607038123  L 54 1.69501466275659  L 53.7016574585635 1.49560117302053  L 53.0055248618784 1.69501466275659  L 53.0055248618784 1.79472140762465  L 52.9060773480663 1.79472140762465  L 50.9171270718232 2.09384164222873  L 50.4198895027624 2.09384164222873  L 50.3204419889502 2.09384164222873  L 50.3204419889502 1.9941348973607  L 50.2209944751381 1.69501466275659  L 49.8232044198894 0.997067448680352  Z " fill-rule="nonzero" fill="#0079fe" stroke="none" transform="matrix(1 0 0 1 725 489 )" />
  </g>
</svg>