<?xml version="1.0" encoding="utf-8"?>
<svg version="1.1" xmlns:xlink="http://www.w3.org/1999/xlink" width="63px" height="48px" xmlns="http://www.w3.org/2000/svg">
  <g transform="matrix(1 0 0 1 -646 -600 )">
    <path d="M 49.6395534290271 1.17745302713986  L 49.7384370015949 1.27557411273487  L 49.9362041467305 1.47181628392484  C 49.9362041467305 1.47181628392484  48.6507177033493 3.43423799582463  48.6507177033493 3.43423799582463  C 48.1562998405104 4.02296450939459  47.4641148325359 4.41544885177453  46.6730462519936 4.41544885177453  C 46.6730462519936 4.41544885177453  46.4752791068581 4.41544885177453  46.4752791068581 4.41544885177453  L 45.4864433811802 3.82672233820462  L 44.4976076555024 3.92484342379958  C 44.4976076555024 3.92484342379958  42.5199362041467 5.39665970772442  42.5199362041467 5.39665970772442  C 42.0255183413078 5.59290187891439  41.4322169059011 5.10229645093944  40.5422647527911 3.92484342379958  C 40.5422647527911 3.92484342379958  39.9489633173844 5.20041753653445  39.9489633173844 5.20041753653445  L 39.8500797448166 5.20041753653445  L 39.7511961722488 5.29853862212946  L 39.0590111642743 5.98538622129438  L 37.7735247208931 5.98538622129438  L 36.4880382775119 6.37787056367431  L 34.9059011164274 7.55532359081418  L 34.4114832535885 7.55532359081418  C 34.4114832535885 7.55532359081418  33.8181818181818 7.94780793319417  33.8181818181818 7.94780793319417  C 33.3237639553429 8.43841336116912  33.1259968102073 8.83089770354905  33.4226475279107 9.22338204592904  C 33.4226475279107 9.22338204592904  34.1148325358852 10.2045929018789  34.1148325358852 10.2045929018789  L 31.3460925039872 9.91022964509396  L 29.8628389154705 11.0876826722338  L 29.6650717703349 11.5782881002088  L 29.6650717703349 11.6764091858038  L 29.3684210526316 12.4613778705637  L 29.2695374800638 12.5594989561587  L 29.170653907496 12.6576200417537  L 27.7862838915471 12.6576200417537  L 26.0063795853269 11.9707724425887  L 25.4130781499202 11.8726513569937  C 25.4130781499202 11.8726513569937  24.0287081339713 12.0688935281837  24.0287081339713 12.0688935281837  C 23.4354066985646 12.0688935281837  22.7432216905901 11.3820459290188  22.1499202551834 10.3027139874739  C 22.1499202551834 10.3027139874739  20.96331738437 9.81210855949894  20.96331738437 9.81210855949894  L 19.9744816586922 11.2839248434238  L 19.8755980861244 11.2839248434238  L 18.4912280701754 12.4613778705637  L 18.3923444976077 12.4613778705637  L 18.3923444976077 12.5594989561587  L 18.1945773524721 12.5594989561587  L 17.1068580542265 12.8538622129436  L 15.5247208931419 14.2275574112735  L 13.8437001594896 15.0125260960334  L 12.6570972886762 16.5824634655533  L 8.7017543859649 16.5824634655533  L 5.63636363636363 15.4050104384133  L 3.95534290271132 15.2087682672234  L 2.47208931419458 15.9937369519833  L 2.37320574162677 15.9937369519833  C 2.37320574162677 15.9937369519833  1.38437001594894 16.3862212943632  1.38437001594894 16.3862212943632  C 0.889952153110025 16.5824634655533  0.494417862838916 16.8768267223382  0.197767145135555 16.9749478079332  C 0.197767145135555 16.9749478079332  0 17.4655532359081  0 17.4655532359081  L 0 18.643006263048  L 0.494417862838916 19.4279749478079  C 0.494417862838916 19.4279749478079  2.86762360446569 18.643006263048  2.86762360446569 18.643006263048  C 3.3620414673046 18.643006263048  4.0542264752791 18.937369519833  4.94417862838916 19.4279749478079  C 4.94417862838916 19.4279749478079  5.14194577352471 19.5260960334029  5.14194577352471 19.5260960334029  L 5.24082934609249 19.6242171189979  L 5.33971291866027 22.9603340292276  L 5.83413078149918 23.0584551148225  L 7.91068580542265 23.0584551148225  L 9.19617224880381 22.7640918580375  C 9.19617224880381 22.7640918580375  9.39393939393939 22.5678496868476  9.39393939393939 22.5678496868476  C 10.1850079744816 22.1753653444676  10.8771929824561 21.8810020876827  11.7671451355662 21.7828810020877  C 11.7671451355662 21.7828810020877  12.1626794258373 21.6847599164927  12.1626794258373 21.6847599164927  L 12.3604465709729 21.9791231732777  L 12.9537480063796 23.1565762004175  L 12.9537480063796 23.2546972860125  L 13.2503987240829 26.4926931106472  L 13.2503987240829 26.7870563674321  L 11.4704944178628 28.6513569937369  L 11.3716108452951 28.6513569937369  L 11.3716108452951 28.7494780793319  L 9.29505582137159 29.7306889352818  L 8.60287081339712 30.5156576200418  L 8.89952153110048 31.1043841336117  L 13.1515151515151 31.4968684759916  L 13.2503987240829 31.5949895615866  L 13.3492822966507 31.6931106471816  L 15.030303030303 32.6743215031315  L 18.7878787878788 32.5762004175365  L 18.7878787878788 33.0668058455114  L 18.9856459330143 34.9311064718163  L 18.9856459330143 35.1273486430062  L 19.0845295055821 35.1273486430062  C 19.0845295055821 35.1273486430062  17.4035087719298 36.795407098121  17.4035087719298 36.795407098121  C 17.2057416267942 38.9540709812108  17.6012759170654 40.2296450939457  18.4912280701754 40.5240083507307  C 18.4912280701754 40.5240083507307  21.6555023923445 42.1920668058455  21.6555023923445 42.1920668058455  L 24.1275917065391 43.8601252609603  L 26.2041467304625 42.8789144050104  L 26.4019138755981 42.7807933194154  L 26.5996810207336 42.6826722338204  L 26.6985645933014 42.7807933194154  L 29.8628389154705 45.1356993736952  L 30.3572567783094 45.3319415448851  L 31.1483253588517 44.3507306889352  L 31.3460925039872 44.1544885177453  L 31.444976076555 44.0563674321503  L 31.5438596491228 44.0563674321503  L 31.6427432216906 44.0563674321503  L 33.5215311004784 44.3507306889352  L 33.9170653907496 41.1127348643006  L 36.2902711323764 45.3319415448851  L 38.2679425837321 45.4300626304801  L 38.5645933014354 45.5281837160751  L 38.762360446571 45.5281837160751  L 38.762360446571 45.7244258872651  L 38.762360446571 47  L 39.5534290271132 46.80375782881  L 42.8165869218501 42.4864300626304  L 44.200956937799 44.5469728601253  L 44.200956937799 43.8601252609603  L 44.200956937799 43.7620041753653  L 44.200956937799 43.6638830897703  L 45.1897926634769 41.7014613778705  L 46.0797448165869 40.2296450939457  L 48.5518341307815 40.2296450939457  L 48.9473684210526 37.482254697286  L 49.244019138756 37.482254697286  L 49.4417862838916 37.580375782881  L 51.3205741626794 37.874739039666  L 51.518341307815 36.8935281837161  L 50.8261562998405 35.3235908141962  L 50.8261562998405 35.1273486430062  L 51.2216905901117 34.0480167014613  L 51.2216905901117 33.8517745302714  L 51.3205741626794 33.7536534446764  L 51.4194577352472 33.7536534446764  L 51.4194577352472 33.6555323590814  L 56.5614035087719 30.9081419624217  L 56.3636363636364 28.258872651357  L 56.3636363636364 28.160751565762  L 57.3524720893142 26.1983298538622  L 57.5502392344498 25.8058455114822  L 59.1323763955343 22.1753653444676  L 59.2312599681021 22.0772442588726  L 60.5167464114833 20.8016701461378  L 61.3078149920255 19.3298538622129  L 61.3078149920255 19.1336116910229  L 62 17.9561586638831  L 61.4066985645933 16.4843423799582  L 61.4066985645933 16.3862212943632  L 61.3078149920255 16.3862212943632  L 61.3078149920255 14.8162839248434  L 60.5167464114833 14.8162839248434  C 60.5167464114833 14.8162839248434  59.0334928229665 15.5031315240083  59.0334928229665 15.5031315240083  C 58.341307814992 15.9937369519833  57.3524720893142 15.7974947807933  56.066985645933 15.0125260960334  C 55.5725677830941 14.6200417536535  55.5725677830941 13.6388308977036  55.8692185007975 12.1670146137787  C 55.8692185007975 12.1670146137787  55.0781499202552 12.0688935281837  55.0781499202552 12.0688935281837  C 55.0781499202552 12.0688935281837  54.6826156299841 12.5594989561587  54.6826156299841 12.5594989561587  C 53.792663476874 13.5407098121086  53.1004784688995 14.1294363256785  52.902711323764 14.1294363256785  C 52.7049441786284 14.1294363256785  52.6060606060606 14.1294363256785  52.4082934609251 14.0313152400835  C 52.3094098883572 13.7369519832985  52.1116427432217 13.2463465553236  52.1116427432217 12.4613778705637  C 52.1116427432217 11.5782881002088  52.1116427432217 10.9895615866388  52.4082934609251 10.7933194154488  C 52.6060606060606 10.4989561586639  52.8038277511962 10.4008350730689  53.0015948963317 10.5970772442589  C 53.0015948963317 10.5970772442589  54.8803827751196 7.16283924843424  54.8803827751196 7.16283924843424  L 55.3748006379585 5.88726513569937  L 55.6714513556619 4.41544885177453  C 55.6714513556619 4.41544885177453  54.5837320574163 3.53235908141964  54.5837320574163 3.53235908141964  C 54.2870813397129 3.23799582463466  54.1881977671452 2.55114822546975  54.3859649122807 1.56993736951985  C 54.3859649122807 1.56993736951985  54.3859649122807 0.981210855949895  54.3859649122807 0.981210855949895  C 54.3859649122807 0.686847599164915  54.1881977671452 0.29436325678498  53.792663476874 0  C 53.792663476874 0  53.5948963317384 0  53.5948963317384 0  C 53.5948963317384 0  53.4960127591706 0.29436325678498  53.4960127591706 0.29436325678498  C 53.1993620414673 1.07933194154491  52.5071770334928 1.47181628392484  51.4194577352472 1.17745302713986  C 50.9250398724083 0.981210855949895  50.3317384370016 0.981210855949895  49.6395534290271 1.17745302713986  Z " fill-rule="nonzero" fill="#0079fe" stroke="none" transform="matrix(1 0 0 1 646 600 )" />
  </g>
</svg>