<?xml version="1.0" encoding="utf-8"?>
<svg version="1.1" xmlns:xlink="http://www.w3.org/1999/xlink" width="23px" height="37px" xmlns="http://www.w3.org/2000/svg">
  <g transform="matrix(1 0 0 1 -644 -483 )">
    <path d="M 16.1703056768559 0  L 13.4585152838428 2.23359580052495  L 11.6506550218341 7.08923884514437  L 11.6506550218341 10.2939632545932  L 11.6506550218341 10.3910761154856  L 10.646288209607 12.0419947506562  C 10.646288209607 12.0419947506562  10.4454148471616 13.2073490813648  10.4454148471616 13.2073490813648  C 10.646288209607 13.8871391076116  10.3449781659389 14.4698162729659  9.6419213973799 14.8582677165354  C 9.6419213973799 14.8582677165354  9.4410480349345 14.9553805774278  9.4410480349345 14.9553805774278  L 9.3406113537118 14.9553805774278  L 9.2401746724891 14.8582677165354  L 6.72925764192141 14.5669291338583  L 5.4235807860262 15.7322834645669  L 1.60698689956331 16.3149606299213  L 0 16.3149606299213  L 1.00436681222707 16.994750656168  L 4.62008733624453 17.3832020997375  L 4.82096069868997 17.3832020997375  L 5.02183406113537 17.3832020997375  L 5.12227074235807 17.4803149606299  L 5.12227074235807 17.5774278215223  L 6.02620087336244 19.7139107611549  C 6.02620087336244 19.7139107611549  7.03056768558952 20.3937007874016  7.03056768558952 20.3937007874016  C 7.33187772925765 20.7821522309711  7.53275109170306 21.3648293963255  7.53275109170306 22.4330708661417  C 7.53275109170306 22.4330708661417  7.63318777292576 25.0551181102362  7.63318777292576 25.0551181102362  L 8.83842794759826 26.1233595800525  L 8.93886462882096 26.1233595800525  L 8.93886462882096 26.2204724409449  L 9.03930131004367 26.2204724409449  L 9.6419213973799 28.1627296587927  L 9.6419213973799 29.2309711286089  L 8.93886462882096 30.2020997375328  L 8.73799126637556 31.0761154855643  L 9.03930131004367 32.0472440944882  C 9.03930131004367 32.0472440944882  10.2445414847162 32.8241469816273  10.2445414847162 32.8241469816273  C 11.5502183406113 33.3097112860893  12.2532751091703 33.6010498687664  12.5545851528384 34.0866141732283  C 12.5545851528384 34.0866141732283  13.2576419213974 35.5433070866142  13.2576419213974 35.5433070866142  C 14.061135371179 35.9317585301837  14.4628820960699 36.3202099737533  14.6637554585153 36.7086614173229  C 14.6637554585153 36.7086614173229  15.5676855895196 37  15.5676855895196 37  L 15.6681222707423 37  C 15.6681222707423 37  15.2663755458515 34.8635170603675  15.2663755458515 34.8635170603675  C 15.1659388646288 34.3779527559055  15.1659388646288 33.8923884514436  15.3668122270742 33.6981627296588  C 15.5676855895196 33.4068241469816  15.7685589519651 33.2125984251969  16.1703056768559 33.1154855643045  C 16.1703056768559 33.1154855643045  17.6768558951965 32.6299212598425  17.6768558951965 32.6299212598425  L 17.7772925764192 32.5328083989501  L 17.8777292576419 32.5328083989501  L 17.9781659388646 32.6299212598425  L 18.6812227074236 32.8241469816273  L 19.5851528384279 32.3385826771654  L 19.5851528384279 32.1443569553806  L 19.8864628820961 29.7165354330709  L 19.2838427947598 28.5511811023622  L 18.4803493449782 28.1627296587927  L 17.4759825327511 28.0656167979003  L 17.2751091703057 28.0656167979003  L 17.0742358078603 27.9685039370079  L 16.6724890829694 25.4435695538058  L 16.7729257641922 20.490813648294  L 16.9737991266376 20.2965879265092  L 18.4803493449782 18.257217847769  L 20.6899563318777 19.4225721784777  L 21.9956331877729 19.4225721784777  C 21.9956331877729 19.4225721784777  23 13.1102362204724  23 13.1102362204724  C 22.6986899563319 12.4304461942257  22.3973799126638 11.9448818897638  21.7947598253275 11.6535433070866  C 21.7947598253275 11.6535433070866  21.1921397379913 11.5564304461942  21.1921397379913 11.5564304461942  L 21.1921397379913 11.6535433070866  L 20.8908296943231 11.6535433070866  L 19.2838427947598 11.9448818897638  L 19.1834061135371 11.750656167979  L 19.0829694323144 11.6535433070866  L 17.9781659388646 10.2939632545932  L 17.9781659388646 10.1968503937008  L 17.8777292576419 10.0997375328084  L 17.8777292576419 7.6719160104987  L 18.2794759825328 6.31233595800525  C 18.2794759825328 6.31233595800525  18.6812227074236 5.72965879265093  18.6812227074236 5.72965879265093  C 18.6812227074236 5.34120734908136  18.7816593886463 4.95275590551181  19.1834061135371 4.46719160104986  C 19.1834061135371 4.46719160104986  19.5851528384279 3.98162729658792  19.5851528384279 3.98162729658792  L 19.6855895196506 2.33070866141733  L 18.17903930131 0.971128608923885  L 16.1703056768559 0  Z " fill-rule="nonzero" fill="#0079fe" stroke="none" transform="matrix(1 0 0 1 644 483 )" />
  </g>
</svg>