<?xml version="1.0" encoding="utf-8"?>
<svg version="1.1" xmlns:xlink="http://www.w3.org/1999/xlink" width="35px" height="43px" xmlns="http://www.w3.org/2000/svg">
  <g transform="matrix(1 0 0 1 -740 -577 )">
    <path d="M 18.3948863636364 1.73059174219192  L 18.2954545454545 1.83027630320114  L 18.0965909090909 1.92996086421033  L 16.40625 3.1261755963207  L 14.9147727272727 4.82081313347709  L 14.8153409090909 4.82081313347709  L 14.8153409090909 5.02018225549547  L 12.6278409090909 5.02018225549547  C 12.6278409090909 5.02018225549547  11.4346590909091 4.32239032843109  11.4346590909091 4.32239032843109  C 9.94318181818182 4.72112857246786  9.14772727272727 5.71797418255985  8.8494318181818 7.61198084173462  C 8.8494318181818 7.61198084173462  8.74999999999996 9.30661837889101  8.74999999999996 9.30661837889101  L 9.94318181818182 8.21008820778981  L 9.14772727272727 11.4996787210934  L 9.14772727272727 11.5993632821025  L 9.14772727272727 11.6990478431117  C 9.14772727272727 11.6990478431117  5.86647727272725 14.5899001123785  5.86647727272725 14.5899001123785  C 5.36931818181816 15.1880074784337  5.17045454545454 15.6864302834797  5.36931818181816 15.9854839665073  C 5.36931818181816 15.9854839665073  5.96590909090909 16.6832758935717  5.96590909090909 16.6832758935717  C 6.66193181818181 17.2813832596269  7.05965909090906 17.7798060646729  6.96022727272728 18.1785443087096  C 6.96022727272728 18.4775979917373  6.86079545454543 18.7766516747648  6.66193181818181 18.9760207967833  C 6.66193181818181 18.9760207967833  4.5738636363636 20.7703428949488  4.5738636363636 20.7703428949488  C 4.67329545454544 21.2687656999948  4.67329545454544 22.0662421880684  4.5738636363636 22.9634032371512  C 4.5738636363636 22.9634032371512  4.5738636363636 23.2624569201787  4.5738636363636 23.2624569201787  L 4.47443181818182 23.362141481188  C 4.47443181818182 23.362141481188  3.67897727272726 23.6611951642156  3.67897727272726 23.6611951642156  C 3.67897727272726 24.1596179692616  3.48011363636364 24.4586716522892  2.98295454545455 24.9570944573351  C 2.98295454545455 24.9570944573351  1.88920454545452 26.0536246284363  1.88920454545452 26.0536246284363  C 1.88920454545452 26.0536246284363  1.88920454545452 26.1533091894455  1.88920454545452 26.1533091894455  C 2.08806818181815 26.6517319944915  2.08806818181815 27.2498393605467  1.6903409090909 28.1470004096295  C 2.18749999999999 29.1438460197215  2.18749999999999 29.8416379467858  1.6903409090909 30.1406916298134  C 1.6903409090909 30.1406916298134  0.696022727272716 31.1375372399054  0.696022727272716 31.1375372399054  L 0.497159090909091 31.2372218009146  L 0 31.436590922933  L 0 31.6359600449514  L 0.696022727272716 34.0283895091722  C 0.696022727272716 34.0283895091722  0.894886363636342 34.0283895091722  0.894886363636342 34.0283895091722  C 2.58522727272724 33.8290203871538  4.37499999999998 33.8290203871538  6.36363636363635 34.0283895091722  C 6.36363636363635 34.0283895091722  6.56249999999997 34.0283895091722  6.56249999999997 34.0283895091722  L 6.56249999999997 34.1280740701814  L 8.74999999999996 36.3211344123837  L 8.74999999999996 36.4208189733929  L 8.8494318181818 36.4208189733929  L 10.1420454545454 40.1091477307333  L 12.8267045454545 42.6012617559632  L 13.9204545454546 43  L 14.0198863636363 39.9097786087149  L 16.5056818181818 42.4018926339448  L 16.9034090909091 42.003154389908  L 18.6931818181818 38.3148256325677  L 18.9914772727272 36.2214498513745  L 19.2897727272727 36.3211344123837  L 19.4886363636363 36.3211344123837  L 21.3778409090909 36.4208189733929  L 21.2784090909091 34.925550558255  L 21.2784090909091 34.6264968752274  L 21.2784090909091 34.427127753209  L 21.5767045454545 34.427127753209  C 21.5767045454545 34.427127753209  24.0625 34.5268123142181  24.0625 34.5268123142181  C 25.3551136363637 33.2309130210986  25.9517045454545 32.1343828499974  25.9517045454545 31.2372218009146  C 25.9517045454545 31.2372218009146  25.5539772727273 27.6485776045835  25.5539772727273 27.6485776045835  L 27.7414772727273 28.3463695316479  L 28.3380681818182 27.3495239215559  L 27.34375 26.3526783114639  L 27.0454545454546 25.9539400674271  L 29.0340909090909 23.9602488472432  L 29.1335227272727 24.1596179692616  L 29.3323863636364 24.1596179692616  L 30.5255681818182 24.8574098963259  L 30.5255681818182 24.5583562132983  L 29.7301136363636 22.7640341151327  L 30.0284090909091 22.4649804321052  L 30.5255681818182 22.1659267490776  L 30.3267045454546 21.4681348220132  L 29.3323863636364 19.5741281628384  L 29.53125 19.4744436018292  L 29.7301136363636 19.2750744798108  L 32.4147727272727 17.7798060646729  C 32.4147727272727 17.7798060646729  32.5142045454546 16.6832758935717  32.5142045454546 16.6832758935717  C 30.2272727272727 15.4870611614613  29.0340909090909 14.4902155513693  29.2329545454545 13.9917927463233  C 29.3323863636364 13.5930545022865  29.53125 13.4933699412773  30.0284090909091 13.4933699412773  C 30.0284090909091 13.4933699412773  33.0113636363636 13.9917927463233  33.0113636363636 13.9917927463233  L 33.1107954545454 12.1974706481577  L 33.1107954545454 11.9981015261393  L 34.6022727272727 10.5028331110014  C 34.6022727272727 10.5028331110014  35 9.4063029399002  35 9.4063029399002  C 34.4034090909091 9.20693381788179  34.0056818181818 8.80819557384502  33.6079545454545 8.40945732980822  C 33.6079545454545 8.40945732980822  33.5085227272727 8.21008820778981  33.5085227272727 8.21008820778981  L 33.5085227272727 8.01071908577142  L 33.6079545454545 7.51229628072543  L 33.5085227272727 7.31292715870704  L 33.3096590909091 7.21324259769782  C 33.3096590909091 7.21324259769782  33.2102272727273 7.31292715870704  33.2102272727273 7.31292715870704  C 33.0113636363636 7.71166540274381  32.5142045454546 8.01071908577142  31.8181818181818 8.01071908577142  C 30.7244318181818 8.01071908577142  29.8295454545455 7.51229628072543  29.1335227272727 6.81450435366105  C 29.1335227272727 6.81450435366105  29.1335227272727 6.71481979265183  29.1335227272727 6.71481979265183  L 29.0340909090909 6.71481979265183  L 28.2386363636364 5.31923593852308  C 28.2386363636364 5.31923593852308  28.0397727272727 5.51860506054146  28.0397727272727 5.51860506054146  C 27.9403409090909 6.11671242659665  27.5426136363636 6.71481979265183  26.8465909090909 7.21324259769782  C 25.5539772727273 7.81134996375303  24.3607954545455 8.01071908577142  23.1676136363636 7.51229628072543  C 22.3721590909091 7.21324259769782  21.875 6.61513523164264  21.5767045454545 5.71797418255985  C 21.5767045454545 5.71797418255985  21.2784090909091 3.72428296237588  21.2784090909091 3.72428296237588  C 20.9801136363636 1.83027630320114  20.5823863636364 0.733746132099936  19.9857954545454 0.434692449072358  C 19.3892045454546 0.0359542050355594  18.7926136363636 -0.0637303559736332  18.2954545454545 0.0359542050355594  C 18.2954545454545 0.0359542050355594  18.3948863636364 1.73059174219192  18.3948863636364 1.73059174219192  Z " fill-rule="nonzero" fill="#0079fe" stroke="none" transform="matrix(1 0 0 1 740 577 )" />
  </g>
</svg>