<?xml version="1.0" encoding="utf-8"?>
<svg version="1.1" xmlns:xlink="http://www.w3.org/1999/xlink" width="20px" height="17px" xmlns="http://www.w3.org/2000/svg">
  <g transform="matrix(1 0 0 1 -681 -656 )">
    <path d="M 14.3075589803873 1.66091954022987  L 8.9114773006624 1.66091954022987  L 8.61169498512212 2.14942528735631  L 8.61169498512212 2.24712643678162  L 8.51176754660873 2.44252873563218  L 4.4147425675583 3.41954022988505  L 4.61459744458514 3.90804597701149  C 4.61459744458514 3.90804597701149  5.91365414525967 5.3735632183908  5.91365414525967 5.3735632183908  C 5.81372670674622 5.3735632183908  5.61387182971938 5.47126436781611  5.51394439120599 5.47126436781611  C 5.51394439120599 5.47126436781611  3.61532305945089 6.44827586206898  3.61532305945089 6.44827586206898  C 3.61532305945089 6.44827586206898  0.617499904048157 8.6954022988506  0.617499904048157 8.6954022988506  C -0.381774481086088 9.86781609195403  -0.181919604059222 12.0172413793103  1.31699197364212 15.2413793103448  C 1.31699197364212 15.2413793103448  4.31481512904485 15.5344827586207  4.31481512904485 15.5344827586207  L 4.4147425675583 15.5344827586207  L 4.4147425675583 15.632183908046  L 7.41256572296103 17  C 7.41256572296103 17  10.6102437553906 16.5114942528736  10.6102437553906 16.5114942528736  C 11.9093004560651 16.2183908045977  13.4082120337665 15.0459770114943  15.3068333655215 12.7988505747126  C 15.3068333655215 12.7988505747126  15.406760804035 12.7988505747126  15.406760804035 12.7988505747126  L 15.6066156810618 12.6034482758621  L 17.0055998202498 12.2126436781609  L 16.6058900661961 8.10919540229885  L 16.6058900661961 7.91379310344828  L 18.4045839594377 5.3735632183908  L 18.4045839594377 5.27586206896554  L 18.5045113979512 5.27586206896554  C 18.5045113979512 5.27586206896554  19.9034955371391 4.20114942528736  19.9034955371391 4.20114942528736  C 20.1033504141659 3.02873563218392  20.0034229756525 1.95402298850574  19.5037857830854 1.07471264367818  C 19.1040760290317 0.293103448275873  18.6044388364646 0  18.1048016438974 0  C 18.1048016438974 0  18.3046565209243 1.46551724137931  18.3046565209243 1.46551724137931  L 15.6066156810618 0.977011494252872  L 14.4074864189007 1.66091954022987  L 14.3075589803873 1.66091954022987  Z " fill-rule="nonzero" fill="#0079fe" stroke="none" transform="matrix(1 0 0 1 681 656 )" />
  </g>
</svg>