<?xml version="1.0" encoding="utf-8"?>
<svg version="1.1" xmlns:xlink="http://www.w3.org/1999/xlink" width="66px" height="45px" xmlns="http://www.w3.org/2000/svg">
  <g transform="matrix(1 0 0 1 -756 -410 )">
    <path d="M 14.7761194029851 5.14285714285715  L 12.8059701492537 2.07692307692309  L 12.4119402985075 0  L 11.4268656716418 0.593406593406602  L 11.3283582089552 0.593406593406602  L 8.96417910447764 1.48351648351648  L 8.86567164179104 1.28571428571428  L 8.4716417910448 1.18681318681319  L 8.4716417910448 2.27472527472527  L 8.37313432835821 2.37362637362638  L 7.19104477611941 4.15384615384616  L 7.09253731343282 4.15384615384616  L 7.09253731343282 4.25274725274725  L 6.99402985074629 4.25274725274725  L 5.22089552238807 5.73626373626373  L 5.02388059701495 5.73626373626373  L 5.02388059701495 5.93406593406594  C 5.02388059701495 5.93406593406594  4.72835820895524 5.73626373626373  4.72835820895524 5.73626373626373  C 3.54626865671644 5.24175824175824  2.75820895522389 4.64835164835165  2.56119402985077 4.15384615384616  C 2.36417910447759 3.95604395604396  2.26567164179106 3.95604395604396  2.06865671641793 3.85714285714286  C 2.06865671641793 3.85714285714286  0.788059701492549 4.05494505494506  0.788059701492549 4.05494505494506  L 0 4.84615384615385  L 2.06865671641793 6.62637362637363  L 3.74328358208956 7.31868131868133  L 3.8417910447761 7.41758241758242  L 3.94029850746269 7.41758241758242  L 4.03880597014928 7.61538461538462  L 4.03880597014928 7.71428571428571  L 4.33432835820893 9.69230769230769  L 4.43283582089552 9.69230769230769  L 4.43283582089552 12.7582417582418  L 4.82686567164177 14.5384615384615  L 6.00895522388062 17.3076923076923  L 7.38805970149254 18.5934065934066  L 8.4716417910448 17.8021978021978  L 9.25970149253729 16.8131868131868  L 9.25970149253729 16.7142857142857  L 9.35820895522388 16.7142857142857  L 10.7373134328358 15.032967032967  L 11.9194029850747 16.1208791208791  L 11.9194029850747 16.2197802197802  L 11.9194029850747 16.3186813186813  L 13.1014925373134 18.5934065934066  L 14.579104477612 19.1868131868132  L 15.3671641791045 21.5604395604396  L 15.3671641791045 21.6593406593407  L 15.3671641791045 21.7582417582418  L 15.2686567164179 23.9340659340659  L 15.2686567164179 24.032967032967  L 15.1701492537313 24.032967032967  L 14.579104477612 26.010989010989  L 15.6626865671642 27  L 16.844776119403 26.4065934065934  L 18.0268656716418 25.2197802197802  L 18.3223880597015 25.4175824175824  L 19.3074626865672 25.7142857142857  L 20.489552238806 26.8021978021978  C 20.489552238806 26.8021978021978  21.7701492537314 26.5054945054945  21.7701492537314 26.5054945054945  C 22.755223880597 26.2087912087912  23.2477611940299 26.5054945054945  23.5432835820895 27.1978021978022  C 23.5432835820895 27.1978021978022  23.5432835820895 28.0879120879121  23.5432835820895 28.0879120879121  L 23.7402985074627 28.1868131868132  L 25.1194029850746 28.5824175824176  L 25.7104477611941 27.2967032967033  C 25.7104477611941 27.2967032967033  25.7104477611941 26.8021978021978  25.7104477611941 26.8021978021978  C 25.7104477611941 26.4065934065934  25.8089552238806 26.010989010989  26.1044776119403 25.9120879120879  C 26.1044776119403 25.9120879120879  26.8925373134328 26.010989010989  26.8925373134328 26.010989010989  C 27.976119402985 26.5054945054945  28.4686567164179 27.1978021978022  28.4686567164179 27.989010989011  C 28.4686567164179 27.989010989011  28.3701492537314 28.6813186813187  28.3701492537314 28.6813186813187  L 28.3701492537314 29.8681318681319  L 29.4537313432836 31.4505494505494  C 29.4537313432836 31.4505494505494  30.7343283582089 32.8351648351648  30.7343283582089 32.8351648351648  C 31.1283582089552 33.3296703296703  31.6208955223881 33.5274725274725  32.1134328358209 33.7252747252747  C 32.1134328358209 33.7252747252747  32.310447761194 33.7252747252747  32.310447761194 33.7252747252747  C 32.6059701492537 33.9230769230769  32.8029850746269 34.4175824175824  32.8029850746269 35.5054945054945  C 32.8029850746269 35.5054945054945  32.8029850746269 39.956043956044  32.8029850746269 39.956043956044  C 33 40.3516483516484  33.2955223880597 40.6483516483517  33.5910447761194 40.7472527472528  C 33.5910447761194 40.7472527472528  33.7880597014925 40.7472527472528  33.7880597014925 40.7472527472528  C 34.3791044776119 40.4505494505495  34.7731343283582 40.5494505494505  35.2656716417911 41.043956043956  C 35.2656716417911 41.043956043956  35.5611940298508 41.2417582417582  35.5611940298508 41.2417582417582  C 36.0537313432836 41.3406593406593  36.4477611940299 41.7362637362637  36.5462686567164 42.5274725274725  C 36.5462686567164 42.5274725274725  36.7432835820896 45  36.7432835820896 45  C 36.7432835820896 45  39.0089552238806 40.3516483516484  39.0089552238806 40.3516483516484  C 39.6985074626866 37.8791208791209  40.4865671641791 36.3956043956044  41.5701492537313 36.1978021978022  C 42.4567164179105 35.9010989010989  43.8358208955224 36.3956043956044  45.6089552238806 37.3846153846154  C 45.6089552238806 37.3846153846154  52.0119402985075 37.8791208791209  52.0119402985075 37.8791208791209  L 52.2089552238806 36.4945054945055  C 52.2089552238806 36.4945054945055  49.2537313432836 33.6263736263736  49.2537313432836 33.6263736263736  C 47.8746268656717 32.8351648351648  47.2835820895522 32.2417582417583  47.4805970149254 31.8461538461538  C 47.4805970149254 31.8461538461538  49.7462686567164 31.9450549450549  49.7462686567164 31.9450549450549  C 51.8149253731344 32.6373626373626  53.7850746268657 31.4505494505494  55.6567164179104 28.0879120879121  C 55.6567164179104 28.0879120879121  55.755223880597 28.0879120879121  55.755223880597 28.0879120879121  L 57.9223880597015 26.010989010989  L 58.2179104477612 21.4615384615385  L 58.2179104477612 20.967032967033  L 58.5134328358209 20.967032967033  L 58.710447761194 20.967032967033  L 60.3850746268657 20.5714285714286  L 60.6805970149254 20.5714285714286  L 60.8776119402985 20.6703296703297  L 60.8776119402985 20.7692307692308  L 64.3253731343284 24.4285714285714  L 65.310447761194 24.032967032967  L 65.5074626865672 23.4395604395604  L 63.6358208955224 21.6593406593407  L 63.3402985074627 21.4615384615385  L 63.1432835820896 21.1648351648352  L 66 19.4835164835165  L 65.8029850746269 15.3296703296703  L 64.6208955223881 15.5274725274725  L 64.5223880597015 15.5274725274725  C 64.5223880597015 15.5274725274725  62.9462686567164 14.7362637362637  62.9462686567164 14.7362637362637  C 62.355223880597 14.6373626373626  61.5671641791045 14.2417582417582  60.3850746268657 13.5494505494505  C 59.7940298507463 13.2527472527473  59.4 12.956043956044  59.4 12.5604395604396  C 59.4 12.5604395604396  59.4 12.6593406593407  59.4 12.6593406593407  C 59.4 13.0549450549451  59.3014925373134 13.2527472527473  59.1044776119403 13.3516483516484  C 58.8089552238806 13.5494505494505  58.4149253731343 13.6483516483516  57.7253731343284 13.6483516483516  C 57.7253731343284 13.6483516483516  57.6268656716418 13.6483516483516  57.6268656716418 13.6483516483516  L 57.5283582089552 13.5494505494505  L 57.4298507462687 13.5494505494505  L 56.0507462686567 12.5604395604396  C 56.0507462686567 12.5604395604396  54.8686567164179 13.5494505494505  54.8686567164179 13.5494505494505  C 54.2776119402985 14.043956043956  53.8835820895522 14.4395604395605  53.8835820895522 14.8351648351648  C 53.8835820895522 14.8351648351648  54.4746268656717 16.1208791208791  54.4746268656717 16.1208791208791  C 54.7701492537314 16.5164835164835  54.7701492537314 16.7142857142857  54.6716417910448 17.010989010989  C 54.4746268656717 17.3076923076923  53.9820895522388 17.6043956043956  53.2925373134329 17.7032967032967  C 53.2925373134329 17.7032967032967  52.7014925373134 18  52.7014925373134 18  C 52.0119402985075 18.1978021978022  51.4208955223881 18.0989010989011  51.0268656716418 17.6043956043956  C 51.0268656716418 17.6043956043956  50.8298507462687 17.3076923076923  50.8298507462687 17.3076923076923  C 50.8298507462687 17.3076923076923  48.2686567164179 14.6373626373626  48.2686567164179 14.6373626373626  C 47.0865671641791 14.2417582417582  46.3970149253732 13.7472527472528  46.1014925373134 13.1538461538462  C 45.9044776119403 12.8571428571429  45.8059701492537 12.5604395604396  45.9044776119403 12.3626373626374  C 45.8059701492537 11.4725274725275  45.6089552238806 10.8791208791209  45.4119402985075 10.5824175824176  C 45.4119402985075 10.5824175824176  44.9194029850747 10.8791208791209  44.9194029850747 10.8791208791209  C 44.9194029850747 10.8791208791209  44.8208955223881 11.0769230769231  44.8208955223881 11.0769230769231  C 44.8208955223881 11.3736263736264  44.9194029850747 11.6703296703297  45.2149253731343 12.0659340659341  C 45.2149253731343 12.0659340659341  45.3134328358209 12.2637362637363  45.3134328358209 12.2637362637363  L 45.4119402985075 12.3626373626374  L 45.3134328358209 12.5604395604396  L 43.934328358209 14.8351648351648  L 41.6686567164179 14.3406593406593  L 41.1761194029851 14.043956043956  C 41.1761194029851 14.043956043956  41.1761194029851 13.7472527472528  41.1761194029851 13.7472527472528  C 41.3731343283582 13.3516483516484  41.3731343283582 12.8571428571429  41.1761194029851 12.3626373626374  C 41.1761194029851 12.3626373626374  40.8805970149254 11.5714285714286  40.8805970149254 11.5714285714286  L 39.0089552238806 10.1868131868132  C 39.0089552238806 10.1868131868132  38.910447761194 10.0879120879121  38.910447761194 10.0879120879121  C 38.7134328358209 10.3846153846154  38.5164179104478 10.3846153846154  38.3194029850746 10.4835164835165  C 38.3194029850746 10.4835164835165  36.5462686567164 10.2857142857143  36.5462686567164 10.2857142857143  C 35.955223880597 10.1868131868132  35.5611940298508 10.0879120879121  35.3641791044776 9.69230769230769  C 35.2656716417911 9.49450549450551  35.2656716417911 9.0989010989011  35.4626865671642 8.60439560439561  C 35.4626865671642 8.60439560439561  35.5611940298508 8.30769230769231  35.5611940298508 8.30769230769231  L 34.7731343283582 6.92307692307693  C 34.7731343283582 6.92307692307693  31.3253731343284 7.12087912087912  31.3253731343284 7.12087912087912  C 31.4238805970149 7.61538461538462  31.3253731343284 7.91208791208791  31.1283582089552 8.30769230769231  C 31.0298507462687 8.60439560439561  30.6358208955224 8.7032967032967  30.3402985074627 8.7032967032967  C 29.8477611940299 8.9010989010989  29.2567164179104 8.7032967032967  28.7641791044776 8.20879120879121  C 28.7641791044776 8.20879120879121  28.7641791044776 8.10989010989011  28.7641791044776 8.10989010989011  C 28.7641791044776 8.10989010989011  28.6656716417911 8.10989010989011  28.6656716417911 8.10989010989011  C 27.8776119402985 7.21978021978022  27.5820895522388 6.52747252747253  27.5820895522388 5.93406593406594  C 27.5820895522388 5.93406593406594  26.8925373134328 4.94505494505495  26.8925373134328 4.94505494505495  C 26.8925373134328 4.94505494505495  25.9074626865672 5.63736263736264  25.9074626865672 5.63736263736264  C 25.020895522388 6.13186813186813  24.4298507462687 6.13186813186813  24.134328358209 5.73626373626373  C 24.134328358209 5.73626373626373  23.7402985074627 5.63736263736264  23.7402985074627 5.63736263736264  L 22.755223880597 5.73626373626373  C 22.755223880597 5.73626373626373  20.0955223880597 6.62637362637363  20.0955223880597 6.62637362637363  C 19.5044776119403 7.02197802197803  19.0119402985075 7.12087912087912  18.6179104477612 7.12087912087912  C 18.6179104477612 7.12087912087912  18.3223880597015 7.12087912087912  18.3223880597015 7.12087912087912  C 17.3373134328358 7.12087912087912  16.7462686567164 6.82417582417583  16.3522388059702 6.42857142857143  C 16.3522388059702 6.42857142857143  14.7761194029851 5.14285714285715  14.7761194029851 5.14285714285715  Z " fill-rule="nonzero" fill="#0079fe" stroke="none" fill-opacity="0.219607843137255" transform="matrix(1 0 0 1 756 410 )" />
  </g>
</svg>