<?xml version="1.0" encoding="utf-8"?>
<svg version="1.1" xmlns:xlink="http://www.w3.org/1999/xlink" width="13px" height="32px" xmlns="http://www.w3.org/2000/svg">
  <g transform="matrix(1 0 0 1 -777 -602 )">
    <path d="M 13 1.40000000000003  C 13 1.40000000000003  9.84848484848486 0  9.84848484848486 0  C 6.69696969696971 2.30000000000001  4.43181818181819 5.20000000000004  2.95454545454546 8.70000000000005  C 1.67424242424241 11.7  0.689393939393929 13.2  0 13.6  C 0 13.6  0.689393939393929 19.1  0.689393939393929 19.1  L 0.689393939393929 19.2  C 0.689393939393929 19.2  0.196969696969686 23  0.196969696969686 23  C 0 24.2  0.196969696969686 25  0.492424242424243 25.2  C 0.492424242424243 25.2  4.53030303030306 27.9  4.53030303030306 27.9  L 4.62878787878787 27.9  C 4.62878787878787 27.9  4.72727272727274 28.2  4.72727272727274 28.2  C 4.92424242424243 29.1  5.51515151515154 29.9  6.30303030303028 30.9  C 6.69696969696971 31.5  7.18939393939396 31.8  7.58333333333333 32  C 7.58333333333333 32  8.17424242424244 25.4  8.17424242424244 25.4  L 8.17424242424244 25.2  L 11.030303030303 18.2  L 12.0151515151515 9.90000000000004  L 12.0151515151515 9.80000000000001  L 12.1136363636364 9.70000000000005  L 13 7.5  L 12.3106060606061 5.60000000000002  L 12.3106060606061 5.5  L 12.2121212121212 5.5  L 12.0151515151515 2.90000000000003  L 12.1136363636364 2.80000000000001  L 12.2121212121212 2.70000000000005  L 12.7045454545454 2.10000000000002  L 13 1.40000000000003  Z " fill-rule="nonzero" fill="#0079fe" stroke="none" transform="matrix(1 0 0 1 777 602 )" />
  </g>
</svg>