<?xml version="1.0" encoding="utf-8"?>
<svg version="1.1" xmlns:xlink="http://www.w3.org/1999/xlink" width="42px" height="48px" xmlns="http://www.w3.org/2000/svg">
  <g transform="matrix(1 0 0 1 -682 -565 )">
    <path d="M 37.4634146341463 8.54063604063786  L 36.5853658536585 8.25274943252649  L 36.6829268292683 8.15678722982267  L 36.4878048780488 8.15678722982267  L 36.4878048780488 7.96486282441509  L 35.7073170731708 6.52542978385815  L 35.609756097561 6.42946758115436  L 35.609756097561 6.23754317574675  C 35.609756097561 6.23754317574675  35.8048780487805 3.93445031085566  35.8048780487805 3.93445031085566  C 35.8048780487805 3.64656370274426  35.5121951219512 3.35867709463286  34.9268292682927 2.9748282838177  C 34.9268292682927 2.9748282838177  34.3414634146341 2.9748282838177  34.3414634146341 2.9748282838177  L 33.3658536585366 4.12637471626324  L 33.2682926829269 4.12637471626324  L 30.829268292683 5.27792114870879  L 30.4390243902439 3.64656370274426  L 30.4390243902439 3.45463929733668  L 30.6341463414634 2.6869416757063  L 30.4390243902439 1.72731964866834  L 30.1463414634146 1.63135744596455  L 29.7560975609756 2.3990550675949  L 29.6585365853658 2.3990550675949  L 29.6585365853658 2.49501727029872  L 26.6341463414634 5.08599674330121  L 26.5365853658537 5.27792114870879  L 26.4390243902439 5.27792114870879  L 26.2439024390244 5.27792114870879  L 26.0487804878049 5.27792114870879  L 25.1707317073171 4.89407233789363  L 25.0731707317073 4.79811013518981  L 24.0975609756097 3.93445031085566  L 22.5365853658537 3.35867709463286  L 22.4390243902439 3.26271489192907  L 21.4634146341463 2.59097947300251  L 18.2439024390244 1.91924405407592  L 18.1463414634147 1.91924405407592  L 16 0.863659824334171  L 16 0.959622027037961  L 14.3414634146341 0.191924405407609  L 12.1951219512195 0  L 11.4146341463415 0.095962202703818  L 12.0975609756097 3.64656370274426  L 11.8048780487805 3.64656370274426  L 9.65853658536583 3.83848810815185  L 8.48780487804877 3.83848810815185  L 8.39024390243905 3.83848810815185  L 7.21951219512193 3.07079048652149  L 5.26829268292681 3.93445031085566  L 3.51219512195124 6.23754317574675  L 1.95121951219512 10.36391789201  L 2.4390243902439 14.8741414190884  C 2.4390243902439 14.8741414190884  3.12195121951218 17.4651208920909  3.12195121951218 17.4651208920909  C 3.21951219512196 17.7530075002023  3.21951219512196 17.8489697029061  3.12195121951218 17.9449319056099  C 3.12195121951218 17.9449319056099  2.82926829268291 18.0408941083137  2.82926829268291 18.0408941083137  C 2.34146341463412 18.3287807164251  2.14634146341462 19.0005161353516  2.2439024390244 19.9601381623896  C 2.2439024390244 19.9601381623896  3.21951219512196 23.8945884732452  3.21951219512196 23.8945884732452  C 3.21951219512196 23.8945884732452  2.92682926829268 24.0865128786529  2.92682926829268 24.0865128786529  C 1.17073170731706 25.0461349056908  0.292682926829279 25.8138325273212  0.195121951219501 26.1976813381364  C 0.195121951219501 26.1976813381364  0 27.5411521759895  0 27.5411521759895  L 1.65853658536584 26.8694167570629  L 1.75609756097562 26.7734545543591  C 1.75609756097562 26.7734545543591  1.85365853658534 26.7734545543591  1.85365853658534 26.7734545543591  C 3.02439024390246 26.7734545543591  3.70731707317074 27.1573033651743  3.80487804878047 28.1169253922123  C 3.80487804878047 28.1169253922123  4.09756097560975 30.2280938516958  4.09756097560975 30.2280938516958  L 4.00000000000002 30.5159804598072  C 4.00000000000002 30.5159804598072  3.80487804878047 30.7079048652148  3.80487804878047 30.7079048652148  C 3.51219512195124 30.9957914733262  3.31707317073169 31.2836780814375  3.31707317073169 31.6675268922528  C 3.31707317073169 31.6675268922528  3.02439024390246 33.8746575544401  3.02439024390246 33.8746575544401  C 3.12195121951218 34.6423551760704  3.41463414634146 35.2181283922932  3.80487804878047 35.5060150004046  C 3.80487804878047 35.5060150004046  5.85365853658537 37.9050700679995  5.85365853658537 37.9050700679995  L 7.70731707317071 36.4656370274426  L 9.17073170731705 36.273712622035  L 9.26829268292683 36.273712622035  L 9.36585365853661 36.4656370274426  C 9.36585365853661 36.4656370274426  10.3414634146342 36.753523635554  10.3414634146342 36.753523635554  C 10.6341463414634 36.753523635554  10.9268292682927 36.6575614328501  11.219512195122 36.3696748247387  C 11.219512195122 36.3696748247387  12.0975609756097 35.1221661895894  12.0975609756097 35.1221661895894  C 12.0975609756097 35.1221661895894  11.9024390243902 34.3544685679591  11.9024390243902 34.3544685679591  C 12.0975609756097 34.0665819598477  12.390243902439 33.8746575544401  12.7804878048781 33.6827331490324  C 12.7804878048781 33.6827331490324  15.1219512195122 33.6827331490324  15.1219512195122 33.6827331490324  C 15.5121951219512 33.8746575544401  15.8048780487805 33.7786953517363  15.8048780487805 33.5867709463287  C 16.0975609756098 32.9150355274021  16.390243902439 32.6271489192907  16.6829268292683 32.4352245138831  C 16.9756097560975 32.4352245138831  17.4634146341463 32.5311867165869  17.7560975609756 32.8190733246983  C 18.4390243902439 33.3948465409211  18.9268292682927 33.8746575544401  18.9268292682927 34.5463929733666  C 18.9268292682927 34.5463929733666  18.7317073170732 36.273712622035  18.7317073170732 36.273712622035  C 18.7317073170732 36.273712622035  19.1219512195122 36.5615992301463  19.1219512195122 36.5615992301463  C 19.7073170731707 37.0414102436653  20.0975609756098 37.5212212571843  20.0975609756098 37.9050700679995  C 20.0975609756098 37.9050700679995  19.7073170731707 39.6323897166678  19.7073170731707 39.6323897166678  C 19.4146341463414 40.5920117437058  19.1219512195122 41.2637471626324  18.7317073170732 41.45567156804  C 18.7317073170732 41.45567156804  18.7317073170732 41.3597093653361  18.7317073170732 41.3597093653361  L 17.2682926829268 44.4304998518576  L 17.7560975609756 44.6224242572652  L 20.0975609756098 44.718386459969  L 20.5853658536586 44.9103108653766  C 20.5853658536586 44.9103108653766  20.390243902439 45.2941596761918  20.390243902439 45.2941596761918  C 20.0975609756098 46.2537817032298  20 46.9255171221563  20.0975609756098 47.4053281356753  C 20.8780487804878 47.8851391491943  21.3658536585366 48.1730257573057  21.6585365853658 47.8851391491943  C 21.6585365853658 47.8851391491943  23.0243902439025 47.3093659329715  23.0243902439025 47.3093659329715  L 23.7073170731707 47.0214793248601  L 24.9756097560976 47.0214793248601  L 26.2439024390244 45.678008487007  C 26.2439024390244 45.678008487007  26.2439024390244 44.0466510410424  26.2439024390244 44.0466510410424  C 26.1463414634147 43.4708778248197  26.2439024390244 43.0870290140045  26.4390243902439 42.7991424058931  C 26.8292682926829 42.5112557977817  27.609756097561 42.5112557977817  28.7804878048781 43.1829912167083  C 28.7804878048781 43.1829912167083  31.1219512195122 44.6224242572652  31.1219512195122 44.6224242572652  C 31.9024390243902 45.198197473488  32.4878048780488 45.3901218788956  32.8780487804878 45.3901218788956  C 32.8780487804878 45.3901218788956  32.8780487804878 45.2941596761918  32.8780487804878 45.2941596761918  C 33.0731707317073 44.9103108653766  32.8780487804878 44.1426132437463  32.390243902439 43.1829912167083  C 32.390243902439 43.1829912167083  31.1219512195122 41.2637471626324  31.1219512195122 41.2637471626324  L 31.1219512195122 41.0718227572248  L 31.219512195122 41.0718227572248  C 31.219512195122 41.0718227572248  31.3170731707317 40.8798983518171  31.3170731707317 40.8798983518171  C 32.5853658536585 39.1525787031489  33.9512195121951 38.5768054869261  35.5121951219512 39.1525787031489  C 35.5121951219512 39.1525787031489  39.1219512195122 40.7839361491134  39.1219512195122 40.7839361491134  L 40.5853658536586 39.8243141220754  L 40.6829268292683 39.8243141220754  L 40.6829268292683 39.7283519193716  L 40.6829268292683 39.6323897166678  L 40.4878048780488 39.4404653112602  L 40.5853658536586 39.3445031085564  C 40.5853658536586 39.3445031085564  40.6829268292683 39.1525787031489  40.6829268292683 39.1525787031489  C 41.8536585365853 37.2333346490729  42.2439024390244 35.793901608516  41.8536585365853 35.0262039868856  C 41.5609756097561 34.3544685679591  41.0731707317074 34.0665819598477  40.6829268292683 34.0665819598477  C 40.6829268292683 34.0665819598477  40.390243902439 34.0665819598477  40.390243902439 34.0665819598477  L 40.1951219512195 33.1069599328097  C 40.1951219512195 33.1069599328097  40.390243902439 33.1069599328097  40.390243902439 33.1069599328097  C 41.0731707317074 32.8190733246983  41.4634146341464 32.5311867165869  41.5609756097561 32.1473379057717  C 41.5609756097561 32.1473379057717  41.2682926829268 31.6675268922528  41.2682926829268 31.6675268922528  L 39.7073170731707 30.2280938516958  L 39.7073170731707 30.132131648992  C 39.7073170731707 30.132131648992  38.9268292682927 28.0209631895085  38.9268292682927 28.0209631895085  C 38.6341463414634 26.3896057435439  38.4390243902439 24.950172702987  38.6341463414634 23.6067018651339  C 38.6341463414634 23.6067018651339  38.6341463414634 22.6470798380959  38.6341463414634 22.6470798380959  L 37.6585365853659 23.5107396624301  L 36.780487804878 24.470361689468  L 36.4878048780488 20.4399491759086  L 36.4878048780488 20.248024770501  C 36.4878048780488 20.248024770501  36.5853658536585 20.248024770501  36.5853658536585 20.248024770501  C 38.7317073170732 17.1772342839795  40.1951219512195 15.3539524326074  40.6829268292683 14.8741414190884  C 40.6829268292683 14.8741414190884  39.7073170731707 11.9952753379745  39.7073170731707 11.9952753379745  C 39.4146341463414 10.5558422974176  39.219512195122 9.69218247308343  39.219512195122 9.30833366226824  C 39.219512195122 9.30833366226824  37.4634146341463 8.54063604063786  37.4634146341463 8.54063604063786  Z " fill-rule="nonzero" fill="#0079fe" stroke="none" transform="matrix(1 0 0 1 682 565 )" />
  </g>
</svg>