<?xml version="1.0" encoding="utf-8"?>
<svg version="1.1" xmlns:xlink="http://www.w3.org/1999/xlink" width="101px" height="72px" xmlns="http://www.w3.org/2000/svg">
  <g transform="matrix(1 0 0 1 -534 -480 )">
    <path d="M 59.7044334975369 3.70096021947875  C 59.7044334975369 3.70096021947875  58.8177339901478 4.38271604938272  58.8177339901478 4.38271604938272  C 58.8177339901478 4.77229080932785  59.0147783251232 5.6488340192044  59.3103448275862 6.91495198902606  C 59.3103448275862 6.91495198902606  59.3103448275862 7.01234567901233  59.3103448275862 7.01234567901233  L 59.4088669950739 7.10973936899864  L 59.3103448275862 7.10973936899864  L 58.2266009852217 9.5445816186557  L 56.7487684729064 10.1289437585734  L 56.4532019704434 10.2263374485597  L 56.3546798029557 10.2263374485597  L 53.7931034482759 9.05761316872429  L 53.6945812807882 9.05761316872429  L 53.6945812807882 8.96021947873798  L 48.8669950738916 4.57750342935527  L 46.9950738916256 3.50617283950617  L 44.0394088669951 2.43484224965706  L 44.0394088669951 2.33744855967079  L 43.9408866995074 2.33744855967079  L 42.5615763546798 1.36351165980796  L 40.0985221674877 0.58436213991769  L 38.7192118226601 0.681755829903967  L 38.6206896551724 0.681755829903967  L 35.4679802955665 0.486968449931413  L 35.3694581280788 0.486968449931413  L 33.1034482758621 0  L 31.7241379310345 0  C 31.7241379310345 0  30.6403940886699 0.779149519890272  30.6403940886699 0.779149519890272  C 30.0492610837439 1.0713305898491  29.2610837438424 1.16872427983538  28.2758620689655 1.36351165980796  C 28.2758620689655 1.36351165980796  26.2068965517241 1.7530864197531  26.2068965517241 1.7530864197531  L 24.4334975369458 2.33744855967079  L 24.3349753694581 2.43484224965706  L 24.3349753694581 2.53223593964334  L 24.3349753694581 2.43484224965706  L 22.1674876847291 2.62962962962962  L 19.9014778325123 3.50617283950617  L 19.6059113300493 3.50617283950617  L 17.7339901477832 3.31138545953361  L 14.8768472906404 3.70096021947875  L 12.512315270936 3.70096021947875  L 11.5270935960591 4.67489711934157  L 11.4285714285714 4.67489711934157  L 10.2463054187192 4.9670781893004  L 10.7389162561576 6.13580246913581  L 10.7389162561576 7.98628257887516  L 10.4433497536946 9.64197530864198  L 12.1182266009852 11.0054869684499  L 12.2167487684729 11.0054869684499  C 12.2167487684729 11.0054869684499  13.5960591133005 12.5637860082305  13.5960591133005 12.5637860082305  C 14.4827586206897 13.2455418381344  14.8768472906404 13.7325102880658  14.8768472906404 14.3168724279835  C 14.8768472906404 14.3168724279835  15.3694581280788 15.7777777777778  15.3694581280788 15.7777777777778  C 15.3694581280788 15.7777777777778  16.0591133004926 17.238683127572  16.0591133004926 17.238683127572  C 15.9605911330049 17.238683127572  15.9605911330049 17.3360768175583  15.8620689655172 17.3360768175583  C 15.8620689655172 17.3360768175583  13.9901477832512 18.6995884773662  13.9901477832512 18.6995884773662  L 12.7093596059113 20.3552812071331  L 13.0049261083744 21.8161865569273  L 13.8916256157635 23.8614540466392  L 13.9901477832512 24.0562414266118  L 13.9901477832512 24.1536351165981  C 13.9901477832512 24.1536351165981  13.7931034482759 24.9327846364883  13.7931034482759 24.9327846364883  C 13.5960591133005 25.4197530864197  13.3990147783251 25.8093278463649  13.1034482758621 26.0041152263374  C 12.512315270936 26.4910836762689  11.5270935960591 26.4910836762689  9.95073891625615 26.0041152263374  C 9.95073891625615 26.0041152263374  7.48768472906404 25.517146776406  7.48768472906404 25.517146776406  L 7.38916256157636 25.517146776406  L 7.29064039408868 25.517146776406  L 5.51724137931034 24.6406035665295  L 2.66009852216749 24.5432098765432  L 2.75862068965517 24.6406035665295  C 2.75862068965517 24.6406035665295  2.46305418719212 29.5102880658436  2.46305418719212 29.5102880658436  C 2.36453201970444 30.1920438957476  1.87192118226602 30.4842249657065  1.18226600985222 30.5816186556927  C 0.886699507389168 30.679012345679  0.689655172413796 31.0685871056241  0.788177339901475 31.8477366255144  C 0.788177339901475 31.8477366255144  0.788177339901475 31.9451303155007  0.788177339901475 31.9451303155007  L 0.689655172413796 31.9451303155007  C 0.689655172413796 31.9451303155007  0.492610837438424 33.2112482853223  0.492610837438424 33.2112482853223  C 1.18226600985222 33.79561042524  1.67487684729064 34.2825788751715  1.87192118226602 34.6721536351166  C 1.87192118226602 34.6721536351166  2.36453201970444 37.0096021947874  2.36453201970444 37.0096021947874  C 2.36453201970444 37.0096021947874  2.36453201970444 37.8861454046639  2.36453201970444 37.8861454046639  C 2.26600985221675 38.3731138545953  2.16748768472907 38.7626886145405  1.97044334975369 39.1522633744856  C 1.97044334975369 39.1522633744856  1.2807881773399 41.1001371742112  1.2807881773399 41.1001371742112  L 0 43.5349794238683  L 0 44.0219478737997  L 0.197044334975372 45.1906721536351  C 0.197044334975372 45.1906721536351  1.47783251231527 46.8463648834019  1.47783251231527 46.8463648834019  C 1.87192118226602 47.3333333333333  2.06896551724137 47.6255144032922  2.16748768472907 47.917695473251  C 2.16748768472907 47.917695473251  3.34975369458129 49.5733882030178  3.34975369458129 49.5733882030178  C 3.34975369458129 49.5733882030178  5.12315270935961 51.5212620027435  5.12315270935961 51.5212620027435  C 5.81280788177341 52.2030178326474  6.30541871921183 52.4951989026063  6.50246305418719 52.4951989026063  C 6.50246305418719 52.4951989026063  8.3743842364532 51.3264746227709  8.3743842364532 51.3264746227709  C 8.76847290640395 51.0342935528121  9.064039408867 50.8395061728395  9.55665024630543 50.8395061728395  C 9.95073891625615 50.8395061728395  10.5418719211823 51.1316872427983  11.4285714285714 51.716049382716  C 11.4285714285714 51.716049382716  11.5270935960591 51.716049382716  11.5270935960591 51.716049382716  L 11.5270935960591 51.8134430727023  L 12.512315270936 52.9821673525377  L 13.0049261083744 54.1508916323731  L 13.3990147783251 54.6378600823045  L 13.6945812807882 54.8326474622771  L 14.9753694581281 55.7091906721536  C 14.9753694581281 55.7091906721536  15.6650246305419 55.8065843621399  15.6650246305419 55.8065843621399  C 16.0591133004926 55.9039780521262  16.4532019704434 56.196159122085  16.7487684729064 56.5857338820302  C 16.9458128078818 56.877914951989  18.0295566502463 57.2674897119342  19.9014778325123 57.7544581618656  C 19.9014778325123 57.7544581618656  20 57.7544581618656  20 57.7544581618656  L 22.9556650246306 58.8257887517147  L 23.0541871921182 58.8257887517147  L 23.1527093596059 58.8257887517147  L 25.2216748768473 59.7997256515775  L 28.7684729064039 60.676268861454  L 28.8669950738916 60.7736625514403  L 33.4975369458128 60.9684499314129  L 35.5665024630542 60.1893004115226  L 37.4384236453202 60.1893004115226  L 37.4384236453202 60.2866941015089  L 37.5369458128079 60.3840877914952  L 39.1133004926108 62.3319615912208  L 39.1133004926108 62.4293552812071  L 40.0985221674877 63.9876543209876  L 40.8866995073892 64.8641975308642  L 41.9704433497537 65.3511659807956  L 42.0689655172414 65.4485596707819  L 42.1674876847291 65.5459533607682  L 43.0541871921182 67.4938271604938  L 43.0541871921182 67.5912208504801  L 43.1527093596059 67.5912208504801  L 43.1527093596059 67.6886145404664  L 43.6453201970444 69.8312757201646  L 45.0246305418719 70.318244170096  L 45.1231527093596 70.318244170096  L 45.2216748768473 70.318244170096  L 46.3054187192118 71  L 47.7832512315271 70.7078189300411  L 48.1773399014779 69.2469135802469  L 48.1773399014779 69.1495198902606  L 48.2758620689655 69.0521262002743  L 49.9507389162562 67.3964334705075  L 51.8226600985222 67.8834019204389  L 51.8226600985222 68.0781893004115  L 52.7093596059113 70.0260631001372  L 54.5812807881774 69.3443072702332  L 54.7783251231527 67.4938271604938  L 54.7783251231527 67.3964334705075  L 54.7783251231527 67.2990397805212  L 54.8768472906404 67.201646090535  L 56.1576354679803 66.519890260631  L 55.8620689655172 63.7928669410151  L 55.8620689655172 63.5980795610425  L 55.8620689655172 63.5006858710562  L 57.3399014778325 60.4814814814815  L 58.8177339901478 59.8971193415638  L 58.2266009852217 57.1700960219479  L 59.7044334975369 57.1700960219479  L 59.6059113300493 55.9039780521262  L 58.8177339901478 53.2743484224965  L 58.8177339901478 53.079561042524  L 59.0147783251232 51.2290809327846  L 59.0147783251232 50.9368998628258  L 59.2118226600985 50.8395061728395  L 60.1970443349754 49.5733882030178  L 60.3940886699508 49.3786008230452  L 60.6896551724138 49.3786008230452  L 63.3497536945813 49.8655692729767  L 63.448275862069 49.8655692729767  L 65.615763546798 50.4499314128944  L 67.487684729064 49.8655692729767  L 68.5714285714286 52.0082304526749  L 68.6699507389163 52.1056241426612  L 68.6699507389163 53.6639231824417  C 68.6699507389163 53.6639231824417  68.9655172413793 55.1248285322359  68.9655172413793 55.1248285322359  C 69.1625615763547 55.7091906721536  69.5566502463054 56.0987654320987  69.9507389162562 56.196159122085  C 69.9507389162562 56.196159122085  70.1477832512315 56.196159122085  70.1477832512315 56.196159122085  C 71.0344827586207 56.3909465020576  71.5270935960591 56.7805212620027  71.6256157635468 57.3648834019204  C 71.7241379310345 57.8518518518518  72.1182266009852 58.5336076817558  72.807881773399 59.3127572016461  C 72.807881773399 59.3127572016461  73.6945812807882 60.5788751714677  73.6945812807882 60.5788751714677  L 73.6945812807882 60.676268861454  L 74.2857142857143 61.7475994513031  L 75.1724137931035 61.6502057613169  L 76.8472906403941 60.1893004115226  L 77.9310344827586 62.4293552812071  L 80.0985221674877 63.1111111111111  L 80.1970443349754 63.1111111111111  L 80.2955665024631 63.2085048010974  L 81.3793103448276 65.156378600823  L 81.871921182266 65.4485596707819  L 81.9704433497537 63.5980795610425  L 81.9704433497537 63.5006858710562  L 81.9704433497537 63.2085048010974  L 86.3054187192118 63.1111111111111  C 86.3054187192118 63.1111111111111  86.4039408866995 62.721536351166  86.4039408866995 62.721536351166  C 86.5024630541872 62.5267489711934  86.5024630541872 62.1371742112483  86.3054187192118 61.8449931412894  C 86.0098522167488 61.2606310013717  85.9113300492611 60.7736625514403  85.8128078817734 60.0919067215363  C 85.7142857142857 59.3127572016461  85.8128078817734 58.7283950617284  86.0098522167488 58.5336076817558  C 86.3054187192118 58.1440329218107  86.5024630541872 58.1440329218107  86.9950738916257 58.241426611797  C 86.9950738916257 58.241426611797  88.768472906404 58.8257887517147  88.768472906404 58.8257887517147  L 88.9655172413793 57.559670781893  L 85.7142857142857 56.0987654320987  L 85.5172413793104 56.0987654320987  L 85.4187192118227 55.9039780521262  L 85.4187192118227 55.8065843621399  L 85.4187192118227 55.7091906721536  L 84.9261083743842 51.8134430727023  L 85.024630541872 49.3786008230452  L 85.024630541872 49.0864197530864  L 85.024630541872 48.8916323731138  L 90.4433497536946 49.5733882030178  C 90.4433497536946 49.5733882030178  91.8226600985222 48.3072702331961  91.8226600985222 48.3072702331961  C 92.1182266009852 47.8203017832647  92.0197044334976 47.4307270233196  91.8226600985222 47.3333333333333  C 90.4433497536946 46.8463648834019  89.7536945812808 46.2620027434842  89.7536945812808 45.6776406035665  C 89.7536945812808 45.3854595336077  89.8522167487685 44.9958847736625  90.3448275862069 44.80109739369  C 90.3448275862069 44.80109739369  92.6108374384237 42.5610425240055  92.6108374384237 42.5610425240055  L 95.0738916256158 42.4636488340192  L 96.3546798029557 40.320987654321  L 96.3546798029557 38.2757201646091  C 96.3546798029557 38.2757201646091  98.2266009852217 37.8861454046639  98.2266009852217 37.8861454046639  C 98.7192118226601 36.4252400548697  99.0147783251232 35.6460905349794  99.2118226600985 35.3539094650206  C 99.2118226600985 35.3539094650206  100 33.6982167352538  100 33.6982167352538  L 98.6206896551724 31.2633744855967  L 98.6206896551724 31.1659807956104  L 98.6206896551724 31.0685871056241  L 97.7339901477833 27.7572016460905  L 97.7339901477833 27.6598079561043  L 97.1428571428572 24.2510288065844  L 95.960591133005 22.3031550068587  L 94.1871921182266 20.5500685871056  L 94.1871921182266 20.4526748971193  L 94.1871921182266 20.3552812071331  L 94.0886699507389 20.2578875171468  L 93.9901477832513 18.4074074074074  L 90.7389162561577 19.3813443072702  L 90.64039408867 19.283950617284  L 89.1625615763547 17.6282578875171  L 84.7290640394089 14.3168724279835  L 84.6305418719212 14.3168724279835  L 82.9556650246305 12.1742112482853  L 81.871921182266 11.4924554183814  L 81.1822660098522 12.5637860082305  L 81.1822660098522 12.758573388203  L 81.0837438423646 12.8559670781893  L 80.9852216748769 12.8559670781893  L 80.7881773399015 12.8559670781893  L 79.4088669950739 12.9533607681756  L 79.2118226600985 13.0507544581619  L 79.1133004926109 13.0507544581619  C 79.1133004926109 13.0507544581619  75.8620689655173 9.5445816186557  75.8620689655173 9.5445816186557  C 75.1724137931035 9.25240054869684  74.4827586206897 8.57064471879288  73.4975369458128 7.59670781893005  C 73.4975369458128 7.59670781893005  72.0197044334975 6.52537722908092  72.0197044334975 6.52537722908092  L 71.9211822660099 6.42798353909464  L 70.2463054187192 5.45404663923182  L 69.2610837438424 6.23319615912209  L 69.1625615763547 6.42798353909464  L 69.064039408867 6.33058984910837  L 68.9655172413793 6.33058984910837  L 68.0788177339901 6.13580246913581  L 67.0935960591133 6.62277091906723  L 66.9950738916256 6.7201646090535  L 66.8965517241379 6.81755829903978  L 66.7980295566503 6.81755829903978  C 66.7980295566503 6.81755829903978  65.4187192118227 7.01234567901233  65.4187192118227 7.01234567901233  C 63.5467980295567 5.94101508916323  61.6748768472906 4.86968449931413  59.7044334975369 3.70096021947875  Z " fill-rule="nonzero" fill="#0079fe" stroke="none" transform="matrix(1 0 0 1 534 480 )" />
  </g>
</svg>