<?xml version="1.0" encoding="utf-8"?>
<svg version="1.1" xmlns:xlink="http://www.w3.org/1999/xlink" width="89px" height="80px" xmlns="http://www.w3.org/2000/svg">
  <g transform="matrix(1 0 0 1 -742 -346 )">
    <path d="M 87.7270519811674 46.1901990811639  L 86.2584071377327 36.7053598774885  L 86.3563167939617 36.5117917304747  C 86.3563167939617 36.5117917304747  86.4542264501906 36.5117917304747  86.4542264501906 36.5117917304747  C 87.1395940437935 35.4471669218989  87.5312326687094 34.5761102603369  87.3354133562515 33.8986217457887  C 87.3354133562515 33.8986217457887  86.9437747313355 33.3179173047473  86.9437747313355 33.3179173047473  C 85.8667685128168 32.6404287901991  85.3772202316719 31.0918836140888  85.6709492003587 28.4787136294028  C 85.6709492003587 28.4787136294028  84.7897622942979 28.4787136294028  84.7897622942979 28.4787136294028  C 84.1043947006951 28.3819295558959  83.3211174508632 28.6722817764165  82.5378402010314 29.156202143951  C 81.7545629511995 29.7369065849924  81.2650146700546 30.4143950995406  81.1671050138256 30.898315467075  C 80.7754663889097 32.0597243491577  79.502640857933 32.8339969372129  77.3486284208953 33.5114854517611  C 77.3486284208953 33.5114854517611  76.8590801397504 36.5117917304747  76.8590801397504 36.5117917304747  L 76.8590801397504 36.6085758039816  L 76.7611704835215 36.7053598774885  L 75.6841642650027 38.6410413476263  L 75.5862546087737 38.8346094946401  L 75.4883449525447 38.8346094946401  L 75.3904352963157 38.8346094946401  L 65.6973793296466 40.5767228177642  L 65.5994696734175 40.5767228177642  L 65.3057407047307 40.5767228177642  L 65.3057407047307 40.3831546707504  L 62.4663606740902 37.3828483920368  L 63.347547580151 36.5117917304747  L 62.2705413616322 35.0600306278714  L 60.8998061744265 34.0921898928025  L 60.8018965181975 33.9954058192956  L 60.7039868619685 33.9954058192956  L 60.7039868619685 33.8986217457887  L 60.7039868619685 33.8018376722818  L 60.2144385808236 31.1886676875957  L 57.6687875188701 31.3822358346095  L 57.4729682064121 31.1886676875957  L 55.3189557693745 29.9304747320061  L 47.584092927285 28.5754977029097  L 41.1220556161722 28.285145482389  C 41.1220556161722 28.285145482389  40.9262363037142 28.4787136294028  40.9262363037142 28.4787136294028  C 40.6325073350273 28.4787136294028  40.4366880225693 28.3819295558959  40.3387783663404 28.1883614088821  C 40.3387783663404 28.1883614088821  36.6182114296391 19.8649310872894  36.6182114296391 19.8649310872894  C 36.2265728047231 19.1874425727412  34.6600183050595 17.0581929555896  31.5269093057321 13.3803981623277  C 28.5896196188626 9.79938744257274  26.9251554629699 7.86370597243492  26.435607181825 7.47656967840735  C 26.435607181825 7.47656967840735  20.9526664330021 2.15344563552833  20.9526664330021 2.15344563552833  L 20.0714795269412 1.66952526799387  L 13.2178035909125 1.57274119448698  L 13.1198939346835 1.57274119448698  C 13.1198939346835 1.57274119448698  12.9240746222256 1.3791730474732  12.9240746222256 1.3791730474732  C 12.2387070286227 0.895252679938744  11.2596104663329 0.411332312404288  9.79096562289814 0.120980091883614  C 8.51814009192143 -0.362940275650842  5.58085040505199 0.604900459418071  0.979096562289814 3.02450229709035  C 0.979096562289814 3.02450229709035  0.783277249831863 3.12128637059724  0.783277249831863 3.12128637059724  L 0.979096562289814 4.47626339969372  L 1.07700621851882 4.47626339969372  L 1.07700621851882 4.57304747320061  L 0.979096562289814 4.57304747320061  L 0.979096562289814 4.7666156202144  L 0.195819312458007 6.31516079632466  L 0.195819312458007 6.41194486983155  L 0.0979096562290037 6.41194486983155  C 0.0979096562290037 6.41194486983155  0 7.47656967840735  0 7.47656967840735  C 0 8.34762633996938  0.195819312458007 9.31546707503829  0.489548281144907 10.0897396630934  C 0.489548281144907 10.0897396630934  1.17491587474782 10.5736600306279  1.17491587474782 10.5736600306279  L 2.64356071818254 10.476875957121  L 3.91638624915926 10.7672281776417  C 3.91638624915926 10.7672281776417  4.40593453030416 10.3800918836141  4.40593453030416 10.3800918836141  C 4.40593453030416 9.50903522205207  4.69966349899112 8.83154670750383  5.09130212390708 8.63797856049005  C 5.09130212390708 8.63797856049005  6.07039868619689 8.63797856049005  6.07039868619689 8.63797856049005  L 9.49723665421124 9.60581929555896  L 10.280513904043 9.70260336906585  L 9.20350768552428 11.5415007656968  C 9.20350768552428 11.5415007656968  9.20350768552428 13.7675344563553  9.20350768552428 13.7675344563553  C 9.20350768552428 14.2514548238897  10.0846945915851 15.4128637059724  11.8470684037068 17.0581929555896  C 12.9240746222256 17.8324655436447  13.6094422158284 18.2196018376723  14.1969001532023 18.3163859111792  C 14.1969001532023 18.3163859111792  14.6864484343472 18.2196018376723  14.6864484343472 18.2196018376723  L 15.1759967154921 18.0260336906585  L 16.8404608713848 16.3807044410413  L 18.1132864023616 15.6064318529862  L 18.1132864023616 15.5096477794793  L 20.7568471205441 15.1225114854518  L 21.5401243703759 13.4771822358346  L 23.8899561198715 12.1222052067381  L 25.9460589006801 13.2836140888208  L 25.9460589006801 13.3803981623277  L 26.1418782131381 13.4771822358346  L 28.1000713377177 16.7678407350689  L 28.8833485875495 18.9938744257274  L 28.8833485875495 19.2842266462481  L 28.4917099626336 21.994180704441  L 29.2749872124655 23.833078101072  L 29.2749872124655 24.1234303215927  L 28.6875292750916 26.2526799387443  C 28.6875292750916 26.2526799387443  28.6875292750916 28.1883614088821  28.6875292750916 28.1883614088821  C 29.2749872124655 29.9304747320061  29.5687161811524 31.0918836140888  29.5687161811524 31.3822358346095  C 29.5687161811524 31.3822358346095  29.3728968686944 33.0275650842267  29.3728968686944 33.0275650842267  L 29.3728968686944 33.1243491577335  L 28.3938003064046 34.47932618683  L 28.3938003064046 34.5761102603369  L 27.4147037441148 35.7375191424196  L 27.3167940878859 37.8667687595712  L 27.9042520252597 40.0928024502297  L 28.0021616814887 40.1895865237366  L 27.9042520252597 40.2863705972435  L 27.3167940878859 43.6738131699847  C 27.3167940878859 43.6738131699847  26.827245806741 44.1577335375191  26.827245806741 44.1577335375191  C 26.435607181825 44.4480857580398  25.9460589006801 44.4480857580398  25.3586009633062 44.1577335375191  C 25.3586009633062 44.1577335375191  25.1627816508483 44.1577335375191  25.1627816508483 44.1577335375191  L 24.2815947447874 43.1898928024502  L 23.3024981824976 43.4802450229709  L 22.0296726515208 44.8352220520674  L 20.6589374643151 48.8033690658499  L 20.6589374643151 48.9001531393568  L 20.5610278080861 48.9969372128637  L 19.1902926208804 50.1583460949464  L 18.9944733084224 50.1583460949464  L 18.2111960585906 50.2551301684533  L 16.6446415589268 52.4811638591118  L 17.4279188087587 53.9329249617152  L 17.6237381212167 54.1264931087289  L 19.5819312457963 56.5460949464012  L 19.5819312457963 56.6428790199081  L 19.5819312457963 57.4171516079633  L 21.7359436828339 57.7075038284839  L 22.1275823077498 59.6431852986218  L 22.1275823077498 59.7399693721287  L 22.4213112764368 62.062787136294  L 23.0087692138106 62.5467075038285  L 24.9669623383903 61.9660030627872  L 26.827245806741 60.9013782542114  L 27.1209747754279 60.7078101071976  L 27.8063423690308 63.9984686064319  L 28.6875292750916 65.2566615620214  L 28.8833485875495 65.3534456355283  L 29.5687161811524 66.7084226646248  C 29.5687161811524 66.7084226646248  31.0373610245872 67.8698315467075  31.0373610245872 67.8698315467075  C 31.2331803370451 68.1601837672282  31.72272861819 68.1601837672282  32.2122768993349 68.1601837672282  C 32.2122768993349 68.1601837672282  32.7018251804798 68.2569678407351  32.7018251804798 68.2569678407351  C 32.7018251804798 68.2569678407351  33.5830120865406 67.8698315467075  33.5830120865406 67.8698315467075  C 34.2683796801435 67.5794793261868  34.9537472737464 67.2891271056662  35.7370245235782 67.1923430321593  C 35.7370245235782 67.1923430321593  36.3244824609521 66.9019908116386  36.3244824609521 66.9019908116386  C 36.3244824609521 66.9019908116386  37.6952176481579 66.8052067381317  37.6952176481579 66.8052067381317  C 38.1847659293028 66.8052067381317  38.3805852417608 66.9019908116386  38.6743142104477 67.1923430321593  C 38.6743142104477 67.1923430321593  40.6325073350273 65.9341500765697  40.6325073350273 65.9341500765697  L 40.8283266474853 65.9341500765697  L 41.0241459599433 66.0309341500766  L 41.1220556161722 65.9341500765697  C 41.1220556161722 65.9341500765697  41.3178749286302 66.1277182235835  41.3178749286302 66.1277182235835  C 42.101152178462 66.9987748851455  42.492790803378 67.7730474732006  42.492790803378 68.1601837672282  C 42.492790803378 68.1601837672282  43.3739777094388 69.6119448698316  43.3739777094388 69.6119448698316  L 44.0593453030416 69.8055130168453  L 44.1572549592706 69.8055130168453  L 44.2551646154997 69.8055130168453  C 44.2551646154997 69.8055130168453  44.0593453030416 69.6119448698316  44.0593453030416 69.6119448698316  C 43.9614356468127 69.1280245022971  43.9614356468127 68.8376722817764  44.0593453030416 68.6441041347626  C 44.2551646154997 68.353751914242  44.6468032404156 68.1601837672282  45.2342611777895 68.1601837672282  C 45.2342611777895 68.1601837672282  48.8569184582618 68.0633996937213  48.8569184582618 68.0633996937213  L 48.9548281144907 67.9666156202144  L 49.1506474269487 67.9666156202144  L 49.1506474269487 68.1601837672282  L 49.3464667394067 68.1601837672282  L 50.4234729579254 70.1926493108729  L 50.3255633016965 71.2572741194487  L 50.2276536454675 71.2572741194487  L 51.5983888326733 71.5476263399694  C 51.5983888326733 71.5476263399694  51.6962984889022 71.5476263399694  51.6962984889022 71.5476263399694  C 51.5983888326733 71.2572741194487  51.5983888326733 71.0637059724349  51.7942081451312 70.8701378254211  C 51.7942081451312 70.8701378254211  52.2837564262761 70.7733537519143  52.2837564262761 70.7733537519143  C 52.2837564262761 70.7733537519143  55.5147750818325 72.9993874425728  55.5147750818325 72.9993874425728  C 55.8085040505194 73.2897396630934  56.0043233629774 73.676875957121  56.1022330192064 74.1607963246555  C 56.1022330192064 74.1607963246555  56.2001426754354 75.5157733537519  56.2001426754354 75.5157733537519  L 57.2771488939541 75.7093415007657  C 57.2771488939541 75.7093415007657  57.962516487557 74.547932618683  57.962516487557 74.547932618683  C 57.6687875188701 73.9672281776417  57.4729682064121 73.3865237366003  57.5708778626411 72.9993874425728  C 57.6687875188701 72.6122511485452  57.766697175099 72.3218989280245  58.158335800015 72.1283307810107  C 58.158335800015 72.1283307810107  58.452064768702 71.8379785604901  58.452064768702 71.8379785604901  C 58.452064768702 71.6444104134763  58.5499744249309 71.5476263399694  58.7457937373889 71.4508422664625  C 58.7457937373889 71.4508422664625  59.6269806434497 71.5476263399694  59.6269806434497 71.5476263399694  C 60.1165289245946 71.8379785604901  60.5081675495105 72.805819295559  60.7039868619685 74.4511485451761  C 60.7039868619685 74.4511485451761  60.7039868619685 74.6447166921899  60.7039868619685 74.6447166921899  C 60.7039868619685 74.6447166921899  60.8998061744265 74.7415007656968  60.8998061744265 74.7415007656968  C 60.9977158306554 75.1286370597244  61.5851737680293 75.418989280245  62.4663606740902 75.7093415007657  C 62.4663606740902 75.7093415007657  62.5642703303192 75.7093415007657  62.5642703303192 75.7093415007657  L 62.6621799865481 75.8061255742726  L 65.7952889858756 79  L 67.2639338293103 78.5160796324656  C 67.2639338293103 78.5160796324656  67.0681145168523 78.0321592649311  67.0681145168523 78.0321592649311  C 66.6764758919364 77.5482388973966  66.5785662357074 77.0643185298622  66.5785662357074 76.7739663093415  C 66.5785662357074 76.0964777947933  67.0681145168523 75.418989280245  68.0472110791421 74.7415007656968  C 68.0472110791421 74.7415007656968  69.7116752350348 73.2897396630934  69.7116752350348 73.2897396630934  L 71.6698683596145 74.6447166921899  L 72.0615069845304 74.6447166921899  L 72.4531456094463 72.5154670750383  L 72.4531456094463 72.1283307810107  L 72.8447842343622 72.0315467075038  C 72.8447842343622 72.0315467075038  74.4113387340259 72.2251148545176  74.4113387340259 72.2251148545176  C 74.7050677027128 72.5154670750383  74.9008870151708 72.805819295559  74.9008870151708 73.2897396630934  C 74.9008870151708 73.676875957121  74.6071580464839 74.1607963246555  74.3134290777969 74.547932618683  C 74.3134290777969 74.547932618683  74.6071580464839 74.7415007656968  74.6071580464839 74.7415007656968  C 75.5862546087737 75.2254211332313  76.3695318586055 75.6125574272588  76.9569897959794 75.7093415007657  C 76.9569897959794 75.7093415007657  77.0548994522084 75.7093415007657  77.0548994522084 75.7093415007657  L 78.3277249831851 76.3868300153139  L 79.306821545475 76.2900459418071  C 79.306821545475 76.2900459418071  77.8381767020402 69.224808575804  77.8381767020402 69.224808575804  C 76.8590801397504 68.6441041347626  75.9778932336896 67.4826952526799  75.0967063276288 66.1277182235835  C 74.4113387340259 64.9663093415008  74.8029773589418 63.3209800918836  76.3695318586055 61.3852986217458  C 77.2507187646664 60.4174578866769  78.3277249831851 59.449617151608  79.502640857933 58.4817764165391  C 79.502640857933 58.4817764165391  79.6005505141619 58.2882082695253  79.6005505141619 58.2882082695253  L 80.9712857013677 58.2882082695253  L 81.0691953575966 58.4817764165391  L 82.2441112323444 58.9656967840735  C 82.2441112323444 58.9656967840735  84.6918526380689 58.9656967840735  84.6918526380689 58.9656967840735  C 85.6709492003587 58.4817764165391  86.5521361064196 57.0300153139357  87.5312326687094 54.7071975497703  C 88.1186906060833 53.3522205206738  88.1186906060833 50.545482388974  87.7270519811674 46.1901990811639  Z " fill-rule="nonzero" fill="#0079fe" stroke="none" fill-opacity="0.658823529411765" transform="matrix(1 0 0 1 742 346 )" />
  </g>
</svg>