<?xml version="1.0" encoding="utf-8"?>
<svg version="1.1" xmlns:xlink="http://www.w3.org/1999/xlink" width="14px" height="15px" xmlns="http://www.w3.org/2000/svg">
  <g transform="matrix(1 0 0 1 -723 -462 )">
    <path d="M 6.5 2.83417004818756  L 6.30597014925374 3.12800767849841  L 6.01492537313433 3.03006180172812  L 4.75373134328357 2.83417004818756  L 4.65671641791047 3.42184530880926  L 4.65671641791047 3.71568293912012  L 4.36567164179105 3.71568293912012  L 2.32835820895521 4.49924995328239  C 2.32835820895521 4.49924995328239  2.23134328358211 4.79308758359325  2.23134328358211 4.79308758359325  C 1.94029850746269 5.47870872098523  2.23134328358211 6.06638398160695  2.91044776119404 6.84995099576922  C 2.91044776119404 6.84995099576922  3.10447761194029 7.04584274930979  3.10447761194029 7.04584274930979  C 3.10447761194029 7.04584274930979  2.91044776119404 7.33968037962064  2.91044776119404 7.33968037962064  C 2.32835820895521 8.31913914732349  1.45522388059702 9.29859791502633  0.485074626865673 9.98421905241831  C 0.0970149253731014 10.2780566827292  0 10.57189431304  0 10.8657319433509  C 0 10.8657319433509  0.679104477611931 11.7472448342834  0.679104477611931 11.7472448342834  L 1.74626865671643 12.1390283413646  C 1.74626865671643 12.1390283413646  2.61940298507462 12.2369742181349  2.61940298507462 12.2369742181349  C 3.78358208955222 12.2369742181349  4.55970149253731 12.3349200949051  4.85074626865672 12.8246494787566  C 4.85074626865672 12.8246494787566  5.82089552238807 13.5102706161486  5.82089552238807 13.5102706161486  C 6.5 13.8041082464594  7.08208955223883 14  7.5671641791045 14  C 7.95522388059702 14  8.44029850746269 13.7061623696891  8.82835820895521 12.9225953555268  C 8.82835820895521 12.9225953555268  9.6044776119403 12.0410824645943  9.6044776119403 12.0410824645943  L 10.1865671641791 10.1801108059589  L 9.70149253731345 8.02530151701263  L 10.4776119402985 8.22119327055321  L 11.7388059701492 8.31913914732349  L 12.3208955223881 7.92735564024234  L 12.5149253731343 7.43762625639092  L 11.544776119403 4.59719583005268  C 11.544776119403 4.59719583005268  11.8358208955224 3.61773706234984  11.8358208955224 3.61773706234984  C 12.1268656716418 3.03006180172812  12.5149253731343 2.83417004818756  12.9029850746269 2.73622417141727  C 12.9029850746269 2.73622417141727  13 2.73622417141727  13 2.73622417141727  L 12.8059701492537 2.05060303402528  L 10.4776119402985 2.14854891079557  L 10.4776119402985 2.05060303402528  C 10.4776119402985 2.05060303402528  8.34328358208954 0.581414882471012  8.34328358208954 0.581414882471012  C 7.47014925373135 -0.0062603781506892  6.59701492537316 -0.104206254920968  5.82089552238807 0.0916854986195896  C 5.82089552238807 0.0916854986195896  5.52985074626866 0.287577252160161  5.52985074626866 0.287577252160161  C 5.3358208955224 0.679360759241304  5.52985074626866 1.07114426632243  6.11194029850748 1.26703601986301  C 6.59701492537316 1.65881952694415  6.79104477611942 2.14854891079557  6.5 2.83417004818756  Z " fill-rule="nonzero" fill="#0079fe" stroke="none" transform="matrix(1 0 0 1 723 462 )" />
  </g>
</svg>