<?xml version="1.0" encoding="utf-8"?>
<svg version="1.1" xmlns:xlink="http://www.w3.org/1999/xlink" width="123px" height="40px" xmlns="http://www.w3.org/2000/svg">
  <g transform="matrix(1 0 0 1 -48 -1188 )">
    <path d="M 48.5 1208  A 19.5 19.5 0 0 1 68 1188.5 L 151 1188.5  A 19.5 19.5 0 0 1 170.5 1208 A 19.5 19.5 0 0 1 151 1227.5 L 68 1227.5  A 19.5 19.5 0 0 1 48.5 1208 Z " fill-rule="nonzero" fill="#ecf5ff" stroke="none" />
    <path d="M 48.5 1208  A 19.5 19.5 0 0 1 68 1188.5 L 151 1188.5  A 19.5 19.5 0 0 1 170.5 1208 A 19.5 19.5 0 0 1 151 1227.5 L 68 1227.5  A 19.5 19.5 0 0 1 48.5 1208 Z " stroke-width="1" stroke="#d9ecff" fill="none" />
  </g>
</svg>