<?xml version="1.0" encoding="utf-8"?>
<svg version="1.1" xmlns:xlink="http://www.w3.org/1999/xlink" width="24px" height="41px" xmlns="http://www.w3.org/2000/svg">
  <g transform="matrix(1 0 0 1 -1376 -1592 )">
    <path d="M 23.5876288659794 19.5551102204409  C 23.8625429553265 19.8289913159653  24 20.1439545758183  24 20.5  C 24 20.8560454241817  23.8625429553265 21.1710086840347  23.5876288659794 21.4448897795591  L 4.37113402061856 40.5891783567134  C 4.09621993127148 40.8630594522378  3.78006872852234 41  3.42268041237113 41  C 3.06529209621993 41  2.74914089347079 40.8630594522378  2.47422680412371 40.5891783567134  L 0.412371134020619 38.5350701402806  C 0.13745704467354 38.2611890447562  0 37.9462257849031  0 37.5901803607214  C 0 37.2341349365397  0.13745704467354 36.9191716766867  0.412371134020619 36.6452905811623  L 16.6185567010309 20.5  L 0.412371134020619 4.35470941883768  C 0.13745704467354 4.08082832331329  0 3.76586506346025  0 3.40981963927856  C 0 3.05377421509686  0.13745704467354 2.73881095524382  0.412371134020619 2.46492985971944  L 2.47422680412371 0.410821643286574  C 2.74914089347079 0.13694054776219  3.06529209621993 0  3.42268041237113 0  C 3.78006872852234 0  4.09621993127148 0.13694054776219  4.37113402061856 0.410821643286574  L 23.5876288659794 19.5551102204409  Z " fill-rule="nonzero" fill="#0079fe" stroke="none" fill-opacity="0.87843137254902" transform="matrix(1 0 0 1 1376 1592 )" />
  </g>
</svg>