<?xml version="1.0" encoding="utf-8"?>
<svg version="1.1" xmlns:xlink="http://www.w3.org/1999/xlink" width="12px" height="12px" viewBox="147 142  12 12" xmlns="http://www.w3.org/2000/svg">
  <path d="M 153 142  C 156.36 142  159 144.64  159 148  C 159 151.36  156.36 154  153 154  C 149.64 154  147 151.36  147 148  C 147 144.64  149.64 142  153 142  Z " fill-rule="nonzero" fill="#f0f0f0" stroke="none" />
  <path d="M 153 142.5  C 156.08 142.5  158.5 144.92  158.5 148  C 158.5 151.08  156.08 153.5  153 153.5  C 149.92 153.5  147.5 151.08  147.5 148  C 147.5 144.92  149.92 142.5  153 142.5  Z " stroke-width="1" stroke="#797979" fill="none" />
  <path d="M 153 151  C 151.32 151  150 149.68  150 148  C 150 146.32  151.32 145  153 145  C 154.68 145  156 146.32  156 148  C 156 149.68  154.68 151  153 151  " fill-rule="nonzero" fill="#797979" stroke="none" />
</svg>