<?xml version="1.0" encoding="utf-8"?>
<svg version="1.1" xmlns:xlink="http://www.w3.org/1999/xlink" width="12px" height="12px" viewBox="147 92  12 12" xmlns="http://www.w3.org/2000/svg">
  <path d="M 153 92  C 156.36 92  159 94.64  159 98  C 159 101.36  156.36 104  153 104  C 149.64 104  147 101.36  147 98  C 147 94.64  149.64 92  153 92  Z " fill-rule="nonzero" fill="#ffffff" stroke="none" />
  <path d="M 153 92.5  C 156.08 92.5  158.5 94.92  158.5 98  C 158.5 101.08  156.08 103.5  153 103.5  C 149.92 103.5  147.5 101.08  147.5 98  C 147.5 94.92  149.92 92.5  153 92.5  Z " stroke-width="1" stroke="#797979" fill="none" />
  <path d="M 153 101  C 151.32 101  150 99.68  150 98  C 150 96.32  151.32 95  153 95  C 154.68 95  156 96.32  156 98  C 156 99.68  154.68 101  153 101  " fill-rule="nonzero" fill="#797979" stroke="none" />
</svg>