<?xml version="1.0" encoding="utf-8"?>
<svg version="1.1" xmlns:xlink="http://www.w3.org/1999/xlink" width="12px" height="12px" viewBox="17 92  12 12" xmlns="http://www.w3.org/2000/svg">
  <path d="M 23 92  C 26.36 92  29 94.64  29 98  C 29 101.36  26.36 104  23 104  C 19.64 104  17 101.36  17 98  C 17 94.64  19.64 92  23 92  Z " fill-rule="nonzero" fill="#f0f0f0" stroke="none" />
  <path d="M 23 92.5  C 26.08 92.5  28.5 94.92  28.5 98  C 28.5 101.08  26.08 103.5  23 103.5  C 19.92 103.5  17.5 101.08  17.5 98  C 17.5 94.92  19.92 92.5  23 92.5  Z " stroke-width="1" stroke="#797979" fill="none" />
  <path d="M 23 101  C 21.32 101  20 99.68  20 98  C 20 96.32  21.32 95  23 95  C 24.68 95  26 96.32  26 98  C 26 99.68  24.68 101  23 101  " fill-rule="nonzero" fill="#797979" stroke="none" />
</svg>