<?xml version="1.0" encoding="utf-8"?>
<svg version="1.1" xmlns:xlink="http://www.w3.org/1999/xlink" width="12px" height="12px" viewBox="147 33  12 12" xmlns="http://www.w3.org/2000/svg">
  <path d="M 153 33  C 156.36 33  159 35.64  159 39  C 159 42.36  156.36 45  153 45  C 149.64 45  147 42.36  147 39  C 147 35.64  149.64 33  153 33  Z " fill-rule="nonzero" fill="#f0f0f0" stroke="none" />
  <path d="M 153 33.5  C 156.08 33.5  158.5 35.92  158.5 39  C 158.5 42.08  156.08 44.5  153 44.5  C 149.92 44.5  147.5 42.08  147.5 39  C 147.5 35.92  149.92 33.5  153 33.5  Z " stroke-width="1" stroke="#797979" fill="none" />
  <path d="M 153 42  C 151.32 42  150 40.68  150 39  C 150 37.32  151.32 36  153 36  C 154.68 36  156 37.32  156 39  C 156 40.68  154.68 42  153 42  " fill-rule="nonzero" fill="#797979" stroke="none" />
</svg>