<?xml version="1.0" encoding="utf-8"?>
<svg version="1.1" xmlns:xlink="http://www.w3.org/1999/xlink" width="12px" height="12px" viewBox="17 33  12 12" xmlns="http://www.w3.org/2000/svg">
  <path d="M 23 33  C 26.36 33  29 35.64  29 39  C 29 42.36  26.36 45  23 45  C 19.64 45  17 42.36  17 39  C 17 35.64  19.64 33  23 33  Z " fill-rule="nonzero" fill="#f0f0f0" stroke="none" />
  <path d="M 23 33.5  C 26.08 33.5  28.5 35.92  28.5 39  C 28.5 42.08  26.08 44.5  23 44.5  C 19.92 44.5  17.5 42.08  17.5 39  C 17.5 35.92  19.92 33.5  23 33.5  Z " stroke-width="1" stroke="#797979" fill="none" />
  <path d="M 23 42  C 21.32 42  20 40.68  20 39  C 20 37.32  21.32 36  23 36  C 24.68 36  26 37.32  26 39  C 26 40.68  24.68 42  23 42  " fill-rule="nonzero" fill="#797979" stroke="none" />
</svg>