<?xml version="1.0" encoding="utf-8"?>
<svg version="1.1" xmlns:xlink="http://www.w3.org/1999/xlink" width="12px" height="12px" viewBox="147 87  12 12" xmlns="http://www.w3.org/2000/svg">
  <path d="M 153 87  C 156.36 87  159 89.64  159 93  C 159 96.36  156.36 99  153 99  C 149.64 99  147 96.36  147 93  C 147 89.64  149.64 87  153 87  Z " fill-rule="nonzero" fill="#ffffff" stroke="none" />
  <path d="M 153 87.5  C 156.08 87.5  158.5 89.92  158.5 93  C 158.5 96.08  156.08 98.5  153 98.5  C 149.92 98.5  147.5 96.08  147.5 93  C 147.5 89.92  149.92 87.5  153 87.5  Z " stroke-width="1" stroke="#797979" fill="none" />
  <path d="M 153 96  C 151.32 96  150 94.68  150 93  C 150 91.32  151.32 90  153 90  C 154.68 90  156 91.32  156 93  C 156 94.68  154.68 96  153 96  " fill-rule="nonzero" fill="#797979" stroke="none" />
</svg>