<?xml version="1.0" encoding="utf-8"?>
<svg version="1.1" xmlns:xlink="http://www.w3.org/1999/xlink" width="12px" height="12px" viewBox="17 37  12 12" xmlns="http://www.w3.org/2000/svg">
  <path d="M 23 37  C 26.36 37  29 39.64  29 43  C 29 46.36  26.36 49  23 49  C 19.64 49  17 46.36  17 43  C 17 39.64  19.64 37  23 37  Z " fill-rule="nonzero" fill="#ffffff" stroke="none" />
  <path d="M 23 37.5  C 26.08 37.5  28.5 39.92  28.5 43  C 28.5 46.08  26.08 48.5  23 48.5  C 19.92 48.5  17.5 46.08  17.5 43  C 17.5 39.92  19.92 37.5  23 37.5  Z " stroke-width="1" stroke="#797979" fill="none" />
  <path d="M 23 46  C 21.32 46  20 44.68  20 43  C 20 41.32  21.32 40  23 40  C 24.68 40  26 41.32  26 43  C 26 44.68  24.68 46  23 46  " fill-rule="nonzero" fill="#797979" stroke="none" />
</svg>